<svg width="235" height="84" viewBox="0 0 235 84" fill="none" xmlns="http://www.w3.org/2000/svg">
<path d="M192.133 67.2043C195.073 67.4909 198.009 67.7964 200.94 68.1206L207.411 52.0036L213.562 69.6057C216.719 70.0052 219.871 70.4235 223.017 70.8606L212.235 39.9922L223.022 13.125H213.886L213.792 13.2559L207.966 27.7705L202.851 13.125H193.831L203.144 39.7799L192.133 67.2043Z" fill="#BDBDBD"/>
<path d="M185.31 66.5733V13.126H176.293V65.8241C179.302 66.0565 182.308 66.3062 185.31 66.5733Z" fill="#BDBDBD"/>
<path d="M117.58 63.5832C120.015 63.5832 122.445 63.6012 124.872 63.6216V43.986H135.704V35.6239H124.872V21.4953H137.347V13.124H115.819V63.5899C116.406 63.5899 116.992 63.5827 117.58 63.5827" fill="#BDBDBD"/>
<path d="M89.5851 64.0942C92.5878 63.9859 95.595 63.8949 98.6068 63.8211V21.4962H107.034V13.125H81.1562V21.4962H89.5851V64.0942Z" fill="#BDBDBD"/>
<path d="M20.6287 69.731V37.8872L31.304 68.4444C34.5865 68.0719 37.8757 67.7213 41.1717 67.3926V13.126H32.5213V46.1094L21.0002 13.126H11.9785V70.8751H12.0322C14.8917 70.4756 17.7573 70.0942 20.6288 69.7309" fill="#BDBDBD"/>
<path d="M72.4632 21.4952V13.124H50.9336V66.486C58.078 65.8632 65.2486 65.3403 72.4452 64.9174V56.5393C68.2834 56.783 64.1305 57.0622 59.9867 57.3766V43.9884H70.8183V35.6217H59.9867V21.4954H72.4632V21.4952Z" fill="#BDBDBD"/>
<path d="M155.217 56.1396V13.124H146.162V64.1247C153.365 64.3911 160.541 64.7598 167.692 65.2306V56.8488C163.541 56.5779 159.383 56.3417 155.217 56.1401" fill="#BDBDBD"/>
</svg>
