<svg width="190" height="78" viewBox="0 0 190 78" fill="none" xmlns="http://www.w3.org/2000/svg">
<path d="M172.879 28.6715C169.062 28.6715 169.461 33.3775 169.303 38.4018H175.662C175.662 32.7387 175.662 28.6715 172.879 28.6715ZM169.303 46.6172C169.303 51.1622 171.528 52.0404 175.265 52.0404C179.558 52.0404 185.36 50.7634 187.587 50.3653V61.3724C185.839 62.0112 180.512 63.5244 175.265 63.5244C165.804 63.5244 154.276 62.0093 154.276 41.7508C154.276 23.885 163.34 19.6583 172.879 19.6583C182.658 19.6583 189.733 24.683 189.733 41.5911V46.6169L169.303 46.6172ZM132.011 30.8251C131.137 30.8251 129.389 31.5428 128.435 32.1019V52.5183C129.263 52.7565 130.117 52.8908 130.979 52.9181C133.602 52.9181 135.192 50.6854 135.192 41.3541C135.191 31.8617 134.476 30.8251 132.011 30.8251ZM133.76 63.5254C131.851 63.5254 129.864 62.9672 128.433 62.6478V77.8817H113.329V20.456H125.571L127.797 23.0883C130.279 20.8909 133.471 19.6721 136.781 19.6585C142.981 19.6585 150.295 21.4125 150.295 41.3517C150.295 63.2076 139.325 63.5254 133.76 63.5254ZM99.4138 15.2723C97.9166 15.2882 96.4485 14.8572 95.1959 14.0342C93.9433 13.2112 92.9628 12.0333 92.3789 10.6501C91.795 9.2669 91.6341 7.74078 91.9165 6.26559C92.1989 4.7904 92.912 3.43271 93.9651 2.36495C95.0183 1.29719 96.364 0.567539 97.8313 0.268679C99.2987 -0.0301803 100.821 0.11523 102.206 0.686444C103.591 1.25766 104.775 2.2289 105.609 3.47681C106.442 4.72473 106.887 6.193 106.887 7.69516C106.897 8.68614 106.71 9.66917 106.339 10.5875C105.968 11.5059 105.419 12.3414 104.724 13.0458C104.029 13.7503 103.202 14.3097 102.291 14.6918C101.379 15.074 100.402 15.2713 99.4138 15.2723ZM91.862 62.7274V20.456H106.967V62.7274H91.862ZM82.716 32.3404C80.9483 32.3607 79.2184 32.8566 77.7069 33.7762V62.7279H62.6025V20.456H74.6064L76.8328 24.5231C77.2884 23.0912 78.1917 21.8447 79.409 20.9684C80.6262 20.092 82.0925 19.6325 83.5905 19.6579C85.9754 19.6579 87.5651 20.1364 88.2798 20.5353V33.1362C86.4659 32.6372 84.5966 32.3699 82.716 32.3405V32.3404ZM54.0135 52.0404C54.9674 52.0404 58.3064 51.5632 59.4185 51.4019V62.1696C57.1141 62.7262 52.0256 63.5254 48.6871 63.5254C44.3934 63.5254 36.3642 63.0472 36.3642 51.3228V30.1077H30.7994V20.4563H36.3652L38.2734 10.8855L51.47 7.69608V20.4573H59.4198L57.4329 30.1087H51.4703V48.613C51.4694 51.4823 52.3434 52.0404 54.0135 52.0404V52.0404ZM14.9744 32.6593C14.9744 34.334 16.0881 34.8922 18.7111 36.0885L20.3014 36.8065C24.0378 38.4815 29.2044 41.1933 29.2044 49.1702C29.2044 61.9313 19.7438 63.5264 12.9867 63.5264C8.61463 63.5264 4.00334 62.4891 0.902556 61.5331V50.6053C3.60553 51.3242 8.29672 52.4392 10.3628 52.4392C12.6683 52.4392 14.4173 52.1213 14.4173 50.0472C14.4173 48.452 13.3041 47.7345 10.8401 46.6181L8.9316 45.7406C5.35545 44.0651 0.266602 41.1952 0.266602 33.4577C0.266602 22.1314 9.09091 19.6601 16.4849 19.6601C20.2866 19.6162 24.0625 20.2927 27.6141 21.654V32.2615C25.3882 31.5442 20.8578 30.5862 18.1548 30.5862C16.3265 30.5859 14.9744 31.064 14.9744 32.6593Z" fill="#BDBDBD"/>
</svg>
