<svg width="158" height="87" viewBox="0 0 158 87" fill="none" xmlns="http://www.w3.org/2000/svg">
<g clip-path="url(#clip0_0_48)">
<path d="M111.564 56.2051C109.386 56.71 103.655 57.0006 103.655 57.0006L102.929 59.2953C102.929 59.2953 105.787 59.0506 107.874 59.2647C107.874 59.2647 108.554 59.1882 108.63 60.0449C108.644 60.5964 108.624 61.1482 108.57 61.6971C108.57 61.6971 108.524 62.2173 107.798 62.3396C107.012 62.4773 101.629 62.6762 101.629 62.6762L100.752 65.6593C100.752 65.6593 100.434 66.3477 101.16 66.1489C101.841 65.9653 107.481 64.8944 108.222 65.0474C109.008 65.2463 109.885 66.3018 109.628 67.2809C109.326 68.4742 103.701 72.1151 100.268 71.855C100.268 71.855 98.4687 71.9774 96.9415 69.5144C95.5201 67.1738 97.4858 62.7221 97.4858 62.7221C97.4858 62.7221 96.5937 60.6416 97.2439 59.9531C97.2439 59.9531 97.637 59.6013 98.756 59.5095L100.132 56.6182C100.132 56.6182 98.5594 56.7253 97.6219 55.5626C96.7449 54.4459 96.6844 53.941 97.3497 53.6351C98.0604 53.2832 104.608 52.0747 109.114 52.2276C109.114 52.2276 110.687 52.0747 112.032 54.8283C112.017 54.8283 112.682 55.9451 111.564 56.2051ZM94.6128 67.3115C94.0382 68.6883 92.511 70.1569 90.6208 69.2391C88.7307 68.3212 85.767 62.1561 85.767 62.1561C85.767 62.1561 84.6329 59.8614 84.4212 59.9073C84.4212 59.9073 84.1793 59.4636 84.0281 61.9725C83.8769 64.4814 84.0583 69.3614 83.0754 70.1264C82.1379 70.8913 81.0039 70.5853 80.4141 69.6827C79.8849 68.7954 79.6581 66.6843 79.9454 62.9822C80.2932 59.28 81.1399 55.3331 82.2287 54.094C83.3174 52.8549 84.1944 53.7574 84.5271 54.0787C84.5271 54.0787 85.9787 55.4096 88.3829 59.3259L88.8063 60.0449C88.8063 60.0449 90.9838 63.7471 91.2106 63.7318C91.2106 63.7318 91.392 63.9 91.5432 63.7777C91.7701 63.7165 91.6793 62.5232 91.6793 62.5232C91.6793 62.5232 91.2257 58.4998 89.2448 51.6769C89.2448 51.6769 88.9424 50.8202 89.1541 50.0247C89.3658 49.2292 90.1521 49.5964 90.1521 49.5964C90.1521 49.5964 93.2368 51.1568 94.7187 56.2357C96.1854 61.3606 95.1874 65.9347 94.6128 67.3115ZM79.4615 54.2623C79.2045 54.7824 79.0532 55.532 77.7528 55.7309C77.7528 55.7309 65.3082 56.5876 64.7185 57.4749C64.7185 57.4749 64.28 57.995 64.9604 58.148C65.6409 58.301 68.4534 58.6681 69.8143 58.7446C71.2659 58.7599 76.1651 58.8058 77.9192 61.024C77.9192 61.024 78.9625 62.0796 78.9172 64.4661C78.8718 66.9138 78.4484 67.7705 77.5109 68.6577C76.528 69.4838 68.0905 73.3083 62.6469 67.4339C62.6469 67.4339 60.1368 64.6038 63.5088 62.462C63.5088 62.462 65.9433 60.9781 72.1278 62.7221C72.1278 62.7221 74.0028 63.4105 73.9121 64.0989C73.8062 64.8332 72.3697 65.6134 70.283 65.5675C68.2568 65.5063 66.7749 64.5273 67.0622 64.6802C67.3344 64.7873 64.8848 63.487 64.1287 64.3743C63.3727 65.1851 63.5541 65.6899 64.2951 66.1948C66.1852 67.2809 73.4887 66.8985 75.6661 64.4508C75.6661 64.4508 76.528 63.4564 75.2125 62.6456C73.897 61.8807 70.1318 61.4218 68.6651 61.3453C67.2588 61.2688 62.0269 61.3606 61.2709 59.9531C61.2709 59.9531 60.5148 59.0047 61.3465 56.3122C62.2235 53.4974 68.3173 52.4112 70.9483 52.1664C70.9483 52.1664 78.1913 51.9064 79.522 53.4056C79.6119 53.6883 79.5902 53.9953 79.4615 54.2623ZM58.8969 70.7689C58.0198 71.4267 56.1599 71.136 55.6307 70.4017C55.1015 69.7439 54.92 67.1279 55.0259 63.0281C55.1317 58.8823 55.2224 53.7421 56.0995 52.9313C57.037 52.1052 57.6116 52.8243 57.9745 53.3903C58.3676 53.941 58.8364 54.5529 58.9422 55.8533C59.0481 57.1536 59.3354 63.9765 59.3354 63.9765C59.3354 63.9765 59.7285 70.1264 58.8969 70.7689ZM60.787 48.7703C58.2315 49.627 56.4775 49.3363 54.9956 48.6938C54.3454 49.8411 53.9674 50.193 53.4684 50.2695C52.7426 50.346 52.0924 49.168 51.9714 48.7856C51.8504 48.4949 51.5027 48.0054 51.926 46.8427C50.4744 45.5271 50.3686 43.7525 50.6105 42.5593C50.9734 41.1824 53.423 35.9505 60.8777 35.3386C60.8777 35.3386 64.5219 35.0632 65.1419 37.0367H65.2477C65.2477 37.0367 68.786 37.052 68.7104 40.234C68.6651 43.4313 64.779 47.4087 60.787 48.7703ZM53.8313 41.6873C53.0753 42.9111 53.045 43.6454 53.3928 44.1503C54.2547 42.8193 55.8273 40.7235 58.1408 39.1325C56.3565 39.2855 54.8595 40.0657 53.8313 41.6873ZM64.1287 39.6373C61.785 39.9892 58.1559 43.1712 56.4321 45.7719C59.0783 46.2614 63.7507 46.0778 65.8223 41.8097C65.8072 41.8097 66.8052 39.1631 64.1287 39.6373ZM127.758 64.2825C126.352 66.7608 122.405 71.9315 117.143 70.723C115.404 74.9911 113.953 79.2899 113.121 85.7457C113.121 85.7457 112.94 87.0001 111.911 86.5565C110.898 86.1893 109.205 84.4759 108.872 82.1047C108.509 78.9839 109.885 73.7061 112.682 67.6634C111.866 66.3171 111.306 64.3896 111.79 61.6512C111.79 61.6512 112.501 56.5723 117.536 51.9829C117.536 51.9829 118.141 51.4474 118.489 51.6157C118.882 51.784 118.701 53.4362 118.383 54.2317C118.066 55.0272 115.813 58.9741 115.813 58.9741C115.813 58.9741 114.406 61.6359 114.799 63.7318C117.446 59.6166 123.464 51.3098 127.199 53.9257C128.454 54.8283 129.028 56.8018 129.028 58.9282C129.013 60.8098 128.575 62.7986 127.758 64.2825ZM126.669 57.7655C126.669 57.7655 126.458 56.1286 124.885 57.9338C123.524 59.4483 121.075 62.309 119.094 66.1795C121.165 65.95 123.161 64.8026 123.766 64.2213C124.749 63.334 127.032 60.9475 126.669 57.7655ZM53.2567 59.8461C52.9694 63.5482 51.5631 69.7745 41.5984 72.8494C35.0207 74.8535 28.8059 73.8897 25.4188 73.0177C25.3432 74.3792 25.192 74.9605 24.9803 75.19C24.693 75.4807 22.5458 76.7351 21.3664 74.9605C20.8371 74.1191 20.565 72.5893 20.4138 71.2278C12.7927 67.6787 9.28465 62.5691 9.14856 62.3396C8.98223 62.1714 7.24331 60.3356 8.98223 58.0868C10.6153 56.0521 15.953 54.0175 20.7615 53.1914C20.9279 49.0303 21.4117 45.8942 21.9863 44.4562C22.6819 42.7887 23.5589 44.2879 24.315 45.42C24.9501 46.2614 25.3281 49.887 25.3583 52.7784C28.5035 52.6254 30.3634 52.8549 33.8715 53.4974C38.4381 54.3388 41.4925 56.6947 41.2203 59.3718C41.0238 62.0031 38.6346 63.0892 37.7274 63.1657C36.7747 63.2422 35.2929 62.5538 35.2929 62.5538C34.2798 62.0643 35.2173 61.6359 36.4421 61.1005C37.7727 60.4427 37.4703 59.7696 37.4703 59.7696C36.9713 58.301 31.0439 57.276 25.1466 57.276C25.1164 60.5651 25.2827 66.0265 25.3583 69.2085C29.4864 70.004 32.5711 69.851 32.5711 69.851C32.5711 69.851 47.6317 69.4226 48.0853 59.6931C48.5389 49.9635 33.0701 40.6011 21.6234 37.6333C10.1919 34.6043 3.7201 36.7154 3.16062 37.0061C2.55578 37.312 3.11526 37.4038 3.11526 37.4038C3.69113 37.5101 4.25751 37.6636 4.80882 37.8628C5.9429 38.2299 5.06587 38.8265 5.06587 38.8265C3.11526 39.4538 0.922703 39.056 0.499313 38.1534C0.0759232 37.2508 0.786613 36.44 1.60315 35.2774C2.41969 34.0536 3.31183 34.0994 3.31183 34.0994C17.45 29.1429 34.6729 38.1075 34.6729 38.1075C50.8071 46.3838 53.5591 56.0827 53.2567 59.8461ZM10.5851 59.3412C8.98223 60.1367 10.0861 61.2841 10.0861 61.2841C13.0952 64.5579 16.7998 66.6078 20.323 67.8775C20.7313 62.2326 20.6708 60.2438 20.7162 57.3984C15.2121 57.7808 12.0367 58.6681 10.5851 59.3412Z" fill="#828282"/>
<path d="M157.697 58.1783V60.1976C157.698 60.3023 157.678 60.4062 157.639 60.503C157.6 60.5999 157.542 60.6879 157.469 60.762C157.396 60.836 157.309 60.8946 157.213 60.9343C157.117 60.9739 157.014 60.994 156.911 60.9931H147.4C147.4 61.498 147.415 61.9416 147.415 62.3547C147.428 65.0782 147.292 67.8003 147.007 70.5085C146.988 70.7035 146.9 70.8848 146.757 71.0175C146.615 71.1502 146.429 71.225 146.236 71.2275H144.179C144.076 71.2276 143.975 71.2059 143.881 71.1637C143.787 71.1216 143.703 71.0599 143.635 70.9828C143.565 70.905 143.512 70.8127 143.481 70.7123C143.45 70.6119 143.44 70.5059 143.453 70.4014C143.743 67.7293 143.884 65.0428 143.877 62.3547C143.877 61.9263 143.877 61.4827 143.862 60.9931H134.456C134.353 60.994 134.25 60.9739 134.154 60.9343C134.059 60.8946 133.972 60.836 133.898 60.762C133.825 60.6879 133.767 60.5999 133.728 60.503C133.689 60.4062 133.669 60.3023 133.67 60.1976V58.1783C133.669 58.0736 133.689 57.9698 133.728 57.8729C133.767 57.776 133.825 57.688 133.898 57.614C133.972 57.54 134.059 57.4814 134.154 57.4417C134.25 57.402 134.353 57.382 134.456 57.3828H143.725C143.538 54.1353 143.129 50.9048 142.501 47.7144C142.484 47.6181 142.488 47.5194 142.511 47.4246C142.535 47.3298 142.577 47.2409 142.637 47.1637C142.696 47.0876 142.772 47.026 142.859 46.9836C142.945 46.9412 143.04 46.9191 143.136 46.9189H145.359C145.527 46.9198 145.69 46.9797 145.819 47.0885C145.949 47.1973 146.037 47.3483 146.069 47.5156C146.681 50.7751 147.085 54.0709 147.279 57.3828H156.911C157.118 57.3863 157.316 57.4713 157.463 57.6197C157.61 57.7681 157.694 57.9684 157.697 58.1783Z" fill="#828282"/>
<path d="M144.754 42.1614C140.21 30.8553 132.706 21.016 123.049 13.7012C113.392 6.38647 101.947 1.87295 89.9445 0.645905C77.9419 -0.581142 65.8357 1.5247 54.9275 6.73703C44.0193 11.9494 34.7216 20.071 28.034 30.2289C27.9676 30.3289 27.9249 30.443 27.9091 30.5624C27.8934 30.6818 27.9051 30.8032 27.9433 30.9173C27.9789 31.0324 28.0415 31.137 28.1258 31.2222C28.21 31.3075 28.3135 31.3708 28.4272 31.4068L30.151 32.0035C30.2493 32.0326 30.351 32.048 30.4534 32.0494C30.611 32.0471 30.7657 32.0072 30.905 31.9327C31.0444 31.8582 31.1642 31.7514 31.2548 31.621C37.015 23.0333 44.7659 16.003 53.8306 11.1443C62.8952 6.28558 72.9979 3.7462 83.2562 3.74797C95.6154 3.75011 107.7 7.43498 118.002 14.3426C128.305 21.2503 136.368 31.0747 141.185 42.5897C141.253 42.7563 141.369 42.8988 141.517 42.9995C141.664 43.1001 141.838 43.1545 142.017 43.1557H144.073C144.19 43.157 144.306 43.1282 144.409 43.072C144.512 43.0159 144.599 42.9341 144.663 42.8345C144.736 42.7407 144.783 42.6288 144.799 42.5104C144.815 42.3921 144.799 42.2716 144.754 42.1614ZM30.4534 31.5292C30.4067 31.5264 30.3608 31.5161 30.3173 31.4986C30.3608 31.5161 30.4067 31.5264 30.4534 31.5292ZM141.593 42.8804C141.635 42.9116 141.681 42.9373 141.729 42.9569C141.684 42.9263 141.639 42.911 141.593 42.8804Z" fill="#828282"/>
</g>
<defs>
<clipPath id="clip0_0_48">
<rect width="158" height="87" fill="white"/>
</clipPath>
</defs>
</svg>
