<svg width="241" height="219" viewBox="0 0 241 219" fill="none" xmlns="http://www.w3.org/2000/svg">
<path d="M227.939 218.346C228.525 218.932 229.475 218.932 230.061 218.346L239.607 208.8C240.192 208.215 240.192 207.265 239.607 206.679C239.021 206.093 238.071 206.093 237.485 206.679L229 215.164L220.515 206.679C219.929 206.093 218.979 206.093 218.393 206.679C217.808 207.265 217.808 208.215 218.393 208.8L227.939 218.346ZM227.5 163V217.286H230.5V163H227.5Z" fill="#23D9AE"/>
<path d="M85.8095 2H30C14.536 2 2 14.536 2 30V104C2 119.464 14.536 132 30 132H200.667C216.131 132 228.667 144.536 228.667 160V174" stroke="#23D9AE" stroke-width="3"/>
</svg>
