<svg width="265" height="134" viewBox="0 0 265 134" fill="none" xmlns="http://www.w3.org/2000/svg">
<path d="M264.06 69.2277C264.646 68.6419 264.646 67.6921 264.06 67.1063L254.514 57.5604C253.928 56.9746 252.979 56.9746 252.393 57.5604C251.807 58.1462 251.807 59.0959 252.393 59.6817L260.878 68.167L252.393 76.6523C251.807 77.2381 251.807 78.1878 252.393 78.7736C252.979 79.3594 253.928 79.3594 254.514 78.7736L264.06 69.2277ZM212.397 69.667L262.999 69.667V66.667L212.397 66.667V69.667Z" fill="#23D9AE"/>
<path d="M80.1225 2H30C14.536 2 2 14.536 2 30V104C2 119.464 14.536 132 30 132H185.286C200.75 132 213.286 119.464 213.286 104V67" stroke="#23D9AE" stroke-width="3"/>
</svg>
