<svg width="265" height="237" viewBox="0 0 265 237" fill="none" xmlns="http://www.w3.org/2000/svg">
<path d="M264.06 135.214C264.646 134.628 264.646 133.678 264.06 133.093L254.514 123.547C253.928 122.961 252.979 122.961 252.393 123.547C251.807 124.133 251.807 125.082 252.393 125.668L260.878 134.153L252.393 142.639C251.807 143.224 251.807 144.174 252.393 144.76C252.979 145.346 253.928 145.346 254.514 144.76L264.06 135.214ZM212.397 135.653L262.999 135.653V132.653L212.397 132.653V135.653Z" fill="#23D9AE"/>
<path d="M80.0168 33H30C14.536 33 2 45.536 2 61V207C2 222.464 14.536 235 30 235H185C200.464 235 213 222.464 213 207V134" stroke="#23D9AE" stroke-width="3"/>
<circle cx="73" cy="31" r="31" fill="#34B7F2"/>
<path d="M75.0732 19.0234V37.4346C75.0732 38.818 75.1341 39.7035 75.2559 40.0908C75.3776 40.4671 75.6322 40.777 76.0195 41.0205C76.4069 41.264 77.0267 41.3857 77.8789 41.3857H78.3936V42H66.54V41.3857H67.1377C68.1006 41.3857 68.7868 41.2751 69.1963 41.0537C69.6058 40.8324 69.8825 40.528 70.0264 40.1406C70.1702 39.7533 70.2422 38.8512 70.2422 37.4346V25.7637C70.2422 24.7233 70.1924 24.0758 70.0928 23.8213C69.9932 23.5557 69.805 23.3343 69.5283 23.1572C69.2627 22.9691 68.9528 22.875 68.5986 22.875C68.0342 22.875 67.348 23.0521 66.54 23.4062L66.2412 22.8086L74.5254 19.0234H75.0732Z" fill="white"/>
<path d="M28.5 89.96C29.98 89.96 31.2733 90.2533 32.38 90.84C33.4867 91.4267 34.34 92.2533 34.94 93.32C35.5533 94.3733 35.86 95.5933 35.86 96.98C35.86 98.3533 35.5533 99.5733 34.94 100.64C34.34 101.707 33.48 102.533 32.36 103.12C31.2533 103.707 29.9667 104 28.5 104H23.24V89.96H28.5ZM28.28 101.04C29.5733 101.04 30.58 100.687 31.3 99.98C32.02 99.2733 32.38 98.2733 32.38 96.98C32.38 95.6867 32.02 94.68 31.3 93.96C30.58 93.24 29.5733 92.88 28.28 92.88H26.66V101.04H28.28ZM39.4913 91.68C38.8913 91.68 38.3979 91.5067 38.0113 91.16C37.6379 90.8 37.4513 90.36 37.4513 89.84C37.4513 89.3067 37.6379 88.8667 38.0113 88.52C38.3979 88.16 38.8913 87.98 39.4913 87.98C40.0779 87.98 40.5579 88.16 40.9313 88.52C41.3179 88.8667 41.5113 89.3067 41.5113 89.84C41.5113 90.36 41.3179 90.8 40.9313 91.16C40.5579 91.5067 40.0779 91.68 39.4913 91.68ZM41.1913 92.84V104H37.7713V92.84H41.1913ZM48.2097 104.16C47.2364 104.16 46.3697 103.993 45.6097 103.66C44.8497 103.327 44.2497 102.873 43.8097 102.3C43.3697 101.713 43.123 101.06 43.0697 100.34H46.4497C46.4897 100.727 46.6697 101.04 46.9897 101.28C47.3097 101.52 47.703 101.64 48.1697 101.64C48.5964 101.64 48.923 101.56 49.1497 101.4C49.3897 101.227 49.5097 101.007 49.5097 100.74C49.5097 100.42 49.343 100.187 49.0097 100.04C48.6764 99.88 48.1364 99.7067 47.3897 99.52C46.5897 99.3333 45.923 99.14 45.3897 98.94C44.8564 98.7267 44.3964 98.4 44.0097 97.96C43.623 97.5067 43.4297 96.9 43.4297 96.14C43.4297 95.5 43.603 94.92 43.9497 94.4C44.3097 93.8667 44.8297 93.4467 45.5097 93.14C46.203 92.8333 47.023 92.68 47.9697 92.68C49.3697 92.68 50.4697 93.0267 51.2697 93.72C52.083 94.4133 52.5497 95.3333 52.6697 96.48H49.5097C49.4564 96.0933 49.283 95.7867 48.9897 95.56C48.7097 95.3333 48.3364 95.22 47.8697 95.22C47.4697 95.22 47.163 95.3 46.9497 95.46C46.7364 95.6067 46.6297 95.8133 46.6297 96.08C46.6297 96.4 46.7964 96.64 47.1297 96.8C47.4764 96.96 48.0097 97.12 48.7297 97.28C49.5564 97.4933 50.2297 97.7067 50.7497 97.92C51.2697 98.12 51.723 98.4533 52.1097 98.92C52.5097 99.3733 52.7164 99.9867 52.7297 100.76C52.7297 101.413 52.543 102 52.1697 102.52C51.8097 103.027 51.283 103.427 50.5897 103.72C49.9097 104.013 49.1164 104.16 48.2097 104.16ZM54.142 98.42C54.142 97.26 54.3754 96.2467 54.842 95.38C55.322 94.5133 55.982 93.8467 56.822 93.38C57.6754 92.9133 58.6487 92.68 59.742 92.68C61.142 92.68 62.3087 93.0467 63.242 93.78C64.1887 94.5133 64.8087 95.5467 65.102 96.88H61.462C61.1554 96.0267 60.562 95.6 59.682 95.6C59.0554 95.6 58.5554 95.8467 58.182 96.34C57.8087 96.82 57.622 97.5133 57.622 98.42C57.622 99.3267 57.8087 100.027 58.182 100.52C58.5554 101 59.0554 101.24 59.682 101.24C60.562 101.24 61.1554 100.813 61.462 99.96H65.102C64.8087 101.267 64.1887 102.293 63.242 103.04C62.2954 103.787 61.1287 104.16 59.742 104.16C58.6487 104.16 57.6754 103.927 56.822 103.46C55.982 102.993 55.322 102.327 54.842 101.46C54.3754 100.593 54.142 99.58 54.142 98.42ZM72.0114 104.16C70.9181 104.16 69.9314 103.927 69.0514 103.46C68.1847 102.993 67.4981 102.327 66.9914 101.46C66.4981 100.593 66.2514 99.58 66.2514 98.42C66.2514 97.2733 66.5047 96.2667 67.0114 95.4C67.5181 94.52 68.2114 93.8467 69.0914 93.38C69.9714 92.9133 70.9581 92.68 72.0514 92.68C73.1447 92.68 74.1314 92.9133 75.0114 93.38C75.8914 93.8467 76.5847 94.52 77.0914 95.4C77.5981 96.2667 77.8514 97.2733 77.8514 98.42C77.8514 99.5667 77.5914 100.58 77.0714 101.46C76.5647 102.327 75.8647 102.993 74.9714 103.46C74.0914 103.927 73.1047 104.16 72.0114 104.16ZM72.0114 101.2C72.6647 101.2 73.2181 100.96 73.6714 100.48C74.1381 100 74.3714 99.3133 74.3714 98.42C74.3714 97.5267 74.1447 96.84 73.6914 96.36C73.2514 95.88 72.7047 95.64 72.0514 95.64C71.3847 95.64 70.8314 95.88 70.3914 96.36C69.9514 96.8267 69.7314 97.5133 69.7314 98.42C69.7314 99.3133 69.9447 100 70.3714 100.48C70.8114 100.96 71.3581 101.2 72.0114 101.2ZM84.6858 100.8L87.1058 92.84H90.7458L86.7858 104H82.5658L78.6058 92.84H82.2658L84.6858 100.8ZM102.705 98.24C102.705 98.56 102.685 98.8933 102.645 99.24H94.9053C94.9586 99.9333 95.1786 100.467 95.5653 100.84C95.9653 101.2 96.452 101.38 97.0253 101.38C97.8786 101.38 98.472 101.02 98.8053 100.3H102.445C102.259 101.033 101.919 101.693 101.425 102.28C100.945 102.867 100.339 103.327 99.6053 103.66C98.872 103.993 98.052 104.16 97.1453 104.16C96.052 104.16 95.0786 103.927 94.2253 103.46C93.372 102.993 92.7053 102.327 92.2253 101.46C91.7453 100.593 91.5053 99.58 91.5053 98.42C91.5053 97.26 91.7386 96.2467 92.2053 95.38C92.6853 94.5133 93.352 93.8467 94.2053 93.38C95.0586 92.9133 96.0386 92.68 97.1453 92.68C98.2253 92.68 99.1853 92.9067 100.025 93.36C100.865 93.8133 101.519 94.46 101.985 95.3C102.465 96.14 102.705 97.12 102.705 98.24ZM99.2053 97.34C99.2053 96.7533 99.0053 96.2867 98.6053 95.94C98.2053 95.5933 97.7053 95.42 97.1053 95.42C96.532 95.42 96.0453 95.5867 95.6453 95.92C95.2586 96.2533 95.0186 96.7267 94.9253 97.34H99.2053ZM107.93 94.7C108.33 94.0867 108.83 93.6067 109.43 93.26C110.03 92.9 110.696 92.72 111.43 92.72V96.34H110.49C109.636 96.34 108.996 96.5267 108.57 96.9C108.143 97.26 107.93 97.9 107.93 98.82V104H104.51V92.84H107.93V94.7ZM124.464 92.84L117.464 109.3H113.784L116.344 103.62L111.804 92.84H115.624L118.204 99.82L120.764 92.84H124.464Z" fill="#336082"/>
<path d="M23.078 131V121.242H24.352V131H23.078ZM32.1373 131V126.66C32.1373 125.092 31.2833 124.294 29.9953 124.294C28.6933 124.294 27.7973 125.106 27.7973 126.758V131H26.5233V123.328H27.7973V124.42C28.3013 123.622 29.2253 123.188 30.2613 123.188C32.0393 123.188 33.3973 124.28 33.3973 126.478V131H32.1373ZM39.4908 128.9V124.378H38.4968V123.328H39.4908V121.396H40.7648V123.328H42.7668V124.378H40.7648V128.9C40.7648 129.656 41.0448 129.922 41.8288 129.922H42.7668V131H41.6188C40.2608 131 39.4908 130.44 39.4908 128.9ZM44.3104 131V120.64H45.5844V124.434C46.0884 123.622 47.0404 123.188 48.1184 123.188C49.8264 123.188 51.1844 124.28 51.1844 126.478V131H49.9244V126.66C49.9244 125.092 49.0704 124.294 47.7824 124.294C46.4804 124.294 45.5844 125.106 45.5844 126.758V131H44.3104ZM53.2655 131V123.328H54.5395V131H53.2655ZM53.9235 122.082C53.4335 122.082 53.0555 121.704 53.0555 121.214C53.0555 120.724 53.4335 120.346 53.9235 120.346C54.3855 120.346 54.7635 120.724 54.7635 121.214C54.7635 121.704 54.3855 122.082 53.9235 122.082ZM62.2268 128.914C62.2268 130.174 61.1208 131.126 59.4268 131.126C57.6348 131.126 56.3748 130.146 56.2908 128.746H57.6068C57.6768 129.488 58.3348 130.048 59.4128 130.048C60.4208 130.048 60.9808 129.544 60.9808 128.914C60.9808 127.206 56.4448 128.2 56.4448 125.344C56.4448 124.168 57.5508 123.202 59.2588 123.202C60.9528 123.202 62.0728 124.112 62.1568 125.61H60.8828C60.8268 124.84 60.2388 124.28 59.2168 124.28C58.2788 124.28 57.7188 124.728 57.7188 125.344C57.7188 127.164 62.1708 126.17 62.2268 128.914ZM73.2737 128.914C73.2737 130.174 72.1677 131.126 70.4737 131.126C68.6817 131.126 67.4217 130.146 67.3377 128.746H68.6537C68.7237 129.488 69.3817 130.048 70.4597 130.048C71.4677 130.048 72.0277 129.544 72.0277 128.914C72.0277 127.206 67.4917 128.2 67.4917 125.344C67.4917 124.168 68.5977 123.202 70.3057 123.202C71.9997 123.202 73.1197 124.112 73.2037 125.61H71.9297C71.8737 124.84 71.2857 124.28 70.2637 124.28C69.3257 124.28 68.7657 124.728 68.7657 125.344C68.7657 127.164 73.2177 126.17 73.2737 128.914ZM75.3521 128.9V124.378H74.3581V123.328H75.3521V121.396H76.6261V123.328H78.6281V124.378H76.6261V128.9C76.6261 129.656 76.9061 129.922 77.6901 129.922H78.6281V131H77.4801C76.1221 131 75.3521 130.44 75.3521 128.9ZM79.6958 127.136C79.6958 124.742 81.2778 123.202 83.3358 123.202C84.7638 123.202 85.7438 123.93 86.1918 124.728V123.328H87.4798V131H86.1918V129.572C85.7298 130.398 84.7358 131.126 83.3218 131.126C81.2778 131.126 79.6958 129.516 79.6958 127.136ZM86.1918 127.15C86.1918 125.372 84.9878 124.308 83.5878 124.308C82.1878 124.308 80.9978 125.33 80.9978 127.136C80.9978 128.942 82.1878 130.006 83.5878 130.006C84.9878 130.006 86.1918 128.956 86.1918 127.15ZM89.1567 127.136C89.1567 124.742 90.7387 123.202 92.7967 123.202C94.1967 123.202 95.2047 123.902 95.6527 124.728V123.328H96.9407V131.168C96.9407 133.282 95.5267 134.78 93.2727 134.78C91.2567 134.78 89.8147 133.758 89.5627 132.12H90.8227C91.1027 133.044 92.0127 133.674 93.2727 133.674C94.6307 133.674 95.6527 132.806 95.6527 131.168V129.558C95.1907 130.384 94.1967 131.126 92.7967 131.126C90.7387 131.126 89.1567 129.516 89.1567 127.136ZM95.6527 127.15C95.6527 125.372 94.4487 124.308 93.0487 124.308C91.6487 124.308 90.4587 125.33 90.4587 127.136C90.4587 128.942 91.6487 130.006 93.0487 130.006C94.4487 130.006 95.6527 128.956 95.6527 127.15ZM102.356 124.28C101.11 124.28 100.074 125.106 99.9336 126.604H104.778C104.792 125.106 103.672 124.28 102.356 124.28ZM105.94 128.634C105.548 130.034 104.316 131.126 102.412 131.126C100.228 131.126 98.6176 129.586 98.6176 127.15C98.6176 124.728 100.172 123.202 102.412 123.202C104.638 123.202 106.094 124.77 106.094 126.87C106.094 127.15 106.08 127.374 106.052 127.64H99.9196C100.018 129.194 101.11 130.048 102.412 130.048C103.56 130.048 104.288 129.46 104.568 128.634H105.94ZM113.006 131L110.598 123.328H111.9L113.664 129.768L115.568 123.328H116.87L118.732 129.782L120.468 123.328H121.728L119.334 131H118.018L116.17 124.91L114.322 131H113.006ZM126.254 124.28C125.008 124.28 123.972 125.106 123.832 126.604H128.676C128.69 125.106 127.57 124.28 126.254 124.28ZM129.838 128.634C129.446 130.034 128.214 131.126 126.31 131.126C124.126 131.126 122.516 129.586 122.516 127.15C122.516 124.728 124.07 123.202 126.31 123.202C128.536 123.202 129.992 124.77 129.992 126.87C129.992 127.15 129.978 127.374 129.95 127.64H123.818C123.916 129.194 125.008 130.048 126.31 130.048C127.458 130.048 128.186 129.46 128.466 128.634H129.838ZM146.48 131V126.66C146.48 125.092 145.64 124.294 144.38 124.294C143.092 124.294 142.21 125.12 142.21 126.772V131H140.95V126.66C140.95 125.092 140.11 124.294 138.85 124.294C137.562 124.294 136.68 125.12 136.68 126.772V131H135.406V123.328H136.68V124.434C137.184 123.622 138.094 123.188 139.102 123.188C140.362 123.188 141.412 123.748 141.916 124.896C142.364 123.79 143.456 123.188 144.632 123.188C146.382 123.188 147.74 124.28 147.74 126.478V131H146.48ZM149.354 127.136C149.354 124.742 150.936 123.202 152.994 123.202C154.422 123.202 155.402 123.93 155.85 124.728V123.328H157.138V131H155.85V129.572C155.388 130.398 154.394 131.126 152.98 131.126C150.936 131.126 149.354 129.516 149.354 127.136ZM155.85 127.15C155.85 125.372 154.646 124.308 153.246 124.308C151.846 124.308 150.656 125.33 150.656 127.136C150.656 128.942 151.846 130.006 153.246 130.006C154.646 130.006 155.85 128.956 155.85 127.15ZM160.565 124.742C161.027 123.93 162.035 123.202 163.435 123.202C165.493 123.202 167.075 124.742 167.075 127.136C167.075 129.516 165.493 131.126 163.435 131.126C162.035 131.126 161.041 130.37 160.565 129.586V134.64H159.291V123.328H160.565V124.742ZM165.773 127.136C165.773 125.33 164.583 124.308 163.169 124.308C161.783 124.308 160.565 125.372 160.565 127.15C160.565 128.956 161.783 130.006 163.169 130.006C164.583 130.006 165.773 128.942 165.773 127.136ZM30.358 147.15C30.358 149.586 28.608 151.126 26.424 151.126C24.254 151.126 22.602 149.586 22.602 147.15C22.602 144.728 24.31 143.202 26.48 143.202C28.664 143.202 30.358 144.728 30.358 147.15ZM23.904 147.15C23.904 149.096 25.094 150.006 26.424 150.006C27.754 150.006 29.056 149.096 29.056 147.15C29.056 145.218 27.782 144.308 26.466 144.308C25.122 144.308 23.904 145.218 23.904 147.15ZM38.8371 143.328V151H37.5631V149.866C37.0731 150.664 36.1351 151.112 35.1131 151.112C33.3491 151.112 31.9631 150.02 31.9631 147.822V143.328H33.2231V147.654C33.2231 149.208 34.0771 150.006 35.3651 150.006C36.6811 150.006 37.5631 149.194 37.5631 147.542V143.328H38.8371ZM41.2682 148.9V144.378H40.2742V143.328H41.2682V141.396H42.5422V143.328H44.5442V144.378H42.5422V148.9C42.5422 149.656 42.8222 149.922 43.6062 149.922H44.5442V151H43.3962C42.0382 151 41.2682 150.44 41.2682 148.9ZM52.7322 149.544L55.1122 143.328H56.4282L51.8082 154.612H50.4922L52.0042 150.916L48.9102 143.328H50.3242L52.7322 149.544ZM64.9889 147.15C64.9889 149.586 63.2389 151.126 61.0549 151.126C58.8849 151.126 57.2329 149.586 57.2329 147.15C57.2329 144.728 58.9409 143.202 61.1109 143.202C63.2949 143.202 64.9889 144.728 64.9889 147.15ZM58.5349 147.15C58.5349 149.096 59.7249 150.006 61.0549 150.006C62.3849 150.006 63.6869 149.096 63.6869 147.15C63.6869 145.218 62.4129 144.308 61.0969 144.308C59.7529 144.308 58.5349 145.218 58.5349 147.15ZM73.4679 143.328V151H72.1939V149.866C71.7039 150.664 70.7659 151.112 69.7439 151.112C67.9799 151.112 66.5939 150.02 66.5939 147.822V143.328H67.8539V147.654C67.8539 149.208 68.7079 150.006 69.9959 150.006C71.3119 150.006 72.1939 149.194 72.1939 147.542V143.328H73.4679ZM76.893 146.828V151H75.619V143.328H76.893V144.574C77.327 143.72 78.153 143.188 79.371 143.188V144.504H79.035C77.817 144.504 76.893 145.05 76.893 146.828ZM90.0901 148.914C90.0901 150.174 88.9841 151.126 87.2901 151.126C85.4981 151.126 84.2381 150.146 84.1541 148.746H85.4701C85.5401 149.488 86.1981 150.048 87.2761 150.048C88.2841 150.048 88.8441 149.544 88.8441 148.914C88.8441 147.206 84.3081 148.2 84.3081 145.344C84.3081 144.168 85.4141 143.202 87.1221 143.202C88.8161 143.202 89.9361 144.112 90.0201 145.61H88.7461C88.6901 144.84 88.1021 144.28 87.0801 144.28C86.1421 144.28 85.5821 144.728 85.5821 145.344C85.5821 147.164 90.0341 146.17 90.0901 148.914ZM99.1685 147.15C99.1685 149.586 97.4185 151.126 95.2345 151.126C93.0645 151.126 91.4125 149.586 91.4125 147.15C91.4125 144.728 93.1205 143.202 95.2905 143.202C97.4745 143.202 99.1685 144.728 99.1685 147.15ZM92.7145 147.15C92.7145 149.096 93.9045 150.006 95.2345 150.006C96.5645 150.006 97.8665 149.096 97.8665 147.15C97.8665 145.218 96.5925 144.308 95.2765 144.308C93.9325 144.308 92.7145 145.218 92.7145 147.15ZM101.082 151V144.378H100.088V143.328H101.082V142.782C101.082 141.074 101.922 140.304 103.882 140.304V141.368C102.734 141.368 102.356 141.788 102.356 142.782V143.328H103.966V144.378H102.356V151H101.082ZM105.731 148.9V144.378H104.737V143.328H105.731V141.396H107.005V143.328H109.007V144.378H107.005V148.9C107.005 149.656 107.285 149.922 108.069 149.922H109.007V151H107.859C106.501 151 105.731 150.44 105.731 148.9ZM112.049 151L109.641 143.328H110.943L112.707 149.768L114.611 143.328H115.913L117.775 149.782L119.511 143.328H120.771L118.377 151H117.061L115.213 144.91L113.365 151H112.049ZM121.559 147.136C121.559 144.742 123.141 143.202 125.199 143.202C126.627 143.202 127.607 143.93 128.055 144.728V143.328H129.343V151H128.055V149.572C127.593 150.398 126.599 151.126 125.185 151.126C123.141 151.126 121.559 149.516 121.559 147.136ZM128.055 147.15C128.055 145.372 126.851 144.308 125.451 144.308C124.051 144.308 122.861 145.33 122.861 147.136C122.861 148.942 124.051 150.006 125.451 150.006C126.851 150.006 128.055 148.956 128.055 147.15ZM132.77 146.828V151H131.496V143.328H132.77V144.574C133.204 143.72 134.03 143.188 135.248 143.188V144.504H134.912C133.694 144.504 132.77 145.05 132.77 146.828ZM139.981 144.28C138.735 144.28 137.699 145.106 137.559 146.604H142.403C142.417 145.106 141.297 144.28 139.981 144.28ZM143.565 148.634C143.173 150.034 141.941 151.126 140.037 151.126C137.853 151.126 136.243 149.586 136.243 147.15C136.243 144.728 137.797 143.202 140.037 143.202C142.263 143.202 143.719 144.77 143.719 146.87C143.719 147.15 143.705 147.374 143.677 147.64H137.545C137.643 149.194 138.735 150.048 140.037 150.048C141.185 150.048 141.913 149.46 142.193 148.634H143.565ZM148.657 147.136C148.657 144.742 150.239 143.202 152.297 143.202C153.725 143.202 154.705 143.93 155.153 144.728V143.328H156.441V151H155.153V149.572C154.691 150.398 153.697 151.126 152.283 151.126C150.239 151.126 148.657 149.516 148.657 147.136ZM155.153 147.15C155.153 145.372 153.949 144.308 152.549 144.308C151.149 144.308 149.959 145.33 149.959 147.136C149.959 148.942 151.149 150.006 152.549 150.006C153.949 150.006 155.153 148.956 155.153 147.15ZM164.208 151V146.66C164.208 145.092 163.354 144.294 162.066 144.294C160.764 144.294 159.868 145.106 159.868 146.758V151H158.594V143.328H159.868V144.42C160.372 143.622 161.296 143.188 162.332 143.188C164.11 143.188 165.468 144.28 165.468 146.478V151H164.208ZM167.073 147.136C167.073 144.742 168.655 143.202 170.727 143.202C171.931 143.202 173.037 143.818 173.569 144.7V140.64H174.857V151H173.569V149.558C173.107 150.412 172.113 151.126 170.713 151.126C168.655 151.126 167.073 149.516 167.073 147.136ZM173.569 147.15C173.569 145.372 172.365 144.308 170.965 144.308C169.565 144.308 168.375 145.33 168.375 147.136C168.375 148.942 169.565 150.006 170.965 150.006C172.365 150.006 173.569 148.956 173.569 147.15ZM22.602 167.136C22.602 164.742 24.184 163.202 26.256 163.202C27.46 163.202 28.566 163.818 29.098 164.7V160.64H30.386V171H29.098V169.558C28.636 170.412 27.642 171.126 26.242 171.126C24.184 171.126 22.602 169.516 22.602 167.136ZM29.098 167.15C29.098 165.372 27.894 164.308 26.494 164.308C25.094 164.308 23.904 165.33 23.904 167.136C23.904 168.942 25.094 170.006 26.494 170.006C27.894 170.006 29.098 168.956 29.098 167.15ZM35.8009 164.28C34.5549 164.28 33.5189 165.106 33.3789 166.604H38.2229C38.2369 165.106 37.1169 164.28 35.8009 164.28ZM39.3849 168.634C38.9929 170.034 37.7609 171.126 35.8569 171.126C33.6729 171.126 32.0629 169.586 32.0629 167.15C32.0629 164.728 33.6169 163.202 35.8569 163.202C38.0829 163.202 39.5389 164.77 39.5389 166.87C39.5389 167.15 39.5249 167.374 39.4969 167.64H33.3649C33.4629 169.194 34.5549 170.048 35.8569 170.048C37.0049 170.048 37.7329 169.46 38.0129 168.634H39.3849ZM41.5006 168.9V164.378H40.5066V163.328H41.5006V161.396H42.7746V163.328H44.7766V164.378H42.7746V168.9C42.7746 169.656 43.0546 169.922 43.8386 169.922H44.7766V171H43.6286C42.2706 171 41.5006 170.44 41.5006 168.9ZM49.5822 164.28C48.3362 164.28 47.3002 165.106 47.1602 166.604H52.0042C52.0182 165.106 50.8982 164.28 49.5822 164.28ZM53.1662 168.634C52.7742 170.034 51.5422 171.126 49.6382 171.126C47.4542 171.126 45.8442 169.586 45.8442 167.15C45.8442 164.728 47.3982 163.202 49.6382 163.202C51.8642 163.202 53.3202 164.77 53.3202 166.87C53.3202 167.15 53.3062 167.374 53.2782 167.64H47.1462C47.2442 169.194 48.3362 170.048 49.6382 170.048C50.7862 170.048 51.5142 169.46 51.7942 168.634H53.1662ZM56.2758 166.828V171H55.0018V163.328H56.2758V164.574C56.7098 163.72 57.5358 163.188 58.7538 163.188V164.504H58.4178C57.1998 164.504 56.2758 165.05 56.2758 166.828ZM71.2985 171V166.66C71.2985 165.092 70.4585 164.294 69.1985 164.294C67.9105 164.294 67.0285 165.12 67.0285 166.772V171H65.7685V166.66C65.7685 165.092 64.9285 164.294 63.6685 164.294C62.3805 164.294 61.4985 165.12 61.4985 166.772V171H60.2245V163.328H61.4985V164.434C62.0025 163.622 62.9125 163.188 63.9205 163.188C65.1805 163.188 66.2305 163.748 66.7345 164.896C67.1825 163.79 68.2745 163.188 69.4505 163.188C71.2005 163.188 72.5585 164.28 72.5585 166.478V171H71.2985ZM74.6483 171V163.328H75.9223V171H74.6483ZM75.3063 162.082C74.8163 162.082 74.4383 161.704 74.4383 161.214C74.4383 160.724 74.8163 160.346 75.3063 160.346C75.7683 160.346 76.1463 160.724 76.1463 161.214C76.1463 161.704 75.7683 162.082 75.3063 162.082ZM83.7076 171V166.66C83.7076 165.092 82.8536 164.294 81.5656 164.294C80.2636 164.294 79.3676 165.106 79.3676 166.758V171H78.0936V163.328H79.3676V164.42C79.8716 163.622 80.7956 163.188 81.8316 163.188C83.6096 163.188 84.9676 164.28 84.9676 166.478V171H83.7076ZM90.3107 164.28C89.0647 164.28 88.0287 165.106 87.8887 166.604H92.7327C92.7467 165.106 91.6267 164.28 90.3107 164.28ZM93.8947 168.634C93.5027 170.034 92.2707 171.126 90.3667 171.126C88.1827 171.126 86.5727 169.586 86.5727 167.15C86.5727 164.728 88.1267 163.202 90.3667 163.202C92.5927 163.202 94.0487 164.77 94.0487 166.87C94.0487 167.15 94.0347 167.374 94.0067 167.64H87.8747C87.9727 169.194 89.0647 170.048 90.3667 170.048C91.5147 170.048 92.2427 169.46 92.5227 168.634H93.8947ZM99.7428 168.9V164.378H98.7488V163.328H99.7428V161.396H101.017V163.328H103.019V164.378H101.017V168.9C101.017 169.656 101.297 169.922 102.081 169.922H103.019V171H101.871C100.513 171 99.7428 170.44 99.7428 168.9ZM111.842 167.15C111.842 169.586 110.092 171.126 107.908 171.126C105.738 171.126 104.086 169.586 104.086 167.15C104.086 164.728 105.794 163.202 107.964 163.202C110.148 163.202 111.842 164.728 111.842 167.15ZM105.388 167.15C105.388 169.096 106.578 170.006 107.908 170.006C109.238 170.006 110.54 169.096 110.54 167.15C110.54 165.218 109.266 164.308 107.95 164.308C106.606 164.308 105.388 165.218 105.388 167.15ZM113.041 167.136C113.041 164.742 114.623 163.202 116.681 163.202C118.081 163.202 119.089 163.902 119.537 164.728V163.328H120.825V171.168C120.825 173.282 119.411 174.78 117.157 174.78C115.141 174.78 113.699 173.758 113.447 172.12H114.707C114.987 173.044 115.897 173.674 117.157 173.674C118.515 173.674 119.537 172.806 119.537 171.168V169.558C119.075 170.384 118.081 171.126 116.681 171.126C114.623 171.126 113.041 169.516 113.041 167.136ZM119.537 167.15C119.537 165.372 118.333 164.308 116.933 164.308C115.533 164.308 114.343 165.33 114.343 167.136C114.343 168.942 115.533 170.006 116.933 170.006C118.333 170.006 119.537 168.956 119.537 167.15ZM126.24 164.28C124.994 164.28 123.958 165.106 123.818 166.604H128.662C128.676 165.106 127.556 164.28 126.24 164.28ZM129.824 168.634C129.432 170.034 128.2 171.126 126.296 171.126C124.112 171.126 122.502 169.586 122.502 167.15C122.502 164.728 124.056 163.202 126.296 163.202C128.522 163.202 129.978 164.77 129.978 166.87C129.978 167.15 129.964 167.374 129.936 167.64H123.804C123.902 169.194 124.994 170.048 126.296 170.048C127.444 170.048 128.172 169.46 128.452 168.634H129.824ZM131.94 168.9V164.378H130.946V163.328H131.94V161.396H133.214V163.328H135.216V164.378H133.214V168.9C133.214 169.656 133.494 169.922 134.278 169.922H135.216V171H134.068C132.71 171 131.94 170.44 131.94 168.9ZM136.76 171V160.64H138.034V164.434C138.538 163.622 139.49 163.188 140.568 163.188C142.276 163.188 143.634 164.28 143.634 166.478V171H142.374V166.66C142.374 165.092 141.52 164.294 140.232 164.294C138.93 164.294 138.034 165.106 138.034 166.758V171H136.76ZM148.977 164.28C147.731 164.28 146.695 165.106 146.555 166.604H151.399C151.413 165.106 150.293 164.28 148.977 164.28ZM152.561 168.634C152.169 170.034 150.937 171.126 149.033 171.126C146.849 171.126 145.239 169.586 145.239 167.15C145.239 164.728 146.793 163.202 149.033 163.202C151.259 163.202 152.715 164.77 152.715 166.87C152.715 167.15 152.701 167.374 152.673 167.64H146.541C146.639 169.194 147.731 170.048 149.033 170.048C150.181 170.048 150.909 169.46 151.189 168.634H152.561ZM155.67 166.828V171H154.396V163.328H155.67V164.574C156.104 163.72 156.93 163.188 158.148 163.188V164.504H157.812C156.594 164.504 155.67 165.05 155.67 166.828ZM24.576 191L22.168 183.328H23.47L25.234 189.768L27.138 183.328H28.44L30.302 189.782L32.038 183.328H33.298L30.904 191H29.588L27.74 184.91L25.892 191H24.576ZM34.5624 191V180.64H35.8364V184.434C36.3404 183.622 37.2924 183.188 38.3704 183.188C40.0784 183.188 41.4364 184.28 41.4364 186.478V191H40.1764V186.66C40.1764 185.092 39.3224 184.294 38.0344 184.294C36.7324 184.294 35.8364 185.106 35.8364 186.758V191H34.5624ZM43.0415 187.136C43.0415 184.742 44.6235 183.202 46.6815 183.202C48.1095 183.202 49.0895 183.93 49.5375 184.728V183.328H50.8255V191H49.5375V189.572C49.0755 190.398 48.0815 191.126 46.6675 191.126C44.6235 191.126 43.0415 189.516 43.0415 187.136ZM49.5375 187.15C49.5375 185.372 48.3335 184.308 46.9335 184.308C45.5335 184.308 44.3435 185.33 44.3435 187.136C44.3435 188.942 45.5335 190.006 46.9335 190.006C48.3335 190.006 49.5375 188.956 49.5375 187.15ZM53.2584 188.9V184.378H52.2644V183.328H53.2584V181.396H54.5324V183.328H56.5344V184.378H54.5324V188.9C54.5324 189.656 54.8124 189.922 55.5964 189.922H56.5344V191H55.3864C54.0284 191 53.2584 190.44 53.2584 188.9ZM62.0484 191V184.378H61.0544V183.328H62.0484V182.782C62.0484 181.074 62.8884 180.304 64.8484 180.304V181.368C63.7004 181.368 63.3224 181.788 63.3224 182.782V183.328H64.9324V184.378H63.3224V191H62.0484ZM69.6798 184.28C68.4338 184.28 67.3978 185.106 67.2578 186.604H72.1018C72.1158 185.106 70.9958 184.28 69.6798 184.28ZM73.2638 188.634C72.8718 190.034 71.6398 191.126 69.7358 191.126C67.5518 191.126 65.9418 189.586 65.9418 187.15C65.9418 184.728 67.4958 183.202 69.7358 183.202C71.9618 183.202 73.4178 184.77 73.4178 186.87C73.4178 187.15 73.4038 187.374 73.3758 187.64H67.2438C67.3418 189.194 68.4338 190.048 69.7358 190.048C70.8838 190.048 71.6118 189.46 71.8918 188.634H73.2638ZM74.6235 187.136C74.6235 184.742 76.2055 183.202 78.2635 183.202C79.6915 183.202 80.6715 183.93 81.1195 184.728V183.328H82.4075V191H81.1195V189.572C80.6575 190.398 79.6635 191.126 78.2495 191.126C76.2055 191.126 74.6235 189.516 74.6235 187.136ZM81.1195 187.15C81.1195 185.372 79.9155 184.308 78.5155 184.308C77.1155 184.308 75.9255 185.33 75.9255 187.136C75.9255 188.942 77.1155 190.006 78.5155 190.006C79.9155 190.006 81.1195 188.956 81.1195 187.15ZM84.8404 188.9V184.378H83.8464V183.328H84.8404V181.396H86.1144V183.328H88.1164V184.378H86.1144V188.9C86.1144 189.656 86.3944 189.922 87.1784 189.922H88.1164V191H86.9684C85.6104 191 84.8404 190.44 84.8404 188.9ZM96.464 183.328V191H95.19V189.866C94.7 190.664 93.762 191.112 92.74 191.112C90.976 191.112 89.59 190.02 89.59 187.822V183.328H90.85V187.654C90.85 189.208 91.704 190.006 92.992 190.006C94.308 190.006 95.19 189.194 95.19 187.542V183.328H96.464ZM99.8891 186.828V191H98.6151V183.328H99.8891V184.574C100.323 183.72 101.149 183.188 102.367 183.188V184.504H102.031C100.813 184.504 99.8891 185.05 99.8891 186.828ZM107.1 184.28C105.854 184.28 104.818 185.106 104.678 186.604H109.522C109.536 185.106 108.416 184.28 107.1 184.28ZM110.684 188.634C110.292 190.034 109.06 191.126 107.156 191.126C104.972 191.126 103.362 189.586 103.362 187.15C103.362 184.728 104.916 183.202 107.156 183.202C109.382 183.202 110.838 184.77 110.838 186.87C110.838 187.15 110.824 187.374 110.796 187.64H104.664C104.762 189.194 105.854 190.048 107.156 190.048C108.304 190.048 109.032 189.46 109.312 188.634H110.684ZM118.035 188.914C118.035 190.174 116.929 191.126 115.235 191.126C113.443 191.126 112.183 190.146 112.099 188.746H113.415C113.485 189.488 114.143 190.048 115.221 190.048C116.229 190.048 116.789 189.544 116.789 188.914C116.789 187.206 112.253 188.2 112.253 185.344C112.253 184.168 113.359 183.202 115.067 183.202C116.761 183.202 117.881 184.112 117.965 185.61H116.691C116.635 184.84 116.047 184.28 115.025 184.28C114.087 184.28 113.527 184.728 113.527 185.344C113.527 187.164 117.979 186.17 118.035 188.914ZM129.082 188.914C129.082 190.174 127.976 191.126 126.282 191.126C124.49 191.126 123.23 190.146 123.146 188.746H124.462C124.532 189.488 125.19 190.048 126.268 190.048C127.276 190.048 127.836 189.544 127.836 188.914C127.836 187.206 123.3 188.2 123.3 185.344C123.3 184.168 124.406 183.202 126.114 183.202C127.808 183.202 128.928 184.112 129.012 185.61H127.738C127.682 184.84 127.094 184.28 126.072 184.28C125.134 184.28 124.574 184.728 124.574 185.344C124.574 187.164 129.026 186.17 129.082 188.914ZM130.881 191V180.64H132.155V184.434C132.659 183.622 133.611 183.188 134.689 183.188C136.397 183.188 137.755 184.28 137.755 186.478V191H136.495V186.66C136.495 185.092 135.641 184.294 134.353 184.294C133.051 184.294 132.155 185.106 132.155 186.758V191H130.881ZM147.116 187.15C147.116 189.586 145.366 191.126 143.182 191.126C141.012 191.126 139.36 189.586 139.36 187.15C139.36 184.728 141.068 183.202 143.238 183.202C145.422 183.202 147.116 184.728 147.116 187.15ZM140.662 187.15C140.662 189.096 141.852 190.006 143.182 190.006C144.512 190.006 145.814 189.096 145.814 187.15C145.814 185.218 144.54 184.308 143.224 184.308C141.88 184.308 140.662 185.218 140.662 187.15ZM155.595 183.328V191H154.321V189.866C153.831 190.664 152.893 191.112 151.871 191.112C150.107 191.112 148.721 190.02 148.721 187.822V183.328H149.981V187.654C149.981 189.208 150.835 190.006 152.123 190.006C153.439 190.006 154.321 189.194 154.321 187.542V183.328H155.595ZM157.746 191V180.64H159.02V191H157.746ZM160.715 187.136C160.715 184.742 162.297 183.202 164.369 183.202C165.573 183.202 166.679 183.818 167.211 184.7V180.64H168.499V191H167.211V189.558C166.749 190.412 165.755 191.126 164.355 191.126C162.297 191.126 160.715 189.516 160.715 187.136ZM167.211 187.15C167.211 185.372 166.007 184.308 164.607 184.308C163.207 184.308 162.017 185.33 162.017 187.136C162.017 188.942 163.207 190.006 164.607 190.006C166.007 190.006 167.211 188.956 167.211 187.15ZM175.659 184.756C176.149 183.902 177.171 183.202 178.529 183.202C180.601 183.202 182.169 184.742 182.169 187.136C182.169 189.516 180.587 191.126 178.529 191.126C177.129 191.126 176.135 190.426 175.659 189.586V191H174.385V180.64H175.659V184.756ZM180.867 187.136C180.867 185.33 179.677 184.308 178.263 184.308C176.877 184.308 175.659 185.372 175.659 187.15C175.659 188.956 176.877 190.006 178.263 190.006C179.677 190.006 180.867 188.942 180.867 187.136ZM187.108 184.28C185.862 184.28 184.826 185.106 184.686 186.604H189.53C189.544 185.106 188.424 184.28 187.108 184.28ZM190.692 188.634C190.3 190.034 189.068 191.126 187.164 191.126C184.98 191.126 183.37 189.586 183.37 187.15C183.37 184.728 184.924 183.202 187.164 183.202C189.39 183.202 190.846 184.77 190.846 186.87C190.846 187.15 190.832 187.374 190.804 187.64H184.672C184.77 189.194 185.862 190.048 187.164 190.048C188.312 190.048 189.04 189.46 189.32 188.634H190.692ZM23.078 211V203.328H24.352V211H23.078ZM23.736 202.082C23.246 202.082 22.868 201.704 22.868 201.214C22.868 200.724 23.246 200.346 23.736 200.346C24.198 200.346 24.576 200.724 24.576 201.214C24.576 201.704 24.198 202.082 23.736 202.082ZM32.1373 211V206.66C32.1373 205.092 31.2833 204.294 29.9953 204.294C28.6933 204.294 27.7973 205.106 27.7973 206.758V211H26.5233V203.328H27.7973V204.42C28.3013 203.622 29.2253 203.188 30.2613 203.188C32.0393 203.188 33.3973 204.28 33.3973 206.478V211H32.1373ZM35.0024 207.15C35.0024 204.742 36.5564 203.202 38.7404 203.202C40.6444 203.202 41.8904 204.182 42.2824 205.792H40.9104C40.6444 204.868 39.8744 204.28 38.7404 204.28C37.3404 204.28 36.3044 205.274 36.3044 207.15C36.3044 209.054 37.3404 210.048 38.7404 210.048C39.8744 210.048 40.6304 209.502 40.9104 208.536H42.2824C41.8904 210.062 40.6444 211.126 38.7404 211.126C36.5564 211.126 35.0024 209.586 35.0024 207.15ZM43.9823 211V200.64H45.2563V211H43.9823ZM54.2316 203.328V211H52.9576V209.866C52.4676 210.664 51.5296 211.112 50.5076 211.112C48.7436 211.112 47.3576 210.02 47.3576 207.822V203.328H48.6176V207.654C48.6176 209.208 49.4716 210.006 50.7596 210.006C52.0756 210.006 52.9576 209.194 52.9576 207.542V203.328H54.2316ZM55.9067 207.136C55.9067 204.742 57.4887 203.202 59.5607 203.202C60.7647 203.202 61.8707 203.818 62.4027 204.7V200.64H63.6907V211H62.4027V209.558C61.9407 210.412 60.9467 211.126 59.5467 211.126C57.4887 211.126 55.9067 209.516 55.9067 207.136ZM62.4027 207.15C62.4027 205.372 61.1987 204.308 59.7987 204.308C58.3987 204.308 57.2087 205.33 57.2087 207.136C57.2087 208.942 58.3987 210.006 59.7987 210.006C61.1987 210.006 62.4027 208.956 62.4027 207.15ZM69.1056 204.28C67.8596 204.28 66.8236 205.106 66.6836 206.604H71.5276C71.5416 205.106 70.4216 204.28 69.1056 204.28ZM72.6896 208.634C72.2976 210.034 71.0656 211.126 69.1616 211.126C66.9776 211.126 65.3676 209.586 65.3676 207.15C65.3676 204.728 66.9216 203.202 69.1616 203.202C71.3876 203.202 72.8436 204.77 72.8436 206.87C72.8436 207.15 72.8296 207.374 72.8016 207.64H66.6696C66.7676 209.194 67.8596 210.048 69.1616 210.048C70.3096 210.048 71.0376 209.46 71.3176 208.634H72.6896ZM74.0493 207.136C74.0493 204.742 75.6313 203.202 77.7033 203.202C78.9073 203.202 80.0133 203.818 80.5453 204.7V200.64H81.8333V211H80.5453V209.558C80.0833 210.412 79.0893 211.126 77.6893 211.126C75.6313 211.126 74.0493 209.516 74.0493 207.136ZM80.5453 207.15C80.5453 205.372 79.3413 204.308 77.9413 204.308C76.5413 204.308 75.3513 205.33 75.3513 207.136C75.3513 208.942 76.5413 210.006 77.9413 210.006C79.3413 210.006 80.5453 208.956 80.5453 207.15ZM87.7186 211V203.328H88.9926V211H87.7186ZM88.3766 202.082C87.8866 202.082 87.5086 201.704 87.5086 201.214C87.5086 200.724 87.8866 200.346 88.3766 200.346C88.8386 200.346 89.2166 200.724 89.2166 201.214C89.2166 201.704 88.8386 202.082 88.3766 202.082ZM96.7779 211V206.66C96.7779 205.092 95.9239 204.294 94.6359 204.294C93.3339 204.294 92.4379 205.106 92.4379 206.758V211H91.1639V203.328H92.4379V204.42C92.9419 203.622 93.8659 203.188 94.9019 203.188C96.6799 203.188 98.0379 204.28 98.0379 206.478V211H96.7779ZM106.763 209.544L109.143 203.328H110.459L105.839 214.612H104.523L106.035 210.916L102.941 203.328H104.355L106.763 209.544ZM119.02 207.15C119.02 209.586 117.27 211.126 115.086 211.126C112.916 211.126 111.264 209.586 111.264 207.15C111.264 204.728 112.972 203.202 115.142 203.202C117.326 203.202 119.02 204.728 119.02 207.15ZM112.566 207.15C112.566 209.096 113.756 210.006 115.086 210.006C116.416 210.006 117.718 209.096 117.718 207.15C117.718 205.218 116.444 204.308 115.128 204.308C113.784 204.308 112.566 205.218 112.566 207.15ZM127.499 203.328V211H126.225V209.866C125.735 210.664 124.797 211.112 123.775 211.112C122.011 211.112 120.625 210.02 120.625 207.822V203.328H121.885V207.654C121.885 209.208 122.739 210.006 124.027 210.006C125.343 210.006 126.225 209.194 126.225 207.542V203.328H127.499ZM130.924 206.828V211H129.65V203.328H130.924V204.574C131.358 203.72 132.184 203.188 133.402 203.188V204.504H133.066C131.848 204.504 130.924 205.05 130.924 206.828ZM144.121 208.914C144.121 210.174 143.015 211.126 141.321 211.126C139.529 211.126 138.269 210.146 138.185 208.746H139.501C139.571 209.488 140.229 210.048 141.307 210.048C142.315 210.048 142.875 209.544 142.875 208.914C142.875 207.206 138.339 208.2 138.339 205.344C138.339 204.168 139.445 203.202 141.153 203.202C142.847 203.202 143.967 204.112 144.051 205.61H142.777C142.721 204.84 142.133 204.28 141.111 204.28C140.173 204.28 139.613 204.728 139.613 205.344C139.613 207.164 144.065 206.17 144.121 208.914ZM145.444 207.15C145.444 204.742 146.998 203.202 149.182 203.202C151.086 203.202 152.332 204.182 152.724 205.792H151.352C151.086 204.868 150.316 204.28 149.182 204.28C147.782 204.28 146.746 205.274 146.746 207.15C146.746 209.054 147.782 210.048 149.182 210.048C150.316 210.048 151.072 209.502 151.352 208.536H152.724C152.332 210.062 151.086 211.126 149.182 211.126C146.998 211.126 145.444 209.586 145.444 207.15ZM161.704 207.15C161.704 209.586 159.954 211.126 157.77 211.126C155.6 211.126 153.948 209.586 153.948 207.15C153.948 204.728 155.656 203.202 157.826 203.202C160.01 203.202 161.704 204.728 161.704 207.15ZM155.25 207.15C155.25 209.096 156.44 210.006 157.77 210.006C159.1 210.006 160.402 209.096 160.402 207.15C160.402 205.218 159.128 204.308 157.812 204.308C156.468 204.308 155.25 205.218 155.25 207.15ZM164.653 204.742C165.115 203.93 166.123 203.202 167.523 203.202C169.581 203.202 171.163 204.742 171.163 207.136C171.163 209.516 169.581 211.126 167.523 211.126C166.123 211.126 165.129 210.37 164.653 209.586V214.64H163.379V203.328H164.653V204.742ZM169.861 207.136C169.861 205.33 168.671 204.308 167.257 204.308C165.871 204.308 164.653 205.372 164.653 207.15C164.653 208.956 165.871 210.006 167.257 210.006C168.671 210.006 169.861 208.942 169.861 207.136ZM176.102 204.28C174.856 204.28 173.82 205.106 173.68 206.604H178.524C178.538 205.106 177.418 204.28 176.102 204.28ZM179.686 208.634C179.294 210.034 178.062 211.126 176.158 211.126C173.974 211.126 172.364 209.586 172.364 207.15C172.364 204.728 173.918 203.202 176.158 203.202C178.384 203.202 179.84 204.77 179.84 206.87C179.84 207.15 179.826 207.374 179.798 207.64H173.666C173.764 209.194 174.856 210.048 176.158 210.048C177.306 210.048 178.034 209.46 178.314 208.634H179.686ZM182.767 210.216C182.767 210.706 182.389 211.084 181.927 211.084C181.437 211.084 181.059 210.706 181.059 210.216C181.059 209.726 181.437 209.348 181.927 209.348C182.389 209.348 182.767 209.726 182.767 210.216Z" fill="#4F668E"/>
</svg>
