<svg width="310" height="237" viewBox="0 0 310 237" fill="none" xmlns="http://www.w3.org/2000/svg">
<path d="M309.061 135.214C309.647 134.628 309.647 133.678 309.061 133.093L299.515 123.547C298.929 122.961 297.98 122.961 297.394 123.547C296.808 124.133 296.808 125.082 297.394 125.668L305.879 134.153L297.394 142.639C296.808 143.224 296.808 144.174 297.394 144.76C297.98 145.346 298.929 145.346 299.515 144.76L309.061 135.214ZM248.674 135.653L308 135.653V132.653L248.674 132.653V135.653Z" fill="#23D9AE"/>
<path d="M93.3277 33H30C14.536 33 2 45.536 2 61V207C2 222.464 14.536 235 30 235H221C236.464 235 249 222.464 249 207V134" stroke="#23D9AE" stroke-width="3"/>
<circle cx="73" cy="31" r="31" fill="#34B7F2"/>
<path d="M26.6 89.96V98.36C26.6 99.2 26.8067 99.8467 27.22 100.3C27.6333 100.753 28.24 100.98 29.04 100.98C29.84 100.98 30.4533 100.753 30.88 100.3C31.3067 99.8467 31.52 99.2 31.52 98.36V89.96H34.94V98.34C34.94 99.5933 34.6733 100.653 34.14 101.52C33.6067 102.387 32.8867 103.04 31.98 103.48C31.0867 103.92 30.0867 104.14 28.98 104.14C27.8733 104.14 26.88 103.927 26 103.5C25.1333 103.06 24.4467 102.407 23.94 101.54C23.4333 100.66 23.18 99.5933 23.18 98.34V89.96H26.6ZM45.9416 104L43.0816 99.7L40.5616 104H36.6816L41.1816 96.86L36.5816 89.96H40.5616L43.3816 94.2L45.8616 89.96H49.7416L45.2816 97.04L49.9216 104H45.9416ZM59.2584 85L53.8984 107.74H50.5984L55.9584 85H59.2584ZM64.0609 89.96V98.36C64.0609 99.2 64.2676 99.8467 64.6809 100.3C65.0943 100.753 65.7009 100.98 66.5009 100.98C67.3009 100.98 67.9143 100.753 68.3409 100.3C68.7676 99.8467 68.9809 99.2 68.9809 98.36V89.96H72.4009V98.34C72.4009 99.5933 72.1343 100.653 71.6009 101.52C71.0676 102.387 70.3476 103.04 69.4409 103.48C68.5476 103.92 67.5476 104.14 66.4409 104.14C65.3343 104.14 64.3409 103.927 63.4609 103.5C62.5943 103.06 61.9076 102.407 61.4009 101.54C60.8943 100.66 60.6409 99.5933 60.6409 98.34V89.96H64.0609ZM78.2225 89.96V104H74.8025V89.96H78.2225ZM90.1992 89.96C91.6792 89.96 92.9726 90.2533 94.0792 90.84C95.1859 91.4267 96.0392 92.2533 96.6392 93.32C97.2526 94.3733 97.5592 95.5933 97.5592 96.98C97.5592 98.3533 97.2526 99.5733 96.6392 100.64C96.0392 101.707 95.1792 102.533 94.0592 103.12C92.9526 103.707 91.6659 104 90.1992 104H84.9392V89.96H90.1992ZM89.9792 101.04C91.2726 101.04 92.2792 100.687 92.9992 99.98C93.7192 99.2733 94.0792 98.2733 94.0792 96.98C94.0792 95.6867 93.7192 94.68 92.9992 93.96C92.2792 93.24 91.2726 92.88 89.9792 92.88H88.3592V101.04H89.9792ZM109.99 98.24C109.99 98.56 109.97 98.8933 109.93 99.24H102.19C102.244 99.9333 102.464 100.467 102.85 100.84C103.25 101.2 103.737 101.38 104.31 101.38C105.164 101.38 105.757 101.02 106.09 100.3H109.73C109.544 101.033 109.204 101.693 108.71 102.28C108.23 102.867 107.624 103.327 106.89 103.66C106.157 103.993 105.337 104.16 104.43 104.16C103.337 104.16 102.364 103.927 101.51 103.46C100.657 102.993 99.9905 102.327 99.5105 101.46C99.0305 100.593 98.7905 99.58 98.7905 98.42C98.7905 97.26 99.0238 96.2467 99.4905 95.38C99.9705 94.5133 100.637 93.8467 101.49 93.38C102.344 92.9133 103.324 92.68 104.43 92.68C105.51 92.68 106.47 92.9067 107.31 93.36C108.15 93.8133 108.804 94.46 109.27 95.3C109.75 96.14 109.99 97.12 109.99 98.24ZM106.49 97.34C106.49 96.7533 106.29 96.2867 105.89 95.94C105.49 95.5933 104.99 95.42 104.39 95.42C103.817 95.42 103.33 95.5867 102.93 95.92C102.544 96.2533 102.304 96.7267 102.21 97.34H106.49ZM116.335 104.16C115.361 104.16 114.495 103.993 113.735 103.66C112.975 103.327 112.375 102.873 111.935 102.3C111.495 101.713 111.248 101.06 111.195 100.34H114.575C114.615 100.727 114.795 101.04 115.115 101.28C115.435 101.52 115.828 101.64 116.295 101.64C116.721 101.64 117.048 101.56 117.275 101.4C117.515 101.227 117.635 101.007 117.635 100.74C117.635 100.42 117.468 100.187 117.135 100.04C116.801 99.88 116.261 99.7067 115.515 99.52C114.715 99.3333 114.048 99.14 113.515 98.94C112.981 98.7267 112.521 98.4 112.135 97.96C111.748 97.5067 111.555 96.9 111.555 96.14C111.555 95.5 111.728 94.92 112.075 94.4C112.435 93.8667 112.955 93.4467 113.635 93.14C114.328 92.8333 115.148 92.68 116.095 92.68C117.495 92.68 118.595 93.0267 119.395 93.72C120.208 94.4133 120.675 95.3333 120.795 96.48H117.635C117.581 96.0933 117.408 95.7867 117.115 95.56C116.835 95.3333 116.461 95.22 115.995 95.22C115.595 95.22 115.288 95.3 115.075 95.46C114.861 95.6067 114.755 95.8133 114.755 96.08C114.755 96.4 114.921 96.64 115.255 96.8C115.601 96.96 116.135 97.12 116.855 97.28C117.681 97.4933 118.355 97.7067 118.875 97.92C119.395 98.12 119.848 98.4533 120.235 98.92C120.635 99.3733 120.841 99.9867 120.855 100.76C120.855 101.413 120.668 102 120.295 102.52C119.935 103.027 119.408 103.427 118.715 103.72C118.035 104.013 117.241 104.16 116.335 104.16ZM124.667 91.68C124.067 91.68 123.574 91.5067 123.187 91.16C122.814 90.8 122.627 90.36 122.627 89.84C122.627 89.3067 122.814 88.8667 123.187 88.52C123.574 88.16 124.067 87.98 124.667 87.98C125.254 87.98 125.734 88.16 126.107 88.52C126.494 88.8667 126.687 89.3067 126.687 89.84C126.687 90.36 126.494 90.8 126.107 91.16C125.734 91.5067 125.254 91.68 124.667 91.68ZM126.367 92.84V104H122.947V92.84H126.367ZM133.085 92.68C133.872 92.68 134.559 92.84 135.145 93.16C135.745 93.48 136.205 93.9 136.525 94.42V92.84H139.945V103.98C139.945 105.007 139.739 105.933 139.325 106.76C138.925 107.6 138.305 108.267 137.465 108.76C136.639 109.253 135.605 109.5 134.365 109.5C132.712 109.5 131.372 109.107 130.345 108.32C129.319 107.547 128.732 106.493 128.585 105.16H131.965C132.072 105.587 132.325 105.92 132.725 106.16C133.125 106.413 133.619 106.54 134.205 106.54C134.912 106.54 135.472 106.333 135.885 105.92C136.312 105.52 136.525 104.873 136.525 103.98V102.4C136.192 102.92 135.732 103.347 135.145 103.68C134.559 104 133.872 104.16 133.085 104.16C132.165 104.16 131.332 103.927 130.585 103.46C129.839 102.98 129.245 102.307 128.805 101.44C128.379 100.56 128.165 99.5467 128.165 98.4C128.165 97.2533 128.379 96.2467 128.805 95.38C129.245 94.5133 129.839 93.8467 130.585 93.38C131.332 92.9133 132.165 92.68 133.085 92.68ZM136.525 98.42C136.525 97.5667 136.285 96.8933 135.805 96.4C135.339 95.9067 134.765 95.66 134.085 95.66C133.405 95.66 132.825 95.9067 132.345 96.4C131.879 96.88 131.645 97.5467 131.645 98.4C131.645 99.2533 131.879 99.9333 132.345 100.44C132.825 100.933 133.405 101.18 134.085 101.18C134.765 101.18 135.339 100.933 135.805 100.44C136.285 99.9467 136.525 99.2733 136.525 98.42ZM149.22 92.72C150.526 92.72 151.566 93.1467 152.34 94C153.126 94.84 153.52 96 153.52 97.48V104H150.12V97.94C150.12 97.1933 149.926 96.6133 149.54 96.2C149.153 95.7867 148.633 95.58 147.98 95.58C147.326 95.58 146.806 95.7867 146.42 96.2C146.033 96.6133 145.84 97.1933 145.84 97.94V104H142.42V92.84H145.84V94.32C146.186 93.8267 146.653 93.44 147.24 93.16C147.826 92.8667 148.486 92.72 149.22 92.72Z" fill="#336082"/>
<path d="M78.0781 42H64.8301V41.6348C68.8919 36.7982 71.3545 33.5443 72.2178 31.873C73.0921 30.2018 73.5293 28.5693 73.5293 26.9756C73.5293 25.8135 73.1696 24.8506 72.4502 24.0869C71.7308 23.3122 70.8509 22.9248 69.8105 22.9248C68.1061 22.9248 66.7835 23.777 65.8428 25.4814L65.2285 25.2656C65.8262 23.1406 66.7337 21.569 67.9512 20.5508C69.1686 19.5326 70.5742 19.0234 72.168 19.0234C73.3079 19.0234 74.3483 19.2891 75.2891 19.8203C76.2298 20.3516 76.9658 21.082 77.4971 22.0117C78.0283 22.9303 78.2939 23.7936 78.2939 24.6016C78.2939 26.0736 77.8844 27.5677 77.0654 29.084C75.9476 31.1315 73.5072 33.987 69.7441 37.6504H74.6084C75.8037 37.6504 76.5785 37.6006 76.9326 37.501C77.2979 37.4014 77.5967 37.2354 77.8291 37.0029C78.0615 36.7594 78.3659 36.2559 78.7422 35.4922H79.3398L78.0781 42Z" fill="white"/>
<path d="M29.42 128.34C29.42 129.726 28.286 131.098 26.172 131.098C24.212 131.098 22.826 130.006 22.798 128.396H24.156C24.24 129.208 24.814 130.02 26.172 130.02C27.404 130.02 28.132 129.32 28.132 128.396C28.132 125.764 22.854 127.444 22.854 123.818C22.854 122.208 24.156 121.116 26.088 121.116C27.95 121.116 29.168 122.138 29.322 123.622H27.922C27.838 122.964 27.222 122.222 26.032 122.208C24.982 122.18 24.156 122.726 24.156 123.776C24.156 126.296 29.42 124.728 29.42 128.34ZM38.5748 127.15C38.5748 129.586 36.8248 131.126 34.6408 131.126C32.4708 131.126 30.8188 129.586 30.8188 127.15C30.8188 124.728 32.5268 123.202 34.6968 123.202C36.8808 123.202 38.5748 124.728 38.5748 127.15ZM32.1208 127.15C32.1208 129.096 33.3108 130.006 34.6408 130.006C35.9708 130.006 37.2728 129.096 37.2728 127.15C37.2728 125.218 35.9988 124.308 34.6828 124.308C33.3388 124.308 32.1208 125.218 32.1208 127.15ZM40.4879 131V124.378H39.4939V123.328H40.4879V122.782C40.4879 121.074 41.3279 120.304 43.2879 120.304V121.368C42.1399 121.368 41.7619 121.788 41.7619 122.782V123.328H43.3719V124.378H41.7619V131H40.4879ZM45.1373 128.9V124.378H44.1433V123.328H45.1373V121.396H46.4113V123.328H48.4133V124.378H46.4113V128.9C46.4113 129.656 46.6913 129.922 47.4753 129.922H48.4133V131H47.2653C45.9073 131 45.1373 130.44 45.1373 128.9ZM51.4549 131L49.0469 123.328H50.3489L52.1129 129.768L54.0169 123.328H55.3189L57.1809 129.782L58.9169 123.328H60.1769L57.7829 131H56.4669L54.6189 124.91L52.7709 131H51.4549ZM60.9653 127.136C60.9653 124.742 62.5473 123.202 64.6053 123.202C66.0333 123.202 67.0133 123.93 67.4613 124.728V123.328H68.7493V131H67.4613V129.572C66.9993 130.398 66.0053 131.126 64.5913 131.126C62.5473 131.126 60.9653 129.516 60.9653 127.136ZM67.4613 127.15C67.4613 125.372 66.2573 124.308 64.8573 124.308C63.4573 124.308 62.2673 125.33 62.2673 127.136C62.2673 128.942 63.4573 130.006 64.8573 130.006C66.2573 130.006 67.4613 128.956 67.4613 127.15ZM72.1762 126.828V131H70.9022V123.328H72.1762V124.574C72.6102 123.72 73.4362 123.188 74.6542 123.188V124.504H74.3182C73.1002 124.504 72.1762 125.05 72.1762 126.828ZM79.3869 124.28C78.1409 124.28 77.1049 125.106 76.9649 126.604H81.8089C81.8229 125.106 80.7029 124.28 79.3869 124.28ZM82.9709 128.634C82.5789 130.034 81.3469 131.126 79.4429 131.126C77.2589 131.126 75.6489 129.586 75.6489 127.15C75.6489 124.728 77.2029 123.202 79.4429 123.202C81.6689 123.202 83.1249 124.77 83.1249 126.87C83.1249 127.15 83.1109 127.374 83.0829 127.64H76.9509C77.0489 129.194 78.1409 130.048 79.4429 130.048C80.5909 130.048 81.3189 129.46 81.5989 128.634H82.9709ZM94.0549 128.914C94.0549 130.174 92.9489 131.126 91.2549 131.126C89.4629 131.126 88.2029 130.146 88.1189 128.746H89.4349C89.5049 129.488 90.1629 130.048 91.2409 130.048C92.2489 130.048 92.8089 129.544 92.8089 128.914C92.8089 127.206 88.2729 128.2 88.2729 125.344C88.2729 124.168 89.3789 123.202 91.0869 123.202C92.7809 123.202 93.9009 124.112 93.9849 125.61H92.7109C92.6549 124.84 92.0669 124.28 91.0449 124.28C90.1069 124.28 89.5469 124.728 89.5469 125.344C89.5469 127.164 93.9989 126.17 94.0549 128.914ZM96.1334 128.9V124.378H95.1394V123.328H96.1334V121.396H97.4074V123.328H99.4094V124.378H97.4074V128.9C97.4074 129.656 97.6874 129.922 98.4714 129.922H99.4094V131H98.2614C96.9034 131 96.1334 130.44 96.1334 128.9ZM100.477 127.136C100.477 124.742 102.059 123.202 104.117 123.202C105.545 123.202 106.525 123.93 106.973 124.728V123.328H108.261V131H106.973V129.572C106.511 130.398 105.517 131.126 104.103 131.126C102.059 131.126 100.477 129.516 100.477 127.136ZM106.973 127.15C106.973 125.372 105.769 124.308 104.369 124.308C102.969 124.308 101.779 125.33 101.779 127.136C101.779 128.942 102.969 130.006 104.369 130.006C105.769 130.006 106.973 128.956 106.973 127.15ZM111.688 126.828V131H110.414V123.328H111.688V124.574C112.122 123.72 112.948 123.188 114.166 123.188V124.504H113.83C112.612 124.504 111.688 125.05 111.688 126.828ZM115.917 128.9V124.378H114.923V123.328H115.917V121.396H117.191V123.328H119.193V124.378H117.191V128.9C117.191 129.656 117.471 129.922 118.255 129.922H119.193V131H118.045C116.687 131 115.917 130.44 115.917 128.9ZM126.252 128.914C126.252 130.174 125.146 131.126 123.452 131.126C121.66 131.126 120.4 130.146 120.316 128.746H121.632C121.702 129.488 122.36 130.048 123.438 130.048C124.446 130.048 125.006 129.544 125.006 128.914C125.006 127.206 120.47 128.2 120.47 125.344C120.47 124.168 121.576 123.202 123.284 123.202C124.978 123.202 126.098 124.112 126.182 125.61H124.908C124.852 124.84 124.264 124.28 123.242 124.28C122.304 124.28 121.744 124.728 121.744 125.344C121.744 127.164 126.196 126.17 126.252 128.914ZM132.063 128.9V124.378H131.069V123.328H132.063V121.396H133.337V123.328H135.339V124.378H133.337V128.9C133.337 129.656 133.617 129.922 134.401 129.922H135.339V131H134.191C132.833 131 132.063 130.44 132.063 128.9ZM144.163 127.15C144.163 129.586 142.413 131.126 140.229 131.126C138.059 131.126 136.407 129.586 136.407 127.15C136.407 124.728 138.115 123.202 140.285 123.202C142.469 123.202 144.163 124.728 144.163 127.15ZM137.709 127.15C137.709 129.096 138.899 130.006 140.229 130.006C141.559 130.006 142.861 129.096 142.861 127.15C142.861 125.218 141.587 124.308 140.271 124.308C138.927 124.308 137.709 125.218 137.709 127.15ZM149.094 127.15C149.094 124.742 150.648 123.202 152.832 123.202C154.736 123.202 155.982 124.182 156.374 125.792H155.002C154.736 124.868 153.966 124.28 152.832 124.28C151.432 124.28 150.396 125.274 150.396 127.15C150.396 129.054 151.432 130.048 152.832 130.048C153.966 130.048 154.722 129.502 155.002 128.536H156.374C155.982 130.062 154.736 131.126 152.832 131.126C150.648 131.126 149.094 129.586 149.094 127.15ZM165.354 127.15C165.354 129.586 163.604 131.126 161.42 131.126C159.25 131.126 157.598 129.586 157.598 127.15C157.598 124.728 159.306 123.202 161.476 123.202C163.66 123.202 165.354 124.728 165.354 127.15ZM158.9 127.15C158.9 129.096 160.09 130.006 161.42 130.006C162.75 130.006 164.052 129.096 164.052 127.15C164.052 125.218 162.778 124.308 161.462 124.308C160.118 124.308 158.9 125.218 158.9 127.15ZM178.103 131V126.66C178.103 125.092 177.263 124.294 176.003 124.294C174.715 124.294 173.833 125.12 173.833 126.772V131H172.573V126.66C172.573 125.092 171.733 124.294 170.473 124.294C169.185 124.294 168.303 125.12 168.303 126.772V131H167.029V123.328H168.303V124.434C168.807 123.622 169.717 123.188 170.725 123.188C171.985 123.188 173.035 123.748 173.539 124.896C173.987 123.79 175.079 123.188 176.255 123.188C178.005 123.188 179.363 124.28 179.363 126.478V131H178.103ZM184.715 124.28C183.469 124.28 182.433 125.106 182.293 126.604H187.137C187.151 125.106 186.031 124.28 184.715 124.28ZM188.299 128.634C187.907 130.034 186.675 131.126 184.771 131.126C182.587 131.126 180.977 129.586 180.977 127.15C180.977 124.728 182.531 123.202 184.771 123.202C186.997 123.202 188.453 124.77 188.453 126.87C188.453 127.15 188.439 127.374 188.411 127.64H182.279C182.377 129.194 183.469 130.048 184.771 130.048C185.919 130.048 186.647 129.46 186.927 128.634H188.299ZM194.147 128.9V124.378H193.153V123.328H194.147V121.396H195.421V123.328H197.423V124.378H195.421V128.9C195.421 129.656 195.701 129.922 196.485 129.922H197.423V131H196.275C194.917 131 194.147 130.44 194.147 128.9ZM206.247 127.15C206.247 129.586 204.497 131.126 202.313 131.126C200.143 131.126 198.491 129.586 198.491 127.15C198.491 124.728 200.199 123.202 202.369 123.202C204.553 123.202 206.247 124.728 206.247 127.15ZM199.793 127.15C199.793 129.096 200.983 130.006 202.313 130.006C203.643 130.006 204.945 129.096 204.945 127.15C204.945 125.218 203.671 124.308 202.355 124.308C201.011 124.308 199.793 125.218 199.793 127.15ZM211.654 131V120.64H212.928V131H211.654ZM215.099 131V123.328H216.373V131H215.099ZM215.757 122.082C215.267 122.082 214.889 121.704 214.889 121.214C214.889 120.724 215.267 120.346 215.757 120.346C216.219 120.346 216.597 120.724 216.597 121.214C216.597 121.704 216.219 122.082 215.757 122.082ZM218.783 131V124.378H217.789V123.328H218.783V122.782C218.783 121.074 219.623 120.304 221.583 120.304V121.368C220.435 121.368 220.057 121.788 220.057 122.782V123.328H221.667V124.378H220.057V131H218.783ZM226.414 124.28C225.168 124.28 224.132 125.106 223.992 126.604H228.836C228.85 125.106 227.73 124.28 226.414 124.28ZM229.998 128.634C229.606 130.034 228.374 131.126 226.47 131.126C224.286 131.126 222.676 129.586 222.676 127.15C222.676 124.728 224.23 123.202 226.47 123.202C228.696 123.202 230.152 124.77 230.152 126.87C230.152 127.15 230.138 127.374 230.11 127.64H223.978C224.076 129.194 225.168 130.048 226.47 130.048C227.618 130.048 228.346 129.46 228.626 128.634H229.998ZM28.594 148.914C28.594 150.174 27.488 151.126 25.794 151.126C24.002 151.126 22.742 150.146 22.658 148.746H23.974C24.044 149.488 24.702 150.048 25.78 150.048C26.788 150.048 27.348 149.544 27.348 148.914C27.348 147.206 22.812 148.2 22.812 145.344C22.812 144.168 23.918 143.202 25.626 143.202C27.32 143.202 28.44 144.112 28.524 145.61H27.25C27.194 144.84 26.606 144.28 25.584 144.28C24.646 144.28 24.086 144.728 24.086 145.344C24.086 147.164 28.538 146.17 28.594 148.914ZM30.6725 148.9V144.378H29.6785V143.328H30.6725V141.396H31.9465V143.328H33.9485V144.378H31.9465V148.9C31.9465 149.656 32.2265 149.922 33.0105 149.922H33.9485V151H32.8005C31.4425 151 30.6725 150.44 30.6725 148.9ZM35.0161 147.136C35.0161 144.742 36.5981 143.202 38.6561 143.202C40.0841 143.202 41.0641 143.93 41.5121 144.728V143.328H42.8001V151H41.5121V149.572C41.0501 150.398 40.0561 151.126 38.6421 151.126C36.5981 151.126 35.0161 149.516 35.0161 147.136ZM41.5121 147.15C41.5121 145.372 40.3081 144.308 38.9081 144.308C37.5081 144.308 36.3181 145.33 36.3181 147.136C36.3181 148.942 37.5081 150.006 38.9081 150.006C40.3081 150.006 41.5121 148.956 41.5121 147.15ZM44.477 147.136C44.477 144.742 46.059 143.202 48.117 143.202C49.517 143.202 50.525 143.902 50.973 144.728V143.328H52.261V151.168C52.261 153.282 50.847 154.78 48.593 154.78C46.577 154.78 45.135 153.758 44.883 152.12H46.143C46.423 153.044 47.333 153.674 48.593 153.674C49.951 153.674 50.973 152.806 50.973 151.168V149.558C50.511 150.384 49.517 151.126 48.117 151.126C46.059 151.126 44.477 149.516 44.477 147.136ZM50.973 147.15C50.973 145.372 49.769 144.308 48.369 144.308C46.969 144.308 45.779 145.33 45.779 147.136C45.779 148.942 46.969 150.006 48.369 150.006C49.769 150.006 50.973 148.956 50.973 147.15ZM57.6759 144.28C56.4299 144.28 55.3939 145.106 55.2539 146.604H60.0979C60.1119 145.106 58.9919 144.28 57.6759 144.28ZM61.2599 148.634C60.8679 150.034 59.6359 151.126 57.7319 151.126C55.5479 151.126 53.9379 149.586 53.9379 147.15C53.9379 144.728 55.4919 143.202 57.7319 143.202C59.9579 143.202 61.4139 144.77 61.4139 146.87C61.4139 147.15 61.3999 147.374 61.3719 147.64H55.2399C55.3379 149.194 56.4299 150.048 57.7319 150.048C58.8799 150.048 59.6079 149.46 59.8879 148.634H61.2599ZM63.5296 148.242L63.3756 141.242H64.7476L64.5936 148.242H63.5296ZM64.9576 150.216C64.9576 150.706 64.5796 151.084 64.1176 151.084C63.6276 151.084 63.2496 150.706 63.2496 150.216C63.2496 149.726 63.6276 149.348 64.1176 149.348C64.5796 149.348 64.9576 149.726 64.9576 150.216ZM70.9979 151V141.242H72.2719V151H70.9979ZM74.7232 148.9V144.378H73.7292V143.328H74.7232V141.396H75.9972V143.328H77.9992V144.378H75.9972V148.9C75.9972 149.656 76.2772 149.922 77.0612 149.922H77.9992V151H76.8512C75.4932 151 74.7232 150.44 74.7232 148.9ZM83.2753 151V143.328H84.5493V151H83.2753ZM83.9333 142.082C83.4433 142.082 83.0653 141.704 83.0653 141.214C83.0653 140.724 83.4433 140.346 83.9333 140.346C84.3953 140.346 84.7733 140.724 84.7733 141.214C84.7733 141.704 84.3953 142.082 83.9333 142.082ZM92.3346 151V146.66C92.3346 145.092 91.4806 144.294 90.1926 144.294C88.8906 144.294 87.9946 145.106 87.9946 146.758V151H86.7206V143.328H87.9946V144.42C88.4986 143.622 89.4226 143.188 90.4586 143.188C92.2366 143.188 93.5946 144.28 93.5946 146.478V151H92.3346ZM95.1997 147.15C95.1997 144.742 96.7537 143.202 98.9377 143.202C100.842 143.202 102.088 144.182 102.48 145.792H101.108C100.842 144.868 100.072 144.28 98.9377 144.28C97.5377 144.28 96.5017 145.274 96.5017 147.15C96.5017 149.054 97.5377 150.048 98.9377 150.048C100.072 150.048 100.828 149.502 101.108 148.536H102.48C102.088 150.062 100.842 151.126 98.9377 151.126C96.7537 151.126 95.1997 149.586 95.1997 147.15ZM104.18 151V140.64H105.454V151H104.18ZM114.429 143.328V151H113.155V149.866C112.665 150.664 111.727 151.112 110.705 151.112C108.941 151.112 107.555 150.02 107.555 147.822V143.328H108.815V147.654C108.815 149.208 109.669 150.006 110.957 150.006C112.273 150.006 113.155 149.194 113.155 147.542V143.328H114.429ZM116.104 147.136C116.104 144.742 117.686 143.202 119.758 143.202C120.962 143.202 122.068 143.818 122.6 144.7V140.64H123.888V151H122.6V149.558C122.138 150.412 121.144 151.126 119.744 151.126C117.686 151.126 116.104 149.516 116.104 147.136ZM122.6 147.15C122.6 145.372 121.396 144.308 119.996 144.308C118.596 144.308 117.406 145.33 117.406 147.136C117.406 148.942 118.596 150.006 119.996 150.006C121.396 150.006 122.6 148.956 122.6 147.15ZM129.303 144.28C128.057 144.28 127.021 145.106 126.881 146.604H131.725C131.739 145.106 130.619 144.28 129.303 144.28ZM132.887 148.634C132.495 150.034 131.263 151.126 129.359 151.126C127.175 151.126 125.565 149.586 125.565 147.15C125.565 144.728 127.119 143.202 129.359 143.202C131.585 143.202 133.041 144.77 133.041 146.87C133.041 147.15 133.027 147.374 132.999 147.64H126.867C126.965 149.194 128.057 150.048 129.359 150.048C130.507 150.048 131.235 149.46 131.515 148.634H132.887ZM140.239 148.914C140.239 150.174 139.133 151.126 137.439 151.126C135.647 151.126 134.387 150.146 134.303 148.746H135.619C135.689 149.488 136.347 150.048 137.425 150.048C138.433 150.048 138.993 149.544 138.993 148.914C138.993 147.206 134.457 148.2 134.457 145.344C134.457 144.168 135.563 143.202 137.271 143.202C138.965 143.202 140.085 144.112 140.169 145.61H138.895C138.839 144.84 138.251 144.28 137.229 144.28C136.291 144.28 135.731 144.728 135.731 145.344C135.731 147.164 140.183 146.17 140.239 148.914ZM146.007 151V144.378H145.013V143.328H146.007V142.782C146.007 141.074 146.847 140.304 148.807 140.304V141.368C147.659 141.368 147.281 141.788 147.281 142.782V143.328H148.891V144.378H147.281V151H146.007ZM150.377 151V140.64H151.651V151H150.377ZM161.102 147.15C161.102 149.586 159.352 151.126 157.168 151.126C154.998 151.126 153.346 149.586 153.346 147.15C153.346 144.728 155.054 143.202 157.224 143.202C159.408 143.202 161.102 144.728 161.102 147.15ZM154.648 147.15C154.648 149.096 155.838 150.006 157.168 150.006C158.498 150.006 159.8 149.096 159.8 147.15C159.8 145.218 158.526 144.308 157.21 144.308C155.866 144.308 154.648 145.218 154.648 147.15ZM164.275 151L161.867 143.328H163.169L164.933 149.768L166.837 143.328H168.139L170.001 149.782L171.737 143.328H172.997L170.603 151H169.287L167.439 144.91L165.591 151H164.275ZM173.786 147.15C173.786 144.742 175.34 143.202 177.524 143.202C179.428 143.202 180.674 144.182 181.066 145.792H179.694C179.428 144.868 178.658 144.28 177.524 144.28C176.124 144.28 175.088 145.274 175.088 147.15C175.088 149.054 176.124 150.048 177.524 150.048C178.658 150.048 179.414 149.502 179.694 148.536H181.066C180.674 150.062 179.428 151.126 177.524 151.126C175.34 151.126 173.786 149.586 173.786 147.15ZM182.766 151V140.64H184.04V144.434C184.544 143.622 185.496 143.188 186.574 143.188C188.282 143.188 189.64 144.28 189.64 146.478V151H188.38V146.66C188.38 145.092 187.526 144.294 186.238 144.294C184.936 144.294 184.04 145.106 184.04 146.758V151H182.766ZM191.245 147.136C191.245 144.742 192.827 143.202 194.885 143.202C196.313 143.202 197.293 143.93 197.741 144.728V143.328H199.029V151H197.741V149.572C197.279 150.398 196.285 151.126 194.871 151.126C192.827 151.126 191.245 149.516 191.245 147.136ZM197.741 147.15C197.741 145.372 196.537 144.308 195.137 144.308C193.737 144.308 192.547 145.33 192.547 147.136C192.547 148.942 193.737 150.006 195.137 150.006C196.537 150.006 197.741 148.956 197.741 147.15ZM202.456 146.828V151H201.182V143.328H202.456V144.574C202.89 143.72 203.716 143.188 204.934 143.188V144.504H204.598C203.38 144.504 202.456 145.05 202.456 146.828ZM206.684 148.9V144.378H205.69V143.328H206.684V141.396H207.958V143.328H209.96V144.378H207.958V148.9C207.958 149.656 208.238 149.922 209.022 149.922H209.96V151H208.812C207.454 151 206.684 150.44 206.684 148.9ZM217.02 148.914C217.02 150.174 215.914 151.126 214.22 151.126C212.428 151.126 211.168 150.146 211.084 148.746H212.4C212.47 149.488 213.128 150.048 214.206 150.048C215.214 150.048 215.774 149.544 215.774 148.914C215.774 147.206 211.238 148.2 211.238 145.344C211.238 144.168 212.344 143.202 214.052 143.202C215.746 143.202 216.866 144.112 216.95 145.61H215.676C215.62 144.84 215.032 144.28 214.01 144.28C213.072 144.28 212.512 144.728 212.512 145.344C212.512 147.164 216.964 146.17 217.02 148.914ZM217.712 153.002L218.734 149.236H220.134L218.566 153.002H217.712ZM22.602 167.136C22.602 164.742 24.184 163.202 26.242 163.202C27.67 163.202 28.65 163.93 29.098 164.728V163.328H30.386V171H29.098V169.572C28.636 170.398 27.642 171.126 26.228 171.126C24.184 171.126 22.602 169.516 22.602 167.136ZM29.098 167.15C29.098 165.372 27.894 164.308 26.494 164.308C25.094 164.308 23.904 165.33 23.904 167.136C23.904 168.942 25.094 170.006 26.494 170.006C27.894 170.006 29.098 168.956 29.098 167.15ZM38.1529 171V166.66C38.1529 165.092 37.2989 164.294 36.0109 164.294C34.7089 164.294 33.8129 165.106 33.8129 166.758V171H32.5389V163.328H33.8129V164.42C34.3169 163.622 35.2409 163.188 36.2769 163.188C38.0549 163.188 39.4129 164.28 39.4129 166.478V171H38.1529ZM41.018 167.136C41.018 164.742 42.6 163.202 44.672 163.202C45.876 163.202 46.982 163.818 47.514 164.7V160.64H48.802V171H47.514V169.558C47.052 170.412 46.058 171.126 44.658 171.126C42.6 171.126 41.018 169.516 41.018 167.136ZM47.514 167.15C47.514 165.372 46.31 164.308 44.91 164.308C43.51 164.308 42.32 165.33 42.32 167.136C42.32 168.942 43.51 170.006 44.91 170.006C46.31 170.006 47.514 168.956 47.514 167.15ZM61.4914 163.328V171H60.2174V169.866C59.7274 170.664 58.7894 171.112 57.7674 171.112C56.0034 171.112 54.6174 170.02 54.6174 167.822V163.328H55.8774V167.654C55.8774 169.208 56.7314 170.006 58.0194 170.006C59.3354 170.006 60.2174 169.194 60.2174 167.542V163.328H61.4914ZM69.1585 168.914C69.1585 170.174 68.0525 171.126 66.3585 171.126C64.5665 171.126 63.3065 170.146 63.2225 168.746H64.5385C64.6085 169.488 65.2665 170.048 66.3445 170.048C67.3525 170.048 67.9125 169.544 67.9125 168.914C67.9125 167.206 63.3765 168.2 63.3765 165.344C63.3765 164.168 64.4825 163.202 66.1905 163.202C67.8845 163.202 69.0045 164.112 69.0885 165.61H67.8145C67.7585 164.84 67.1705 164.28 66.1485 164.28C65.2105 164.28 64.6505 164.728 64.6505 165.344C64.6505 167.164 69.1025 166.17 69.1585 168.914ZM74.2189 164.28C72.9729 164.28 71.9369 165.106 71.7969 166.604H76.6409C76.6549 165.106 75.5349 164.28 74.2189 164.28ZM77.8029 168.634C77.4109 170.034 76.1789 171.126 74.2749 171.126C72.0909 171.126 70.4809 169.586 70.4809 167.15C70.4809 164.728 72.0349 163.202 74.2749 163.202C76.5009 163.202 77.9569 164.77 77.9569 166.87C77.9569 167.15 77.9429 167.374 77.9149 167.64H71.7829C71.8809 169.194 72.9729 170.048 74.2749 170.048C75.4229 170.048 76.1509 169.46 76.4309 168.634H77.8029ZM80.9125 166.828V171H79.6385V163.328H80.9125V164.574C81.3465 163.72 82.1725 163.188 83.3905 163.188V164.504H83.0545C81.8365 164.504 80.9125 165.05 80.9125 166.828ZM89.2796 162.082C88.8036 162.082 88.4256 161.704 88.4256 161.214C88.4256 160.724 88.8036 160.346 89.2796 160.346C89.7556 160.346 90.1336 160.724 90.1336 161.214C90.1336 161.704 89.7556 162.082 89.2796 162.082ZM88.6356 163.328H89.9096V172.666C89.9096 174.052 89.1816 174.64 87.8796 174.64H87.1376V173.562H87.6696C88.3696 173.562 88.6356 173.31 88.6356 172.638V163.328ZM99.3463 167.15C99.3463 169.586 97.5963 171.126 95.4123 171.126C93.2423 171.126 91.5903 169.586 91.5903 167.15C91.5903 164.728 93.2983 163.202 95.4683 163.202C97.6523 163.202 99.3463 164.728 99.3463 167.15ZM92.8923 167.15C92.8923 169.096 94.0823 170.006 95.4123 170.006C96.7423 170.006 98.0443 169.096 98.0443 167.15C98.0443 165.218 96.7703 164.308 95.4543 164.308C94.1103 164.308 92.8923 165.218 92.8923 167.15ZM107.825 163.328V171H106.551V169.866C106.061 170.664 105.123 171.112 104.101 171.112C102.337 171.112 100.951 170.02 100.951 167.822V163.328H102.211V167.654C102.211 169.208 103.065 170.006 104.353 170.006C105.669 170.006 106.551 169.194 106.551 167.542V163.328H107.825ZM111.25 166.828V171H109.976V163.328H111.25V164.574C111.684 163.72 112.51 163.188 113.728 163.188V164.504H113.392C112.174 164.504 111.25 165.05 111.25 166.828ZM120.813 171V166.66C120.813 165.092 119.959 164.294 118.671 164.294C117.369 164.294 116.473 165.106 116.473 166.758V171H115.199V163.328H116.473V164.42C116.977 163.622 117.901 163.188 118.937 163.188C120.715 163.188 122.073 164.28 122.073 166.478V171H120.813ZM127.416 164.28C126.17 164.28 125.134 165.106 124.994 166.604H129.838C129.852 165.106 128.732 164.28 127.416 164.28ZM131 168.634C130.608 170.034 129.376 171.126 127.472 171.126C125.288 171.126 123.678 169.586 123.678 167.15C123.678 164.728 125.232 163.202 127.472 163.202C129.698 163.202 131.154 164.77 131.154 166.87C131.154 167.15 131.14 167.374 131.112 167.64H124.98C125.078 169.194 126.17 170.048 127.472 170.048C128.62 170.048 129.348 169.46 129.628 168.634H131ZM135.748 169.544L138.128 163.328H139.444L134.824 174.612H133.508L135.02 170.916L131.926 163.328H133.34L135.748 169.544ZM155.531 171V166.66C155.531 165.092 154.691 164.294 153.431 164.294C152.143 164.294 151.261 165.12 151.261 166.772V171H150.001V166.66C150.001 165.092 149.161 164.294 147.901 164.294C146.613 164.294 145.731 165.12 145.731 166.772V171H144.457V163.328H145.731V164.434C146.235 163.622 147.145 163.188 148.153 163.188C149.413 163.188 150.463 163.748 150.967 164.896C151.415 163.79 152.507 163.188 153.683 163.188C155.433 163.188 156.791 164.28 156.791 166.478V171H155.531ZM158.405 167.136C158.405 164.742 159.987 163.202 162.045 163.202C163.473 163.202 164.453 163.93 164.901 164.728V163.328H166.189V171H164.901V169.572C164.439 170.398 163.445 171.126 162.031 171.126C159.987 171.126 158.405 169.516 158.405 167.136ZM164.901 167.15C164.901 165.372 163.697 164.308 162.297 164.308C160.897 164.308 159.707 165.33 159.707 167.136C159.707 168.942 160.897 170.006 162.297 170.006C163.697 170.006 164.901 168.956 164.901 167.15ZM169.616 164.742C170.078 163.93 171.086 163.202 172.486 163.202C174.544 163.202 176.126 164.742 176.126 167.136C176.126 169.516 174.544 171.126 172.486 171.126C171.086 171.126 170.092 170.37 169.616 169.586V174.64H168.342V163.328H169.616V164.742ZM174.824 167.136C174.824 165.33 173.634 164.308 172.22 164.308C170.834 164.308 169.616 165.372 169.616 167.15C169.616 168.956 170.834 170.006 172.22 170.006C173.634 170.006 174.824 168.942 174.824 167.136ZM179.077 164.742C179.539 163.93 180.547 163.202 181.947 163.202C184.005 163.202 185.587 164.742 185.587 167.136C185.587 169.516 184.005 171.126 181.947 171.126C180.547 171.126 179.553 170.37 179.077 169.586V174.64H177.803V163.328H179.077V164.742ZM184.285 167.136C184.285 165.33 183.095 164.308 181.681 164.308C180.295 164.308 179.077 165.372 179.077 167.15C179.077 168.956 180.295 170.006 181.681 170.006C183.095 170.006 184.285 168.942 184.285 167.136ZM187.264 171V163.328H188.538V171H187.264ZM187.922 162.082C187.432 162.082 187.054 161.704 187.054 161.214C187.054 160.724 187.432 160.346 187.922 160.346C188.384 160.346 188.762 160.724 188.762 161.214C188.762 161.704 188.384 162.082 187.922 162.082ZM196.323 171V166.66C196.323 165.092 195.469 164.294 194.181 164.294C192.879 164.294 191.983 165.106 191.983 166.758V171H190.709V163.328H191.983V164.42C192.487 163.622 193.411 163.188 194.447 163.188C196.225 163.188 197.583 164.28 197.583 166.478V171H196.323ZM199.188 167.136C199.188 164.742 200.77 163.202 202.828 163.202C204.228 163.202 205.236 163.902 205.684 164.728V163.328H206.972V171.168C206.972 173.282 205.558 174.78 203.304 174.78C201.288 174.78 199.846 173.758 199.594 172.12H200.854C201.134 173.044 202.044 173.674 203.304 173.674C204.662 173.674 205.684 172.806 205.684 171.168V169.558C205.222 170.384 204.228 171.126 202.828 171.126C200.77 171.126 199.188 169.516 199.188 167.136ZM205.684 167.15C205.684 165.372 204.48 164.308 203.08 164.308C201.68 164.308 200.49 165.33 200.49 167.136C200.49 168.942 201.68 170.006 203.08 170.006C204.48 170.006 205.684 168.956 205.684 167.15ZM208.019 173.002L209.041 169.236H210.441L208.873 173.002H208.019ZM22.602 187.136C22.602 184.742 24.184 183.202 26.242 183.202C27.67 183.202 28.65 183.93 29.098 184.728V183.328H30.386V191H29.098V189.572C28.636 190.398 27.642 191.126 26.228 191.126C24.184 191.126 22.602 189.516 22.602 187.136ZM29.098 187.15C29.098 185.372 27.894 184.308 26.494 184.308C25.094 184.308 23.904 185.33 23.904 187.136C23.904 188.942 25.094 190.006 26.494 190.006C27.894 190.006 29.098 188.956 29.098 187.15ZM38.1529 191V186.66C38.1529 185.092 37.2989 184.294 36.0109 184.294C34.7089 184.294 33.8129 185.106 33.8129 186.758V191H32.5389V183.328H33.8129V184.42C34.3169 183.622 35.2409 183.188 36.2769 183.188C38.0549 183.188 39.4129 184.28 39.4129 186.478V191H38.1529ZM41.018 187.136C41.018 184.742 42.6 183.202 44.672 183.202C45.876 183.202 46.982 183.818 47.514 184.7V180.64H48.802V191H47.514V189.558C47.052 190.412 46.058 191.126 44.658 191.126C42.6 191.126 41.018 189.516 41.018 187.136ZM47.514 187.15C47.514 185.372 46.31 184.308 44.91 184.308C43.51 184.308 42.32 185.33 42.32 187.136C42.32 188.942 43.51 190.006 44.91 190.006C46.31 190.006 47.514 188.956 47.514 187.15ZM54.9674 188.9V184.378H53.9734V183.328H54.9674V181.396H56.2414V183.328H58.2434V184.378H56.2414V188.9C56.2414 189.656 56.5214 189.922 57.3054 189.922H58.2434V191H57.0954C55.7374 191 54.9674 190.44 54.9674 188.9ZM59.787 191V180.64H61.061V184.434C61.565 183.622 62.517 183.188 63.595 183.188C65.303 183.188 66.661 184.28 66.661 186.478V191H65.401V186.66C65.401 185.092 64.547 184.294 63.259 184.294C61.957 184.294 61.061 185.106 61.061 186.758V191H59.787ZM72.0041 184.28C70.7581 184.28 69.7221 185.106 69.5821 186.604H74.4261C74.4401 185.106 73.3201 184.28 72.0041 184.28ZM75.5881 188.634C75.1961 190.034 73.9641 191.126 72.0601 191.126C69.8761 191.126 68.2661 189.586 68.2661 187.15C68.2661 184.728 69.8201 183.202 72.0601 183.202C74.2861 183.202 75.7421 184.77 75.7421 186.87C75.7421 187.15 75.7281 187.374 75.7001 187.64H69.5681C69.6661 189.194 70.7581 190.048 72.0601 190.048C73.2081 190.048 73.9361 189.46 74.2161 188.634H75.5881ZM83.0377 191V186.66C83.0377 185.092 82.1837 184.294 80.8957 184.294C79.5937 184.294 78.6977 185.106 78.6977 186.758V191H77.4237V183.328H78.6977V184.42C79.2017 183.622 80.1257 183.188 81.1617 183.188C82.9397 183.188 84.2977 184.28 84.2977 186.478V191H83.0377ZM91.6092 191L89.2012 183.328H90.5032L92.2672 189.768L94.1712 183.328H95.4732L97.3352 189.782L99.0712 183.328H100.331L97.9372 191H96.6212L94.7732 184.91L92.9252 191H91.6092ZM104.858 184.28C103.612 184.28 102.576 185.106 102.436 186.604H107.28C107.294 185.106 106.174 184.28 104.858 184.28ZM108.442 188.634C108.05 190.034 106.818 191.126 104.914 191.126C102.73 191.126 101.12 189.586 101.12 187.15C101.12 184.728 102.674 183.202 104.914 183.202C107.14 183.202 108.596 184.77 108.596 186.87C108.596 187.15 108.582 187.374 108.554 187.64H102.422C102.52 189.194 103.612 190.048 104.914 190.048C106.062 190.048 106.79 189.46 107.07 188.634H108.442ZM115.284 184.756C115.774 183.902 116.796 183.202 118.154 183.202C120.226 183.202 121.794 184.742 121.794 187.136C121.794 189.516 120.212 191.126 118.154 191.126C116.754 191.126 115.76 190.426 115.284 189.586V191H114.01V180.64H115.284V184.756ZM120.492 187.136C120.492 185.33 119.302 184.308 117.888 184.308C116.502 184.308 115.284 185.372 115.284 187.15C115.284 188.956 116.502 190.006 117.888 190.006C119.302 190.006 120.492 188.942 120.492 187.136ZM126.733 184.28C125.487 184.28 124.451 185.106 124.311 186.604H129.155C129.169 185.106 128.049 184.28 126.733 184.28ZM130.317 188.634C129.925 190.034 128.693 191.126 126.789 191.126C124.605 191.126 122.995 189.586 122.995 187.15C122.995 184.728 124.549 183.202 126.789 183.202C129.015 183.202 130.471 184.77 130.471 186.87C130.471 187.15 130.457 187.374 130.429 187.64H124.297C124.395 189.194 125.487 190.048 126.789 190.048C127.937 190.048 128.665 189.46 128.945 188.634H130.317ZM131.676 187.136C131.676 184.742 133.258 183.202 135.316 183.202C136.716 183.202 137.724 183.902 138.172 184.728V183.328H139.46V191.168C139.46 193.282 138.046 194.78 135.792 194.78C133.776 194.78 132.334 193.758 132.082 192.12H133.342C133.622 193.044 134.532 193.674 135.792 193.674C137.15 193.674 138.172 192.806 138.172 191.168V189.558C137.71 190.384 136.716 191.126 135.316 191.126C133.258 191.126 131.676 189.516 131.676 187.136ZM138.172 187.15C138.172 185.372 136.968 184.308 135.568 184.308C134.168 184.308 132.978 185.33 132.978 187.136C132.978 188.942 134.168 190.006 135.568 190.006C136.968 190.006 138.172 188.956 138.172 187.15ZM141.613 191V183.328H142.887V191H141.613ZM142.271 182.082C141.781 182.082 141.403 181.704 141.403 181.214C141.403 180.724 141.781 180.346 142.271 180.346C142.733 180.346 143.111 180.724 143.111 181.214C143.111 181.704 142.733 182.082 142.271 182.082ZM150.672 191V186.66C150.672 185.092 149.818 184.294 148.53 184.294C147.228 184.294 146.332 185.106 146.332 186.758V191H145.058V183.328H146.332V184.42C146.836 183.622 147.76 183.188 148.796 183.188C150.574 183.188 151.932 184.28 151.932 186.478V191H150.672ZM157.27 187.136C157.27 184.742 158.852 183.202 160.924 183.202C162.128 183.202 163.234 183.818 163.766 184.7V180.64H165.054V191H163.766V189.558C163.304 190.412 162.31 191.126 160.91 191.126C158.852 191.126 157.27 189.516 157.27 187.136ZM163.766 187.15C163.766 185.372 162.562 184.308 161.162 184.308C159.762 184.308 158.572 185.33 158.572 187.136C158.572 188.942 159.762 190.006 161.162 190.006C162.562 190.006 163.766 188.956 163.766 187.15ZM170.469 184.28C169.223 184.28 168.187 185.106 168.047 186.604H172.891C172.905 185.106 171.785 184.28 170.469 184.28ZM174.053 188.634C173.661 190.034 172.429 191.126 170.525 191.126C168.341 191.126 166.731 189.586 166.731 187.15C166.731 184.728 168.285 183.202 170.525 183.202C172.751 183.202 174.207 184.77 174.207 186.87C174.207 187.15 174.193 187.374 174.165 187.64H168.033C168.131 189.194 169.223 190.048 170.525 190.048C171.673 190.048 172.401 189.46 172.681 188.634H174.053ZM181.405 188.914C181.405 190.174 180.299 191.126 178.605 191.126C176.813 191.126 175.553 190.146 175.469 188.746H176.785C176.855 189.488 177.513 190.048 178.591 190.048C179.599 190.048 180.159 189.544 180.159 188.914C180.159 187.206 175.623 188.2 175.623 185.344C175.623 184.168 176.729 183.202 178.437 183.202C180.131 183.202 181.251 184.112 181.335 185.61H180.061C180.005 184.84 179.417 184.28 178.395 184.28C177.457 184.28 176.897 184.728 176.897 185.344C176.897 187.164 181.349 186.17 181.405 188.914ZM183.203 191V183.328H184.477V191H183.203ZM183.861 182.082C183.371 182.082 182.993 181.704 182.993 181.214C182.993 180.724 183.371 180.346 183.861 180.346C184.323 180.346 184.701 180.724 184.701 181.214C184.701 181.704 184.323 182.082 183.861 182.082ZM186.172 187.136C186.172 184.742 187.754 183.202 189.812 183.202C191.212 183.202 192.22 183.902 192.668 184.728V183.328H193.956V191.168C193.956 193.282 192.542 194.78 190.288 194.78C188.272 194.78 186.83 193.758 186.578 192.12H187.838C188.118 193.044 189.028 193.674 190.288 193.674C191.646 193.674 192.668 192.806 192.668 191.168V189.558C192.206 190.384 191.212 191.126 189.812 191.126C187.754 191.126 186.172 189.516 186.172 187.136ZM192.668 187.15C192.668 185.372 191.464 184.308 190.064 184.308C188.664 184.308 187.474 185.33 187.474 187.136C187.474 188.942 188.664 190.006 190.064 190.006C191.464 190.006 192.668 188.956 192.668 187.15ZM201.723 191V186.66C201.723 185.092 200.869 184.294 199.581 184.294C198.279 184.294 197.383 185.106 197.383 186.758V191H196.109V183.328H197.383V184.42C197.887 183.622 198.811 183.188 199.847 183.188C201.625 183.188 202.983 184.28 202.983 186.478V191H201.723ZM205.064 191V183.328H206.338V191H205.064ZM205.722 182.082C205.232 182.082 204.854 181.704 204.854 181.214C204.854 180.724 205.232 180.346 205.722 180.346C206.184 180.346 206.562 180.724 206.562 181.214C206.562 181.704 206.184 182.082 205.722 182.082ZM214.124 191V186.66C214.124 185.092 213.27 184.294 211.982 184.294C210.68 184.294 209.784 185.106 209.784 186.758V191H208.51V183.328H209.784V184.42C210.288 183.622 211.212 183.188 212.248 183.188C214.026 183.188 215.384 184.28 215.384 186.478V191H214.124ZM216.989 187.136C216.989 184.742 218.571 183.202 220.629 183.202C222.029 183.202 223.037 183.902 223.485 184.728V183.328H224.773V191.168C224.773 193.282 223.359 194.78 221.105 194.78C219.089 194.78 217.647 193.758 217.395 192.12H218.655C218.935 193.044 219.845 193.674 221.105 193.674C222.463 193.674 223.485 192.806 223.485 191.168V189.558C223.023 190.384 222.029 191.126 220.629 191.126C218.571 191.126 216.989 189.516 216.989 187.136ZM223.485 187.15C223.485 185.372 222.281 184.308 220.881 184.308C219.481 184.308 218.291 185.33 218.291 187.136C218.291 188.942 219.481 190.006 220.881 190.006C222.281 190.006 223.485 188.956 223.485 187.15ZM23.358 208.9V204.378H22.364V203.328H23.358V201.396H24.632V203.328H26.634V204.378H24.632V208.9C24.632 209.656 24.912 209.922 25.696 209.922H26.634V211H25.486C24.128 211 23.358 210.44 23.358 208.9ZM28.1776 211V200.64H29.4516V204.434C29.9556 203.622 30.9076 203.188 31.9856 203.188C33.6936 203.188 35.0516 204.28 35.0516 206.478V211H33.7916V206.66C33.7916 205.092 32.9376 204.294 31.6496 204.294C30.3476 204.294 29.4516 205.106 29.4516 206.758V211H28.1776ZM40.3947 204.28C39.1487 204.28 38.1127 205.106 37.9727 206.604H42.8167C42.8307 205.106 41.7107 204.28 40.3947 204.28ZM43.9787 208.634C43.5867 210.034 42.3547 211.126 40.4507 211.126C38.2667 211.126 36.6567 209.586 36.6567 207.15C36.6567 204.728 38.2107 203.202 40.4507 203.202C42.6767 203.202 44.1327 204.77 44.1327 206.87C44.1327 207.15 44.1187 207.374 44.0907 207.64H37.9587C38.0567 209.194 39.1487 210.048 40.4507 210.048C41.5987 210.048 42.3267 209.46 42.6067 208.634H43.9787ZM55.0628 208.914C55.0628 210.174 53.9568 211.126 52.2628 211.126C50.4708 211.126 49.2108 210.146 49.1268 208.746H50.4428C50.5128 209.488 51.1708 210.048 52.2488 210.048C53.2568 210.048 53.8168 209.544 53.8168 208.914C53.8168 207.206 49.2808 208.2 49.2808 205.344C49.2808 204.168 50.3868 203.202 52.0948 203.202C53.7888 203.202 54.9088 204.112 54.9928 205.61H53.7188C53.6628 204.84 53.0748 204.28 52.0528 204.28C51.1148 204.28 50.5548 204.728 50.5548 205.344C50.5548 207.164 55.0068 206.17 55.0628 208.914ZM64.1412 207.15C64.1412 209.586 62.3912 211.126 60.2072 211.126C58.0372 211.126 56.3852 209.586 56.3852 207.15C56.3852 204.728 58.0932 203.202 60.2632 203.202C62.4472 203.202 64.1412 204.728 64.1412 207.15ZM57.6872 207.15C57.6872 209.096 58.8772 210.006 60.2072 210.006C61.5372 210.006 62.8392 209.096 62.8392 207.15C62.8392 205.218 61.5652 204.308 60.2492 204.308C58.9052 204.308 57.6872 205.218 57.6872 207.15ZM66.0543 211V204.378H65.0603V203.328H66.0543V202.782C66.0543 201.074 66.8943 200.304 68.8543 200.304V201.368C67.7063 201.368 67.3283 201.788 67.3283 202.782V203.328H68.9383V204.378H67.3283V211H66.0543ZM70.7037 208.9V204.378H69.7097V203.328H70.7037V201.396H71.9777V203.328H73.9797V204.378H71.9777V208.9C71.9777 209.656 72.2577 209.922 73.0417 209.922H73.9797V211H72.8317C71.4737 211 70.7037 210.44 70.7037 208.9ZM77.0213 211L74.6133 203.328H75.9153L77.6793 209.768L79.5833 203.328H80.8853L82.7473 209.782L84.4833 203.328H85.7433L83.3493 211H82.0333L80.1853 204.91L78.3373 211H77.0213ZM86.5317 207.136C86.5317 204.742 88.1137 203.202 90.1717 203.202C91.5997 203.202 92.5797 203.93 93.0277 204.728V203.328H94.3157V211H93.0277V209.572C92.5657 210.398 91.5717 211.126 90.1577 211.126C88.1137 211.126 86.5317 209.516 86.5317 207.136ZM93.0277 207.15C93.0277 205.372 91.8237 204.308 90.4237 204.308C89.0237 204.308 87.8337 205.33 87.8337 207.136C87.8337 208.942 89.0237 210.006 90.4237 210.006C91.8237 210.006 93.0277 208.956 93.0277 207.15ZM97.7426 206.828V211H96.4686V203.328H97.7426V204.574C98.1766 203.72 99.0026 203.188 100.221 203.188V204.504H99.8846C98.6666 204.504 97.7426 205.05 97.7426 206.828ZM104.953 204.28C103.707 204.28 102.671 205.106 102.531 206.604H107.375C107.389 205.106 106.269 204.28 104.953 204.28ZM108.537 208.634C108.145 210.034 106.913 211.126 105.009 211.126C102.825 211.126 101.215 209.586 101.215 207.15C101.215 204.728 102.769 203.202 105.009 203.202C107.235 203.202 108.691 204.77 108.691 206.87C108.691 207.15 108.677 207.374 108.649 207.64H102.517C102.615 209.194 103.707 210.048 105.009 210.048C106.157 210.048 106.885 209.46 107.165 208.634H108.537ZM114.105 211V203.328H115.379V211H114.105ZM114.763 202.082C114.273 202.082 113.895 201.704 113.895 201.214C113.895 200.724 114.273 200.346 114.763 200.346C115.225 200.346 115.603 200.724 115.603 201.214C115.603 201.704 115.225 202.082 114.763 202.082ZM123.165 211V206.66C123.165 205.092 122.311 204.294 121.023 204.294C119.721 204.294 118.825 205.106 118.825 206.758V211H117.551V203.328H118.825V204.42C119.329 203.622 120.253 203.188 121.289 203.188C123.067 203.188 124.425 204.28 124.425 206.478V211H123.165ZM126.786 208.9V204.378H125.792V203.328H126.786V201.396H128.06V203.328H130.062V204.378H128.06V208.9C128.06 209.656 128.34 209.922 129.124 209.922H130.062V211H128.914C127.556 211 126.786 210.44 126.786 208.9ZM134.867 204.28C133.621 204.28 132.585 205.106 132.445 206.604H137.289C137.303 205.106 136.183 204.28 134.867 204.28ZM138.451 208.634C138.059 210.034 136.827 211.126 134.923 211.126C132.739 211.126 131.129 209.586 131.129 207.15C131.129 204.728 132.683 203.202 134.923 203.202C137.149 203.202 138.605 204.77 138.605 206.87C138.605 207.15 138.591 207.374 138.563 207.64H132.431C132.529 209.194 133.621 210.048 134.923 210.048C136.071 210.048 136.799 209.46 137.079 208.634H138.451ZM141.561 206.828V211H140.287V203.328H141.561V204.574C141.995 203.72 142.821 203.188 144.039 203.188V204.504H143.703C142.485 204.504 141.561 205.05 141.561 206.828ZM145.748 211V204.378H144.754V203.328H145.748V202.782C145.748 201.074 146.588 200.304 148.548 200.304V201.368C147.4 201.368 147.022 201.788 147.022 202.782V203.328H148.632V204.378H147.022V211H145.748ZM149.641 207.136C149.641 204.742 151.223 203.202 153.281 203.202C154.709 203.202 155.689 203.93 156.137 204.728V203.328H157.425V211H156.137V209.572C155.675 210.398 154.681 211.126 153.267 211.126C151.223 211.126 149.641 209.516 149.641 207.136ZM156.137 207.15C156.137 205.372 154.933 204.308 153.533 204.308C152.133 204.308 150.943 205.33 150.943 207.136C150.943 208.942 152.133 210.006 153.533 210.006C154.933 210.006 156.137 208.956 156.137 207.15ZM159.102 207.15C159.102 204.742 160.656 203.202 162.84 203.202C164.744 203.202 165.99 204.182 166.382 205.792H165.01C164.744 204.868 163.974 204.28 162.84 204.28C161.44 204.28 160.404 205.274 160.404 207.15C160.404 209.054 161.44 210.048 162.84 210.048C163.974 210.048 164.73 209.502 165.01 208.536H166.382C165.99 210.062 164.744 211.126 162.84 211.126C160.656 211.126 159.102 209.586 159.102 207.15ZM171.344 204.28C170.098 204.28 169.062 205.106 168.922 206.604H173.766C173.78 205.106 172.66 204.28 171.344 204.28ZM174.928 208.634C174.536 210.034 173.304 211.126 171.4 211.126C169.216 211.126 167.606 209.586 167.606 207.15C167.606 204.728 169.16 203.202 171.4 203.202C173.626 203.202 175.082 204.77 175.082 206.87C175.082 207.15 175.068 207.374 175.04 207.64H168.908C169.006 209.194 170.098 210.048 171.4 210.048C172.548 210.048 173.276 209.46 173.556 208.634H174.928ZM178.01 210.216C178.01 210.706 177.632 211.084 177.17 211.084C176.68 211.084 176.302 210.706 176.302 210.216C176.302 209.726 176.68 209.348 177.17 209.348C177.632 209.348 178.01 209.726 178.01 210.216Z" fill="#4F668E"/>
</svg>
