<svg width="284" height="237" viewBox="0 0 284 237" fill="none" xmlns="http://www.w3.org/2000/svg">
<path d="M283.06 135.214C283.646 134.628 283.646 133.678 283.06 133.093L273.514 123.547C272.929 122.961 271.979 122.961 271.393 123.547C270.807 124.133 270.807 125.082 271.393 125.668L279.878 134.153L271.393 142.639C270.807 143.224 270.807 144.174 271.393 144.76C271.979 145.346 272.929 145.346 273.514 144.76L283.06 135.214ZM227.714 135.653L282 135.653V132.653L227.714 132.653V135.653Z" fill="#23D9AE"/>
<path d="M85.9328 33H30C14.536 33 2 45.536 2 61V207C2 222.464 14.536 235 30 235H201C216.464 235 229 222.464 229 207V134" stroke="#23D9AE" stroke-width="3"/>
<circle cx="73" cy="31" r="31" fill="#34B7F2"/>
<path d="M32.38 89.96V92.7H26.66V95.66H30.94V98.32H26.66V104H23.24V89.96H32.38ZM37.5975 94.7C37.9975 94.0867 38.4975 93.6067 39.0975 93.26C39.6975 92.9 40.3642 92.72 41.0975 92.72V96.34H40.1575C39.3042 96.34 38.6642 96.5267 38.2375 96.9C37.8108 97.26 37.5975 97.9 37.5975 98.82V104H34.1775V92.84H37.5975V94.7ZM47.8122 104.16C46.7189 104.16 45.7322 103.927 44.8522 103.46C43.9855 102.993 43.2989 102.327 42.7922 101.46C42.2989 100.593 42.0522 99.58 42.0522 98.42C42.0522 97.2733 42.3055 96.2667 42.8122 95.4C43.3189 94.52 44.0122 93.8467 44.8922 93.38C45.7722 92.9133 46.7589 92.68 47.8522 92.68C48.9455 92.68 49.9322 92.9133 50.8122 93.38C51.6922 93.8467 52.3855 94.52 52.8922 95.4C53.3989 96.2667 53.6522 97.2733 53.6522 98.42C53.6522 99.5667 53.3922 100.58 52.8722 101.46C52.3655 102.327 51.6655 102.993 50.7722 103.46C49.8922 103.927 48.9055 104.16 47.8122 104.16ZM47.8122 101.2C48.4655 101.2 49.0189 100.96 49.4722 100.48C49.9389 100 50.1722 99.3133 50.1722 98.42C50.1722 97.5267 49.9455 96.84 49.4922 96.36C49.0522 95.88 48.5055 95.64 47.8522 95.64C47.1855 95.64 46.6322 95.88 46.1922 96.36C45.7522 96.8267 45.5322 97.5133 45.5322 98.42C45.5322 99.3133 45.7455 100 46.1722 100.48C46.6122 100.96 47.1589 101.2 47.8122 101.2ZM62.2666 92.72C63.5732 92.72 64.6132 93.1467 65.3866 94C66.1732 94.84 66.5666 96 66.5666 97.48V104H63.1666V97.94C63.1666 97.1933 62.9732 96.6133 62.5866 96.2C62.1999 95.7867 61.6799 95.58 61.0266 95.58C60.3732 95.58 59.8532 95.7867 59.4666 96.2C59.0799 96.6133 58.8866 97.1933 58.8866 97.94V104H55.4666V92.84H58.8866V94.32C59.2332 93.8267 59.6999 93.44 60.2866 93.16C60.8732 92.8667 61.5332 92.72 62.2666 92.72ZM75.1631 101.1V104H73.4231C72.1831 104 71.2165 103.7 70.5231 103.1C69.8298 102.487 69.4831 101.493 69.4831 100.12V95.68H68.1231V92.84H69.4831V90.12H72.9031V92.84H75.1431V95.68H72.9031V100.16C72.9031 100.493 72.9831 100.733 73.1431 100.88C73.3031 101.027 73.5698 101.1 73.9431 101.1H75.1631ZM85.6681 95.56V98.4H76.8681V95.56H85.6681ZM99.1897 98.24C99.1897 98.56 99.1697 98.8933 99.1297 99.24H91.3897C91.443 99.9333 91.663 100.467 92.0497 100.84C92.4497 101.2 92.9364 101.38 93.5097 101.38C94.363 101.38 94.9564 101.02 95.2897 100.3H98.9297C98.743 101.033 98.403 101.693 97.9097 102.28C97.4297 102.867 96.823 103.327 96.0897 103.66C95.3564 103.993 94.5364 104.16 93.6297 104.16C92.5364 104.16 91.563 103.927 90.7097 103.46C89.8564 102.993 89.1897 102.327 88.7097 101.46C88.2297 100.593 87.9897 99.58 87.9897 98.42C87.9897 97.26 88.223 96.2467 88.6897 95.38C89.1697 94.5133 89.8364 93.8467 90.6897 93.38C91.543 92.9133 92.523 92.68 93.6297 92.68C94.7097 92.68 95.6697 92.9067 96.5097 93.36C97.3497 93.8133 98.003 94.46 98.4697 95.3C98.9497 96.14 99.1897 97.12 99.1897 98.24ZM95.6897 97.34C95.6897 96.7533 95.4897 96.2867 95.0897 95.94C94.6897 95.5933 94.1897 95.42 93.5897 95.42C93.0164 95.42 92.5297 95.5867 92.1297 95.92C91.743 96.2533 91.503 96.7267 91.4097 97.34H95.6897ZM107.794 92.72C109.101 92.72 110.141 93.1467 110.914 94C111.701 94.84 112.094 96 112.094 97.48V104H108.694V97.94C108.694 97.1933 108.501 96.6133 108.114 96.2C107.727 95.7867 107.207 95.58 106.554 95.58C105.901 95.58 105.381 95.7867 104.994 96.2C104.607 96.6133 104.414 97.1933 104.414 97.94V104H100.994V92.84H104.414V94.32C104.761 93.8267 105.227 93.44 105.814 93.16C106.401 92.8667 107.061 92.72 107.794 92.72ZM113.79 98.4C113.79 97.2533 114.004 96.2467 114.43 95.38C114.87 94.5133 115.464 93.8467 116.21 93.38C116.957 92.9133 117.79 92.68 118.71 92.68C119.444 92.68 120.11 92.8333 120.71 93.14C121.324 93.4467 121.804 93.86 122.15 94.38V89.2H125.57V104H122.15V102.4C121.83 102.933 121.37 103.36 120.77 103.68C120.184 104 119.497 104.16 118.71 104.16C117.79 104.16 116.957 103.927 116.21 103.46C115.464 102.98 114.87 102.307 114.43 101.44C114.004 100.56 113.79 99.5467 113.79 98.4ZM122.15 98.42C122.15 97.5667 121.91 96.8933 121.43 96.4C120.964 95.9067 120.39 95.66 119.71 95.66C119.03 95.66 118.45 95.9067 117.97 96.4C117.504 96.88 117.27 97.5467 117.27 98.4C117.27 99.2533 117.504 99.9333 117.97 100.44C118.45 100.933 119.03 101.18 119.71 101.18C120.39 101.18 120.964 100.933 121.43 100.44C121.91 99.9467 122.15 99.2733 122.15 98.42ZM131.703 96.96C131.703 95.5733 132.003 94.34 132.603 93.26C133.203 92.1667 134.036 91.32 135.103 90.72C136.183 90.1067 137.403 89.8 138.763 89.8C140.43 89.8 141.856 90.24 143.043 91.12C144.23 92 145.023 93.2 145.423 94.72H141.663C141.383 94.1333 140.983 93.6867 140.463 93.38C139.956 93.0733 139.376 92.92 138.723 92.92C137.67 92.92 136.816 93.2867 136.163 94.02C135.51 94.7533 135.183 95.7333 135.183 96.96C135.183 98.1867 135.51 99.1667 136.163 99.9C136.816 100.633 137.67 101 138.723 101C139.376 101 139.956 100.847 140.463 100.54C140.983 100.233 141.383 99.7867 141.663 99.2H145.423C145.023 100.72 144.23 101.92 143.043 102.8C141.856 103.667 140.43 104.1 138.763 104.1C137.403 104.1 136.183 103.8 135.103 103.2C134.036 102.587 133.203 101.74 132.603 100.66C132.003 99.58 131.703 98.3467 131.703 96.96ZM152.597 104.16C151.504 104.16 150.517 103.927 149.637 103.46C148.771 102.993 148.084 102.327 147.577 101.46C147.084 100.593 146.837 99.58 146.837 98.42C146.837 97.2733 147.091 96.2667 147.597 95.4C148.104 94.52 148.797 93.8467 149.677 93.38C150.557 92.9133 151.544 92.68 152.637 92.68C153.731 92.68 154.717 92.9133 155.597 93.38C156.477 93.8467 157.171 94.52 157.677 95.4C158.184 96.2667 158.437 97.2733 158.437 98.42C158.437 99.5667 158.177 100.58 157.657 101.46C157.151 102.327 156.451 102.993 155.557 103.46C154.677 103.927 153.691 104.16 152.597 104.16ZM152.597 101.2C153.251 101.2 153.804 100.96 154.257 100.48C154.724 100 154.957 99.3133 154.957 98.42C154.957 97.5267 154.731 96.84 154.277 96.36C153.837 95.88 153.291 95.64 152.637 95.64C151.971 95.64 151.417 95.88 150.977 96.36C150.537 96.8267 150.317 97.5133 150.317 98.42C150.317 99.3133 150.531 100 150.957 100.48C151.397 100.96 151.944 101.2 152.597 101.2ZM159.572 98.4C159.572 97.2533 159.785 96.2467 160.212 95.38C160.652 94.5133 161.245 93.8467 161.992 93.38C162.738 92.9133 163.572 92.68 164.492 92.68C165.225 92.68 165.892 92.8333 166.492 93.14C167.105 93.4467 167.585 93.86 167.932 94.38V89.2H171.352V104H167.932V102.4C167.612 102.933 167.152 103.36 166.552 103.68C165.965 104 165.278 104.16 164.492 104.16C163.572 104.16 162.738 103.927 161.992 103.46C161.245 102.98 160.652 102.307 160.212 101.44C159.785 100.56 159.572 99.5467 159.572 98.4ZM167.932 98.42C167.932 97.5667 167.692 96.8933 167.212 96.4C166.745 95.9067 166.172 95.66 165.492 95.66C164.812 95.66 164.232 95.9067 163.752 96.4C163.285 96.88 163.052 97.5467 163.052 98.4C163.052 99.2533 163.285 99.9333 163.752 100.44C164.232 100.933 164.812 101.18 165.492 101.18C166.172 101.18 166.745 100.933 167.212 100.44C167.692 99.9467 167.932 99.2733 167.932 98.42ZM175.546 91.68C174.946 91.68 174.453 91.5067 174.066 91.16C173.693 90.8 173.506 90.36 173.506 89.84C173.506 89.3067 173.693 88.8667 174.066 88.52C174.453 88.16 174.946 87.98 175.546 87.98C176.133 87.98 176.613 88.16 176.986 88.52C177.373 88.8667 177.566 89.3067 177.566 89.84C177.566 90.36 177.373 90.8 176.986 91.16C176.613 91.5067 176.133 91.68 175.546 91.68ZM177.246 92.84V104H173.826V92.84H177.246ZM186.524 92.72C187.831 92.72 188.871 93.1467 189.644 94C190.431 94.84 190.824 96 190.824 97.48V104H187.424V97.94C187.424 97.1933 187.231 96.6133 186.844 96.2C186.458 95.7867 185.938 95.58 185.284 95.58C184.631 95.58 184.111 95.7867 183.724 96.2C183.338 96.6133 183.144 97.1933 183.144 97.94V104H179.724V92.84H183.144V94.32C183.491 93.8267 183.958 93.44 184.544 93.16C185.131 92.8667 185.791 92.72 186.524 92.72ZM197.441 92.68C198.228 92.68 198.914 92.84 199.501 93.16C200.101 93.48 200.561 93.9 200.881 94.42V92.84H204.301V103.98C204.301 105.007 204.094 105.933 203.681 106.76C203.281 107.6 202.661 108.267 201.821 108.76C200.994 109.253 199.961 109.5 198.721 109.5C197.068 109.5 195.728 109.107 194.701 108.32C193.674 107.547 193.088 106.493 192.941 105.16H196.321C196.428 105.587 196.681 105.92 197.081 106.16C197.481 106.413 197.974 106.54 198.561 106.54C199.268 106.54 199.828 106.333 200.241 105.92C200.668 105.52 200.881 104.873 200.881 103.98V102.4C200.548 102.92 200.088 103.347 199.501 103.68C198.914 104 198.228 104.16 197.441 104.16C196.521 104.16 195.688 103.927 194.941 103.46C194.194 102.98 193.601 102.307 193.161 101.44C192.734 100.56 192.521 99.5467 192.521 98.4C192.521 97.2533 192.734 96.2467 193.161 95.38C193.601 94.5133 194.194 93.8467 194.941 93.38C195.688 92.9133 196.521 92.68 197.441 92.68ZM200.881 98.42C200.881 97.5667 200.641 96.8933 200.161 96.4C199.694 95.9067 199.121 95.66 198.441 95.66C197.761 95.66 197.181 95.9067 196.701 96.4C196.234 96.88 196.001 97.5467 196.001 98.4C196.001 99.2533 196.234 99.9333 196.701 100.44C197.181 100.933 197.761 101.18 198.441 101.18C199.121 101.18 199.694 100.933 200.161 100.44C200.641 99.9467 200.881 99.2733 200.881 98.42Z" fill="#336082"/>
<path d="M69.0303 30.7109V30.1299C70.292 29.7646 71.1663 29.4271 71.6533 29.1172C72.1403 28.7962 72.5609 28.3148 72.915 27.6729C73.2692 27.0199 73.4463 26.3613 73.4463 25.6973C73.4463 24.7786 73.1087 23.9928 72.4336 23.3398C71.7695 22.6758 70.9395 22.3438 69.9434 22.3438C68.3939 22.3438 67.0768 23.1628 65.9922 24.8008L65.3779 24.585C66.1748 22.7367 67.193 21.3477 68.4326 20.418C69.6833 19.4883 71.0723 19.0234 72.5996 19.0234C74.1602 19.0234 75.444 19.4993 76.4512 20.4512C77.4694 21.403 77.9785 22.5153 77.9785 23.7881C77.9785 24.6182 77.7406 25.4206 77.2646 26.1953C76.7998 26.959 76.0638 27.6341 75.0566 28.2207C76.3516 28.8516 77.3366 29.6318 78.0117 30.5615C78.6979 31.4801 79.041 32.6367 79.041 34.0312C79.041 36.3776 78.1888 38.3753 76.4844 40.0244C74.791 41.6624 72.5166 42.4814 69.6611 42.4814C67.7575 42.4814 66.3685 42.166 65.4941 41.5352C64.8633 41.0924 64.5479 40.5225 64.5479 39.8252C64.5479 39.3161 64.7305 38.8844 65.0957 38.5303C65.4609 38.165 65.8815 37.9824 66.3574 37.9824C66.7227 37.9824 67.0658 38.0599 67.3867 38.2148C67.5638 38.3034 68.1891 38.7904 69.2627 39.6758C70.3473 40.5501 71.36 40.9873 72.3008 40.9873C73.1198 40.9873 73.8226 40.6663 74.4092 40.0244C74.9958 39.3714 75.2891 38.5469 75.2891 37.5508C75.2891 36.0345 74.7578 34.64 73.6953 33.3672C72.6328 32.0833 71.0778 31.1979 69.0303 30.7109Z" fill="white"/>
<path d="M22.476 122.278V121.242H29.084V122.278H26.424V131H25.15V122.278H22.476ZM30.6522 131V120.64H31.9262V124.434C32.4302 123.622 33.3822 123.188 34.4602 123.188C36.1682 123.188 37.5262 124.28 37.5262 126.478V131H36.2662V126.66C36.2662 125.092 35.4122 124.294 34.1242 124.294C32.8222 124.294 31.9262 125.106 31.9262 126.758V131H30.6522ZM39.6073 131V123.328H40.8813V131H39.6073ZM40.2653 122.082C39.7753 122.082 39.3973 121.704 39.3973 121.214C39.3973 120.724 39.7753 120.346 40.2653 120.346C40.7273 120.346 41.1053 120.724 41.1053 121.214C41.1053 121.704 40.7273 122.082 40.2653 122.082ZM48.5686 128.914C48.5686 130.174 47.4626 131.126 45.7686 131.126C43.9766 131.126 42.7166 130.146 42.6326 128.746H43.9486C44.0186 129.488 44.6766 130.048 45.7546 130.048C46.7626 130.048 47.3226 129.544 47.3226 128.914C47.3226 127.206 42.7866 128.2 42.7866 125.344C42.7866 124.168 43.8926 123.202 45.6006 123.202C47.2946 123.202 48.4146 124.112 48.4986 125.61H47.2246C47.1686 124.84 46.5806 124.28 45.5586 124.28C44.6206 124.28 44.0606 124.728 44.0606 125.344C44.0606 127.164 48.5126 126.17 48.5686 128.914ZM59.6155 128.914C59.6155 130.174 58.5095 131.126 56.8155 131.126C55.0235 131.126 53.7635 130.146 53.6795 128.746H54.9955C55.0655 129.488 55.7235 130.048 56.8015 130.048C57.8095 130.048 58.3695 129.544 58.3695 128.914C58.3695 127.206 53.8335 128.2 53.8335 125.344C53.8335 124.168 54.9395 123.202 56.6475 123.202C58.3415 123.202 59.4615 124.112 59.5455 125.61H58.2715C58.2155 124.84 57.6275 124.28 56.6055 124.28C55.6675 124.28 55.1075 124.728 55.1075 125.344C55.1075 127.164 59.5595 126.17 59.6155 128.914ZM61.6939 128.9V124.378H60.6999V123.328H61.6939V121.396H62.9679V123.328H64.9699V124.378H62.9679V128.9C62.9679 129.656 63.2479 129.922 64.0319 129.922H64.9699V131H63.8219C62.4639 131 61.6939 130.44 61.6939 128.9ZM66.0375 127.136C66.0375 124.742 67.6195 123.202 69.6775 123.202C71.1055 123.202 72.0855 123.93 72.5335 124.728V123.328H73.8215V131H72.5335V129.572C72.0715 130.398 71.0775 131.126 69.6635 131.126C67.6195 131.126 66.0375 129.516 66.0375 127.136ZM72.5335 127.15C72.5335 125.372 71.3295 124.308 69.9295 124.308C68.5295 124.308 67.3395 125.33 67.3395 127.136C67.3395 128.942 68.5295 130.006 69.9295 130.006C71.3295 130.006 72.5335 128.956 72.5335 127.15ZM75.4985 127.136C75.4985 124.742 77.0805 123.202 79.1385 123.202C80.5385 123.202 81.5465 123.902 81.9945 124.728V123.328H83.2825V131.168C83.2825 133.282 81.8685 134.78 79.6145 134.78C77.5985 134.78 76.1565 133.758 75.9045 132.12H77.1645C77.4445 133.044 78.3545 133.674 79.6145 133.674C80.9725 133.674 81.9945 132.806 81.9945 131.168V129.558C81.5325 130.384 80.5385 131.126 79.1385 131.126C77.0805 131.126 75.4985 129.516 75.4985 127.136ZM81.9945 127.15C81.9945 125.372 80.7905 124.308 79.3905 124.308C77.9905 124.308 76.8005 125.33 76.8005 127.136C76.8005 128.942 77.9905 130.006 79.3905 130.006C80.7905 130.006 81.9945 128.956 81.9945 127.15ZM88.6974 124.28C87.4514 124.28 86.4154 125.106 86.2754 126.604H91.1194C91.1334 125.106 90.0134 124.28 88.6974 124.28ZM92.2814 128.634C91.8894 130.034 90.6574 131.126 88.7534 131.126C86.5694 131.126 84.9594 129.586 84.9594 127.15C84.9594 124.728 86.5134 123.202 88.7534 123.202C90.9794 123.202 92.4354 124.77 92.4354 126.87C92.4354 127.15 92.4214 127.374 92.3934 127.64H86.2614C86.3594 129.194 87.4514 130.048 88.7534 130.048C89.9014 130.048 90.6294 129.46 90.9094 128.634H92.2814ZM97.8495 131V123.328H99.1235V131H97.8495ZM98.5075 122.082C98.0175 122.082 97.6395 121.704 97.6395 121.214C97.6395 120.724 98.0175 120.346 98.5075 120.346C98.9695 120.346 99.3475 120.724 99.3475 121.214C99.3475 121.704 98.9695 122.082 98.5075 122.082ZM106.909 131V126.66C106.909 125.092 106.055 124.294 104.767 124.294C103.465 124.294 102.569 125.106 102.569 126.758V131H101.295V123.328H102.569V124.42C103.073 123.622 103.997 123.188 105.033 123.188C106.811 123.188 108.169 124.28 108.169 126.478V131H106.909ZM109.34 123.328H110.712L113.106 129.824L115.486 123.328H116.844L113.834 131H112.35L109.34 123.328ZM125.378 127.15C125.378 129.586 123.628 131.126 121.444 131.126C119.274 131.126 117.622 129.586 117.622 127.15C117.622 124.728 119.33 123.202 121.5 123.202C123.684 123.202 125.378 124.728 125.378 127.15ZM118.924 127.15C118.924 129.096 120.114 130.006 121.444 130.006C122.774 130.006 124.076 129.096 124.076 127.15C124.076 125.218 122.802 124.308 121.486 124.308C120.142 124.308 118.924 125.218 118.924 127.15ZM127.053 131V120.64H128.327V131H127.053ZM129.588 123.328H130.96L133.354 129.824L135.734 123.328H137.092L134.082 131H132.598L129.588 123.328ZM141.608 124.28C140.362 124.28 139.326 125.106 139.186 126.604H144.03C144.044 125.106 142.924 124.28 141.608 124.28ZM145.192 128.634C144.8 130.034 143.568 131.126 141.664 131.126C139.48 131.126 137.87 129.586 137.87 127.15C137.87 124.728 139.424 123.202 141.664 123.202C143.89 123.202 145.346 124.77 145.346 126.87C145.346 127.15 145.332 127.374 145.304 127.64H139.172C139.27 129.194 140.362 130.048 141.664 130.048C142.812 130.048 143.54 129.46 143.82 128.634H145.192ZM152.543 128.914C152.543 130.174 151.437 131.126 149.743 131.126C147.951 131.126 146.691 130.146 146.607 128.746H147.923C147.993 129.488 148.651 130.048 149.729 130.048C150.737 130.048 151.297 129.544 151.297 128.914C151.297 127.206 146.761 128.2 146.761 125.344C146.761 124.168 147.867 123.202 149.575 123.202C151.269 123.202 152.389 124.112 152.473 125.61H151.199C151.143 124.84 150.555 124.28 149.533 124.28C148.595 124.28 148.035 124.728 148.035 125.344C148.035 127.164 152.487 126.17 152.543 128.914ZM23.358 148.9V144.378H22.364V143.328H23.358V141.396H24.632V143.328H26.634V144.378H24.632V148.9C24.632 149.656 24.912 149.922 25.696 149.922H26.634V151H25.486C24.128 151 23.358 150.44 23.358 148.9ZM34.9816 143.328V151H33.7076V149.866C33.2176 150.664 32.2796 151.112 31.2576 151.112C29.4936 151.112 28.1076 150.02 28.1076 147.822V143.328H29.3676V147.654C29.3676 149.208 30.2216 150.006 31.5096 150.006C32.8256 150.006 33.7076 149.194 33.7076 147.542V143.328H34.9816ZM38.4067 146.828V151H37.1327V143.328H38.4067V144.574C38.8407 143.72 39.6667 143.188 40.8847 143.188V144.504H40.5487C39.3307 144.504 38.4067 145.05 38.4067 146.828ZM47.9693 151V146.66C47.9693 145.092 47.1153 144.294 45.8273 144.294C44.5253 144.294 43.6293 145.106 43.6293 146.758V151H42.3553V143.328H43.6293V144.42C44.1333 143.622 45.0573 143.188 46.0933 143.188C47.8713 143.188 49.2293 144.28 49.2293 146.478V151H47.9693ZM51.3104 151V143.328H52.5844V151H51.3104ZM51.9684 142.082C51.4784 142.082 51.1004 141.704 51.1004 141.214C51.1004 140.724 51.4784 140.346 51.9684 140.346C52.4304 140.346 52.8084 140.724 52.8084 141.214C52.8084 141.704 52.4304 142.082 51.9684 142.082ZM60.3697 151V146.66C60.3697 145.092 59.5157 144.294 58.2277 144.294C56.9257 144.294 56.0297 145.106 56.0297 146.758V151H54.7557V143.328H56.0297V144.42C56.5337 143.622 57.4577 143.188 58.4937 143.188C60.2717 143.188 61.6297 144.28 61.6297 146.478V151H60.3697ZM63.2348 147.136C63.2348 144.742 64.8168 143.202 66.8748 143.202C68.2748 143.202 69.2828 143.902 69.7308 144.728V143.328H71.0188V151.168C71.0188 153.282 69.6048 154.78 67.3508 154.78C65.3348 154.78 63.8928 153.758 63.6408 152.12H64.9008C65.1808 153.044 66.0908 153.674 67.3508 153.674C68.7088 153.674 69.7308 152.806 69.7308 151.168V149.558C69.2688 150.384 68.2748 151.126 66.8748 151.126C64.8168 151.126 63.2348 149.516 63.2348 147.136ZM69.7308 147.15C69.7308 145.372 68.5268 144.308 67.1268 144.308C65.7268 144.308 64.5368 145.33 64.5368 147.136C64.5368 148.942 65.7268 150.006 67.1268 150.006C68.5268 150.006 69.7308 148.956 69.7308 147.15ZM79.8162 149.544L82.1962 143.328H83.5122L78.8922 154.612H77.5762L79.0882 150.916L75.9942 143.328H77.4082L79.8162 149.544ZM92.0728 147.15C92.0728 149.586 90.3228 151.126 88.1388 151.126C85.9688 151.126 84.3168 149.586 84.3168 147.15C84.3168 144.728 86.0248 143.202 88.1948 143.202C90.3788 143.202 92.0728 144.728 92.0728 147.15ZM85.6188 147.15C85.6188 149.096 86.8088 150.006 88.1388 150.006C89.4688 150.006 90.7708 149.096 90.7708 147.15C90.7708 145.218 89.4968 144.308 88.1808 144.308C86.8368 144.308 85.6188 145.218 85.6188 147.15ZM100.552 143.328V151H99.2779V149.866C98.7879 150.664 97.8499 151.112 96.8279 151.112C95.0639 151.112 93.6779 150.02 93.6779 147.822V143.328H94.9379V147.654C94.9379 149.208 95.7919 150.006 97.0799 150.006C98.3959 150.006 99.2779 149.194 99.2779 147.542V143.328H100.552ZM103.977 146.828V151H102.703V143.328H103.977V144.574C104.411 143.72 105.237 143.188 106.455 143.188V144.504H106.119C104.901 144.504 103.977 145.05 103.977 146.828ZM111.182 147.136C111.182 144.742 112.764 143.202 114.836 143.202C116.04 143.202 117.146 143.818 117.678 144.7V140.64H118.966V151H117.678V149.558C117.216 150.412 116.222 151.126 114.822 151.126C112.764 151.126 111.182 149.516 111.182 147.136ZM117.678 147.15C117.678 145.372 116.474 144.308 115.074 144.308C113.674 144.308 112.484 145.33 112.484 147.136C112.484 148.942 113.674 150.006 115.074 150.006C116.474 150.006 117.678 148.956 117.678 147.15ZM124.381 144.28C123.135 144.28 122.099 145.106 121.959 146.604H126.803C126.817 145.106 125.697 144.28 124.381 144.28ZM127.965 148.634C127.573 150.034 126.341 151.126 124.437 151.126C122.253 151.126 120.643 149.586 120.643 147.15C120.643 144.728 122.197 143.202 124.437 143.202C126.663 143.202 128.119 144.77 128.119 146.87C128.119 147.15 128.105 147.374 128.077 147.64H121.945C122.043 149.194 123.135 150.048 124.437 150.048C125.585 150.048 126.313 149.46 126.593 148.634H127.965ZM135.317 148.914C135.317 150.174 134.211 151.126 132.517 151.126C130.725 151.126 129.465 150.146 129.381 148.746H130.697C130.767 149.488 131.425 150.048 132.503 150.048C133.511 150.048 134.071 149.544 134.071 148.914C134.071 147.206 129.535 148.2 129.535 145.344C129.535 144.168 130.641 143.202 132.349 143.202C134.043 143.202 135.163 144.112 135.247 145.61H133.973C133.917 144.84 133.329 144.28 132.307 144.28C131.369 144.28 130.809 144.728 130.809 145.344C130.809 147.164 135.261 146.17 135.317 148.914ZM137.115 151V143.328H138.389V151H137.115ZM137.773 142.082C137.283 142.082 136.905 141.704 136.905 141.214C136.905 140.724 137.283 140.346 137.773 140.346C138.235 140.346 138.613 140.724 138.613 141.214C138.613 141.704 138.235 142.082 137.773 142.082ZM140.084 147.136C140.084 144.742 141.666 143.202 143.724 143.202C145.124 143.202 146.132 143.902 146.58 144.728V143.328H147.868V151.168C147.868 153.282 146.454 154.78 144.2 154.78C142.184 154.78 140.742 153.758 140.49 152.12H141.75C142.03 153.044 142.94 153.674 144.2 153.674C145.558 153.674 146.58 152.806 146.58 151.168V149.558C146.118 150.384 145.124 151.126 143.724 151.126C141.666 151.126 140.084 149.516 140.084 147.136ZM146.58 147.15C146.58 145.372 145.376 144.308 143.976 144.308C142.576 144.308 141.386 145.33 141.386 147.136C141.386 148.942 142.576 150.006 143.976 150.006C145.376 150.006 146.58 148.956 146.58 147.15ZM155.635 151V146.66C155.635 145.092 154.781 144.294 153.493 144.294C152.191 144.294 151.295 145.106 151.295 146.758V151H150.021V143.328H151.295V144.42C151.799 143.622 152.723 143.188 153.759 143.188C155.537 143.188 156.895 144.28 156.895 146.478V151H155.635ZM162.709 151V143.328H163.983V151H162.709ZM163.367 142.082C162.877 142.082 162.499 141.704 162.499 141.214C162.499 140.724 162.877 140.346 163.367 140.346C163.829 140.346 164.207 140.724 164.207 141.214C164.207 141.704 163.829 142.082 163.367 142.082ZM171.768 151V146.66C171.768 145.092 170.914 144.294 169.626 144.294C168.324 144.294 167.428 145.106 167.428 146.758V151H166.154V143.328H167.428V144.42C167.932 143.622 168.856 143.188 169.892 143.188C171.67 143.188 173.028 144.28 173.028 146.478V151H171.768ZM175.389 148.9V144.378H174.395V143.328H175.389V141.396H176.663V143.328H178.665V144.378H176.663V148.9C176.663 149.656 176.943 149.922 177.727 149.922H178.665V151H177.517C176.159 151 175.389 150.44 175.389 148.9ZM187.489 147.15C187.489 149.586 185.739 151.126 183.555 151.126C181.385 151.126 179.733 149.586 179.733 147.15C179.733 144.728 181.441 143.202 183.611 143.202C185.795 143.202 187.489 144.728 187.489 147.15ZM181.035 147.15C181.035 149.096 182.225 150.006 183.555 150.006C184.885 150.006 186.187 149.096 186.187 147.15C186.187 145.218 184.913 144.308 183.597 144.308C182.253 144.308 181.035 145.218 181.035 147.15ZM22.602 167.15C22.602 164.742 24.156 163.202 26.34 163.202C28.244 163.202 29.49 164.182 29.882 165.792H28.51C28.244 164.868 27.474 164.28 26.34 164.28C24.94 164.28 23.904 165.274 23.904 167.15C23.904 169.054 24.94 170.048 26.34 170.048C27.474 170.048 28.23 169.502 28.51 168.536H29.882C29.49 170.062 28.244 171.126 26.34 171.126C24.156 171.126 22.602 169.586 22.602 167.15ZM38.8619 167.15C38.8619 169.586 37.1119 171.126 34.9279 171.126C32.7579 171.126 31.1059 169.586 31.1059 167.15C31.1059 164.728 32.8139 163.202 34.9839 163.202C37.1679 163.202 38.8619 164.728 38.8619 167.15ZM32.4079 167.15C32.4079 169.096 33.5979 170.006 34.9279 170.006C36.2579 170.006 37.5599 169.096 37.5599 167.15C37.5599 165.218 36.2859 164.308 34.9699 164.308C33.6259 164.308 32.4079 165.218 32.4079 167.15ZM40.061 167.136C40.061 164.742 41.643 163.202 43.715 163.202C44.919 163.202 46.025 163.818 46.557 164.7V160.64H47.845V171H46.557V169.558C46.095 170.412 45.101 171.126 43.701 171.126C41.643 171.126 40.061 169.516 40.061 167.136ZM46.557 167.15C46.557 165.372 45.353 164.308 43.953 164.308C42.553 164.308 41.363 165.33 41.363 167.136C41.363 168.942 42.553 170.006 43.953 170.006C45.353 170.006 46.557 168.956 46.557 167.15ZM53.2599 164.28C52.0139 164.28 50.9779 165.106 50.8379 166.604H55.6819C55.6959 165.106 54.5759 164.28 53.2599 164.28ZM56.8439 168.634C56.4519 170.034 55.2199 171.126 53.3159 171.126C51.1319 171.126 49.5219 169.586 49.5219 167.15C49.5219 164.728 51.0759 163.202 53.3159 163.202C55.5419 163.202 56.9979 164.77 56.9979 166.87C56.9979 167.15 56.9839 167.374 56.9559 167.64H50.8239C50.9219 169.194 52.0139 170.048 53.3159 170.048C54.4639 170.048 55.1919 169.46 55.4719 168.634H56.8439ZM59.9256 170.216C59.9256 170.706 59.5476 171.084 59.0856 171.084C58.5956 171.084 58.2176 170.706 58.2176 170.216C58.2176 169.726 58.5956 169.348 59.0856 169.348C59.5476 169.348 59.9256 169.726 59.9256 170.216ZM74.6754 166.114C74.6754 169.04 72.5334 171.098 69.7754 171.098C67.0314 171.098 64.8754 169.04 64.8754 166.114C64.8754 163.188 67.0314 161.13 69.7754 161.13C72.5334 161.13 74.6754 163.188 74.6754 166.114ZM66.1774 166.114C66.1774 168.494 67.7174 169.992 69.7754 169.992C71.8334 169.992 73.3734 168.494 73.3734 166.114C73.3734 163.72 71.8334 162.236 69.7754 162.236C67.7174 162.236 66.1774 163.72 66.1774 166.114ZM81.9713 171V166.66C81.9713 165.092 81.1173 164.294 79.8293 164.294C78.5273 164.294 77.6313 165.106 77.6313 166.758V171H76.3573V163.328H77.6313V164.42C78.1353 163.622 79.0593 163.188 80.0953 163.188C81.8733 163.188 83.2313 164.28 83.2313 166.478V171H81.9713ZM84.8364 167.15C84.8364 164.742 86.3904 163.202 88.5744 163.202C90.4784 163.202 91.7244 164.182 92.1164 165.792H90.7444C90.4784 164.868 89.7084 164.28 88.5744 164.28C87.1744 164.28 86.1384 165.274 86.1384 167.15C86.1384 169.054 87.1744 170.048 88.5744 170.048C89.7084 170.048 90.4644 169.502 90.7444 168.536H92.1164C91.7244 170.062 90.4784 171.126 88.5744 171.126C86.3904 171.126 84.8364 169.586 84.8364 167.15ZM97.0783 164.28C95.8323 164.28 94.7963 165.106 94.6563 166.604H99.5003C99.5143 165.106 98.3943 164.28 97.0783 164.28ZM100.662 168.634C100.27 170.034 99.0383 171.126 97.1343 171.126C94.9503 171.126 93.3403 169.586 93.3403 167.15C93.3403 164.728 94.8943 163.202 97.1343 163.202C99.3603 163.202 100.816 164.77 100.816 166.87C100.816 167.15 100.802 167.374 100.774 167.64H94.6423C94.7403 169.194 95.8323 170.048 97.1343 170.048C98.2823 170.048 99.0103 169.46 99.2903 168.634H100.662ZM107.728 171L105.32 163.328H106.622L108.386 169.768L110.29 163.328H111.592L113.454 169.782L115.19 163.328H116.45L114.056 171H112.74L110.892 164.91L109.044 171H107.728ZM120.977 164.28C119.731 164.28 118.695 165.106 118.555 166.604H123.399C123.413 165.106 122.293 164.28 120.977 164.28ZM124.561 168.634C124.169 170.034 122.937 171.126 121.033 171.126C118.849 171.126 117.239 169.586 117.239 167.15C117.239 164.728 118.793 163.202 121.033 163.202C123.259 163.202 124.715 164.77 124.715 166.87C124.715 167.15 124.701 167.374 124.673 167.64H118.541C118.639 169.194 119.731 170.048 121.033 170.048C122.181 170.048 122.909 169.46 123.189 168.634H124.561ZM125.99 162.642L125.808 159.856H127.04L126.872 162.642H125.99ZM127.715 163.328H129.087L131.481 169.824L133.861 163.328H135.219L132.209 171H130.725L127.715 163.328ZM139.735 164.28C138.489 164.28 137.453 165.106 137.313 166.604H142.157C142.171 165.106 141.051 164.28 139.735 164.28ZM143.319 168.634C142.927 170.034 141.695 171.126 139.791 171.126C137.607 171.126 135.997 169.586 135.997 167.15C135.997 164.728 137.551 163.202 139.791 163.202C142.017 163.202 143.473 164.77 143.473 166.87C143.473 167.15 143.459 167.374 143.431 167.64H137.299C137.397 169.194 138.489 170.048 139.791 170.048C140.939 170.048 141.667 169.46 141.947 168.634H143.319ZM148.411 167.15C148.411 164.742 149.965 163.202 152.149 163.202C154.053 163.202 155.299 164.182 155.691 165.792H154.319C154.053 164.868 153.283 164.28 152.149 164.28C150.749 164.28 149.713 165.274 149.713 167.15C149.713 169.054 150.749 170.048 152.149 170.048C153.283 170.048 154.039 169.502 154.319 168.536H155.691C155.299 170.062 154.053 171.126 152.149 171.126C149.965 171.126 148.411 169.586 148.411 167.15ZM164.671 167.15C164.671 169.586 162.921 171.126 160.737 171.126C158.567 171.126 156.915 169.586 156.915 167.15C156.915 164.728 158.623 163.202 160.793 163.202C162.977 163.202 164.671 164.728 164.671 167.15ZM158.217 167.15C158.217 169.096 159.407 170.006 160.737 170.006C162.067 170.006 163.369 169.096 163.369 167.15C163.369 165.218 162.095 164.308 160.779 164.308C159.435 164.308 158.217 165.218 158.217 167.15ZM165.87 167.136C165.87 164.742 167.452 163.202 169.524 163.202C170.728 163.202 171.834 163.818 172.366 164.7V160.64H173.654V171H172.366V169.558C171.904 170.412 170.91 171.126 169.51 171.126C167.452 171.126 165.87 169.516 165.87 167.136ZM172.366 167.15C172.366 165.372 171.162 164.308 169.762 164.308C168.362 164.308 167.172 165.33 167.172 167.136C167.172 168.942 168.362 170.006 169.762 170.006C171.162 170.006 172.366 168.956 172.366 167.15ZM179.069 164.28C177.823 164.28 176.787 165.106 176.647 166.604H181.491C181.505 165.106 180.385 164.28 179.069 164.28ZM182.653 168.634C182.261 170.034 181.029 171.126 179.125 171.126C176.941 171.126 175.331 169.586 175.331 167.15C175.331 164.728 176.885 163.202 179.125 163.202C181.351 163.202 182.807 164.77 182.807 166.87C182.807 167.15 182.793 167.374 182.765 167.64H176.633C176.731 169.194 177.823 170.048 179.125 170.048C180.273 170.048 181.001 169.46 181.281 168.634H182.653ZM184.012 167.136C184.012 164.742 185.594 163.202 187.666 163.202C188.87 163.202 189.976 163.818 190.508 164.7V160.64H191.796V171H190.508V169.558C190.046 170.412 189.052 171.126 187.652 171.126C185.594 171.126 184.012 169.516 184.012 167.136ZM190.508 167.15C190.508 165.372 189.304 164.308 187.904 164.308C186.504 164.308 185.314 165.33 185.314 167.136C185.314 168.942 186.504 170.006 187.904 170.006C189.304 170.006 190.508 168.956 190.508 167.15ZM23.358 188.9V184.378H22.364V183.328H23.358V181.396H24.632V183.328H26.634V184.378H24.632V188.9C24.632 189.656 24.912 189.922 25.696 189.922H26.634V191H25.486C24.128 191 23.358 190.44 23.358 188.9ZM28.1776 191V180.64H29.4516V184.434C29.9556 183.622 30.9076 183.188 31.9856 183.188C33.6936 183.188 35.0516 184.28 35.0516 186.478V191H33.7916V186.66C33.7916 185.092 32.9376 184.294 31.6496 184.294C30.3476 184.294 29.4516 185.106 29.4516 186.758V191H28.1776ZM40.3947 184.28C39.1487 184.28 38.1127 185.106 37.9727 186.604H42.8167C42.8307 185.106 41.7107 184.28 40.3947 184.28ZM43.9787 188.634C43.5867 190.034 42.3547 191.126 40.4507 191.126C38.2667 191.126 36.6567 189.586 36.6567 187.15C36.6567 184.728 38.2107 183.202 40.4507 183.202C42.6767 183.202 44.1327 184.77 44.1327 186.87C44.1327 187.15 44.1187 187.374 44.0907 187.64H37.9587C38.0567 189.194 39.1487 190.048 40.4507 190.048C41.5987 190.048 42.3267 189.46 42.6067 188.634H43.9787ZM49.7848 191V184.378H48.7908V183.328H49.7848V182.782C49.7848 181.074 50.6248 180.304 52.5847 180.304V181.368C51.4368 181.368 51.0588 181.788 51.0588 182.782V183.328H52.6688V184.378H51.0588V191H49.7848ZM55.4282 186.828V191H54.1542V183.328H55.4282V184.574C55.8622 183.72 56.6882 183.188 57.9062 183.188V184.504H57.5702C56.3522 184.504 55.4282 185.05 55.4282 186.828ZM66.6568 187.15C66.6568 189.586 64.9068 191.126 62.7228 191.126C60.5528 191.126 58.9008 189.586 58.9008 187.15C58.9008 184.728 60.6088 183.202 62.7788 183.202C64.9628 183.202 66.6568 184.728 66.6568 187.15ZM60.2028 187.15C60.2028 189.096 61.3928 190.006 62.7228 190.006C64.0528 190.006 65.3548 189.096 65.3548 187.15C65.3548 185.218 64.0808 184.308 62.7648 184.308C61.4208 184.308 60.2028 185.218 60.2028 187.15ZM73.9459 191V186.66C73.9459 185.092 73.0919 184.294 71.8039 184.294C70.5019 184.294 69.6059 185.106 69.6059 186.758V191H68.3319V183.328H69.6059V184.42C70.1099 183.622 71.0339 183.188 72.0699 183.188C73.8479 183.188 75.2059 184.28 75.2059 186.478V191H73.9459ZM77.567 188.9V184.378H76.573V183.328H77.567V181.396H78.841V183.328H80.843V184.378H78.841V188.9C78.841 189.656 79.121 189.922 79.905 189.922H80.843V191H79.695C78.337 191 77.567 190.44 77.567 188.9ZM89.381 184.28C88.135 184.28 87.099 185.106 86.959 186.604H91.803C91.817 185.106 90.697 184.28 89.381 184.28ZM92.965 188.634C92.573 190.034 91.341 191.126 89.437 191.126C87.253 191.126 85.643 189.586 85.643 187.15C85.643 184.728 87.197 183.202 89.437 183.202C91.663 183.202 93.119 184.77 93.119 186.87C93.119 187.15 93.105 187.374 93.077 187.64H86.945C87.043 189.194 88.135 190.048 89.437 190.048C90.585 190.048 91.313 189.46 91.593 188.634H92.965ZM100.415 191V186.66C100.415 185.092 99.5607 184.294 98.2727 184.294C96.9707 184.294 96.0747 185.106 96.0747 186.758V191H94.8007V183.328H96.0747V184.42C96.5787 183.622 97.5027 183.188 98.5387 183.188C100.317 183.188 101.675 184.28 101.675 186.478V191H100.415ZM103.28 187.136C103.28 184.742 104.862 183.202 106.934 183.202C108.138 183.202 109.244 183.818 109.776 184.7V180.64H111.064V191H109.776V189.558C109.314 190.412 108.32 191.126 106.92 191.126C104.862 191.126 103.28 189.516 103.28 187.136ZM109.776 187.15C109.776 185.372 108.572 184.308 107.172 184.308C105.772 184.308 104.582 185.33 104.582 187.136C104.582 188.942 105.772 190.006 107.172 190.006C108.572 190.006 109.776 188.956 109.776 187.15ZM112.111 193.002L113.133 189.236H114.533L112.965 193.002H112.111ZM122.636 189.544L125.016 183.328H126.332L121.712 194.612H120.396L121.908 190.916L118.814 183.328H120.228L122.636 189.544ZM134.893 187.15C134.893 189.586 133.143 191.126 130.959 191.126C128.789 191.126 127.137 189.586 127.137 187.15C127.137 184.728 128.845 183.202 131.015 183.202C133.199 183.202 134.893 184.728 134.893 187.15ZM128.439 187.15C128.439 189.096 129.629 190.006 130.959 190.006C132.289 190.006 133.591 189.096 133.591 187.15C133.591 185.218 132.317 184.308 131.001 184.308C129.657 184.308 128.439 185.218 128.439 187.15ZM143.372 183.328V191H142.098V189.866C141.608 190.664 140.67 191.112 139.648 191.112C137.884 191.112 136.498 190.02 136.498 187.822V183.328H137.758V187.654C137.758 189.208 138.612 190.006 139.9 190.006C141.216 190.006 142.098 189.194 142.098 187.542V183.328H143.372ZM145.117 182.642L144.935 179.856H146.167L145.999 182.642H145.117ZM147.752 191V180.64H149.026V191H147.752ZM151.197 191V180.64H152.471V191H151.197ZM159.649 186.828V191H158.375V183.328H159.649V184.574C160.083 183.72 160.909 183.188 162.127 183.188V184.504H161.791C160.573 184.504 159.649 185.05 159.649 186.828ZM166.86 184.28C165.614 184.28 164.578 185.106 164.438 186.604H169.282C169.296 185.106 168.176 184.28 166.86 184.28ZM170.444 188.634C170.052 190.034 168.82 191.126 166.916 191.126C164.732 191.126 163.122 189.586 163.122 187.15C163.122 184.728 164.676 183.202 166.916 183.202C169.142 183.202 170.598 184.77 170.598 186.87C170.598 187.15 170.584 187.374 170.556 187.64H164.424C164.522 189.194 165.614 190.048 166.916 190.048C168.064 190.048 168.792 189.46 169.072 188.634H170.444ZM171.803 187.15C171.803 184.742 173.357 183.202 175.541 183.202C177.445 183.202 178.691 184.182 179.083 185.792H177.711C177.445 184.868 176.675 184.28 175.541 184.28C174.141 184.28 173.105 185.274 173.105 187.15C173.105 189.054 174.141 190.048 175.541 190.048C176.675 190.048 177.431 189.502 177.711 188.536H179.083C178.691 190.062 177.445 191.126 175.541 191.126C173.357 191.126 171.803 189.586 171.803 187.15ZM184.045 184.28C182.799 184.28 181.763 185.106 181.623 186.604H186.467C186.481 185.106 185.361 184.28 184.045 184.28ZM187.629 188.634C187.237 190.034 186.005 191.126 184.101 191.126C181.917 191.126 180.307 189.586 180.307 187.15C180.307 184.728 181.861 183.202 184.101 183.202C186.327 183.202 187.783 184.77 187.783 186.87C187.783 187.15 187.769 187.374 187.741 187.64H181.609C181.707 189.194 182.799 190.048 184.101 190.048C185.249 190.048 185.977 189.46 186.257 188.634H187.629ZM189.465 191V183.328H190.739V191H189.465ZM190.123 182.082C189.633 182.082 189.255 181.704 189.255 181.214C189.255 180.724 189.633 180.346 190.123 180.346C190.585 180.346 190.963 180.724 190.963 181.214C190.963 181.704 190.585 182.082 190.123 182.082ZM192 183.328H193.372L195.766 189.824L198.146 183.328H199.504L196.494 191H195.01L192 183.328ZM204.02 184.28C202.774 184.28 201.738 185.106 201.598 186.604H206.442C206.456 185.106 205.336 184.28 204.02 184.28ZM207.604 188.634C207.212 190.034 205.98 191.126 204.076 191.126C201.892 191.126 200.282 189.586 200.282 187.15C200.282 184.728 201.836 183.202 204.076 183.202C206.302 183.202 207.758 184.77 207.758 186.87C207.758 187.15 207.744 187.374 207.716 187.64H201.584C201.682 189.194 202.774 190.048 204.076 190.048C205.224 190.048 205.952 189.46 206.232 188.634H207.604ZM22.602 207.136C22.602 204.742 24.184 203.202 26.242 203.202C27.67 203.202 28.65 203.93 29.098 204.728V203.328H30.386V211H29.098V209.572C28.636 210.398 27.642 211.126 26.228 211.126C24.184 211.126 22.602 209.516 22.602 207.136ZM29.098 207.15C29.098 205.372 27.894 204.308 26.494 204.308C25.094 204.308 23.904 205.33 23.904 207.136C23.904 208.942 25.094 210.006 26.494 210.006C27.894 210.006 29.098 208.956 29.098 207.15ZM38.1529 211V206.66C38.1529 205.092 37.2989 204.294 36.0109 204.294C34.7089 204.294 33.8129 205.106 33.8129 206.758V211H32.5389V203.328H33.8129V204.42C34.3169 203.622 35.2409 203.188 36.2769 203.188C38.0549 203.188 39.4129 204.28 39.4129 206.478V211H38.1529ZM45.2264 211V203.328H46.5004V211H45.2264ZM45.8844 202.082C45.3944 202.082 45.0164 201.704 45.0164 201.214C45.0164 200.724 45.3944 200.346 45.8844 200.346C46.3464 200.346 46.7244 200.724 46.7244 201.214C46.7244 201.704 46.3464 202.082 45.8844 202.082ZM54.2858 211V206.66C54.2858 205.092 53.4318 204.294 52.1438 204.294C50.8418 204.294 49.9458 205.106 49.9458 206.758V211H48.6718V203.328H49.9458V204.42C50.4498 203.622 51.3738 203.188 52.4098 203.188C54.1878 203.188 55.5458 204.28 55.5458 206.478V211H54.2858ZM56.7168 203.328H58.0888L60.4828 209.824L62.8628 203.328H64.2208L61.2108 211H59.7268L56.7168 203.328ZM65.4745 211V203.328H66.7485V211H65.4745ZM66.1325 202.082C65.6425 202.082 65.2645 201.704 65.2645 201.214C65.2645 200.724 65.6425 200.346 66.1325 200.346C66.5945 200.346 66.9725 200.724 66.9725 201.214C66.9725 201.704 66.5945 202.082 66.1325 202.082ZM69.1998 208.9V204.378H68.2058V203.328H69.1998V201.396H70.4738V203.328H72.4758V204.378H70.4738V208.9C70.4738 209.656 70.7538 209.922 71.5378 209.922H72.4758V211H71.3278C69.9698 211 69.1998 210.44 69.1998 208.9ZM77.2814 204.28C76.0354 204.28 74.9994 205.106 74.8594 206.604H79.7034C79.7174 205.106 78.5974 204.28 77.2814 204.28ZM80.8654 208.634C80.4734 210.034 79.2414 211.126 77.3374 211.126C75.1534 211.126 73.5434 209.586 73.5434 207.15C73.5434 204.728 75.0974 203.202 77.3374 203.202C79.5634 203.202 81.0194 204.77 81.0194 206.87C81.0194 207.15 81.0054 207.374 80.9774 207.64H74.8454C74.9434 209.194 76.0354 210.048 77.3374 210.048C78.4854 210.048 79.2134 209.46 79.4934 208.634H80.8654ZM86.7135 208.9V204.378H85.7195V203.328H86.7135V201.396H87.9875V203.328H89.9895V204.378H87.9875V208.9C87.9875 209.656 88.2675 209.922 89.0515 209.922H89.9895V211H88.8415C87.4835 211 86.7135 210.44 86.7135 208.9ZM98.8131 207.15C98.8131 209.586 97.0631 211.126 94.8791 211.126C92.7091 211.126 91.0571 209.586 91.0571 207.15C91.0571 204.728 92.7651 203.202 94.9351 203.202C97.1191 203.202 98.8131 204.728 98.8131 207.15ZM92.3591 207.15C92.3591 209.096 93.5491 210.006 94.8791 210.006C96.2091 210.006 97.5111 209.096 97.5111 207.15C97.5111 205.218 96.2371 204.308 94.9211 204.308C93.5771 204.308 92.3591 205.218 92.3591 207.15ZM105.495 206.828V211H104.221V203.328H105.495V204.574C105.929 203.72 106.755 203.188 107.973 203.188V204.504H107.637C106.419 204.504 105.495 205.05 105.495 206.828ZM112.705 204.28C111.459 204.28 110.423 205.106 110.283 206.604H115.127C115.141 205.106 114.021 204.28 112.705 204.28ZM116.289 208.634C115.897 210.034 114.665 211.126 112.761 211.126C110.577 211.126 108.967 209.586 108.967 207.15C108.967 204.728 110.521 203.202 112.761 203.202C114.987 203.202 116.443 204.77 116.443 206.87C116.443 207.15 116.429 207.374 116.401 207.64H110.269C110.367 209.194 111.459 210.048 112.761 210.048C113.909 210.048 114.637 209.46 114.917 208.634H116.289ZM117.215 203.328H118.587L120.981 209.824L123.361 203.328H124.719L121.709 211H120.225L117.215 203.328ZM125.973 211V203.328H127.247V211H125.973ZM126.631 202.082C126.141 202.082 125.763 201.704 125.763 201.214C125.763 200.724 126.141 200.346 126.631 200.346C127.093 200.346 127.471 200.724 127.471 201.214C127.471 201.704 127.093 202.082 126.631 202.082ZM132.68 204.28C131.434 204.28 130.398 205.106 130.258 206.604H135.102C135.116 205.106 133.996 204.28 132.68 204.28ZM136.264 208.634C135.872 210.034 134.64 211.126 132.736 211.126C130.552 211.126 128.942 209.586 128.942 207.15C128.942 204.728 130.496 203.202 132.736 203.202C134.962 203.202 136.418 204.77 136.418 206.87C136.418 207.15 136.404 207.374 136.376 207.64H130.244C130.342 209.194 131.434 210.048 132.736 210.048C133.884 210.048 134.612 209.46 134.892 208.634H136.264ZM139.597 211L137.189 203.328H138.491L140.255 209.768L142.159 203.328H143.461L145.323 209.782L147.059 203.328H148.319L145.925 211H144.609L142.761 204.91L140.913 211H139.597ZM153.316 211V203.328H154.59V211H153.316ZM153.974 202.082C153.484 202.082 153.106 201.704 153.106 201.214C153.106 200.724 153.484 200.346 153.974 200.346C154.436 200.346 154.814 200.724 154.814 201.214C154.814 201.704 154.436 202.082 153.974 202.082ZM157.042 208.9V204.378H156.048V203.328H157.042V201.396H158.316V203.328H160.318V204.378H158.316V208.9C158.316 209.656 158.596 209.922 159.38 209.922H160.318V211H159.17C157.812 211 157.042 210.44 157.042 208.9ZM163.107 210.216C163.107 210.706 162.729 211.084 162.267 211.084C161.777 211.084 161.399 210.706 161.399 210.216C161.399 209.726 161.777 209.348 162.267 209.348C162.729 209.348 163.107 209.726 163.107 210.216Z" fill="#4F668E"/>
</svg>
