<svg width="240" height="301" viewBox="0 0 240 301" fill="none" xmlns="http://www.w3.org/2000/svg">
<path d="M227.64 299.061C228.225 299.647 229.175 299.647 229.761 299.061L239.307 289.515C239.893 288.929 239.893 287.979 239.307 287.394C238.721 286.808 237.771 286.808 237.185 287.394L228.7 295.879L220.215 287.394C219.629 286.808 218.679 286.808 218.094 287.394C217.508 287.979 217.508 288.929 218.094 289.515L227.64 299.061ZM227.2 259.246V298H230.2V259.246H227.2Z" fill="#23D9AE"/>
<path d="M85.9328 33H30C14.536 33 2 45.536 2 61V207.558C2 223.022 14.536 235.558 30 235.558H201C216.464 235.558 229 248.094 229 263.558V301" stroke="#23D9AE" stroke-width="3"/>
<circle cx="73" cy="31" r="31" fill="#34B7F2"/>
<path d="M32.38 89.96V92.7H26.66V95.66H30.94V98.32H26.66V104H23.24V89.96H32.38ZM45.1975 92.84V104H41.7775V102.48C41.4308 102.973 40.9575 103.373 40.3575 103.68C39.7708 103.973 39.1175 104.12 38.3975 104.12C37.5442 104.12 36.7908 103.933 36.1375 103.56C35.4842 103.173 34.9775 102.62 34.6175 101.9C34.2575 101.18 34.0775 100.333 34.0775 99.36V92.84H37.4775V98.9C37.4775 99.6467 37.6708 100.227 38.0575 100.64C38.4442 101.053 38.9642 101.26 39.6175 101.26C40.2842 101.26 40.8108 101.053 41.1975 100.64C41.5842 100.227 41.7775 99.6467 41.7775 98.9V92.84H45.1975ZM54.4541 92.72C55.7607 92.72 56.8007 93.1467 57.5741 94C58.3607 94.84 58.7541 96 58.7541 97.48V104H55.3541V97.94C55.3541 97.1933 55.1607 96.6133 54.7741 96.2C54.3874 95.7867 53.8674 95.58 53.2141 95.58C52.5607 95.58 52.0407 95.7867 51.6541 96.2C51.2674 96.6133 51.0741 97.1933 51.0741 97.94V104H47.6541V92.84H51.0741V94.32C51.4207 93.8267 51.8874 93.44 52.4741 93.16C53.0607 92.8667 53.7207 92.72 54.4541 92.72ZM60.4506 98.42C60.4506 97.26 60.684 96.2467 61.1506 95.38C61.6306 94.5133 62.2906 93.8467 63.1306 93.38C63.984 92.9133 64.9573 92.68 66.0506 92.68C67.4506 92.68 68.6173 93.0467 69.5506 93.78C70.4973 94.5133 71.1173 95.5467 71.4106 96.88H67.7706C67.464 96.0267 66.8706 95.6 65.9906 95.6C65.364 95.6 64.864 95.8467 64.4906 96.34C64.1173 96.82 63.9306 97.5133 63.9306 98.42C63.9306 99.3267 64.1173 100.027 64.4906 100.52C64.864 101 65.364 101.24 65.9906 101.24C66.8706 101.24 67.464 100.813 67.7706 99.96H71.4106C71.1173 101.267 70.4973 102.293 69.5506 103.04C68.604 103.787 67.4373 104.16 66.0506 104.16C64.9573 104.16 63.984 103.927 63.1306 103.46C62.2906 102.993 61.6306 102.327 61.1506 101.46C60.684 100.593 60.4506 99.58 60.4506 98.42ZM79.46 101.1V104H77.72C76.48 104 75.5133 103.7 74.82 103.1C74.1267 102.487 73.78 101.493 73.78 100.12V95.68H72.42V92.84H73.78V90.12H77.2V92.84H79.44V95.68H77.2V100.16C77.2 100.493 77.28 100.733 77.44 100.88C77.6 101.027 77.8667 101.1 78.24 101.1H79.46ZM83.085 91.68C82.485 91.68 81.9917 91.5067 81.605 91.16C81.2317 90.8 81.045 90.36 81.045 89.84C81.045 89.3067 81.2317 88.8667 81.605 88.52C81.9917 88.16 82.485 87.98 83.085 87.98C83.6717 87.98 84.1517 88.16 84.525 88.52C84.9117 88.8667 85.105 89.3067 85.105 89.84C85.105 90.36 84.9117 90.8 84.525 91.16C84.1517 91.5067 83.6717 91.68 83.085 91.68ZM84.785 92.84V104H81.365V92.84H84.785ZM92.3434 104.16C91.2501 104.16 90.2634 103.927 89.3834 103.46C88.5168 102.993 87.8301 102.327 87.3234 101.46C86.8301 100.593 86.5834 99.58 86.5834 98.42C86.5834 97.2733 86.8368 96.2667 87.3434 95.4C87.8501 94.52 88.5434 93.8467 89.4234 93.38C90.3034 92.9133 91.2901 92.68 92.3834 92.68C93.4768 92.68 94.4634 92.9133 95.3434 93.38C96.2234 93.8467 96.9168 94.52 97.4234 95.4C97.9301 96.2667 98.1834 97.2733 98.1834 98.42C98.1834 99.5667 97.9234 100.58 97.4034 101.46C96.8968 102.327 96.1968 102.993 95.3034 103.46C94.4234 103.927 93.4368 104.16 92.3434 104.16ZM92.3434 101.2C92.9968 101.2 93.5501 100.96 94.0034 100.48C94.4701 100 94.7034 99.3133 94.7034 98.42C94.7034 97.5267 94.4768 96.84 94.0234 96.36C93.5834 95.88 93.0368 95.64 92.3834 95.64C91.7168 95.64 91.1634 95.88 90.7234 96.36C90.2834 96.8267 90.0634 97.5133 90.0634 98.42C90.0634 99.3133 90.2768 100 90.7034 100.48C91.1434 100.96 91.6901 101.2 92.3434 101.2ZM106.798 92.72C108.104 92.72 109.144 93.1467 109.918 94C110.704 94.84 111.098 96 111.098 97.48V104H107.698V97.94C107.698 97.1933 107.504 96.6133 107.118 96.2C106.731 95.7867 106.211 95.58 105.558 95.58C104.904 95.58 104.384 95.7867 103.998 96.2C103.611 96.6133 103.418 97.1933 103.418 97.94V104H99.9978V92.84H103.418V94.32C103.764 93.8267 104.231 93.44 104.818 93.16C105.404 92.8667 106.064 92.72 106.798 92.72ZM112.794 98.4C112.794 97.2533 113.008 96.2467 113.434 95.38C113.874 94.5133 114.468 93.8467 115.214 93.38C115.961 92.9133 116.794 92.68 117.714 92.68C118.501 92.68 119.188 92.84 119.774 93.16C120.374 93.48 120.834 93.9 121.154 94.42V92.84H124.574V104H121.154V102.42C120.821 102.94 120.354 103.36 119.754 103.68C119.168 104 118.481 104.16 117.694 104.16C116.788 104.16 115.961 103.927 115.214 103.46C114.468 102.98 113.874 102.307 113.434 101.44C113.008 100.56 112.794 99.5467 112.794 98.4ZM121.154 98.42C121.154 97.5667 120.914 96.8933 120.434 96.4C119.968 95.9067 119.394 95.66 118.714 95.66C118.034 95.66 117.454 95.9067 116.974 96.4C116.508 96.88 116.274 97.5467 116.274 98.4C116.274 99.2533 116.508 99.9333 116.974 100.44C117.454 100.933 118.034 101.18 118.714 101.18C119.394 101.18 119.968 100.933 120.434 100.44C120.914 99.9467 121.154 99.2733 121.154 98.42ZM130.469 89.2V104H127.049V89.2H130.469ZM134.667 91.68C134.067 91.68 133.574 91.5067 133.187 91.16C132.814 90.8 132.627 90.36 132.627 89.84C132.627 89.3067 132.814 88.8667 133.187 88.52C133.574 88.16 134.067 87.98 134.667 87.98C135.254 87.98 135.734 88.16 136.107 88.52C136.494 88.8667 136.687 89.3067 136.687 89.84C136.687 90.36 136.494 90.8 136.107 91.16C135.734 91.5067 135.254 91.68 134.667 91.68ZM136.367 92.84V104H132.947V92.84H136.367ZM145.065 101.1V104H143.325C142.085 104 141.119 103.7 140.425 103.1C139.732 102.487 139.385 101.493 139.385 100.12V95.68H138.025V92.84H139.385V90.12H142.805V92.84H145.045V95.68H142.805V100.16C142.805 100.493 142.885 100.733 143.045 100.88C143.205 101.027 143.472 101.1 143.845 101.1H145.065ZM158.37 92.84L151.37 109.3H147.69L150.25 103.62L145.71 92.84H149.53L152.11 99.82L154.67 92.84H158.37ZM163.265 96.96C163.265 95.5733 163.565 94.34 164.165 93.26C164.765 92.1667 165.599 91.32 166.665 90.72C167.745 90.1067 168.965 89.8 170.325 89.8C171.992 89.8 173.419 90.24 174.605 91.12C175.792 92 176.585 93.2 176.985 94.72H173.225C172.945 94.1333 172.545 93.6867 172.025 93.38C171.519 93.0733 170.939 92.92 170.285 92.92C169.232 92.92 168.379 93.2867 167.725 94.02C167.072 94.7533 166.745 95.7333 166.745 96.96C166.745 98.1867 167.072 99.1667 167.725 99.9C168.379 100.633 169.232 101 170.285 101C170.939 101 171.519 100.847 172.025 100.54C172.545 100.233 172.945 99.7867 173.225 99.2H176.985C176.585 100.72 175.792 101.92 174.605 102.8C173.419 103.667 171.992 104.1 170.325 104.1C168.965 104.1 167.745 103.8 166.665 103.2C165.599 102.587 164.765 101.74 164.165 100.66C163.565 99.58 163.265 98.3467 163.265 96.96ZM184.16 104.16C183.067 104.16 182.08 103.927 181.2 103.46C180.333 102.993 179.647 102.327 179.14 101.46C178.647 100.593 178.4 99.58 178.4 98.42C178.4 97.2733 178.653 96.2667 179.16 95.4C179.667 94.52 180.36 93.8467 181.24 93.38C182.12 92.9133 183.107 92.68 184.2 92.68C185.293 92.68 186.28 92.9133 187.16 93.38C188.04 93.8467 188.733 94.52 189.24 95.4C189.747 96.2667 190 97.2733 190 98.42C190 99.5667 189.74 100.58 189.22 101.46C188.713 102.327 188.013 102.993 187.12 103.46C186.24 103.927 185.253 104.16 184.16 104.16ZM184.16 101.2C184.813 101.2 185.367 100.96 185.82 100.48C186.287 100 186.52 99.3133 186.52 98.42C186.52 97.5267 186.293 96.84 185.84 96.36C185.4 95.88 184.853 95.64 184.2 95.64C183.533 95.64 182.98 95.88 182.54 96.36C182.1 96.8267 181.88 97.5133 181.88 98.42C181.88 99.3133 182.093 100 182.52 100.48C182.96 100.96 183.507 101.2 184.16 101.2ZM191.134 98.4C191.134 97.2533 191.348 96.2467 191.774 95.38C192.214 94.5133 192.808 93.8467 193.554 93.38C194.301 92.9133 195.134 92.68 196.054 92.68C196.788 92.68 197.454 92.8333 198.054 93.14C198.668 93.4467 199.148 93.86 199.494 94.38V89.2H202.914V104H199.494V102.4C199.174 102.933 198.714 103.36 198.114 103.68C197.528 104 196.841 104.16 196.054 104.16C195.134 104.16 194.301 103.927 193.554 103.46C192.808 102.98 192.214 102.307 191.774 101.44C191.348 100.56 191.134 99.5467 191.134 98.4ZM199.494 98.42C199.494 97.5667 199.254 96.8933 198.774 96.4C198.308 95.9067 197.734 95.66 197.054 95.66C196.374 95.66 195.794 95.9067 195.314 96.4C194.848 96.88 194.614 97.5467 194.614 98.4C194.614 99.2533 194.848 99.9333 195.314 100.44C195.794 100.933 196.374 101.18 197.054 101.18C197.734 101.18 198.308 100.933 198.774 100.44C199.254 99.9467 199.494 99.2733 199.494 98.42ZM215.908 98.24C215.908 98.56 215.888 98.8933 215.848 99.24H208.108C208.162 99.9333 208.382 100.467 208.768 100.84C209.168 101.2 209.655 101.38 210.228 101.38C211.082 101.38 211.675 101.02 212.008 100.3H215.648C215.462 101.033 215.122 101.693 214.628 102.28C214.148 102.867 213.542 103.327 212.808 103.66C212.075 103.993 211.255 104.16 210.348 104.16C209.255 104.16 208.282 103.927 207.428 103.46C206.575 102.993 205.908 102.327 205.428 101.46C204.948 100.593 204.708 99.58 204.708 98.42C204.708 97.26 204.942 96.2467 205.408 95.38C205.888 94.5133 206.555 93.8467 207.408 93.38C208.262 92.9133 209.242 92.68 210.348 92.68C211.428 92.68 212.388 92.9067 213.228 93.36C214.068 93.8133 214.722 94.46 215.188 95.3C215.668 96.14 215.908 97.12 215.908 98.24ZM212.408 97.34C212.408 96.7533 212.208 96.2867 211.808 95.94C211.408 95.5933 210.908 95.42 210.308 95.42C209.735 95.42 209.248 95.5867 208.848 95.92C208.462 96.2533 208.222 96.7267 208.128 97.34H212.408Z" fill="#336082"/>
<path d="M64.8467 33.5166L75.5381 19.0234H77.5635V33.5166H79.6221V36.9531H77.5635V42H72.998V36.9531H64.8467V33.5166ZM66.457 33.5166H72.998V24.6348L66.457 33.5166Z" fill="white"/>
<path d="M29.476 121.228H30.75V131H29.476L24.352 123.23V131H23.078V121.228H24.352L29.476 128.984V121.228ZM40.2018 127.15C40.2018 129.586 38.4518 131.126 36.2678 131.126C34.0978 131.126 32.4458 129.586 32.4458 127.15C32.4458 124.728 34.1538 123.202 36.3238 123.202C38.5078 123.202 40.2018 124.728 40.2018 127.15ZM33.7478 127.15C33.7478 129.096 34.9378 130.006 36.2678 130.006C37.5978 130.006 38.8998 129.096 38.8998 127.15C38.8998 125.218 37.6258 124.308 36.3098 124.308C34.9658 124.308 33.7478 125.218 33.7478 127.15ZM43.3748 131L40.9668 123.328H42.2688L44.0328 129.768L45.9368 123.328H47.2388L49.1008 129.782L50.8368 123.328H52.0968L49.7028 131H48.3868L46.5388 124.91L44.6908 131H43.3748ZM57.0936 131V123.328H58.3676V131H57.0936ZM57.7516 122.082C57.2616 122.082 56.8836 121.704 56.8836 121.214C56.8836 120.724 57.2616 120.346 57.7516 120.346C58.2136 120.346 58.5916 120.724 58.5916 121.214C58.5916 121.704 58.2136 122.082 57.7516 122.082ZM60.8189 128.9V124.378H59.8249V123.328H60.8189V121.396H62.0929V123.328H64.0949V124.378H62.0929V128.9C62.0929 129.656 62.3729 129.922 63.1569 129.922H64.0949V131H62.9469C61.5889 131 60.8189 130.44 60.8189 128.9ZM65.2325 122.642L65.0505 119.856H66.2825L66.1145 122.642H65.2325ZM73.3831 128.914C73.3831 130.174 72.2771 131.126 70.5831 131.126C68.7911 131.126 67.5311 130.146 67.4471 128.746H68.7631C68.8331 129.488 69.4911 130.048 70.5691 130.048C71.5771 130.048 72.1371 129.544 72.1371 128.914C72.1371 127.206 67.6011 128.2 67.6011 125.344C67.6011 124.168 68.7071 123.202 70.4151 123.202C72.1091 123.202 73.2291 124.112 73.3131 125.61H72.0391C71.9831 124.84 71.3951 124.28 70.3731 124.28C69.4351 124.28 68.8751 124.728 68.8751 125.344C68.8751 127.164 73.3271 126.17 73.3831 128.914ZM79.1939 128.9V124.378H78.1999V123.328H79.1939V121.396H80.4679V123.328H82.4699V124.378H80.4679V128.9C80.4679 129.656 80.7479 129.922 81.5319 129.922H82.4699V131H81.3219C79.9639 131 79.1939 130.44 79.1939 128.9ZM84.0135 131V123.328H85.2875V131H84.0135ZM84.6715 122.082C84.1815 122.082 83.8035 121.704 83.8035 121.214C83.8035 120.724 84.1815 120.346 84.6715 120.346C85.1335 120.346 85.5115 120.724 85.5115 121.214C85.5115 121.704 85.1335 122.082 84.6715 122.082ZM98.5329 131V126.66C98.5329 125.092 97.6929 124.294 96.4329 124.294C95.1449 124.294 94.2629 125.12 94.2629 126.772V131H93.0029V126.66C93.0029 125.092 92.1629 124.294 90.9029 124.294C89.6149 124.294 88.7329 125.12 88.7329 126.772V131H87.4589V123.328H88.7329V124.434C89.2369 123.622 90.1469 123.188 91.1549 123.188C92.4149 123.188 93.4649 123.748 93.9689 124.896C94.4169 123.79 95.5089 123.188 96.6849 123.188C98.4349 123.188 99.7929 124.28 99.7929 126.478V131H98.5329ZM105.145 124.28C103.899 124.28 102.863 125.106 102.723 126.604H107.567C107.581 125.106 106.461 124.28 105.145 124.28ZM108.729 128.634C108.337 130.034 107.105 131.126 105.201 131.126C103.017 131.126 101.407 129.586 101.407 127.15C101.407 124.728 102.961 123.202 105.201 123.202C107.427 123.202 108.883 124.77 108.883 126.87C108.883 127.15 108.869 127.374 108.841 127.64H102.709C102.807 129.194 103.899 130.048 105.201 130.048C106.349 130.048 107.077 129.46 107.357 128.634H108.729ZM114.577 128.9V124.378H113.583V123.328H114.577V121.396H115.851V123.328H117.853V124.378H115.851V128.9C115.851 129.656 116.131 129.922 116.915 129.922H117.853V131H116.705C115.347 131 114.577 130.44 114.577 128.9ZM126.676 127.15C126.676 129.586 124.926 131.126 122.742 131.126C120.572 131.126 118.92 129.586 118.92 127.15C118.92 124.728 120.628 123.202 122.798 123.202C124.982 123.202 126.676 124.728 126.676 127.15ZM120.222 127.15C120.222 129.096 121.412 130.006 122.742 130.006C124.072 130.006 125.374 129.096 125.374 127.15C125.374 125.218 124.1 124.308 122.784 124.308C121.44 124.308 120.222 125.218 120.222 127.15ZM133.358 124.756C133.848 123.902 134.87 123.202 136.228 123.202C138.3 123.202 139.868 124.742 139.868 127.136C139.868 129.516 138.286 131.126 136.228 131.126C134.828 131.126 133.834 130.426 133.358 129.586V131H132.084V120.64H133.358V124.756ZM138.566 127.136C138.566 125.33 137.376 124.308 135.962 124.308C134.576 124.308 133.358 125.372 133.358 127.15C133.358 128.956 134.576 130.006 135.962 130.006C137.376 130.006 138.566 128.942 138.566 127.136ZM142.819 126.828V131H141.545V123.328H142.819V124.574C143.253 123.72 144.079 123.188 145.297 123.188V124.504H144.961C143.743 124.504 142.819 125.05 142.819 126.828ZM146.767 131V123.328H148.041V131H146.767ZM147.425 122.082C146.935 122.082 146.557 121.704 146.557 121.214C146.557 120.724 146.935 120.346 147.425 120.346C147.887 120.346 148.265 120.724 148.265 121.214C148.265 121.704 147.887 122.082 147.425 122.082ZM155.827 131V126.66C155.827 125.092 154.973 124.294 153.685 124.294C152.383 124.294 151.487 125.106 151.487 126.758V131H150.213V123.328H151.487V124.42C151.991 123.622 152.915 123.188 153.951 123.188C155.729 123.188 157.087 124.28 157.087 126.478V131H155.827ZM158.692 127.136C158.692 124.742 160.274 123.202 162.332 123.202C163.732 123.202 164.74 123.902 165.188 124.728V123.328H166.476V131.168C166.476 133.282 165.062 134.78 162.808 134.78C160.792 134.78 159.35 133.758 159.098 132.12H160.358C160.638 133.044 161.548 133.674 162.808 133.674C164.166 133.674 165.188 132.806 165.188 131.168V129.558C164.726 130.384 163.732 131.126 162.332 131.126C160.274 131.126 158.692 129.516 158.692 127.136ZM165.188 127.15C165.188 125.372 163.984 124.308 162.584 124.308C161.184 124.308 159.994 125.33 159.994 127.136C159.994 128.942 161.184 130.006 162.584 130.006C163.984 130.006 165.188 128.956 165.188 127.15ZM175.623 124.28C174.377 124.28 173.341 125.106 173.201 126.604H178.045C178.059 125.106 176.939 124.28 175.623 124.28ZM179.207 128.634C178.815 130.034 177.583 131.126 175.679 131.126C173.495 131.126 171.885 129.586 171.885 127.15C171.885 124.728 173.439 123.202 175.679 123.202C177.905 123.202 179.361 124.77 179.361 126.87C179.361 127.15 179.347 127.374 179.319 127.64H173.187C173.285 129.194 174.377 130.048 175.679 130.048C176.827 130.048 177.555 129.46 177.835 128.634H179.207ZM180.567 127.136C180.567 124.742 182.149 123.202 184.207 123.202C185.635 123.202 186.615 123.93 187.063 124.728V123.328H188.351V131H187.063V129.572C186.601 130.398 185.607 131.126 184.193 131.126C182.149 131.126 180.567 129.516 180.567 127.136ZM187.063 127.15C187.063 125.372 185.859 124.308 184.459 124.308C183.059 124.308 181.869 125.33 181.869 127.136C181.869 128.942 183.059 130.006 184.459 130.006C185.859 130.006 187.063 128.956 187.063 127.15ZM190.028 127.15C190.028 124.742 191.582 123.202 193.766 123.202C195.67 123.202 196.916 124.182 197.308 125.792H195.936C195.67 124.868 194.9 124.28 193.766 124.28C192.366 124.28 191.33 125.274 191.33 127.15C191.33 129.054 192.366 130.048 193.766 130.048C194.9 130.048 195.656 129.502 195.936 128.536H197.308C196.916 130.062 195.67 131.126 193.766 131.126C191.582 131.126 190.028 129.586 190.028 127.15ZM199.008 131V120.64H200.282V124.434C200.786 123.622 201.738 123.188 202.816 123.188C204.524 123.188 205.882 124.28 205.882 126.478V131H204.622V126.66C204.622 125.092 203.768 124.294 202.48 124.294C201.178 124.294 200.282 125.106 200.282 126.758V131H199.008ZM23.316 151V144.378H22.322V143.328H23.316V142.782C23.316 141.074 24.156 140.304 26.116 140.304V141.368C24.968 141.368 24.59 141.788 24.59 142.782V143.328H26.2V144.378H24.59V151H23.316ZM30.9474 144.28C29.7014 144.28 28.6654 145.106 28.5254 146.604H33.3694C33.3834 145.106 32.2634 144.28 30.9474 144.28ZM34.5314 148.634C34.1394 150.034 32.9074 151.126 31.0034 151.126C28.8194 151.126 27.2094 149.586 27.2094 147.15C27.2094 144.728 28.7634 143.202 31.0034 143.202C33.2294 143.202 34.6854 144.77 34.6854 146.87C34.6854 147.15 34.6714 147.374 34.6434 147.64H28.5114C28.6094 149.194 29.7014 150.048 31.0034 150.048C32.1514 150.048 32.8794 149.46 33.1594 148.634H34.5314ZM35.8911 147.136C35.8911 144.742 37.4731 143.202 39.5311 143.202C40.9591 143.202 41.9391 143.93 42.3871 144.728V143.328H43.6751V151H42.3871V149.572C41.9251 150.398 40.9311 151.126 39.5171 151.126C37.4731 151.126 35.8911 149.516 35.8911 147.136ZM42.3871 147.15C42.3871 145.372 41.1831 144.308 39.7831 144.308C38.3831 144.308 37.1931 145.33 37.1931 147.136C37.1931 148.942 38.3831 150.006 39.7831 150.006C41.1831 150.006 42.3871 148.956 42.3871 147.15ZM46.108 148.9V144.378H45.114V143.328H46.108V141.396H47.382V143.328H49.384V144.378H47.382V148.9C47.382 149.656 47.662 149.922 48.446 149.922H49.384V151H48.236C46.878 151 46.108 150.44 46.108 148.9ZM57.7316 143.328V151H56.4576V149.866C55.9676 150.664 55.0296 151.112 54.0076 151.112C52.2436 151.112 50.8576 150.02 50.8576 147.822V143.328H52.1176V147.654C52.1176 149.208 52.9716 150.006 54.2596 150.006C55.5756 150.006 56.4576 149.194 56.4576 147.542V143.328H57.7316ZM61.1567 146.828V151H59.8827V143.328H61.1567V144.574C61.5907 143.72 62.4167 143.188 63.6347 143.188V144.504H63.2987C62.0807 144.504 61.1567 145.05 61.1567 146.828ZM68.3673 144.28C67.1213 144.28 66.0853 145.106 65.9453 146.604H70.7893C70.8033 145.106 69.6833 144.28 68.3673 144.28ZM71.9513 148.634C71.5593 150.034 70.3273 151.126 68.4233 151.126C66.2393 151.126 64.6293 149.586 64.6293 147.15C64.6293 144.728 66.1833 143.202 68.4233 143.202C70.6493 143.202 72.1053 144.77 72.1053 146.87C72.1053 147.15 72.0913 147.374 72.0633 147.64H65.9313C66.0293 149.194 67.1213 150.048 68.4233 150.048C69.5713 150.048 70.2993 149.46 70.5793 148.634H71.9513ZM77.7994 148.9V144.378H76.8054V143.328H77.7994V141.396H79.0734V143.328H81.0754V144.378H79.0734V148.9C79.0734 149.656 79.3534 149.922 80.1374 149.922H81.0754V151H79.9274C78.5694 151 77.7994 150.44 77.7994 148.9ZM89.899 147.15C89.899 149.586 88.149 151.126 85.965 151.126C83.795 151.126 82.143 149.586 82.143 147.15C82.143 144.728 83.851 143.202 86.021 143.202C88.205 143.202 89.899 144.728 89.899 147.15ZM83.445 147.15C83.445 149.096 84.635 150.006 85.965 150.006C87.295 150.006 88.597 149.096 88.597 147.15C88.597 145.218 87.323 144.308 86.007 144.308C84.663 144.308 83.445 145.218 83.445 147.15ZM95.3065 151V140.64H96.5805V151H95.3065ZM98.7518 151V143.328H100.026V151H98.7518ZM99.4098 142.082C98.9198 142.082 98.5418 141.704 98.5418 141.214C98.5418 140.724 98.9198 140.346 99.4098 140.346C99.8718 140.346 100.25 140.724 100.25 141.214C100.25 141.704 99.8718 142.082 99.4098 142.082ZM102.435 151V144.378H101.441V143.328H102.435V142.782C102.435 141.074 103.275 140.304 105.235 140.304V141.368C104.087 141.368 103.709 141.788 103.709 142.782V143.328H105.319V144.378H103.709V151H102.435ZM110.067 144.28C108.821 144.28 107.785 145.106 107.645 146.604H112.489C112.503 145.106 111.383 144.28 110.067 144.28ZM113.651 148.634C113.259 150.034 112.027 151.126 110.123 151.126C107.939 151.126 106.329 149.586 106.329 147.15C106.329 144.728 107.883 143.202 110.123 143.202C112.349 143.202 113.805 144.77 113.805 146.87C113.805 147.15 113.791 147.374 113.763 147.64H107.631C107.729 149.194 108.821 150.048 110.123 150.048C111.271 150.048 111.999 149.46 112.279 148.634H113.651ZM115.92 148.242L115.766 141.242H117.138L116.984 148.242H115.92ZM117.348 150.216C117.348 150.706 116.97 151.084 116.508 151.084C116.018 151.084 115.64 150.706 115.64 150.216C115.64 149.726 116.018 149.348 116.508 149.348C116.97 149.348 117.348 149.726 117.348 150.216ZM129.941 151L129.157 148.83H124.901L124.117 151H122.773L126.301 141.298H127.771L131.285 151H129.941ZM128.793 147.794L127.029 142.866L125.265 147.794H128.793ZM138.338 148.914C138.338 150.174 137.232 151.126 135.538 151.126C133.746 151.126 132.486 150.146 132.402 148.746H133.718C133.788 149.488 134.446 150.048 135.524 150.048C136.532 150.048 137.092 149.544 137.092 148.914C137.092 147.206 132.556 148.2 132.556 145.344C132.556 144.168 133.662 143.202 135.37 143.202C137.064 143.202 138.184 144.112 138.268 145.61H136.994C136.938 144.84 136.35 144.28 135.328 144.28C134.39 144.28 133.83 144.728 133.83 145.344C133.83 147.164 138.282 146.17 138.338 148.914ZM145.367 151L142.959 143.328H144.261L146.025 149.768L147.929 143.328H149.231L151.093 149.782L152.829 143.328H154.089L151.695 151H150.379L148.531 144.91L146.683 151H145.367ZM158.615 144.28C157.369 144.28 156.333 145.106 156.193 146.604H161.037C161.051 145.106 159.931 144.28 158.615 144.28ZM162.199 148.634C161.807 150.034 160.575 151.126 158.671 151.126C156.487 151.126 154.877 149.586 154.877 147.15C154.877 144.728 156.431 143.202 158.671 143.202C160.897 143.202 162.353 144.77 162.353 146.87C162.353 147.15 162.339 147.374 162.311 147.64H156.179C156.277 149.194 157.369 150.048 158.671 150.048C159.819 150.048 160.547 149.46 160.827 148.634H162.199ZM167.291 147.15C167.291 144.742 168.845 143.202 171.029 143.202C172.933 143.202 174.179 144.182 174.571 145.792H173.199C172.933 144.868 172.163 144.28 171.029 144.28C169.629 144.28 168.593 145.274 168.593 147.15C168.593 149.054 169.629 150.048 171.029 150.048C172.163 150.048 172.919 149.502 173.199 148.536H174.571C174.179 150.062 172.933 151.126 171.029 151.126C168.845 151.126 167.291 149.586 167.291 147.15ZM183.551 147.15C183.551 149.586 181.801 151.126 179.617 151.126C177.447 151.126 175.795 149.586 175.795 147.15C175.795 144.728 177.503 143.202 179.673 143.202C181.857 143.202 183.551 144.728 183.551 147.15ZM177.097 147.15C177.097 149.096 178.287 150.006 179.617 150.006C180.947 150.006 182.249 149.096 182.249 147.15C182.249 145.218 180.975 144.308 179.659 144.308C178.315 144.308 177.097 145.218 177.097 147.15ZM184.75 147.136C184.75 144.742 186.332 143.202 188.404 143.202C189.608 143.202 190.714 143.818 191.246 144.7V140.64H192.534V151H191.246V149.558C190.784 150.412 189.79 151.126 188.39 151.126C186.332 151.126 184.75 149.516 184.75 147.136ZM191.246 147.15C191.246 145.372 190.042 144.308 188.642 144.308C187.242 144.308 186.052 145.33 186.052 147.136C186.052 148.942 187.242 150.006 188.642 150.006C190.042 150.006 191.246 148.956 191.246 147.15ZM197.949 144.28C196.703 144.28 195.667 145.106 195.527 146.604H200.371C200.385 145.106 199.265 144.28 197.949 144.28ZM201.533 148.634C201.141 150.034 199.909 151.126 198.005 151.126C195.821 151.126 194.211 149.586 194.211 147.15C194.211 144.728 195.765 143.202 198.005 143.202C200.231 143.202 201.687 144.77 201.687 146.87C201.687 147.15 201.673 147.374 201.645 147.64H195.513C195.611 149.194 196.703 150.048 198.005 150.048C199.153 150.048 199.881 149.46 200.161 148.634H201.533ZM26.34 164.28C25.094 164.28 24.058 165.106 23.918 166.604H28.762C28.776 165.106 27.656 164.28 26.34 164.28ZM29.924 168.634C29.532 170.034 28.3 171.126 26.396 171.126C24.212 171.126 22.602 169.586 22.602 167.15C22.602 164.728 24.156 163.202 26.396 163.202C28.622 163.202 30.078 164.77 30.078 166.87C30.078 167.15 30.064 167.374 30.036 167.64H23.904C24.002 169.194 25.094 170.048 26.396 170.048C27.544 170.048 28.272 169.46 28.552 168.634H29.924ZM31.2836 167.136C31.2836 164.742 32.8656 163.202 34.9236 163.202C36.3516 163.202 37.3316 163.93 37.7796 164.728V163.328H39.0676V171H37.7796V169.572C37.3176 170.398 36.3236 171.126 34.9096 171.126C32.8656 171.126 31.2836 169.516 31.2836 167.136ZM37.7796 167.15C37.7796 165.372 36.5756 164.308 35.1756 164.308C33.7756 164.308 32.5856 165.33 32.5856 167.136C32.5856 168.942 33.7756 170.006 35.1756 170.006C36.5756 170.006 37.7796 168.956 37.7796 167.15ZM40.7446 167.15C40.7446 164.742 42.2986 163.202 44.4826 163.202C46.3866 163.202 47.6326 164.182 48.0246 165.792H46.6526C46.3866 164.868 45.6166 164.28 44.4826 164.28C43.0826 164.28 42.0466 165.274 42.0466 167.15C42.0466 169.054 43.0826 170.048 44.4826 170.048C45.6166 170.048 46.3726 169.502 46.6526 168.536H48.0246C47.6326 170.062 46.3866 171.126 44.4826 171.126C42.2986 171.126 40.7446 169.586 40.7446 167.15ZM49.7245 171V160.64H50.9985V164.434C51.5025 163.622 52.4545 163.188 53.5325 163.188C55.2405 163.188 56.5985 164.28 56.5985 166.478V171H55.3385V166.66C55.3385 165.092 54.4845 164.294 53.1965 164.294C51.8945 164.294 50.9985 165.106 50.9985 166.758V171H49.7245ZM62.65 171V164.378H61.656V163.328H62.65V162.782C62.65 161.074 63.49 160.304 65.45 160.304V161.368C64.302 161.368 63.924 161.788 63.924 162.782V163.328H65.534V164.378H63.924V171H62.65ZM73.8234 163.328V171H72.5494V169.866C72.0594 170.664 71.1214 171.112 70.0994 171.112C68.3354 171.112 66.9494 170.02 66.9494 167.822V163.328H68.2094V167.654C68.2094 169.208 69.0634 170.006 70.3514 170.006C71.6674 170.006 72.5494 169.194 72.5494 167.542V163.328H73.8234ZM81.5885 171V166.66C81.5885 165.092 80.7345 164.294 79.4465 164.294C78.1445 164.294 77.2485 165.106 77.2485 166.758V171H75.9745V163.328H77.2485V164.42C77.7525 163.622 78.6765 163.188 79.7125 163.188C81.4905 163.188 82.8485 164.28 82.8485 166.478V171H81.5885ZM84.4536 167.15C84.4536 164.742 86.0076 163.202 88.1916 163.202C90.0956 163.202 91.3416 164.182 91.7336 165.792H90.3616C90.0956 164.868 89.3256 164.28 88.1916 164.28C86.7916 164.28 85.7556 165.274 85.7556 167.15C85.7556 169.054 86.7916 170.048 88.1916 170.048C89.3256 170.048 90.0816 169.502 90.3616 168.536H91.7336C91.3416 170.062 90.0956 171.126 88.1916 171.126C86.0076 171.126 84.4536 169.586 84.4536 167.15ZM93.7135 168.9V164.378H92.7195V163.328H93.7135V161.396H94.9875V163.328H96.9895V164.378H94.9875V168.9C94.9875 169.656 95.2675 169.922 96.0515 169.922H96.9895V171H95.8415C94.4835 171 93.7135 170.44 93.7135 168.9ZM98.5331 171V163.328H99.8071V171H98.5331ZM99.1911 162.082C98.7011 162.082 98.3231 161.704 98.3231 161.214C98.3231 160.724 98.7011 160.346 99.1911 160.346C99.6531 160.346 100.031 160.724 100.031 161.214C100.031 161.704 99.6531 162.082 99.1911 162.082ZM109.258 167.15C109.258 169.586 107.508 171.126 105.324 171.126C103.154 171.126 101.502 169.586 101.502 167.15C101.502 164.728 103.21 163.202 105.38 163.202C107.564 163.202 109.258 164.728 109.258 167.15ZM102.804 167.15C102.804 169.096 103.994 170.006 105.324 170.006C106.654 170.006 107.956 169.096 107.956 167.15C107.956 165.218 106.682 164.308 105.366 164.308C104.022 164.308 102.804 165.218 102.804 167.15ZM116.547 171V166.66C116.547 165.092 115.693 164.294 114.405 164.294C113.103 164.294 112.207 165.106 112.207 166.758V171H110.933V163.328H112.207V164.42C112.711 163.622 113.635 163.188 114.671 163.188C116.449 163.188 117.807 164.28 117.807 166.478V171H116.547ZM119.413 167.136C119.413 164.742 120.995 163.202 123.053 163.202C124.481 163.202 125.461 163.93 125.909 164.728V163.328H127.197V171H125.909V169.572C125.447 170.398 124.453 171.126 123.039 171.126C120.995 171.126 119.413 169.516 119.413 167.136ZM125.909 167.15C125.909 165.372 124.705 164.308 123.305 164.308C121.905 164.308 120.715 165.33 120.715 167.136C120.715 168.942 121.905 170.006 123.305 170.006C124.705 170.006 125.909 168.956 125.909 167.15ZM129.349 171V160.64H130.623V171H129.349ZM132.795 171V163.328H134.069V171H132.795ZM133.453 162.082C132.963 162.082 132.585 161.704 132.585 161.214C132.585 160.724 132.963 160.346 133.453 160.346C133.915 160.346 134.293 160.724 134.293 161.214C134.293 161.704 133.915 162.082 133.453 162.082ZM136.52 168.9V164.378H135.526V163.328H136.52V161.396H137.794V163.328H139.796V164.378H137.794V168.9C137.794 169.656 138.074 169.922 138.858 169.922H139.796V171H138.648C137.29 171 136.52 170.44 136.52 168.9ZM144.252 169.544L146.632 163.328H147.948L143.328 174.612H142.012L143.524 170.916L140.43 163.328H141.844L144.252 169.544ZM154.459 171L152.051 163.328H153.353L155.117 169.768L157.021 163.328H158.323L160.185 169.782L161.921 163.328H163.181L160.787 171H159.471L157.623 164.91L155.775 171H154.459ZM167.707 164.28C166.461 164.28 165.425 165.106 165.285 166.604H170.129C170.143 165.106 169.023 164.28 167.707 164.28ZM171.291 168.634C170.899 170.034 169.667 171.126 167.763 171.126C165.579 171.126 163.969 169.586 163.969 167.15C163.969 164.728 165.523 163.202 167.763 163.202C169.989 163.202 171.445 164.77 171.445 166.87C171.445 167.15 171.431 167.374 171.403 167.64H165.271C165.369 169.194 166.461 170.048 167.763 170.048C168.911 170.048 169.639 169.46 169.919 168.634H171.291ZM178.357 171L175.949 163.328H177.251L179.015 169.768L180.919 163.328H182.221L184.083 169.782L185.819 163.328H187.079L184.685 171H183.369L181.521 164.91L179.673 171H178.357ZM188.344 171V163.328H189.618V171H188.344ZM189.002 162.082C188.512 162.082 188.134 161.704 188.134 161.214C188.134 160.724 188.512 160.346 189.002 160.346C189.464 160.346 189.842 160.724 189.842 161.214C189.842 161.704 189.464 162.082 189.002 162.082ZM191.789 171V160.64H193.063V171H191.789ZM195.234 171V160.64H196.508V171H195.234ZM28.594 188.914C28.594 190.174 27.488 191.126 25.794 191.126C24.002 191.126 22.742 190.146 22.658 188.746H23.974C24.044 189.488 24.702 190.048 25.78 190.048C26.788 190.048 27.348 189.544 27.348 188.914C27.348 187.206 22.812 188.2 22.812 185.344C22.812 184.168 23.918 183.202 25.626 183.202C27.32 183.202 28.44 184.112 28.524 185.61H27.25C27.194 184.84 26.606 184.28 25.584 184.28C24.646 184.28 24.086 184.728 24.086 185.344C24.086 187.164 28.538 186.17 28.594 188.914ZM33.6545 184.28C32.4085 184.28 31.3725 185.106 31.2325 186.604H36.0765C36.0905 185.106 34.9705 184.28 33.6545 184.28ZM37.2385 188.634C36.8465 190.034 35.6145 191.126 33.7105 191.126C31.5265 191.126 29.9165 189.586 29.9165 187.15C29.9165 184.728 31.4705 183.202 33.7105 183.202C35.9365 183.202 37.3925 184.77 37.3925 186.87C37.3925 187.15 37.3785 187.374 37.3505 187.64H31.2185C31.3165 189.194 32.4085 190.048 33.7105 190.048C34.8585 190.048 35.5865 189.46 35.8665 188.634H37.2385ZM44.6881 191V186.66C44.6881 185.092 43.8341 184.294 42.5461 184.294C41.2441 184.294 40.3481 185.106 40.3481 186.758V191H39.0741V183.328H40.3481V184.42C40.8521 183.622 41.7761 183.188 42.8121 183.188C44.5901 183.188 45.9481 184.28 45.9481 186.478V191H44.6881ZM47.5532 187.136C47.5532 184.742 49.1352 183.202 51.2072 183.202C52.4112 183.202 53.5172 183.818 54.0492 184.7V180.64H55.3372V191H54.0492V189.558C53.5872 190.412 52.5932 191.126 51.1932 191.126C49.1352 191.126 47.5532 189.516 47.5532 187.136ZM54.0492 187.15C54.0492 185.372 52.8452 184.308 51.4452 184.308C50.0452 184.308 48.8552 185.33 48.8552 187.136C48.8552 188.942 50.0452 190.006 51.4452 190.006C52.8452 190.006 54.0492 188.956 54.0492 187.15ZM64.1345 189.544L66.5145 183.328H67.8305L63.2105 194.612H61.8945L63.4065 190.916L60.3125 183.328H61.7265L64.1345 189.544ZM76.3912 187.15C76.3912 189.586 74.6412 191.126 72.4572 191.126C70.2872 191.126 68.6352 189.586 68.6352 187.15C68.6352 184.728 70.3432 183.202 72.5132 183.202C74.6972 183.202 76.3912 184.728 76.3912 187.15ZM69.9372 187.15C69.9372 189.096 71.1272 190.006 72.4572 190.006C73.7872 190.006 75.0892 189.096 75.0892 187.15C75.0892 185.218 73.8152 184.308 72.4992 184.308C71.1552 184.308 69.9372 185.218 69.9372 187.15ZM84.8703 183.328V191H83.5963V189.866C83.1063 190.664 82.1683 191.112 81.1463 191.112C79.3823 191.112 77.9963 190.02 77.9963 187.822V183.328H79.2563V187.654C79.2563 189.208 80.1103 190.006 81.3983 190.006C82.7143 190.006 83.5963 189.194 83.5963 187.542V183.328H84.8703ZM91.0338 188.9V184.378H90.0398V183.328H91.0338V181.396H92.3078V183.328H94.3098V184.378H92.3078V188.9C92.3078 189.656 92.5878 189.922 93.3718 189.922H94.3098V191H93.1618C91.8038 191 91.0338 190.44 91.0338 188.9ZM95.8534 191V180.64H97.1274V184.434C97.6314 183.622 98.5834 183.188 99.6614 183.188C101.369 183.188 102.727 184.28 102.727 186.478V191H101.467V186.66C101.467 185.092 100.613 184.294 99.3254 184.294C98.0234 184.294 97.1274 185.106 97.1274 186.758V191H95.8534ZM108.07 184.28C106.824 184.28 105.788 185.106 105.648 186.604H110.492C110.506 185.106 109.386 184.28 108.07 184.28ZM111.654 188.634C111.262 190.034 110.03 191.126 108.126 191.126C105.942 191.126 104.332 189.586 104.332 187.15C104.332 184.728 105.886 183.202 108.126 183.202C110.352 183.202 111.808 184.77 111.808 186.87C111.808 187.15 111.794 187.374 111.766 187.64H105.634C105.732 189.194 106.824 190.048 108.126 190.048C109.274 190.048 110.002 189.46 110.282 188.634H111.654ZM124.027 183.328V191H122.753V189.866C122.263 190.664 121.325 191.112 120.303 191.112C118.539 191.112 117.153 190.02 117.153 187.822V183.328H118.413V187.654C118.413 189.208 119.267 190.006 120.555 190.006C121.871 190.006 122.753 189.194 122.753 187.542V183.328H124.027ZM127.452 184.742C127.914 183.93 128.922 183.202 130.322 183.202C132.38 183.202 133.962 184.742 133.962 187.136C133.962 189.516 132.38 191.126 130.322 191.126C128.922 191.126 127.928 190.37 127.452 189.586V194.64H126.178V183.328H127.452V184.742ZM132.66 187.136C132.66 185.33 131.47 184.308 130.056 184.308C128.67 184.308 127.452 185.372 127.452 187.15C127.452 188.956 128.67 190.006 130.056 190.006C131.47 190.006 132.66 188.942 132.66 187.136ZM135.163 187.136C135.163 184.742 136.745 183.202 138.817 183.202C140.021 183.202 141.127 183.818 141.659 184.7V180.64H142.947V191H141.659V189.558C141.197 190.412 140.203 191.126 138.803 191.126C136.745 191.126 135.163 189.516 135.163 187.136ZM141.659 187.15C141.659 185.372 140.455 184.308 139.055 184.308C137.655 184.308 136.465 185.33 136.465 187.136C136.465 188.942 137.655 190.006 139.055 190.006C140.455 190.006 141.659 188.956 141.659 187.15ZM144.623 187.136C144.623 184.742 146.205 183.202 148.263 183.202C149.691 183.202 150.671 183.93 151.119 184.728V183.328H152.407V191H151.119V189.572C150.657 190.398 149.663 191.126 148.249 191.126C146.205 191.126 144.623 189.516 144.623 187.136ZM151.119 187.15C151.119 185.372 149.915 184.308 148.515 184.308C147.115 184.308 145.925 185.33 145.925 187.136C145.925 188.942 147.115 190.006 148.515 190.006C149.915 190.006 151.119 188.956 151.119 187.15ZM154.84 188.9V184.378H153.846V183.328H154.84V181.396H156.114V183.328H158.116V184.378H156.114V188.9C156.114 189.656 156.394 189.922 157.178 189.922H158.116V191H156.968C155.61 191 154.84 190.44 154.84 188.9ZM162.922 184.28C161.676 184.28 160.64 185.106 160.5 186.604H165.344C165.358 185.106 164.238 184.28 162.922 184.28ZM166.506 188.634C166.114 190.034 164.882 191.126 162.978 191.126C160.794 191.126 159.184 189.586 159.184 187.15C159.184 184.728 160.738 183.202 162.978 183.202C165.204 183.202 166.66 184.77 166.66 186.87C166.66 187.15 166.646 187.374 166.618 187.64H160.486C160.584 189.194 161.676 190.048 162.978 190.048C164.126 190.048 164.854 189.46 165.134 188.634H166.506ZM167.866 187.136C167.866 184.742 169.448 183.202 171.52 183.202C172.724 183.202 173.83 183.818 174.362 184.7V180.64H175.65V191H174.362V189.558C173.9 190.412 172.906 191.126 171.506 191.126C169.448 191.126 167.866 189.516 167.866 187.136ZM174.362 187.15C174.362 185.372 173.158 184.308 171.758 184.308C170.358 184.308 169.168 185.33 169.168 187.136C169.168 188.942 170.358 190.006 171.758 190.006C173.158 190.006 174.362 188.956 174.362 187.15ZM28.594 208.914C28.594 210.174 27.488 211.126 25.794 211.126C24.002 211.126 22.742 210.146 22.658 208.746H23.974C24.044 209.488 24.702 210.048 25.78 210.048C26.788 210.048 27.348 209.544 27.348 208.914C27.348 207.206 22.812 208.2 22.812 205.344C22.812 204.168 23.918 203.202 25.626 203.202C27.32 203.202 28.44 204.112 28.524 205.61H27.25C27.194 204.84 26.606 204.28 25.584 204.28C24.646 204.28 24.086 204.728 24.086 205.344C24.086 207.164 28.538 206.17 28.594 208.914ZM37.6725 207.15C37.6725 209.586 35.9225 211.126 33.7385 211.126C31.5685 211.126 29.9165 209.586 29.9165 207.15C29.9165 204.728 31.6245 203.202 33.7945 203.202C35.9785 203.202 37.6725 204.728 37.6725 207.15ZM31.2185 207.15C31.2185 209.096 32.4085 210.006 33.7385 210.006C35.0685 210.006 36.3705 209.096 36.3705 207.15C36.3705 205.218 35.0965 204.308 33.7805 204.308C32.4365 204.308 31.2185 205.218 31.2185 207.15ZM39.5855 211V204.378H38.5915V203.328H39.5855V202.782C39.5855 201.074 40.4255 200.304 42.3855 200.304V201.368C41.2375 201.368 40.8595 201.788 40.8595 202.782V203.328H42.4695V204.378H40.8595V211H39.5855ZM44.235 208.9V204.378H43.241V203.328H44.235V201.396H45.509V203.328H47.511V204.378H45.509V208.9C45.509 209.656 45.789 209.922 46.573 209.922H47.511V211H46.363C45.005 211 44.235 210.44 44.235 208.9ZM50.5526 211L48.1446 203.328H49.4466L51.2106 209.768L53.1146 203.328H54.4166L56.2786 209.782L58.0146 203.328H59.2746L56.8806 211H55.5646L53.7166 204.91L51.8686 211H50.5526ZM60.0629 207.136C60.0629 204.742 61.6449 203.202 63.7029 203.202C65.1309 203.202 66.1109 203.93 66.5589 204.728V203.328H67.8469V211H66.5589V209.572C66.0969 210.398 65.1029 211.126 63.6889 211.126C61.6449 211.126 60.0629 209.516 60.0629 207.136ZM66.5589 207.15C66.5589 205.372 65.3549 204.308 63.9549 204.308C62.5549 204.308 61.3649 205.33 61.3649 207.136C61.3649 208.942 62.5549 210.006 63.9549 210.006C65.3549 210.006 66.5589 208.956 66.5589 207.15ZM71.2739 206.828V211H69.9999V203.328H71.2739V204.574C71.7079 203.72 72.5339 203.188 73.7519 203.188V204.504H73.4159C72.1979 204.504 71.2739 205.05 71.2739 206.828ZM78.4845 204.28C77.2385 204.28 76.2025 205.106 76.0625 206.604H80.9065C80.9205 205.106 79.8005 204.28 78.4845 204.28ZM82.0685 208.634C81.6765 210.034 80.4445 211.126 78.5405 211.126C76.3565 211.126 74.7465 209.586 74.7465 207.15C74.7465 204.728 76.3005 203.202 78.5405 203.202C80.7665 203.202 82.2225 204.77 82.2225 206.87C82.2225 207.15 82.2085 207.374 82.1805 207.64H76.0485C76.1465 209.194 77.2385 210.048 78.5405 210.048C79.6885 210.048 80.4165 209.46 80.6965 208.634H82.0685ZM87.8746 211V204.378H86.8806V203.328H87.8746V202.782C87.8746 201.074 88.7146 200.304 90.6746 200.304V201.368C89.5266 201.368 89.1486 201.788 89.1486 202.782V203.328H90.7586V204.378H89.1486V211H87.8746ZM99.524 207.15C99.524 209.586 97.774 211.126 95.59 211.126C93.42 211.126 91.768 209.586 91.768 207.15C91.768 204.728 93.476 203.202 95.646 203.202C97.83 203.202 99.524 204.728 99.524 207.15ZM93.07 207.15C93.07 209.096 94.26 210.006 95.59 210.006C96.92 210.006 98.222 209.096 98.222 207.15C98.222 205.218 96.948 204.308 95.632 204.308C94.288 204.308 93.07 205.218 93.07 207.15ZM102.473 206.828V211H101.199V203.328H102.473V204.574C102.907 203.72 103.733 203.188 104.951 203.188V204.504H104.615C103.397 204.504 102.473 205.05 102.473 206.828ZM111.428 206.828V211H110.154V203.328H111.428V204.574C111.862 203.72 112.688 203.188 113.906 203.188V204.504H113.57C112.352 204.504 111.428 205.05 111.428 206.828ZM118.639 204.28C117.393 204.28 116.357 205.106 116.217 206.604H121.061C121.075 205.106 119.955 204.28 118.639 204.28ZM122.223 208.634C121.831 210.034 120.599 211.126 118.695 211.126C116.511 211.126 114.901 209.586 114.901 207.15C114.901 204.728 116.455 203.202 118.695 203.202C120.921 203.202 122.377 204.77 122.377 206.87C122.377 207.15 122.363 207.374 122.335 207.64H116.203C116.301 209.194 117.393 210.048 118.695 210.048C119.843 210.048 120.571 209.46 120.851 208.634H122.223ZM123.148 203.328H124.52L126.914 209.824L129.294 203.328H130.652L127.642 211H126.158L123.148 203.328ZM131.906 211V203.328H133.18V211H131.906ZM132.564 202.082C132.074 202.082 131.696 201.704 131.696 201.214C131.696 200.724 132.074 200.346 132.564 200.346C133.026 200.346 133.404 200.724 133.404 201.214C133.404 201.704 133.026 202.082 132.564 202.082ZM138.613 204.28C137.367 204.28 136.331 205.106 136.191 206.604H141.035C141.049 205.106 139.929 204.28 138.613 204.28ZM142.197 208.634C141.805 210.034 140.573 211.126 138.669 211.126C136.485 211.126 134.875 209.586 134.875 207.15C134.875 204.728 136.429 203.202 138.669 203.202C140.895 203.202 142.351 204.77 142.351 206.87C142.351 207.15 142.337 207.374 142.309 207.64H136.177C136.275 209.194 137.367 210.048 138.669 210.048C139.817 210.048 140.545 209.46 140.825 208.634H142.197ZM145.531 211L143.123 203.328H144.425L146.189 209.768L148.093 203.328H149.395L151.257 209.782L152.993 203.328H154.253L151.859 211H150.543L148.695 204.91L146.847 211H145.531ZM156.763 210.216C156.763 210.706 156.385 211.084 155.923 211.084C155.433 211.084 155.055 210.706 155.055 210.216C155.055 209.726 155.433 209.348 155.923 209.348C156.385 209.348 156.763 209.726 156.763 210.216Z" fill="#4F668E"/>
</svg>
