<svg width="419" height="238" viewBox="0 0 419 238" fill="none" xmlns="http://www.w3.org/2000/svg">
<path d="M0.939926 133.212C0.354141 132.626 0.354141 131.676 0.939926 131.091L10.4859 121.545C11.0717 120.959 12.0214 120.959 12.6072 121.545C13.193 122.131 13.193 123.08 12.6072 123.666L4.12191 132.151L12.6072 140.637C13.193 141.222 13.193 142.172 12.6072 142.758C12.0214 143.344 11.0717 143.344 10.4859 142.758L0.939926 133.212ZM82.46 133.651L2.00059 133.651V130.651L82.46 130.651V133.651Z" fill="#23D9AE"/>
<path d="M332.947 31H389C404.464 31 417 43.536 417 59V208C417 223.464 404.464 236 389 236H109C93.536 236 81 223.464 81 208V133.5" stroke="#23D9AE" stroke-width="3"/>
<path d="M266.086 106.4L264.286 103.98C263.752 104.087 263.232 104.14 262.726 104.14C261.406 104.14 260.192 103.833 259.086 103.22C257.992 102.607 257.119 101.753 256.466 100.66C255.826 99.5533 255.506 98.3133 255.506 96.94C255.506 95.5667 255.826 94.3333 256.466 93.24C257.119 92.1467 257.992 91.2933 259.086 90.68C260.192 90.0667 261.406 89.76 262.726 89.76C264.046 89.76 265.252 90.0667 266.346 90.68C267.452 91.2933 268.319 92.1467 268.946 93.24C269.586 94.3333 269.906 95.5667 269.906 96.94C269.906 98.14 269.659 99.24 269.166 100.24C268.686 101.227 268.012 102.047 267.146 102.7L270.226 106.4H266.086ZM259.006 96.94C259.006 98.18 259.339 99.1733 260.006 99.92C260.686 100.653 261.592 101.02 262.726 101.02C263.846 101.02 264.739 100.647 265.406 99.9C266.086 99.1533 266.426 98.1667 266.426 96.94C266.426 95.7 266.086 94.7133 265.406 93.98C264.739 93.2333 263.846 92.86 262.726 92.86C261.592 92.86 260.686 93.2267 260.006 93.96C259.339 94.6933 259.006 95.6867 259.006 96.94ZM280.587 101.52H275.347L274.507 104H270.927L276.007 89.96H279.967L285.047 104H281.427L280.587 101.52ZM279.707 98.88L277.967 93.74L276.247 98.88H279.707ZM301.572 104L300.272 102.74C298.978 103.727 297.432 104.22 295.632 104.22C294.552 104.22 293.612 104.047 292.812 103.7C292.012 103.34 291.392 102.84 290.952 102.2C290.525 101.547 290.312 100.787 290.312 99.92C290.312 99.04 290.545 98.2467 291.012 97.54C291.492 96.82 292.205 96.2333 293.152 95.78C292.805 95.3533 292.558 94.9467 292.412 94.56C292.265 94.16 292.192 93.7267 292.192 93.26C292.192 92.5933 292.365 91.9867 292.712 91.44C293.058 90.8933 293.558 90.4667 294.212 90.16C294.878 89.84 295.665 89.68 296.572 89.68C297.492 89.68 298.272 89.8467 298.912 90.18C299.552 90.5133 300.032 90.96 300.352 91.52C300.672 92.08 300.818 92.6933 300.792 93.36H297.572C297.585 93 297.492 92.7267 297.292 92.54C297.105 92.34 296.852 92.24 296.532 92.24C296.212 92.24 295.945 92.3333 295.732 92.52C295.518 92.7067 295.412 92.9467 295.412 93.24C295.412 93.52 295.498 93.8133 295.672 94.12C295.858 94.4267 296.145 94.78 296.532 95.18L299.952 98.52C299.978 98.4533 300.012 98.3733 300.052 98.28C300.105 98.1867 300.158 98.08 300.212 97.96L300.952 96.7H304.372L303.412 98.44C303.052 99.2267 302.638 99.9733 302.172 100.68L305.552 104H301.572ZM295.792 101.46C296.685 101.46 297.478 101.207 298.172 100.7L295.052 97.68C294.092 98.1733 293.612 98.84 293.612 99.68C293.612 100.187 293.805 100.613 294.192 100.96C294.592 101.293 295.125 101.46 295.792 101.46ZM321.127 89.96V92.7H317.407V104H313.987V92.7H310.267V89.96H321.127ZM333.364 98.24C333.364 98.56 333.344 98.8933 333.304 99.24H325.564C325.617 99.9333 325.837 100.467 326.224 100.84C326.624 101.2 327.11 101.38 327.684 101.38C328.537 101.38 329.13 101.02 329.464 100.3H333.104C332.917 101.033 332.577 101.693 332.084 102.28C331.604 102.867 330.997 103.327 330.264 103.66C329.53 103.993 328.71 104.16 327.804 104.16C326.71 104.16 325.737 103.927 324.884 103.46C324.03 102.993 323.364 102.327 322.884 101.46C322.404 100.593 322.164 99.58 322.164 98.42C322.164 97.26 322.397 96.2467 322.864 95.38C323.344 94.5133 324.01 93.8467 324.864 93.38C325.717 92.9133 326.697 92.68 327.804 92.68C328.884 92.68 329.844 92.9067 330.684 93.36C331.524 93.8133 332.177 94.46 332.644 95.3C333.124 96.14 333.364 97.12 333.364 98.24ZM329.864 97.34C329.864 96.7533 329.664 96.2867 329.264 95.94C328.864 95.5933 328.364 95.42 327.764 95.42C327.19 95.42 326.704 95.5867 326.304 95.92C325.917 96.2533 325.677 96.7267 325.584 97.34H329.864ZM339.708 104.16C338.734 104.16 337.868 103.993 337.108 103.66C336.348 103.327 335.748 102.873 335.308 102.3C334.868 101.713 334.621 101.06 334.568 100.34H337.948C337.988 100.727 338.168 101.04 338.488 101.28C338.808 101.52 339.201 101.64 339.668 101.64C340.094 101.64 340.421 101.56 340.648 101.4C340.888 101.227 341.008 101.007 341.008 100.74C341.008 100.42 340.841 100.187 340.508 100.04C340.174 99.88 339.634 99.7067 338.888 99.52C338.088 99.3333 337.421 99.14 336.888 98.94C336.354 98.7267 335.894 98.4 335.508 97.96C335.121 97.5067 334.928 96.9 334.928 96.14C334.928 95.5 335.101 94.92 335.448 94.4C335.808 93.8667 336.328 93.4467 337.008 93.14C337.701 92.8333 338.521 92.68 339.468 92.68C340.868 92.68 341.968 93.0267 342.768 93.72C343.581 94.4133 344.048 95.3333 344.168 96.48H341.008C340.954 96.0933 340.781 95.7867 340.488 95.56C340.208 95.3333 339.834 95.22 339.368 95.22C338.968 95.22 338.661 95.3 338.448 95.46C338.234 95.6067 338.128 95.8133 338.128 96.08C338.128 96.4 338.294 96.64 338.628 96.8C338.974 96.96 339.508 97.12 340.228 97.28C341.054 97.4933 341.728 97.7067 342.248 97.92C342.768 98.12 343.221 98.4533 343.608 98.92C344.008 99.3733 344.214 99.9867 344.228 100.76C344.228 101.413 344.041 102 343.668 102.52C343.308 103.027 342.781 103.427 342.088 103.72C341.408 104.013 340.614 104.16 339.708 104.16ZM352.54 101.1V104H350.8C349.56 104 348.593 103.7 347.9 103.1C347.207 102.487 346.86 101.493 346.86 100.12V95.68H345.5V92.84H346.86V90.12H350.28V92.84H352.52V95.68H350.28V100.16C350.28 100.493 350.36 100.733 350.52 100.88C350.68 101.027 350.947 101.1 351.32 101.1H352.54ZM356.165 91.68C355.565 91.68 355.072 91.5067 354.685 91.16C354.312 90.8 354.125 90.36 354.125 89.84C354.125 89.3067 354.312 88.8667 354.685 88.52C355.072 88.16 355.565 87.98 356.165 87.98C356.752 87.98 357.232 88.16 357.605 88.52C357.992 88.8667 358.185 89.3067 358.185 89.84C358.185 90.36 357.992 90.8 357.605 91.16C357.232 91.5067 356.752 91.68 356.165 91.68ZM357.865 92.84V104H354.445V92.84H357.865ZM367.144 92.72C368.45 92.72 369.49 93.1467 370.264 94C371.05 94.84 371.444 96 371.444 97.48V104H368.044V97.94C368.044 97.1933 367.85 96.6133 367.464 96.2C367.077 95.7867 366.557 95.58 365.904 95.58C365.25 95.58 364.73 95.7867 364.344 96.2C363.957 96.6133 363.764 97.1933 363.764 97.94V104H360.344V92.84H363.764V94.32C364.11 93.8267 364.577 93.44 365.164 93.16C365.75 92.8667 366.41 92.72 367.144 92.72ZM378.06 92.68C378.847 92.68 379.533 92.84 380.12 93.16C380.72 93.48 381.18 93.9 381.5 94.42V92.84H384.92V103.98C384.92 105.007 384.713 105.933 384.3 106.76C383.9 107.6 383.28 108.267 382.44 108.76C381.613 109.253 380.58 109.5 379.34 109.5C377.687 109.5 376.347 109.107 375.32 108.32C374.293 107.547 373.707 106.493 373.56 105.16H376.94C377.047 105.587 377.3 105.92 377.7 106.16C378.1 106.413 378.593 106.54 379.18 106.54C379.887 106.54 380.447 106.333 380.86 105.92C381.287 105.52 381.5 104.873 381.5 103.98V102.4C381.167 102.92 380.707 103.347 380.12 103.68C379.533 104 378.847 104.16 378.06 104.16C377.14 104.16 376.307 103.927 375.56 103.46C374.813 102.98 374.22 102.307 373.78 101.44C373.353 100.56 373.14 99.5467 373.14 98.4C373.14 97.2533 373.353 96.2467 373.78 95.38C374.22 94.5133 374.813 93.8467 375.56 93.38C376.307 92.9133 377.14 92.68 378.06 92.68ZM381.5 98.42C381.5 97.5667 381.26 96.8933 380.78 96.4C380.313 95.9067 379.74 95.66 379.06 95.66C378.38 95.66 377.8 95.9067 377.32 96.4C376.853 96.88 376.62 97.5467 376.62 98.4C376.62 99.2533 376.853 99.9333 377.32 100.44C377.8 100.933 378.38 101.18 379.06 101.18C379.74 101.18 380.313 100.933 380.78 100.44C381.26 99.9467 381.5 99.2733 381.5 98.42Z" fill="#336082"/>
<circle cx="346" cy="31" r="31" fill="#34B7F2"/>
<path d="M342.18 20.4883H352.722L351.045 24.7715H342.18L341.333 27.0127C345.151 27.1566 348.09 28.1084 350.148 29.8682C351.842 31.318 352.688 33.1221 352.688 35.2803C352.688 36.6637 352.296 38.0195 351.51 39.3477C350.724 40.6647 349.617 41.6829 348.189 42.4023C346.762 43.1107 345.196 43.4648 343.491 43.4648C341.654 43.4648 340.243 43.1217 339.258 42.4355C338.572 41.9486 338.229 41.3952 338.229 40.7754C338.229 40.2995 338.406 39.8789 338.76 39.5137C339.125 39.1484 339.546 38.9658 340.021 38.9658C340.453 38.9658 340.89 39.0544 341.333 39.2314C341.776 39.4085 342.534 39.8734 343.607 40.626C344.283 41.0908 344.864 41.4118 345.351 41.5889C345.694 41.7217 346.081 41.7881 346.513 41.7881C347.42 41.7881 348.189 41.4561 348.82 40.792C349.462 40.1279 349.783 39.3311 349.783 38.4014C349.783 36.4535 348.809 34.8708 346.861 33.6533C344.913 32.4359 342.456 31.8271 339.49 31.8271C339.191 31.8271 338.743 31.8327 338.146 31.8438L342.18 20.4883Z" fill="white"/>
<path d="M110.63 131L109.846 128.83H105.59L104.806 131H103.462L106.99 121.298H108.46L111.974 131H110.63ZM109.482 127.794L107.718 122.866L105.954 127.794H109.482ZM113.792 128.9V124.378H112.798V123.328H113.792V121.396H115.066V123.328H117.068V124.378H115.066V128.9C115.066 129.656 115.346 129.922 116.13 129.922H117.068V131H115.92C114.562 131 113.792 130.44 113.792 128.9ZM122.624 128.9V124.378H121.63V123.328H122.624V121.396H123.898V123.328H125.9V124.378H123.898V128.9C123.898 129.656 124.178 129.922 124.962 129.922H125.9V131H124.752C123.394 131 122.624 130.44 122.624 128.9ZM127.443 131V120.64H128.717V124.434C129.221 123.622 130.173 123.188 131.251 123.188C132.959 123.188 134.317 124.28 134.317 126.478V131H133.057V126.66C133.057 125.092 132.203 124.294 130.915 124.294C129.613 124.294 128.717 125.106 128.717 126.758V131H127.443ZM136.398 131V123.328H137.672V131H136.398ZM137.056 122.082C136.566 122.082 136.188 121.704 136.188 121.214C136.188 120.724 136.566 120.346 137.056 120.346C137.518 120.346 137.896 120.724 137.896 121.214C137.896 121.704 137.518 122.082 137.056 122.082ZM145.36 128.914C145.36 130.174 144.254 131.126 142.56 131.126C140.768 131.126 139.508 130.146 139.424 128.746H140.74C140.81 129.488 141.468 130.048 142.546 130.048C143.554 130.048 144.114 129.544 144.114 128.914C144.114 127.206 139.578 128.2 139.578 125.344C139.578 124.168 140.684 123.202 142.392 123.202C144.086 123.202 145.206 124.112 145.29 125.61H144.016C143.96 124.84 143.372 124.28 142.35 124.28C141.412 124.28 140.852 124.728 140.852 125.344C140.852 127.164 145.304 126.17 145.36 128.914ZM152.165 124.742C152.627 123.93 153.635 123.202 155.035 123.202C157.093 123.202 158.675 124.742 158.675 127.136C158.675 129.516 157.093 131.126 155.035 131.126C153.635 131.126 152.641 130.37 152.165 129.586V134.64H150.891V123.328H152.165V124.742ZM157.373 127.136C157.373 125.33 156.183 124.308 154.769 124.308C153.383 124.308 152.165 125.372 152.165 127.15C152.165 128.956 153.383 130.006 154.769 130.006C156.183 130.006 157.373 128.942 157.373 127.136ZM167.631 127.15C167.631 129.586 165.881 131.126 163.697 131.126C161.527 131.126 159.875 129.586 159.875 127.15C159.875 124.728 161.583 123.202 163.753 123.202C165.937 123.202 167.631 124.728 167.631 127.15ZM161.177 127.15C161.177 129.096 162.367 130.006 163.697 130.006C165.027 130.006 166.329 129.096 166.329 127.15C166.329 125.218 165.055 124.308 163.739 124.308C162.395 124.308 161.177 125.218 161.177 127.15ZM169.307 131V123.328H170.581V131H169.307ZM169.965 122.082C169.475 122.082 169.097 121.704 169.097 121.214C169.097 120.724 169.475 120.346 169.965 120.346C170.427 120.346 170.805 120.724 170.805 121.214C170.805 121.704 170.427 122.082 169.965 122.082ZM178.366 131V126.66C178.366 125.092 177.512 124.294 176.224 124.294C174.922 124.294 174.026 125.106 174.026 126.758V131H172.752V123.328H174.026V124.42C174.53 123.622 175.454 123.188 176.49 123.188C178.268 123.188 179.626 124.28 179.626 126.478V131H178.366ZM181.987 128.9V124.378H180.993V123.328H181.987V121.396H183.261V123.328H185.263V124.378H183.261V128.9C183.261 129.656 183.541 129.922 184.325 129.922H185.263V131H184.115C182.757 131 181.987 130.44 181.987 128.9ZM185.701 133.002L186.723 129.236H188.123L186.555 133.002H185.701ZM193.594 128.9V124.378H192.6V123.328H193.594V121.396H194.868V123.328H196.87V124.378H194.868V128.9C194.868 129.656 195.148 129.922 195.932 129.922H196.87V131H195.722C194.364 131 193.594 130.44 193.594 128.9ZM198.414 131V120.64H199.688V124.434C200.192 123.622 201.144 123.188 202.222 123.188C203.93 123.188 205.288 124.28 205.288 126.478V131H204.028V126.66C204.028 125.092 203.174 124.294 201.886 124.294C200.584 124.294 199.688 125.106 199.688 126.758V131H198.414ZM210.631 124.28C209.385 124.28 208.349 125.106 208.209 126.604H213.053C213.067 125.106 211.947 124.28 210.631 124.28ZM214.215 128.634C213.823 130.034 212.591 131.126 210.687 131.126C208.503 131.126 206.893 129.586 206.893 127.15C206.893 124.728 208.447 123.202 210.687 123.202C212.913 123.202 214.369 124.77 214.369 126.87C214.369 127.15 214.355 127.374 214.327 127.64H208.195C208.293 129.194 209.385 130.048 210.687 130.048C211.835 130.048 212.563 129.46 212.843 128.634H214.215ZM225.299 128.914C225.299 130.174 224.193 131.126 222.499 131.126C220.707 131.126 219.447 130.146 219.363 128.746H220.679C220.749 129.488 221.407 130.048 222.485 130.048C223.493 130.048 224.053 129.544 224.053 128.914C224.053 127.206 219.517 128.2 219.517 125.344C219.517 124.168 220.623 123.202 222.331 123.202C224.025 123.202 225.145 124.112 225.229 125.61H223.955C223.899 124.84 223.311 124.28 222.289 124.28C221.351 124.28 220.791 124.728 220.791 125.344C220.791 127.164 225.243 126.17 225.299 128.914ZM234.378 127.15C234.378 129.586 232.628 131.126 230.444 131.126C228.274 131.126 226.622 129.586 226.622 127.15C226.622 124.728 228.33 123.202 230.5 123.202C232.684 123.202 234.378 124.728 234.378 127.15ZM227.924 127.15C227.924 129.096 229.114 130.006 230.444 130.006C231.774 130.006 233.076 129.096 233.076 127.15C233.076 125.218 231.802 124.308 230.486 124.308C229.142 124.308 227.924 125.218 227.924 127.15ZM236.291 131V124.378H235.297V123.328H236.291V122.782C236.291 121.074 237.131 120.304 239.091 120.304V121.368C237.943 121.368 237.565 121.788 237.565 122.782V123.328H239.175V124.378H237.565V131H236.291ZM240.94 128.9V124.378H239.946V123.328H240.94V121.396H242.214V123.328H244.216V124.378H242.214V128.9C242.214 129.656 242.494 129.922 243.278 129.922H244.216V131H243.068C241.71 131 240.94 130.44 240.94 128.9ZM247.258 131L244.85 123.328H246.152L247.916 129.768L249.82 123.328H251.122L252.984 129.782L254.72 123.328H255.98L253.586 131H252.27L250.422 124.91L248.574 131H247.258ZM256.768 127.136C256.768 124.742 258.35 123.202 260.408 123.202C261.836 123.202 262.816 123.93 263.264 124.728V123.328H264.552V131H263.264V129.572C262.802 130.398 261.808 131.126 260.394 131.126C258.35 131.126 256.768 129.516 256.768 127.136ZM263.264 127.15C263.264 125.372 262.06 124.308 260.66 124.308C259.26 124.308 258.07 125.33 258.07 127.136C258.07 128.942 259.26 130.006 260.66 130.006C262.06 130.006 263.264 128.956 263.264 127.15ZM267.979 126.828V131H266.705V123.328H267.979V124.574C268.413 123.72 269.239 123.188 270.457 123.188V124.504H270.121C268.903 124.504 267.979 125.05 267.979 126.828ZM275.19 124.28C273.944 124.28 272.908 125.106 272.768 126.604H277.612C277.626 125.106 276.506 124.28 275.19 124.28ZM278.774 128.634C278.382 130.034 277.15 131.126 275.246 131.126C273.062 131.126 271.452 129.586 271.452 127.15C271.452 124.728 273.006 123.202 275.246 123.202C277.472 123.202 278.928 124.77 278.928 126.87C278.928 127.15 278.914 127.374 278.886 127.64H272.754C272.852 129.194 273.944 130.048 275.246 130.048C276.394 130.048 277.122 129.46 277.402 128.634H278.774ZM284.342 131V123.328H285.616V131H284.342ZM285 122.082C284.51 122.082 284.132 121.704 284.132 121.214C284.132 120.724 284.51 120.346 285 120.346C285.462 120.346 285.84 120.724 285.84 121.214C285.84 121.704 285.462 122.082 285 122.082ZM293.303 128.914C293.303 130.174 292.197 131.126 290.503 131.126C288.711 131.126 287.451 130.146 287.367 128.746H288.683C288.753 129.488 289.411 130.048 290.489 130.048C291.497 130.048 292.057 129.544 292.057 128.914C292.057 127.206 287.521 128.2 287.521 125.344C287.521 124.168 288.627 123.202 290.335 123.202C292.029 123.202 293.149 124.112 293.233 125.61H291.959C291.903 124.84 291.315 124.28 290.293 124.28C289.355 124.28 288.795 124.728 288.795 125.344C288.795 127.164 293.247 126.17 293.303 128.914ZM300.108 126.828V131H298.834V123.328H300.108V124.574C300.542 123.72 301.368 123.188 302.586 123.188V124.504H302.25C301.032 124.504 300.108 125.05 300.108 126.828ZM307.319 124.28C306.073 124.28 305.037 125.106 304.897 126.604H309.741C309.755 125.106 308.635 124.28 307.319 124.28ZM310.903 128.634C310.511 130.034 309.279 131.126 307.375 131.126C305.191 131.126 303.581 129.586 303.581 127.15C303.581 124.728 305.135 123.202 307.375 123.202C309.601 123.202 311.057 124.77 311.057 126.87C311.057 127.15 311.043 127.374 311.015 127.64H304.883C304.981 129.194 306.073 130.048 307.375 130.048C308.523 130.048 309.251 129.46 309.531 128.634H310.903ZM312.262 127.136C312.262 124.742 313.844 123.202 315.902 123.202C317.33 123.202 318.31 123.93 318.758 124.728V123.328H320.046V131H318.758V129.572C318.296 130.398 317.302 131.126 315.888 131.126C313.844 131.126 312.262 129.516 312.262 127.136ZM318.758 127.15C318.758 125.372 317.554 124.308 316.154 124.308C314.754 124.308 313.564 125.33 313.564 127.136C313.564 128.942 314.754 130.006 316.154 130.006C317.554 130.006 318.758 128.956 318.758 127.15ZM321.723 127.136C321.723 124.742 323.305 123.202 325.377 123.202C326.581 123.202 327.687 123.818 328.219 124.7V120.64H329.507V131H328.219V129.558C327.757 130.412 326.763 131.126 325.363 131.126C323.305 131.126 321.723 129.516 321.723 127.136ZM328.219 127.15C328.219 125.372 327.015 124.308 325.615 124.308C324.215 124.308 323.025 125.33 323.025 127.136C323.025 128.942 324.215 130.006 325.615 130.006C327.015 130.006 328.219 128.956 328.219 127.15ZM334.572 129.544L336.952 123.328H338.268L333.648 134.612H332.332L333.844 130.916L330.75 123.328H332.164L334.572 129.544ZM343.519 131V124.378H342.525V123.328H343.519V122.782C343.519 121.074 344.359 120.304 346.319 120.304V121.368C345.171 121.368 344.793 121.788 344.793 122.782V123.328H346.403V124.378H344.793V131H343.519ZM355.169 127.15C355.169 129.586 353.419 131.126 351.235 131.126C349.065 131.126 347.413 129.586 347.413 127.15C347.413 124.728 349.121 123.202 351.291 123.202C353.475 123.202 355.169 124.728 355.169 127.15ZM348.715 127.15C348.715 129.096 349.905 130.006 351.235 130.006C352.565 130.006 353.867 129.096 353.867 127.15C353.867 125.218 352.593 124.308 351.277 124.308C349.933 124.308 348.715 125.218 348.715 127.15ZM358.118 126.828V131H356.844V123.328H358.118V124.574C358.552 123.72 359.378 123.188 360.596 123.188V124.504H360.26C359.042 124.504 358.118 125.05 358.118 126.828ZM104.358 148.9V144.378H103.364V143.328H104.358V141.396H105.632V143.328H107.634V144.378H105.632V148.9C105.632 149.656 105.912 149.922 106.696 149.922H107.634V151H106.486C105.128 151 104.358 150.44 104.358 148.9ZM112.44 144.28C111.194 144.28 110.158 145.106 110.018 146.604H114.862C114.876 145.106 113.756 144.28 112.44 144.28ZM116.024 148.634C115.632 150.034 114.4 151.126 112.496 151.126C110.312 151.126 108.702 149.586 108.702 147.15C108.702 144.728 110.256 143.202 112.496 143.202C114.722 143.202 116.178 144.77 116.178 146.87C116.178 147.15 116.164 147.374 116.136 147.64H110.004C110.102 149.194 111.194 150.048 112.496 150.048C113.644 150.048 114.372 149.46 114.652 148.634H116.024ZM123.375 148.914C123.375 150.174 122.269 151.126 120.575 151.126C118.783 151.126 117.523 150.146 117.439 148.746H118.755C118.825 149.488 119.483 150.048 120.561 150.048C121.569 150.048 122.129 149.544 122.129 148.914C122.129 147.206 117.593 148.2 117.593 145.344C117.593 144.168 118.699 143.202 120.407 143.202C122.101 143.202 123.221 144.112 123.305 145.61H122.031C121.975 144.84 121.387 144.28 120.365 144.28C119.427 144.28 118.867 144.728 118.867 145.344C118.867 147.164 123.319 146.17 123.375 148.914ZM125.454 148.9V144.378H124.46V143.328H125.454V141.396H126.728V143.328H128.73V144.378H126.728V148.9C126.728 149.656 127.008 149.922 127.792 149.922H128.73V151H127.582C126.224 151 125.454 150.44 125.454 148.9ZM130.273 151V143.328H131.547V151H130.273ZM130.931 142.082C130.441 142.082 130.063 141.704 130.063 141.214C130.063 140.724 130.441 140.346 130.931 140.346C131.393 140.346 131.771 140.724 131.771 141.214C131.771 141.704 131.393 142.082 130.931 142.082ZM139.333 151V146.66C139.333 145.092 138.479 144.294 137.191 144.294C135.889 144.294 134.993 145.106 134.993 146.758V151H133.719V143.328H134.993V144.42C135.497 143.622 136.421 143.188 137.457 143.188C139.235 143.188 140.593 144.28 140.593 146.478V151H139.333ZM142.198 147.136C142.198 144.742 143.78 143.202 145.838 143.202C147.238 143.202 148.246 143.902 148.694 144.728V143.328H149.982V151.168C149.982 153.282 148.568 154.78 146.314 154.78C144.298 154.78 142.856 153.758 142.604 152.12H143.864C144.144 153.044 145.054 153.674 146.314 153.674C147.672 153.674 148.694 152.806 148.694 151.168V149.558C148.232 150.384 147.238 151.126 145.838 151.126C143.78 151.126 142.198 149.516 142.198 147.136ZM148.694 147.15C148.694 145.372 147.49 144.308 146.09 144.308C144.69 144.308 143.5 145.33 143.5 147.136C143.5 148.942 144.69 150.006 146.09 150.006C147.49 150.006 148.694 148.956 148.694 147.15ZM153.381 150.216C153.381 150.706 153.003 151.084 152.541 151.084C152.051 151.084 151.673 150.706 151.673 150.216C151.673 149.726 152.051 149.348 152.541 149.348C153.003 149.348 153.381 149.726 153.381 150.216ZM158.205 142.278V141.242H164.813V142.278H162.153V151H160.879V142.278H158.205ZM166.381 151V140.64H167.655V144.434C168.159 143.622 169.111 143.188 170.189 143.188C171.897 143.188 173.255 144.28 173.255 146.478V151H171.995V146.66C171.995 145.092 171.141 144.294 169.853 144.294C168.551 144.294 167.655 145.106 167.655 146.758V151H166.381ZM178.598 144.28C177.352 144.28 176.316 145.106 176.176 146.604H181.02C181.034 145.106 179.914 144.28 178.598 144.28ZM182.182 148.634C181.79 150.034 180.558 151.126 178.654 151.126C176.47 151.126 174.86 149.586 174.86 147.15C174.86 144.728 176.414 143.202 178.654 143.202C180.88 143.202 182.336 144.77 182.336 146.87C182.336 147.15 182.322 147.374 182.294 147.64H176.162C176.26 149.194 177.352 150.048 178.654 150.048C179.802 150.048 180.53 149.46 180.81 148.634H182.182ZM185.291 146.828V151H184.017V143.328H185.291V144.574C185.725 143.72 186.551 143.188 187.769 143.188V144.504H187.433C186.215 144.504 185.291 145.05 185.291 146.828ZM192.502 144.28C191.256 144.28 190.22 145.106 190.08 146.604H194.924C194.938 145.106 193.818 144.28 192.502 144.28ZM196.086 148.634C195.694 150.034 194.462 151.126 192.558 151.126C190.374 151.126 188.764 149.586 188.764 147.15C188.764 144.728 190.318 143.202 192.558 143.202C194.784 143.202 196.24 144.77 196.24 146.87C196.24 147.15 196.226 147.374 196.198 147.64H190.066C190.164 149.194 191.256 150.048 192.558 150.048C193.706 150.048 194.434 149.46 194.714 148.634H196.086ZM201.178 147.136C201.178 144.742 202.76 143.202 204.818 143.202C206.246 143.202 207.226 143.93 207.674 144.728V143.328H208.962V151H207.674V149.572C207.212 150.398 206.218 151.126 204.804 151.126C202.76 151.126 201.178 149.516 201.178 147.136ZM207.674 147.15C207.674 145.372 206.47 144.308 205.07 144.308C203.67 144.308 202.48 145.33 202.48 147.136C202.48 148.942 203.67 150.006 205.07 150.006C206.47 150.006 207.674 148.956 207.674 147.15ZM212.389 146.828V151H211.115V143.328H212.389V144.574C212.823 143.72 213.649 143.188 214.867 143.188V144.504H214.531C213.313 144.504 212.389 145.05 212.389 146.828ZM219.6 144.28C218.354 144.28 217.318 145.106 217.178 146.604H222.022C222.036 145.106 220.916 144.28 219.6 144.28ZM223.184 148.634C222.792 150.034 221.56 151.126 219.656 151.126C217.472 151.126 215.862 149.586 215.862 147.15C215.862 144.728 217.416 143.202 219.656 143.202C221.882 143.202 223.338 144.77 223.338 146.87C223.338 147.15 223.324 147.374 223.296 147.64H217.164C217.262 149.194 218.354 150.048 219.656 150.048C220.804 150.048 221.532 149.46 221.812 148.634H223.184ZM228.276 147.136C228.276 144.742 229.858 143.202 231.916 143.202C233.344 143.202 234.324 143.93 234.772 144.728V143.328H236.06V151H234.772V149.572C234.31 150.398 233.316 151.126 231.902 151.126C229.858 151.126 228.276 149.516 228.276 147.136ZM234.772 147.15C234.772 145.372 233.568 144.308 232.168 144.308C230.768 144.308 229.578 145.33 229.578 147.136C229.578 148.942 230.768 150.006 232.168 150.006C233.568 150.006 234.772 148.956 234.772 147.15ZM238.213 151V140.64H239.487V151H238.213ZM243.156 151L240.748 143.328H242.05L243.814 149.768L245.718 143.328H247.02L248.882 149.782L250.618 143.328H251.878L249.484 151H248.168L246.32 144.91L244.472 151H243.156ZM252.666 147.136C252.666 144.742 254.248 143.202 256.306 143.202C257.734 143.202 258.714 143.93 259.162 144.728V143.328H260.45V151H259.162V149.572C258.7 150.398 257.706 151.126 256.292 151.126C254.248 151.126 252.666 149.516 252.666 147.136ZM259.162 147.15C259.162 145.372 257.958 144.308 256.558 144.308C255.158 144.308 253.968 145.33 253.968 147.136C253.968 148.942 255.158 150.006 256.558 150.006C257.958 150.006 259.162 148.956 259.162 147.15ZM265.515 149.544L267.895 143.328H269.211L264.591 154.612H263.275L264.787 150.916L261.693 143.328H263.107L265.515 149.544ZM276.008 148.914C276.008 150.174 274.902 151.126 273.208 151.126C271.416 151.126 270.156 150.146 270.072 148.746H271.388C271.458 149.488 272.116 150.048 273.194 150.048C274.202 150.048 274.762 149.544 274.762 148.914C274.762 147.206 270.226 148.2 270.226 145.344C270.226 144.168 271.332 143.202 273.04 143.202C274.734 143.202 275.854 144.112 275.938 145.61H274.664C274.608 144.84 274.02 144.28 272.998 144.28C272.06 144.28 271.5 144.728 271.5 145.344C271.5 147.164 275.952 146.17 276.008 148.914ZM282.813 144.756C283.303 143.902 284.325 143.202 285.683 143.202C287.755 143.202 289.323 144.742 289.323 147.136C289.323 149.516 287.741 151.126 285.683 151.126C284.283 151.126 283.289 150.426 282.813 149.586V151H281.539V140.64H282.813V144.756ZM288.021 147.136C288.021 145.33 286.831 144.308 285.417 144.308C284.031 144.308 282.813 145.372 282.813 147.15C282.813 148.956 284.031 150.006 285.417 150.006C286.831 150.006 288.021 148.942 288.021 147.136ZM297.804 143.328V151H296.53V149.866C296.04 150.664 295.102 151.112 294.08 151.112C292.316 151.112 290.93 150.02 290.93 147.822V143.328H292.19V147.654C292.19 149.208 293.044 150.006 294.332 150.006C295.648 150.006 296.53 149.194 296.53 147.542V143.328H297.804ZM299.479 147.136C299.479 144.742 301.061 143.202 303.119 143.202C304.519 143.202 305.527 143.902 305.975 144.728V143.328H307.263V151.168C307.263 153.282 305.849 154.78 303.595 154.78C301.579 154.78 300.137 153.758 299.885 152.12H301.145C301.425 153.044 302.335 153.674 303.595 153.674C304.953 153.674 305.975 152.806 305.975 151.168V149.558C305.513 150.384 304.519 151.126 303.119 151.126C301.061 151.126 299.479 149.516 299.479 147.136ZM305.975 147.15C305.975 145.372 304.771 144.308 303.371 144.308C301.971 144.308 300.781 145.33 300.781 147.136C300.781 148.942 301.971 150.006 303.371 150.006C304.771 150.006 305.975 148.956 305.975 147.15ZM314.932 148.914C314.932 150.174 313.826 151.126 312.132 151.126C310.34 151.126 309.08 150.146 308.996 148.746H310.312C310.382 149.488 311.04 150.048 312.118 150.048C313.126 150.048 313.686 149.544 313.686 148.914C313.686 147.206 309.15 148.2 309.15 145.344C309.15 144.168 310.256 143.202 311.964 143.202C313.658 143.202 314.778 144.112 314.862 145.61H313.588C313.532 144.84 312.944 144.28 311.922 144.28C310.984 144.28 310.424 144.728 310.424 145.344C310.424 147.164 314.876 146.17 314.932 148.914ZM320.743 148.9V144.378H319.749V143.328H320.743V141.396H322.017V143.328H324.019V144.378H322.017V148.9C322.017 149.656 322.297 149.922 323.081 149.922H324.019V151H322.871C321.513 151 320.743 150.44 320.743 148.9ZM332.842 147.15C332.842 149.586 331.092 151.126 328.908 151.126C326.738 151.126 325.086 149.586 325.086 147.15C325.086 144.728 326.794 143.202 328.964 143.202C331.148 143.202 332.842 144.728 332.842 147.15ZM326.388 147.15C326.388 149.096 327.578 150.006 328.908 150.006C330.238 150.006 331.54 149.096 331.54 147.15C331.54 145.218 330.266 144.308 328.95 144.308C327.606 144.308 326.388 145.218 326.388 147.15ZM337.774 147.136C337.774 144.742 339.356 143.202 341.428 143.202C342.632 143.202 343.738 143.818 344.27 144.7V140.64H345.558V151H344.27V149.558C343.808 150.412 342.814 151.126 341.414 151.126C339.356 151.126 337.774 149.516 337.774 147.136ZM344.27 147.15C344.27 145.372 343.066 144.308 341.666 144.308C340.266 144.308 339.076 145.33 339.076 147.136C339.076 148.942 340.266 150.006 341.666 150.006C343.066 150.006 344.27 148.956 344.27 147.15ZM350.973 144.28C349.727 144.28 348.691 145.106 348.551 146.604H353.395C353.409 145.106 352.289 144.28 350.973 144.28ZM354.557 148.634C354.165 150.034 352.933 151.126 351.029 151.126C348.845 151.126 347.235 149.586 347.235 147.15C347.235 144.728 348.789 143.202 351.029 143.202C353.255 143.202 354.711 144.77 354.711 146.87C354.711 147.15 354.697 147.374 354.669 147.64H348.537C348.635 149.194 349.727 150.048 351.029 150.048C352.177 150.048 352.905 149.46 353.185 148.634H354.557ZM355.916 147.136C355.916 144.742 357.498 143.202 359.556 143.202C360.984 143.202 361.964 143.93 362.412 144.728V143.328H363.7V151H362.412V149.572C361.95 150.398 360.956 151.126 359.542 151.126C357.498 151.126 355.916 149.516 355.916 147.136ZM362.412 147.15C362.412 145.372 361.208 144.308 359.808 144.308C358.408 144.308 357.218 145.33 357.218 147.136C357.218 148.942 358.408 150.006 359.808 150.006C361.208 150.006 362.412 148.956 362.412 147.15ZM365.853 151V140.64H367.127V151H365.853ZM374.529 151L372.121 143.328H373.423L375.187 149.768L377.091 143.328H378.393L380.255 149.782L381.991 143.328H383.251L380.857 151H379.541L377.693 144.91L375.845 151H374.529ZM384.516 151V143.328H385.79V151H384.516ZM385.174 142.082C384.684 142.082 384.306 141.704 384.306 141.214C384.306 140.724 384.684 140.346 385.174 140.346C385.636 140.346 386.014 140.724 386.014 141.214C386.014 141.704 385.636 142.082 385.174 142.082ZM388.241 148.9V144.378H387.247V143.328H388.241V141.396H389.515V143.328H391.517V144.378H389.515V148.9C389.515 149.656 389.795 149.922 390.579 149.922H391.517V151H390.369C389.011 151 388.241 150.44 388.241 148.9ZM393.06 151V140.64H394.334V144.434C394.838 143.622 395.79 143.188 396.868 143.188C398.576 143.188 399.934 144.28 399.934 146.478V151H398.674V146.66C398.674 145.092 397.82 144.294 396.532 144.294C395.23 144.294 394.334 145.106 394.334 146.758V151H393.06ZM400.909 153.002L401.932 149.236H403.332L401.764 153.002H400.909ZM105.352 164.756C105.842 163.902 106.864 163.202 108.222 163.202C110.294 163.202 111.862 164.742 111.862 167.136C111.862 169.516 110.28 171.126 108.222 171.126C106.822 171.126 105.828 170.426 105.352 169.586V171H104.078V160.64H105.352V164.756ZM110.56 167.136C110.56 165.33 109.37 164.308 107.956 164.308C106.57 164.308 105.352 165.372 105.352 167.15C105.352 168.956 106.57 170.006 107.956 170.006C109.37 170.006 110.56 168.942 110.56 167.136ZM120.343 163.328V171H119.069V169.866C118.579 170.664 117.641 171.112 116.619 171.112C114.855 171.112 113.469 170.02 113.469 167.822V163.328H114.729V167.654C114.729 169.208 115.583 170.006 116.871 170.006C118.187 170.006 119.069 169.194 119.069 167.542V163.328H120.343ZM122.774 168.9V164.378H121.78V163.328H122.774V161.396H124.048V163.328H126.05V164.378H124.048V168.9C124.048 169.656 124.328 169.922 125.112 169.922H126.05V171H124.902C123.544 171 122.774 170.44 122.774 168.9ZM132.824 171L130.416 163.328H131.718L133.482 169.768L135.386 163.328H136.688L138.55 169.782L140.286 163.328H141.546L139.152 171H137.836L135.988 164.91L134.14 171H132.824ZM146.072 164.28C144.826 164.28 143.79 165.106 143.65 166.604H148.494C148.508 165.106 147.388 164.28 146.072 164.28ZM149.656 168.634C149.264 170.034 148.032 171.126 146.128 171.126C143.944 171.126 142.334 169.586 142.334 167.15C142.334 164.728 143.888 163.202 146.128 163.202C148.354 163.202 149.81 164.77 149.81 166.87C149.81 167.15 149.796 167.374 149.768 167.64H143.636C143.734 169.194 144.826 170.048 146.128 170.048C147.276 170.048 148.004 169.46 148.284 168.634H149.656ZM156.498 164.742C156.96 163.93 157.968 163.202 159.368 163.202C161.426 163.202 163.008 164.742 163.008 167.136C163.008 169.516 161.426 171.126 159.368 171.126C157.968 171.126 156.974 170.37 156.498 169.586V174.64H155.224V163.328H156.498V164.742ZM161.706 167.136C161.706 165.33 160.516 164.308 159.102 164.308C157.716 164.308 156.498 165.372 156.498 167.15C156.498 168.956 157.716 170.006 159.102 170.006C160.516 170.006 161.706 168.942 161.706 167.136ZM164.685 171V160.64H165.959V171H164.685ZM167.655 167.136C167.655 164.742 169.237 163.202 171.295 163.202C172.723 163.202 173.703 163.93 174.151 164.728V163.328H175.439V171H174.151V169.572C173.689 170.398 172.695 171.126 171.281 171.126C169.237 171.126 167.655 169.516 167.655 167.136ZM174.151 167.15C174.151 165.372 172.947 164.308 171.547 164.308C170.147 164.308 168.957 165.33 168.957 167.136C168.957 168.942 170.147 170.006 171.547 170.006C172.947 170.006 174.151 168.956 174.151 167.15ZM183.206 171V166.66C183.206 165.092 182.352 164.294 181.064 164.294C179.762 164.294 178.866 165.106 178.866 166.758V171H177.592V163.328H178.866V164.42C179.37 163.622 180.294 163.188 181.33 163.188C183.108 163.188 184.466 164.28 184.466 166.478V171H183.206ZM190.517 171V164.378H189.523V163.328H190.517V162.782C190.517 161.074 191.357 160.304 193.317 160.304V161.368C192.169 161.368 191.791 161.788 191.791 162.782V163.328H193.401V164.378H191.791V171H190.517ZM202.167 167.15C202.167 169.586 200.417 171.126 198.233 171.126C196.063 171.126 194.411 169.586 194.411 167.15C194.411 164.728 196.119 163.202 198.289 163.202C200.473 163.202 202.167 164.728 202.167 167.15ZM195.713 167.15C195.713 169.096 196.903 170.006 198.233 170.006C199.563 170.006 200.865 169.096 200.865 167.15C200.865 165.218 199.591 164.308 198.275 164.308C196.931 164.308 195.713 165.218 195.713 167.15ZM205.116 166.828V171H203.842V163.328H205.116V164.574C205.55 163.72 206.376 163.188 207.594 163.188V164.504H207.258C206.04 164.504 205.116 165.05 205.116 166.828ZM213.077 168.9V164.378H212.083V163.328H213.077V161.396H214.351V163.328H216.353V164.378H214.351V168.9C214.351 169.656 214.631 169.922 215.415 169.922H216.353V171H215.205C213.847 171 213.077 170.44 213.077 168.9ZM217.896 171V160.64H219.17V164.434C219.674 163.622 220.626 163.188 221.704 163.188C223.412 163.188 224.77 164.28 224.77 166.478V171H223.51V166.66C223.51 165.092 222.656 164.294 221.368 164.294C220.066 164.294 219.17 165.106 219.17 166.758V171H217.896ZM226.375 167.136C226.375 164.742 227.957 163.202 230.015 163.202C231.443 163.202 232.423 163.93 232.871 164.728V163.328H234.159V171H232.871V169.572C232.409 170.398 231.415 171.126 230.001 171.126C227.957 171.126 226.375 169.516 226.375 167.136ZM232.871 167.15C232.871 165.372 231.667 164.308 230.267 164.308C228.867 164.308 227.677 165.33 227.677 167.136C227.677 168.942 228.867 170.006 230.267 170.006C231.667 170.006 232.871 168.956 232.871 167.15ZM236.592 168.9V164.378H235.598V163.328H236.592V161.396H237.866V163.328H239.868V164.378H237.866V168.9C237.866 169.656 238.146 169.922 238.93 169.922H239.868V171H238.72C237.362 171 236.592 170.44 236.592 168.9ZM241.846 168.242L241.692 161.242H243.064L242.91 168.242H241.846ZM243.274 170.216C243.274 170.706 242.896 171.084 242.434 171.084C241.944 171.084 241.566 170.706 241.566 170.216C241.566 169.726 241.944 169.348 242.434 169.348C242.896 169.348 243.274 169.726 243.274 170.216ZM251.288 171.014L248.558 161.242H249.916L252.044 169.516L254.396 161.242H255.824L258.064 169.488L260.206 161.242H261.578L258.75 171H257.322L255.054 163.146L252.702 171L251.288 171.014ZM266.235 164.28C264.989 164.28 263.953 165.106 263.813 166.604H268.657C268.671 165.106 267.551 164.28 266.235 164.28ZM269.819 168.634C269.427 170.034 268.195 171.126 266.291 171.126C264.107 171.126 262.497 169.586 262.497 167.15C262.497 164.728 264.051 163.202 266.291 163.202C268.517 163.202 269.973 164.77 269.973 166.87C269.973 167.15 269.959 167.374 269.931 167.64H263.799C263.897 169.194 264.989 170.048 266.291 170.048C267.439 170.048 268.167 169.46 268.447 168.634H269.819ZM276.885 171L274.477 163.328H275.779L277.543 169.768L279.447 163.328H280.749L282.611 169.782L284.347 163.328H285.607L283.213 171H281.897L280.049 164.91L278.201 171H276.885ZM286.871 171V163.328H288.145V171H286.871ZM287.529 162.082C287.039 162.082 286.661 161.704 286.661 161.214C286.661 160.724 287.039 160.346 287.529 160.346C287.991 160.346 288.369 160.724 288.369 161.214C288.369 161.704 287.991 162.082 287.529 162.082ZM290.316 171V160.64H291.59V171H290.316ZM293.762 171V160.64H295.036V171H293.762ZM302.437 171L300.029 163.328H301.331L303.095 169.768L304.999 163.328H306.301L308.163 169.782L309.899 163.328H311.159L308.765 171H307.449L305.601 164.91L303.753 171H302.437ZM319.704 167.15C319.704 169.586 317.954 171.126 315.77 171.126C313.6 171.126 311.948 169.586 311.948 167.15C311.948 164.728 313.656 163.202 315.826 163.202C318.01 163.202 319.704 164.728 319.704 167.15ZM313.25 167.15C313.25 169.096 314.44 170.006 315.77 170.006C317.1 170.006 318.402 169.096 318.402 167.15C318.402 165.218 317.128 164.308 315.812 164.308C314.468 164.308 313.25 165.218 313.25 167.15ZM322.653 166.828V171H321.379V163.328H322.653V164.574C323.087 163.72 323.913 163.188 325.131 163.188V164.504H324.795C323.577 164.504 322.653 165.05 322.653 166.828ZM326.601 171V160.64H327.875V166.73L330.829 163.328H332.607L328.995 167.15L332.621 171H330.885L327.875 167.612V171H326.601ZM337.819 168.9V164.378H336.825V163.328H337.819V161.396H339.093V163.328H341.095V164.378H339.093V168.9C339.093 169.656 339.373 169.922 340.157 169.922H341.095V171H339.947C338.589 171 337.819 170.44 337.819 168.9ZM349.919 167.15C349.919 169.586 348.169 171.126 345.985 171.126C343.815 171.126 342.163 169.586 342.163 167.15C342.163 164.728 343.871 163.202 346.041 163.202C348.225 163.202 349.919 164.728 349.919 167.15ZM343.465 167.15C343.465 169.096 344.655 170.006 345.985 170.006C347.315 170.006 348.617 169.096 348.617 167.15C348.617 165.218 347.343 164.308 346.027 164.308C344.683 164.308 343.465 165.218 343.465 167.15ZM351.118 167.136C351.118 164.742 352.7 163.202 354.758 163.202C356.158 163.202 357.166 163.902 357.614 164.728V163.328H358.902V171.168C358.902 173.282 357.488 174.78 355.234 174.78C353.218 174.78 351.776 173.758 351.524 172.12H352.784C353.064 173.044 353.974 173.674 355.234 173.674C356.592 173.674 357.614 172.806 357.614 171.168V169.558C357.152 170.384 356.158 171.126 354.758 171.126C352.7 171.126 351.118 169.516 351.118 167.136ZM357.614 167.15C357.614 165.372 356.41 164.308 355.01 164.308C353.61 164.308 352.42 165.33 352.42 167.136C352.42 168.942 353.61 170.006 355.01 170.006C356.41 170.006 357.614 168.956 357.614 167.15ZM364.317 164.28C363.071 164.28 362.035 165.106 361.895 166.604H366.739C366.753 165.106 365.633 164.28 364.317 164.28ZM367.901 168.634C367.509 170.034 366.277 171.126 364.373 171.126C362.189 171.126 360.579 169.586 360.579 167.15C360.579 164.728 362.133 163.202 364.373 163.202C366.599 163.202 368.055 164.77 368.055 166.87C368.055 167.15 368.041 167.374 368.013 167.64H361.881C361.979 169.194 363.071 170.048 364.373 170.048C365.521 170.048 366.249 169.46 366.529 168.634H367.901ZM370.016 168.9V164.378H369.022V163.328H370.016V161.396H371.29V163.328H373.292V164.378H371.29V168.9C371.29 169.656 371.57 169.922 372.354 169.922H373.292V171H372.144C370.786 171 370.016 170.44 370.016 168.9ZM374.836 171V160.64H376.11V164.434C376.614 163.622 377.566 163.188 378.644 163.188C380.352 163.188 381.71 164.28 381.71 166.478V171H380.45V166.66C380.45 165.092 379.596 164.294 378.308 164.294C377.006 164.294 376.11 165.106 376.11 166.758V171H374.836ZM387.053 164.28C385.807 164.28 384.771 165.106 384.631 166.604H389.475C389.489 165.106 388.369 164.28 387.053 164.28ZM390.637 168.634C390.245 170.034 389.013 171.126 387.109 171.126C384.925 171.126 383.315 169.586 383.315 167.15C383.315 164.728 384.869 163.202 387.109 163.202C389.335 163.202 390.791 164.77 390.791 166.87C390.791 167.15 390.777 167.374 390.749 167.64H384.617C384.715 169.194 385.807 170.048 387.109 170.048C388.257 170.048 388.985 169.46 389.265 168.634H390.637ZM393.747 166.828V171H392.473V163.328H393.747V164.574C394.181 163.72 395.007 163.188 396.225 163.188V164.504H395.889C394.671 164.504 393.747 165.05 393.747 166.828ZM105.576 191L103.168 183.328H104.47L106.234 189.768L108.138 183.328H109.44L111.302 189.782L113.038 183.328H114.298L111.904 191H110.588L108.74 184.91L106.892 191H105.576ZM115.562 191V183.328H116.836V191H115.562ZM116.22 182.082C115.73 182.082 115.352 181.704 115.352 181.214C115.352 180.724 115.73 180.346 116.22 180.346C116.682 180.346 117.06 180.724 117.06 181.214C117.06 181.704 116.682 182.082 116.22 182.082ZM119.288 188.9V184.378H118.294V183.328H119.288V181.396H120.562V183.328H122.564V184.378H120.562V188.9C120.562 189.656 120.842 189.922 121.626 189.922H122.564V191H121.416C120.058 191 119.288 190.44 119.288 188.9ZM124.107 191V180.64H125.381V184.434C125.885 183.622 126.837 183.188 127.915 183.188C129.623 183.188 130.981 184.28 130.981 186.478V191H129.721V186.66C129.721 185.092 128.867 184.294 127.579 184.294C126.277 184.294 125.381 185.106 125.381 186.758V191H124.107ZM139.707 189.544L142.087 183.328H143.403L138.783 194.612H137.467L138.979 190.916L135.885 183.328H137.299L139.707 189.544ZM151.963 187.15C151.963 189.586 150.213 191.126 148.029 191.126C145.859 191.126 144.207 189.586 144.207 187.15C144.207 184.728 145.915 183.202 148.085 183.202C150.269 183.202 151.963 184.728 151.963 187.15ZM145.509 187.15C145.509 189.096 146.699 190.006 148.029 190.006C149.359 190.006 150.661 189.096 150.661 187.15C150.661 185.218 149.387 184.308 148.071 184.308C146.727 184.308 145.509 185.218 145.509 187.15ZM160.443 183.328V191H159.169V189.866C158.679 190.664 157.741 191.112 156.719 191.112C154.955 191.112 153.569 190.02 153.569 187.822V183.328H154.829V187.654C154.829 189.208 155.683 190.006 156.971 190.006C158.287 190.006 159.169 189.194 159.169 187.542V183.328H160.443ZM166.606 188.9V184.378H165.612V183.328H166.606V181.396H167.88V183.328H169.882V184.378H167.88V188.9C167.88 189.656 168.16 189.922 168.944 189.922H169.882V191H168.734C167.376 191 166.606 190.44 166.606 188.9ZM178.706 187.15C178.706 189.586 176.956 191.126 174.772 191.126C172.602 191.126 170.95 189.586 170.95 187.15C170.95 184.728 172.658 183.202 174.828 183.202C177.012 183.202 178.706 184.728 178.706 187.15ZM172.252 187.15C172.252 189.096 173.442 190.006 174.772 190.006C176.102 190.006 177.404 189.096 177.404 187.15C177.404 185.218 176.13 184.308 174.814 184.308C173.47 184.308 172.252 185.218 172.252 187.15ZM187.375 184.28C186.129 184.28 185.093 185.106 184.953 186.604H189.797C189.811 185.106 188.691 184.28 187.375 184.28ZM190.959 188.634C190.567 190.034 189.335 191.126 187.431 191.126C185.247 191.126 183.637 189.586 183.637 187.15C183.637 184.728 185.191 183.202 187.431 183.202C189.657 183.202 191.113 184.77 191.113 186.87C191.113 187.15 191.099 187.374 191.071 187.64H184.939C185.037 189.194 186.129 190.048 187.431 190.048C188.579 190.048 189.307 189.46 189.587 188.634H190.959ZM198.409 191V186.66C198.409 185.092 197.555 184.294 196.267 184.294C194.965 184.294 194.069 185.106 194.069 186.758V191H192.795V183.328H194.069V184.42C194.573 183.622 195.497 183.188 196.533 183.188C198.311 183.188 199.669 184.28 199.669 186.478V191H198.409ZM207.266 188.914C207.266 190.174 206.16 191.126 204.466 191.126C202.674 191.126 201.414 190.146 201.33 188.746H202.646C202.716 189.488 203.374 190.048 204.452 190.048C205.46 190.048 206.02 189.544 206.02 188.914C206.02 187.206 201.484 188.2 201.484 185.344C201.484 184.168 202.59 183.202 204.298 183.202C205.992 183.202 207.112 184.112 207.196 185.61H205.922C205.866 184.84 205.278 184.28 204.256 184.28C203.318 184.28 202.758 184.728 202.758 185.344C202.758 187.164 207.21 186.17 207.266 188.914ZM215.868 183.328V191H214.594V189.866C214.104 190.664 213.166 191.112 212.144 191.112C210.38 191.112 208.994 190.02 208.994 187.822V183.328H210.254V187.654C210.254 189.208 211.108 190.006 212.396 190.006C213.712 190.006 214.594 189.194 214.594 187.542V183.328H215.868ZM219.293 186.828V191H218.019V183.328H219.293V184.574C219.727 183.72 220.553 183.188 221.771 183.188V184.504H221.435C220.217 184.504 219.293 185.05 219.293 186.828ZM226.504 184.28C225.258 184.28 224.222 185.106 224.082 186.604H228.926C228.94 185.106 227.82 184.28 226.504 184.28ZM230.088 188.634C229.696 190.034 228.464 191.126 226.56 191.126C224.376 191.126 222.766 189.586 222.766 187.15C222.766 184.728 224.32 183.202 226.56 183.202C228.786 183.202 230.242 184.77 230.242 186.87C230.242 187.15 230.228 187.374 230.2 187.64H224.068C224.166 189.194 225.258 190.048 226.56 190.048C227.708 190.048 228.436 189.46 228.716 188.634H230.088ZM235.936 188.9V184.378H234.942V183.328H235.936V181.396H237.21V183.328H239.212V184.378H237.21V188.9C237.21 189.656 237.49 189.922 238.274 189.922H239.212V191H238.064C236.706 191 235.936 190.44 235.936 188.9ZM240.756 191V180.64H242.03V184.434C242.534 183.622 243.486 183.188 244.564 183.188C246.272 183.188 247.63 184.28 247.63 186.478V191H246.37V186.66C246.37 185.092 245.516 184.294 244.228 184.294C242.926 184.294 242.03 185.106 242.03 186.758V191H240.756ZM252.973 184.28C251.727 184.28 250.691 185.106 250.551 186.604H255.395C255.409 185.106 254.289 184.28 252.973 184.28ZM256.557 188.634C256.165 190.034 254.933 191.126 253.029 191.126C250.845 191.126 249.235 189.586 249.235 187.15C249.235 184.728 250.789 183.202 253.029 183.202C255.255 183.202 256.711 184.77 256.711 186.87C256.711 187.15 256.697 187.374 256.669 187.64H250.537C250.635 189.194 251.727 190.048 253.029 190.048C254.177 190.048 254.905 189.46 255.185 188.634H256.557ZM263.399 184.742C263.861 183.93 264.869 183.202 266.269 183.202C268.327 183.202 269.909 184.742 269.909 187.136C269.909 189.516 268.327 191.126 266.269 191.126C264.869 191.126 263.875 190.37 263.399 189.586V194.64H262.125V183.328H263.399V184.742ZM268.607 187.136C268.607 185.33 267.417 184.308 266.003 184.308C264.617 184.308 263.399 185.372 263.399 187.15C263.399 188.956 264.617 190.006 266.003 190.006C267.417 190.006 268.607 188.942 268.607 187.136ZM272.86 186.828V191H271.586V183.328H272.86V184.574C273.294 183.72 274.12 183.188 275.338 183.188V184.504H275.002C273.784 184.504 272.86 185.05 272.86 186.828ZM284.088 187.15C284.088 189.586 282.338 191.126 280.154 191.126C277.984 191.126 276.332 189.586 276.332 187.15C276.332 184.728 278.04 183.202 280.21 183.202C282.394 183.202 284.088 184.728 284.088 187.15ZM277.634 187.15C277.634 189.096 278.824 190.006 280.154 190.006C281.484 190.006 282.786 189.096 282.786 187.15C282.786 185.218 281.512 184.308 280.196 184.308C278.852 184.308 277.634 185.218 277.634 187.15ZM285.288 187.136C285.288 184.742 286.87 183.202 288.942 183.202C290.146 183.202 291.252 183.818 291.784 184.7V180.64H293.072V191H291.784V189.558C291.322 190.412 290.328 191.126 288.928 191.126C286.87 191.126 285.288 189.516 285.288 187.136ZM291.784 187.15C291.784 185.372 290.58 184.308 289.18 184.308C287.78 184.308 286.59 185.33 286.59 187.136C286.59 188.942 287.78 190.006 289.18 190.006C290.58 190.006 291.784 188.956 291.784 187.15ZM302.028 183.328V191H300.754V189.866C300.264 190.664 299.326 191.112 298.304 191.112C296.54 191.112 295.154 190.02 295.154 187.822V183.328H296.414V187.654C296.414 189.208 297.268 190.006 298.556 190.006C299.872 190.006 300.754 189.194 300.754 187.542V183.328H302.028ZM303.704 187.15C303.704 184.742 305.258 183.202 307.442 183.202C309.346 183.202 310.592 184.182 310.984 185.792H309.612C309.346 184.868 308.576 184.28 307.442 184.28C306.042 184.28 305.006 185.274 305.006 187.15C305.006 189.054 306.042 190.048 307.442 190.048C308.576 190.048 309.332 189.502 309.612 188.536H310.984C310.592 190.062 309.346 191.126 307.442 191.126C305.258 191.126 303.704 189.586 303.704 187.15ZM312.963 188.9V184.378H311.969V183.328H312.963V181.396H314.237V183.328H316.239V184.378H314.237V188.9C314.237 189.656 314.517 189.922 315.301 189.922H316.239V191H315.091C313.733 191 312.963 190.44 312.963 188.9ZM321.516 191V183.328H322.79V191H321.516ZM322.174 182.082C321.684 182.082 321.306 181.704 321.306 181.214C321.306 180.724 321.684 180.346 322.174 180.346C322.636 180.346 323.014 180.724 323.014 181.214C323.014 181.704 322.636 182.082 322.174 182.082ZM330.477 188.914C330.477 190.174 329.371 191.126 327.677 191.126C325.885 191.126 324.625 190.146 324.541 188.746H325.857C325.927 189.488 326.585 190.048 327.663 190.048C328.671 190.048 329.231 189.544 329.231 188.914C329.231 187.206 324.695 188.2 324.695 185.344C324.695 184.168 325.801 183.202 327.509 183.202C329.203 183.202 330.323 184.112 330.407 185.61H329.133C329.077 184.84 328.489 184.28 327.467 184.28C326.529 184.28 325.969 184.728 325.969 185.344C325.969 187.164 330.421 186.17 330.477 188.914ZM336.288 188.9V184.378H335.294V183.328H336.288V181.396H337.562V183.328H339.564V184.378H337.562V188.9C337.562 189.656 337.842 189.922 338.626 189.922H339.564V191H338.416C337.058 191 336.288 190.44 336.288 188.9ZM348.387 187.15C348.387 189.586 346.637 191.126 344.453 191.126C342.283 191.126 340.631 189.586 340.631 187.15C340.631 184.728 342.339 183.202 344.509 183.202C346.693 183.202 348.387 184.728 348.387 187.15ZM341.933 187.15C341.933 189.096 343.123 190.006 344.453 190.006C345.783 190.006 347.085 189.096 347.085 187.15C347.085 185.218 345.811 184.308 344.495 184.308C343.151 184.308 341.933 185.218 341.933 187.15ZM350.342 188.9V184.378H349.348V183.328H350.342V181.396H351.616V183.328H353.618V184.378H351.616V188.9C351.616 189.656 351.896 189.922 352.68 189.922H353.618V191H352.47C351.112 191 350.342 190.44 350.342 188.9ZM354.686 187.136C354.686 184.742 356.268 183.202 358.326 183.202C359.754 183.202 360.734 183.93 361.182 184.728V183.328H362.47V191H361.182V189.572C360.72 190.398 359.726 191.126 358.312 191.126C356.268 191.126 354.686 189.516 354.686 187.136ZM361.182 187.15C361.182 185.372 359.978 184.308 358.578 184.308C357.178 184.308 355.988 185.33 355.988 187.136C355.988 188.942 357.178 190.006 358.578 190.006C359.978 190.006 361.182 188.956 361.182 187.15ZM364.623 191V180.64H365.897V191H364.623ZM368.068 191V180.64H369.342V191H368.068ZM374.426 189.544L376.806 183.328H378.122L373.502 194.612H372.186L373.698 190.916L370.604 183.328H372.018L374.426 189.544ZM389.939 183.328V191H388.665V189.866C388.175 190.664 387.237 191.112 386.215 191.112C384.451 191.112 383.065 190.02 383.065 187.822V183.328H384.325V187.654C384.325 189.208 385.179 190.006 386.467 190.006C387.783 190.006 388.665 189.194 388.665 187.542V183.328H389.939ZM393.364 184.742C393.826 183.93 394.834 183.202 396.234 183.202C398.292 183.202 399.874 184.742 399.874 187.136C399.874 189.516 398.292 191.126 396.234 191.126C394.834 191.126 393.84 190.37 393.364 189.586V194.64H392.09V183.328H393.364V184.742ZM398.572 187.136C398.572 185.33 397.382 184.308 395.968 184.308C394.582 184.308 393.364 185.372 393.364 187.15C393.364 188.956 394.582 190.006 395.968 190.006C397.382 190.006 398.572 188.942 398.572 187.136ZM104.358 208.9V204.378H103.364V203.328H104.358V201.396H105.632V203.328H107.634V204.378H105.632V208.9C105.632 209.656 105.912 209.922 106.696 209.922H107.634V211H106.486C105.128 211 104.358 210.44 104.358 208.9ZM116.458 207.15C116.458 209.586 114.708 211.126 112.524 211.126C110.354 211.126 108.702 209.586 108.702 207.15C108.702 204.728 110.41 203.202 112.58 203.202C114.764 203.202 116.458 204.728 116.458 207.15ZM110.004 207.15C110.004 209.096 111.194 210.006 112.524 210.006C113.854 210.006 115.156 209.096 115.156 207.15C115.156 205.218 113.882 204.308 112.566 204.308C111.222 204.308 110.004 205.218 110.004 207.15ZM123.139 204.742C123.601 203.93 124.609 203.202 126.009 203.202C128.067 203.202 129.649 204.742 129.649 207.136C129.649 209.516 128.067 211.126 126.009 211.126C124.609 211.126 123.615 210.37 123.139 209.586V214.64H121.865V203.328H123.139V204.742ZM128.347 207.136C128.347 205.33 127.157 204.308 125.743 204.308C124.357 204.308 123.139 205.372 123.139 207.15C123.139 208.956 124.357 210.006 125.743 210.006C127.157 210.006 128.347 208.942 128.347 207.136ZM130.85 207.136C130.85 204.742 132.432 203.202 134.49 203.202C135.918 203.202 136.898 203.93 137.346 204.728V203.328H138.634V211H137.346V209.572C136.884 210.398 135.89 211.126 134.476 211.126C132.432 211.126 130.85 209.516 130.85 207.136ZM137.346 207.15C137.346 205.372 136.142 204.308 134.742 204.308C133.342 204.308 132.152 205.33 132.152 207.136C132.152 208.942 133.342 210.006 134.742 210.006C136.142 210.006 137.346 208.956 137.346 207.15ZM142.061 206.828V211H140.787V203.328H142.061V204.574C142.495 203.72 143.321 203.188 144.539 203.188V204.504H144.203C142.985 204.504 142.061 205.05 142.061 206.828ZM149.266 207.136C149.266 204.742 150.848 203.202 152.906 203.202C154.334 203.202 155.314 203.93 155.762 204.728V203.328H157.05V211H155.762V209.572C155.3 210.398 154.306 211.126 152.892 211.126C150.848 211.126 149.266 209.516 149.266 207.136ZM155.762 207.15C155.762 205.372 154.558 204.308 153.158 204.308C151.758 204.308 150.568 205.33 150.568 207.136C150.568 208.942 151.758 210.006 153.158 210.006C154.558 210.006 155.762 208.956 155.762 207.15ZM164.817 211V206.66C164.817 205.092 163.963 204.294 162.675 204.294C161.373 204.294 160.477 205.106 160.477 206.758V211H159.203V203.328H160.477V204.42C160.981 203.622 161.905 203.188 162.941 203.188C164.719 203.188 166.077 204.28 166.077 206.478V211H164.817ZM167.682 207.136C167.682 204.742 169.264 203.202 171.336 203.202C172.54 203.202 173.646 203.818 174.178 204.7V200.64H175.466V211H174.178V209.558C173.716 210.412 172.722 211.126 171.322 211.126C169.264 211.126 167.682 209.516 167.682 207.136ZM174.178 207.15C174.178 205.372 172.974 204.308 171.574 204.308C170.174 204.308 168.984 205.33 168.984 207.136C168.984 208.942 170.174 210.006 171.574 210.006C172.974 210.006 174.178 208.956 174.178 207.15ZM182.625 206.828V211H181.351V203.328H182.625V204.574C183.059 203.72 183.885 203.188 185.103 203.188V204.504H184.767C183.549 204.504 182.625 205.05 182.625 206.828ZM189.836 204.28C188.59 204.28 187.554 205.106 187.414 206.604H192.258C192.272 205.106 191.152 204.28 189.836 204.28ZM193.42 208.634C193.028 210.034 191.796 211.126 189.892 211.126C187.708 211.126 186.098 209.586 186.098 207.15C186.098 204.728 187.652 203.202 189.892 203.202C192.118 203.202 193.574 204.77 193.574 206.87C193.574 207.15 193.56 207.374 193.532 207.64H187.4C187.498 209.194 188.59 210.048 189.892 210.048C191.04 210.048 191.768 209.46 192.048 208.634H193.42ZM194.78 207.136C194.78 204.742 196.362 203.202 198.42 203.202C199.848 203.202 200.828 203.93 201.276 204.728V203.328H202.564V211H201.276V209.572C200.814 210.398 199.82 211.126 198.406 211.126C196.362 211.126 194.78 209.516 194.78 207.136ZM201.276 207.15C201.276 205.372 200.072 204.308 198.672 204.308C197.272 204.308 196.082 205.33 196.082 207.136C196.082 208.942 197.272 210.006 198.672 210.006C200.072 210.006 201.276 208.956 201.276 207.15ZM204.241 207.136C204.241 204.742 205.823 203.202 207.895 203.202C209.099 203.202 210.205 203.818 210.737 204.7V200.64H212.025V211H210.737V209.558C210.275 210.412 209.281 211.126 207.881 211.126C205.823 211.126 204.241 209.516 204.241 207.136ZM210.737 207.15C210.737 205.372 209.533 204.308 208.133 204.308C206.733 204.308 205.543 205.33 205.543 207.136C205.543 208.942 206.733 210.006 208.133 210.006C209.533 210.006 210.737 208.956 210.737 207.15ZM217.09 209.544L219.47 203.328H220.786L216.166 214.612H214.85L216.362 210.916L213.268 203.328H214.682L217.09 209.544ZM226.037 211V204.378H225.043V203.328H226.037V202.782C226.037 201.074 226.877 200.304 228.837 200.304V201.368C227.689 201.368 227.311 201.788 227.311 202.782V203.328H228.921V204.378H227.311V211H226.037ZM237.686 207.15C237.686 209.586 235.936 211.126 233.752 211.126C231.582 211.126 229.93 209.586 229.93 207.15C229.93 204.728 231.638 203.202 233.808 203.202C235.992 203.202 237.686 204.728 237.686 207.15ZM231.232 207.15C231.232 209.096 232.422 210.006 233.752 210.006C235.082 210.006 236.384 209.096 236.384 207.15C236.384 205.218 235.11 204.308 233.794 204.308C232.45 204.308 231.232 205.218 231.232 207.15ZM240.635 206.828V211H239.361V203.328H240.635V204.574C241.069 203.72 241.895 203.188 243.113 203.188V204.504H242.777C241.559 204.504 240.635 205.05 240.635 206.828ZM247.84 207.136C247.84 204.742 249.422 203.202 251.48 203.202C252.908 203.202 253.888 203.93 254.336 204.728V203.328H255.624V211H254.336V209.572C253.874 210.398 252.88 211.126 251.466 211.126C249.422 211.126 247.84 209.516 247.84 207.136ZM254.336 207.15C254.336 205.372 253.132 204.308 251.732 204.308C250.332 204.308 249.142 205.33 249.142 207.136C249.142 208.942 250.332 210.006 251.732 210.006C253.132 210.006 254.336 208.956 254.336 207.15ZM262.784 204.742C263.246 203.93 264.254 203.202 265.654 203.202C267.712 203.202 269.294 204.742 269.294 207.136C269.294 209.516 267.712 211.126 265.654 211.126C264.254 211.126 263.26 210.37 262.784 209.586V214.64H261.51V203.328H262.784V204.742ZM267.992 207.136C267.992 205.33 266.802 204.308 265.388 204.308C264.002 204.308 262.784 205.372 262.784 207.15C262.784 208.956 264.002 210.006 265.388 210.006C266.802 210.006 267.992 208.942 267.992 207.136ZM277.775 203.328V211H276.501V209.866C276.011 210.664 275.073 211.112 274.051 211.112C272.287 211.112 270.901 210.02 270.901 207.822V203.328H272.161V207.654C272.161 209.208 273.015 210.006 274.303 210.006C275.619 210.006 276.501 209.194 276.501 207.542V203.328H277.775ZM281.2 204.756C281.69 203.902 282.712 203.202 284.07 203.202C286.142 203.202 287.71 204.742 287.71 207.136C287.71 209.516 286.128 211.126 284.07 211.126C282.67 211.126 281.676 210.426 281.2 209.586V211H279.926V200.64H281.2V204.756ZM286.408 207.136C286.408 205.33 285.218 204.308 283.804 204.308C282.418 204.308 281.2 205.372 281.2 207.15C281.2 208.956 282.418 210.006 283.804 210.006C285.218 210.006 286.408 208.942 286.408 207.136ZM289.387 211V200.64H290.661V211H289.387ZM292.832 211V203.328H294.106V211H292.832ZM293.49 202.082C293 202.082 292.622 201.704 292.622 201.214C292.622 200.724 293 200.346 293.49 200.346C293.952 200.346 294.33 200.724 294.33 201.214C294.33 201.704 293.952 202.082 293.49 202.082ZM295.801 207.15C295.801 204.742 297.355 203.202 299.539 203.202C301.443 203.202 302.689 204.182 303.081 205.792H301.709C301.443 204.868 300.673 204.28 299.539 204.28C298.139 204.28 297.103 205.274 297.103 207.15C297.103 209.054 298.139 210.048 299.539 210.048C300.673 210.048 301.429 209.502 301.709 208.536H303.081C302.689 210.062 301.443 211.126 299.539 211.126C297.355 211.126 295.801 209.586 295.801 207.15ZM309.788 206.828V211H308.514V203.328H309.788V204.574C310.222 203.72 311.048 203.188 312.266 203.188V204.504H311.93C310.712 204.504 309.788 205.05 309.788 206.828ZM316.998 204.28C315.752 204.28 314.716 205.106 314.576 206.604H319.42C319.434 205.106 318.314 204.28 316.998 204.28ZM320.582 208.634C320.19 210.034 318.958 211.126 317.054 211.126C314.87 211.126 313.26 209.586 313.26 207.15C313.26 204.728 314.814 203.202 317.054 203.202C319.28 203.202 320.736 204.77 320.736 206.87C320.736 207.15 320.722 207.374 320.694 207.64H314.562C314.66 209.194 315.752 210.048 317.054 210.048C318.202 210.048 318.93 209.46 319.21 208.634H320.582ZM322.418 211V200.64H323.692V211H322.418ZM329.125 204.28C327.879 204.28 326.843 205.106 326.703 206.604H331.547C331.561 205.106 330.441 204.28 329.125 204.28ZM332.709 208.634C332.317 210.034 331.085 211.126 329.181 211.126C326.997 211.126 325.387 209.586 325.387 207.15C325.387 204.728 326.941 203.202 329.181 203.202C331.407 203.202 332.863 204.77 332.863 206.87C332.863 207.15 332.849 207.374 332.821 207.64H326.689C326.787 209.194 327.879 210.048 329.181 210.048C330.329 210.048 331.057 209.46 331.337 208.634H332.709ZM334.069 207.136C334.069 204.742 335.651 203.202 337.709 203.202C339.137 203.202 340.117 203.93 340.565 204.728V203.328H341.853V211H340.565V209.572C340.103 210.398 339.109 211.126 337.695 211.126C335.651 211.126 334.069 209.516 334.069 207.136ZM340.565 207.15C340.565 205.372 339.361 204.308 337.961 204.308C336.561 204.308 335.371 205.33 335.371 207.136C335.371 208.942 336.561 210.006 337.961 210.006C339.361 210.006 340.565 208.956 340.565 207.15ZM349.522 208.914C349.522 210.174 348.416 211.126 346.722 211.126C344.93 211.126 343.67 210.146 343.586 208.746H344.902C344.972 209.488 345.63 210.048 346.708 210.048C347.716 210.048 348.276 209.544 348.276 208.914C348.276 207.206 343.74 208.2 343.74 205.344C343.74 204.168 344.846 203.202 346.554 203.202C348.248 203.202 349.368 204.112 349.452 205.61H348.178C348.122 204.84 347.534 204.28 346.512 204.28C345.574 204.28 345.014 204.728 345.014 205.344C345.014 207.164 349.466 206.17 349.522 208.914ZM354.582 204.28C353.336 204.28 352.3 205.106 352.16 206.604H357.004C357.018 205.106 355.898 204.28 354.582 204.28ZM358.166 208.634C357.774 210.034 356.542 211.126 354.638 211.126C352.454 211.126 350.844 209.586 350.844 207.15C350.844 204.728 352.398 203.202 354.638 203.202C356.864 203.202 358.32 204.77 358.32 206.87C358.32 207.15 358.306 207.374 358.278 207.64H352.146C352.244 209.194 353.336 210.048 354.638 210.048C355.786 210.048 356.514 209.46 356.794 208.634H358.166ZM361.248 210.216C361.248 210.706 360.87 211.084 360.408 211.084C359.918 211.084 359.54 210.706 359.54 210.216C359.54 209.726 359.918 209.348 360.408 209.348C360.87 209.348 361.248 209.726 361.248 210.216Z" fill="#4F668E"/>
</svg>
