<svg width="340" height="238" viewBox="0 0 340 238" fill="none" xmlns="http://www.w3.org/2000/svg">
<path d="M0.938911 133.212C0.353127 132.626 0.353127 131.676 0.938911 131.091L10.4849 121.545C11.0706 120.959 12.0204 120.959 12.6062 121.545C13.192 122.131 13.192 123.08 12.6062 123.666L4.12089 132.151L12.6062 140.637C13.192 141.222 13.192 142.172 12.6062 142.758C12.0204 143.344 11.0706 143.344 10.4849 142.758L0.938911 133.212ZM67.1426 133.651L1.99957 133.651V130.651L67.1426 130.651V133.651Z" fill="#23D9AE"/>
<path d="M269.957 31H310C325.464 31 338 43.536 338 59V208C338 223.464 325.464 236 310 236H94C78.536 236 66 223.464 66 208V133.5" stroke="#23D9AE" stroke-width="3"/>
<path d="M187.695 96.8C188.508 96.9733 189.162 97.38 189.655 98.02C190.148 98.6467 190.395 99.3667 190.395 100.18C190.395 101.353 189.982 102.287 189.155 102.98C188.342 103.66 187.202 104 185.735 104H179.195V89.96H185.515C186.942 89.96 188.055 90.2867 188.855 90.94C189.668 91.5933 190.075 92.48 190.075 93.6C190.075 94.4267 189.855 95.1133 189.415 95.66C188.988 96.2067 188.415 96.5867 187.695 96.8ZM182.615 95.64H184.855C185.415 95.64 185.842 95.52 186.135 95.28C186.442 95.0267 186.595 94.66 186.595 94.18C186.595 93.7 186.442 93.3333 186.135 93.08C185.842 92.8267 185.415 92.7 184.855 92.7H182.615V95.64ZM185.135 101.24C185.708 101.24 186.148 101.113 186.455 100.86C186.775 100.593 186.935 100.213 186.935 99.72C186.935 99.2267 186.768 98.84 186.435 98.56C186.115 98.28 185.668 98.14 185.095 98.14H182.615V101.24H185.135ZM202.899 98.24C202.899 98.56 202.879 98.8933 202.839 99.24H195.099C195.152 99.9333 195.372 100.467 195.759 100.84C196.159 101.2 196.645 101.38 197.219 101.38C198.072 101.38 198.665 101.02 198.999 100.3H202.639C202.452 101.033 202.112 101.693 201.619 102.28C201.139 102.867 200.532 103.327 199.799 103.66C199.065 103.993 198.245 104.16 197.339 104.16C196.245 104.16 195.272 103.927 194.419 103.46C193.565 102.993 192.899 102.327 192.419 101.46C191.939 100.593 191.699 99.58 191.699 98.42C191.699 97.26 191.932 96.2467 192.399 95.38C192.879 94.5133 193.545 93.8467 194.399 93.38C195.252 92.9133 196.232 92.68 197.339 92.68C198.419 92.68 199.379 92.9067 200.219 93.36C201.059 93.8133 201.712 94.46 202.179 95.3C202.659 96.14 202.899 97.12 202.899 98.24ZM199.399 97.34C199.399 96.7533 199.199 96.2867 198.799 95.94C198.399 95.5933 197.899 95.42 197.299 95.42C196.725 95.42 196.239 95.5867 195.839 95.92C195.452 96.2533 195.212 96.7267 195.119 97.34H199.399ZM210.923 101.1V104H209.183C207.943 104 206.976 103.7 206.283 103.1C205.59 102.487 205.243 101.493 205.243 100.12V95.68H203.883V92.84H205.243V90.12H208.663V92.84H210.903V95.68H208.663V100.16C208.663 100.493 208.743 100.733 208.903 100.88C209.063 101.027 209.33 101.1 209.703 101.1H210.923ZM212.148 98.4C212.148 97.2533 212.361 96.2467 212.788 95.38C213.228 94.5133 213.821 93.8467 214.568 93.38C215.315 92.9133 216.148 92.68 217.068 92.68C217.855 92.68 218.541 92.84 219.128 93.16C219.728 93.48 220.188 93.9 220.508 94.42V92.84H223.928V104H220.508V102.42C220.175 102.94 219.708 103.36 219.108 103.68C218.521 104 217.835 104.16 217.048 104.16C216.141 104.16 215.315 103.927 214.568 103.46C213.821 102.98 213.228 102.307 212.788 101.44C212.361 100.56 212.148 99.5467 212.148 98.4ZM220.508 98.42C220.508 97.5667 220.268 96.8933 219.788 96.4C219.321 95.9067 218.748 95.66 218.068 95.66C217.388 95.66 216.808 95.9067 216.328 96.4C215.861 96.88 215.628 97.5467 215.628 98.4C215.628 99.2533 215.861 99.9333 216.328 100.44C216.808 100.933 217.388 101.18 218.068 101.18C218.748 101.18 219.321 100.933 219.788 100.44C220.268 99.9467 220.508 99.2733 220.508 98.42ZM234.06 101.36H238.54V104H230.64V89.96H234.06V101.36ZM239.492 98.4C239.492 97.2533 239.705 96.2467 240.132 95.38C240.572 94.5133 241.165 93.8467 241.912 93.38C242.658 92.9133 243.492 92.68 244.412 92.68C245.198 92.68 245.885 92.84 246.472 93.16C247.072 93.48 247.532 93.9 247.852 94.42V92.84H251.272V104H247.852V102.42C247.518 102.94 247.052 103.36 246.452 103.68C245.865 104 245.178 104.16 244.392 104.16C243.485 104.16 242.658 103.927 241.912 103.46C241.165 102.98 240.572 102.307 240.132 101.44C239.705 100.56 239.492 99.5467 239.492 98.4ZM247.852 98.42C247.852 97.5667 247.612 96.8933 247.132 96.4C246.665 95.9067 246.092 95.66 245.412 95.66C244.732 95.66 244.152 95.9067 243.672 96.4C243.205 96.88 242.972 97.5467 242.972 98.4C242.972 99.2533 243.205 99.9333 243.672 100.44C244.152 100.933 244.732 101.18 245.412 101.18C246.092 101.18 246.665 100.933 247.132 100.44C247.612 99.9467 247.852 99.2733 247.852 98.42ZM264.766 92.84V104H261.346V102.48C260.999 102.973 260.526 103.373 259.926 103.68C259.339 103.973 258.686 104.12 257.966 104.12C257.113 104.12 256.359 103.933 255.706 103.56C255.053 103.173 254.546 102.62 254.186 101.9C253.826 101.18 253.646 100.333 253.646 99.36V92.84H257.046V98.9C257.046 99.6467 257.239 100.227 257.626 100.64C258.013 101.053 258.533 101.26 259.186 101.26C259.853 101.26 260.379 101.053 260.766 100.64C261.153 100.227 261.346 99.6467 261.346 98.9V92.84H264.766ZM274.022 92.72C275.329 92.72 276.369 93.1467 277.142 94C277.929 94.84 278.322 96 278.322 97.48V104H274.922V97.94C274.922 97.1933 274.729 96.6133 274.342 96.2C273.956 95.7867 273.436 95.58 272.782 95.58C272.129 95.58 271.609 95.7867 271.222 96.2C270.836 96.6133 270.642 97.1933 270.642 97.94V104H267.222V92.84H270.642V94.32C270.989 93.8267 271.456 93.44 272.042 93.16C272.629 92.8667 273.289 92.72 274.022 92.72ZM280.019 98.42C280.019 97.26 280.252 96.2467 280.719 95.38C281.199 94.5133 281.859 93.8467 282.699 93.38C283.552 92.9133 284.526 92.68 285.619 92.68C287.019 92.68 288.186 93.0467 289.119 93.78C290.066 94.5133 290.686 95.5467 290.979 96.88H287.339C287.032 96.0267 286.439 95.6 285.559 95.6C284.932 95.6 284.432 95.8467 284.059 96.34C283.686 96.82 283.499 97.5133 283.499 98.42C283.499 99.3267 283.686 100.027 284.059 100.52C284.432 101 284.932 101.24 285.559 101.24C286.439 101.24 287.032 100.813 287.339 99.96H290.979C290.686 101.267 290.066 102.293 289.119 103.04C288.172 103.787 287.006 104.16 285.619 104.16C284.526 104.16 283.552 103.927 282.699 103.46C281.859 102.993 281.199 102.327 280.719 101.46C280.252 100.593 280.019 99.58 280.019 98.42ZM299.668 92.72C300.948 92.72 301.975 93.1467 302.748 94C303.522 94.84 303.908 96 303.908 97.48V104H300.508V97.94C300.508 97.1933 300.315 96.6133 299.928 96.2C299.542 95.7867 299.022 95.58 298.368 95.58C297.715 95.58 297.195 95.7867 296.808 96.2C296.422 96.6133 296.228 97.1933 296.228 97.94V104H292.808V89.2H296.228V94.34C296.575 93.8467 297.048 93.4533 297.648 93.16C298.248 92.8667 298.922 92.72 299.668 92.72Z" fill="#336082"/>
<circle cx="267" cy="31" r="31" fill="#34B7F2"/>
<path d="M272.971 18.0234V18.4883C270.967 18.9974 269.357 19.6559 268.14 20.4639C266.933 21.2607 265.976 22.2347 265.268 23.3857C264.57 24.5257 264.028 25.9424 263.641 27.6357C264.128 27.3037 264.532 27.0879 264.853 26.9883C265.572 26.7669 266.297 26.6562 267.027 26.6562C268.71 26.6562 270.11 27.2705 271.228 28.499C272.356 29.7165 272.921 31.3822 272.921 33.4961C272.921 34.9792 272.617 36.3405 272.008 37.5801C271.399 38.8197 270.536 39.777 269.418 40.4521C268.3 41.1273 267.105 41.4648 265.832 41.4648C264.449 41.4648 263.17 41.0885 261.997 40.3359C260.824 39.5723 259.905 38.46 259.241 36.999C258.588 35.5381 258.262 33.9499 258.262 32.2344C258.262 29.7109 258.865 27.3646 260.071 25.1953C261.289 23.015 263.01 21.2829 265.234 19.999C267.47 18.7041 270.049 18.0456 272.971 18.0234ZM263.425 28.9805C263.336 30.5078 263.292 31.6257 263.292 32.334C263.292 33.8613 263.436 35.3389 263.724 36.7666C264.022 38.1943 264.426 39.196 264.936 39.7715C265.301 40.181 265.732 40.3857 266.23 40.3857C266.74 40.3857 267.193 40.0924 267.592 39.5059C267.99 38.9082 268.189 37.7018 268.189 35.8867C268.189 32.832 267.819 30.7236 267.077 29.5615C266.601 28.8089 265.959 28.4326 265.151 28.4326C264.709 28.4326 264.133 28.6152 263.425 28.9805Z" fill="white"/>
<path d="M96.322 131V126.576H91.352V131H90.078V121.242H91.352V125.526H96.322V121.242H97.596V131H96.322ZM103.02 124.28C101.774 124.28 100.738 125.106 100.598 126.604H105.442C105.456 125.106 104.336 124.28 103.02 124.28ZM106.604 128.634C106.212 130.034 104.98 131.126 103.076 131.126C100.892 131.126 99.2817 129.586 99.2817 127.15C99.2817 124.728 100.836 123.202 103.076 123.202C105.302 123.202 106.758 124.77 106.758 126.87C106.758 127.15 106.744 127.374 106.716 127.64H100.584C100.682 129.194 101.774 130.048 103.076 130.048C104.224 130.048 104.952 129.46 105.232 128.634H106.604ZM109.713 126.828V131H108.439V123.328H109.713V124.574C110.147 123.72 110.973 123.188 112.191 123.188V124.504H111.855C110.637 124.504 109.713 125.05 109.713 126.828ZM116.924 124.28C115.678 124.28 114.642 125.106 114.502 126.604H119.346C119.36 125.106 118.24 124.28 116.924 124.28ZM120.508 128.634C120.116 130.034 118.884 131.126 116.98 131.126C114.796 131.126 113.186 129.586 113.186 127.15C113.186 124.728 114.74 123.202 116.98 123.202C119.206 123.202 120.662 124.77 120.662 126.87C120.662 127.15 120.648 127.374 120.62 127.64H114.488C114.586 129.194 115.678 130.048 116.98 130.048C118.128 130.048 118.856 129.46 119.136 128.634H120.508ZM127.574 131L125.166 123.328H126.468L128.232 129.768L130.136 123.328H131.438L133.3 129.782L135.036 123.328H136.296L133.902 131H132.586L130.738 124.91L128.89 131H127.574ZM140.822 124.28C139.576 124.28 138.54 125.106 138.4 126.604H143.244C143.258 125.106 142.138 124.28 140.822 124.28ZM144.406 128.634C144.014 130.034 142.782 131.126 140.878 131.126C138.694 131.126 137.084 129.586 137.084 127.15C137.084 124.728 138.638 123.202 140.878 123.202C143.104 123.202 144.56 124.77 144.56 126.87C144.56 127.15 144.546 127.374 144.518 127.64H138.386C138.484 129.194 139.576 130.048 140.878 130.048C142.026 130.048 142.754 129.46 143.034 128.634H144.406ZM149.498 127.136C149.498 124.742 151.08 123.202 153.138 123.202C154.538 123.202 155.546 123.902 155.994 124.728V123.328H157.282V131.168C157.282 133.282 155.868 134.78 153.614 134.78C151.598 134.78 150.156 133.758 149.904 132.12H151.164C151.444 133.044 152.354 133.674 153.614 133.674C154.972 133.674 155.994 132.806 155.994 131.168V129.558C155.532 130.384 154.538 131.126 153.138 131.126C151.08 131.126 149.498 129.516 149.498 127.136ZM155.994 127.15C155.994 125.372 154.79 124.308 153.39 124.308C151.99 124.308 150.8 125.33 150.8 127.136C150.8 128.942 151.99 130.006 153.39 130.006C154.79 130.006 155.994 128.956 155.994 127.15ZM166.715 127.15C166.715 129.586 164.965 131.126 162.781 131.126C160.611 131.126 158.959 129.586 158.959 127.15C158.959 124.728 160.667 123.202 162.837 123.202C165.021 123.202 166.715 124.728 166.715 127.15ZM160.261 127.15C160.261 129.096 161.451 130.006 162.781 130.006C164.111 130.006 165.413 129.096 165.413 127.15C165.413 125.218 164.139 124.308 162.823 124.308C161.479 124.308 160.261 125.218 160.261 127.15ZM168.825 128.242L168.671 121.242H170.043L169.889 128.242H168.825ZM170.253 130.216C170.253 130.706 169.875 131.084 169.413 131.084C168.923 131.084 168.545 130.706 168.545 130.216C168.545 129.726 168.923 129.348 169.413 129.348C169.875 129.348 170.253 129.726 170.253 130.216ZM182.691 121.228H183.965V131H182.691L177.567 123.23V131H176.293V121.228H177.567L182.691 128.984V121.228ZM193.417 127.15C193.417 129.586 191.667 131.126 189.483 131.126C187.313 131.126 185.661 129.586 185.661 127.15C185.661 124.728 187.369 123.202 189.539 123.202C191.723 123.202 193.417 124.728 193.417 127.15ZM186.963 127.15C186.963 129.096 188.153 130.006 189.483 130.006C190.813 130.006 192.115 129.096 192.115 127.15C192.115 125.218 190.841 124.308 189.525 124.308C188.181 124.308 186.963 125.218 186.963 127.15ZM196.59 131L194.182 123.328H195.484L197.248 129.768L199.152 123.328H200.454L202.316 129.782L204.052 123.328H205.312L202.918 131H201.602L199.754 124.91L197.906 131H196.59ZM210.308 131V123.328H211.582V131H210.308ZM210.966 122.082C210.476 122.082 210.098 121.704 210.098 121.214C210.098 120.724 210.476 120.346 210.966 120.346C211.428 120.346 211.806 120.724 211.806 121.214C211.806 121.704 211.428 122.082 210.966 122.082ZM214.034 128.9V124.378H213.04V123.328H214.034V121.396H215.308V123.328H217.31V124.378H215.308V128.9C215.308 129.656 215.588 129.922 216.372 129.922H217.31V131H216.162C214.804 131 214.034 130.44 214.034 128.9ZM218.447 122.642L218.265 119.856H219.497L219.329 122.642H218.447ZM226.598 128.914C226.598 130.174 225.492 131.126 223.798 131.126C222.006 131.126 220.746 130.146 220.662 128.746H221.978C222.048 129.488 222.706 130.048 223.784 130.048C224.792 130.048 225.352 129.544 225.352 128.914C225.352 127.206 220.816 128.2 220.816 125.344C220.816 124.168 221.922 123.202 223.63 123.202C225.324 123.202 226.444 124.112 226.528 125.61H225.254C225.198 124.84 224.61 124.28 223.588 124.28C222.65 124.28 222.09 124.728 222.09 125.344C222.09 127.164 226.542 126.17 226.598 128.914ZM232.409 128.9V124.378H231.415V123.328H232.409V121.396H233.683V123.328H235.685V124.378H233.683V128.9C233.683 129.656 233.963 129.922 234.747 129.922H235.685V131H234.537C233.179 131 232.409 130.44 232.409 128.9ZM237.228 131V123.328H238.502V131H237.228ZM237.886 122.082C237.396 122.082 237.018 121.704 237.018 121.214C237.018 120.724 237.396 120.346 237.886 120.346C238.348 120.346 238.726 120.724 238.726 121.214C238.726 121.704 238.348 122.082 237.886 122.082ZM251.748 131V126.66C251.748 125.092 250.908 124.294 249.648 124.294C248.36 124.294 247.478 125.12 247.478 126.772V131H246.218V126.66C246.218 125.092 245.378 124.294 244.118 124.294C242.83 124.294 241.948 125.12 241.948 126.772V131H240.674V123.328H241.948V124.434C242.452 123.622 243.362 123.188 244.37 123.188C245.63 123.188 246.68 123.748 247.184 124.896C247.632 123.79 248.724 123.188 249.9 123.188C251.65 123.188 253.008 124.28 253.008 126.478V131H251.748ZM258.36 124.28C257.114 124.28 256.078 125.106 255.938 126.604H260.782C260.796 125.106 259.676 124.28 258.36 124.28ZM261.944 128.634C261.552 130.034 260.32 131.126 258.416 131.126C256.232 131.126 254.622 129.586 254.622 127.15C254.622 124.728 256.176 123.202 258.416 123.202C260.642 123.202 262.098 124.77 262.098 126.87C262.098 127.15 262.084 127.374 262.056 127.64H255.924C256.022 129.194 257.114 130.048 258.416 130.048C259.564 130.048 260.292 129.46 260.572 128.634H261.944ZM267.792 128.9V124.378H266.798V123.328H267.792V121.396H269.066V123.328H271.068V124.378H269.066V128.9C269.066 129.656 269.346 129.922 270.13 129.922H271.068V131H269.92C268.562 131 267.792 130.44 267.792 128.9ZM279.891 127.15C279.891 129.586 278.141 131.126 275.957 131.126C273.787 131.126 272.135 129.586 272.135 127.15C272.135 124.728 273.843 123.202 276.013 123.202C278.197 123.202 279.891 124.728 279.891 127.15ZM273.437 127.15C273.437 129.096 274.627 130.006 275.957 130.006C277.287 130.006 278.589 129.096 278.589 127.15C278.589 125.218 277.315 124.308 275.999 124.308C274.655 124.308 273.437 125.218 273.437 127.15ZM91.352 146.828V151H90.078V143.328H91.352V144.574C91.786 143.72 92.612 143.188 93.83 143.188V144.504H93.494C92.276 144.504 91.352 145.05 91.352 146.828ZM98.5627 144.28C97.3167 144.28 96.2807 145.106 96.1407 146.604H100.985C100.999 145.106 99.8787 144.28 98.5627 144.28ZM102.147 148.634C101.755 150.034 100.523 151.126 98.6187 151.126C96.4347 151.126 94.8247 149.586 94.8247 147.15C94.8247 144.728 96.3787 143.202 98.6187 143.202C100.845 143.202 102.301 144.77 102.301 146.87C102.301 147.15 102.287 147.374 102.259 147.64H96.1267C96.2247 149.194 97.3167 150.048 98.6187 150.048C99.7667 150.048 100.495 149.46 100.775 148.634H102.147ZM103.982 151V140.64H105.256V151H103.982ZM110.69 144.28C109.444 144.28 108.408 145.106 108.268 146.604H113.112C113.126 145.106 112.006 144.28 110.69 144.28ZM114.274 148.634C113.882 150.034 112.65 151.126 110.746 151.126C108.562 151.126 106.952 149.586 106.952 147.15C106.952 144.728 108.506 143.202 110.746 143.202C112.972 143.202 114.428 144.77 114.428 146.87C114.428 147.15 114.414 147.374 114.386 147.64H108.254C108.352 149.194 109.444 150.048 110.746 150.048C111.894 150.048 112.622 149.46 112.902 148.634H114.274ZM115.633 147.136C115.633 144.742 117.215 143.202 119.273 143.202C120.701 143.202 121.681 143.93 122.129 144.728V143.328H123.417V151H122.129V149.572C121.667 150.398 120.673 151.126 119.259 151.126C117.215 151.126 115.633 149.516 115.633 147.136ZM122.129 147.15C122.129 145.372 120.925 144.308 119.525 144.308C118.125 144.308 116.935 145.33 116.935 147.136C116.935 148.942 118.125 150.006 119.525 150.006C120.925 150.006 122.129 148.956 122.129 147.15ZM131.086 148.914C131.086 150.174 129.98 151.126 128.286 151.126C126.494 151.126 125.234 150.146 125.15 148.746H126.466C126.536 149.488 127.194 150.048 128.272 150.048C129.28 150.048 129.84 149.544 129.84 148.914C129.84 147.206 125.304 148.2 125.304 145.344C125.304 144.168 126.41 143.202 128.118 143.202C129.812 143.202 130.932 144.112 131.016 145.61H129.742C129.686 144.84 129.098 144.28 128.076 144.28C127.138 144.28 126.578 144.728 126.578 145.344C126.578 147.164 131.03 146.17 131.086 148.914ZM136.147 144.28C134.901 144.28 133.865 145.106 133.725 146.604H138.569C138.583 145.106 137.463 144.28 136.147 144.28ZM139.731 148.634C139.339 150.034 138.107 151.126 136.203 151.126C134.019 151.126 132.409 149.586 132.409 147.15C132.409 144.728 133.963 143.202 136.203 143.202C138.429 143.202 139.885 144.77 139.885 146.87C139.885 147.15 139.871 147.374 139.843 147.64H133.711C133.809 149.194 134.901 150.048 136.203 150.048C137.351 150.048 138.079 149.46 138.359 148.634H139.731ZM146.097 151V142.04H144.753V140.878H147.385V151H146.097ZM155.299 148.914C155.299 150.174 154.193 151.126 152.499 151.126C150.707 151.126 149.447 150.146 149.363 148.746H150.679C150.749 149.488 151.407 150.048 152.485 150.048C153.493 150.048 154.053 149.544 154.053 148.914C154.053 147.206 149.517 148.2 149.517 145.344C149.517 144.168 150.623 143.202 152.331 143.202C154.025 143.202 155.145 144.112 155.229 145.61H153.955C153.899 144.84 153.311 144.28 152.289 144.28C151.351 144.28 150.791 144.728 150.791 145.344C150.791 147.164 155.243 146.17 155.299 148.914ZM157.378 148.9V144.378H156.384V143.328H157.378V141.396H158.652V143.328H160.654V144.378H158.652V148.9C158.652 149.656 158.932 149.922 159.716 149.922H160.654V151H159.506C158.148 151 157.378 150.44 157.378 148.9ZM169.584 149.656L172.65 141.242H173.994L170.312 151H168.842L165.16 141.242H166.518L169.584 149.656ZM178.653 144.28C177.407 144.28 176.37 145.106 176.231 146.604H181.075C181.089 145.106 179.969 144.28 178.653 144.28ZM182.237 148.634C181.845 150.034 180.613 151.126 178.709 151.126C176.525 151.126 174.915 149.586 174.915 147.15C174.915 144.728 176.469 143.202 178.709 143.202C180.935 143.202 182.391 144.77 182.391 146.87C182.391 147.15 182.377 147.374 182.349 147.64H176.217C176.315 149.194 177.407 150.048 178.709 150.048C179.857 150.048 180.585 149.46 180.865 148.634H182.237ZM185.346 146.828V151H184.072V143.328H185.346V144.574C185.78 143.72 186.606 143.188 187.824 143.188V144.504H187.488C186.27 144.504 185.346 145.05 185.346 146.828ZM194.811 148.914C194.811 150.174 193.705 151.126 192.011 151.126C190.219 151.126 188.959 150.146 188.875 148.746H190.191C190.261 149.488 190.919 150.048 191.997 150.048C193.005 150.048 193.565 149.544 193.565 148.914C193.565 147.206 189.029 148.2 189.029 145.344C189.029 144.168 190.135 143.202 191.843 143.202C193.537 143.202 194.657 144.112 194.741 145.61H193.467C193.411 144.84 192.823 144.28 191.801 144.28C190.863 144.28 190.303 144.728 190.303 145.344C190.303 147.164 194.755 146.17 194.811 148.914ZM196.609 151V143.328H197.883V151H196.609ZM197.267 142.082C196.777 142.082 196.399 141.704 196.399 141.214C196.399 140.724 196.777 140.346 197.267 140.346C197.729 140.346 198.107 140.724 198.107 141.214C198.107 141.704 197.729 142.082 197.267 142.082ZM207.335 147.15C207.335 149.586 205.585 151.126 203.401 151.126C201.231 151.126 199.579 149.586 199.579 147.15C199.579 144.728 201.287 143.202 203.457 143.202C205.641 143.202 207.335 144.728 207.335 147.15ZM200.881 147.15C200.881 149.096 202.071 150.006 203.401 150.006C204.731 150.006 206.033 149.096 206.033 147.15C206.033 145.218 204.759 144.308 203.443 144.308C202.099 144.308 200.881 145.218 200.881 147.15ZM214.624 151V146.66C214.624 145.092 213.77 144.294 212.482 144.294C211.18 144.294 210.284 145.106 210.284 146.758V151H209.01V143.328H210.284V144.42C210.788 143.622 211.712 143.188 212.748 143.188C214.526 143.188 215.884 144.28 215.884 146.478V151H214.624ZM228.977 147.15C228.977 149.586 227.227 151.126 225.043 151.126C222.873 151.126 221.221 149.586 221.221 147.15C221.221 144.728 222.929 143.202 225.099 143.202C227.283 143.202 228.977 144.728 228.977 147.15ZM222.523 147.15C222.523 149.096 223.713 150.006 225.043 150.006C226.373 150.006 227.675 149.096 227.675 147.15C227.675 145.218 226.401 144.308 225.085 144.308C223.741 144.308 222.523 145.218 222.523 147.15ZM230.89 151V144.378H229.896V143.328H230.89V142.782C230.89 141.074 231.73 140.304 233.69 140.304V141.368C232.542 141.368 232.164 141.788 232.164 142.782V143.328H233.774V144.378H232.164V151H230.89ZM241.904 149.544L244.284 143.328H245.6L240.98 154.612H239.664L241.176 150.916L238.082 143.328H239.496L241.904 149.544ZM254.161 147.15C254.161 149.586 252.411 151.126 250.227 151.126C248.057 151.126 246.405 149.586 246.405 147.15C246.405 144.728 248.113 143.202 250.283 143.202C252.467 143.202 254.161 144.728 254.161 147.15ZM247.707 147.15C247.707 149.096 248.897 150.006 250.227 150.006C251.557 150.006 252.859 149.096 252.859 147.15C252.859 145.218 251.585 144.308 250.269 144.308C248.925 144.308 247.707 145.218 247.707 147.15ZM262.64 143.328V151H261.366V149.866C260.876 150.664 259.938 151.112 258.916 151.112C257.152 151.112 255.766 150.02 255.766 147.822V143.328H257.026V147.654C257.026 149.208 257.88 150.006 259.168 150.006C260.484 150.006 261.366 149.194 261.366 147.542V143.328H262.64ZM266.065 146.828V151H264.791V143.328H266.065V144.574C266.499 143.72 267.325 143.188 268.543 143.188V144.504H268.207C266.989 144.504 266.065 145.05 266.065 146.828ZM95.594 168.914C95.594 170.174 94.488 171.126 92.794 171.126C91.002 171.126 89.742 170.146 89.658 168.746H90.974C91.044 169.488 91.702 170.048 92.78 170.048C93.788 170.048 94.348 169.544 94.348 168.914C94.348 167.206 89.812 168.2 89.812 165.344C89.812 164.168 90.918 163.202 92.626 163.202C94.32 163.202 95.44 164.112 95.524 165.61H94.25C94.194 164.84 93.606 164.28 92.584 164.28C91.646 164.28 91.086 164.728 91.086 165.344C91.086 167.164 95.538 166.17 95.594 168.914ZM104.672 167.15C104.672 169.586 102.922 171.126 100.738 171.126C98.5685 171.126 96.9165 169.586 96.9165 167.15C96.9165 164.728 98.6245 163.202 100.794 163.202C102.978 163.202 104.672 164.728 104.672 167.15ZM98.2185 167.15C98.2185 169.096 99.4085 170.006 100.738 170.006C102.068 170.006 103.37 169.096 103.37 167.15C103.37 165.218 102.096 164.308 100.78 164.308C99.4365 164.308 98.2185 165.218 98.2185 167.15ZM106.586 171V164.378H105.592V163.328H106.586V162.782C106.586 161.074 107.426 160.304 109.386 160.304V161.368C108.238 161.368 107.86 161.788 107.86 162.782V163.328H109.47V164.378H107.86V171H106.586ZM111.235 168.9V164.378H110.241V163.328H111.235V161.396H112.509V163.328H114.511V164.378H112.509V168.9C112.509 169.656 112.789 169.922 113.573 169.922H114.511V171H113.363C112.005 171 111.235 170.44 111.235 168.9ZM117.553 171L115.145 163.328H116.447L118.211 169.768L120.115 163.328H121.417L123.279 169.782L125.015 163.328H126.275L123.881 171H122.565L120.717 164.91L118.869 171H117.553ZM127.063 167.136C127.063 164.742 128.645 163.202 130.703 163.202C132.131 163.202 133.111 163.93 133.559 164.728V163.328H134.847V171H133.559V169.572C133.097 170.398 132.103 171.126 130.689 171.126C128.645 171.126 127.063 169.516 127.063 167.136ZM133.559 167.15C133.559 165.372 132.355 164.308 130.955 164.308C129.555 164.308 128.365 165.33 128.365 167.136C128.365 168.942 129.555 170.006 130.955 170.006C132.355 170.006 133.559 168.956 133.559 167.15ZM138.274 166.828V171H137V163.328H138.274V164.574C138.708 163.72 139.534 163.188 140.752 163.188V164.504H140.416C139.198 164.504 138.274 165.05 138.274 166.828ZM145.485 164.28C144.239 164.28 143.203 165.106 143.063 166.604H147.907C147.921 165.106 146.801 164.28 145.485 164.28ZM149.069 168.634C148.677 170.034 147.445 171.126 145.541 171.126C143.357 171.126 141.747 169.586 141.747 167.15C141.747 164.728 143.301 163.202 145.541 163.202C147.767 163.202 149.223 164.77 149.223 166.87C149.223 167.15 149.209 167.374 149.181 167.64H143.049C143.147 169.194 144.239 170.048 145.541 170.048C146.689 170.048 147.417 169.46 147.697 168.634H149.069ZM154.917 168.9V164.378H153.923V163.328H154.917V161.396H156.191V163.328H158.193V164.378H156.191V168.9C156.191 169.656 156.471 169.922 157.255 169.922H158.193V171H157.045C155.687 171 154.917 170.44 154.917 168.9ZM167.016 167.15C167.016 169.586 165.266 171.126 163.082 171.126C160.912 171.126 159.26 169.586 159.26 167.15C159.26 164.728 160.968 163.202 163.138 163.202C165.322 163.202 167.016 164.728 167.016 167.15ZM160.562 167.15C160.562 169.096 161.752 170.006 163.082 170.006C164.412 170.006 165.714 169.096 165.714 167.15C165.714 165.218 164.44 164.308 163.124 164.308C161.78 164.308 160.562 165.218 160.562 167.15ZM172.704 168.9V164.378H171.71V163.328H172.704V161.396H173.978V163.328H175.98V164.378H173.978V168.9C173.978 169.656 174.258 169.922 175.042 169.922H175.98V171H174.832C173.474 171 172.704 170.44 172.704 168.9ZM177.523 171V160.64H178.797V164.434C179.301 163.622 180.253 163.188 181.331 163.188C183.039 163.188 184.397 164.28 184.397 166.478V171H183.137V166.66C183.137 165.092 182.283 164.294 180.995 164.294C179.693 164.294 178.797 165.106 178.797 166.758V171H177.523ZM189.74 164.28C188.494 164.28 187.458 165.106 187.318 166.604H192.162C192.176 165.106 191.056 164.28 189.74 164.28ZM193.324 168.634C192.932 170.034 191.7 171.126 189.796 171.126C187.612 171.126 186.002 169.586 186.002 167.15C186.002 164.728 187.556 163.202 189.796 163.202C192.022 163.202 193.478 164.77 193.478 166.87C193.478 167.15 193.464 167.374 193.436 167.64H187.304C187.402 169.194 188.494 170.048 189.796 170.048C190.944 170.048 191.672 169.46 191.952 168.634H193.324ZM200.166 164.742C200.628 163.93 201.636 163.202 203.036 163.202C205.094 163.202 206.676 164.742 206.676 167.136C206.676 169.516 205.094 171.126 203.036 171.126C201.636 171.126 200.642 170.37 200.166 169.586V174.64H198.892V163.328H200.166V164.742ZM205.374 167.136C205.374 165.33 204.184 164.308 202.77 164.308C201.384 164.308 200.166 165.372 200.166 167.15C200.166 168.956 201.384 170.006 202.77 170.006C204.184 170.006 205.374 168.942 205.374 167.136ZM215.157 163.328V171H213.883V169.866C213.393 170.664 212.455 171.112 211.433 171.112C209.669 171.112 208.283 170.02 208.283 167.822V163.328H209.543V167.654C209.543 169.208 210.397 170.006 211.685 170.006C213.001 170.006 213.883 169.194 213.883 167.542V163.328H215.157ZM218.582 164.756C219.072 163.902 220.094 163.202 221.452 163.202C223.524 163.202 225.092 164.742 225.092 167.136C225.092 169.516 223.51 171.126 221.452 171.126C220.052 171.126 219.058 170.426 218.582 169.586V171H217.308V160.64H218.582V164.756ZM223.79 167.136C223.79 165.33 222.6 164.308 221.186 164.308C219.8 164.308 218.582 165.372 218.582 167.15C218.582 168.956 219.8 170.006 221.186 170.006C222.6 170.006 223.79 168.942 223.79 167.136ZM226.769 171V160.64H228.043V171H226.769ZM230.215 171V163.328H231.489V171H230.215ZM230.873 162.082C230.383 162.082 230.005 161.704 230.005 161.214C230.005 160.724 230.383 160.346 230.873 160.346C231.335 160.346 231.713 160.724 231.713 161.214C231.713 161.704 231.335 162.082 230.873 162.082ZM233.184 167.15C233.184 164.742 234.738 163.202 236.922 163.202C238.826 163.202 240.072 164.182 240.464 165.792H239.092C238.826 164.868 238.056 164.28 236.922 164.28C235.522 164.28 234.486 165.274 234.486 167.15C234.486 169.054 235.522 170.048 236.922 170.048C238.056 170.048 238.812 169.502 239.092 168.536H240.464C240.072 170.062 238.826 171.126 236.922 171.126C234.738 171.126 233.184 169.586 233.184 167.15ZM243.41 170.216C243.41 170.706 243.032 171.084 242.57 171.084C242.08 171.084 241.702 170.706 241.702 170.216C241.702 169.726 242.08 169.348 242.57 169.348C243.032 169.348 243.41 169.726 243.41 170.216ZM248.836 171V161.242H250.11V171H248.836ZM252.519 171V164.378H251.525V163.328H252.519V162.782C252.519 161.074 253.359 160.304 255.319 160.304V161.368C254.171 161.368 253.793 161.788 253.793 162.782V163.328H255.403V164.378H253.793V171H252.519ZM260.621 171V163.328H261.895V171H260.621ZM261.279 162.082C260.789 162.082 260.411 161.704 260.411 161.214C260.411 160.724 260.789 160.346 261.279 160.346C261.741 160.346 262.119 160.724 262.119 161.214C262.119 161.704 261.741 162.082 261.279 162.082ZM264.346 168.9V164.378H263.352V163.328H264.346V161.396H265.62V163.328H267.622V164.378H265.62V168.9C265.62 169.656 265.9 169.922 266.684 169.922H267.622V171H266.474C265.116 171 264.346 170.44 264.346 168.9ZM268.76 162.642L268.578 159.856H269.81L269.642 162.642H268.76ZM276.91 168.914C276.91 170.174 275.804 171.126 274.11 171.126C272.318 171.126 271.058 170.146 270.974 168.746H272.29C272.36 169.488 273.018 170.048 274.096 170.048C275.104 170.048 275.664 169.544 275.664 168.914C275.664 167.206 271.128 168.2 271.128 165.344C271.128 164.168 272.234 163.202 273.942 163.202C275.636 163.202 276.756 164.112 276.84 165.61H275.566C275.51 164.84 274.922 164.28 273.9 164.28C272.962 164.28 272.402 164.728 272.402 165.344C272.402 167.164 276.854 166.17 276.91 168.914ZM281.965 167.136C281.965 164.742 283.547 163.202 285.605 163.202C287.033 163.202 288.013 163.93 288.461 164.728V163.328H289.749V171H288.461V169.572C287.999 170.398 287.005 171.126 285.591 171.126C283.547 171.126 281.965 169.516 281.965 167.136ZM288.461 167.15C288.461 165.372 287.257 164.308 285.857 164.308C284.457 164.308 283.267 165.33 283.267 167.136C283.267 168.942 284.457 170.006 285.857 170.006C287.257 170.006 288.461 168.956 288.461 167.15ZM101.152 191V186.66C101.152 185.092 100.312 184.294 99.052 184.294C97.764 184.294 96.882 185.12 96.882 186.772V191H95.622V186.66C95.622 185.092 94.782 184.294 93.522 184.294C92.234 184.294 91.352 185.12 91.352 186.772V191H90.078V183.328H91.352V184.434C91.856 183.622 92.766 183.188 93.774 183.188C95.034 183.188 96.084 183.748 96.588 184.896C97.036 183.79 98.128 183.188 99.304 183.188C101.054 183.188 102.412 184.28 102.412 186.478V191H101.152ZM111.782 187.15C111.782 189.586 110.032 191.126 107.848 191.126C105.678 191.126 104.026 189.586 104.026 187.15C104.026 184.728 105.734 183.202 107.904 183.202C110.088 183.202 111.782 184.728 111.782 187.15ZM105.328 187.15C105.328 189.096 106.518 190.006 107.848 190.006C109.178 190.006 110.48 189.096 110.48 187.15C110.48 185.218 109.206 184.308 107.89 184.308C106.546 184.308 105.328 185.218 105.328 187.15ZM114.731 184.756C115.221 183.902 116.243 183.202 117.601 183.202C119.673 183.202 121.241 184.742 121.241 187.136C121.241 189.516 119.659 191.126 117.601 191.126C116.201 191.126 115.207 190.426 114.731 189.586V191H113.457V180.64H114.731V184.756ZM119.939 187.136C119.939 185.33 118.749 184.308 117.335 184.308C115.949 184.308 114.731 185.372 114.731 187.15C114.731 188.956 115.949 190.006 117.335 190.006C118.749 190.006 119.939 188.942 119.939 187.136ZM122.918 191V183.328H124.192V191H122.918ZM123.576 182.082C123.086 182.082 122.708 181.704 122.708 181.214C122.708 180.724 123.086 180.346 123.576 180.346C124.038 180.346 124.416 180.724 124.416 181.214C124.416 181.704 124.038 182.082 123.576 182.082ZM126.363 191V180.64H127.637V191H126.363ZM133.07 184.28C131.824 184.28 130.788 185.106 130.648 186.604H135.492C135.506 185.106 134.386 184.28 133.07 184.28ZM136.654 188.634C136.262 190.034 135.03 191.126 133.126 191.126C130.942 191.126 129.332 189.586 129.332 187.15C129.332 184.728 130.886 183.202 133.126 183.202C135.352 183.202 136.808 184.77 136.808 186.87C136.808 187.15 136.794 187.374 136.766 187.64H130.634C130.732 189.194 131.824 190.048 133.126 190.048C134.274 190.048 135.002 189.46 135.282 188.634H136.654ZM141.747 187.136C141.747 184.742 143.329 183.202 145.387 183.202C146.815 183.202 147.795 183.93 148.243 184.728V183.328H149.531V191H148.243V189.572C147.781 190.398 146.787 191.126 145.373 191.126C143.329 191.126 141.747 189.516 141.747 187.136ZM148.243 187.15C148.243 185.372 147.039 184.308 145.639 184.308C144.239 184.308 143.049 185.33 143.049 187.136C143.049 188.942 144.239 190.006 145.639 190.006C147.039 190.006 148.243 188.956 148.243 187.15ZM152.957 184.742C153.419 183.93 154.427 183.202 155.827 183.202C157.885 183.202 159.467 184.742 159.467 187.136C159.467 189.516 157.885 191.126 155.827 191.126C154.427 191.126 153.433 190.37 152.957 189.586V194.64H151.683V183.328H152.957V184.742ZM158.165 187.136C158.165 185.33 156.975 184.308 155.561 184.308C154.175 184.308 152.957 185.372 152.957 187.15C152.957 188.956 154.175 190.006 155.561 190.006C156.975 190.006 158.165 188.942 158.165 187.136ZM162.418 184.742C162.88 183.93 163.888 183.202 165.288 183.202C167.346 183.202 168.928 184.742 168.928 187.136C168.928 189.516 167.346 191.126 165.288 191.126C163.888 191.126 162.894 190.37 162.418 189.586V194.64H161.144V183.328H162.418V184.742ZM167.626 187.136C167.626 185.33 166.436 184.308 165.022 184.308C163.636 184.308 162.418 185.372 162.418 187.15C162.418 188.956 163.636 190.006 165.022 190.006C166.436 190.006 167.626 188.942 167.626 187.136ZM174.618 188.9V184.378H173.624V183.328H174.618V181.396H175.892V183.328H177.894V184.378H175.892V188.9C175.892 189.656 176.172 189.922 176.956 189.922H177.894V191H176.746C175.388 191 174.618 190.44 174.618 188.9ZM179.437 191V180.64H180.711V184.434C181.215 183.622 182.167 183.188 183.245 183.188C184.953 183.188 186.311 184.28 186.311 186.478V191H185.051V186.66C185.051 185.092 184.197 184.294 182.909 184.294C181.607 184.294 180.711 185.106 180.711 186.758V191H179.437ZM191.654 184.28C190.408 184.28 189.372 185.106 189.232 186.604H194.076C194.09 185.106 192.97 184.28 191.654 184.28ZM195.238 188.634C194.846 190.034 193.614 191.126 191.71 191.126C189.526 191.126 187.916 189.586 187.916 187.15C187.916 184.728 189.47 183.202 191.71 183.202C193.936 183.202 195.392 184.77 195.392 186.87C195.392 187.15 195.378 187.374 195.35 187.64H189.218C189.316 189.194 190.408 190.048 191.71 190.048C192.858 190.048 193.586 189.46 193.866 188.634H195.238ZM202.688 191V186.66C202.688 185.092 201.834 184.294 200.546 184.294C199.244 184.294 198.348 185.106 198.348 186.758V191H197.074V183.328H198.348V184.42C198.852 183.622 199.776 183.188 200.812 183.188C202.59 183.188 203.948 184.28 203.948 186.478V191H202.688ZM211.26 191L208.852 183.328H210.154L211.918 189.768L213.822 183.328H215.124L216.986 189.782L218.722 183.328H219.982L217.588 191H216.272L214.424 184.91L212.576 191H211.26ZM224.508 184.28C223.262 184.28 222.226 185.106 222.086 186.604H226.93C226.944 185.106 225.824 184.28 224.508 184.28ZM228.092 188.634C227.7 190.034 226.468 191.126 224.564 191.126C222.38 191.126 220.77 189.586 220.77 187.15C220.77 184.728 222.324 183.202 224.564 183.202C226.79 183.202 228.246 184.77 228.246 186.87C228.246 187.15 228.232 187.374 228.204 187.64H222.072C222.17 189.194 223.262 190.048 224.564 190.048C225.712 190.048 226.44 189.46 226.72 188.634H228.092ZM235.158 191L232.75 183.328H234.052L235.816 189.768L237.72 183.328H239.022L240.884 189.782L242.62 183.328H243.88L241.486 191H240.17L238.322 184.91L236.474 191H235.158ZM245.144 191V183.328H246.418V191H245.144ZM245.802 182.082C245.312 182.082 244.934 181.704 244.934 181.214C244.934 180.724 245.312 180.346 245.802 180.346C246.264 180.346 246.642 180.724 246.642 181.214C246.642 181.704 246.264 182.082 245.802 182.082ZM248.59 191V180.64H249.864V191H248.59ZM252.035 191V180.64H253.309V191H252.035ZM264.729 188.914C264.729 190.174 263.623 191.126 261.929 191.126C260.137 191.126 258.877 190.146 258.793 188.746H260.109C260.179 189.488 260.837 190.048 261.915 190.048C262.923 190.048 263.483 189.544 263.483 188.914C263.483 187.206 258.947 188.2 258.947 185.344C258.947 184.168 260.053 183.202 261.761 183.202C263.455 183.202 264.575 184.112 264.659 185.61H263.385C263.329 184.84 262.741 184.28 261.719 184.28C260.781 184.28 260.221 184.728 260.221 185.344C260.221 187.164 264.673 186.17 264.729 188.914ZM273.331 183.328V191H272.057V189.866C271.567 190.664 270.629 191.112 269.607 191.112C267.843 191.112 266.457 190.02 266.457 187.822V183.328H267.717V187.654C267.717 189.208 268.571 190.006 269.859 190.006C271.175 190.006 272.057 189.194 272.057 187.542V183.328H273.331ZM276.756 184.756C277.246 183.902 278.268 183.202 279.626 183.202C281.698 183.202 283.266 184.742 283.266 187.136C283.266 189.516 281.684 191.126 279.626 191.126C278.226 191.126 277.232 190.426 276.756 189.586V191H275.482V180.64H276.756V184.756ZM281.964 187.136C281.964 185.33 280.774 184.308 279.36 184.308C277.974 184.308 276.756 185.372 276.756 187.15C276.756 188.956 277.974 190.006 279.36 190.006C280.774 190.006 281.964 188.942 281.964 187.136ZM296.017 191V186.66C296.017 185.092 295.177 184.294 293.917 184.294C292.629 184.294 291.747 185.12 291.747 186.772V191H290.487V186.66C290.487 185.092 289.647 184.294 288.387 184.294C287.099 184.294 286.217 185.12 286.217 186.772V191H284.943V183.328H286.217V184.434C286.721 183.622 287.631 183.188 288.639 183.188C289.899 183.188 290.949 183.748 291.453 184.896C291.901 183.79 292.993 183.188 294.169 183.188C295.919 183.188 297.277 184.28 297.277 186.478V191H296.017ZM299.367 191V183.328H300.641V191H299.367ZM300.025 182.082C299.535 182.082 299.157 181.704 299.157 181.214C299.157 180.724 299.535 180.346 300.025 180.346C300.487 180.346 300.865 180.724 300.865 181.214C300.865 181.704 300.487 182.082 300.025 182.082ZM303.092 188.9V184.378H302.098V183.328H303.092V181.396H304.366V183.328H306.368V184.378H304.366V188.9C304.366 189.656 304.646 189.922 305.43 189.922H306.368V191H305.22C303.862 191 303.092 190.44 303.092 188.9ZM311.644 191V183.328H312.918V191H311.644ZM312.302 182.082C311.812 182.082 311.434 181.704 311.434 181.214C311.434 180.724 311.812 180.346 312.302 180.346C312.764 180.346 313.142 180.724 313.142 181.214C313.142 181.704 312.764 182.082 312.302 182.082ZM315.37 188.9V184.378H314.376V183.328H315.37V181.396H316.644V183.328H318.646V184.378H316.644V188.9C316.644 189.656 316.924 189.922 317.708 189.922H318.646V191H317.498C316.14 191 315.37 190.44 315.37 188.9ZM90.358 208.9V204.378H89.364V203.328H90.358V201.396H91.632V203.328H93.634V204.378H91.632V208.9C91.632 209.656 91.912 209.922 92.696 209.922H93.634V211H92.486C91.128 211 90.358 210.44 90.358 208.9ZM102.458 207.15C102.458 209.586 100.708 211.126 98.5236 211.126C96.3536 211.126 94.7016 209.586 94.7016 207.15C94.7016 204.728 96.4096 203.202 98.5796 203.202C100.764 203.202 102.458 204.728 102.458 207.15ZM96.0036 207.15C96.0036 209.096 97.1936 210.006 98.5236 210.006C99.8536 210.006 101.156 209.096 101.156 207.15C101.156 205.218 99.8816 204.308 98.5656 204.308C97.2216 204.308 96.0036 205.218 96.0036 207.15ZM114.417 211L113.633 208.83H109.377L108.593 211H107.249L110.777 201.298H112.247L115.761 211H114.417ZM113.269 207.794L111.505 202.866L109.741 207.794H113.269ZM118.573 204.742C119.035 203.93 120.043 203.202 121.443 203.202C123.501 203.202 125.083 204.742 125.083 207.136C125.083 209.516 123.501 211.126 121.443 211.126C120.043 211.126 119.049 210.37 118.573 209.586V214.64H117.299V203.328H118.573V204.742ZM123.781 207.136C123.781 205.33 122.591 204.308 121.177 204.308C119.791 204.308 118.573 205.372 118.573 207.15C118.573 208.956 119.791 210.006 121.177 210.006C122.591 210.006 123.781 208.942 123.781 207.136ZM128.034 204.742C128.496 203.93 129.504 203.202 130.904 203.202C132.962 203.202 134.544 204.742 134.544 207.136C134.544 209.516 132.962 211.126 130.904 211.126C129.504 211.126 128.51 210.37 128.034 209.586V214.64H126.76V203.328H128.034V204.742ZM133.242 207.136C133.242 205.33 132.052 204.308 130.638 204.308C129.252 204.308 128.034 205.372 128.034 207.15C128.034 208.956 129.252 210.006 130.638 210.006C132.052 210.006 133.242 208.942 133.242 207.136ZM136.221 211V200.64H137.495V211H136.221ZM142.928 204.28C141.682 204.28 140.646 205.106 140.506 206.604H145.35C145.364 205.106 144.244 204.28 142.928 204.28ZM146.512 208.634C146.12 210.034 144.888 211.126 142.984 211.126C140.8 211.126 139.19 209.586 139.19 207.15C139.19 204.728 140.744 203.202 142.984 203.202C145.21 203.202 146.666 204.77 146.666 206.87C146.666 207.15 146.652 207.374 146.624 207.64H140.492C140.59 209.194 141.682 210.048 142.984 210.048C144.132 210.048 144.86 209.46 145.14 208.634H146.512ZM151.604 207.136C151.604 204.742 153.186 203.202 155.244 203.202C156.672 203.202 157.652 203.93 158.1 204.728V203.328H159.388V211H158.1V209.572C157.638 210.398 156.644 211.126 155.23 211.126C153.186 211.126 151.604 209.516 151.604 207.136ZM158.1 207.15C158.1 205.372 156.896 204.308 155.496 204.308C154.096 204.308 152.906 205.33 152.906 207.136C152.906 208.942 154.096 210.006 155.496 210.006C156.896 210.006 158.1 208.956 158.1 207.15ZM167.155 211V206.66C167.155 205.092 166.301 204.294 165.013 204.294C163.711 204.294 162.815 205.106 162.815 206.758V211H161.541V203.328H162.815V204.42C163.319 203.622 164.243 203.188 165.279 203.188C167.057 203.188 168.415 204.28 168.415 206.478V211H167.155ZM170.02 207.136C170.02 204.742 171.602 203.202 173.674 203.202C174.878 203.202 175.984 203.818 176.516 204.7V200.64H177.804V211H176.516V209.558C176.054 210.412 175.06 211.126 173.66 211.126C171.602 211.126 170.02 209.516 170.02 207.136ZM176.516 207.15C176.516 205.372 175.312 204.308 173.912 204.308C172.512 204.308 171.322 205.33 171.322 207.136C171.322 208.942 172.512 210.006 173.912 210.006C175.312 210.006 176.516 208.956 176.516 207.15ZM188.113 201.13C190.171 201.13 191.879 202.194 192.607 204.07H191.081C190.549 202.936 189.485 202.278 188.113 202.278C186.055 202.278 184.515 203.762 184.515 206.114C184.515 208.452 186.055 209.936 188.113 209.936C190.031 209.936 191.347 208.704 191.543 206.772H187.651V205.736H192.901V206.716C192.677 209.138 190.759 211.084 188.113 211.084C185.369 211.084 183.213 209.04 183.213 206.114C183.213 203.188 185.369 201.13 188.113 201.13ZM201.866 207.15C201.866 209.586 200.116 211.126 197.932 211.126C195.762 211.126 194.11 209.586 194.11 207.15C194.11 204.728 195.818 203.202 197.988 203.202C200.172 203.202 201.866 204.728 201.866 207.15ZM195.412 207.15C195.412 209.096 196.602 210.006 197.932 210.006C199.262 210.006 200.564 209.096 200.564 207.15C200.564 205.218 199.29 204.308 197.974 204.308C196.63 204.308 195.412 205.218 195.412 207.15ZM210.821 207.15C210.821 209.586 209.071 211.126 206.887 211.126C204.717 211.126 203.065 209.586 203.065 207.15C203.065 204.728 204.773 203.202 206.943 203.202C209.127 203.202 210.821 204.728 210.821 207.15ZM204.367 207.15C204.367 209.096 205.557 210.006 206.887 210.006C208.217 210.006 209.519 209.096 209.519 207.15C209.519 205.218 208.245 204.308 206.929 204.308C205.585 204.308 204.367 205.218 204.367 207.15ZM212.02 207.136C212.02 204.742 213.602 203.202 215.66 203.202C217.06 203.202 218.068 203.902 218.516 204.728V203.328H219.804V211.168C219.804 213.282 218.39 214.78 216.136 214.78C214.12 214.78 212.678 213.758 212.426 212.12H213.686C213.966 213.044 214.876 213.674 216.136 213.674C217.494 213.674 218.516 212.806 218.516 211.168V209.558C218.054 210.384 217.06 211.126 215.66 211.126C213.602 211.126 212.02 209.516 212.02 207.136ZM218.516 207.15C218.516 205.372 217.312 204.308 215.912 204.308C214.512 204.308 213.322 205.33 213.322 207.136C213.322 208.942 214.512 210.006 215.912 210.006C217.312 210.006 218.516 208.956 218.516 207.15ZM221.957 211V200.64H223.231V211H221.957ZM228.664 204.28C227.418 204.28 226.382 205.106 226.242 206.604H231.086C231.1 205.106 229.98 204.28 228.664 204.28ZM232.248 208.634C231.856 210.034 230.624 211.126 228.72 211.126C226.536 211.126 224.926 209.586 224.926 207.15C224.926 204.728 226.48 203.202 228.72 203.202C230.946 203.202 232.402 204.77 232.402 206.87C232.402 207.15 232.388 207.374 232.36 207.64H226.228C226.326 209.194 227.418 210.048 228.72 210.048C229.868 210.048 230.596 209.46 230.876 208.634H232.248ZM238.054 211V204.378H237.06V203.328H238.054V202.782C238.054 201.074 238.894 200.304 240.854 200.304V201.368C239.706 201.368 239.328 201.788 239.328 202.782V203.328H240.938V204.378H239.328V211H238.054ZM249.704 207.15C249.704 209.586 247.954 211.126 245.77 211.126C243.6 211.126 241.948 209.586 241.948 207.15C241.948 204.728 243.656 203.202 245.826 203.202C248.01 203.202 249.704 204.728 249.704 207.15ZM243.25 207.15C243.25 209.096 244.44 210.006 245.77 210.006C247.1 210.006 248.402 209.096 248.402 207.15C248.402 205.218 247.128 204.308 245.812 204.308C244.468 204.308 243.25 205.218 243.25 207.15ZM252.653 206.828V211H251.379V203.328H252.653V204.574C253.087 203.72 253.913 203.188 255.131 203.188V204.504H254.795C253.577 204.504 252.653 205.05 252.653 206.828ZM261.608 206.828V211H260.334V203.328H261.608V204.574C262.042 203.72 262.868 203.188 264.086 203.188V204.504H263.75C262.532 204.504 261.608 205.05 261.608 206.828ZM268.819 204.28C267.573 204.28 266.537 205.106 266.397 206.604H271.241C271.255 205.106 270.135 204.28 268.819 204.28ZM272.403 208.634C272.011 210.034 270.779 211.126 268.875 211.126C266.691 211.126 265.081 209.586 265.081 207.15C265.081 204.728 266.635 203.202 268.875 203.202C271.101 203.202 272.557 204.77 272.557 206.87C272.557 207.15 272.543 207.374 272.515 207.64H266.383C266.481 209.194 267.573 210.048 268.875 210.048C270.023 210.048 270.751 209.46 271.031 208.634H272.403ZM273.328 203.328H274.7L277.094 209.824L279.474 203.328H280.832L277.822 211H276.338L273.328 203.328ZM282.086 211V203.328H283.36V211H282.086ZM282.744 202.082C282.254 202.082 281.876 201.704 281.876 201.214C281.876 200.724 282.254 200.346 282.744 200.346C283.206 200.346 283.584 200.724 283.584 201.214C283.584 201.704 283.206 202.082 282.744 202.082ZM288.793 204.28C287.547 204.28 286.511 205.106 286.371 206.604H291.215C291.229 205.106 290.109 204.28 288.793 204.28ZM292.377 208.634C291.985 210.034 290.753 211.126 288.849 211.126C286.665 211.126 285.055 209.586 285.055 207.15C285.055 204.728 286.609 203.202 288.849 203.202C291.075 203.202 292.531 204.77 292.531 206.87C292.531 207.15 292.517 207.374 292.489 207.64H286.357C286.455 209.194 287.547 210.048 288.849 210.048C289.997 210.048 290.725 209.46 291.005 208.634H292.377ZM295.711 211L293.303 203.328H294.605L296.369 209.768L298.273 203.328H299.575L301.437 209.782L303.173 203.328H304.433L302.039 211H300.723L298.875 204.91L297.027 211H295.711ZM306.943 210.216C306.943 210.706 306.565 211.084 306.103 211.084C305.613 211.084 305.235 210.706 305.235 210.216C305.235 209.726 305.613 209.348 306.103 209.348C306.565 209.348 306.943 209.726 306.943 210.216Z" fill="#4F668E"/>
</svg>
