<svg width="323" height="238" viewBox="0 0 323 238" fill="none" xmlns="http://www.w3.org/2000/svg">
<path d="M203.05 31H293C308.464 31 321 43.536 321 59V208C321 223.464 308.464 236 293 236H30C14.536 236 2.00001 223.464 2.00001 208V133.5" stroke="#23D9AE" stroke-width="3"/>
<path d="M54.349 89.96V104H50.929V95.58L47.789 104H45.029L41.869 95.56V104H38.449V89.96H42.489L46.429 99.68L50.329 89.96H54.349ZM56.1284 98.4C56.1284 97.2533 56.3417 96.2467 56.7684 95.38C57.2084 94.5133 57.8017 93.8467 58.5484 93.38C59.295 92.9133 60.1284 92.68 61.0484 92.68C61.835 92.68 62.5217 92.84 63.1084 93.16C63.7084 93.48 64.1684 93.9 64.4884 94.42V92.84H67.9084V104H64.4884V102.42C64.155 102.94 63.6884 103.36 63.0884 103.68C62.5017 104 61.815 104.16 61.0284 104.16C60.1217 104.16 59.295 103.927 58.5484 103.46C57.8017 102.98 57.2084 102.307 56.7684 101.44C56.3417 100.56 56.1284 99.5467 56.1284 98.4ZM64.4884 98.42C64.4884 97.5667 64.2484 96.8933 63.7684 96.4C63.3017 95.9067 62.7284 95.66 62.0484 95.66C61.3684 95.66 60.7884 95.9067 60.3084 96.4C59.8417 96.88 59.6084 97.5467 59.6084 98.4C59.6084 99.2533 59.8417 99.9333 60.3084 100.44C60.7884 100.933 61.3684 101.18 62.0484 101.18C62.7284 101.18 63.3017 100.933 63.7684 100.44C64.2484 99.9467 64.4884 99.2733 64.4884 98.42ZM72.1026 91.68C71.5026 91.68 71.0092 91.5067 70.6226 91.16C70.2492 90.8 70.0626 90.36 70.0626 89.84C70.0626 89.3067 70.2492 88.8667 70.6226 88.52C71.0092 88.16 71.5026 87.98 72.1026 87.98C72.6892 87.98 73.1692 88.16 73.5426 88.52C73.9292 88.8667 74.1226 89.3067 74.1226 89.84C74.1226 90.36 73.9292 90.8 73.5426 91.16C73.1692 91.5067 72.6892 91.68 72.1026 91.68ZM73.8026 92.84V104H70.3826V92.84H73.8026ZM83.081 92.72C84.3877 92.72 85.4277 93.1467 86.201 94C86.9877 94.84 87.381 96 87.381 97.48V104H83.981V97.94C83.981 97.1933 83.7877 96.6133 83.401 96.2C83.0143 95.7867 82.4943 95.58 81.841 95.58C81.1877 95.58 80.6677 95.7867 80.281 96.2C79.8943 96.6133 79.701 97.1933 79.701 97.94V104H76.281V92.84H79.701V94.32C80.0477 93.8267 80.5143 93.44 81.101 93.16C81.6877 92.8667 82.3477 92.72 83.081 92.72ZM95.9776 101.1V104H94.2376C92.9976 104 92.0309 103.7 91.3376 103.1C90.6442 102.487 90.2976 101.493 90.2976 100.12V95.68H88.9376V92.84H90.2976V90.12H93.7176V92.84H95.9576V95.68H93.7176V100.16C93.7176 100.493 93.7976 100.733 93.9576 100.88C94.1176 101.027 94.3842 101.1 94.7576 101.1H95.9776ZM108.403 98.24C108.403 98.56 108.383 98.8933 108.343 99.24H100.603C100.656 99.9333 100.876 100.467 101.263 100.84C101.663 101.2 102.149 101.38 102.723 101.38C103.576 101.38 104.169 101.02 104.503 100.3H108.143C107.956 101.033 107.616 101.693 107.123 102.28C106.643 102.867 106.036 103.327 105.303 103.66C104.569 103.993 103.749 104.16 102.843 104.16C101.749 104.16 100.776 103.927 99.9226 103.46C99.0692 102.993 98.4026 102.327 97.9226 101.46C97.4426 100.593 97.2026 99.58 97.2026 98.42C97.2026 97.26 97.4359 96.2467 97.9026 95.38C98.3826 94.5133 99.0492 93.8467 99.9026 93.38C100.756 92.9133 101.736 92.68 102.843 92.68C103.923 92.68 104.883 92.9067 105.723 93.36C106.563 93.8133 107.216 94.46 107.683 95.3C108.163 96.14 108.403 97.12 108.403 98.24ZM104.903 97.34C104.903 96.7533 104.703 96.2867 104.303 95.94C103.903 95.5933 103.403 95.42 102.803 95.42C102.229 95.42 101.743 95.5867 101.343 95.92C100.956 96.2533 100.716 96.7267 100.623 97.34H104.903ZM117.007 92.72C118.313 92.72 119.353 93.1467 120.127 94C120.913 94.84 121.307 96 121.307 97.48V104H117.907V97.94C117.907 97.1933 117.713 96.6133 117.327 96.2C116.94 95.7867 116.42 95.58 115.767 95.58C115.113 95.58 114.593 95.7867 114.207 96.2C113.82 96.6133 113.627 97.1933 113.627 97.94V104H110.207V92.84H113.627V94.32C113.973 93.8267 114.44 93.44 115.027 93.16C115.613 92.8667 116.273 92.72 117.007 92.72ZM123.003 98.4C123.003 97.2533 123.217 96.2467 123.643 95.38C124.083 94.5133 124.677 93.8467 125.423 93.38C126.17 92.9133 127.003 92.68 127.923 92.68C128.71 92.68 129.397 92.84 129.983 93.16C130.583 93.48 131.043 93.9 131.363 94.42V92.84H134.783V104H131.363V102.42C131.03 102.94 130.563 103.36 129.963 103.68C129.377 104 128.69 104.16 127.903 104.16C126.997 104.16 126.17 103.927 125.423 103.46C124.677 102.98 124.083 102.307 123.643 101.44C123.217 100.56 123.003 99.5467 123.003 98.4ZM131.363 98.42C131.363 97.5667 131.123 96.8933 130.643 96.4C130.177 95.9067 129.603 95.66 128.923 95.66C128.243 95.66 127.663 95.9067 127.183 96.4C126.717 96.88 126.483 97.5467 126.483 98.4C126.483 99.2533 126.717 99.9333 127.183 100.44C127.663 100.933 128.243 101.18 128.923 101.18C129.603 101.18 130.177 100.933 130.643 100.44C131.123 99.9467 131.363 99.2733 131.363 98.42ZM144.058 92.72C145.364 92.72 146.404 93.1467 147.178 94C147.964 94.84 148.358 96 148.358 97.48V104H144.958V97.94C144.958 97.1933 144.764 96.6133 144.378 96.2C143.991 95.7867 143.471 95.58 142.818 95.58C142.164 95.58 141.644 95.7867 141.258 96.2C140.871 96.6133 140.678 97.1933 140.678 97.94V104H137.258V92.84H140.678V94.32C141.024 93.8267 141.491 93.44 142.078 93.16C142.664 92.8667 143.324 92.72 144.058 92.72ZM150.054 98.42C150.054 97.26 150.287 96.2467 150.754 95.38C151.234 94.5133 151.894 93.8467 152.734 93.38C153.587 92.9133 154.561 92.68 155.654 92.68C157.054 92.68 158.221 93.0467 159.154 93.78C160.101 94.5133 160.721 95.5467 161.014 96.88H157.374C157.067 96.0267 156.474 95.6 155.594 95.6C154.967 95.6 154.467 95.8467 154.094 96.34C153.721 96.82 153.534 97.5133 153.534 98.42C153.534 99.3267 153.721 100.027 154.094 100.52C154.467 101 154.967 101.24 155.594 101.24C156.474 101.24 157.067 100.813 157.374 99.96H161.014C160.721 101.267 160.101 102.293 159.154 103.04C158.207 103.787 157.041 104.16 155.654 104.16C154.561 104.16 153.587 103.927 152.734 103.46C151.894 102.993 151.234 102.327 150.754 101.46C150.287 100.593 150.054 99.58 150.054 98.42ZM173.364 98.24C173.364 98.56 173.344 98.8933 173.304 99.24H165.564C165.617 99.9333 165.837 100.467 166.224 100.84C166.624 101.2 167.11 101.38 167.684 101.38C168.537 101.38 169.13 101.02 169.464 100.3H173.104C172.917 101.033 172.577 101.693 172.084 102.28C171.604 102.867 170.997 103.327 170.264 103.66C169.53 103.993 168.71 104.16 167.804 104.16C166.71 104.16 165.737 103.927 164.884 103.46C164.03 102.993 163.364 102.327 162.884 101.46C162.404 100.593 162.164 99.58 162.164 98.42C162.164 97.26 162.397 96.2467 162.864 95.38C163.344 94.5133 164.01 93.8467 164.864 93.38C165.717 92.9133 166.697 92.68 167.804 92.68C168.884 92.68 169.844 92.9067 170.684 93.36C171.524 93.8133 172.177 94.46 172.644 95.3C173.124 96.14 173.364 97.12 173.364 98.24ZM169.864 97.34C169.864 96.7533 169.664 96.2867 169.264 95.94C168.864 95.5933 168.364 95.42 167.764 95.42C167.19 95.42 166.704 95.5867 166.304 95.92C165.917 96.2533 165.677 96.7267 165.584 97.34H169.864ZM190.146 104L188.846 102.74C187.553 103.727 186.006 104.22 184.206 104.22C183.126 104.22 182.186 104.047 181.386 103.7C180.586 103.34 179.966 102.84 179.526 102.2C179.099 101.547 178.886 100.787 178.886 99.92C178.886 99.04 179.119 98.2467 179.586 97.54C180.066 96.82 180.779 96.2333 181.726 95.78C181.379 95.3533 181.133 94.9467 180.986 94.56C180.839 94.16 180.766 93.7267 180.766 93.26C180.766 92.5933 180.939 91.9867 181.286 91.44C181.633 90.8933 182.133 90.4667 182.786 90.16C183.453 89.84 184.239 89.68 185.146 89.68C186.066 89.68 186.846 89.8467 187.486 90.18C188.126 90.5133 188.606 90.96 188.926 91.52C189.246 92.08 189.393 92.6933 189.366 93.36H186.146C186.159 93 186.066 92.7267 185.866 92.54C185.679 92.34 185.426 92.24 185.106 92.24C184.786 92.24 184.519 92.3333 184.306 92.52C184.093 92.7067 183.986 92.9467 183.986 93.24C183.986 93.52 184.073 93.8133 184.246 94.12C184.433 94.4267 184.719 94.78 185.106 95.18L188.526 98.52C188.553 98.4533 188.586 98.3733 188.626 98.28C188.679 98.1867 188.733 98.08 188.786 97.96L189.526 96.7H192.946L191.986 98.44C191.626 99.2267 191.213 99.9733 190.746 100.68L194.126 104H190.146ZM184.366 101.46C185.259 101.46 186.053 101.207 186.746 100.7L183.626 97.68C182.666 98.1733 182.186 98.84 182.186 99.68C182.186 100.187 182.379 100.613 182.766 100.96C183.166 101.293 183.699 101.46 184.366 101.46ZM202.961 89.96V98.36C202.961 99.2 203.168 99.8467 203.581 100.3C203.995 100.753 204.601 100.98 205.401 100.98C206.201 100.98 206.815 100.753 207.241 100.3C207.668 99.8467 207.881 99.2 207.881 98.36V89.96H211.301V98.34C211.301 99.5933 211.035 100.653 210.501 101.52C209.968 102.387 209.248 103.04 208.341 103.48C207.448 103.92 206.448 104.14 205.341 104.14C204.235 104.14 203.241 103.927 202.361 103.5C201.495 103.06 200.808 102.407 200.301 101.54C199.795 100.66 199.541 99.5933 199.541 98.34V89.96H202.961ZM217.123 94.42C217.456 93.9 217.916 93.48 218.503 93.16C219.09 92.84 219.776 92.68 220.563 92.68C221.483 92.68 222.316 92.9133 223.063 93.38C223.81 93.8467 224.396 94.5133 224.823 95.38C225.263 96.2467 225.483 97.2533 225.483 98.4C225.483 99.5467 225.263 100.56 224.823 101.44C224.396 102.307 223.81 102.98 223.063 103.46C222.316 103.927 221.483 104.16 220.563 104.16C219.79 104.16 219.103 104 218.503 103.68C217.916 103.36 217.456 102.947 217.123 102.44V109.32H213.703V92.84H217.123V94.42ZM222.003 98.4C222.003 97.5467 221.763 96.88 221.283 96.4C220.816 95.9067 220.236 95.66 219.543 95.66C218.863 95.66 218.283 95.9067 217.803 96.4C217.336 96.8933 217.103 97.5667 217.103 98.42C217.103 99.2733 217.336 99.9467 217.803 100.44C218.283 100.933 218.863 101.18 219.543 101.18C220.223 101.18 220.803 100.933 221.283 100.44C221.763 99.9333 222.003 99.2533 222.003 98.4ZM231.517 92.68C232.304 92.68 232.99 92.84 233.577 93.16C234.177 93.48 234.637 93.9 234.957 94.42V92.84H238.377V103.98C238.377 105.007 238.17 105.933 237.757 106.76C237.357 107.6 236.737 108.267 235.897 108.76C235.07 109.253 234.037 109.5 232.797 109.5C231.144 109.5 229.804 109.107 228.777 108.32C227.75 107.547 227.164 106.493 227.017 105.16H230.397C230.504 105.587 230.757 105.92 231.157 106.16C231.557 106.413 232.05 106.54 232.637 106.54C233.344 106.54 233.904 106.333 234.317 105.92C234.744 105.52 234.957 104.873 234.957 103.98V102.4C234.624 102.92 234.164 103.347 233.577 103.68C232.99 104 232.304 104.16 231.517 104.16C230.597 104.16 229.764 103.927 229.017 103.46C228.27 102.98 227.677 102.307 227.237 101.44C226.81 100.56 226.597 99.5467 226.597 98.4C226.597 97.2533 226.81 96.2467 227.237 95.38C227.677 94.5133 228.27 93.8467 229.017 93.38C229.764 92.9133 230.597 92.68 231.517 92.68ZM234.957 98.42C234.957 97.5667 234.717 96.8933 234.237 96.4C233.77 95.9067 233.197 95.66 232.517 95.66C231.837 95.66 231.257 95.9067 230.777 96.4C230.31 96.88 230.077 97.5467 230.077 98.4C230.077 99.2533 230.31 99.9333 230.777 100.44C231.257 100.933 231.837 101.18 232.517 101.18C233.197 101.18 233.77 100.933 234.237 100.44C234.717 99.9467 234.957 99.2733 234.957 98.42ZM244.271 94.7C244.671 94.0867 245.171 93.6067 245.771 93.26C246.371 92.9 247.038 92.72 247.771 92.72V96.34H246.831C245.978 96.34 245.338 96.5267 244.911 96.9C244.485 97.26 244.271 97.9 244.271 98.82V104H240.851V92.84H244.271V94.7ZM248.726 98.4C248.726 97.2533 248.939 96.2467 249.366 95.38C249.806 94.5133 250.399 93.8467 251.146 93.38C251.893 92.9133 252.726 92.68 253.646 92.68C254.433 92.68 255.119 92.84 255.706 93.16C256.306 93.48 256.766 93.9 257.086 94.42V92.84H260.506V104H257.086V102.42C256.753 102.94 256.286 103.36 255.686 103.68C255.099 104 254.413 104.16 253.626 104.16C252.719 104.16 251.893 103.927 251.146 103.46C250.399 102.98 249.806 102.307 249.366 101.44C248.939 100.56 248.726 99.5467 248.726 98.4ZM257.086 98.42C257.086 97.5667 256.846 96.8933 256.366 96.4C255.899 95.9067 255.326 95.66 254.646 95.66C253.966 95.66 253.386 95.9067 252.906 96.4C252.439 96.88 252.206 97.5467 252.206 98.4C252.206 99.2533 252.439 99.9333 252.906 100.44C253.386 100.933 253.966 101.18 254.646 101.18C255.326 101.18 255.899 100.933 256.366 100.44C256.846 99.9467 257.086 99.2733 257.086 98.42ZM262.3 98.4C262.3 97.2533 262.514 96.2467 262.94 95.38C263.38 94.5133 263.974 93.8467 264.72 93.38C265.467 92.9133 266.3 92.68 267.22 92.68C267.954 92.68 268.62 92.8333 269.22 93.14C269.834 93.4467 270.314 93.86 270.66 94.38V89.2H274.08V104H270.66V102.4C270.34 102.933 269.88 103.36 269.28 103.68C268.694 104 268.007 104.16 267.22 104.16C266.3 104.16 265.467 103.927 264.72 103.46C263.974 102.98 263.38 102.307 262.94 101.44C262.514 100.56 262.3 99.5467 262.3 98.4ZM270.66 98.42C270.66 97.5667 270.42 96.8933 269.94 96.4C269.474 95.9067 268.9 95.66 268.22 95.66C267.54 95.66 266.96 95.9067 266.48 96.4C266.014 96.88 265.78 97.5467 265.78 98.4C265.78 99.2533 266.014 99.9333 266.48 100.44C266.96 100.933 267.54 101.18 268.22 101.18C268.9 101.18 269.474 100.933 269.94 100.44C270.42 99.9467 270.66 99.2733 270.66 98.42ZM287.074 98.24C287.074 98.56 287.054 98.8933 287.014 99.24H279.274C279.328 99.9333 279.548 100.467 279.934 100.84C280.334 101.2 280.821 101.38 281.394 101.38C282.248 101.38 282.841 101.02 283.174 100.3H286.814C286.628 101.033 286.288 101.693 285.794 102.28C285.314 102.867 284.708 103.327 283.974 103.66C283.241 103.993 282.421 104.16 281.514 104.16C280.421 104.16 279.448 103.927 278.594 103.46C277.741 102.993 277.074 102.327 276.594 101.46C276.114 100.593 275.874 99.58 275.874 98.42C275.874 97.26 276.108 96.2467 276.574 95.38C277.054 94.5133 277.721 93.8467 278.574 93.38C279.428 92.9133 280.408 92.68 281.514 92.68C282.594 92.68 283.554 92.9067 284.394 93.36C285.234 93.8133 285.888 94.46 286.354 95.3C286.834 96.14 287.074 97.12 287.074 98.24ZM283.574 97.34C283.574 96.7533 283.374 96.2867 282.974 95.94C282.574 95.5933 282.074 95.42 281.474 95.42C280.901 95.42 280.414 95.5867 280.014 95.92C279.628 96.2533 279.388 96.7267 279.294 97.34H283.574ZM293.419 104.16C292.445 104.16 291.579 103.993 290.819 103.66C290.059 103.327 289.459 102.873 289.019 102.3C288.579 101.713 288.332 101.06 288.279 100.34H291.659C291.699 100.727 291.879 101.04 292.199 101.28C292.519 101.52 292.912 101.64 293.379 101.64C293.805 101.64 294.132 101.56 294.359 101.4C294.599 101.227 294.719 101.007 294.719 100.74C294.719 100.42 294.552 100.187 294.219 100.04C293.885 99.88 293.345 99.7067 292.599 99.52C291.799 99.3333 291.132 99.14 290.599 98.94C290.065 98.7267 289.605 98.4 289.219 97.96C288.832 97.5067 288.639 96.9 288.639 96.14C288.639 95.5 288.812 94.92 289.159 94.4C289.519 93.8667 290.039 93.4467 290.719 93.14C291.412 92.8333 292.232 92.68 293.179 92.68C294.579 92.68 295.679 93.0267 296.479 93.72C297.292 94.4133 297.759 95.3333 297.879 96.48H294.719C294.665 96.0933 294.492 95.7867 294.199 95.56C293.919 95.3333 293.545 95.22 293.079 95.22C292.679 95.22 292.372 95.3 292.159 95.46C291.945 95.6067 291.839 95.8133 291.839 96.08C291.839 96.4 292.005 96.64 292.339 96.8C292.685 96.96 293.219 97.12 293.939 97.28C294.765 97.4933 295.439 97.7067 295.959 97.92C296.479 98.12 296.932 98.4533 297.319 98.92C297.719 99.3733 297.925 99.9867 297.939 100.76C297.939 101.413 297.752 102 297.379 102.52C297.019 103.027 296.492 103.427 295.799 103.72C295.119 104.013 294.325 104.16 293.419 104.16Z" fill="#336082"/>
<circle cx="205" cy="31" r="31" fill="#34B7F2"/>
<path d="M202.026 42.4648L208.152 23.8877H203.487C201.661 23.8877 200.289 24.1257 199.37 24.6016C198.728 24.9336 198.197 25.5589 197.776 26.4775H197.146L198.772 19.4883H212.187L204.633 42.4648H202.026Z" fill="white"/>
<path d="M33.476 121.228H34.75V131H33.476L28.352 123.23V131H27.078V121.228H28.352L33.476 128.984V121.228ZM44.2018 127.15C44.2018 129.586 42.4518 131.126 40.2678 131.126C38.0978 131.126 36.4458 129.586 36.4458 127.15C36.4458 124.728 38.1538 123.202 40.3238 123.202C42.5078 123.202 44.2018 124.728 44.2018 127.15ZM37.7478 127.15C37.7478 129.096 38.9378 130.006 40.2678 130.006C41.5978 130.006 42.8998 129.096 42.8998 127.15C42.8998 125.218 41.6258 124.308 40.3098 124.308C38.9658 124.308 37.7478 125.218 37.7478 127.15ZM47.3748 131L44.9668 123.328H46.2688L48.0328 129.768L49.9368 123.328H51.2388L53.1008 129.782L54.8368 123.328H56.0968L53.7028 131H52.3868L50.5388 124.91L48.6908 131H47.3748ZM61.3736 128.9V124.378H60.3796V123.328H61.3736V121.396H62.6476V123.328H64.6496V124.378H62.6476V128.9C62.6476 129.656 62.9276 129.922 63.7116 129.922H64.6496V131H63.5016C62.1436 131 61.3736 130.44 61.3736 128.9ZM66.1932 131V120.64H67.4672V124.434C67.9712 123.622 68.9232 123.188 70.0012 123.188C71.7092 123.188 73.0672 124.28 73.0672 126.478V131H71.8072V126.66C71.8072 125.092 70.9532 124.294 69.6652 124.294C68.3632 124.294 67.4672 125.106 67.4672 126.758V131H66.1932ZM74.6723 127.136C74.6723 124.742 76.2543 123.202 78.3123 123.202C79.7403 123.202 80.7203 123.93 81.1683 124.728V123.328H82.4563V131H81.1683V129.572C80.7063 130.398 79.7123 131.126 78.2983 131.126C76.2543 131.126 74.6723 129.516 74.6723 127.136ZM81.1683 127.15C81.1683 125.372 79.9643 124.308 78.5643 124.308C77.1643 124.308 75.9743 125.33 75.9743 127.136C75.9743 128.942 77.1643 130.006 78.5643 130.006C79.9643 130.006 81.1683 128.956 81.1683 127.15ZM84.8893 128.9V124.378H83.8953V123.328H84.8893V121.396H86.1633V123.328H88.1653V124.378H86.1633V128.9C86.1633 129.656 86.4433 129.922 87.2272 129.922H88.1653V131H87.0173C85.6593 131 84.8893 130.44 84.8893 128.9ZM96.3533 129.544L98.7333 123.328H100.049L95.4293 134.612H94.1133L95.6253 130.916L92.5313 123.328H93.9453L96.3533 129.544ZM108.61 127.15C108.61 129.586 106.86 131.126 104.676 131.126C102.506 131.126 100.854 129.586 100.854 127.15C100.854 124.728 102.562 123.202 104.732 123.202C106.916 123.202 108.61 124.728 108.61 127.15ZM102.156 127.15C102.156 129.096 103.346 130.006 104.676 130.006C106.006 130.006 107.308 129.096 107.308 127.15C107.308 125.218 106.034 124.308 104.718 124.308C103.374 124.308 102.156 125.218 102.156 127.15ZM117.089 123.328V131H115.815V129.866C115.325 130.664 114.387 131.112 113.365 131.112C111.601 131.112 110.215 130.02 110.215 127.822V123.328H111.475V127.654C111.475 129.208 112.329 130.006 113.617 130.006C114.933 130.006 115.815 129.194 115.815 127.542V123.328H117.089ZM120.514 126.828V131H119.24V123.328H120.514V124.574C120.948 123.72 121.774 123.188 122.992 123.188V124.504H122.656C121.438 124.504 120.514 125.05 120.514 126.828ZM133.711 128.914C133.711 130.174 132.605 131.126 130.911 131.126C129.119 131.126 127.859 130.146 127.775 128.746H129.091C129.161 129.488 129.819 130.048 130.897 130.048C131.905 130.048 132.465 129.544 132.465 128.914C132.465 127.206 127.929 128.2 127.929 125.344C127.929 124.168 129.035 123.202 130.743 123.202C132.437 123.202 133.557 124.112 133.641 125.61H132.367C132.311 124.84 131.723 124.28 130.701 124.28C129.763 124.28 129.203 124.728 129.203 125.344C129.203 127.164 133.655 126.17 133.711 128.914ZM142.79 127.15C142.79 129.586 141.04 131.126 138.856 131.126C136.686 131.126 135.034 129.586 135.034 127.15C135.034 124.728 136.742 123.202 138.912 123.202C141.096 123.202 142.79 124.728 142.79 127.15ZM136.336 127.15C136.336 129.096 137.526 130.006 138.856 130.006C140.186 130.006 141.488 129.096 141.488 127.15C141.488 125.218 140.214 124.308 138.898 124.308C137.554 124.308 136.336 125.218 136.336 127.15ZM144.703 131V124.378H143.709V123.328H144.703V122.782C144.703 121.074 145.543 120.304 147.503 120.304V121.368C146.355 121.368 145.977 121.788 145.977 122.782V123.328H147.587V124.378H145.977V131H144.703ZM149.352 128.9V124.378H148.358V123.328H149.352V121.396H150.626V123.328H152.628V124.378H150.626V128.9C150.626 129.656 150.906 129.922 151.69 129.922H152.628V131H151.48C150.122 131 149.352 130.44 149.352 128.9ZM155.67 131L153.262 123.328H154.564L156.328 129.768L158.232 123.328H159.534L161.396 129.782L163.132 123.328H164.392L161.998 131H160.682L158.834 124.91L156.986 131H155.67ZM165.18 127.136C165.18 124.742 166.762 123.202 168.82 123.202C170.248 123.202 171.228 123.93 171.676 124.728V123.328H172.964V131H171.676V129.572C171.214 130.398 170.22 131.126 168.806 131.126C166.762 131.126 165.18 129.516 165.18 127.136ZM171.676 127.15C171.676 125.372 170.472 124.308 169.072 124.308C167.672 124.308 166.482 125.33 166.482 127.136C166.482 128.942 167.672 130.006 169.072 130.006C170.472 130.006 171.676 128.956 171.676 127.15ZM176.391 126.828V131H175.117V123.328H176.391V124.574C176.825 123.72 177.651 123.188 178.869 123.188V124.504H178.533C177.315 124.504 176.391 125.05 176.391 126.828ZM183.602 124.28C182.356 124.28 181.32 125.106 181.18 126.604H186.024C186.038 125.106 184.918 124.28 183.602 124.28ZM187.186 128.634C186.794 130.034 185.562 131.126 183.658 131.126C181.474 131.126 179.864 129.586 179.864 127.15C179.864 124.728 181.418 123.202 183.658 123.202C185.884 123.202 187.34 124.77 187.34 126.87C187.34 127.15 187.326 127.374 187.298 127.64H181.166C181.264 129.194 182.356 130.048 183.658 130.048C184.806 130.048 185.534 129.46 185.814 128.634H187.186ZM192.754 131V123.328H194.028V131H192.754ZM193.412 122.082C192.922 122.082 192.544 121.704 192.544 121.214C192.544 120.724 192.922 120.346 193.412 120.346C193.874 120.346 194.252 120.724 194.252 121.214C194.252 121.704 193.874 122.082 193.412 122.082ZM201.715 128.914C201.715 130.174 200.609 131.126 198.915 131.126C197.123 131.126 195.863 130.146 195.779 128.746H197.095C197.165 129.488 197.823 130.048 198.901 130.048C199.909 130.048 200.469 129.544 200.469 128.914C200.469 127.206 195.933 128.2 195.933 125.344C195.933 124.168 197.039 123.202 198.747 123.202C200.441 123.202 201.561 124.112 201.645 125.61H200.371C200.315 124.84 199.727 124.28 198.705 124.28C197.767 124.28 197.207 124.728 197.207 125.344C197.207 127.164 201.659 126.17 201.715 128.914ZM207.246 131V120.64H208.52V131H207.246ZM210.691 131V123.328H211.965V131H210.691ZM211.349 122.082C210.859 122.082 210.481 121.704 210.481 121.214C210.481 120.724 210.859 120.346 211.349 120.346C211.811 120.346 212.189 120.724 212.189 121.214C212.189 121.704 211.811 122.082 211.349 122.082ZM213.227 123.328H214.599L216.993 129.824L219.373 123.328H220.731L217.721 131H216.237L213.227 123.328ZM225.246 124.28C224 124.28 222.964 125.106 222.824 126.604H227.668C227.682 125.106 226.562 124.28 225.246 124.28ZM228.83 128.634C228.438 130.034 227.206 131.126 225.302 131.126C223.118 131.126 221.508 129.586 221.508 127.15C221.508 124.728 223.062 123.202 225.302 123.202C227.528 123.202 228.984 124.77 228.984 126.87C228.984 127.15 228.97 127.374 228.942 127.64H222.81C222.908 129.194 224 130.048 225.302 130.048C226.45 130.048 227.178 129.46 227.458 128.634H228.83ZM235.896 131L233.488 123.328H234.79L236.554 129.768L238.458 123.328H239.76L241.622 129.782L243.358 123.328H244.618L242.224 131H240.908L239.06 124.91L237.212 131H235.896ZM249.145 124.28C247.899 124.28 246.863 125.106 246.723 126.604H251.567C251.581 125.106 250.461 124.28 249.145 124.28ZM252.729 128.634C252.337 130.034 251.105 131.126 249.201 131.126C247.017 131.126 245.407 129.586 245.407 127.15C245.407 124.728 246.961 123.202 249.201 123.202C251.427 123.202 252.883 124.77 252.883 126.87C252.883 127.15 252.869 127.374 252.841 127.64H246.709C246.807 129.194 247.899 130.048 249.201 130.048C250.349 130.048 251.077 129.46 251.357 128.634H252.729ZM259.795 131L257.387 123.328H258.689L260.453 129.768L262.357 123.328H263.659L265.521 129.782L267.257 123.328H268.517L266.123 131H264.807L262.959 124.91L261.111 131H259.795ZM269.781 131V123.328H271.055V131H269.781ZM270.439 122.082C269.949 122.082 269.571 121.704 269.571 121.214C269.571 120.724 269.949 120.346 270.439 120.346C270.901 120.346 271.279 120.724 271.279 121.214C271.279 121.704 270.901 122.082 270.439 122.082ZM273.226 131V120.64H274.5V131H273.226ZM276.672 131V120.64H277.946V131H276.672ZM38.152 151V146.66C38.152 145.092 37.312 144.294 36.052 144.294C34.764 144.294 33.882 145.12 33.882 146.772V151H32.622V146.66C32.622 145.092 31.782 144.294 30.522 144.294C29.234 144.294 28.352 145.12 28.352 146.772V151H27.078V143.328H28.352V144.434C28.856 143.622 29.766 143.188 30.774 143.188C32.034 143.188 33.084 143.748 33.588 144.896C34.036 143.79 35.128 143.188 36.304 143.188C38.054 143.188 39.412 144.28 39.412 146.478V151H38.152ZM41.0258 147.136C41.0258 144.742 42.6078 143.202 44.6658 143.202C46.0938 143.202 47.0738 143.93 47.5218 144.728V143.328H48.8098V151H47.5218V149.572C47.0598 150.398 46.0658 151.126 44.6518 151.126C42.6078 151.126 41.0258 149.516 41.0258 147.136ZM47.5218 147.15C47.5218 145.372 46.3178 144.308 44.9178 144.308C43.5178 144.308 42.3278 145.33 42.3278 147.136C42.3278 148.942 43.5178 150.006 44.9178 150.006C46.3178 150.006 47.5218 148.956 47.5218 147.15ZM50.9628 151V143.328H52.2368V151H50.9628ZM51.6208 142.082C51.1308 142.082 50.7528 141.704 50.7528 141.214C50.7528 140.724 51.1308 140.346 51.6208 140.346C52.0828 140.346 52.4608 140.724 52.4608 141.214C52.4608 141.704 52.0828 142.082 51.6208 142.082ZM60.0221 151V146.66C60.0221 145.092 59.1681 144.294 57.8801 144.294C56.5781 144.294 55.6821 145.106 55.6821 146.758V151H54.4081V143.328H55.6821V144.42C56.1861 143.622 57.1101 143.188 58.1461 143.188C59.9241 143.188 61.2821 144.28 61.2821 146.478V151H60.0221ZM63.6432 148.9V144.378H62.6492V143.328H63.6432V141.396H64.9172V143.328H66.9192V144.378H64.9172V148.9C64.9172 149.656 65.1972 149.922 65.9812 149.922H66.9192V151H65.7712C64.4132 151 63.6432 150.44 63.6432 148.9ZM67.9868 147.136C67.9868 144.742 69.5688 143.202 71.6268 143.202C73.0548 143.202 74.0348 143.93 74.4828 144.728V143.328H75.7708V151H74.4828V149.572C74.0208 150.398 73.0268 151.126 71.6128 151.126C69.5688 151.126 67.9868 149.516 67.9868 147.136ZM74.4828 147.15C74.4828 145.372 73.2788 144.308 71.8788 144.308C70.4788 144.308 69.2888 145.33 69.2888 147.136C69.2888 148.942 70.4788 150.006 71.8788 150.006C73.2788 150.006 74.4828 148.956 74.4828 147.15ZM77.9237 151V143.328H79.1977V151H77.9237ZM78.5817 142.082C78.0917 142.082 77.7137 141.704 77.7137 141.214C77.7137 140.724 78.0917 140.346 78.5817 140.346C79.0437 140.346 79.4217 140.724 79.4217 141.214C79.4217 141.704 79.0437 142.082 78.5817 142.082ZM86.983 151V146.66C86.983 145.092 86.129 144.294 84.841 144.294C83.539 144.294 82.643 145.106 82.643 146.758V151H81.369V143.328H82.643V144.42C83.147 143.622 84.071 143.188 85.107 143.188C86.885 143.188 88.243 144.28 88.243 146.478V151H86.983ZM94.0565 151V143.328H95.3305V151H94.0565ZM94.7145 142.082C94.2245 142.082 93.8465 141.704 93.8465 141.214C93.8465 140.724 94.2245 140.346 94.7145 140.346C95.1765 140.346 95.5545 140.724 95.5545 141.214C95.5545 141.704 95.1765 142.082 94.7145 142.082ZM97.7818 148.9V144.378H96.7878V143.328H97.7818V141.396H99.0558V143.328H101.058V144.378H99.0558V148.9C99.0558 149.656 99.3358 149.922 100.12 149.922H101.058V151H99.9098C98.5518 151 97.7818 150.44 97.7818 148.9ZM106.614 148.9V144.378H105.62V143.328H106.614V141.396H107.888V143.328H109.89V144.378H107.888V148.9C107.888 149.656 108.168 149.922 108.952 149.922H109.89V151H108.742C107.384 151 106.614 150.44 106.614 148.9ZM118.713 147.15C118.713 149.586 116.963 151.126 114.779 151.126C112.609 151.126 110.957 149.586 110.957 147.15C110.957 144.728 112.665 143.202 114.835 143.202C117.019 143.202 118.713 144.728 118.713 147.15ZM112.259 147.15C112.259 149.096 113.449 150.006 114.779 150.006C116.109 150.006 117.411 149.096 117.411 147.15C117.411 145.218 116.137 144.308 114.821 144.308C113.477 144.308 112.259 145.218 112.259 147.15ZM124.121 151V140.64H125.395V146.73L128.349 143.328H130.127L126.515 147.15L130.141 151H128.405L125.395 147.612V151H124.121ZM134.588 144.28C133.342 144.28 132.306 145.106 132.166 146.604H137.01C137.024 145.106 135.904 144.28 134.588 144.28ZM138.172 148.634C137.78 150.034 136.548 151.126 134.644 151.126C132.46 151.126 130.85 149.586 130.85 147.15C130.85 144.728 132.404 143.202 134.644 143.202C136.87 143.202 138.326 144.77 138.326 146.87C138.326 147.15 138.312 147.374 138.284 147.64H132.152C132.25 149.194 133.342 150.048 134.644 150.048C135.792 150.048 136.52 149.46 136.8 148.634H138.172ZM143.27 144.28C142.024 144.28 140.988 145.106 140.848 146.604H145.692C145.706 145.106 144.586 144.28 143.27 144.28ZM146.854 148.634C146.462 150.034 145.23 151.126 143.326 151.126C141.142 151.126 139.532 149.586 139.532 147.15C139.532 144.728 141.086 143.202 143.326 143.202C145.552 143.202 147.008 144.77 147.008 146.87C147.008 147.15 146.994 147.374 146.966 147.64H140.834C140.932 149.194 142.024 150.048 143.326 150.048C144.474 150.048 145.202 149.46 145.482 148.634H146.854ZM149.963 144.742C150.425 143.93 151.433 143.202 152.833 143.202C154.891 143.202 156.473 144.742 156.473 147.136C156.473 149.516 154.891 151.126 152.833 151.126C151.433 151.126 150.439 150.37 149.963 149.586V154.64H148.689V143.328H149.963V144.742ZM155.171 147.136C155.171 145.33 153.981 144.308 152.567 144.308C151.181 144.308 149.963 145.372 149.963 147.15C149.963 148.956 151.181 150.006 152.567 150.006C153.981 150.006 155.171 148.942 155.171 147.136ZM161.883 151V143.328H163.157V151H161.883ZM162.541 142.082C162.051 142.082 161.673 141.704 161.673 141.214C161.673 140.724 162.051 140.346 162.541 140.346C163.003 140.346 163.381 140.724 163.381 141.214C163.381 141.704 163.003 142.082 162.541 142.082ZM165.608 148.9V144.378H164.614V143.328H165.608V141.396H166.882V143.328H168.884V144.378H166.882V148.9C166.882 149.656 167.162 149.922 167.946 149.922H168.884V151H167.736C166.378 151 165.608 150.44 165.608 148.9ZM180.964 143.328V151H179.69V149.866C179.2 150.664 178.262 151.112 177.24 151.112C175.476 151.112 174.09 150.02 174.09 147.822V143.328H175.35V147.654C175.35 149.208 176.204 150.006 177.492 150.006C178.808 150.006 179.69 149.194 179.69 147.542V143.328H180.964ZM184.389 144.742C184.851 143.93 185.859 143.202 187.259 143.202C189.317 143.202 190.899 144.742 190.899 147.136C190.899 149.516 189.317 151.126 187.259 151.126C185.859 151.126 184.865 150.37 184.389 149.586V154.64H183.115V143.328H184.389V144.742ZM189.597 147.136C189.597 145.33 188.407 144.308 186.993 144.308C185.607 144.308 184.389 145.372 184.389 147.15C184.389 148.956 185.607 150.006 186.993 150.006C188.407 150.006 189.597 148.942 189.597 147.136ZM196.588 148.9V144.378H195.594V143.328H196.588V141.396H197.862V143.328H199.864V144.378H197.862V148.9C197.862 149.656 198.142 149.922 198.926 149.922H199.864V151H198.716C197.358 151 196.588 150.44 196.588 148.9ZM208.688 147.15C208.688 149.586 206.938 151.126 204.754 151.126C202.584 151.126 200.932 149.586 200.932 147.15C200.932 144.728 202.64 143.202 204.81 143.202C206.994 143.202 208.688 144.728 208.688 147.15ZM202.234 147.15C202.234 149.096 203.424 150.006 204.754 150.006C206.084 150.006 207.386 149.096 207.386 147.15C207.386 145.218 206.112 144.308 204.796 144.308C203.452 144.308 202.234 145.218 202.234 147.15ZM213.62 147.136C213.62 144.742 215.202 143.202 217.274 143.202C218.478 143.202 219.584 143.818 220.116 144.7V140.64H221.404V151H220.116V149.558C219.654 150.412 218.66 151.126 217.26 151.126C215.202 151.126 213.62 149.516 213.62 147.136ZM220.116 147.15C220.116 145.372 218.912 144.308 217.512 144.308C216.112 144.308 214.922 145.33 214.922 147.136C214.922 148.942 216.112 150.006 217.512 150.006C218.912 150.006 220.116 148.956 220.116 147.15ZM223.081 147.136C223.081 144.742 224.663 143.202 226.721 143.202C228.149 143.202 229.129 143.93 229.577 144.728V143.328H230.865V151H229.577V149.572C229.115 150.398 228.121 151.126 226.707 151.126C224.663 151.126 223.081 149.516 223.081 147.136ZM229.577 147.15C229.577 145.372 228.373 144.308 226.973 144.308C225.573 144.308 224.383 145.33 224.383 147.136C224.383 148.942 225.573 150.006 226.973 150.006C228.373 150.006 229.577 148.956 229.577 147.15ZM233.297 148.9V144.378H232.303V143.328H233.297V141.396H234.571V143.328H236.573V144.378H234.571V148.9C234.571 149.656 234.851 149.922 235.635 149.922H236.573V151H235.425C234.067 151 233.297 150.44 233.297 148.9ZM241.379 144.28C240.133 144.28 239.097 145.106 238.957 146.604H243.801C243.815 145.106 242.695 144.28 241.379 144.28ZM244.963 148.634C244.571 150.034 243.339 151.126 241.435 151.126C239.251 151.126 237.641 149.586 237.641 147.15C237.641 144.728 239.195 143.202 241.435 143.202C243.661 143.202 245.117 144.77 245.117 146.87C245.117 147.15 245.103 147.374 245.075 147.64H238.943C239.041 149.194 240.133 150.048 241.435 150.048C242.583 150.048 243.311 149.46 243.591 148.634H244.963ZM248.045 150.216C248.045 150.706 247.667 151.084 247.205 151.084C246.715 151.084 246.337 150.706 246.337 150.216C246.337 149.726 246.715 149.348 247.205 149.348C247.667 149.348 248.045 149.726 248.045 150.216ZM255.851 147.318L252.659 141.242H254.073L256.481 146.184L258.889 141.242H260.303L257.125 147.318V151H255.851V147.318ZM268.926 147.15C268.926 149.586 267.176 151.126 264.992 151.126C262.822 151.126 261.17 149.586 261.17 147.15C261.17 144.728 262.878 143.202 265.048 143.202C267.232 143.202 268.926 144.728 268.926 147.15ZM262.472 147.15C262.472 149.096 263.662 150.006 264.992 150.006C266.322 150.006 267.624 149.096 267.624 147.15C267.624 145.218 266.35 144.308 265.034 144.308C263.69 144.308 262.472 145.218 262.472 147.15ZM277.405 143.328V151H276.131V149.866C275.641 150.664 274.703 151.112 273.681 151.112C271.917 151.112 270.531 150.02 270.531 147.822V143.328H271.791V147.654C271.791 149.208 272.645 150.006 273.933 150.006C275.249 150.006 276.131 149.194 276.131 147.542V143.328H277.405ZM26.602 167.15C26.602 164.742 28.156 163.202 30.34 163.202C32.244 163.202 33.49 164.182 33.882 165.792H32.51C32.244 164.868 31.474 164.28 30.34 164.28C28.94 164.28 27.904 165.274 27.904 167.15C27.904 169.054 28.94 170.048 30.34 170.048C31.474 170.048 32.23 169.502 32.51 168.536H33.882C33.49 170.062 32.244 171.126 30.34 171.126C28.156 171.126 26.602 169.586 26.602 167.15ZM35.1059 167.136C35.1059 164.742 36.6879 163.202 38.7459 163.202C40.1739 163.202 41.1539 163.93 41.6019 164.728V163.328H42.8899V171H41.6019V169.572C41.1399 170.398 40.1459 171.126 38.7319 171.126C36.6879 171.126 35.1059 169.516 35.1059 167.136ZM41.6019 167.15C41.6019 165.372 40.3979 164.308 38.9979 164.308C37.5979 164.308 36.4079 165.33 36.4079 167.136C36.4079 168.942 37.5979 170.006 38.9979 170.006C40.3979 170.006 41.6019 168.956 41.6019 167.15ZM50.6568 171V166.66C50.6568 165.092 49.8028 164.294 48.5148 164.294C47.2128 164.294 46.3168 165.106 46.3168 166.758V171H45.0428V163.328H46.3168V164.42C46.8208 163.622 47.7448 163.188 48.7808 163.188C50.5588 163.188 51.9168 164.28 51.9168 166.478V171H50.6568ZM57.2543 167.15C57.2543 164.742 58.8083 163.202 60.9923 163.202C62.8963 163.202 64.1423 164.182 64.5343 165.792H63.1623C62.8963 164.868 62.1263 164.28 60.9923 164.28C59.5923 164.28 58.5563 165.274 58.5563 167.15C58.5563 169.054 59.5923 170.048 60.9923 170.048C62.1263 170.048 62.8823 169.502 63.1623 168.536H64.5343C64.1423 170.062 62.8963 171.126 60.9923 171.126C58.8083 171.126 57.2543 169.586 57.2543 167.15ZM73.5143 167.15C73.5143 169.586 71.7643 171.126 69.5803 171.126C67.4103 171.126 65.7583 169.586 65.7583 167.15C65.7583 164.728 67.4663 163.202 69.6363 163.202C71.8203 163.202 73.5143 164.728 73.5143 167.15ZM67.0603 167.15C67.0603 169.096 68.2503 170.006 69.5803 170.006C70.9103 170.006 72.2123 169.096 72.2123 167.15C72.2123 165.218 70.9383 164.308 69.6223 164.308C68.2783 164.308 67.0603 165.218 67.0603 167.15ZM81.9933 163.328V171H80.7193V169.866C80.2293 170.664 79.2913 171.112 78.2693 171.112C76.5053 171.112 75.1193 170.02 75.1193 167.822V163.328H76.3793V167.654C76.3793 169.208 77.2333 170.006 78.5213 170.006C79.8373 170.006 80.7193 169.194 80.7193 167.542V163.328H81.9933ZM89.7584 171V166.66C89.7584 165.092 88.9044 164.294 87.6164 164.294C86.3144 164.294 85.4184 165.106 85.4184 166.758V171H84.1444V163.328H85.4184V164.42C85.9224 163.622 86.8464 163.188 87.8824 163.188C89.6604 163.188 91.0184 164.28 91.0184 166.478V171H89.7584ZM93.3795 168.9V164.378H92.3855V163.328H93.3795V161.396H94.6535V163.328H96.6555V164.378H94.6535V168.9C94.6535 169.656 94.9335 169.922 95.7175 169.922H96.6555V171H95.5075C94.1495 171 93.3795 170.44 93.3795 168.9ZM109.212 167.15C109.212 169.586 107.462 171.126 105.278 171.126C103.108 171.126 101.456 169.586 101.456 167.15C101.456 164.728 103.164 163.202 105.334 163.202C107.518 163.202 109.212 164.728 109.212 167.15ZM102.758 167.15C102.758 169.096 103.948 170.006 105.278 170.006C106.608 170.006 107.91 169.096 107.91 167.15C107.91 165.218 106.636 164.308 105.32 164.308C103.976 164.308 102.758 165.218 102.758 167.15ZM116.501 171V166.66C116.501 165.092 115.647 164.294 114.359 164.294C113.057 164.294 112.161 165.106 112.161 166.758V171H110.887V163.328H112.161V164.42C112.665 163.622 113.589 163.188 114.625 163.188C116.403 163.188 117.761 164.28 117.761 166.478V171H116.501ZM130.378 163.328V171H129.104V169.866C128.614 170.664 127.676 171.112 126.654 171.112C124.89 171.112 123.504 170.02 123.504 167.822V163.328H124.764V167.654C124.764 169.208 125.618 170.006 126.906 170.006C128.222 170.006 129.104 169.194 129.104 167.542V163.328H130.378ZM138.045 168.914C138.045 170.174 136.939 171.126 135.245 171.126C133.453 171.126 132.193 170.146 132.109 168.746H133.425C133.495 169.488 134.153 170.048 135.231 170.048C136.239 170.048 136.799 169.544 136.799 168.914C136.799 167.206 132.263 168.2 132.263 165.344C132.263 164.168 133.369 163.202 135.077 163.202C136.771 163.202 137.891 164.112 137.975 165.61H136.701C136.645 164.84 136.057 164.28 135.035 164.28C134.097 164.28 133.537 164.728 133.537 165.344C133.537 167.164 137.989 166.17 138.045 168.914ZM143.856 168.9V164.378H142.862V163.328H143.856V161.396H145.13V163.328H147.132V164.378H145.13V168.9C145.13 169.656 145.41 169.922 146.194 169.922H147.132V171H145.984C144.626 171 143.856 170.44 143.856 168.9ZM155.956 167.15C155.956 169.586 154.206 171.126 152.022 171.126C149.852 171.126 148.2 169.586 148.2 167.15C148.2 164.728 149.908 163.202 152.078 163.202C154.262 163.202 155.956 164.728 155.956 167.15ZM149.502 167.15C149.502 169.096 150.692 170.006 152.022 170.006C153.352 170.006 154.654 169.096 154.654 167.15C154.654 165.218 153.38 164.308 152.064 164.308C150.72 164.308 149.502 165.218 149.502 167.15ZM161.363 171V160.64H162.637V164.434C163.141 163.622 164.093 163.188 165.171 163.188C166.879 163.188 168.237 164.28 168.237 166.478V171H166.977V166.66C166.977 165.092 166.123 164.294 164.835 164.294C163.533 164.294 162.637 165.106 162.637 166.758V171H161.363ZM169.842 167.136C169.842 164.742 171.424 163.202 173.482 163.202C174.91 163.202 175.89 163.93 176.338 164.728V163.328H177.626V171H176.338V169.572C175.876 170.398 174.882 171.126 173.468 171.126C171.424 171.126 169.842 169.516 169.842 167.136ZM176.338 167.15C176.338 165.372 175.134 164.308 173.734 164.308C172.334 164.308 171.144 165.33 171.144 167.136C171.144 168.942 172.334 170.006 173.734 170.006C175.134 170.006 176.338 168.956 176.338 167.15ZM185.393 171V166.66C185.393 165.092 184.539 164.294 183.251 164.294C181.949 164.294 181.053 165.106 181.053 166.758V171H179.779V163.328H181.053V164.42C181.557 163.622 182.481 163.188 183.517 163.188C185.295 163.188 186.653 164.28 186.653 166.478V171H185.393ZM188.258 167.136C188.258 164.742 189.84 163.202 191.912 163.202C193.116 163.202 194.222 163.818 194.754 164.7V160.64H196.042V171H194.754V169.558C194.292 170.412 193.298 171.126 191.898 171.126C189.84 171.126 188.258 169.516 188.258 167.136ZM194.754 167.15C194.754 165.372 193.55 164.308 192.15 164.308C190.75 164.308 189.56 165.33 189.56 167.136C189.56 168.942 190.75 170.006 192.15 170.006C193.55 170.006 194.754 168.956 194.754 167.15ZM198.195 171V160.64H199.469V171H198.195ZM204.903 164.28C203.657 164.28 202.62 165.106 202.481 166.604H207.325C207.339 165.106 206.219 164.28 204.903 164.28ZM208.487 168.634C208.095 170.034 206.863 171.126 204.959 171.126C202.775 171.126 201.165 169.586 201.165 167.15C201.165 164.728 202.719 163.202 204.959 163.202C207.185 163.202 208.641 164.77 208.641 166.87C208.641 167.15 208.627 167.374 208.599 167.64H202.467C202.565 169.194 203.657 170.048 204.959 170.048C206.107 170.048 206.835 169.46 207.115 168.634H208.487ZM213.579 167.136C213.579 164.742 215.161 163.202 217.219 163.202C218.647 163.202 219.627 163.93 220.075 164.728V163.328H221.363V171H220.075V169.572C219.613 170.398 218.619 171.126 217.205 171.126C215.161 171.126 213.579 169.516 213.579 167.136ZM220.075 167.15C220.075 165.372 218.871 164.308 217.471 164.308C216.071 164.308 214.881 165.33 214.881 167.136C214.881 168.942 216.071 170.006 217.471 170.006C218.871 170.006 220.075 168.956 220.075 167.15ZM229.13 171V166.66C229.13 165.092 228.276 164.294 226.988 164.294C225.686 164.294 224.79 165.106 224.79 166.758V171H223.516V163.328H224.79V164.42C225.294 163.622 226.218 163.188 227.254 163.188C229.032 163.188 230.39 164.28 230.39 166.478V171H229.13ZM235.383 169.544L237.763 163.328H239.079L234.459 174.612H233.143L234.655 170.916L231.561 163.328H232.975L235.383 169.544ZM245.366 164.756C245.856 163.902 246.878 163.202 248.236 163.202C250.308 163.202 251.876 164.742 251.876 167.136C251.876 169.516 250.294 171.126 248.236 171.126C246.836 171.126 245.842 170.426 245.366 169.586V171H244.092V160.64H245.366V164.756ZM250.574 167.136C250.574 165.33 249.384 164.308 247.97 164.308C246.584 164.308 245.366 165.372 245.366 167.15C245.366 168.956 246.584 170.006 247.97 170.006C249.384 170.006 250.574 168.942 250.574 167.136ZM260.357 163.328V171H259.083V169.866C258.593 170.664 257.655 171.112 256.633 171.112C254.869 171.112 253.483 170.02 253.483 167.822V163.328H254.743V167.654C254.743 169.208 255.597 170.006 256.885 170.006C258.201 170.006 259.083 169.194 259.083 167.542V163.328H260.357ZM262.032 167.136C262.032 164.742 263.614 163.202 265.672 163.202C267.072 163.202 268.08 163.902 268.528 164.728V163.328H269.816V171.168C269.816 173.282 268.402 174.78 266.148 174.78C264.132 174.78 262.69 173.758 262.438 172.12H263.698C263.978 173.044 264.888 173.674 266.148 173.674C267.506 173.674 268.528 172.806 268.528 171.168V169.558C268.066 170.384 267.072 171.126 265.672 171.126C263.614 171.126 262.032 169.516 262.032 167.136ZM268.528 167.15C268.528 165.372 267.324 164.308 265.924 164.308C264.524 164.308 263.334 165.33 263.334 167.136C263.334 168.942 264.524 170.006 265.924 170.006C267.324 170.006 268.528 168.956 268.528 167.15ZM277.485 168.914C277.485 170.174 276.379 171.126 274.685 171.126C272.893 171.126 271.633 170.146 271.549 168.746H272.865C272.935 169.488 273.593 170.048 274.671 170.048C275.679 170.048 276.239 169.544 276.239 168.914C276.239 167.206 271.703 168.2 271.703 165.344C271.703 164.168 272.809 163.202 274.517 163.202C276.211 163.202 277.331 164.112 277.415 165.61H276.141C276.085 164.84 275.497 164.28 274.475 164.28C273.537 164.28 272.977 164.728 272.977 165.344C272.977 167.164 277.429 166.17 277.485 168.914ZM278.177 173.002L279.199 169.236H280.599L279.031 173.002H278.177ZM26.602 187.136C26.602 184.742 28.184 183.202 30.242 183.202C31.67 183.202 32.65 183.93 33.098 184.728V183.328H34.386V191H33.098V189.572C32.636 190.398 31.642 191.126 30.228 191.126C28.184 191.126 26.602 189.516 26.602 187.136ZM33.098 187.15C33.098 185.372 31.894 184.308 30.494 184.308C29.094 184.308 27.904 185.33 27.904 187.136C27.904 188.942 29.094 190.006 30.494 190.006C31.894 190.006 33.098 188.956 33.098 187.15ZM36.0629 187.136C36.0629 184.742 37.6449 183.202 39.7169 183.202C40.9209 183.202 42.0269 183.818 42.5589 184.7V180.64H43.8469V191H42.5589V189.558C42.0969 190.412 41.1029 191.126 39.7029 191.126C37.6449 191.126 36.0629 189.516 36.0629 187.136ZM42.5589 187.15C42.5589 185.372 41.3549 184.308 39.9549 184.308C38.5549 184.308 37.3649 185.33 37.3649 187.136C37.3649 188.942 38.5549 190.006 39.9549 190.006C41.3549 190.006 42.5589 188.956 42.5589 187.15ZM45.5239 187.136C45.5239 184.742 47.1059 183.202 49.1779 183.202C50.3819 183.202 51.4879 183.818 52.0199 184.7V180.64H53.3079V191H52.0199V189.558C51.5579 190.412 50.5639 191.126 49.1639 191.126C47.1059 191.126 45.5239 189.516 45.5239 187.136ZM52.0199 187.15C52.0199 185.372 50.8159 184.308 49.4159 184.308C48.0159 184.308 46.8259 185.33 46.8259 187.136C46.8259 188.942 48.0159 190.006 49.4159 190.006C50.8159 190.006 52.0199 188.956 52.0199 187.15ZM64.8072 191V186.66C64.8072 185.092 63.9532 184.294 62.6652 184.294C61.3632 184.294 60.4672 185.106 60.4672 186.758V191H59.1932V183.328H60.4672V184.42C60.9712 183.622 61.8952 183.188 62.9312 183.188C64.7092 183.188 66.0672 184.28 66.0672 186.478V191H64.8072ZM71.4103 184.28C70.1643 184.28 69.1283 185.106 68.9883 186.604H73.8323C73.8463 185.106 72.7263 184.28 71.4103 184.28ZM74.9943 188.634C74.6023 190.034 73.3703 191.126 71.4663 191.126C69.2823 191.126 67.6723 189.586 67.6723 187.15C67.6723 184.728 69.2263 183.202 71.4663 183.202C73.6923 183.202 75.1483 184.77 75.1483 186.87C75.1483 187.15 75.1343 187.374 75.1063 187.64H68.9743C69.0723 189.194 70.1643 190.048 71.4663 190.048C72.6143 190.048 73.3423 189.46 73.6223 188.634H74.9943ZM78.328 191L75.92 183.328H77.222L78.986 189.768L80.89 183.328H82.192L84.054 189.782L85.79 183.328H87.05L84.656 191H83.34L81.492 184.91L79.644 191H78.328ZM92.2848 191V184.378H91.2908V183.328H92.2848V182.782C92.2848 181.074 93.1248 180.304 95.0847 180.304V181.368C93.9368 181.368 93.5588 181.788 93.5588 182.782V183.328H95.1688V184.378H93.5588V191H92.2848ZM99.9162 184.28C98.6702 184.28 97.6342 185.106 97.4942 186.604H102.338C102.352 185.106 101.232 184.28 99.9162 184.28ZM103.5 188.634C103.108 190.034 101.876 191.126 99.9722 191.126C97.7882 191.126 96.1782 189.586 96.1782 187.15C96.1782 184.728 97.7322 183.202 99.9722 183.202C102.198 183.202 103.654 184.77 103.654 186.87C103.654 187.15 103.64 187.374 103.612 187.64H97.4802C97.5782 189.194 98.6702 190.048 99.9722 190.048C101.12 190.048 101.848 189.46 102.128 188.634H103.5ZM104.86 187.136C104.86 184.742 106.442 183.202 108.5 183.202C109.928 183.202 110.908 183.93 111.356 184.728V183.328H112.644V191H111.356V189.572C110.894 190.398 109.9 191.126 108.486 191.126C106.442 191.126 104.86 189.516 104.86 187.136ZM111.356 187.15C111.356 185.372 110.152 184.308 108.752 184.308C107.352 184.308 106.162 185.33 106.162 187.136C106.162 188.942 107.352 190.006 108.752 190.006C110.152 190.006 111.356 188.956 111.356 187.15ZM115.077 188.9V184.378H114.083V183.328H115.077V181.396H116.351V183.328H118.353V184.378H116.351V188.9C116.351 189.656 116.631 189.922 117.415 189.922H118.353V191H117.205C115.847 191 115.077 190.44 115.077 188.9ZM126.7 183.328V191H125.426V189.866C124.936 190.664 123.998 191.112 122.976 191.112C121.212 191.112 119.826 190.02 119.826 187.822V183.328H121.086V187.654C121.086 189.208 121.94 190.006 123.228 190.006C124.544 190.006 125.426 189.194 125.426 187.542V183.328H126.7ZM130.125 186.828V191H128.851V183.328H130.125V184.574C130.559 183.72 131.385 183.188 132.603 183.188V184.504H132.267C131.049 184.504 130.125 185.05 130.125 186.828ZM137.336 184.28C136.09 184.28 135.054 185.106 134.914 186.604H139.758C139.772 185.106 138.652 184.28 137.336 184.28ZM140.92 188.634C140.528 190.034 139.296 191.126 137.392 191.126C135.208 191.126 133.598 189.586 133.598 187.15C133.598 184.728 135.152 183.202 137.392 183.202C139.618 183.202 141.074 184.77 141.074 186.87C141.074 187.15 141.06 187.374 141.032 187.64H134.9C134.998 189.194 136.09 190.048 137.392 190.048C138.54 190.048 139.268 189.46 139.548 188.634H140.92ZM148.272 188.914C148.272 190.174 147.166 191.126 145.472 191.126C143.68 191.126 142.42 190.146 142.336 188.746H143.652C143.722 189.488 144.38 190.048 145.458 190.048C146.466 190.048 147.026 189.544 147.026 188.914C147.026 187.206 142.49 188.2 142.49 185.344C142.49 184.168 143.596 183.202 145.304 183.202C146.998 183.202 148.118 184.112 148.202 185.61H146.928C146.872 184.84 146.284 184.28 145.262 184.28C144.324 184.28 143.764 184.728 143.764 185.344C143.764 187.164 148.216 186.17 148.272 188.914ZM148.964 193.002L149.986 189.236H151.386L149.818 193.002H148.964ZM156.102 187.136C156.102 184.742 157.684 183.202 159.742 183.202C161.17 183.202 162.15 183.93 162.598 184.728V183.328H163.886V191H162.598V189.572C162.136 190.398 161.142 191.126 159.728 191.126C157.684 191.126 156.102 189.516 156.102 187.136ZM162.598 187.15C162.598 185.372 161.394 184.308 159.994 184.308C158.594 184.308 157.404 185.33 157.404 187.136C157.404 188.942 158.594 190.006 159.994 190.006C161.394 190.006 162.598 188.956 162.598 187.15ZM171.653 191V186.66C171.653 185.092 170.799 184.294 169.511 184.294C168.209 184.294 167.313 185.106 167.313 186.758V191H166.039V183.328H167.313V184.42C167.817 183.622 168.741 183.188 169.777 183.188C171.555 183.188 172.913 184.28 172.913 186.478V191H171.653ZM174.518 187.136C174.518 184.742 176.1 183.202 178.172 183.202C179.376 183.202 180.482 183.818 181.014 184.7V180.64H182.302V191H181.014V189.558C180.552 190.412 179.558 191.126 178.158 191.126C176.1 191.126 174.518 189.516 174.518 187.136ZM181.014 187.15C181.014 185.372 179.81 184.308 178.41 184.308C177.01 184.308 175.82 185.33 175.82 187.136C175.82 188.942 177.01 190.006 178.41 190.006C179.81 190.006 181.014 188.956 181.014 187.15ZM191.449 184.28C190.203 184.28 189.167 185.106 189.027 186.604H193.871C193.885 185.106 192.765 184.28 191.449 184.28ZM195.033 188.634C194.641 190.034 193.409 191.126 191.505 191.126C189.321 191.126 187.711 189.586 187.711 187.15C187.711 184.728 189.265 183.202 191.505 183.202C193.731 183.202 195.187 184.77 195.187 186.87C195.187 187.15 195.173 187.374 195.145 187.64H189.013C189.111 189.194 190.203 190.048 191.505 190.048C192.653 190.048 193.381 189.46 193.661 188.634H195.033ZM202.483 191V186.66C202.483 185.092 201.629 184.294 200.341 184.294C199.039 184.294 198.143 185.106 198.143 186.758V191H196.869V183.328H198.143V184.42C198.647 183.622 199.571 183.188 200.607 183.188C202.385 183.188 203.743 184.28 203.743 186.478V191H202.483ZM211.34 188.914C211.34 190.174 210.234 191.126 208.54 191.126C206.748 191.126 205.488 190.146 205.404 188.746H206.72C206.79 189.488 207.448 190.048 208.526 190.048C209.534 190.048 210.094 189.544 210.094 188.914C210.094 187.206 205.558 188.2 205.558 185.344C205.558 184.168 206.664 183.202 208.372 183.202C210.066 183.202 211.186 184.112 211.27 185.61H209.996C209.94 184.84 209.352 184.28 208.33 184.28C207.392 184.28 206.832 184.728 206.832 185.344C206.832 187.164 211.284 186.17 211.34 188.914ZM219.943 183.328V191H218.669V189.866C218.179 190.664 217.241 191.112 216.219 191.112C214.455 191.112 213.069 190.02 213.069 187.822V183.328H214.329V187.654C214.329 189.208 215.183 190.006 216.471 190.006C217.787 190.006 218.669 189.194 218.669 187.542V183.328H219.943ZM223.368 186.828V191H222.094V183.328H223.368V184.574C223.802 183.72 224.628 183.188 225.846 183.188V184.504H225.51C224.292 184.504 223.368 185.05 223.368 186.828ZM230.578 184.28C229.332 184.28 228.296 185.106 228.156 186.604H233C233.014 185.106 231.894 184.28 230.578 184.28ZM234.162 188.634C233.77 190.034 232.538 191.126 230.634 191.126C228.45 191.126 226.84 189.586 226.84 187.15C226.84 184.728 228.394 183.202 230.634 183.202C232.86 183.202 234.316 184.77 234.316 186.87C234.316 187.15 234.302 187.374 234.274 187.64H228.142C228.24 189.194 229.332 190.048 230.634 190.048C231.782 190.048 232.51 189.46 232.79 188.634H234.162ZM242.642 189.544L245.022 183.328H246.338L241.718 194.612H240.402L241.914 190.916L238.82 183.328H240.234L242.642 189.544ZM254.899 187.15C254.899 189.586 253.149 191.126 250.965 191.126C248.795 191.126 247.143 189.586 247.143 187.15C247.143 184.728 248.851 183.202 251.021 183.202C253.205 183.202 254.899 184.728 254.899 187.15ZM248.445 187.15C248.445 189.096 249.635 190.006 250.965 190.006C252.295 190.006 253.597 189.096 253.597 187.15C253.597 185.218 252.323 184.308 251.007 184.308C249.663 184.308 248.445 185.218 248.445 187.15ZM263.378 183.328V191H262.104V189.866C261.614 190.664 260.676 191.112 259.654 191.112C257.89 191.112 256.504 190.02 256.504 187.822V183.328H257.764V187.654C257.764 189.208 258.618 190.006 259.906 190.006C261.222 190.006 262.104 189.194 262.104 187.542V183.328H263.378ZM266.803 186.828V191H265.529V183.328H266.803V184.574C267.237 183.72 268.063 183.188 269.281 183.188V184.504H268.945C267.727 184.504 266.803 185.05 266.803 186.828ZM33.882 203.328V211H32.608V209.866C32.118 210.664 31.18 211.112 30.158 211.112C28.394 211.112 27.008 210.02 27.008 207.822V203.328H28.268V207.654C28.268 209.208 29.122 210.006 30.41 210.006C31.726 210.006 32.608 209.194 32.608 207.542V203.328H33.882ZM41.5491 208.914C41.5491 210.174 40.4431 211.126 38.7491 211.126C36.9571 211.126 35.6971 210.146 35.6131 208.746H36.9291C36.9991 209.488 37.6571 210.048 38.7351 210.048C39.7431 210.048 40.3031 209.544 40.3031 208.914C40.3031 207.206 35.7671 208.2 35.7671 205.344C35.7671 204.168 36.8731 203.202 38.5811 203.202C40.2751 203.202 41.3951 204.112 41.4791 205.61H40.2051C40.1491 204.84 39.5611 204.28 38.5391 204.28C37.6011 204.28 37.0411 204.728 37.0411 205.344C37.0411 207.164 41.4931 206.17 41.5491 208.914ZM46.6095 204.28C45.3635 204.28 44.3275 205.106 44.1875 206.604H49.0315C49.0455 205.106 47.9255 204.28 46.6095 204.28ZM50.1935 208.634C49.8015 210.034 48.5695 211.126 46.6655 211.126C44.4815 211.126 42.8715 209.586 42.8715 207.15C42.8715 204.728 44.4255 203.202 46.6655 203.202C48.8915 203.202 50.3475 204.77 50.3475 206.87C50.3475 207.15 50.3335 207.374 50.3055 207.64H44.1735C44.2715 209.194 45.3635 210.048 46.6655 210.048C47.8135 210.048 48.5415 209.46 48.8215 208.634H50.1935ZM53.3032 206.828V211H52.0292V203.328H53.3032V204.574C53.7372 203.72 54.5632 203.188 55.7812 203.188V204.504H55.4452C54.2272 204.504 53.3032 205.05 53.3032 206.828ZM62.7678 208.914C62.7678 210.174 61.6618 211.126 59.9678 211.126C58.1758 211.126 56.9158 210.146 56.8318 208.746H58.1478C58.2178 209.488 58.8758 210.048 59.9538 210.048C60.9618 210.048 61.5218 209.544 61.5218 208.914C61.5218 207.206 56.9858 208.2 56.9858 205.344C56.9858 204.168 58.0918 203.202 59.7998 203.202C61.4938 203.202 62.6138 204.112 62.6978 205.61H61.4238C61.3678 204.84 60.7798 204.28 59.7578 204.28C58.8198 204.28 58.2598 204.728 58.2598 205.344C58.2598 207.164 62.7118 206.17 62.7678 208.914ZM68.2987 211V200.64H69.5727V204.434C70.0767 203.622 71.0287 203.188 72.1067 203.188C73.8147 203.188 75.1727 204.28 75.1727 206.478V211H73.9127V206.66C73.9127 205.092 73.0587 204.294 71.7707 204.294C70.4687 204.294 69.5727 205.106 69.5727 206.758V211H68.2987ZM76.7778 207.136C76.7778 204.742 78.3598 203.202 80.4178 203.202C81.8458 203.202 82.8258 203.93 83.2738 204.728V203.328H84.5618V211H83.2738V209.572C82.8118 210.398 81.8178 211.126 80.4038 211.126C78.3598 211.126 76.7778 209.516 76.7778 207.136ZM83.2738 207.15C83.2738 205.372 82.0698 204.308 80.6698 204.308C79.2698 204.308 78.0798 205.33 78.0798 207.136C78.0798 208.942 79.2698 210.006 80.6698 210.006C82.0698 210.006 83.2738 208.956 83.2738 207.15ZM85.8047 203.328H87.1767L89.5707 209.824L91.9507 203.328H93.3087L90.2987 211H88.8147L85.8047 203.328ZM97.8244 204.28C96.5784 204.28 95.5424 205.106 95.4024 206.604H100.246C100.26 205.106 99.1404 204.28 97.8244 204.28ZM101.408 208.634C101.016 210.034 99.7844 211.126 97.8804 211.126C95.6964 211.126 94.0864 209.586 94.0864 207.15C94.0864 204.728 95.6404 203.202 97.8804 203.202C100.106 203.202 101.562 204.77 101.562 206.87C101.562 207.15 101.548 207.374 101.52 207.64H95.3884C95.4864 209.194 96.5784 210.048 97.8804 210.048C99.0284 210.048 99.7564 209.46 100.036 208.634H101.408ZM108.25 204.742C108.712 203.93 109.72 203.202 111.12 203.202C113.178 203.202 114.76 204.742 114.76 207.136C114.76 209.516 113.178 211.126 111.12 211.126C109.72 211.126 108.726 210.37 108.25 209.586V214.64H106.976V203.328H108.25V204.742ZM113.458 207.136C113.458 205.33 112.268 204.308 110.854 204.308C109.468 204.308 108.25 205.372 108.25 207.15C108.25 208.956 109.468 210.006 110.854 210.006C112.268 210.006 113.458 208.942 113.458 207.136ZM117.711 206.828V211H116.437V203.328H117.711V204.574C118.145 203.72 118.971 203.188 120.189 203.188V204.504H119.853C118.635 204.504 117.711 205.05 117.711 206.828ZM124.922 204.28C123.676 204.28 122.64 205.106 122.5 206.604H127.344C127.358 205.106 126.238 204.28 124.922 204.28ZM128.506 208.634C128.114 210.034 126.882 211.126 124.978 211.126C122.794 211.126 121.184 209.586 121.184 207.15C121.184 204.728 122.738 203.202 124.978 203.202C127.204 203.202 128.66 204.77 128.66 206.87C128.66 207.15 128.646 207.374 128.618 207.64H122.486C122.584 209.194 123.676 210.048 124.978 210.048C126.126 210.048 126.854 209.46 127.134 208.634H128.506ZM129.866 207.15C129.866 204.742 131.42 203.202 133.604 203.202C135.508 203.202 136.754 204.182 137.146 205.792H135.774C135.508 204.868 134.738 204.28 133.604 204.28C132.204 204.28 131.168 205.274 131.168 207.15C131.168 209.054 132.204 210.048 133.604 210.048C134.738 210.048 135.494 209.502 135.774 208.536H137.146C136.754 210.062 135.508 211.126 133.604 211.126C131.42 211.126 129.866 209.586 129.866 207.15ZM138.846 211V203.328H140.12V211H138.846ZM139.504 202.082C139.014 202.082 138.636 201.704 138.636 201.214C138.636 200.724 139.014 200.346 139.504 200.346C139.966 200.346 140.344 200.724 140.344 201.214C140.344 201.704 139.966 202.082 139.504 202.082ZM147.807 208.914C147.807 210.174 146.701 211.126 145.007 211.126C143.215 211.126 141.955 210.146 141.871 208.746H143.187C143.257 209.488 143.915 210.048 144.993 210.048C146.001 210.048 146.561 209.544 146.561 208.914C146.561 207.206 142.025 208.2 142.025 205.344C142.025 204.168 143.131 203.202 144.839 203.202C146.533 203.202 147.653 204.112 147.737 205.61H146.463C146.407 204.84 145.819 204.28 144.797 204.28C143.859 204.28 143.299 204.728 143.299 205.344C143.299 207.164 147.751 206.17 147.807 208.914ZM152.867 204.28C151.621 204.28 150.585 205.106 150.445 206.604H155.289C155.303 205.106 154.183 204.28 152.867 204.28ZM156.451 208.634C156.059 210.034 154.827 211.126 152.923 211.126C150.739 211.126 149.129 209.586 149.129 207.15C149.129 204.728 150.683 203.202 152.923 203.202C155.149 203.202 156.605 204.77 156.605 206.87C156.605 207.15 156.591 207.374 156.563 207.64H150.431C150.529 209.194 151.621 210.048 152.923 210.048C154.071 210.048 154.799 209.46 155.079 208.634H156.451ZM158.287 211V200.64H159.561V211H158.287ZM164.644 209.544L167.024 203.328H168.34L163.72 214.612H162.404L163.916 210.916L160.822 203.328H162.236L164.644 209.544ZM174.851 211L172.443 203.328H173.745L175.509 209.768L177.413 203.328H178.715L180.577 209.782L182.313 203.328H183.573L181.179 211H179.863L178.015 204.91L176.167 211H174.851ZM184.838 211V200.64H186.112V204.434C186.616 203.622 187.568 203.188 188.646 203.188C190.354 203.188 191.712 204.28 191.712 206.478V211H190.452V206.66C190.452 205.092 189.598 204.294 188.31 204.294C187.008 204.294 186.112 205.106 186.112 206.758V211H184.838ZM193.317 207.136C193.317 204.742 194.899 203.202 196.957 203.202C198.385 203.202 199.365 203.93 199.813 204.728V203.328H201.101V211H199.813V209.572C199.351 210.398 198.357 211.126 196.943 211.126C194.899 211.126 193.317 209.516 193.317 207.136ZM199.813 207.15C199.813 205.372 198.609 204.308 197.209 204.308C195.809 204.308 194.619 205.33 194.619 207.136C194.619 208.942 195.809 210.006 197.209 210.006C198.609 210.006 199.813 208.956 199.813 207.15ZM203.534 208.9V204.378H202.54V203.328H203.534V201.396H204.808V203.328H206.81V204.378H204.808V208.9C204.808 209.656 205.088 209.922 205.872 209.922H206.81V211H205.662C204.304 211 203.534 210.44 203.534 208.9ZM212.366 208.9V204.378H211.372V203.328H212.366V201.396H213.64V203.328H215.642V204.378H213.64V208.9C213.64 209.656 213.92 209.922 214.704 209.922H215.642V211H214.494C213.136 211 212.366 210.44 212.366 208.9ZM217.185 211V200.64H218.459V204.434C218.963 203.622 219.915 203.188 220.993 203.188C222.701 203.188 224.059 204.28 224.059 206.478V211H222.799V206.66C222.799 205.092 221.945 204.294 220.657 204.294C219.355 204.294 218.459 205.106 218.459 206.758V211H217.185ZM229.403 204.28C228.157 204.28 227.12 205.106 226.981 206.604H231.825C231.839 205.106 230.719 204.28 229.403 204.28ZM232.987 208.634C232.595 210.034 231.363 211.126 229.459 211.126C227.275 211.126 225.665 209.586 225.665 207.15C225.665 204.728 227.219 203.202 229.459 203.202C231.685 203.202 233.141 204.77 233.141 206.87C233.141 207.15 233.127 207.374 233.099 207.64H226.967C227.065 209.194 228.157 210.048 229.459 210.048C230.607 210.048 231.335 209.46 231.615 208.634H232.987ZM237.734 209.544L240.114 203.328H241.43L236.81 214.612H235.494L237.006 210.916L233.912 203.328H235.326L237.734 209.544ZM252.057 211V206.66C252.057 205.092 251.203 204.294 249.915 204.294C248.613 204.294 247.717 205.106 247.717 206.758V211H246.443V203.328H247.717V204.42C248.221 203.622 249.145 203.188 250.181 203.188C251.959 203.188 253.317 204.28 253.317 206.478V211H252.057ZM258.66 204.28C257.414 204.28 256.378 205.106 256.238 206.604H261.082C261.096 205.106 259.976 204.28 258.66 204.28ZM262.244 208.634C261.852 210.034 260.62 211.126 258.716 211.126C256.532 211.126 254.922 209.586 254.922 207.15C254.922 204.728 256.476 203.202 258.716 203.202C260.942 203.202 262.398 204.77 262.398 206.87C262.398 207.15 262.384 207.374 262.356 207.64H256.224C256.322 209.194 257.414 210.048 258.716 210.048C259.864 210.048 260.592 209.46 260.872 208.634H262.244ZM267.342 204.28C266.096 204.28 265.06 205.106 264.92 206.604H269.764C269.778 205.106 268.658 204.28 267.342 204.28ZM270.926 208.634C270.534 210.034 269.302 211.126 267.398 211.126C265.214 211.126 263.604 209.586 263.604 207.15C263.604 204.728 265.158 203.202 267.398 203.202C269.624 203.202 271.08 204.77 271.08 206.87C271.08 207.15 271.066 207.374 271.038 207.64H264.906C265.004 209.194 266.096 210.048 267.398 210.048C268.546 210.048 269.274 209.46 269.554 208.634H270.926ZM272.286 207.136C272.286 204.742 273.868 203.202 275.94 203.202C277.144 203.202 278.25 203.818 278.782 204.7V200.64H280.07V211H278.782V209.558C278.32 210.412 277.326 211.126 275.926 211.126C273.868 211.126 272.286 209.516 272.286 207.136ZM278.782 207.15C278.782 205.372 277.578 204.308 276.178 204.308C274.778 204.308 273.588 205.33 273.588 207.136C273.588 208.942 274.778 210.006 276.178 210.006C277.578 210.006 278.782 208.956 278.782 207.15ZM283.469 210.216C283.469 210.706 283.091 211.084 282.629 211.084C282.139 211.084 281.761 210.706 281.761 210.216C281.761 209.726 282.139 209.348 282.629 209.348C283.091 209.348 283.469 209.726 283.469 210.216Z" fill="#4F668E"/>
</svg>
