<svg width="319" height="54" viewBox="0 0 319 54" fill="none" xmlns="http://www.w3.org/2000/svg">
<path d="M291.553 1.48359C291.939 0.82132 292.896 0.821321 293.281 1.48359L300.789 14.374C300.931 14.6166 301.168 14.7887 301.442 14.8481L316.022 18.0053C316.771 18.1675 317.066 19.0774 316.556 19.6489L306.616 30.7728C306.429 30.9822 306.339 31.2605 306.367 31.5398L307.87 46.3815C307.947 47.1441 307.173 47.7064 306.471 47.3974L292.821 41.3819C292.564 41.2687 292.271 41.2687 292.014 41.3819L278.363 47.3974C277.662 47.7064 276.888 47.1441 276.965 46.3815L278.468 31.5398C278.496 31.2605 278.406 30.9822 278.218 30.7728L268.279 19.6489C267.768 19.0774 268.064 18.1675 268.813 18.0053L283.393 14.8481C283.667 14.7887 283.904 14.6166 284.045 14.374L291.553 1.48359Z" fill="#FBC917"/>
<path d="M225.094 1.48359C225.48 0.82132 226.437 0.821321 226.822 1.48359L234.33 14.374C234.472 14.6166 234.709 14.7887 234.983 14.8481L249.563 18.0053C250.312 18.1675 250.607 19.0774 250.097 19.6489L240.157 30.7728C239.97 30.9822 239.88 31.2605 239.908 31.5398L241.411 46.3815C241.488 47.1441 240.714 47.7064 240.013 47.3974L226.362 41.3819C226.105 41.2687 225.812 41.2687 225.555 41.3819L211.904 47.3974C211.203 47.7064 210.429 47.1441 210.506 46.3815L212.009 31.5398C212.037 31.2605 211.947 30.9822 211.759 30.7728L201.82 19.6489C201.309 19.0774 201.605 18.1675 202.354 18.0053L216.934 14.8481C217.208 14.7887 217.445 14.6166 217.586 14.374L225.094 1.48359Z" fill="#FBC917"/>
<path d="M158.635 1.48359C159.021 0.82132 159.978 0.821321 160.363 1.48359L167.871 14.374C168.013 14.6166 168.25 14.7887 168.524 14.8481L183.104 18.0053C183.853 18.1675 184.148 19.0774 183.638 19.6489L173.698 30.7728C173.511 30.9822 173.421 31.2605 173.449 31.5398L174.952 46.3815C175.029 47.1441 174.255 47.7064 173.554 47.3974L159.903 41.3819C159.646 41.2687 159.353 41.2687 159.096 41.3819L145.445 47.3974C144.744 47.7064 143.97 47.1441 144.047 46.3815L145.55 31.5398C145.578 31.2605 145.488 30.9822 145.3 30.7728L135.361 19.6489C134.85 19.0774 135.146 18.1675 135.895 18.0053L150.475 14.8481C150.749 14.7887 150.986 14.6166 151.127 14.374L158.635 1.48359Z" fill="#FBC917"/>
<path d="M92.1782 1.48359C92.5639 0.82132 93.5207 0.821321 93.9064 1.48359L101.414 14.374C101.556 14.6166 101.793 14.7887 102.067 14.8481L116.647 18.0053C117.396 18.1675 117.691 19.0774 117.181 19.6489L107.241 30.7728C107.054 30.9822 106.964 31.2605 106.992 31.5398L108.495 46.3815C108.572 47.1441 107.798 47.7064 107.096 47.3974L93.4456 41.3819C93.1887 41.2687 92.896 41.2687 92.6391 41.3819L78.9881 47.3974C78.2868 47.7064 77.5128 47.1441 77.59 46.3815L79.0927 31.5398C79.121 31.2605 79.0305 30.9822 78.8435 30.7728L68.904 19.6489C68.3934 19.0774 68.689 18.1675 69.4381 18.0053L84.0177 14.8481C84.2921 14.7887 84.5289 14.6166 84.6702 14.374L92.1782 1.48359Z" fill="#FBC917"/>
<path d="M25.7192 1.48359C26.105 0.82132 27.0617 0.821321 27.4474 1.48359L34.9555 14.374C35.0968 14.6166 35.3335 14.7887 35.6079 14.8481L50.1876 18.0053C50.9366 18.1675 51.2323 19.0774 50.7216 19.6489L40.7822 30.7728C40.5951 30.9822 40.5047 31.2605 40.533 31.5398L42.0357 46.3815C42.1129 47.1441 41.3389 47.7064 40.6375 47.3974L26.9866 41.3819C26.7297 41.2687 26.437 41.2687 26.1801 41.3819L12.5292 47.3974C11.8278 47.7064 11.0538 47.1441 11.131 46.3815L12.6337 31.5398C12.662 31.2605 12.5715 30.9822 12.3845 30.7728L2.44503 19.6489C1.93438 19.0774 2.23003 18.1675 2.97908 18.0053L17.5587 14.8481C17.8331 14.7887 18.0699 14.6166 18.2112 14.374L25.7192 1.48359Z" fill="#FBC917"/>
</svg>
