<svg width="239" height="79" viewBox="0 0 239 79" fill="none" xmlns="http://www.w3.org/2000/svg">
<path d="M59.8911 28.0967H32.4636V36.2614H51.9155C50.9545 47.7103 41.4593 52.5929 32.4964 52.5929C26.7777 52.5191 21.3183 50.1874 17.3016 46.1033C13.2848 42.0192 11.0342 36.5118 11.0375 30.7745C11.0408 25.0372 13.2978 19.5323 17.3193 15.4529C21.3408 11.3735 26.8028 9.04815 32.5216 8.9809C37.9869 8.96947 43.2436 11.0847 47.1862 14.8816L52.8849 8.96161C52.8849 8.96161 45.5705 0.793015 32.2303 0.793015C15.2432 0.793015 2.10156 15.1753 2.10156 30.7102C2.18673 38.7606 5.45279 46.4481 11.1827 52.085C16.9126 57.722 24.6382 60.8478 32.6633 60.7761C48.6698 60.7761 60.3873 49.776 60.3873 33.5097C60.4228 31.6917 60.2562 29.8755 59.8907 28.0946L59.8911 28.0967Z" fill="#587FC0"/>
<path d="M82.3591 22.1836C78.5637 22.1967 74.8572 23.3368 71.707 25.4602C68.5567 27.5836 66.1037 30.5952 64.6573 34.1152C63.2109 37.6353 62.8359 41.5061 63.5795 45.2397C64.3232 48.9733 66.1522 52.4023 68.8359 55.0946C71.5196 57.7868 74.9379 59.6215 78.6597 60.3675C82.3814 61.1135 86.2401 60.7373 89.749 59.2863C93.258 57.8354 96.2601 55.3746 98.3768 52.2144C100.494 49.0541 101.63 45.3359 101.643 41.5286C101.643 28.76 91.6108 22.1836 82.3591 22.1836ZM82.471 29.7562C88.0054 29.7562 93.25 34.2449 93.25 41.4776C93.25 48.557 88.0278 53.1735 82.4455 53.1735C76.312 53.1735 71.4733 48.2457 71.4733 41.4215C71.4733 34.7432 76.252 29.7563 82.471 29.7563V29.7562Z" fill="#DB3336"/>
<path d="M124.377 22.1836C120.581 22.1967 116.875 23.3369 113.724 25.4603C110.574 27.5837 108.121 30.5953 106.675 34.1153C105.228 37.6353 104.853 41.5062 105.597 45.2398C106.341 48.9733 108.17 52.4024 110.853 55.0946C113.537 57.7868 116.955 59.6215 120.677 60.3675C124.399 61.1135 128.258 60.7373 131.767 59.2863C135.276 57.8353 138.278 55.3746 140.394 52.2144C142.511 49.0541 143.648 45.3359 143.661 41.5286C143.661 28.76 133.628 22.1836 124.377 22.1836ZM124.488 29.7562C130.023 29.7562 135.268 34.2449 135.268 41.4776C135.268 48.557 130.045 53.1736 124.463 53.1736C118.33 53.1736 113.491 48.2457 113.491 41.4215C113.491 34.7432 118.27 29.7563 124.489 29.7563L124.488 29.7562Z" fill="#F3C217"/>
<path d="M165.59 22.2039C155.26 22.2039 147.14 31.2797 147.14 41.467C147.14 53.0711 156.553 60.7663 165.412 60.7663C170.889 60.7663 173.801 58.5852 175.951 56.0814V59.8838C175.951 66.5352 171.925 70.5183 165.849 70.5183C163.712 70.4956 161.632 69.829 159.877 68.6051C158.123 67.3812 156.776 65.6564 156.011 63.6548L148.625 66.7524C151.245 72.3099 156.52 78.1063 165.91 78.1063C176.181 78.1063 184.009 71.6166 184.009 58.006V23.3631H175.952V26.6288C174.64 25.1914 173.036 24.0527 171.249 23.2895C169.461 22.5262 167.531 22.1562 165.589 22.2044L165.59 22.2039ZM166.337 29.7611C171.402 29.7611 176.602 34.0995 176.602 41.5081C176.602 49.0384 171.413 53.1886 166.225 53.1886C160.718 53.1886 155.594 48.7029 155.594 41.5797C155.594 34.1781 160.916 29.7613 166.337 29.7613L166.337 29.7611Z" fill="#587FC0"/>
<path d="M219.835 22.1582C210.091 22.1582 201.909 29.9355 201.909 41.4114C201.909 53.5546 211.029 60.7564 220.771 60.7564C228.903 60.7564 233.893 56.294 236.871 52.296L230.228 47.8617C229.264 49.5006 227.886 50.8547 226.232 51.7868C224.578 52.7188 222.708 53.1955 220.812 53.1686C215.409 53.1686 212.925 50.2007 211.386 47.3259L237.155 36.5996L235.817 33.4561C233.328 27.3004 227.521 22.1596 219.836 22.1596L219.835 22.1582ZM220.171 29.5727C221.624 29.5114 223.064 29.866 224.323 30.5952C225.582 31.3244 226.609 32.3981 227.282 33.6907L210.073 40.9063C209.332 35.3202 214.607 29.5727 220.171 29.5727Z" fill="#DB3336"/>
<path d="M189.624 59.611H198.089V2.78613H189.624V59.611Z" fill="#45B754"/>
</svg>
