<svg width="32" height="32" viewBox="0 0 32 32" fill="none" xmlns="http://www.w3.org/2000/svg">
<rect width="32" height="32" rx="3" fill="#009DDD"/>
<path d="M11.0291 24.3746H7.29732V12.1068H11.0291V24.3746ZM9.16121 10.4334C7.9679 10.4334 7 9.42439 7 8.20623C7 7.6211 7.2277 7.05994 7.633 6.64619C8.03831 6.23244 8.58802 6 9.16121 6C9.73439 6 10.2841 6.23244 10.6894 6.64619C11.0947 7.05994 11.3224 7.6211 11.3224 8.20623C11.3224 9.42439 10.3541 10.4334 9.16121 10.4334ZM24.996 24.3746H21.2722V18.4027C21.2722 16.9795 21.2441 15.1543 19.332 15.1543C17.3918 15.1543 17.0945 16.7006 17.0945 18.3002V24.3746H13.3667V12.1068H16.9458V13.7803H16.998C17.4962 12.8164 18.7133 11.7992 20.5289 11.7992C24.3057 11.7992 25 14.3381 25 17.6357V24.3746H24.996Z" fill="white"/>
</svg>
