<svg width="138" height="128" viewBox="0 0 138 128" fill="none" xmlns="http://www.w3.org/2000/svg">
<g filter="url(#filter0_d_4916_705)">
<path d="M86.6006 40H51.3994C45.1037 40 40 45.1037 40 51.3994V76.5295C40 82.8252 45.1037 87.9289 51.3994 87.9289H86.6006C92.8963 87.9289 98 82.8252 98 76.5295V51.3994C98 45.1037 92.8963 40 86.6006 40Z" fill="url(#paint0_linear_4916_705)"/>
</g>
<path d="M46.707 53.2284C46.707 53.2284 57.2688 72.026 58.6028 73.4723C59.9369 74.9187 60.9236 75.5732 63.0748 75.5732C65.226 75.5732 66.5101 74.5826 67.3047 73.4723C68.0992 72.362 77.0682 57.3464 77.0682 57.3464C77.0682 57.3464 75.2931 56.6061 73.6343 56.6061C71.9754 56.6061 70.9366 57.0587 69.9955 58.0502C69.0544 59.0417 62.6249 69.7606 62.6249 69.7606C62.6249 69.7606 54.5355 54.825 53.4638 53.8166C52.392 52.8082 51.844 52.5078 50.1392 52.3848C48.4343 52.2618 46.707 53.2284 46.707 53.2284Z" fill="white"/>
<path d="M91.1475 53.3319C91.1475 53.3319 79.9793 72.9088 78.859 73.9805C77.7387 75.0523 77.2108 75.3287 75.4799 75.5035C73.749 75.6782 71.9551 74.7482 71.9551 74.7482C71.9551 74.7482 83.1004 55.3445 83.8667 54.372C84.6331 53.3995 85.5232 52.7557 87.3434 52.4959C89.1637 52.2361 91.1475 53.3319 91.1475 53.3319Z" fill="white"/>
<defs>
<filter id="filter0_d_4916_705" x="0" y="0" width="138" height="127.929" filterUnits="userSpaceOnUse" color-interpolation-filters="sRGB">
<feFlood flood-opacity="0" result="BackgroundImageFix"/>
<feColorMatrix in="SourceAlpha" type="matrix" values="0 0 0 0 0 0 0 0 0 0 0 0 0 0 0 0 0 0 127 0" result="hardAlpha"/>
<feOffset/>
<feGaussianBlur stdDeviation="20"/>
<feColorMatrix type="matrix" values="0 0 0 0 0 0 0 0 0 0.317647 0 0 0 0 0.984314 0 0 0 0.153 0"/>
<feBlend mode="normal" in2="BackgroundImageFix" result="effect1_dropShadow_4916_705"/>
<feBlend mode="normal" in="SourceGraphic" in2="effect1_dropShadow_4916_705" result="shape"/>
</filter>
<linearGradient id="paint0_linear_4916_705" x1="69" y1="40" x2="69" y2="87.9289" gradientUnits="userSpaceOnUse">
<stop stop-color="#01B0FF"/>
<stop offset="1" stop-color="#004DF0"/>
</linearGradient>
</defs>
</svg>
