<svg width="250" height="293" viewBox="0 0 250 293" fill="none" xmlns="http://www.w3.org/2000/svg">
<path d="M85.563 33H30C14.536 33 2 45.536 2 61V263C2 278.464 14.536 291 30 291H115" stroke="#23D9AE" stroke-width="3"/>
<circle cx="73" cy="31" r="31" fill="#34B7F2"/>
<path d="M39.14 89.96V104H35.72V95.58L32.58 104H29.82L26.66 95.56V104H23.24V89.96H27.28L31.22 99.68L35.12 89.96H39.14ZM40.9194 98.4C40.9194 97.2533 41.1327 96.2467 41.5594 95.38C41.9994 94.5133 42.5927 93.8467 43.3394 93.38C44.086 92.9133 44.9194 92.68 45.8394 92.68C46.626 92.68 47.3127 92.84 47.8994 93.16C48.4994 93.48 48.9594 93.9 49.2794 94.42V92.84H52.6994V104H49.2794V102.42C48.946 102.94 48.4794 103.36 47.8794 103.68C47.2927 104 46.606 104.16 45.8194 104.16C44.9127 104.16 44.086 103.927 43.3394 103.46C42.5927 102.98 41.9994 102.307 41.5594 101.44C41.1327 100.56 40.9194 99.5467 40.9194 98.4ZM49.2794 98.42C49.2794 97.5667 49.0394 96.8933 48.5594 96.4C48.0927 95.9067 47.5194 95.66 46.8394 95.66C46.1594 95.66 45.5794 95.9067 45.0994 96.4C44.6327 96.88 44.3994 97.5467 44.3994 98.4C44.3994 99.2533 44.6327 99.9333 45.0994 100.44C45.5794 100.933 46.1594 101.18 46.8394 101.18C47.5194 101.18 48.0927 100.933 48.5594 100.44C49.0394 99.9467 49.2794 99.2733 49.2794 98.42ZM56.8936 91.68C56.2936 91.68 55.8003 91.5067 55.4136 91.16C55.0403 90.8 54.8536 90.36 54.8536 89.84C54.8536 89.3067 55.0403 88.8667 55.4136 88.52C55.8003 88.16 56.2936 87.98 56.8936 87.98C57.4803 87.98 57.9603 88.16 58.3336 88.52C58.7203 88.8667 58.9136 89.3067 58.9136 89.84C58.9136 90.36 58.7203 90.8 58.3336 91.16C57.9603 91.5067 57.4803 91.68 56.8936 91.68ZM58.5936 92.84V104H55.1736V92.84H58.5936ZM67.872 92.72C69.1787 92.72 70.2187 93.1467 70.992 94C71.7787 94.84 72.172 96 72.172 97.48V104H68.772V97.94C68.772 97.1933 68.5787 96.6133 68.192 96.2C67.8054 95.7867 67.2854 95.58 66.632 95.58C65.9787 95.58 65.4587 95.7867 65.072 96.2C64.6854 96.6133 64.492 97.1933 64.492 97.94V104H61.072V92.84H64.492V94.32C64.8387 93.8267 65.3054 93.44 65.892 93.16C66.4787 92.8667 67.1387 92.72 67.872 92.72ZM80.7686 101.1V104H79.0286C77.7886 104 76.8219 103.7 76.1286 103.1C75.4353 102.487 75.0886 101.493 75.0886 100.12V95.68H73.7286V92.84H75.0886V90.12H78.5086V92.84H80.7486V95.68H78.5086V100.16C78.5086 100.493 78.5886 100.733 78.7486 100.88C78.9086 101.027 79.1753 101.1 79.5486 101.1H80.7686ZM93.1936 98.24C93.1936 98.56 93.1736 98.8933 93.1336 99.24H85.3936C85.4469 99.9333 85.6669 100.467 86.0536 100.84C86.4536 101.2 86.9403 101.38 87.5136 101.38C88.3669 101.38 88.9603 101.02 89.2936 100.3H92.9336C92.7469 101.033 92.4069 101.693 91.9136 102.28C91.4336 102.867 90.8269 103.327 90.0936 103.66C89.3603 103.993 88.5403 104.16 87.6336 104.16C86.5403 104.16 85.5669 103.927 84.7136 103.46C83.8603 102.993 83.1936 102.327 82.7136 101.46C82.2336 100.593 81.9936 99.58 81.9936 98.42C81.9936 97.26 82.2269 96.2467 82.6936 95.38C83.1736 94.5133 83.8403 93.8467 84.6936 93.38C85.5469 92.9133 86.5269 92.68 87.6336 92.68C88.7136 92.68 89.6736 92.9067 90.5136 93.36C91.3536 93.8133 92.0069 94.46 92.4736 95.3C92.9536 96.14 93.1936 97.12 93.1936 98.24ZM89.6936 97.34C89.6936 96.7533 89.4936 96.2867 89.0936 95.94C88.6936 95.5933 88.1936 95.42 87.5936 95.42C87.0203 95.42 86.5336 95.5867 86.1336 95.92C85.7469 96.2533 85.5069 96.7267 85.4136 97.34H89.6936ZM101.798 92.72C103.104 92.72 104.144 93.1467 104.918 94C105.704 94.84 106.098 96 106.098 97.48V104H102.698V97.94C102.698 97.1933 102.504 96.6133 102.118 96.2C101.731 95.7867 101.211 95.58 100.558 95.58C99.9045 95.58 99.3845 95.7867 98.9978 96.2C98.6111 96.6133 98.4178 97.1933 98.4178 97.94V104H94.9978V92.84H98.4178V94.32C98.7645 93.8267 99.2311 93.44 99.8178 93.16C100.404 92.8667 101.064 92.72 101.798 92.72ZM107.794 98.4C107.794 97.2533 108.008 96.2467 108.434 95.38C108.874 94.5133 109.468 93.8467 110.214 93.38C110.961 92.9133 111.794 92.68 112.714 92.68C113.501 92.68 114.188 92.84 114.774 93.16C115.374 93.48 115.834 93.9 116.154 94.42V92.84H119.574V104H116.154V102.42C115.821 102.94 115.354 103.36 114.754 103.68C114.168 104 113.481 104.16 112.694 104.16C111.788 104.16 110.961 103.927 110.214 103.46C109.468 102.98 108.874 102.307 108.434 101.44C108.008 100.56 107.794 99.5467 107.794 98.4ZM116.154 98.42C116.154 97.5667 115.914 96.8933 115.434 96.4C114.968 95.9067 114.394 95.66 113.714 95.66C113.034 95.66 112.454 95.9067 111.974 96.4C111.508 96.88 111.274 97.5467 111.274 98.4C111.274 99.2533 111.508 99.9333 111.974 100.44C112.454 100.933 113.034 101.18 113.714 101.18C114.394 101.18 114.968 100.933 115.434 100.44C115.914 99.9467 116.154 99.2733 116.154 98.42ZM128.849 92.72C130.155 92.72 131.195 93.1467 131.969 94C132.755 94.84 133.149 96 133.149 97.48V104H129.749V97.94C129.749 97.1933 129.555 96.6133 129.169 96.2C128.782 95.7867 128.262 95.58 127.609 95.58C126.955 95.58 126.435 95.7867 126.049 96.2C125.662 96.6133 125.469 97.1933 125.469 97.94V104H122.049V92.84H125.469V94.32C125.815 93.8267 126.282 93.44 126.869 93.16C127.455 92.8667 128.115 92.72 128.849 92.72ZM134.845 98.42C134.845 97.26 135.078 96.2467 135.545 95.38C136.025 94.5133 136.685 93.8467 137.525 93.38C138.378 92.9133 139.352 92.68 140.445 92.68C141.845 92.68 143.012 93.0467 143.945 93.78C144.892 94.5133 145.512 95.5467 145.805 96.88H142.165C141.858 96.0267 141.265 95.6 140.385 95.6C139.758 95.6 139.258 95.8467 138.885 96.34C138.512 96.82 138.325 97.5133 138.325 98.42C138.325 99.3267 138.512 100.027 138.885 100.52C139.258 101 139.758 101.24 140.385 101.24C141.265 101.24 141.858 100.813 142.165 99.96H145.805C145.512 101.267 144.892 102.293 143.945 103.04C142.998 103.787 141.832 104.16 140.445 104.16C139.352 104.16 138.378 103.927 137.525 103.46C136.685 102.993 136.025 102.327 135.545 101.46C135.078 100.593 134.845 99.58 134.845 98.42ZM158.155 98.24C158.155 98.56 158.135 98.8933 158.095 99.24H150.355C150.408 99.9333 150.628 100.467 151.015 100.84C151.415 101.2 151.901 101.38 152.475 101.38C153.328 101.38 153.921 101.02 154.255 100.3H157.895C157.708 101.033 157.368 101.693 156.875 102.28C156.395 102.867 155.788 103.327 155.055 103.66C154.321 103.993 153.501 104.16 152.595 104.16C151.501 104.16 150.528 103.927 149.675 103.46C148.821 102.993 148.155 102.327 147.675 101.46C147.195 100.593 146.955 99.58 146.955 98.42C146.955 97.26 147.188 96.2467 147.655 95.38C148.135 94.5133 148.801 93.8467 149.655 93.38C150.508 92.9133 151.488 92.68 152.595 92.68C153.675 92.68 154.635 92.9067 155.475 93.36C156.315 93.8133 156.968 94.46 157.435 95.3C157.915 96.14 158.155 97.12 158.155 98.24ZM154.655 97.34C154.655 96.7533 154.455 96.2867 154.055 95.94C153.655 95.5933 153.155 95.42 152.555 95.42C151.981 95.42 151.495 95.5867 151.095 95.92C150.708 96.2533 150.468 96.7267 150.375 97.34H154.655ZM174.937 104L173.637 102.74C172.344 103.727 170.797 104.22 168.997 104.22C167.917 104.22 166.977 104.047 166.177 103.7C165.377 103.34 164.757 102.84 164.317 102.2C163.89 101.547 163.677 100.787 163.677 99.92C163.677 99.04 163.91 98.2467 164.377 97.54C164.857 96.82 165.57 96.2333 166.517 95.78C166.17 95.3533 165.924 94.9467 165.777 94.56C165.63 94.16 165.557 93.7267 165.557 93.26C165.557 92.5933 165.73 91.9867 166.077 91.44C166.424 90.8933 166.924 90.4667 167.577 90.16C168.244 89.84 169.03 89.68 169.937 89.68C170.857 89.68 171.637 89.8467 172.277 90.18C172.917 90.5133 173.397 90.96 173.717 91.52C174.037 92.08 174.184 92.6933 174.157 93.36H170.937C170.95 93 170.857 92.7267 170.657 92.54C170.47 92.34 170.217 92.24 169.897 92.24C169.577 92.24 169.31 92.3333 169.097 92.52C168.884 92.7067 168.777 92.9467 168.777 93.24C168.777 93.52 168.864 93.8133 169.037 94.12C169.224 94.4267 169.51 94.78 169.897 95.18L173.317 98.52C173.344 98.4533 173.377 98.3733 173.417 98.28C173.47 98.1867 173.524 98.08 173.577 97.96L174.317 96.7H177.737L176.777 98.44C176.417 99.2267 176.004 99.9733 175.537 100.68L178.917 104H174.937ZM169.157 101.46C170.05 101.46 170.844 101.207 171.537 100.7L168.417 97.68C167.457 98.1733 166.977 98.84 166.977 99.68C166.977 100.187 167.17 100.613 167.557 100.96C167.957 101.293 168.49 101.46 169.157 101.46ZM26.6 119.96V128.36C26.6 129.2 26.8067 129.847 27.22 130.3C27.6333 130.753 28.24 130.98 29.04 130.98C29.84 130.98 30.4533 130.753 30.88 130.3C31.3067 129.847 31.52 129.2 31.52 128.36V119.96H34.94V128.34C34.94 129.593 34.6733 130.653 34.14 131.52C33.6067 132.387 32.8867 133.04 31.98 133.48C31.0867 133.92 30.0867 134.14 28.98 134.14C27.8733 134.14 26.88 133.927 26 133.5C25.1333 133.06 24.4467 132.407 23.94 131.54C23.4333 130.66 23.18 129.593 23.18 128.34V119.96H26.6ZM40.7616 124.42C41.0949 123.9 41.5549 123.48 42.1416 123.16C42.7282 122.84 43.4149 122.68 44.2016 122.68C45.1216 122.68 45.9549 122.913 46.7016 123.38C47.4482 123.847 48.0349 124.513 48.4616 125.38C48.9016 126.247 49.1216 127.253 49.1216 128.4C49.1216 129.547 48.9016 130.56 48.4616 131.44C48.0349 132.307 47.4482 132.98 46.7016 133.46C45.9549 133.927 45.1216 134.16 44.2016 134.16C43.4282 134.16 42.7416 134 42.1416 133.68C41.5549 133.36 41.0949 132.947 40.7616 132.44V139.32H37.3416V122.84H40.7616V124.42ZM45.6416 128.4C45.6416 127.547 45.4016 126.88 44.9216 126.4C44.4549 125.907 43.8749 125.66 43.1816 125.66C42.5016 125.66 41.9216 125.907 41.4416 126.4C40.9749 126.893 40.7416 127.567 40.7416 128.42C40.7416 129.273 40.9749 129.947 41.4416 130.44C41.9216 130.933 42.5016 131.18 43.1816 131.18C43.8616 131.18 44.4416 130.933 44.9216 130.44C45.4016 129.933 45.6416 129.253 45.6416 128.4ZM55.1558 122.68C55.9424 122.68 56.6291 122.84 57.2158 123.16C57.8158 123.48 58.2758 123.9 58.5958 124.42V122.84H62.0158V133.98C62.0158 135.007 61.8091 135.933 61.3958 136.76C60.9958 137.6 60.3758 138.267 59.5358 138.76C58.7091 139.253 57.6758 139.5 56.4358 139.5C54.7824 139.5 53.4424 139.107 52.4158 138.32C51.3891 137.547 50.8024 136.493 50.6558 135.16H54.0358C54.1424 135.587 54.3958 135.92 54.7958 136.16C55.1958 136.413 55.6891 136.54 56.2758 136.54C56.9824 136.54 57.5424 136.333 57.9558 135.92C58.3824 135.52 58.5958 134.873 58.5958 133.98V132.4C58.2624 132.92 57.8024 133.347 57.2158 133.68C56.6291 134 55.9424 134.16 55.1558 134.16C54.2358 134.16 53.4024 133.927 52.6558 133.46C51.9091 132.98 51.3158 132.307 50.8758 131.44C50.4491 130.56 50.2358 129.547 50.2358 128.4C50.2358 127.253 50.4491 126.247 50.8758 125.38C51.3158 124.513 51.9091 123.847 52.6558 123.38C53.4024 122.913 54.2358 122.68 55.1558 122.68ZM58.5958 128.42C58.5958 127.567 58.3558 126.893 57.8758 126.4C57.4091 125.907 56.8358 125.66 56.1558 125.66C55.4758 125.66 54.8958 125.907 54.4158 126.4C53.9491 126.88 53.7158 127.547 53.7158 128.4C53.7158 129.253 53.9491 129.933 54.4158 130.44C54.8958 130.933 55.4758 131.18 56.1558 131.18C56.8358 131.18 57.4091 130.933 57.8758 130.44C58.3558 129.947 58.5958 129.273 58.5958 128.42ZM67.91 124.7C68.31 124.087 68.81 123.607 69.41 123.26C70.01 122.9 70.6767 122.72 71.41 122.72V126.34H70.47C69.6167 126.34 68.9767 126.527 68.55 126.9C68.1233 127.26 67.91 127.9 67.91 128.82V134H64.49V122.84H67.91V124.7ZM72.3647 128.4C72.3647 127.253 72.578 126.247 73.0047 125.38C73.4447 124.513 74.038 123.847 74.7847 123.38C75.5314 122.913 76.3647 122.68 77.2847 122.68C78.0714 122.68 78.758 122.84 79.3447 123.16C79.9447 123.48 80.4047 123.9 80.7247 124.42V122.84H84.1447V134H80.7247V132.42C80.3914 132.94 79.9247 133.36 79.3247 133.68C78.738 134 78.0514 134.16 77.2647 134.16C76.358 134.16 75.5314 133.927 74.7847 133.46C74.038 132.98 73.4447 132.307 73.0047 131.44C72.578 130.56 72.3647 129.547 72.3647 128.4ZM80.7247 128.42C80.7247 127.567 80.4847 126.893 80.0047 126.4C79.538 125.907 78.9647 125.66 78.2847 125.66C77.6047 125.66 77.0247 125.907 76.5447 126.4C76.078 126.88 75.8447 127.547 75.8447 128.4C75.8447 129.253 76.078 129.933 76.5447 130.44C77.0247 130.933 77.6047 131.18 78.2847 131.18C78.9647 131.18 79.538 130.933 80.0047 130.44C80.4847 129.947 80.7247 129.273 80.7247 128.42ZM85.9389 128.4C85.9389 127.253 86.1522 126.247 86.5789 125.38C87.0189 124.513 87.6122 123.847 88.3589 123.38C89.1056 122.913 89.9389 122.68 90.8589 122.68C91.5922 122.68 92.2589 122.833 92.8589 123.14C93.4722 123.447 93.9522 123.86 94.2989 124.38V119.2H97.7189V134H94.2989V132.4C93.9789 132.933 93.5189 133.36 92.9189 133.68C92.3322 134 91.6456 134.16 90.8589 134.16C89.9389 134.16 89.1056 133.927 88.3589 133.46C87.6122 132.98 87.0189 132.307 86.5789 131.44C86.1522 130.56 85.9389 129.547 85.9389 128.4ZM94.2989 128.42C94.2989 127.567 94.0589 126.893 93.5789 126.4C93.1122 125.907 92.5389 125.66 91.8589 125.66C91.1789 125.66 90.5989 125.907 90.1189 126.4C89.6522 126.88 89.4189 127.547 89.4189 128.4C89.4189 129.253 89.6522 129.933 90.1189 130.44C90.5989 130.933 91.1789 131.18 91.8589 131.18C92.5389 131.18 93.1122 130.933 93.5789 130.44C94.0589 129.947 94.2989 129.273 94.2989 128.42ZM110.713 128.24C110.713 128.56 110.693 128.893 110.653 129.24H102.913C102.966 129.933 103.186 130.467 103.573 130.84C103.973 131.2 104.46 131.38 105.033 131.38C105.886 131.38 106.48 131.02 106.813 130.3H110.453C110.266 131.033 109.926 131.693 109.433 132.28C108.953 132.867 108.346 133.327 107.613 133.66C106.88 133.993 106.06 134.16 105.153 134.16C104.06 134.16 103.086 133.927 102.233 133.46C101.38 132.993 100.713 132.327 100.233 131.46C99.7531 130.593 99.5131 129.58 99.5131 128.42C99.5131 127.26 99.7465 126.247 100.213 125.38C100.693 124.513 101.36 123.847 102.213 123.38C103.066 122.913 104.046 122.68 105.153 122.68C106.233 122.68 107.193 122.907 108.033 123.36C108.873 123.813 109.526 124.46 109.993 125.3C110.473 126.14 110.713 127.12 110.713 128.24ZM107.213 127.34C107.213 126.753 107.013 126.287 106.613 125.94C106.213 125.593 105.713 125.42 105.113 125.42C104.54 125.42 104.053 125.587 103.653 125.92C103.266 126.253 103.026 126.727 102.933 127.34H107.213ZM117.057 134.16C116.084 134.16 115.217 133.993 114.457 133.66C113.697 133.327 113.097 132.873 112.657 132.3C112.217 131.713 111.971 131.06 111.917 130.34H115.297C115.337 130.727 115.517 131.04 115.837 131.28C116.157 131.52 116.551 131.64 117.017 131.64C117.444 131.64 117.771 131.56 117.997 131.4C118.237 131.227 118.357 131.007 118.357 130.74C118.357 130.42 118.191 130.187 117.857 130.04C117.524 129.88 116.984 129.707 116.237 129.52C115.437 129.333 114.771 129.14 114.237 128.94C113.704 128.727 113.244 128.4 112.857 127.96C112.471 127.507 112.277 126.9 112.277 126.14C112.277 125.5 112.451 124.92 112.797 124.4C113.157 123.867 113.677 123.447 114.357 123.14C115.051 122.833 115.871 122.68 116.817 122.68C118.217 122.68 119.317 123.027 120.117 123.72C120.931 124.413 121.397 125.333 121.517 126.48H118.357C118.304 126.093 118.131 125.787 117.837 125.56C117.557 125.333 117.184 125.22 116.717 125.22C116.317 125.22 116.011 125.3 115.797 125.46C115.584 125.607 115.477 125.813 115.477 126.08C115.477 126.4 115.644 126.64 115.977 126.8C116.324 126.96 116.857 127.12 117.577 127.28C118.404 127.493 119.077 127.707 119.597 127.92C120.117 128.12 120.571 128.453 120.957 128.92C121.357 129.373 121.564 129.987 121.577 130.76C121.577 131.413 121.391 132 121.017 132.52C120.657 133.027 120.131 133.427 119.437 133.72C118.757 134.013 117.964 134.16 117.057 134.16Z" fill="#0051FB"/>
<path d="M70.0264 42.4648L76.1523 23.8877H71.4873C69.6611 23.8877 68.2887 24.1257 67.3701 24.6016C66.7282 24.9336 66.1969 25.5589 65.7764 26.4775H65.1455L66.7725 19.4883H80.1865L72.6328 42.4648H70.0264Z" fill="white"/>
<path d="M29.476 157.228H30.75V167H29.476L24.352 159.23V167H23.078V157.228H24.352L29.476 164.984V157.228ZM40.2018 163.15C40.2018 165.586 38.4518 167.126 36.2678 167.126C34.0978 167.126 32.4458 165.586 32.4458 163.15C32.4458 160.728 34.1538 159.202 36.3238 159.202C38.5078 159.202 40.2018 160.728 40.2018 163.15ZM33.7478 163.15C33.7478 165.096 34.9378 166.006 36.2678 166.006C37.5978 166.006 38.8998 165.096 38.8998 163.15C38.8998 161.218 37.6258 160.308 36.3098 160.308C34.9658 160.308 33.7478 161.218 33.7478 163.15ZM43.3748 167L40.9668 159.328H42.2688L44.0328 165.768L45.9368 159.328H47.2388L49.1008 165.782L50.8368 159.328H52.0968L49.7028 167H48.3868L46.5388 160.91L44.6908 167H43.3748ZM57.3736 164.9V160.378H56.3796V159.328H57.3736V157.396H58.6476V159.328H60.6496V160.378H58.6476V164.9C58.6476 165.656 58.9276 165.922 59.7116 165.922H60.6496V167H59.5016C58.1436 167 57.3736 166.44 57.3736 164.9ZM62.1932 167V156.64H63.4672V160.434C63.9712 159.622 64.9232 159.188 66.0012 159.188C67.7092 159.188 69.0672 160.28 69.0672 162.478V167H67.8072V162.66C67.8072 161.092 66.9532 160.294 65.6652 160.294C64.3632 160.294 63.4672 161.106 63.4672 162.758V167H62.1932ZM70.6723 163.136C70.6723 160.742 72.2543 159.202 74.3123 159.202C75.7403 159.202 76.7203 159.93 77.1683 160.728V159.328H78.4563V167H77.1683V165.572C76.7063 166.398 75.7123 167.126 74.2983 167.126C72.2543 167.126 70.6723 165.516 70.6723 163.136ZM77.1683 163.15C77.1683 161.372 75.9643 160.308 74.5643 160.308C73.1643 160.308 71.9743 161.33 71.9743 163.136C71.9743 164.942 73.1643 166.006 74.5643 166.006C75.9643 166.006 77.1683 164.956 77.1683 163.15ZM80.8893 164.9V160.378H79.8953V159.328H80.8893V157.396H82.1633V159.328H84.1653V160.378H82.1633V164.9C82.1633 165.656 82.4433 165.922 83.2272 165.922H84.1653V167H83.0173C81.6593 167 80.8893 166.44 80.8893 164.9ZM92.3533 165.544L94.7333 159.328H96.0493L91.4293 170.612H90.1133L91.6253 166.916L88.5313 159.328H89.9453L92.3533 165.544ZM104.61 163.15C104.61 165.586 102.86 167.126 100.676 167.126C98.506 167.126 96.854 165.586 96.854 163.15C96.854 160.728 98.562 159.202 100.732 159.202C102.916 159.202 104.61 160.728 104.61 163.15ZM98.156 163.15C98.156 165.096 99.346 166.006 100.676 166.006C102.006 166.006 103.308 165.096 103.308 163.15C103.308 161.218 102.034 160.308 100.718 160.308C99.374 160.308 98.156 161.218 98.156 163.15ZM113.089 159.328V167H111.815V165.866C111.325 166.664 110.387 167.112 109.365 167.112C107.601 167.112 106.215 166.02 106.215 163.822V159.328H107.475V163.654C107.475 165.208 108.329 166.006 109.617 166.006C110.933 166.006 111.815 165.194 111.815 163.542V159.328H113.089ZM116.514 162.828V167H115.24V159.328H116.514V160.574C116.948 159.72 117.774 159.188 118.992 159.188V160.504H118.656C117.438 160.504 116.514 161.05 116.514 162.828ZM129.711 164.914C129.711 166.174 128.605 167.126 126.911 167.126C125.119 167.126 123.859 166.146 123.775 164.746H125.091C125.161 165.488 125.819 166.048 126.897 166.048C127.905 166.048 128.465 165.544 128.465 164.914C128.465 163.206 123.929 164.2 123.929 161.344C123.929 160.168 125.035 159.202 126.743 159.202C128.437 159.202 129.557 160.112 129.641 161.61H128.367C128.311 160.84 127.723 160.28 126.701 160.28C125.763 160.28 125.203 160.728 125.203 161.344C125.203 163.164 129.655 162.17 129.711 164.914ZM138.79 163.15C138.79 165.586 137.04 167.126 134.856 167.126C132.686 167.126 131.034 165.586 131.034 163.15C131.034 160.728 132.742 159.202 134.912 159.202C137.096 159.202 138.79 160.728 138.79 163.15ZM132.336 163.15C132.336 165.096 133.526 166.006 134.856 166.006C136.186 166.006 137.488 165.096 137.488 163.15C137.488 161.218 136.214 160.308 134.898 160.308C133.554 160.308 132.336 161.218 132.336 163.15ZM140.703 167V160.378H139.709V159.328H140.703V158.782C140.703 157.074 141.543 156.304 143.503 156.304V157.368C142.355 157.368 141.977 157.788 141.977 158.782V159.328H143.587V160.378H141.977V167H140.703ZM145.352 164.9V160.378H144.358V159.328H145.352V157.396H146.626V159.328H148.628V160.378H146.626V164.9C146.626 165.656 146.906 165.922 147.69 165.922H148.628V167H147.48C146.122 167 145.352 166.44 145.352 164.9ZM151.67 167L149.262 159.328H150.564L152.328 165.768L154.232 159.328H155.534L157.396 165.782L159.132 159.328H160.392L157.998 167H156.682L154.834 160.91L152.986 167H151.67ZM161.18 163.136C161.18 160.742 162.762 159.202 164.82 159.202C166.248 159.202 167.228 159.93 167.676 160.728V159.328H168.964V167H167.676V165.572C167.214 166.398 166.22 167.126 164.806 167.126C162.762 167.126 161.18 165.516 161.18 163.136ZM167.676 163.15C167.676 161.372 166.472 160.308 165.072 160.308C163.672 160.308 162.482 161.33 162.482 163.136C162.482 164.942 163.672 166.006 165.072 166.006C166.472 166.006 167.676 164.956 167.676 163.15ZM172.391 162.828V167H171.117V159.328H172.391V160.574C172.825 159.72 173.651 159.188 174.869 159.188V160.504H174.533C173.315 160.504 172.391 161.05 172.391 162.828ZM179.602 160.28C178.356 160.28 177.32 161.106 177.18 162.604H182.024C182.038 161.106 180.918 160.28 179.602 160.28ZM183.186 164.634C182.794 166.034 181.562 167.126 179.658 167.126C177.474 167.126 175.864 165.586 175.864 163.15C175.864 160.728 177.418 159.202 179.658 159.202C181.884 159.202 183.34 160.77 183.34 162.87C183.34 163.15 183.326 163.374 183.298 163.64H177.166C177.264 165.194 178.356 166.048 179.658 166.048C180.806 166.048 181.534 165.46 181.814 164.634H183.186ZM188.754 167V159.328H190.028V167H188.754ZM189.412 158.082C188.922 158.082 188.544 157.704 188.544 157.214C188.544 156.724 188.922 156.346 189.412 156.346C189.874 156.346 190.252 156.724 190.252 157.214C190.252 157.704 189.874 158.082 189.412 158.082ZM197.715 164.914C197.715 166.174 196.609 167.126 194.915 167.126C193.123 167.126 191.863 166.146 191.779 164.746H193.095C193.165 165.488 193.823 166.048 194.901 166.048C195.909 166.048 196.469 165.544 196.469 164.914C196.469 163.206 191.933 164.2 191.933 161.344C191.933 160.168 193.039 159.202 194.747 159.202C196.441 159.202 197.561 160.112 197.645 161.61H196.371C196.315 160.84 195.727 160.28 194.705 160.28C193.767 160.28 193.207 160.728 193.207 161.344C193.207 163.164 197.659 162.17 197.715 164.914ZM203.246 167V156.64H204.52V167H203.246ZM206.691 167V159.328H207.965V167H206.691ZM207.349 158.082C206.859 158.082 206.481 157.704 206.481 157.214C206.481 156.724 206.859 156.346 207.349 156.346C207.811 156.346 208.189 156.724 208.189 157.214C208.189 157.704 207.811 158.082 207.349 158.082ZM209.227 159.328H210.599L212.993 165.824L215.373 159.328H216.731L213.721 167H212.237L209.227 159.328ZM221.246 160.28C220 160.28 218.964 161.106 218.824 162.604H223.668C223.682 161.106 222.562 160.28 221.246 160.28ZM224.83 164.634C224.438 166.034 223.206 167.126 221.302 167.126C219.118 167.126 217.508 165.586 217.508 163.15C217.508 160.728 219.062 159.202 221.302 159.202C223.528 159.202 224.984 160.77 224.984 162.87C224.984 163.15 224.97 163.374 224.942 163.64H218.81C218.908 165.194 220 166.048 221.302 166.048C222.45 166.048 223.178 165.46 223.458 164.634H224.83ZM231.896 167L229.488 159.328H230.79L232.554 165.768L234.458 159.328H235.76L237.622 165.782L239.358 159.328H240.618L238.224 167H236.908L235.06 160.91L233.212 167H231.896ZM245.145 160.28C243.899 160.28 242.863 161.106 242.723 162.604H247.567C247.581 161.106 246.461 160.28 245.145 160.28ZM248.729 164.634C248.337 166.034 247.105 167.126 245.201 167.126C243.017 167.126 241.407 165.586 241.407 163.15C241.407 160.728 242.961 159.202 245.201 159.202C247.427 159.202 248.883 160.77 248.883 162.87C248.883 163.15 248.869 163.374 248.841 163.64H242.709C242.807 165.194 243.899 166.048 245.201 166.048C246.349 166.048 247.077 165.46 247.357 164.634H248.729ZM24.576 187L22.168 179.328H23.47L25.234 185.768L27.138 179.328H28.44L30.302 185.782L32.038 179.328H33.298L30.904 187H29.588L27.74 180.91L25.892 187H24.576ZM34.5624 187V179.328H35.8364V187H34.5624ZM35.2204 178.082C34.7304 178.082 34.3524 177.704 34.3524 177.214C34.3524 176.724 34.7304 176.346 35.2204 176.346C35.6824 176.346 36.0604 176.724 36.0604 177.214C36.0604 177.704 35.6824 178.082 35.2204 178.082ZM38.0077 187V176.64H39.2817V187H38.0077ZM41.453 187V176.64H42.727V187H41.453ZM59.7047 187V182.66C59.7047 181.092 58.8647 180.294 57.6047 180.294C56.3167 180.294 55.4347 181.12 55.4347 182.772V187H54.1747V182.66C54.1747 181.092 53.3347 180.294 52.0747 180.294C50.7867 180.294 49.9047 181.12 49.9047 182.772V187H48.6307V179.328H49.9047V180.434C50.4087 179.622 51.3187 179.188 52.3267 179.188C53.5867 179.188 54.6367 179.748 55.1407 180.896C55.5887 179.79 56.6807 179.188 57.8567 179.188C59.6067 179.188 60.9647 180.28 60.9647 182.478V187H59.7047ZM62.5786 183.136C62.5786 180.742 64.1606 179.202 66.2186 179.202C67.6466 179.202 68.6266 179.93 69.0746 180.728V179.328H70.3626V187H69.0746V185.572C68.6126 186.398 67.6186 187.126 66.2046 187.126C64.1606 187.126 62.5786 185.516 62.5786 183.136ZM69.0746 183.15C69.0746 181.372 67.8706 180.308 66.4706 180.308C65.0706 180.308 63.8806 181.33 63.8806 183.136C63.8806 184.942 65.0706 186.006 66.4706 186.006C67.8706 186.006 69.0746 184.956 69.0746 183.15ZM72.5155 187V179.328H73.7895V187H72.5155ZM73.1735 178.082C72.6835 178.082 72.3055 177.704 72.3055 177.214C72.3055 176.724 72.6835 176.346 73.1735 176.346C73.6355 176.346 74.0135 176.724 74.0135 177.214C74.0135 177.704 73.6355 178.082 73.1735 178.082ZM81.5748 187V182.66C81.5748 181.092 80.7208 180.294 79.4328 180.294C78.1308 180.294 77.2348 181.106 77.2348 182.758V187H75.9608V179.328H77.2348V180.42C77.7388 179.622 78.6628 179.188 79.6988 179.188C81.4768 179.188 82.8348 180.28 82.8348 182.478V187H81.5748ZM85.1959 184.9V180.378H84.2019V179.328H85.1959V177.396H86.4699V179.328H88.4719V180.378H86.4699V184.9C86.4699 185.656 86.7499 185.922 87.5339 185.922H88.4719V187H87.3239C85.9659 187 85.1959 186.44 85.1959 184.9ZM89.5395 183.136C89.5395 180.742 91.1215 179.202 93.1795 179.202C94.6075 179.202 95.5875 179.93 96.0355 180.728V179.328H97.3235V187H96.0355V185.572C95.5735 186.398 94.5795 187.126 93.1655 187.126C91.1215 187.126 89.5395 185.516 89.5395 183.136ZM96.0355 183.15C96.0355 181.372 94.8315 180.308 93.4315 180.308C92.0315 180.308 90.8415 181.33 90.8415 183.136C90.8415 184.942 92.0315 186.006 93.4315 186.006C94.8315 186.006 96.0355 184.956 96.0355 183.15ZM99.4764 187V179.328H100.75V187H99.4764ZM100.134 178.082C99.6444 178.082 99.2664 177.704 99.2664 177.214C99.2664 176.724 99.6444 176.346 100.134 176.346C100.596 176.346 100.974 176.724 100.974 177.214C100.974 177.704 100.596 178.082 100.134 178.082ZM108.536 187V182.66C108.536 181.092 107.682 180.294 106.394 180.294C105.092 180.294 104.196 181.106 104.196 182.758V187H102.922V179.328H104.196V180.42C104.7 179.622 105.624 179.188 106.66 179.188C108.438 179.188 109.796 180.28 109.796 182.478V187H108.536ZM115.609 187V179.328H116.883V187H115.609ZM116.267 178.082C115.777 178.082 115.399 177.704 115.399 177.214C115.399 176.724 115.777 176.346 116.267 176.346C116.729 176.346 117.107 176.724 117.107 177.214C117.107 177.704 116.729 178.082 116.267 178.082ZM119.335 184.9V180.378H118.341V179.328H119.335V177.396H120.609V179.328H122.611V180.378H120.609V184.9C120.609 185.656 120.889 185.922 121.673 185.922H122.611V187H121.463C120.105 187 119.335 186.44 119.335 184.9ZM128.167 184.9V180.378H127.173V179.328H128.167V177.396H129.441V179.328H131.443V180.378H129.441V184.9C129.441 185.656 129.721 185.922 130.505 185.922H131.443V187H130.295C128.937 187 128.167 186.44 128.167 184.9ZM140.266 183.15C140.266 185.586 138.516 187.126 136.332 187.126C134.162 187.126 132.51 185.586 132.51 183.15C132.51 180.728 134.218 179.202 136.388 179.202C138.572 179.202 140.266 180.728 140.266 183.15ZM133.812 183.15C133.812 185.096 135.002 186.006 136.332 186.006C137.662 186.006 138.964 185.096 138.964 183.15C138.964 181.218 137.69 180.308 136.374 180.308C135.03 180.308 133.812 181.218 133.812 183.15ZM145.674 187V176.64H146.948V182.73L149.902 179.328H151.68L148.068 183.15L151.694 187H149.958L146.948 183.612V187H145.674ZM156.141 180.28C154.895 180.28 153.859 181.106 153.719 182.604H158.563C158.577 181.106 157.457 180.28 156.141 180.28ZM159.725 184.634C159.333 186.034 158.101 187.126 156.197 187.126C154.013 187.126 152.403 185.586 152.403 183.15C152.403 180.728 153.957 179.202 156.197 179.202C158.423 179.202 159.879 180.77 159.879 182.87C159.879 183.15 159.865 183.374 159.837 183.64H153.705C153.803 185.194 154.895 186.048 156.197 186.048C157.345 186.048 158.073 185.46 158.353 184.634H159.725ZM164.822 180.28C163.576 180.28 162.54 181.106 162.4 182.604H167.244C167.258 181.106 166.138 180.28 164.822 180.28ZM168.406 184.634C168.014 186.034 166.782 187.126 164.878 187.126C162.694 187.126 161.084 185.586 161.084 183.15C161.084 180.728 162.638 179.202 164.878 179.202C167.104 179.202 168.56 180.77 168.56 182.87C168.56 183.15 168.546 183.374 168.518 183.64H162.386C162.484 185.194 163.576 186.048 164.878 186.048C166.026 186.048 166.754 185.46 167.034 184.634H168.406ZM171.516 180.742C171.978 179.93 172.986 179.202 174.386 179.202C176.444 179.202 178.026 180.742 178.026 183.136C178.026 185.516 176.444 187.126 174.386 187.126C172.986 187.126 171.992 186.37 171.516 185.586V190.64H170.242V179.328H171.516V180.742ZM176.724 183.136C176.724 181.33 175.534 180.308 174.12 180.308C172.734 180.308 171.516 181.372 171.516 183.15C171.516 184.956 172.734 186.006 174.12 186.006C175.534 186.006 176.724 184.942 176.724 183.136ZM183.435 187V179.328H184.709V187H183.435ZM184.093 178.082C183.603 178.082 183.225 177.704 183.225 177.214C183.225 176.724 183.603 176.346 184.093 176.346C184.555 176.346 184.933 176.724 184.933 177.214C184.933 177.704 184.555 178.082 184.093 178.082ZM187.161 184.9V180.378H186.167V179.328H187.161V177.396H188.435V179.328H190.437V180.378H188.435V184.9C188.435 185.656 188.715 185.922 189.499 185.922H190.437V187H189.289C187.931 187 187.161 186.44 187.161 184.9ZM202.517 179.328V187H201.243V185.866C200.753 186.664 199.815 187.112 198.793 187.112C197.029 187.112 195.643 186.02 195.643 183.822V179.328H196.903V183.654C196.903 185.208 197.757 186.006 199.045 186.006C200.361 186.006 201.243 185.194 201.243 183.542V179.328H202.517ZM205.942 180.742C206.404 179.93 207.412 179.202 208.812 179.202C210.87 179.202 212.452 180.742 212.452 183.136C212.452 185.516 210.87 187.126 208.812 187.126C207.412 187.126 206.418 186.37 205.942 185.586V190.64H204.668V179.328H205.942V180.742ZM211.15 183.136C211.15 181.33 209.96 180.308 208.546 180.308C207.16 180.308 205.942 181.372 205.942 183.15C205.942 184.956 207.16 186.006 208.546 186.006C209.96 186.006 211.15 184.942 211.15 183.136ZM218.141 184.9V180.378H217.147V179.328H218.141V177.396H219.415V179.328H221.417V180.378H219.415V184.9C219.415 185.656 219.695 185.922 220.479 185.922H221.417V187H220.269C218.911 187 218.141 186.44 218.141 184.9ZM230.241 183.15C230.241 185.586 228.491 187.126 226.307 187.126C224.137 187.126 222.485 185.586 222.485 183.15C222.485 180.728 224.193 179.202 226.363 179.202C228.547 179.202 230.241 180.728 230.241 183.15ZM223.787 183.15C223.787 185.096 224.977 186.006 226.307 186.006C227.637 186.006 228.939 185.096 228.939 183.15C228.939 181.218 227.665 180.308 226.349 180.308C225.005 180.308 223.787 181.218 223.787 183.15ZM22.602 203.136C22.602 200.742 24.184 199.202 26.256 199.202C27.46 199.202 28.566 199.818 29.098 200.7V196.64H30.386V207H29.098V205.558C28.636 206.412 27.642 207.126 26.242 207.126C24.184 207.126 22.602 205.516 22.602 203.136ZM29.098 203.15C29.098 201.372 27.894 200.308 26.494 200.308C25.094 200.308 23.904 201.33 23.904 203.136C23.904 204.942 25.094 206.006 26.494 206.006C27.894 206.006 29.098 204.956 29.098 203.15ZM32.0629 203.136C32.0629 200.742 33.6449 199.202 35.7029 199.202C37.1309 199.202 38.1109 199.93 38.5589 200.728V199.328H39.8469V207H38.5589V205.572C38.0969 206.398 37.1029 207.126 35.6889 207.126C33.6449 207.126 32.0629 205.516 32.0629 203.136ZM38.5589 203.15C38.5589 201.372 37.3549 200.308 35.9549 200.308C34.5549 200.308 33.3649 201.33 33.3649 203.136C33.3649 204.942 34.5549 206.006 35.9549 206.006C37.3549 206.006 38.5589 204.956 38.5589 203.15ZM42.2799 204.9V200.378H41.2859V199.328H42.2799V197.396H43.5539V199.328H45.5559V200.378H43.5539V204.9C43.5539 205.656 43.8339 205.922 44.6179 205.922H45.5559V207H44.4079C43.0499 207 42.2799 206.44 42.2799 204.9ZM50.3615 200.28C49.1155 200.28 48.0795 201.106 47.9395 202.604H52.7835C52.7975 201.106 51.6775 200.28 50.3615 200.28ZM53.9455 204.634C53.5535 206.034 52.3215 207.126 50.4175 207.126C48.2335 207.126 46.6235 205.586 46.6235 203.15C46.6235 200.728 48.1775 199.202 50.4175 199.202C52.6435 199.202 54.0995 200.77 54.0995 202.87C54.0995 203.15 54.0855 203.374 54.0575 203.64H47.9255C48.0235 205.194 49.1155 206.048 50.4175 206.048C51.5655 206.048 52.2935 205.46 52.5735 204.634H53.9455ZM57.0271 206.216C57.0271 206.706 56.6491 207.084 56.1871 207.084C55.6971 207.084 55.3191 206.706 55.3191 206.216C55.3191 205.726 55.6971 205.348 56.1871 205.348C56.6491 205.348 57.0271 205.726 57.0271 206.216ZM64.833 203.318L61.641 197.242H63.055L65.463 202.184L67.871 197.242H69.285L66.107 203.318V207H64.833V203.318ZM77.9088 203.15C77.9088 205.586 76.1588 207.126 73.9748 207.126C71.8048 207.126 70.1528 205.586 70.1528 203.15C70.1528 200.728 71.8608 199.202 74.0308 199.202C76.2148 199.202 77.9088 200.728 77.9088 203.15ZM71.4548 203.15C71.4548 205.096 72.6448 206.006 73.9748 206.006C75.3048 206.006 76.6068 205.096 76.6068 203.15C76.6068 201.218 75.3328 200.308 74.0168 200.308C72.6728 200.308 71.4548 201.218 71.4548 203.15ZM86.3879 199.328V207H85.1139V205.866C84.6239 206.664 83.6859 207.112 82.6639 207.112C80.8999 207.112 79.5139 206.02 79.5139 203.822V199.328H80.7739V203.654C80.7739 205.208 81.6279 206.006 82.9159 206.006C84.2319 206.006 85.1139 205.194 85.1139 203.542V199.328H86.3879ZM91.7954 203.15C91.7954 200.742 93.3494 199.202 95.5334 199.202C97.4374 199.202 98.6834 200.182 99.0754 201.792H97.7034C97.4374 200.868 96.6674 200.28 95.5334 200.28C94.1334 200.28 93.0974 201.274 93.0974 203.15C93.0974 205.054 94.1334 206.048 95.5334 206.048C96.6674 206.048 97.4234 205.502 97.7034 204.536H99.0754C98.6834 206.062 97.4374 207.126 95.5334 207.126C93.3494 207.126 91.7954 205.586 91.7954 203.15ZM100.299 203.136C100.299 200.742 101.881 199.202 103.939 199.202C105.367 199.202 106.347 199.93 106.795 200.728V199.328H108.083V207H106.795V205.572C106.333 206.398 105.339 207.126 103.925 207.126C101.881 207.126 100.299 205.516 100.299 203.136ZM106.795 203.15C106.795 201.372 105.591 200.308 104.191 200.308C102.791 200.308 101.601 201.33 101.601 203.136C101.601 204.942 102.791 206.006 104.191 206.006C105.591 206.006 106.795 204.956 106.795 203.15ZM115.85 207V202.66C115.85 201.092 114.996 200.294 113.708 200.294C112.406 200.294 111.51 201.106 111.51 202.758V207H110.236V199.328H111.51V200.42C112.014 199.622 112.938 199.188 113.974 199.188C115.752 199.188 117.11 200.28 117.11 202.478V207H115.85ZM122.448 203.15C122.448 200.742 124.002 199.202 126.186 199.202C128.09 199.202 129.336 200.182 129.728 201.792H128.356C128.09 200.868 127.32 200.28 126.186 200.28C124.786 200.28 123.75 201.274 123.75 203.15C123.75 205.054 124.786 206.048 126.186 206.048C127.32 206.048 128.076 205.502 128.356 204.536H129.728C129.336 206.062 128.09 207.126 126.186 207.126C124.002 207.126 122.448 205.586 122.448 203.15ZM138.708 203.15C138.708 205.586 136.958 207.126 134.774 207.126C132.604 207.126 130.952 205.586 130.952 203.15C130.952 200.728 132.66 199.202 134.83 199.202C137.014 199.202 138.708 200.728 138.708 203.15ZM132.254 203.15C132.254 205.096 133.444 206.006 134.774 206.006C136.104 206.006 137.406 205.096 137.406 203.15C137.406 201.218 136.132 200.308 134.816 200.308C133.472 200.308 132.254 201.218 132.254 203.15ZM147.187 199.328V207H145.913V205.866C145.423 206.664 144.485 207.112 143.463 207.112C141.699 207.112 140.313 206.02 140.313 203.822V199.328H141.573V203.654C141.573 205.208 142.427 206.006 143.715 206.006C145.031 206.006 145.913 205.194 145.913 203.542V199.328H147.187ZM154.952 207V202.66C154.952 201.092 154.098 200.294 152.81 200.294C151.508 200.294 150.612 201.106 150.612 202.758V207H149.338V199.328H150.612V200.42C151.116 199.622 152.04 199.188 153.076 199.188C154.854 199.188 156.212 200.28 156.212 202.478V207H154.952ZM158.573 204.9V200.378H157.579V199.328H158.573V197.396H159.847V199.328H161.849V200.378H159.847V204.9C159.847 205.656 160.127 205.922 160.911 205.922H161.849V207H160.701C159.343 207 158.573 206.44 158.573 204.9ZM174.405 203.15C174.405 205.586 172.655 207.126 170.471 207.126C168.301 207.126 166.649 205.586 166.649 203.15C166.649 200.728 168.357 199.202 170.527 199.202C172.711 199.202 174.405 200.728 174.405 203.15ZM167.951 203.15C167.951 205.096 169.141 206.006 170.471 206.006C171.801 206.006 173.103 205.096 173.103 203.15C173.103 201.218 171.829 200.308 170.513 200.308C169.169 200.308 167.951 201.218 167.951 203.15ZM181.694 207V202.66C181.694 201.092 180.84 200.294 179.552 200.294C178.25 200.294 177.354 201.106 177.354 202.758V207H176.08V199.328H177.354V200.42C177.858 199.622 178.782 199.188 179.818 199.188C181.596 199.188 182.954 200.28 182.954 202.478V207H181.694ZM195.571 199.328V207H194.297V205.866C193.807 206.664 192.869 207.112 191.847 207.112C190.083 207.112 188.697 206.02 188.697 203.822V199.328H189.957V203.654C189.957 205.208 190.811 206.006 192.099 206.006C193.415 206.006 194.297 205.194 194.297 203.542V199.328H195.571ZM203.239 204.914C203.239 206.174 202.133 207.126 200.439 207.126C198.647 207.126 197.387 206.146 197.303 204.746H198.619C198.689 205.488 199.347 206.048 200.425 206.048C201.433 206.048 201.993 205.544 201.993 204.914C201.993 203.206 197.457 204.2 197.457 201.344C197.457 200.168 198.563 199.202 200.271 199.202C201.965 199.202 203.085 200.112 203.169 201.61H201.895C201.839 200.84 201.251 200.28 200.229 200.28C199.291 200.28 198.731 200.728 198.731 201.344C198.731 203.164 203.183 202.17 203.239 204.914ZM209.049 204.9V200.378H208.055V199.328H209.049V197.396H210.323V199.328H212.325V200.378H210.323V204.9C210.323 205.656 210.603 205.922 211.387 205.922H212.325V207H211.177C209.819 207 209.049 206.44 209.049 204.9ZM221.149 203.15C221.149 205.586 219.399 207.126 217.215 207.126C215.045 207.126 213.393 205.586 213.393 203.15C213.393 200.728 215.101 199.202 217.271 199.202C219.455 199.202 221.149 200.728 221.149 203.15ZM214.695 203.15C214.695 205.096 215.885 206.006 217.215 206.006C218.545 206.006 219.847 205.096 219.847 203.15C219.847 201.218 218.573 200.308 217.257 200.308C215.913 200.308 214.695 201.218 214.695 203.15ZM23.078 227V216.64H24.352V220.434C24.856 219.622 25.808 219.188 26.886 219.188C28.594 219.188 29.952 220.28 29.952 222.478V227H28.692V222.66C28.692 221.092 27.838 220.294 26.55 220.294C25.248 220.294 24.352 221.106 24.352 222.758V227H23.078ZM31.5571 223.136C31.5571 220.742 33.1391 219.202 35.1971 219.202C36.6251 219.202 37.6051 219.93 38.0531 220.728V219.328H39.3411V227H38.0531V225.572C37.5911 226.398 36.5971 227.126 35.1831 227.126C33.1391 227.126 31.5571 225.516 31.5571 223.136ZM38.0531 223.15C38.0531 221.372 36.8491 220.308 35.4491 220.308C34.0491 220.308 32.8591 221.33 32.8591 223.136C32.8591 224.942 34.0491 226.006 35.4491 226.006C36.8491 226.006 38.0531 224.956 38.0531 223.15ZM47.108 227V222.66C47.108 221.092 46.254 220.294 44.966 220.294C43.664 220.294 42.768 221.106 42.768 222.758V227H41.494V219.328H42.768V220.42C43.272 219.622 44.196 219.188 45.232 219.188C47.01 219.188 48.368 220.28 48.368 222.478V227H47.108ZM49.9731 223.136C49.9731 220.742 51.5551 219.202 53.6271 219.202C54.8311 219.202 55.9371 219.818 56.4691 220.7V216.64H57.7571V227H56.4691V225.558C56.0071 226.412 55.0131 227.126 53.6131 227.126C51.5551 227.126 49.9731 225.516 49.9731 223.136ZM56.4691 223.15C56.4691 221.372 55.2651 220.308 53.8651 220.308C52.4651 220.308 51.2751 221.33 51.2751 223.136C51.2751 224.942 52.4651 226.006 53.8651 226.006C55.2651 226.006 56.4691 224.956 56.4691 223.15ZM59.91 227V216.64H61.184V227H59.91ZM66.6173 220.28C65.3713 220.28 64.3353 221.106 64.1953 222.604H69.0393C69.0533 221.106 67.9333 220.28 66.6173 220.28ZM70.2013 224.634C69.8093 226.034 68.5773 227.126 66.6733 227.126C64.4893 227.126 62.8793 225.586 62.8793 223.15C62.8793 220.728 64.4333 219.202 66.6733 219.202C68.8993 219.202 70.3553 220.77 70.3553 222.87C70.3553 223.15 70.3413 223.374 70.3133 223.64H64.1813C64.2793 225.194 65.3713 226.048 66.6733 226.048C67.8213 226.048 68.5493 225.46 68.8293 224.634H70.2013ZM75.2934 223.136C75.2934 220.742 76.8754 219.202 78.9334 219.202C80.3614 219.202 81.3414 219.93 81.7894 220.728V219.328H83.0774V227H81.7894V225.572C81.3274 226.398 80.3334 227.126 78.9194 227.126C76.8754 227.126 75.2934 225.516 75.2934 223.136ZM81.7894 223.15C81.7894 221.372 80.5854 220.308 79.1854 220.308C77.7854 220.308 76.5954 221.33 76.5954 223.136C76.5954 224.942 77.7854 226.006 79.1854 226.006C80.5854 226.006 81.7894 224.956 81.7894 223.15ZM90.8443 227V222.66C90.8443 221.092 89.9903 220.294 88.7023 220.294C87.4003 220.294 86.5043 221.106 86.5043 222.758V227H85.2303V219.328H86.5043V220.42C87.0083 219.622 87.9323 219.188 88.9683 219.188C90.7463 219.188 92.1043 220.28 92.1043 222.478V227H90.8443ZM97.0974 225.544L99.4774 219.328H100.793L96.1734 230.612H94.8574L96.3694 226.916L93.2754 219.328H94.6894L97.0974 225.544ZM107.081 220.756C107.571 219.902 108.593 219.202 109.951 219.202C112.023 219.202 113.591 220.742 113.591 223.136C113.591 225.516 112.009 227.126 109.951 227.126C108.551 227.126 107.557 226.426 107.081 225.586V227H105.807V216.64H107.081V220.756ZM112.289 223.136C112.289 221.33 111.099 220.308 109.685 220.308C108.299 220.308 107.081 221.372 107.081 223.15C107.081 224.956 108.299 226.006 109.685 226.006C111.099 226.006 112.289 224.942 112.289 223.136ZM122.071 219.328V227H120.797V225.866C120.307 226.664 119.369 227.112 118.347 227.112C116.583 227.112 115.197 226.02 115.197 223.822V219.328H116.457V223.654C116.457 225.208 117.311 226.006 118.599 226.006C119.915 226.006 120.797 225.194 120.797 223.542V219.328H122.071ZM123.747 223.136C123.747 220.742 125.329 219.202 127.387 219.202C128.787 219.202 129.795 219.902 130.243 220.728V219.328H131.531V227.168C131.531 229.282 130.117 230.78 127.863 230.78C125.847 230.78 124.405 229.758 124.153 228.12H125.413C125.693 229.044 126.603 229.674 127.863 229.674C129.221 229.674 130.243 228.806 130.243 227.168V225.558C129.781 226.384 128.787 227.126 127.387 227.126C125.329 227.126 123.747 225.516 123.747 223.136ZM130.243 223.15C130.243 221.372 129.039 220.308 127.639 220.308C126.239 220.308 125.049 221.33 125.049 223.136C125.049 224.942 126.239 226.006 127.639 226.006C129.039 226.006 130.243 224.956 130.243 223.15ZM139.199 224.914C139.199 226.174 138.093 227.126 136.399 227.126C134.607 227.126 133.347 226.146 133.263 224.746H134.579C134.649 225.488 135.307 226.048 136.385 226.048C137.393 226.048 137.953 225.544 137.953 224.914C137.953 223.206 133.417 224.2 133.417 221.344C133.417 220.168 134.523 219.202 136.231 219.202C137.925 219.202 139.045 220.112 139.129 221.61H137.855C137.799 220.84 137.211 220.28 136.189 220.28C135.251 220.28 134.691 220.728 134.691 221.344C134.691 223.164 139.143 222.17 139.199 224.914ZM139.892 229.002L140.914 225.236H142.314L140.746 229.002H139.892ZM147.03 223.136C147.03 220.742 148.612 219.202 150.67 219.202C152.098 219.202 153.078 219.93 153.526 220.728V219.328H154.814V227H153.526V225.572C153.064 226.398 152.07 227.126 150.656 227.126C148.612 227.126 147.03 225.516 147.03 223.136ZM153.526 223.15C153.526 221.372 152.322 220.308 150.922 220.308C149.522 220.308 148.332 221.33 148.332 223.136C148.332 224.942 149.522 226.006 150.922 226.006C152.322 226.006 153.526 224.956 153.526 223.15ZM156.491 223.136C156.491 220.742 158.073 219.202 160.145 219.202C161.349 219.202 162.455 219.818 162.987 220.7V216.64H164.275V227H162.987V225.558C162.525 226.412 161.531 227.126 160.131 227.126C158.073 227.126 156.491 225.516 156.491 223.136ZM162.987 223.15C162.987 221.372 161.783 220.308 160.383 220.308C158.983 220.308 157.793 221.33 157.793 223.136C157.793 224.942 158.983 226.006 160.383 226.006C161.783 226.006 162.987 224.956 162.987 223.15ZM165.952 223.136C165.952 220.742 167.534 219.202 169.606 219.202C170.81 219.202 171.916 219.818 172.448 220.7V216.64H173.736V227H172.448V225.558C171.986 226.412 170.992 227.126 169.592 227.126C167.534 227.126 165.952 225.516 165.952 223.136ZM172.448 223.15C172.448 221.372 171.244 220.308 169.844 220.308C168.444 220.308 167.254 221.33 167.254 223.136C167.254 224.942 168.444 226.006 169.844 226.006C171.244 226.006 172.448 224.956 172.448 223.15ZM185.235 227V222.66C185.235 221.092 184.381 220.294 183.093 220.294C181.791 220.294 180.895 221.106 180.895 222.758V227H179.621V219.328H180.895V220.42C181.399 219.622 182.323 219.188 183.359 219.188C185.137 219.188 186.495 220.28 186.495 222.478V227H185.235ZM191.838 220.28C190.592 220.28 189.556 221.106 189.416 222.604H194.26C194.274 221.106 193.154 220.28 191.838 220.28ZM195.422 224.634C195.03 226.034 193.798 227.126 191.894 227.126C189.71 227.126 188.1 225.586 188.1 223.15C188.1 220.728 189.654 219.202 191.894 219.202C194.12 219.202 195.576 220.77 195.576 222.87C195.576 223.15 195.562 223.374 195.534 223.64H189.402C189.5 225.194 190.592 226.048 191.894 226.048C193.042 226.048 193.77 225.46 194.05 224.634H195.422ZM198.756 227L196.348 219.328H197.65L199.414 225.768L201.318 219.328H202.62L204.482 225.782L206.218 219.328H207.478L205.084 227H203.768L201.92 220.91L200.072 227H198.756ZM23.316 247V240.378H22.322V239.328H23.316V238.782C23.316 237.074 24.156 236.304 26.116 236.304V237.368C24.968 237.368 24.59 237.788 24.59 238.782V239.328H26.2V240.378H24.59V247H23.316ZM30.9474 240.28C29.7014 240.28 28.6654 241.106 28.5254 242.604H33.3694C33.3834 241.106 32.2634 240.28 30.9474 240.28ZM34.5314 244.634C34.1394 246.034 32.9074 247.126 31.0034 247.126C28.8194 247.126 27.2094 245.586 27.2094 243.15C27.2094 240.728 28.7634 239.202 31.0034 239.202C33.2294 239.202 34.6854 240.77 34.6854 242.87C34.6854 243.15 34.6714 243.374 34.6434 243.64H28.5114C28.6094 245.194 29.7014 246.048 31.0034 246.048C32.1514 246.048 32.8794 245.46 33.1594 244.634H34.5314ZM35.8911 243.136C35.8911 240.742 37.4731 239.202 39.5311 239.202C40.9591 239.202 41.9391 239.93 42.3871 240.728V239.328H43.6751V247H42.3871V245.572C41.9251 246.398 40.9311 247.126 39.5171 247.126C37.4731 247.126 35.8911 245.516 35.8911 243.136ZM42.3871 243.15C42.3871 241.372 41.1831 240.308 39.7831 240.308C38.3831 240.308 37.1931 241.33 37.1931 243.136C37.1931 244.942 38.3831 246.006 39.7831 246.006C41.1831 246.006 42.3871 244.956 42.3871 243.15ZM46.108 244.9V240.378H45.114V239.328H46.108V237.396H47.382V239.328H49.384V240.378H47.382V244.9C47.382 245.656 47.662 245.922 48.446 245.922H49.384V247H48.236C46.878 247 46.108 246.44 46.108 244.9ZM57.7316 239.328V247H56.4576V245.866C55.9676 246.664 55.0296 247.112 54.0076 247.112C52.2436 247.112 50.8576 246.02 50.8576 243.822V239.328H52.1176V243.654C52.1176 245.208 52.9716 246.006 54.2596 246.006C55.5756 246.006 56.4576 245.194 56.4576 243.542V239.328H57.7316ZM61.1567 242.828V247H59.8827V239.328H61.1567V240.574C61.5907 239.72 62.4167 239.188 63.6347 239.188V240.504H63.2987C62.0807 240.504 61.1567 241.05 61.1567 242.828ZM68.3673 240.28C67.1213 240.28 66.0853 241.106 65.9453 242.604H70.7893C70.8033 241.106 69.6833 240.28 68.3673 240.28ZM71.9513 244.634C71.5593 246.034 70.3273 247.126 68.4233 247.126C66.2393 247.126 64.6293 245.586 64.6293 243.15C64.6293 240.728 66.1833 239.202 68.4233 239.202C70.6493 239.202 72.1053 240.77 72.1053 242.87C72.1053 243.15 72.0913 243.374 72.0633 243.64H65.9313C66.0293 245.194 67.1213 246.048 68.4233 246.048C69.5713 246.048 70.2993 245.46 70.5793 244.634H71.9513ZM79.303 244.914C79.303 246.174 78.197 247.126 76.503 247.126C74.711 247.126 73.451 246.146 73.367 244.746H74.683C74.753 245.488 75.411 246.048 76.489 246.048C77.497 246.048 78.057 245.544 78.057 244.914C78.057 243.206 73.521 244.2 73.521 241.344C73.521 240.168 74.627 239.202 76.335 239.202C78.029 239.202 79.149 240.112 79.233 241.61H77.959C77.903 240.84 77.315 240.28 76.293 240.28C75.355 240.28 74.795 240.728 74.795 241.344C74.795 243.164 79.247 242.17 79.303 244.914ZM79.9954 249.002L81.0174 245.236H82.4174L80.8494 249.002H79.9954ZM87.1333 243.136C87.1333 240.742 88.7153 239.202 90.7733 239.202C92.2013 239.202 93.1813 239.93 93.6293 240.728V239.328H94.9173V247H93.6293V245.572C93.1673 246.398 92.1733 247.126 90.7593 247.126C88.7153 247.126 87.1333 245.516 87.1333 243.136ZM93.6293 243.15C93.6293 241.372 92.4253 240.308 91.0253 240.308C89.6253 240.308 88.4353 241.33 88.4353 243.136C88.4353 244.942 89.6253 246.006 91.0253 246.006C92.4253 246.006 93.6293 244.956 93.6293 243.15ZM102.684 247V242.66C102.684 241.092 101.83 240.294 100.542 240.294C99.2402 240.294 98.3442 241.106 98.3442 242.758V247H97.0702V239.328H98.3442V240.42C98.8482 239.622 99.7722 239.188 100.808 239.188C102.586 239.188 103.944 240.28 103.944 242.478V247H102.684ZM105.549 243.136C105.549 240.742 107.131 239.202 109.203 239.202C110.407 239.202 111.513 239.818 112.045 240.7V236.64H113.333V247H112.045V245.558C111.583 246.412 110.589 247.126 109.189 247.126C107.131 247.126 105.549 245.516 105.549 243.136ZM112.045 243.15C112.045 241.372 110.841 240.308 109.441 240.308C108.041 240.308 106.851 241.33 106.851 243.136C106.851 244.942 108.041 246.006 109.441 246.006C110.841 246.006 112.045 244.956 112.045 243.15ZM122.481 240.28C121.235 240.28 120.199 241.106 120.059 242.604H124.903C124.917 241.106 123.797 240.28 122.481 240.28ZM126.065 244.634C125.673 246.034 124.441 247.126 122.537 247.126C120.353 247.126 118.743 245.586 118.743 243.15C118.743 240.728 120.297 239.202 122.537 239.202C124.763 239.202 126.219 240.77 126.219 242.87C126.219 243.15 126.205 243.374 126.177 243.64H120.045C120.143 245.194 121.235 246.048 122.537 246.048C123.685 246.048 124.413 245.46 124.693 244.634H126.065ZM133.514 247V242.66C133.514 241.092 132.66 240.294 131.372 240.294C130.07 240.294 129.174 241.106 129.174 242.758V247H127.9V239.328H129.174V240.42C129.678 239.622 130.602 239.188 131.638 239.188C133.416 239.188 134.774 240.28 134.774 242.478V247H133.514ZM142.371 244.914C142.371 246.174 141.265 247.126 139.571 247.126C137.779 247.126 136.519 246.146 136.435 244.746H137.751C137.821 245.488 138.479 246.048 139.557 246.048C140.565 246.048 141.125 245.544 141.125 244.914C141.125 243.206 136.589 244.2 136.589 241.344C136.589 240.168 137.695 239.202 139.403 239.202C141.097 239.202 142.217 240.112 142.301 241.61H141.027C140.971 240.84 140.383 240.28 139.361 240.28C138.423 240.28 137.863 240.728 137.863 241.344C137.863 243.164 142.315 242.17 142.371 244.914ZM150.974 239.328V247H149.7V245.866C149.21 246.664 148.272 247.112 147.25 247.112C145.486 247.112 144.1 246.02 144.1 243.822V239.328H145.36V243.654C145.36 245.208 146.214 246.006 147.502 246.006C148.818 246.006 149.7 245.194 149.7 243.542V239.328H150.974ZM154.399 242.828V247H153.125V239.328H154.399V240.574C154.833 239.72 155.659 239.188 156.877 239.188V240.504H156.541C155.323 240.504 154.399 241.05 154.399 242.828ZM161.61 240.28C160.364 240.28 159.328 241.106 159.188 242.604H164.032C164.046 241.106 162.926 240.28 161.61 240.28ZM165.194 244.634C164.802 246.034 163.57 247.126 161.666 247.126C159.482 247.126 157.872 245.586 157.872 243.15C157.872 240.728 159.426 239.202 161.666 239.202C163.892 239.202 165.348 240.77 165.348 242.87C165.348 243.15 165.334 243.374 165.306 243.64H159.174C159.272 245.194 160.364 246.048 161.666 246.048C162.814 246.048 163.542 245.46 163.822 244.634H165.194ZM173.674 245.544L176.054 239.328H177.37L172.75 250.612H171.434L172.946 246.916L169.852 239.328H171.266L173.674 245.544ZM185.93 243.15C185.93 245.586 184.18 247.126 181.996 247.126C179.826 247.126 178.174 245.586 178.174 243.15C178.174 240.728 179.882 239.202 182.052 239.202C184.236 239.202 185.93 240.728 185.93 243.15ZM179.476 243.15C179.476 245.096 180.666 246.006 181.996 246.006C183.326 246.006 184.628 245.096 184.628 243.15C184.628 241.218 183.354 240.308 182.038 240.308C180.694 240.308 179.476 241.218 179.476 243.15ZM194.409 239.328V247H193.135V245.866C192.645 246.664 191.707 247.112 190.685 247.112C188.921 247.112 187.535 246.02 187.535 243.822V239.328H188.795V243.654C188.795 245.208 189.649 246.006 190.937 246.006C192.253 246.006 193.135 245.194 193.135 243.542V239.328H194.409ZM197.834 242.828V247H196.56V239.328H197.834V240.574C198.268 239.72 199.094 239.188 200.312 239.188V240.504H199.976C198.758 240.504 197.834 241.05 197.834 242.828ZM212.32 239.328V247H211.046V245.866C210.556 246.664 209.618 247.112 208.596 247.112C206.832 247.112 205.446 246.02 205.446 243.822V239.328H206.706V243.654C206.706 245.208 207.56 246.006 208.848 246.006C210.164 246.006 211.046 245.194 211.046 243.542V239.328H212.32ZM219.987 244.914C219.987 246.174 218.881 247.126 217.187 247.126C215.395 247.126 214.135 246.146 214.051 244.746H215.367C215.437 245.488 216.095 246.048 217.173 246.048C218.181 246.048 218.741 245.544 218.741 244.914C218.741 243.206 214.205 244.2 214.205 241.344C214.205 240.168 215.311 239.202 217.019 239.202C218.713 239.202 219.833 240.112 219.917 241.61H218.643C218.587 240.84 217.999 240.28 216.977 240.28C216.039 240.28 215.479 240.728 215.479 241.344C215.479 243.164 219.931 242.17 219.987 244.914ZM225.047 240.28C223.801 240.28 222.765 241.106 222.625 242.604H227.469C227.483 241.106 226.363 240.28 225.047 240.28ZM228.631 244.634C228.239 246.034 227.007 247.126 225.103 247.126C222.919 247.126 221.309 245.586 221.309 243.15C221.309 240.728 222.863 239.202 225.103 239.202C227.329 239.202 228.785 240.77 228.785 242.87C228.785 243.15 228.771 243.374 228.743 243.64H222.611C222.709 245.194 223.801 246.048 225.103 246.048C226.251 246.048 226.979 245.46 227.259 244.634H228.631ZM231.741 242.828V247H230.467V239.328H231.741V240.574C232.175 239.72 233.001 239.188 234.219 239.188V240.504H233.883C232.665 240.504 231.741 241.05 231.741 242.828ZM241.205 244.914C241.205 246.174 240.099 247.126 238.405 247.126C236.613 247.126 235.353 246.146 235.269 244.746H236.585C236.655 245.488 237.313 246.048 238.391 246.048C239.399 246.048 239.959 245.544 239.959 244.914C239.959 243.206 235.423 244.2 235.423 241.344C235.423 240.168 236.529 239.202 238.237 239.202C239.931 239.202 241.051 240.112 241.135 241.61H239.861C239.805 240.84 239.217 240.28 238.195 240.28C237.257 240.28 236.697 240.728 236.697 241.344C236.697 243.164 241.149 242.17 241.205 244.914ZM23.078 267V256.64H24.352V260.434C24.856 259.622 25.808 259.188 26.886 259.188C28.594 259.188 29.952 260.28 29.952 262.478V267H28.692V262.66C28.692 261.092 27.838 260.294 26.55 260.294C25.248 260.294 24.352 261.106 24.352 262.758V267H23.078ZM31.5571 263.136C31.5571 260.742 33.1391 259.202 35.1971 259.202C36.6251 259.202 37.6051 259.93 38.0531 260.728V259.328H39.3411V267H38.0531V265.572C37.5911 266.398 36.5971 267.126 35.1831 267.126C33.1391 267.126 31.5571 265.516 31.5571 263.136ZM38.0531 263.15C38.0531 261.372 36.8491 260.308 35.4491 260.308C34.0491 260.308 32.8591 261.33 32.8591 263.136C32.8591 264.942 34.0491 266.006 35.4491 266.006C36.8491 266.006 38.0531 264.956 38.0531 263.15ZM40.584 259.328H41.956L44.35 265.824L46.73 259.328H48.088L45.078 267H43.594L40.584 259.328ZM52.6037 260.28C51.3577 260.28 50.3217 261.106 50.1817 262.604H55.0257C55.0397 261.106 53.9197 260.28 52.6037 260.28ZM56.1877 264.634C55.7957 266.034 54.5637 267.126 52.6597 267.126C50.4757 267.126 48.8657 265.586 48.8657 263.15C48.8657 260.728 50.4197 259.202 52.6597 259.202C54.8857 259.202 56.3417 260.77 56.3417 262.87C56.3417 263.15 56.3277 263.374 56.2997 263.64H50.1677C50.2657 265.194 51.3577 266.048 52.6597 266.048C53.8077 266.048 54.5357 265.46 54.8157 264.634H56.1877ZM63.0297 260.742C63.4917 259.93 64.4997 259.202 65.8997 259.202C67.9577 259.202 69.5397 260.742 69.5397 263.136C69.5397 265.516 67.9577 267.126 65.8997 267.126C64.4997 267.126 63.5057 266.37 63.0297 265.586V270.64H61.7557V259.328H63.0297V260.742ZM68.2377 263.136C68.2377 261.33 67.0477 260.308 65.6337 260.308C64.2477 260.308 63.0297 261.372 63.0297 263.15C63.0297 264.956 64.2477 266.006 65.6337 266.006C67.0477 266.006 68.2377 264.942 68.2377 263.136ZM72.4907 262.828V267H71.2167V259.328H72.4907V260.574C72.9247 259.72 73.7507 259.188 74.9687 259.188V260.504H74.6327C73.4147 260.504 72.4907 261.05 72.4907 262.828ZM79.7013 260.28C78.4553 260.28 77.4193 261.106 77.2793 262.604H82.1233C82.1373 261.106 81.0173 260.28 79.7013 260.28ZM83.2853 264.634C82.8933 266.034 81.6613 267.126 79.7573 267.126C77.5733 267.126 75.9633 265.586 75.9633 263.15C75.9633 260.728 77.5173 259.202 79.7573 259.202C81.9833 259.202 83.4393 260.77 83.4393 262.87C83.4393 263.15 83.4253 263.374 83.3973 263.64H77.2653C77.3633 265.194 78.4553 266.048 79.7573 266.048C80.9053 266.048 81.6333 265.46 81.9133 264.634H83.2853ZM84.645 263.15C84.645 260.742 86.199 259.202 88.383 259.202C90.287 259.202 91.533 260.182 91.925 261.792H90.553C90.287 260.868 89.517 260.28 88.383 260.28C86.983 260.28 85.947 261.274 85.947 263.15C85.947 265.054 86.983 266.048 88.383 266.048C89.517 266.048 90.273 265.502 90.553 264.536H91.925C91.533 266.062 90.287 267.126 88.383 267.126C86.199 267.126 84.645 265.586 84.645 263.15ZM93.6249 267V259.328H94.8989V267H93.6249ZM94.2829 258.082C93.7929 258.082 93.4149 257.704 93.4149 257.214C93.4149 256.724 93.7929 256.346 94.2829 256.346C94.7449 256.346 95.1229 256.724 95.1229 257.214C95.1229 257.704 94.7449 258.082 94.2829 258.082ZM102.586 264.914C102.586 266.174 101.48 267.126 99.7862 267.126C97.9942 267.126 96.7342 266.146 96.6502 264.746H97.9662C98.0362 265.488 98.6942 266.048 99.7722 266.048C100.78 266.048 101.34 265.544 101.34 264.914C101.34 263.206 96.8042 264.2 96.8042 261.344C96.8042 260.168 97.9102 259.202 99.6182 259.202C101.312 259.202 102.432 260.112 102.516 261.61H101.242C101.186 260.84 100.598 260.28 99.5762 260.28C98.6382 260.28 98.0782 260.728 98.0782 261.344C98.0782 263.164 102.53 262.17 102.586 264.914ZM107.647 260.28C106.401 260.28 105.365 261.106 105.225 262.604H110.069C110.083 261.106 108.963 260.28 107.647 260.28ZM111.231 264.634C110.839 266.034 109.607 267.126 107.703 267.126C105.519 267.126 103.909 265.586 103.909 263.15C103.909 260.728 105.463 259.202 107.703 259.202C109.929 259.202 111.385 260.77 111.385 262.87C111.385 263.15 111.371 263.374 111.343 263.64H105.211C105.309 265.194 106.401 266.048 107.703 266.048C108.851 266.048 109.579 265.46 109.859 264.634H111.231ZM113.066 267V256.64H114.34V267H113.066ZM119.424 265.544L121.804 259.328H123.12L118.5 270.612H117.184L118.696 266.916L115.602 259.328H117.016L119.424 265.544ZM129.631 267L127.223 259.328H128.525L130.289 265.768L132.193 259.328H133.495L135.357 265.782L137.093 259.328H138.353L135.959 267H134.643L132.795 260.91L130.947 267H129.631ZM139.617 267V256.64H140.891V260.434C141.395 259.622 142.347 259.188 143.425 259.188C145.133 259.188 146.491 260.28 146.491 262.478V267H145.231V262.66C145.231 261.092 144.377 260.294 143.089 260.294C141.787 260.294 140.891 261.106 140.891 262.758V267H139.617ZM148.096 263.136C148.096 260.742 149.678 259.202 151.736 259.202C153.164 259.202 154.144 259.93 154.592 260.728V259.328H155.88V267H154.592V265.572C154.13 266.398 153.136 267.126 151.722 267.126C149.678 267.126 148.096 265.516 148.096 263.136ZM154.592 263.15C154.592 261.372 153.388 260.308 151.988 260.308C150.588 260.308 149.398 261.33 149.398 263.136C149.398 264.942 150.588 266.006 151.988 266.006C153.388 266.006 154.592 264.956 154.592 263.15ZM158.313 264.9V260.378H157.319V259.328H158.313V257.396H159.587V259.328H161.589V260.378H159.587V264.9C159.587 265.656 159.867 265.922 160.651 265.922H161.589V267H160.441C159.083 267 158.313 266.44 158.313 264.9ZM167.145 264.9V260.378H166.151V259.328H167.145V257.396H168.419V259.328H170.421V260.378H168.419V264.9C168.419 265.656 168.699 265.922 169.483 265.922H170.421V267H169.273C167.915 267 167.145 266.44 167.145 264.9ZM171.965 267V256.64H173.239V260.434C173.743 259.622 174.695 259.188 175.773 259.188C177.481 259.188 178.839 260.28 178.839 262.478V267H177.579V262.66C177.579 261.092 176.725 260.294 175.437 260.294C174.135 260.294 173.239 261.106 173.239 262.758V267H171.965ZM184.182 260.28C182.936 260.28 181.9 261.106 181.76 262.604H186.604C186.618 261.106 185.498 260.28 184.182 260.28ZM187.766 264.634C187.374 266.034 186.142 267.126 184.238 267.126C182.054 267.126 180.444 265.586 180.444 263.15C180.444 260.728 181.998 259.202 184.238 259.202C186.464 259.202 187.92 260.77 187.92 262.87C187.92 263.15 187.906 263.374 187.878 263.64H181.746C181.844 265.194 182.936 266.048 184.238 266.048C185.386 266.048 186.114 265.46 186.394 264.634H187.766ZM192.513 265.544L194.893 259.328H196.209L191.589 270.612H190.273L191.785 266.916L188.691 259.328H190.105L192.513 265.544ZM206.837 267V262.66C206.837 261.092 205.983 260.294 204.695 260.294C203.393 260.294 202.497 261.106 202.497 262.758V267H201.223V259.328H202.497V260.42C203.001 259.622 203.925 259.188 204.961 259.188C206.739 259.188 208.097 260.28 208.097 262.478V267H206.837ZM213.44 260.28C212.194 260.28 211.158 261.106 211.018 262.604H215.862C215.876 261.106 214.756 260.28 213.44 260.28ZM217.024 264.634C216.632 266.034 215.4 267.126 213.496 267.126C211.312 267.126 209.702 265.586 209.702 263.15C209.702 260.728 211.256 259.202 213.496 259.202C215.722 259.202 217.178 260.77 217.178 262.87C217.178 263.15 217.164 263.374 217.136 263.64H211.004C211.102 265.194 212.194 266.048 213.496 266.048C214.644 266.048 215.372 265.46 215.652 264.634H217.024ZM222.121 260.28C220.875 260.28 219.839 261.106 219.699 262.604H224.543C224.557 261.106 223.437 260.28 222.121 260.28ZM225.705 264.634C225.313 266.034 224.081 267.126 222.177 267.126C219.993 267.126 218.383 265.586 218.383 263.15C218.383 260.728 219.937 259.202 222.177 259.202C224.403 259.202 225.859 260.77 225.859 262.87C225.859 263.15 225.845 263.374 225.817 263.64H219.685C219.783 265.194 220.875 266.048 222.177 266.048C223.325 266.048 224.053 265.46 224.333 264.634H225.705ZM227.065 263.136C227.065 260.742 228.647 259.202 230.719 259.202C231.923 259.202 233.029 259.818 233.561 260.7V256.64H234.849V267H233.561V265.558C233.099 266.412 232.105 267.126 230.705 267.126C228.647 267.126 227.065 265.516 227.065 263.136ZM233.561 263.15C233.561 261.372 232.357 260.308 230.957 260.308C229.557 260.308 228.367 261.33 228.367 263.136C228.367 264.942 229.557 266.006 230.957 266.006C232.357 266.006 233.561 264.956 233.561 263.15ZM238.248 266.216C238.248 266.706 237.87 267.084 237.408 267.084C236.918 267.084 236.54 266.706 236.54 266.216C236.54 265.726 236.918 265.348 237.408 265.348C237.87 265.348 238.248 265.726 238.248 266.216Z" fill="#4F668E"/>
</svg>
