<svg width="250" height="241" viewBox="0 0 250 241" fill="none" xmlns="http://www.w3.org/2000/svg">
<path d="M70.9393 240.061C71.5251 240.646 72.4749 240.646 73.0607 240.061L82.6066 230.515C83.1924 229.929 83.1924 228.979 82.6066 228.393C82.0208 227.808 81.0711 227.808 80.4853 228.393L72 236.879L63.5147 228.393C62.9289 227.808 61.9792 227.808 61.3934 228.393C60.8076 228.979 60.8076 229.929 61.3934 230.515L70.9393 240.061ZM70.5 204V239H73.5V204H70.5Z" fill="#23D9AE"/>
<path d="M54.5042 25H30C14.536 25 2 37.536 2 53V177C2 192.464 14.536 205 30 205H73" stroke="#23D9AE" stroke-width="3"/>
<circle cx="73" cy="25" r="25" fill="#34B7F2"/>
<path d="M74.8164 15.7812V28.7773C74.8164 29.7539 74.8594 30.3789 74.9453 30.6523C75.0312 30.918 75.2109 31.1367 75.4844 31.3086C75.7578 31.4805 76.1953 31.5664 76.7969 31.5664H77.1602V32H68.793V31.5664H69.2148C69.8945 31.5664 70.3789 31.4883 70.668 31.332C70.957 31.1758 71.1523 30.9609 71.2539 30.6875C71.3555 30.4141 71.4062 29.7773 71.4062 28.7773V20.5391C71.4062 19.8047 71.3711 19.3477 71.3008 19.168C71.2305 18.9805 71.0977 18.8242 70.9023 18.6992C70.7148 18.5664 70.4961 18.5 70.2461 18.5C69.8477 18.5 69.3633 18.625 68.793 18.875L68.582 18.4531L74.4297 15.7812H74.8164Z" fill="white"/>
<path d="M28.5 82.96C29.98 82.96 31.2733 83.2533 32.38 83.84C33.4867 84.4267 34.34 85.2533 34.94 86.32C35.5533 87.3733 35.86 88.5933 35.86 89.98C35.86 91.3533 35.5533 92.5733 34.94 93.64C34.34 94.7067 33.48 95.5333 32.36 96.12C31.2533 96.7067 29.9667 97 28.5 97H23.24V82.96H28.5ZM28.28 94.04C29.5733 94.04 30.58 93.6867 31.3 92.98C32.02 92.2733 32.38 91.2733 32.38 89.98C32.38 88.6867 32.02 87.68 31.3 86.96C30.58 86.24 29.5733 85.88 28.28 85.88H26.66V94.04H28.28ZM39.4913 84.68C38.8913 84.68 38.3979 84.5067 38.0113 84.16C37.6379 83.8 37.4513 83.36 37.4513 82.84C37.4513 82.3067 37.6379 81.8667 38.0113 81.52C38.3979 81.16 38.8913 80.98 39.4913 80.98C40.0779 80.98 40.5579 81.16 40.9313 81.52C41.3179 81.8667 41.5113 82.3067 41.5113 82.84C41.5113 83.36 41.3179 83.8 40.9313 84.16C40.5579 84.5067 40.0779 84.68 39.4913 84.68ZM41.1913 85.84V97H37.7713V85.84H41.1913ZM48.2097 97.16C47.2364 97.16 46.3697 96.9933 45.6097 96.66C44.8497 96.3267 44.2497 95.8733 43.8097 95.3C43.3697 94.7133 43.123 94.06 43.0697 93.34H46.4497C46.4897 93.7267 46.6697 94.04 46.9897 94.28C47.3097 94.52 47.703 94.64 48.1697 94.64C48.5964 94.64 48.923 94.56 49.1497 94.4C49.3897 94.2267 49.5097 94.0067 49.5097 93.74C49.5097 93.42 49.343 93.1867 49.0097 93.04C48.6764 92.88 48.1364 92.7067 47.3897 92.52C46.5897 92.3333 45.923 92.14 45.3897 91.94C44.8564 91.7267 44.3964 91.4 44.0097 90.96C43.623 90.5067 43.4297 89.9 43.4297 89.14C43.4297 88.5 43.603 87.92 43.9497 87.4C44.3097 86.8667 44.8297 86.4467 45.5097 86.14C46.203 85.8333 47.023 85.68 47.9697 85.68C49.3697 85.68 50.4697 86.0267 51.2697 86.72C52.083 87.4133 52.5497 88.3333 52.6697 89.48H49.5097C49.4564 89.0933 49.283 88.7867 48.9897 88.56C48.7097 88.3333 48.3364 88.22 47.8697 88.22C47.4697 88.22 47.163 88.3 46.9497 88.46C46.7364 88.6067 46.6297 88.8133 46.6297 89.08C46.6297 89.4 46.7964 89.64 47.1297 89.8C47.4764 89.96 48.0097 90.12 48.7297 90.28C49.5564 90.4933 50.2297 90.7067 50.7497 90.92C51.2697 91.12 51.723 91.4533 52.1097 91.92C52.5097 92.3733 52.7164 92.9867 52.7297 93.76C52.7297 94.4133 52.543 95 52.1697 95.52C51.8097 96.0267 51.283 96.4267 50.5897 96.72C49.9097 97.0133 49.1164 97.16 48.2097 97.16ZM54.142 91.42C54.142 90.26 54.3754 89.2467 54.842 88.38C55.322 87.5133 55.982 86.8467 56.822 86.38C57.6754 85.9133 58.6487 85.68 59.742 85.68C61.142 85.68 62.3087 86.0467 63.242 86.78C64.1887 87.5133 64.8087 88.5467 65.102 89.88H61.462C61.1554 89.0267 60.562 88.6 59.682 88.6C59.0554 88.6 58.5554 88.8467 58.182 89.34C57.8087 89.82 57.622 90.5133 57.622 91.42C57.622 92.3267 57.8087 93.0267 58.182 93.52C58.5554 94 59.0554 94.24 59.682 94.24C60.562 94.24 61.1554 93.8133 61.462 92.96H65.102C64.8087 94.2667 64.1887 95.2933 63.242 96.04C62.2954 96.7867 61.1287 97.16 59.742 97.16C58.6487 97.16 57.6754 96.9267 56.822 96.46C55.982 95.9933 55.322 95.3267 54.842 94.46C54.3754 93.5933 54.142 92.58 54.142 91.42ZM72.0114 97.16C70.9181 97.16 69.9314 96.9267 69.0514 96.46C68.1847 95.9933 67.4981 95.3267 66.9914 94.46C66.4981 93.5933 66.2514 92.58 66.2514 91.42C66.2514 90.2733 66.5047 89.2667 67.0114 88.4C67.5181 87.52 68.2114 86.8467 69.0914 86.38C69.9714 85.9133 70.9581 85.68 72.0514 85.68C73.1447 85.68 74.1314 85.9133 75.0114 86.38C75.8914 86.8467 76.5847 87.52 77.0914 88.4C77.5981 89.2667 77.8514 90.2733 77.8514 91.42C77.8514 92.5667 77.5914 93.58 77.0714 94.46C76.5647 95.3267 75.8647 95.9933 74.9714 96.46C74.0914 96.9267 73.1047 97.16 72.0114 97.16ZM72.0114 94.2C72.6647 94.2 73.2181 93.96 73.6714 93.48C74.1381 93 74.3714 92.3133 74.3714 91.42C74.3714 90.5267 74.1447 89.84 73.6914 89.36C73.2514 88.88 72.7047 88.64 72.0514 88.64C71.3847 88.64 70.8314 88.88 70.3914 89.36C69.9514 89.8267 69.7314 90.5133 69.7314 91.42C69.7314 92.3133 69.9447 93 70.3714 93.48C70.8114 93.96 71.3581 94.2 72.0114 94.2ZM84.6858 93.8L87.1058 85.84H90.7458L86.7858 97H82.5658L78.6058 85.84H82.2658L84.6858 93.8ZM102.705 91.24C102.705 91.56 102.685 91.8933 102.645 92.24H94.9053C94.9586 92.9333 95.1786 93.4667 95.5653 93.84C95.9653 94.2 96.452 94.38 97.0253 94.38C97.8786 94.38 98.472 94.02 98.8053 93.3H102.445C102.259 94.0333 101.919 94.6933 101.425 95.28C100.945 95.8667 100.339 96.3267 99.6053 96.66C98.872 96.9933 98.052 97.16 97.1453 97.16C96.052 97.16 95.0786 96.9267 94.2253 96.46C93.372 95.9933 92.7053 95.3267 92.2253 94.46C91.7453 93.5933 91.5053 92.58 91.5053 91.42C91.5053 90.26 91.7386 89.2467 92.2053 88.38C92.6853 87.5133 93.352 86.8467 94.2053 86.38C95.0586 85.9133 96.0386 85.68 97.1453 85.68C98.2253 85.68 99.1853 85.9067 100.025 86.36C100.865 86.8133 101.519 87.46 101.985 88.3C102.465 89.14 102.705 90.12 102.705 91.24ZM99.2053 90.34C99.2053 89.7533 99.0053 89.2867 98.6053 88.94C98.2053 88.5933 97.7053 88.42 97.1053 88.42C96.532 88.42 96.0453 88.5867 95.6453 88.92C95.2586 89.2533 95.0186 89.7267 94.9253 90.34H99.2053ZM107.93 87.7C108.33 87.0867 108.83 86.6067 109.43 86.26C110.03 85.9 110.696 85.72 111.43 85.72V89.34H110.49C109.636 89.34 108.996 89.5267 108.57 89.9C108.143 90.26 107.93 90.9 107.93 91.82V97H104.51V85.84H107.93V87.7ZM124.464 85.84L117.464 102.3H113.784L116.344 96.62L111.804 85.84H115.624L118.204 92.82L120.764 85.84H124.464Z" fill="#336082"/>
<path d="M23.078 124V114.242H24.352V124H23.078ZM32.1373 124V119.66C32.1373 118.092 31.2833 117.294 29.9953 117.294C28.6933 117.294 27.7973 118.106 27.7973 119.758V124H26.5233V116.328H27.7973V117.42C28.3013 116.622 29.2253 116.188 30.2613 116.188C32.0393 116.188 33.3973 117.28 33.3973 119.478V124H32.1373ZM39.4908 121.9V117.378H38.4968V116.328H39.4908V114.396H40.7648V116.328H42.7668V117.378H40.7648V121.9C40.7648 122.656 41.0448 122.922 41.8288 122.922H42.7668V124H41.6188C40.2608 124 39.4908 123.44 39.4908 121.9ZM44.3104 124V113.64H45.5844V117.434C46.0884 116.622 47.0404 116.188 48.1184 116.188C49.8264 116.188 51.1844 117.28 51.1844 119.478V124H49.9244V119.66C49.9244 118.092 49.0704 117.294 47.7824 117.294C46.4804 117.294 45.5844 118.106 45.5844 119.758V124H44.3104ZM53.2655 124V116.328H54.5395V124H53.2655ZM53.9235 115.082C53.4335 115.082 53.0555 114.704 53.0555 114.214C53.0555 113.724 53.4335 113.346 53.9235 113.346C54.3855 113.346 54.7635 113.724 54.7635 114.214C54.7635 114.704 54.3855 115.082 53.9235 115.082ZM62.2268 121.914C62.2268 123.174 61.1208 124.126 59.4268 124.126C57.6348 124.126 56.3748 123.146 56.2908 121.746H57.6068C57.6768 122.488 58.3348 123.048 59.4128 123.048C60.4208 123.048 60.9808 122.544 60.9808 121.914C60.9808 120.206 56.4448 121.2 56.4448 118.344C56.4448 117.168 57.5508 116.202 59.2588 116.202C60.9528 116.202 62.0728 117.112 62.1568 118.61H60.8828C60.8268 117.84 60.2388 117.28 59.2168 117.28C58.2788 117.28 57.7188 117.728 57.7188 118.344C57.7188 120.164 62.1708 119.17 62.2268 121.914ZM73.2737 121.914C73.2737 123.174 72.1677 124.126 70.4737 124.126C68.6817 124.126 67.4217 123.146 67.3377 121.746H68.6537C68.7237 122.488 69.3817 123.048 70.4597 123.048C71.4677 123.048 72.0277 122.544 72.0277 121.914C72.0277 120.206 67.4917 121.2 67.4917 118.344C67.4917 117.168 68.5977 116.202 70.3057 116.202C71.9997 116.202 73.1197 117.112 73.2037 118.61H71.9297C71.8737 117.84 71.2857 117.28 70.2637 117.28C69.3257 117.28 68.7657 117.728 68.7657 118.344C68.7657 120.164 73.2177 119.17 73.2737 121.914ZM75.3521 121.9V117.378H74.3581V116.328H75.3521V114.396H76.6261V116.328H78.6281V117.378H76.6261V121.9C76.6261 122.656 76.9061 122.922 77.6901 122.922H78.6281V124H77.4801C76.1221 124 75.3521 123.44 75.3521 121.9ZM79.6958 120.136C79.6958 117.742 81.2778 116.202 83.3358 116.202C84.7638 116.202 85.7438 116.93 86.1918 117.728V116.328H87.4798V124H86.1918V122.572C85.7298 123.398 84.7358 124.126 83.3218 124.126C81.2778 124.126 79.6958 122.516 79.6958 120.136ZM86.1918 120.15C86.1918 118.372 84.9878 117.308 83.5878 117.308C82.1878 117.308 80.9978 118.33 80.9978 120.136C80.9978 121.942 82.1878 123.006 83.5878 123.006C84.9878 123.006 86.1918 121.956 86.1918 120.15ZM89.1567 120.136C89.1567 117.742 90.7387 116.202 92.7967 116.202C94.1967 116.202 95.2047 116.902 95.6527 117.728V116.328H96.9407V124.168C96.9407 126.282 95.5267 127.78 93.2727 127.78C91.2567 127.78 89.8147 126.758 89.5627 125.12H90.8227C91.1027 126.044 92.0127 126.674 93.2727 126.674C94.6307 126.674 95.6527 125.806 95.6527 124.168V122.558C95.1907 123.384 94.1967 124.126 92.7967 124.126C90.7387 124.126 89.1567 122.516 89.1567 120.136ZM95.6527 120.15C95.6527 118.372 94.4487 117.308 93.0487 117.308C91.6487 117.308 90.4587 118.33 90.4587 120.136C90.4587 121.942 91.6487 123.006 93.0487 123.006C94.4487 123.006 95.6527 121.956 95.6527 120.15ZM102.356 117.28C101.11 117.28 100.074 118.106 99.9336 119.604H104.778C104.792 118.106 103.672 117.28 102.356 117.28ZM105.94 121.634C105.548 123.034 104.316 124.126 102.412 124.126C100.228 124.126 98.6176 122.586 98.6176 120.15C98.6176 117.728 100.172 116.202 102.412 116.202C104.638 116.202 106.094 117.77 106.094 119.87C106.094 120.15 106.08 120.374 106.052 120.64H99.9196C100.018 122.194 101.11 123.048 102.412 123.048C103.56 123.048 104.288 122.46 104.568 121.634H105.94ZM113.006 124L110.598 116.328H111.9L113.664 122.768L115.568 116.328H116.87L118.732 122.782L120.468 116.328H121.728L119.334 124H118.018L116.17 117.91L114.322 124H113.006ZM126.254 117.28C125.008 117.28 123.972 118.106 123.832 119.604H128.676C128.69 118.106 127.57 117.28 126.254 117.28ZM129.838 121.634C129.446 123.034 128.214 124.126 126.31 124.126C124.126 124.126 122.516 122.586 122.516 120.15C122.516 117.728 124.07 116.202 126.31 116.202C128.536 116.202 129.992 117.77 129.992 119.87C129.992 120.15 129.978 120.374 129.95 120.64H123.818C123.916 122.194 125.008 123.048 126.31 123.048C127.458 123.048 128.186 122.46 128.466 121.634H129.838ZM146.48 124V119.66C146.48 118.092 145.64 117.294 144.38 117.294C143.092 117.294 142.21 118.12 142.21 119.772V124H140.95V119.66C140.95 118.092 140.11 117.294 138.85 117.294C137.562 117.294 136.68 118.12 136.68 119.772V124H135.406V116.328H136.68V117.434C137.184 116.622 138.094 116.188 139.102 116.188C140.362 116.188 141.412 116.748 141.916 117.896C142.364 116.79 143.456 116.188 144.632 116.188C146.382 116.188 147.74 117.28 147.74 119.478V124H146.48ZM149.354 120.136C149.354 117.742 150.936 116.202 152.994 116.202C154.422 116.202 155.402 116.93 155.85 117.728V116.328H157.138V124H155.85V122.572C155.388 123.398 154.394 124.126 152.98 124.126C150.936 124.126 149.354 122.516 149.354 120.136ZM155.85 120.15C155.85 118.372 154.646 117.308 153.246 117.308C151.846 117.308 150.656 118.33 150.656 120.136C150.656 121.942 151.846 123.006 153.246 123.006C154.646 123.006 155.85 121.956 155.85 120.15ZM160.565 117.742C161.027 116.93 162.035 116.202 163.435 116.202C165.493 116.202 167.075 117.742 167.075 120.136C167.075 122.516 165.493 124.126 163.435 124.126C162.035 124.126 161.041 123.37 160.565 122.586V127.64H159.291V116.328H160.565V117.742ZM165.773 120.136C165.773 118.33 164.583 117.308 163.169 117.308C161.783 117.308 160.565 118.372 160.565 120.15C160.565 121.956 161.783 123.006 163.169 123.006C164.583 123.006 165.773 121.942 165.773 120.136ZM179.764 120.15C179.764 122.586 178.014 124.126 175.83 124.126C173.66 124.126 172.008 122.586 172.008 120.15C172.008 117.728 173.716 116.202 175.886 116.202C178.07 116.202 179.764 117.728 179.764 120.15ZM173.31 120.15C173.31 122.096 174.5 123.006 175.83 123.006C177.16 123.006 178.462 122.096 178.462 120.15C178.462 118.218 177.188 117.308 175.872 117.308C174.528 117.308 173.31 118.218 173.31 120.15ZM188.243 116.328V124H186.969V122.866C186.479 123.664 185.541 124.112 184.519 124.112C182.755 124.112 181.369 123.02 181.369 120.822V116.328H182.629V120.654C182.629 122.208 183.483 123.006 184.771 123.006C186.087 123.006 186.969 122.194 186.969 120.542V116.328H188.243ZM190.674 121.9V117.378H189.68V116.328H190.674V114.396H191.948V116.328H193.95V117.378H191.948V121.9C191.948 122.656 192.228 122.922 193.012 122.922H193.95V124H192.802C191.444 124 190.674 123.44 190.674 121.9ZM202.138 122.544L204.518 116.328H205.834L201.214 127.612H199.898L201.41 123.916L198.316 116.328H199.73L202.138 122.544ZM214.395 120.15C214.395 122.586 212.645 124.126 210.461 124.126C208.291 124.126 206.639 122.586 206.639 120.15C206.639 117.728 208.347 116.202 210.517 116.202C212.701 116.202 214.395 117.728 214.395 120.15ZM207.941 120.15C207.941 122.096 209.131 123.006 210.461 123.006C211.791 123.006 213.093 122.096 213.093 120.15C213.093 118.218 211.819 117.308 210.503 117.308C209.159 117.308 207.941 118.218 207.941 120.15ZM222.874 116.328V124H221.6V122.866C221.11 123.664 220.172 124.112 219.15 124.112C217.386 124.112 216 123.02 216 120.822V116.328H217.26V120.654C217.26 122.208 218.114 123.006 219.402 123.006C220.718 123.006 221.6 122.194 221.6 120.542V116.328H222.874ZM226.299 119.828V124H225.025V116.328H226.299V117.574C226.733 116.72 227.559 116.188 228.777 116.188V117.504H228.441C227.223 117.504 226.299 118.05 226.299 119.828ZM28.594 141.914C28.594 143.174 27.488 144.126 25.794 144.126C24.002 144.126 22.742 143.146 22.658 141.746H23.974C24.044 142.488 24.702 143.048 25.78 143.048C26.788 143.048 27.348 142.544 27.348 141.914C27.348 140.206 22.812 141.2 22.812 138.344C22.812 137.168 23.918 136.202 25.626 136.202C27.32 136.202 28.44 137.112 28.524 138.61H27.25C27.194 137.84 26.606 137.28 25.584 137.28C24.646 137.28 24.086 137.728 24.086 138.344C24.086 140.164 28.538 139.17 28.594 141.914ZM37.6725 140.15C37.6725 142.586 35.9225 144.126 33.7385 144.126C31.5685 144.126 29.9165 142.586 29.9165 140.15C29.9165 137.728 31.6245 136.202 33.7945 136.202C35.9785 136.202 37.6725 137.728 37.6725 140.15ZM31.2185 140.15C31.2185 142.096 32.4085 143.006 33.7385 143.006C35.0685 143.006 36.3705 142.096 36.3705 140.15C36.3705 138.218 35.0965 137.308 33.7805 137.308C32.4365 137.308 31.2185 138.218 31.2185 140.15ZM39.5855 144V137.378H38.5915V136.328H39.5855V135.782C39.5855 134.074 40.4255 133.304 42.3855 133.304V134.368C41.2375 134.368 40.8595 134.788 40.8595 135.782V136.328H42.4695V137.378H40.8595V144H39.5855ZM44.235 141.9V137.378H43.241V136.328H44.235V134.396H45.509V136.328H47.511V137.378H45.509V141.9C45.509 142.656 45.789 142.922 46.573 142.922H47.511V144H46.363C45.005 144 44.235 143.44 44.235 141.9ZM50.5526 144L48.1446 136.328H49.4466L51.2106 142.768L53.1146 136.328H54.4166L56.2786 142.782L58.0146 136.328H59.2746L56.8806 144H55.5646L53.7166 137.91L51.8686 144H50.5526ZM60.0629 140.136C60.0629 137.742 61.6449 136.202 63.7029 136.202C65.1309 136.202 66.1109 136.93 66.5589 137.728V136.328H67.8469V144H66.5589V142.572C66.0969 143.398 65.1029 144.126 63.6889 144.126C61.6449 144.126 60.0629 142.516 60.0629 140.136ZM66.5589 140.15C66.5589 138.372 65.3549 137.308 63.9549 137.308C62.5549 137.308 61.3649 138.33 61.3649 140.136C61.3649 141.942 62.5549 143.006 63.9549 143.006C65.3549 143.006 66.5589 141.956 66.5589 140.15ZM71.2739 139.828V144H69.9999V136.328H71.2739V137.574C71.7079 136.72 72.5339 136.188 73.7519 136.188V137.504H73.4159C72.1979 137.504 71.2739 138.05 71.2739 139.828ZM78.4845 137.28C77.2385 137.28 76.2025 138.106 76.0625 139.604H80.9065C80.9205 138.106 79.8005 137.28 78.4845 137.28ZM82.0685 141.634C81.6765 143.034 80.4445 144.126 78.5405 144.126C76.3565 144.126 74.7465 142.586 74.7465 140.15C74.7465 137.728 76.3005 136.202 78.5405 136.202C80.7665 136.202 82.2225 137.77 82.2225 139.87C82.2225 140.15 82.2085 140.374 82.1805 140.64H76.0485C76.1465 142.194 77.2385 143.048 78.5405 143.048C79.6885 143.048 80.4165 142.46 80.6965 141.634H82.0685ZM87.1606 140.136C87.1606 137.742 88.7426 136.202 90.8006 136.202C92.2286 136.202 93.2086 136.93 93.6566 137.728V136.328H94.9446V144H93.6566V142.572C93.1946 143.398 92.2006 144.126 90.7866 144.126C88.7426 144.126 87.1606 142.516 87.1606 140.136ZM93.6566 140.15C93.6566 138.372 92.4526 137.308 91.0526 137.308C89.6526 137.308 88.4626 138.33 88.4626 140.136C88.4626 141.942 89.6526 143.006 91.0526 143.006C92.4526 143.006 93.6566 141.956 93.6566 140.15ZM102.712 144V139.66C102.712 138.092 101.858 137.294 100.57 137.294C99.2675 137.294 98.3715 138.106 98.3715 139.758V144H97.0975V136.328H98.3715V137.42C98.8755 136.622 99.7995 136.188 100.836 136.188C102.614 136.188 103.972 137.28 103.972 139.478V144H102.712ZM105.577 140.136C105.577 137.742 107.159 136.202 109.231 136.202C110.435 136.202 111.541 136.818 112.073 137.7V133.64H113.361V144H112.073V142.558C111.611 143.412 110.617 144.126 109.217 144.126C107.159 144.126 105.577 142.516 105.577 140.136ZM112.073 140.15C112.073 138.372 110.869 137.308 109.469 137.308C108.069 137.308 106.879 138.33 106.879 140.136C106.879 141.942 108.069 143.006 109.469 143.006C110.869 143.006 112.073 141.956 112.073 140.15ZM118.77 140.136C118.77 137.742 120.352 136.202 122.424 136.202C123.628 136.202 124.734 136.818 125.266 137.7V133.64H126.554V144H125.266V142.558C124.804 143.412 123.81 144.126 122.41 144.126C120.352 144.126 118.77 142.516 118.77 140.136ZM125.266 140.15C125.266 138.372 124.062 137.308 122.662 137.308C121.262 137.308 120.072 138.33 120.072 140.136C120.072 141.942 121.262 143.006 122.662 143.006C124.062 143.006 125.266 141.956 125.266 140.15ZM131.969 137.28C130.723 137.28 129.687 138.106 129.547 139.604H134.391C134.405 138.106 133.285 137.28 131.969 137.28ZM135.553 141.634C135.161 143.034 133.929 144.126 132.025 144.126C129.841 144.126 128.231 142.586 128.231 140.15C128.231 137.728 129.785 136.202 132.025 136.202C134.251 136.202 135.707 137.77 135.707 139.87C135.707 140.15 135.693 140.374 135.665 140.64H129.533C129.631 142.194 130.723 143.048 132.025 143.048C133.173 143.048 133.901 142.46 134.181 141.634H135.553ZM137.669 141.9V137.378H136.675V136.328H137.669V134.396H138.943V136.328H140.945V137.378H138.943V141.9C138.943 142.656 139.223 142.922 140.007 142.922H140.945V144H139.797C138.439 144 137.669 143.44 137.669 141.9ZM145.75 137.28C144.504 137.28 143.468 138.106 143.328 139.604H148.172C148.186 138.106 147.066 137.28 145.75 137.28ZM149.334 141.634C148.942 143.034 147.71 144.126 145.806 144.126C143.622 144.126 142.012 142.586 142.012 140.15C142.012 137.728 143.566 136.202 145.806 136.202C148.032 136.202 149.488 137.77 149.488 139.87C149.488 140.15 149.474 140.374 149.446 140.64H143.314C143.412 142.194 144.504 143.048 145.806 143.048C146.954 143.048 147.682 142.46 147.962 141.634H149.334ZM152.444 139.828V144H151.17V136.328H152.444V137.574C152.878 136.72 153.704 136.188 154.922 136.188V137.504H154.586C153.368 137.504 152.444 138.05 152.444 139.828ZM167.466 144V139.66C167.466 138.092 166.626 137.294 165.366 137.294C164.078 137.294 163.196 138.12 163.196 139.772V144H161.936V139.66C161.936 138.092 161.096 137.294 159.836 137.294C158.548 137.294 157.666 138.12 157.666 139.772V144H156.392V136.328H157.666V137.434C158.17 136.622 159.08 136.188 160.088 136.188C161.348 136.188 162.398 136.748 162.902 137.896C163.35 136.79 164.442 136.188 165.618 136.188C167.368 136.188 168.726 137.28 168.726 139.478V144H167.466ZM170.816 144V136.328H172.09V144H170.816ZM171.474 135.082C170.984 135.082 170.606 134.704 170.606 134.214C170.606 133.724 170.984 133.346 171.474 133.346C171.936 133.346 172.314 133.724 172.314 134.214C172.314 134.704 171.936 135.082 171.474 135.082ZM179.876 144V139.66C179.876 138.092 179.022 137.294 177.734 137.294C176.432 137.294 175.536 138.106 175.536 139.758V144H174.262V136.328H175.536V137.42C176.04 136.622 176.964 136.188 178 136.188C179.778 136.188 181.136 137.28 181.136 139.478V144H179.876ZM186.479 137.28C185.233 137.28 184.197 138.106 184.057 139.604H188.901C188.915 138.106 187.795 137.28 186.479 137.28ZM190.063 141.634C189.671 143.034 188.439 144.126 186.535 144.126C184.351 144.126 182.741 142.586 182.741 140.15C182.741 137.728 184.295 136.202 186.535 136.202C188.761 136.202 190.217 137.77 190.217 139.87C190.217 140.15 190.203 140.374 190.175 140.64H184.043C184.141 142.194 185.233 143.048 186.535 143.048C187.683 143.048 188.411 142.46 188.691 141.634H190.063ZM23.358 161.9V157.378H22.364V156.328H23.358V154.396H24.632V156.328H26.634V157.378H24.632V161.9C24.632 162.656 24.912 162.922 25.696 162.922H26.634V164H25.486C24.128 164 23.358 163.44 23.358 161.9ZM35.4576 160.15C35.4576 162.586 33.7076 164.126 31.5236 164.126C29.3536 164.126 27.7016 162.586 27.7016 160.15C27.7016 157.728 29.4096 156.202 31.5796 156.202C33.7636 156.202 35.4576 157.728 35.4576 160.15ZM29.0036 160.15C29.0036 162.096 30.1936 163.006 31.5236 163.006C32.8536 163.006 34.1556 162.096 34.1556 160.15C34.1556 158.218 32.8816 157.308 31.5656 157.308C30.2216 157.308 29.0036 158.218 29.0036 160.15ZM36.6567 160.136C36.6567 157.742 38.2387 156.202 40.2967 156.202C41.6967 156.202 42.7047 156.902 43.1527 157.728V156.328H44.4407V164.168C44.4407 166.282 43.0267 167.78 40.7727 167.78C38.7567 167.78 37.3147 166.758 37.0627 165.12H38.3227C38.6027 166.044 39.5127 166.674 40.7727 166.674C42.1307 166.674 43.1527 165.806 43.1527 164.168V162.558C42.6907 163.384 41.6967 164.126 40.2967 164.126C38.2387 164.126 36.6567 162.516 36.6567 160.136ZM43.1527 160.15C43.1527 158.372 41.9487 157.308 40.5487 157.308C39.1487 157.308 37.9587 158.33 37.9587 160.136C37.9587 161.942 39.1487 163.006 40.5487 163.006C41.9487 163.006 43.1527 161.956 43.1527 160.15ZM49.8556 157.28C48.6096 157.28 47.5736 158.106 47.4336 159.604H52.2776C52.2916 158.106 51.1716 157.28 49.8556 157.28ZM53.4396 161.634C53.0476 163.034 51.8156 164.126 49.9116 164.126C47.7276 164.126 46.1176 162.586 46.1176 160.15C46.1176 157.728 47.6716 156.202 49.9116 156.202C52.1376 156.202 53.5936 157.77 53.5936 159.87C53.5936 160.15 53.5796 160.374 53.5516 160.64H47.4196C47.5176 162.194 48.6096 163.048 49.9116 163.048C51.0596 163.048 51.7876 162.46 52.0676 161.634H53.4396ZM55.5553 161.9V157.378H54.5613V156.328H55.5553V154.396H56.8293V156.328H58.8313V157.378H56.8293V161.9C56.8293 162.656 57.1093 162.922 57.8933 162.922H58.8313V164H57.6833C56.3253 164 55.5553 163.44 55.5553 161.9ZM60.3749 164V153.64H61.6489V157.434C62.1529 156.622 63.1049 156.188 64.1829 156.188C65.8909 156.188 67.2489 157.28 67.2489 159.478V164H65.9889V159.66C65.9889 158.092 65.1349 157.294 63.8469 157.294C62.5449 157.294 61.6489 158.106 61.6489 159.758V164H60.3749ZM72.592 157.28C71.346 157.28 70.31 158.106 70.17 159.604H75.014C75.028 158.106 73.908 157.28 72.592 157.28ZM76.176 161.634C75.784 163.034 74.552 164.126 72.648 164.126C70.464 164.126 68.854 162.586 68.854 160.15C68.854 157.728 70.408 156.202 72.648 156.202C74.874 156.202 76.33 157.77 76.33 159.87C76.33 160.15 76.316 160.374 76.288 160.64H70.156C70.254 162.194 71.346 163.048 72.648 163.048C73.796 163.048 74.524 162.46 74.804 161.634H76.176ZM79.2856 159.828V164H78.0116V156.328H79.2856V157.574C79.7196 156.72 80.5456 156.188 81.7636 156.188V157.504H81.4276C80.2096 157.504 79.2856 158.05 79.2856 159.828ZM88.4647 164L86.0567 156.328H87.3587L89.1227 162.768L91.0267 156.328H92.3287L94.1907 162.782L95.9267 156.328H97.1867L94.7927 164H93.4767L91.6287 157.91L89.7807 164H88.4647ZM98.451 164V153.64H99.725V157.434C100.229 156.622 101.181 156.188 102.259 156.188C103.967 156.188 105.325 157.28 105.325 159.478V164H104.065V159.66C104.065 158.092 103.211 157.294 101.923 157.294C100.621 157.294 99.725 158.106 99.725 159.758V164H98.451ZM106.93 160.136C106.93 157.742 108.512 156.202 110.57 156.202C111.998 156.202 112.978 156.93 113.426 157.728V156.328H114.714V164H113.426V162.572C112.964 163.398 111.97 164.126 110.556 164.126C108.512 164.126 106.93 162.516 106.93 160.136ZM113.426 160.15C113.426 158.372 112.222 157.308 110.822 157.308C109.422 157.308 108.232 158.33 108.232 160.136C108.232 161.942 109.422 163.006 110.822 163.006C112.222 163.006 113.426 161.956 113.426 160.15ZM117.147 161.9V157.378H116.153V156.328H117.147V154.396H118.421V156.328H120.423V157.378H118.421V161.9C118.421 162.656 118.701 162.922 119.485 162.922H120.423V164H119.275C117.917 164 117.147 163.44 117.147 161.9ZM125.937 164V157.378H124.943V156.328H125.937V155.782C125.937 154.074 126.777 153.304 128.737 153.304V154.368C127.589 154.368 127.211 154.788 127.211 155.782V156.328H128.821V157.378H127.211V164H125.937ZM133.569 157.28C132.323 157.28 131.287 158.106 131.147 159.604H135.991C136.005 158.106 134.885 157.28 133.569 157.28ZM137.153 161.634C136.761 163.034 135.529 164.126 133.625 164.126C131.441 164.126 129.831 162.586 129.831 160.15C129.831 157.728 131.385 156.202 133.625 156.202C135.851 156.202 137.307 157.77 137.307 159.87C137.307 160.15 137.293 160.374 137.265 160.64H131.133C131.231 162.194 132.323 163.048 133.625 163.048C134.773 163.048 135.501 162.46 135.781 161.634H137.153ZM138.512 160.136C138.512 157.742 140.094 156.202 142.152 156.202C143.58 156.202 144.56 156.93 145.008 157.728V156.328H146.296V164H145.008V162.572C144.546 163.398 143.552 164.126 142.138 164.126C140.094 164.126 138.512 162.516 138.512 160.136ZM145.008 160.15C145.008 158.372 143.804 157.308 142.404 157.308C141.004 157.308 139.814 158.33 139.814 160.136C139.814 161.942 141.004 163.006 142.404 163.006C143.804 163.006 145.008 161.956 145.008 160.15ZM148.729 161.9V157.378H147.735V156.328H148.729V154.396H150.003V156.328H152.005V157.378H150.003V161.9C150.003 162.656 150.283 162.922 151.067 162.922H152.005V164H150.857C149.499 164 148.729 163.44 148.729 161.9ZM160.353 156.328V164H159.079V162.866C158.589 163.664 157.651 164.112 156.629 164.112C154.865 164.112 153.479 163.02 153.479 160.822V156.328H154.739V160.654C154.739 162.208 155.593 163.006 156.881 163.006C158.197 163.006 159.079 162.194 159.079 160.542V156.328H160.353ZM163.778 159.828V164H162.504V156.328H163.778V157.574C164.212 156.72 165.038 156.188 166.256 156.188V157.504H165.92C164.702 157.504 163.778 158.05 163.778 159.828ZM170.988 157.28C169.742 157.28 168.706 158.106 168.566 159.604H173.41C173.424 158.106 172.304 157.28 170.988 157.28ZM174.572 161.634C174.18 163.034 172.948 164.126 171.044 164.126C168.86 164.126 167.25 162.586 167.25 160.15C167.25 157.728 168.804 156.202 171.044 156.202C173.27 156.202 174.726 157.77 174.726 159.87C174.726 160.15 174.712 160.374 174.684 160.64H168.552C168.65 162.194 169.742 163.048 171.044 163.048C172.192 163.048 172.92 162.46 173.2 161.634H174.572ZM181.924 161.914C181.924 163.174 180.818 164.126 179.124 164.126C177.332 164.126 176.072 163.146 175.988 161.746H177.304C177.374 162.488 178.032 163.048 179.11 163.048C180.118 163.048 180.678 162.544 180.678 161.914C180.678 160.206 176.142 161.2 176.142 158.344C176.142 157.168 177.248 156.202 178.956 156.202C180.65 156.202 181.77 157.112 181.854 158.61H180.58C180.524 157.84 179.936 157.28 178.914 157.28C177.976 157.28 177.416 157.728 177.416 158.344C177.416 160.164 181.868 159.17 181.924 161.914ZM192.971 161.914C192.971 163.174 191.865 164.126 190.171 164.126C188.379 164.126 187.119 163.146 187.035 161.746H188.351C188.421 162.488 189.079 163.048 190.157 163.048C191.165 163.048 191.725 162.544 191.725 161.914C191.725 160.206 187.189 161.2 187.189 158.344C187.189 157.168 188.295 156.202 190.003 156.202C191.697 156.202 192.817 157.112 192.901 158.61H191.627C191.571 157.84 190.983 157.28 189.961 157.28C189.023 157.28 188.463 157.728 188.463 158.344C188.463 160.164 192.915 159.17 192.971 161.914ZM194.769 164V153.64H196.043V157.434C196.547 156.622 197.499 156.188 198.577 156.188C200.285 156.188 201.643 157.28 201.643 159.478V164H200.383V159.66C200.383 158.092 199.529 157.294 198.241 157.294C196.939 157.294 196.043 158.106 196.043 159.758V164H194.769ZM211.004 160.15C211.004 162.586 209.254 164.126 207.07 164.126C204.9 164.126 203.248 162.586 203.248 160.15C203.248 157.728 204.956 156.202 207.126 156.202C209.31 156.202 211.004 157.728 211.004 160.15ZM204.55 160.15C204.55 162.096 205.74 163.006 207.07 163.006C208.4 163.006 209.702 162.096 209.702 160.15C209.702 158.218 208.428 157.308 207.112 157.308C205.768 157.308 204.55 158.218 204.55 160.15ZM219.484 156.328V164H218.21V162.866C217.72 163.664 216.782 164.112 215.76 164.112C213.996 164.112 212.61 163.02 212.61 160.822V156.328H213.87V160.654C213.87 162.208 214.724 163.006 216.012 163.006C217.328 163.006 218.21 162.194 218.21 160.542V156.328H219.484ZM221.635 164V153.64H222.909V164H221.635ZM224.604 160.136C224.604 157.742 226.186 156.202 228.258 156.202C229.462 156.202 230.568 156.818 231.1 157.7V153.64H232.388V164H231.1V162.558C230.638 163.412 229.644 164.126 228.244 164.126C226.186 164.126 224.604 162.516 224.604 160.136ZM231.1 160.15C231.1 158.372 229.896 157.308 228.496 157.308C227.096 157.308 225.906 158.33 225.906 160.136C225.906 161.942 227.096 163.006 228.496 163.006C229.896 163.006 231.1 161.956 231.1 160.15ZM24.352 177.756C24.842 176.902 25.864 176.202 27.222 176.202C29.294 176.202 30.862 177.742 30.862 180.136C30.862 182.516 29.28 184.126 27.222 184.126C25.822 184.126 24.828 183.426 24.352 182.586V184H23.078V173.64H24.352V177.756ZM29.56 180.136C29.56 178.33 28.37 177.308 26.956 177.308C25.57 177.308 24.352 178.372 24.352 180.15C24.352 181.956 25.57 183.006 26.956 183.006C28.37 183.006 29.56 181.942 29.56 180.136ZM35.8009 177.28C34.5549 177.28 33.5189 178.106 33.3789 179.604H38.2229C38.2369 178.106 37.1169 177.28 35.8009 177.28ZM39.3849 181.634C38.9929 183.034 37.7609 184.126 35.8569 184.126C33.6729 184.126 32.0629 182.586 32.0629 180.15C32.0629 177.728 33.6169 176.202 35.8569 176.202C38.0829 176.202 39.5389 177.77 39.5389 179.87C39.5389 180.15 39.5249 180.374 39.4969 180.64H33.3649C33.4629 182.194 34.5549 183.048 35.8569 183.048C37.0049 183.048 37.7329 182.46 38.0129 181.634H39.3849ZM44.953 184V176.328H46.227V184H44.953ZM45.611 175.082C45.121 175.082 44.743 174.704 44.743 174.214C44.743 173.724 45.121 173.346 45.611 173.346C46.073 173.346 46.451 173.724 46.451 174.214C46.451 174.704 46.073 175.082 45.611 175.082ZM54.0123 184V179.66C54.0123 178.092 53.1583 177.294 51.8703 177.294C50.5683 177.294 49.6723 178.106 49.6723 179.758V184H48.3983V176.328H49.6723V177.42C50.1763 176.622 51.1003 176.188 52.1363 176.188C53.9143 176.188 55.2723 177.28 55.2723 179.478V184H54.0123ZM56.8774 180.15C56.8774 177.742 58.4314 176.202 60.6154 176.202C62.5194 176.202 63.7654 177.182 64.1574 178.792H62.7854C62.5194 177.868 61.7494 177.28 60.6154 177.28C59.2154 177.28 58.1794 178.274 58.1794 180.15C58.1794 182.054 59.2154 183.048 60.6154 183.048C61.7494 183.048 62.5054 182.502 62.7854 181.536H64.1574C63.7654 183.062 62.5194 184.126 60.6154 184.126C58.4314 184.126 56.8774 182.586 56.8774 180.15ZM65.8573 184V173.64H67.1313V184H65.8573ZM76.1066 176.328V184H74.8326V182.866C74.3426 183.664 73.4046 184.112 72.3826 184.112C70.6186 184.112 69.2326 183.02 69.2326 180.822V176.328H70.4926V180.654C70.4926 182.208 71.3466 183.006 72.6346 183.006C73.9506 183.006 74.8326 182.194 74.8326 180.542V176.328H76.1066ZM77.7817 180.136C77.7817 177.742 79.3637 176.202 81.4357 176.202C82.6397 176.202 83.7457 176.818 84.2777 177.7V173.64H85.5657V184H84.2777V182.558C83.8157 183.412 82.8217 184.126 81.4217 184.126C79.3637 184.126 77.7817 182.516 77.7817 180.136ZM84.2777 180.15C84.2777 178.372 83.0737 177.308 81.6737 177.308C80.2737 177.308 79.0837 178.33 79.0837 180.136C79.0837 181.942 80.2737 183.006 81.6737 183.006C83.0737 183.006 84.2777 181.956 84.2777 180.15ZM90.9806 177.28C89.7346 177.28 88.6986 178.106 88.5586 179.604H93.4026C93.4166 178.106 92.2966 177.28 90.9806 177.28ZM94.5646 181.634C94.1726 183.034 92.9406 184.126 91.0366 184.126C88.8526 184.126 87.2426 182.586 87.2426 180.15C87.2426 177.728 88.7966 176.202 91.0366 176.202C93.2626 176.202 94.7186 177.77 94.7186 179.87C94.7186 180.15 94.7046 180.374 94.6766 180.64H88.5446C88.6426 182.194 89.7346 183.048 91.0366 183.048C92.1846 183.048 92.9126 182.46 93.1926 181.634H94.5646ZM95.9243 180.136C95.9243 177.742 97.5063 176.202 99.5783 176.202C100.782 176.202 101.888 176.818 102.42 177.7V173.64H103.708V184H102.42V182.558C101.958 183.412 100.964 184.126 99.5643 184.126C97.5063 184.126 95.9243 182.516 95.9243 180.136ZM102.42 180.15C102.42 178.372 101.216 177.308 99.8163 177.308C98.4163 177.308 97.2263 178.33 97.2263 180.136C97.2263 181.942 98.4163 183.006 99.8163 183.006C101.216 183.006 102.42 181.956 102.42 180.15ZM109.594 184V176.328H110.868V184H109.594ZM110.252 175.082C109.762 175.082 109.384 174.704 109.384 174.214C109.384 173.724 109.762 173.346 110.252 173.346C110.714 173.346 111.092 173.724 111.092 174.214C111.092 174.704 110.714 175.082 110.252 175.082ZM118.653 184V179.66C118.653 178.092 117.799 177.294 116.511 177.294C115.209 177.294 114.313 178.106 114.313 179.758V184H113.039V176.328H114.313V177.42C114.817 176.622 115.741 176.188 116.777 176.188C118.555 176.188 119.913 177.28 119.913 179.478V184H118.653ZM128.638 182.544L131.018 176.328H132.334L127.714 187.612H126.398L127.91 183.916L124.816 176.328H126.23L128.638 182.544ZM140.895 180.15C140.895 182.586 139.145 184.126 136.961 184.126C134.791 184.126 133.139 182.586 133.139 180.15C133.139 177.728 134.847 176.202 137.017 176.202C139.201 176.202 140.895 177.728 140.895 180.15ZM134.441 180.15C134.441 182.096 135.631 183.006 136.961 183.006C138.291 183.006 139.593 182.096 139.593 180.15C139.593 178.218 138.319 177.308 137.003 177.308C135.659 177.308 134.441 178.218 134.441 180.15ZM149.374 176.328V184H148.1V182.866C147.61 183.664 146.672 184.112 145.65 184.112C143.886 184.112 142.5 183.02 142.5 180.822V176.328H143.76V180.654C143.76 182.208 144.614 183.006 145.902 183.006C147.218 183.006 148.1 182.194 148.1 180.542V176.328H149.374ZM152.799 179.828V184H151.525V176.328H152.799V177.574C153.233 176.72 154.059 176.188 155.277 176.188V177.504H154.941C153.723 177.504 152.799 178.05 152.799 179.828ZM165.996 181.914C165.996 183.174 164.89 184.126 163.196 184.126C161.404 184.126 160.144 183.146 160.06 181.746H161.376C161.446 182.488 162.104 183.048 163.182 183.048C164.19 183.048 164.75 182.544 164.75 181.914C164.75 180.206 160.214 181.2 160.214 178.344C160.214 177.168 161.32 176.202 163.028 176.202C164.722 176.202 165.842 177.112 165.926 178.61H164.652C164.596 177.84 164.008 177.28 162.986 177.28C162.048 177.28 161.488 177.728 161.488 178.344C161.488 180.164 165.94 179.17 165.996 181.914ZM167.319 180.15C167.319 177.742 168.873 176.202 171.057 176.202C172.961 176.202 174.207 177.182 174.599 178.792H173.227C172.961 177.868 172.191 177.28 171.057 177.28C169.657 177.28 168.621 178.274 168.621 180.15C168.621 182.054 169.657 183.048 171.057 183.048C172.191 183.048 172.947 182.502 173.227 181.536H174.599C174.207 183.062 172.961 184.126 171.057 184.126C168.873 184.126 167.319 182.586 167.319 180.15ZM183.579 180.15C183.579 182.586 181.829 184.126 179.645 184.126C177.475 184.126 175.823 182.586 175.823 180.15C175.823 177.728 177.531 176.202 179.701 176.202C181.885 176.202 183.579 177.728 183.579 180.15ZM177.125 180.15C177.125 182.096 178.315 183.006 179.645 183.006C180.975 183.006 182.277 182.096 182.277 180.15C182.277 178.218 181.003 177.308 179.687 177.308C178.343 177.308 177.125 178.218 177.125 180.15ZM186.528 177.742C186.99 176.93 187.998 176.202 189.398 176.202C191.456 176.202 193.038 177.742 193.038 180.136C193.038 182.516 191.456 184.126 189.398 184.126C187.998 184.126 187.004 183.37 186.528 182.586V187.64H185.254V176.328H186.528V177.742ZM191.736 180.136C191.736 178.33 190.546 177.308 189.132 177.308C187.746 177.308 186.528 178.372 186.528 180.15C186.528 181.956 187.746 183.006 189.132 183.006C190.546 183.006 191.736 181.942 191.736 180.136ZM197.977 177.28C196.731 177.28 195.695 178.106 195.555 179.604H200.399C200.413 178.106 199.293 177.28 197.977 177.28ZM201.561 181.634C201.169 183.034 199.937 184.126 198.033 184.126C195.849 184.126 194.239 182.586 194.239 180.15C194.239 177.728 195.793 176.202 198.033 176.202C200.259 176.202 201.715 177.77 201.715 179.87C201.715 180.15 201.701 180.374 201.673 180.64H195.541C195.639 182.194 196.731 183.048 198.033 183.048C199.181 183.048 199.909 182.46 200.189 181.634H201.561ZM204.642 183.216C204.642 183.706 204.264 184.084 203.802 184.084C203.312 184.084 202.934 183.706 202.934 183.216C202.934 182.726 203.312 182.348 203.802 182.348C204.264 182.348 204.642 182.726 204.642 183.216Z" fill="#4F668E"/>
</svg>
