<svg width="258" height="271" viewBox="0 0 258 271" fill="none" xmlns="http://www.w3.org/2000/svg">
<path d="M70.9393 270.561C71.5251 271.146 72.4749 271.146 73.0607 270.561L82.6066 261.015C83.1924 260.429 83.1924 259.479 82.6066 258.893C82.0208 258.308 81.0711 258.308 80.4853 258.893L72 267.379L63.5147 258.893C62.9289 258.308 61.9792 258.308 61.3934 258.893C60.8076 259.479 60.8076 260.429 61.3934 261.015L70.9393 270.561ZM70.5 229.5V269.5H73.5V229.5H70.5Z" fill="#23D9AE"/>
<path d="M54.5042 33H30C14.536 33 2 45.536 2 61V203C2 218.464 14.536 231 30 231H73" stroke="#23D9AE" stroke-width="3"/>
<circle cx="73" cy="31" r="31" fill="#34B7F2"/>
<path d="M31.74 96.8C32.5533 96.9733 33.2067 97.38 33.7 98.02C34.1933 98.6467 34.44 99.3667 34.44 100.18C34.44 101.353 34.0267 102.287 33.2 102.98C32.3867 103.66 31.2467 104 29.78 104H23.24V89.96H29.56C30.9867 89.96 32.1 90.2867 32.9 90.94C33.7133 91.5933 34.12 92.48 34.12 93.6C34.12 94.4267 33.9 95.1133 33.46 95.66C33.0333 96.2067 32.46 96.5867 31.74 96.8ZM26.66 95.64H28.9C29.46 95.64 29.8867 95.52 30.18 95.28C30.4867 95.0267 30.64 94.66 30.64 94.18C30.64 93.7 30.4867 93.3333 30.18 93.08C29.8867 92.8267 29.46 92.7 28.9 92.7H26.66V95.64ZM29.18 101.24C29.7533 101.24 30.1933 101.113 30.5 100.86C30.82 100.593 30.98 100.213 30.98 99.72C30.98 99.2267 30.8133 98.84 30.48 98.56C30.16 98.28 29.7133 98.14 29.14 98.14H26.66V101.24H29.18ZM46.9436 98.24C46.9436 98.56 46.9236 98.8933 46.8836 99.24H39.1436C39.1969 99.9333 39.4169 100.467 39.8036 100.84C40.2036 101.2 40.6903 101.38 41.2636 101.38C42.1169 101.38 42.7103 101.02 43.0436 100.3H46.6836C46.4969 101.033 46.1569 101.693 45.6636 102.28C45.1836 102.867 44.5769 103.327 43.8436 103.66C43.1103 103.993 42.2903 104.16 41.3836 104.16C40.2903 104.16 39.3169 103.927 38.4636 103.46C37.6103 102.993 36.9436 102.327 36.4636 101.46C35.9836 100.593 35.7436 99.58 35.7436 98.42C35.7436 97.26 35.9769 96.2467 36.4436 95.38C36.9236 94.5133 37.5903 93.8467 38.4436 93.38C39.2969 92.9133 40.2769 92.68 41.3836 92.68C42.4636 92.68 43.4236 92.9067 44.2636 93.36C45.1036 93.8133 45.7569 94.46 46.2236 95.3C46.7036 96.14 46.9436 97.12 46.9436 98.24ZM43.4436 97.34C43.4436 96.7533 43.2436 96.2867 42.8436 95.94C42.4436 95.5933 41.9436 95.42 41.3436 95.42C40.7703 95.42 40.2836 95.5867 39.8836 95.92C39.4969 96.2533 39.2569 96.7267 39.1636 97.34H43.4436ZM54.9678 101.1V104H53.2278C51.9878 104 51.0211 103.7 50.3278 103.1C49.6345 102.487 49.2878 101.493 49.2878 100.12V95.68H47.9278V92.84H49.2878V90.12H52.7078V92.84H54.9478V95.68H52.7078V100.16C52.7078 100.493 52.7878 100.733 52.9478 100.88C53.1078 101.027 53.3745 101.1 53.7478 101.1H54.9678ZM56.1928 98.4C56.1928 97.2533 56.4061 96.2467 56.8328 95.38C57.2728 94.5133 57.8661 93.8467 58.6128 93.38C59.3595 92.9133 60.1928 92.68 61.1128 92.68C61.8995 92.68 62.5861 92.84 63.1728 93.16C63.7728 93.48 64.2328 93.9 64.5528 94.42V92.84H67.9728V104H64.5528V102.42C64.2195 102.94 63.7528 103.36 63.1528 103.68C62.5661 104 61.8795 104.16 61.0928 104.16C60.1861 104.16 59.3595 103.927 58.6128 103.46C57.8661 102.98 57.2728 102.307 56.8328 101.44C56.4061 100.56 56.1928 99.5467 56.1928 98.4ZM64.5528 98.42C64.5528 97.5667 64.3128 96.8933 63.8328 96.4C63.3661 95.9067 62.7928 95.66 62.1128 95.66C61.4328 95.66 60.8528 95.9067 60.3728 96.4C59.9061 96.88 59.6728 97.5467 59.6728 98.4C59.6728 99.2533 59.9061 99.9333 60.3728 100.44C60.8528 100.933 61.4328 101.18 62.1128 101.18C62.7928 101.18 63.3661 100.933 63.8328 100.44C64.3128 99.9467 64.5528 99.2733 64.5528 98.42ZM78.1053 101.36H82.5853V104H74.6853V89.96H78.1053V101.36ZM83.5366 98.4C83.5366 97.2533 83.7499 96.2467 84.1766 95.38C84.6166 94.5133 85.2099 93.8467 85.9566 93.38C86.7032 92.9133 87.5366 92.68 88.4566 92.68C89.2432 92.68 89.9299 92.84 90.5166 93.16C91.1166 93.48 91.5766 93.9 91.8966 94.42V92.84H95.3166V104H91.8966V102.42C91.5632 102.94 91.0966 103.36 90.4966 103.68C89.9099 104 89.2232 104.16 88.4366 104.16C87.5299 104.16 86.7032 103.927 85.9566 103.46C85.2099 102.98 84.6166 102.307 84.1766 101.44C83.7499 100.56 83.5366 99.5467 83.5366 98.4ZM91.8966 98.42C91.8966 97.5667 91.6566 96.8933 91.1766 96.4C90.7099 95.9067 90.1366 95.66 89.4566 95.66C88.7766 95.66 88.1966 95.9067 87.7166 96.4C87.2499 96.88 87.0166 97.5467 87.0166 98.4C87.0166 99.2533 87.2499 99.9333 87.7166 100.44C88.1966 100.933 88.7766 101.18 89.4566 101.18C90.1366 101.18 90.7099 100.933 91.1766 100.44C91.6566 99.9467 91.8966 99.2733 91.8966 98.42ZM108.811 92.84V104H105.391V102.48C105.044 102.973 104.571 103.373 103.971 103.68C103.384 103.973 102.731 104.12 102.011 104.12C101.157 104.12 100.404 103.933 99.7508 103.56C99.0974 103.173 98.5908 102.62 98.2308 101.9C97.8708 101.18 97.6908 100.333 97.6908 99.36V92.84H101.091V98.9C101.091 99.6467 101.284 100.227 101.671 100.64C102.057 101.053 102.577 101.26 103.231 101.26C103.897 101.26 104.424 101.053 104.811 100.64C105.197 100.227 105.391 99.6467 105.391 98.9V92.84H108.811ZM118.067 92.72C119.374 92.72 120.414 93.1467 121.187 94C121.974 94.84 122.367 96 122.367 97.48V104H118.967V97.94C118.967 97.1933 118.774 96.6133 118.387 96.2C118.001 95.7867 117.481 95.58 116.827 95.58C116.174 95.58 115.654 95.7867 115.267 96.2C114.881 96.6133 114.687 97.1933 114.687 97.94V104H111.267V92.84H114.687V94.32C115.034 93.8267 115.501 93.44 116.087 93.16C116.674 92.8667 117.334 92.72 118.067 92.72ZM124.064 98.42C124.064 97.26 124.297 96.2467 124.764 95.38C125.244 94.5133 125.904 93.8467 126.744 93.38C127.597 92.9133 128.571 92.68 129.664 92.68C131.064 92.68 132.231 93.0467 133.164 93.78C134.111 94.5133 134.731 95.5467 135.024 96.88H131.384C131.077 96.0267 130.484 95.6 129.604 95.6C128.977 95.6 128.477 95.8467 128.104 96.34C127.731 96.82 127.544 97.5133 127.544 98.42C127.544 99.3267 127.731 100.027 128.104 100.52C128.477 101 128.977 101.24 129.604 101.24C130.484 101.24 131.077 100.813 131.384 99.96H135.024C134.731 101.267 134.111 102.293 133.164 103.04C132.217 103.787 131.051 104.16 129.664 104.16C128.571 104.16 127.597 103.927 126.744 103.46C125.904 102.993 125.244 102.327 124.764 101.46C124.297 100.593 124.064 99.58 124.064 98.42ZM143.713 92.72C144.993 92.72 146.02 93.1467 146.793 94C147.567 94.84 147.953 96 147.953 97.48V104H144.553V97.94C144.553 97.1933 144.36 96.6133 143.973 96.2C143.587 95.7867 143.067 95.58 142.413 95.58C141.76 95.58 141.24 95.7867 140.853 96.2C140.467 96.6133 140.273 97.1933 140.273 97.94V104H136.853V89.2H140.273V94.34C140.62 93.8467 141.093 93.4533 141.693 93.16C142.293 92.8667 142.967 92.72 143.713 92.72Z" fill="#0051FB"/>
<path d="M79.9707 19.0234V19.4883C77.9674 19.9974 76.3571 20.6559 75.1396 21.4639C73.9333 22.2607 72.9759 23.2347 72.2676 24.3857C71.5703 25.5257 71.028 26.9424 70.6406 28.6357C71.1276 28.3037 71.5316 28.0879 71.8525 27.9883C72.5719 27.7669 73.2969 27.6562 74.0273 27.6562C75.7096 27.6562 77.1097 28.2705 78.2275 29.499C79.3564 30.7165 79.9209 32.3822 79.9209 34.4961C79.9209 35.9792 79.6165 37.3405 79.0078 38.5801C78.3991 39.8197 77.5358 40.777 76.418 41.4521C75.3001 42.1273 74.1048 42.4648 72.832 42.4648C71.4486 42.4648 70.1702 42.0885 68.9971 41.3359C67.8239 40.5723 66.9053 39.46 66.2412 37.999C65.5882 36.5381 65.2617 34.9499 65.2617 33.2344C65.2617 30.7109 65.8649 28.3646 67.0713 26.1953C68.2887 24.015 70.0098 22.2829 72.2344 20.999C74.4701 19.7041 77.0488 19.0456 79.9707 19.0234ZM70.4248 29.9805C70.3363 31.5078 70.292 32.6257 70.292 33.334C70.292 34.8613 70.4359 36.3389 70.7236 37.7666C71.0225 39.1943 71.4264 40.196 71.9355 40.7715C72.3008 41.181 72.7324 41.3857 73.2305 41.3857C73.7396 41.3857 74.1934 41.0924 74.5918 40.5059C74.9902 39.9082 75.1895 38.7018 75.1895 36.8867C75.1895 33.832 74.8187 31.7236 74.0771 30.5615C73.6012 29.8089 72.9593 29.4326 72.1514 29.4326C71.7087 29.4326 71.1331 29.6152 70.4248 29.9805Z" fill="white"/>
<path d="M29.322 131V126.576H24.352V131H23.078V121.242H24.352V125.526H29.322V121.242H30.596V131H29.322ZM36.0197 124.28C34.7737 124.28 33.7377 125.106 33.5977 126.604H38.4417C38.4557 125.106 37.3357 124.28 36.0197 124.28ZM39.6037 128.634C39.2117 130.034 37.9797 131.126 36.0757 131.126C33.8917 131.126 32.2817 129.586 32.2817 127.15C32.2817 124.728 33.8357 123.202 36.0757 123.202C38.3017 123.202 39.7577 124.77 39.7577 126.87C39.7577 127.15 39.7437 127.374 39.7157 127.64H33.5837C33.6817 129.194 34.7737 130.048 36.0757 130.048C37.2237 130.048 37.9517 129.46 38.2317 128.634H39.6037ZM42.7133 126.828V131H41.4393V123.328H42.7133V124.574C43.1473 123.72 43.9733 123.188 45.1913 123.188V124.504H44.8553C43.6373 124.504 42.7133 125.05 42.7133 126.828ZM49.924 124.28C48.678 124.28 47.642 125.106 47.502 126.604H52.346C52.36 125.106 51.24 124.28 49.924 124.28ZM53.508 128.634C53.116 130.034 51.884 131.126 49.98 131.126C47.796 131.126 46.186 129.586 46.186 127.15C46.186 124.728 47.74 123.202 49.98 123.202C52.206 123.202 53.662 124.77 53.662 126.87C53.662 127.15 53.648 127.374 53.62 127.64H47.488C47.586 129.194 48.678 130.048 49.98 130.048C51.128 130.048 51.856 129.46 52.136 128.634H53.508ZM60.574 131L58.166 123.328H59.468L61.232 129.768L63.136 123.328H64.438L66.3 129.782L68.036 123.328H69.296L66.902 131H65.586L63.738 124.91L61.89 131H60.574ZM73.8224 124.28C72.5764 124.28 71.5404 125.106 71.4004 126.604H76.2444C76.2584 125.106 75.1384 124.28 73.8224 124.28ZM77.4064 128.634C77.0144 130.034 75.7824 131.126 73.8784 131.126C71.6944 131.126 70.0844 129.586 70.0844 127.15C70.0844 124.728 71.6384 123.202 73.8784 123.202C76.1044 123.202 77.5604 124.77 77.5604 126.87C77.5604 127.15 77.5464 127.374 77.5184 127.64H71.3864C71.4844 129.194 72.5764 130.048 73.8784 130.048C75.0264 130.048 75.7544 129.46 76.0344 128.634H77.4064ZM82.4985 127.136C82.4985 124.742 84.0805 123.202 86.1385 123.202C87.5385 123.202 88.5465 123.902 88.9945 124.728V123.328H90.2825V131.168C90.2825 133.282 88.8685 134.78 86.6145 134.78C84.5985 134.78 83.1565 133.758 82.9045 132.12H84.1645C84.4445 133.044 85.3545 133.674 86.6145 133.674C87.9725 133.674 88.9945 132.806 88.9945 131.168V129.558C88.5325 130.384 87.5385 131.126 86.1385 131.126C84.0805 131.126 82.4985 129.516 82.4985 127.136ZM88.9945 127.15C88.9945 125.372 87.7905 124.308 86.3905 124.308C84.9905 124.308 83.8005 125.33 83.8005 127.136C83.8005 128.942 84.9905 130.006 86.3905 130.006C87.7905 130.006 88.9945 128.956 88.9945 127.15ZM99.7154 127.15C99.7154 129.586 97.9654 131.126 95.7814 131.126C93.6114 131.126 91.9594 129.586 91.9594 127.15C91.9594 124.728 93.6674 123.202 95.8374 123.202C98.0214 123.202 99.7154 124.728 99.7154 127.15ZM93.2614 127.15C93.2614 129.096 94.4514 130.006 95.7814 130.006C97.1114 130.006 98.4134 129.096 98.4134 127.15C98.4134 125.218 97.1394 124.308 95.8234 124.308C94.4794 124.308 93.2614 125.218 93.2614 127.15ZM101.825 128.242L101.671 121.242H103.043L102.889 128.242H101.825ZM103.253 130.216C103.253 130.706 102.875 131.084 102.413 131.084C101.923 131.084 101.545 130.706 101.545 130.216C101.545 129.726 101.923 129.348 102.413 129.348C102.875 129.348 103.253 129.726 103.253 130.216ZM115.691 121.228H116.965V131H115.691L110.567 123.23V131H109.293V121.228H110.567L115.691 128.984V121.228ZM126.417 127.15C126.417 129.586 124.667 131.126 122.483 131.126C120.313 131.126 118.661 129.586 118.661 127.15C118.661 124.728 120.369 123.202 122.539 123.202C124.723 123.202 126.417 124.728 126.417 127.15ZM119.963 127.15C119.963 129.096 121.153 130.006 122.483 130.006C123.813 130.006 125.115 129.096 125.115 127.15C125.115 125.218 123.841 124.308 122.525 124.308C121.181 124.308 119.963 125.218 119.963 127.15ZM129.59 131L127.182 123.328H128.484L130.248 129.768L132.152 123.328H133.454L135.316 129.782L137.052 123.328H138.312L135.918 131H134.602L132.754 124.91L130.906 131H129.59ZM143.308 131V123.328H144.582V131H143.308ZM143.966 122.082C143.476 122.082 143.098 121.704 143.098 121.214C143.098 120.724 143.476 120.346 143.966 120.346C144.428 120.346 144.806 120.724 144.806 121.214C144.806 121.704 144.428 122.082 143.966 122.082ZM147.034 128.9V124.378H146.04V123.328H147.034V121.396H148.308V123.328H150.31V124.378H148.308V128.9C148.308 129.656 148.588 129.922 149.372 129.922H150.31V131H149.162C147.804 131 147.034 130.44 147.034 128.9ZM151.447 122.642L151.265 119.856H152.497L152.329 122.642H151.447ZM159.598 128.914C159.598 130.174 158.492 131.126 156.798 131.126C155.006 131.126 153.746 130.146 153.662 128.746H154.978C155.048 129.488 155.706 130.048 156.784 130.048C157.792 130.048 158.352 129.544 158.352 128.914C158.352 127.206 153.816 128.2 153.816 125.344C153.816 124.168 154.922 123.202 156.63 123.202C158.324 123.202 159.444 124.112 159.528 125.61H158.254C158.198 124.84 157.61 124.28 156.588 124.28C155.65 124.28 155.09 124.728 155.09 125.344C155.09 127.164 159.542 126.17 159.598 128.914ZM165.409 128.9V124.378H164.415V123.328H165.409V121.396H166.683V123.328H168.685V124.378H166.683V128.9C166.683 129.656 166.963 129.922 167.747 129.922H168.685V131H167.537C166.179 131 165.409 130.44 165.409 128.9ZM170.228 131V123.328H171.502V131H170.228ZM170.886 122.082C170.396 122.082 170.018 121.704 170.018 121.214C170.018 120.724 170.396 120.346 170.886 120.346C171.348 120.346 171.726 120.724 171.726 121.214C171.726 121.704 171.348 122.082 170.886 122.082ZM184.748 131V126.66C184.748 125.092 183.908 124.294 182.648 124.294C181.36 124.294 180.478 125.12 180.478 126.772V131H179.218V126.66C179.218 125.092 178.378 124.294 177.118 124.294C175.83 124.294 174.948 125.12 174.948 126.772V131H173.674V123.328H174.948V124.434C175.452 123.622 176.362 123.188 177.37 123.188C178.63 123.188 179.68 123.748 180.184 124.896C180.632 123.79 181.724 123.188 182.9 123.188C184.65 123.188 186.008 124.28 186.008 126.478V131H184.748ZM191.36 124.28C190.114 124.28 189.078 125.106 188.938 126.604H193.782C193.796 125.106 192.676 124.28 191.36 124.28ZM194.944 128.634C194.552 130.034 193.32 131.126 191.416 131.126C189.232 131.126 187.622 129.586 187.622 127.15C187.622 124.728 189.176 123.202 191.416 123.202C193.642 123.202 195.098 124.77 195.098 126.87C195.098 127.15 195.084 127.374 195.056 127.64H188.924C189.022 129.194 190.114 130.048 191.416 130.048C192.564 130.048 193.292 129.46 193.572 128.634H194.944ZM200.792 128.9V124.378H199.798V123.328H200.792V121.396H202.066V123.328H204.068V124.378H202.066V128.9C202.066 129.656 202.346 129.922 203.13 129.922H204.068V131H202.92C201.562 131 200.792 130.44 200.792 128.9ZM212.891 127.15C212.891 129.586 211.141 131.126 208.957 131.126C206.787 131.126 205.135 129.586 205.135 127.15C205.135 124.728 206.843 123.202 209.013 123.202C211.197 123.202 212.891 124.728 212.891 127.15ZM206.437 127.15C206.437 129.096 207.627 130.006 208.957 130.006C210.287 130.006 211.589 129.096 211.589 127.15C211.589 125.218 210.315 124.308 208.999 124.308C207.655 124.308 206.437 125.218 206.437 127.15ZM24.352 146.828V151H23.078V143.328H24.352V144.574C24.786 143.72 25.612 143.188 26.83 143.188V144.504H26.494C25.276 144.504 24.352 145.05 24.352 146.828ZM31.5627 144.28C30.3167 144.28 29.2807 145.106 29.1407 146.604H33.9847C33.9987 145.106 32.8787 144.28 31.5627 144.28ZM35.1467 148.634C34.7547 150.034 33.5227 151.126 31.6187 151.126C29.4347 151.126 27.8247 149.586 27.8247 147.15C27.8247 144.728 29.3787 143.202 31.6187 143.202C33.8447 143.202 35.3007 144.77 35.3007 146.87C35.3007 147.15 35.2867 147.374 35.2587 147.64H29.1267C29.2247 149.194 30.3167 150.048 31.6187 150.048C32.7667 150.048 33.4947 149.46 33.7747 148.634H35.1467ZM36.9823 151V140.64H38.2563V151H36.9823ZM43.6896 144.28C42.4436 144.28 41.4076 145.106 41.2676 146.604H46.1116C46.1256 145.106 45.0056 144.28 43.6896 144.28ZM47.2736 148.634C46.8816 150.034 45.6496 151.126 43.7456 151.126C41.5616 151.126 39.9516 149.586 39.9516 147.15C39.9516 144.728 41.5056 143.202 43.7456 143.202C45.9716 143.202 47.4276 144.77 47.4276 146.87C47.4276 147.15 47.4136 147.374 47.3856 147.64H41.2536C41.3516 149.194 42.4436 150.048 43.7456 150.048C44.8936 150.048 45.6216 149.46 45.9016 148.634H47.2736ZM48.6333 147.136C48.6333 144.742 50.2153 143.202 52.2733 143.202C53.7013 143.202 54.6813 143.93 55.1293 144.728V143.328H56.4173V151H55.1293V149.572C54.6673 150.398 53.6733 151.126 52.2593 151.126C50.2153 151.126 48.6333 149.516 48.6333 147.136ZM55.1293 147.15C55.1293 145.372 53.9253 144.308 52.5253 144.308C51.1253 144.308 49.9353 145.33 49.9353 147.136C49.9353 148.942 51.1253 150.006 52.5253 150.006C53.9253 150.006 55.1293 148.956 55.1293 147.15ZM64.0862 148.914C64.0862 150.174 62.9802 151.126 61.2862 151.126C59.4942 151.126 58.2342 150.146 58.1502 148.746H59.4662C59.5362 149.488 60.1942 150.048 61.2722 150.048C62.2802 150.048 62.8402 149.544 62.8402 148.914C62.8402 147.206 58.3042 148.2 58.3042 145.344C58.3042 144.168 59.4102 143.202 61.1182 143.202C62.8122 143.202 63.9322 144.112 64.0162 145.61H62.7422C62.6862 144.84 62.0982 144.28 61.0762 144.28C60.1382 144.28 59.5782 144.728 59.5782 145.344C59.5782 147.164 64.0302 146.17 64.0862 148.914ZM69.1466 144.28C67.9006 144.28 66.8646 145.106 66.7246 146.604H71.5686C71.5826 145.106 70.4626 144.28 69.1466 144.28ZM72.7306 148.634C72.3386 150.034 71.1066 151.126 69.2026 151.126C67.0186 151.126 65.4086 149.586 65.4086 147.15C65.4086 144.728 66.9626 143.202 69.2026 143.202C71.4286 143.202 72.8846 144.77 72.8846 146.87C72.8846 147.15 72.8706 147.374 72.8426 147.64H66.7106C66.8086 149.194 67.9006 150.048 69.2026 150.048C70.3506 150.048 71.0786 149.46 71.3586 148.634H72.7306ZM79.0967 151V142.04H77.7527V140.878H80.3847V151H79.0967ZM88.2991 148.914C88.2991 150.174 87.1931 151.126 85.4991 151.126C83.7071 151.126 82.4471 150.146 82.3631 148.746H83.6791C83.7491 149.488 84.4071 150.048 85.4851 150.048C86.4931 150.048 87.0531 149.544 87.0531 148.914C87.0531 147.206 82.5171 148.2 82.5171 145.344C82.5171 144.168 83.6231 143.202 85.3311 143.202C87.0251 143.202 88.1451 144.112 88.2291 145.61H86.9551C86.8991 144.84 86.3111 144.28 85.2891 144.28C84.3511 144.28 83.7911 144.728 83.7911 145.344C83.7911 147.164 88.2431 146.17 88.2991 148.914ZM90.3775 148.9V144.378H89.3835V143.328H90.3775V141.396H91.6515V143.328H93.6535V144.378H91.6515V148.9C91.6515 149.656 91.9315 149.922 92.7155 149.922H93.6535V151H92.5055C91.1475 151 90.3775 150.44 90.3775 148.9ZM102.584 149.656L105.65 141.242H106.994L103.312 151H101.842L98.1596 141.242H99.5176L102.584 149.656ZM111.653 144.28C110.407 144.28 109.37 145.106 109.231 146.604H114.075C114.089 145.106 112.969 144.28 111.653 144.28ZM115.237 148.634C114.845 150.034 113.613 151.126 111.709 151.126C109.525 151.126 107.915 149.586 107.915 147.15C107.915 144.728 109.469 143.202 111.709 143.202C113.935 143.202 115.391 144.77 115.391 146.87C115.391 147.15 115.377 147.374 115.349 147.64H109.217C109.315 149.194 110.407 150.048 111.709 150.048C112.857 150.048 113.585 149.46 113.865 148.634H115.237ZM118.346 146.828V151H117.072V143.328H118.346V144.574C118.78 143.72 119.606 143.188 120.824 143.188V144.504H120.488C119.27 144.504 118.346 145.05 118.346 146.828ZM127.811 148.914C127.811 150.174 126.705 151.126 125.011 151.126C123.219 151.126 121.959 150.146 121.875 148.746H123.191C123.261 149.488 123.919 150.048 124.997 150.048C126.005 150.048 126.565 149.544 126.565 148.914C126.565 147.206 122.029 148.2 122.029 145.344C122.029 144.168 123.135 143.202 124.843 143.202C126.537 143.202 127.657 144.112 127.741 145.61H126.467C126.411 144.84 125.823 144.28 124.801 144.28C123.863 144.28 123.303 144.728 123.303 145.344C123.303 147.164 127.755 146.17 127.811 148.914ZM129.609 151V143.328H130.883V151H129.609ZM130.267 142.082C129.777 142.082 129.399 141.704 129.399 141.214C129.399 140.724 129.777 140.346 130.267 140.346C130.729 140.346 131.107 140.724 131.107 141.214C131.107 141.704 130.729 142.082 130.267 142.082ZM140.335 147.15C140.335 149.586 138.585 151.126 136.401 151.126C134.231 151.126 132.579 149.586 132.579 147.15C132.579 144.728 134.287 143.202 136.457 143.202C138.641 143.202 140.335 144.728 140.335 147.15ZM133.881 147.15C133.881 149.096 135.071 150.006 136.401 150.006C137.731 150.006 139.033 149.096 139.033 147.15C139.033 145.218 137.759 144.308 136.443 144.308C135.099 144.308 133.881 145.218 133.881 147.15ZM147.624 151V146.66C147.624 145.092 146.77 144.294 145.482 144.294C144.18 144.294 143.284 145.106 143.284 146.758V151H142.01V143.328H143.284V144.42C143.788 143.622 144.712 143.188 145.748 143.188C147.526 143.188 148.884 144.28 148.884 146.478V151H147.624ZM161.977 147.15C161.977 149.586 160.227 151.126 158.043 151.126C155.873 151.126 154.221 149.586 154.221 147.15C154.221 144.728 155.929 143.202 158.099 143.202C160.283 143.202 161.977 144.728 161.977 147.15ZM155.523 147.15C155.523 149.096 156.713 150.006 158.043 150.006C159.373 150.006 160.675 149.096 160.675 147.15C160.675 145.218 159.401 144.308 158.085 144.308C156.741 144.308 155.523 145.218 155.523 147.15ZM163.89 151V144.378H162.896V143.328H163.89V142.782C163.89 141.074 164.73 140.304 166.69 140.304V141.368C165.542 141.368 165.164 141.788 165.164 142.782V143.328H166.774V144.378H165.164V151H163.89ZM174.904 149.544L177.284 143.328H178.6L173.98 154.612H172.664L174.176 150.916L171.082 143.328H172.496L174.904 149.544ZM187.161 147.15C187.161 149.586 185.411 151.126 183.227 151.126C181.057 151.126 179.405 149.586 179.405 147.15C179.405 144.728 181.113 143.202 183.283 143.202C185.467 143.202 187.161 144.728 187.161 147.15ZM180.707 147.15C180.707 149.096 181.897 150.006 183.227 150.006C184.557 150.006 185.859 149.096 185.859 147.15C185.859 145.218 184.585 144.308 183.269 144.308C181.925 144.308 180.707 145.218 180.707 147.15ZM195.64 143.328V151H194.366V149.866C193.876 150.664 192.938 151.112 191.916 151.112C190.152 151.112 188.766 150.02 188.766 147.822V143.328H190.026V147.654C190.026 149.208 190.88 150.006 192.168 150.006C193.484 150.006 194.366 149.194 194.366 147.542V143.328H195.64ZM199.065 146.828V151H197.791V143.328H199.065V144.574C199.499 143.72 200.325 143.188 201.543 143.188V144.504H201.207C199.989 144.504 199.065 145.05 199.065 146.828ZM28.594 168.914C28.594 170.174 27.488 171.126 25.794 171.126C24.002 171.126 22.742 170.146 22.658 168.746H23.974C24.044 169.488 24.702 170.048 25.78 170.048C26.788 170.048 27.348 169.544 27.348 168.914C27.348 167.206 22.812 168.2 22.812 165.344C22.812 164.168 23.918 163.202 25.626 163.202C27.32 163.202 28.44 164.112 28.524 165.61H27.25C27.194 164.84 26.606 164.28 25.584 164.28C24.646 164.28 24.086 164.728 24.086 165.344C24.086 167.164 28.538 166.17 28.594 168.914ZM37.6725 167.15C37.6725 169.586 35.9225 171.126 33.7385 171.126C31.5685 171.126 29.9165 169.586 29.9165 167.15C29.9165 164.728 31.6245 163.202 33.7945 163.202C35.9785 163.202 37.6725 164.728 37.6725 167.15ZM31.2185 167.15C31.2185 169.096 32.4085 170.006 33.7385 170.006C35.0685 170.006 36.3705 169.096 36.3705 167.15C36.3705 165.218 35.0965 164.308 33.7805 164.308C32.4365 164.308 31.2185 165.218 31.2185 167.15ZM39.5855 171V164.378H38.5915V163.328H39.5855V162.782C39.5855 161.074 40.4255 160.304 42.3855 160.304V161.368C41.2375 161.368 40.8595 161.788 40.8595 162.782V163.328H42.4695V164.378H40.8595V171H39.5855ZM44.235 168.9V164.378H43.241V163.328H44.235V161.396H45.509V163.328H47.511V164.378H45.509V168.9C45.509 169.656 45.789 169.922 46.573 169.922H47.511V171H46.363C45.005 171 44.235 170.44 44.235 168.9ZM50.5526 171L48.1446 163.328H49.4466L51.2106 169.768L53.1146 163.328H54.4166L56.2786 169.782L58.0146 163.328H59.2746L56.8806 171H55.5646L53.7166 164.91L51.8686 171H50.5526ZM60.0629 167.136C60.0629 164.742 61.6449 163.202 63.7029 163.202C65.1309 163.202 66.1109 163.93 66.5589 164.728V163.328H67.8469V171H66.5589V169.572C66.0969 170.398 65.1029 171.126 63.6889 171.126C61.6449 171.126 60.0629 169.516 60.0629 167.136ZM66.5589 167.15C66.5589 165.372 65.3549 164.308 63.9549 164.308C62.5549 164.308 61.3649 165.33 61.3649 167.136C61.3649 168.942 62.5549 170.006 63.9549 170.006C65.3549 170.006 66.5589 168.956 66.5589 167.15ZM71.2739 166.828V171H69.9999V163.328H71.2739V164.574C71.7079 163.72 72.5339 163.188 73.7519 163.188V164.504H73.4159C72.1979 164.504 71.2739 165.05 71.2739 166.828ZM78.4845 164.28C77.2385 164.28 76.2025 165.106 76.0625 166.604H80.9065C80.9205 165.106 79.8005 164.28 78.4845 164.28ZM82.0685 168.634C81.6765 170.034 80.4445 171.126 78.5405 171.126C76.3565 171.126 74.7465 169.586 74.7465 167.15C74.7465 164.728 76.3005 163.202 78.5405 163.202C80.7665 163.202 82.2225 164.77 82.2225 166.87C82.2225 167.15 82.2085 167.374 82.1805 167.64H76.0485C76.1465 169.194 77.2385 170.048 78.5405 170.048C79.6885 170.048 80.4165 169.46 80.6965 168.634H82.0685ZM87.9166 168.9V164.378H86.9226V163.328H87.9166V161.396H89.1906V163.328H91.1926V164.378H89.1906V168.9C89.1906 169.656 89.4706 169.922 90.2546 169.922H91.1926V171H90.0446C88.6866 171 87.9166 170.44 87.9166 168.9ZM100.016 167.15C100.016 169.586 98.2662 171.126 96.0822 171.126C93.9122 171.126 92.2602 169.586 92.2602 167.15C92.2602 164.728 93.9682 163.202 96.1382 163.202C98.3222 163.202 100.016 164.728 100.016 167.15ZM93.5622 167.15C93.5622 169.096 94.7522 170.006 96.0822 170.006C97.4122 170.006 98.7142 169.096 98.7142 167.15C98.7142 165.218 97.4402 164.308 96.1242 164.308C94.7802 164.308 93.5622 165.218 93.5622 167.15ZM105.704 168.9V164.378H104.71V163.328H105.704V161.396H106.978V163.328H108.98V164.378H106.978V168.9C106.978 169.656 107.258 169.922 108.042 169.922H108.98V171H107.832C106.474 171 105.704 170.44 105.704 168.9ZM110.523 171V160.64H111.797V164.434C112.301 163.622 113.253 163.188 114.331 163.188C116.039 163.188 117.397 164.28 117.397 166.478V171H116.137V166.66C116.137 165.092 115.283 164.294 113.995 164.294C112.693 164.294 111.797 165.106 111.797 166.758V171H110.523ZM122.74 164.28C121.494 164.28 120.458 165.106 120.318 166.604H125.162C125.176 165.106 124.056 164.28 122.74 164.28ZM126.324 168.634C125.932 170.034 124.7 171.126 122.796 171.126C120.612 171.126 119.002 169.586 119.002 167.15C119.002 164.728 120.556 163.202 122.796 163.202C125.022 163.202 126.478 164.77 126.478 166.87C126.478 167.15 126.464 167.374 126.436 167.64H120.304C120.402 169.194 121.494 170.048 122.796 170.048C123.944 170.048 124.672 169.46 124.952 168.634H126.324ZM133.166 164.742C133.628 163.93 134.636 163.202 136.036 163.202C138.094 163.202 139.676 164.742 139.676 167.136C139.676 169.516 138.094 171.126 136.036 171.126C134.636 171.126 133.642 170.37 133.166 169.586V174.64H131.892V163.328H133.166V164.742ZM138.374 167.136C138.374 165.33 137.184 164.308 135.77 164.308C134.384 164.308 133.166 165.372 133.166 167.15C133.166 168.956 134.384 170.006 135.77 170.006C137.184 170.006 138.374 168.942 138.374 167.136ZM148.157 163.328V171H146.883V169.866C146.393 170.664 145.455 171.112 144.433 171.112C142.669 171.112 141.283 170.02 141.283 167.822V163.328H142.543V167.654C142.543 169.208 143.397 170.006 144.685 170.006C146.001 170.006 146.883 169.194 146.883 167.542V163.328H148.157ZM151.582 164.756C152.072 163.902 153.094 163.202 154.452 163.202C156.524 163.202 158.092 164.742 158.092 167.136C158.092 169.516 156.51 171.126 154.452 171.126C153.052 171.126 152.058 170.426 151.582 169.586V171H150.308V160.64H151.582V164.756ZM156.79 167.136C156.79 165.33 155.6 164.308 154.186 164.308C152.8 164.308 151.582 165.372 151.582 167.15C151.582 168.956 152.8 170.006 154.186 170.006C155.6 170.006 156.79 168.942 156.79 167.136ZM159.769 171V160.64H161.043V171H159.769ZM163.215 171V163.328H164.489V171H163.215ZM163.873 162.082C163.383 162.082 163.005 161.704 163.005 161.214C163.005 160.724 163.383 160.346 163.873 160.346C164.335 160.346 164.713 160.724 164.713 161.214C164.713 161.704 164.335 162.082 163.873 162.082ZM166.184 167.15C166.184 164.742 167.738 163.202 169.922 163.202C171.826 163.202 173.072 164.182 173.464 165.792H172.092C171.826 164.868 171.056 164.28 169.922 164.28C168.522 164.28 167.486 165.274 167.486 167.15C167.486 169.054 168.522 170.048 169.922 170.048C171.056 170.048 171.812 169.502 172.092 168.536H173.464C173.072 170.062 171.826 171.126 169.922 171.126C167.738 171.126 166.184 169.586 166.184 167.15ZM176.41 170.216C176.41 170.706 176.032 171.084 175.57 171.084C175.08 171.084 174.702 170.706 174.702 170.216C174.702 169.726 175.08 169.348 175.57 169.348C176.032 169.348 176.41 169.726 176.41 170.216ZM181.836 171V161.242H183.11V171H181.836ZM185.519 171V164.378H184.525V163.328H185.519V162.782C185.519 161.074 186.359 160.304 188.319 160.304V161.368C187.171 161.368 186.793 161.788 186.793 162.782V163.328H188.403V164.378H186.793V171H185.519ZM193.621 171V163.328H194.895V171H193.621ZM194.279 162.082C193.789 162.082 193.411 161.704 193.411 161.214C193.411 160.724 193.789 160.346 194.279 160.346C194.741 160.346 195.119 160.724 195.119 161.214C195.119 161.704 194.741 162.082 194.279 162.082ZM197.346 168.9V164.378H196.352V163.328H197.346V161.396H198.62V163.328H200.622V164.378H198.62V168.9C198.62 169.656 198.9 169.922 199.684 169.922H200.622V171H199.474C198.116 171 197.346 170.44 197.346 168.9ZM201.76 162.642L201.578 159.856H202.81L202.642 162.642H201.76ZM209.91 168.914C209.91 170.174 208.804 171.126 207.11 171.126C205.318 171.126 204.058 170.146 203.974 168.746H205.29C205.36 169.488 206.018 170.048 207.096 170.048C208.104 170.048 208.664 169.544 208.664 168.914C208.664 167.206 204.128 168.2 204.128 165.344C204.128 164.168 205.234 163.202 206.942 163.202C208.636 163.202 209.756 164.112 209.84 165.61H208.566C208.51 164.84 207.922 164.28 206.9 164.28C205.962 164.28 205.402 164.728 205.402 165.344C205.402 167.164 209.854 166.17 209.91 168.914ZM214.965 167.136C214.965 164.742 216.547 163.202 218.605 163.202C220.033 163.202 221.013 163.93 221.461 164.728V163.328H222.749V171H221.461V169.572C220.999 170.398 220.005 171.126 218.591 171.126C216.547 171.126 214.965 169.516 214.965 167.136ZM221.461 167.15C221.461 165.372 220.257 164.308 218.857 164.308C217.457 164.308 216.267 165.33 216.267 167.136C216.267 168.942 217.457 170.006 218.857 170.006C220.257 170.006 221.461 168.956 221.461 167.15ZM34.152 191V186.66C34.152 185.092 33.312 184.294 32.052 184.294C30.764 184.294 29.882 185.12 29.882 186.772V191H28.622V186.66C28.622 185.092 27.782 184.294 26.522 184.294C25.234 184.294 24.352 185.12 24.352 186.772V191H23.078V183.328H24.352V184.434C24.856 183.622 25.766 183.188 26.774 183.188C28.034 183.188 29.084 183.748 29.588 184.896C30.036 183.79 31.128 183.188 32.304 183.188C34.054 183.188 35.412 184.28 35.412 186.478V191H34.152ZM44.7818 187.15C44.7818 189.586 43.0318 191.126 40.8478 191.126C38.6778 191.126 37.0258 189.586 37.0258 187.15C37.0258 184.728 38.7338 183.202 40.9038 183.202C43.0878 183.202 44.7818 184.728 44.7818 187.15ZM38.3278 187.15C38.3278 189.096 39.5178 190.006 40.8478 190.006C42.1778 190.006 43.4798 189.096 43.4798 187.15C43.4798 185.218 42.2058 184.308 40.8898 184.308C39.5458 184.308 38.3278 185.218 38.3278 187.15ZM47.7309 184.756C48.2209 183.902 49.2429 183.202 50.6009 183.202C52.6729 183.202 54.2409 184.742 54.2409 187.136C54.2409 189.516 52.6589 191.126 50.6009 191.126C49.2009 191.126 48.2069 190.426 47.7309 189.586V191H46.4569V180.64H47.7309V184.756ZM52.9389 187.136C52.9389 185.33 51.7489 184.308 50.3349 184.308C48.9489 184.308 47.7309 185.372 47.7309 187.15C47.7309 188.956 48.9489 190.006 50.3349 190.006C51.7489 190.006 52.9389 188.942 52.9389 187.136ZM55.9178 191V183.328H57.1918V191H55.9178ZM56.5758 182.082C56.0858 182.082 55.7078 181.704 55.7078 181.214C55.7078 180.724 56.0858 180.346 56.5758 180.346C57.0378 180.346 57.4158 180.724 57.4158 181.214C57.4158 181.704 57.0378 182.082 56.5758 182.082ZM59.3632 191V180.64H60.6372V191H59.3632ZM66.0705 184.28C64.8245 184.28 63.7885 185.106 63.6485 186.604H68.4925C68.5065 185.106 67.3865 184.28 66.0705 184.28ZM69.6545 188.634C69.2625 190.034 68.0305 191.126 66.1265 191.126C63.9425 191.126 62.3325 189.586 62.3325 187.15C62.3325 184.728 63.8865 183.202 66.1265 183.202C68.3525 183.202 69.8085 184.77 69.8085 186.87C69.8085 187.15 69.7945 187.374 69.7665 187.64H63.6345C63.7325 189.194 64.8245 190.048 66.1265 190.048C67.2745 190.048 68.0025 189.46 68.2825 188.634H69.6545ZM74.7465 187.136C74.7465 184.742 76.3285 183.202 78.3865 183.202C79.8145 183.202 80.7945 183.93 81.2425 184.728V183.328H82.5305V191H81.2425V189.572C80.7805 190.398 79.7865 191.126 78.3725 191.126C76.3285 191.126 74.7465 189.516 74.7465 187.136ZM81.2425 187.15C81.2425 185.372 80.0385 184.308 78.6385 184.308C77.2385 184.308 76.0485 185.33 76.0485 187.136C76.0485 188.942 77.2385 190.006 78.6385 190.006C80.0385 190.006 81.2425 188.956 81.2425 187.15ZM85.9575 184.742C86.4195 183.93 87.4275 183.202 88.8275 183.202C90.8855 183.202 92.4675 184.742 92.4675 187.136C92.4675 189.516 90.8855 191.126 88.8275 191.126C87.4275 191.126 86.4335 190.37 85.9575 189.586V194.64H84.6835V183.328H85.9575V184.742ZM91.1655 187.136C91.1655 185.33 89.9755 184.308 88.5615 184.308C87.1755 184.308 85.9575 185.372 85.9575 187.15C85.9575 188.956 87.1755 190.006 88.5615 190.006C89.9755 190.006 91.1655 188.942 91.1655 187.136ZM95.4184 184.742C95.8804 183.93 96.8884 183.202 98.2884 183.202C100.346 183.202 101.928 184.742 101.928 187.136C101.928 189.516 100.346 191.126 98.2884 191.126C96.8884 191.126 95.8944 190.37 95.4184 189.586V194.64H94.1444V183.328H95.4184V184.742ZM100.626 187.136C100.626 185.33 99.4364 184.308 98.0224 184.308C96.6364 184.308 95.4184 185.372 95.4184 187.15C95.4184 188.956 96.6364 190.006 98.0224 190.006C99.4364 190.006 100.626 188.942 100.626 187.136ZM107.618 188.9V184.378H106.624V183.328H107.618V181.396H108.892V183.328H110.894V184.378H108.892V188.9C108.892 189.656 109.172 189.922 109.956 189.922H110.894V191H109.746C108.388 191 107.618 190.44 107.618 188.9ZM112.437 191V180.64H113.711V184.434C114.215 183.622 115.167 183.188 116.245 183.188C117.953 183.188 119.311 184.28 119.311 186.478V191H118.051V186.66C118.051 185.092 117.197 184.294 115.909 184.294C114.607 184.294 113.711 185.106 113.711 186.758V191H112.437ZM124.654 184.28C123.408 184.28 122.372 185.106 122.232 186.604H127.076C127.09 185.106 125.97 184.28 124.654 184.28ZM128.238 188.634C127.846 190.034 126.614 191.126 124.71 191.126C122.526 191.126 120.916 189.586 120.916 187.15C120.916 184.728 122.47 183.202 124.71 183.202C126.936 183.202 128.392 184.77 128.392 186.87C128.392 187.15 128.378 187.374 128.35 187.64H122.218C122.316 189.194 123.408 190.048 124.71 190.048C125.858 190.048 126.586 189.46 126.866 188.634H128.238ZM135.688 191V186.66C135.688 185.092 134.834 184.294 133.546 184.294C132.244 184.294 131.348 185.106 131.348 186.758V191H130.074V183.328H131.348V184.42C131.852 183.622 132.776 183.188 133.812 183.188C135.59 183.188 136.948 184.28 136.948 186.478V191H135.688ZM144.26 191L141.852 183.328H143.154L144.918 189.768L146.822 183.328H148.124L149.986 189.782L151.722 183.328H152.982L150.588 191H149.272L147.424 184.91L145.576 191H144.26ZM157.508 184.28C156.262 184.28 155.226 185.106 155.086 186.604H159.93C159.944 185.106 158.824 184.28 157.508 184.28ZM161.092 188.634C160.7 190.034 159.468 191.126 157.564 191.126C155.38 191.126 153.77 189.586 153.77 187.15C153.77 184.728 155.324 183.202 157.564 183.202C159.79 183.202 161.246 184.77 161.246 186.87C161.246 187.15 161.232 187.374 161.204 187.64H155.072C155.17 189.194 156.262 190.048 157.564 190.048C158.712 190.048 159.44 189.46 159.72 188.634H161.092ZM168.158 191L165.75 183.328H167.052L168.816 189.768L170.72 183.328H172.022L173.884 189.782L175.62 183.328H176.88L174.486 191H173.17L171.322 184.91L169.474 191H168.158ZM178.144 191V183.328H179.418V191H178.144ZM178.802 182.082C178.312 182.082 177.934 181.704 177.934 181.214C177.934 180.724 178.312 180.346 178.802 180.346C179.264 180.346 179.642 180.724 179.642 181.214C179.642 181.704 179.264 182.082 178.802 182.082ZM181.59 191V180.64H182.864V191H181.59ZM185.035 191V180.64H186.309V191H185.035ZM197.729 188.914C197.729 190.174 196.623 191.126 194.929 191.126C193.137 191.126 191.877 190.146 191.793 188.746H193.109C193.179 189.488 193.837 190.048 194.915 190.048C195.923 190.048 196.483 189.544 196.483 188.914C196.483 187.206 191.947 188.2 191.947 185.344C191.947 184.168 193.053 183.202 194.761 183.202C196.455 183.202 197.575 184.112 197.659 185.61H196.385C196.329 184.84 195.741 184.28 194.719 184.28C193.781 184.28 193.221 184.728 193.221 185.344C193.221 187.164 197.673 186.17 197.729 188.914ZM206.331 183.328V191H205.057V189.866C204.567 190.664 203.629 191.112 202.607 191.112C200.843 191.112 199.457 190.02 199.457 187.822V183.328H200.717V187.654C200.717 189.208 201.571 190.006 202.859 190.006C204.175 190.006 205.057 189.194 205.057 187.542V183.328H206.331ZM209.756 184.756C210.246 183.902 211.268 183.202 212.626 183.202C214.698 183.202 216.266 184.742 216.266 187.136C216.266 189.516 214.684 191.126 212.626 191.126C211.226 191.126 210.232 190.426 209.756 189.586V191H208.482V180.64H209.756V184.756ZM214.964 187.136C214.964 185.33 213.774 184.308 212.36 184.308C210.974 184.308 209.756 185.372 209.756 187.15C209.756 188.956 210.974 190.006 212.36 190.006C213.774 190.006 214.964 188.942 214.964 187.136ZM229.017 191V186.66C229.017 185.092 228.177 184.294 226.917 184.294C225.629 184.294 224.747 185.12 224.747 186.772V191H223.487V186.66C223.487 185.092 222.647 184.294 221.387 184.294C220.099 184.294 219.217 185.12 219.217 186.772V191H217.943V183.328H219.217V184.434C219.721 183.622 220.631 183.188 221.639 183.188C222.899 183.188 223.949 183.748 224.453 184.896C224.901 183.79 225.993 183.188 227.169 183.188C228.919 183.188 230.277 184.28 230.277 186.478V191H229.017ZM232.367 191V183.328H233.641V191H232.367ZM233.025 182.082C232.535 182.082 232.157 181.704 232.157 181.214C232.157 180.724 232.535 180.346 233.025 180.346C233.487 180.346 233.865 180.724 233.865 181.214C233.865 181.704 233.487 182.082 233.025 182.082ZM236.092 188.9V184.378H235.098V183.328H236.092V181.396H237.366V183.328H239.368V184.378H237.366V188.9C237.366 189.656 237.646 189.922 238.43 189.922H239.368V191H238.22C236.862 191 236.092 190.44 236.092 188.9ZM244.644 191V183.328H245.918V191H244.644ZM245.302 182.082C244.812 182.082 244.434 181.704 244.434 181.214C244.434 180.724 244.812 180.346 245.302 180.346C245.764 180.346 246.142 180.724 246.142 181.214C246.142 181.704 245.764 182.082 245.302 182.082ZM248.37 188.9V184.378H247.376V183.328H248.37V181.396H249.644V183.328H251.646V184.378H249.644V188.9C249.644 189.656 249.924 189.922 250.708 189.922H251.646V191H250.498C249.14 191 248.37 190.44 248.37 188.9ZM23.358 208.9V204.378H22.364V203.328H23.358V201.396H24.632V203.328H26.634V204.378H24.632V208.9C24.632 209.656 24.912 209.922 25.696 209.922H26.634V211H25.486C24.128 211 23.358 210.44 23.358 208.9ZM35.4576 207.15C35.4576 209.586 33.7076 211.126 31.5236 211.126C29.3536 211.126 27.7016 209.586 27.7016 207.15C27.7016 204.728 29.4096 203.202 31.5796 203.202C33.7636 203.202 35.4576 204.728 35.4576 207.15ZM29.0036 207.15C29.0036 209.096 30.1936 210.006 31.5236 210.006C32.8536 210.006 34.1556 209.096 34.1556 207.15C34.1556 205.218 32.8816 204.308 31.5656 204.308C30.2216 204.308 29.0036 205.218 29.0036 207.15ZM47.4171 211L46.6331 208.83H42.3771L41.5931 211H40.2491L43.7771 201.298H45.2471L48.7611 211H47.4171ZM46.2691 207.794L44.5051 202.866L42.7411 207.794H46.2691ZM51.5727 204.742C52.0347 203.93 53.0427 203.202 54.4427 203.202C56.5007 203.202 58.0827 204.742 58.0827 207.136C58.0827 209.516 56.5007 211.126 54.4427 211.126C53.0427 211.126 52.0487 210.37 51.5727 209.586V214.64H50.2987V203.328H51.5727V204.742ZM56.7807 207.136C56.7807 205.33 55.5907 204.308 54.1767 204.308C52.7907 204.308 51.5727 205.372 51.5727 207.15C51.5727 208.956 52.7907 210.006 54.1767 210.006C55.5907 210.006 56.7807 208.942 56.7807 207.136ZM61.0336 204.742C61.4956 203.93 62.5036 203.202 63.9036 203.202C65.9616 203.202 67.5436 204.742 67.5436 207.136C67.5436 209.516 65.9616 211.126 63.9036 211.126C62.5036 211.126 61.5096 210.37 61.0336 209.586V214.64H59.7596V203.328H61.0336V204.742ZM66.2416 207.136C66.2416 205.33 65.0516 204.308 63.6376 204.308C62.2516 204.308 61.0336 205.372 61.0336 207.15C61.0336 208.956 62.2516 210.006 63.6376 210.006C65.0516 210.006 66.2416 208.942 66.2416 207.136ZM69.2206 211V200.64H70.4946V211H69.2206ZM75.9279 204.28C74.6819 204.28 73.6459 205.106 73.5059 206.604H78.3499C78.3639 205.106 77.2439 204.28 75.9279 204.28ZM79.5119 208.634C79.1199 210.034 77.8879 211.126 75.9839 211.126C73.7999 211.126 72.1899 209.586 72.1899 207.15C72.1899 204.728 73.7439 203.202 75.9839 203.202C78.2099 203.202 79.6659 204.77 79.6659 206.87C79.6659 207.15 79.6519 207.374 79.6239 207.64H73.4919C73.5899 209.194 74.6819 210.048 75.9839 210.048C77.1319 210.048 77.8599 209.46 78.1399 208.634H79.5119ZM84.604 207.136C84.604 204.742 86.186 203.202 88.244 203.202C89.672 203.202 90.652 203.93 91.1 204.728V203.328H92.388V211H91.1V209.572C90.638 210.398 89.644 211.126 88.23 211.126C86.186 211.126 84.604 209.516 84.604 207.136ZM91.1 207.15C91.1 205.372 89.896 204.308 88.496 204.308C87.096 204.308 85.906 205.33 85.906 207.136C85.906 208.942 87.096 210.006 88.496 210.006C89.896 210.006 91.1 208.956 91.1 207.15ZM100.155 211V206.66C100.155 205.092 99.3009 204.294 98.0129 204.294C96.7109 204.294 95.8149 205.106 95.8149 206.758V211H94.5409V203.328H95.8149V204.42C96.3189 203.622 97.2429 203.188 98.2789 203.188C100.057 203.188 101.415 204.28 101.415 206.478V211H100.155ZM103.02 207.136C103.02 204.742 104.602 203.202 106.674 203.202C107.878 203.202 108.984 203.818 109.516 204.7V200.64H110.804V211H109.516V209.558C109.054 210.412 108.06 211.126 106.66 211.126C104.602 211.126 103.02 209.516 103.02 207.136ZM109.516 207.15C109.516 205.372 108.312 204.308 106.912 204.308C105.512 204.308 104.322 205.33 104.322 207.136C104.322 208.942 105.512 210.006 106.912 210.006C108.312 210.006 109.516 208.956 109.516 207.15ZM121.113 201.13C123.171 201.13 124.879 202.194 125.607 204.07H124.081C123.549 202.936 122.485 202.278 121.113 202.278C119.055 202.278 117.515 203.762 117.515 206.114C117.515 208.452 119.055 209.936 121.113 209.936C123.031 209.936 124.347 208.704 124.543 206.772H120.651V205.736H125.901V206.716C125.677 209.138 123.759 211.084 121.113 211.084C118.369 211.084 116.213 209.04 116.213 206.114C116.213 203.188 118.369 201.13 121.113 201.13ZM134.866 207.15C134.866 209.586 133.116 211.126 130.932 211.126C128.762 211.126 127.11 209.586 127.11 207.15C127.11 204.728 128.818 203.202 130.988 203.202C133.172 203.202 134.866 204.728 134.866 207.15ZM128.412 207.15C128.412 209.096 129.602 210.006 130.932 210.006C132.262 210.006 133.564 209.096 133.564 207.15C133.564 205.218 132.29 204.308 130.974 204.308C129.63 204.308 128.412 205.218 128.412 207.15ZM143.821 207.15C143.821 209.586 142.071 211.126 139.887 211.126C137.717 211.126 136.065 209.586 136.065 207.15C136.065 204.728 137.773 203.202 139.943 203.202C142.127 203.202 143.821 204.728 143.821 207.15ZM137.367 207.15C137.367 209.096 138.557 210.006 139.887 210.006C141.217 210.006 142.519 209.096 142.519 207.15C142.519 205.218 141.245 204.308 139.929 204.308C138.585 204.308 137.367 205.218 137.367 207.15ZM145.02 207.136C145.02 204.742 146.602 203.202 148.66 203.202C150.06 203.202 151.068 203.902 151.516 204.728V203.328H152.804V211.168C152.804 213.282 151.39 214.78 149.136 214.78C147.12 214.78 145.678 213.758 145.426 212.12H146.686C146.966 213.044 147.876 213.674 149.136 213.674C150.494 213.674 151.516 212.806 151.516 211.168V209.558C151.054 210.384 150.06 211.126 148.66 211.126C146.602 211.126 145.02 209.516 145.02 207.136ZM151.516 207.15C151.516 205.372 150.312 204.308 148.912 204.308C147.512 204.308 146.322 205.33 146.322 207.136C146.322 208.942 147.512 210.006 148.912 210.006C150.312 210.006 151.516 208.956 151.516 207.15ZM154.957 211V200.64H156.231V211H154.957ZM161.664 204.28C160.418 204.28 159.382 205.106 159.242 206.604H164.086C164.1 205.106 162.98 204.28 161.664 204.28ZM165.248 208.634C164.856 210.034 163.624 211.126 161.72 211.126C159.536 211.126 157.926 209.586 157.926 207.15C157.926 204.728 159.48 203.202 161.72 203.202C163.946 203.202 165.402 204.77 165.402 206.87C165.402 207.15 165.388 207.374 165.36 207.64H159.228C159.326 209.194 160.418 210.048 161.72 210.048C162.868 210.048 163.596 209.46 163.876 208.634H165.248ZM171.054 211V204.378H170.06V203.328H171.054V202.782C171.054 201.074 171.894 200.304 173.854 200.304V201.368C172.706 201.368 172.328 201.788 172.328 202.782V203.328H173.938V204.378H172.328V211H171.054ZM182.704 207.15C182.704 209.586 180.954 211.126 178.77 211.126C176.6 211.126 174.948 209.586 174.948 207.15C174.948 204.728 176.656 203.202 178.826 203.202C181.01 203.202 182.704 204.728 182.704 207.15ZM176.25 207.15C176.25 209.096 177.44 210.006 178.77 210.006C180.1 210.006 181.402 209.096 181.402 207.15C181.402 205.218 180.128 204.308 178.812 204.308C177.468 204.308 176.25 205.218 176.25 207.15ZM185.653 206.828V211H184.379V203.328H185.653V204.574C186.087 203.72 186.913 203.188 188.131 203.188V204.504H187.795C186.577 204.504 185.653 205.05 185.653 206.828ZM194.608 206.828V211H193.334V203.328H194.608V204.574C195.042 203.72 195.868 203.188 197.086 203.188V204.504H196.75C195.532 204.504 194.608 205.05 194.608 206.828ZM201.819 204.28C200.573 204.28 199.537 205.106 199.397 206.604H204.241C204.255 205.106 203.135 204.28 201.819 204.28ZM205.403 208.634C205.011 210.034 203.779 211.126 201.875 211.126C199.691 211.126 198.081 209.586 198.081 207.15C198.081 204.728 199.635 203.202 201.875 203.202C204.101 203.202 205.557 204.77 205.557 206.87C205.557 207.15 205.543 207.374 205.515 207.64H199.383C199.481 209.194 200.573 210.048 201.875 210.048C203.023 210.048 203.751 209.46 204.031 208.634H205.403ZM206.328 203.328H207.7L210.094 209.824L212.474 203.328H213.832L210.822 211H209.338L206.328 203.328ZM215.086 211V203.328H216.36V211H215.086ZM215.744 202.082C215.254 202.082 214.876 201.704 214.876 201.214C214.876 200.724 215.254 200.346 215.744 200.346C216.206 200.346 216.584 200.724 216.584 201.214C216.584 201.704 216.206 202.082 215.744 202.082ZM221.793 204.28C220.547 204.28 219.511 205.106 219.371 206.604H224.215C224.229 205.106 223.109 204.28 221.793 204.28ZM225.377 208.634C224.985 210.034 223.753 211.126 221.849 211.126C219.665 211.126 218.055 209.586 218.055 207.15C218.055 204.728 219.609 203.202 221.849 203.202C224.075 203.202 225.531 204.77 225.531 206.87C225.531 207.15 225.517 207.374 225.489 207.64H219.357C219.455 209.194 220.547 210.048 221.849 210.048C222.997 210.048 223.725 209.46 224.005 208.634H225.377ZM228.711 211L226.303 203.328H227.605L229.369 209.768L231.273 203.328H232.575L234.437 209.782L236.173 203.328H237.433L235.039 211H233.723L231.875 204.91L230.027 211H228.711ZM239.943 210.216C239.943 210.706 239.565 211.084 239.103 211.084C238.613 211.084 238.235 210.706 238.235 210.216C238.235 209.726 238.613 209.348 239.103 209.348C239.565 209.348 239.943 209.726 239.943 210.216Z" fill="#4F668E"/>
</svg>
