<svg width="250" height="269" viewBox="0 0 250 269" fill="none" xmlns="http://www.w3.org/2000/svg">
<path d="M70.9393 268.061C71.5251 268.646 72.4749 268.646 73.0607 268.061L82.6066 258.515C83.1924 257.929 83.1924 256.979 82.6066 256.393C82.0208 255.808 81.0711 255.808 80.4853 256.393L72 264.879L63.5147 256.393C62.9289 255.808 61.9792 255.808 61.3934 256.393C60.8076 256.979 60.8076 257.929 61.3934 258.515L70.9393 268.061ZM70.5 226V267H73.5V226H70.5Z" fill="#23D9AE"/>
<path d="M54.5042 25H30C14.536 25 2 37.536 2 53V200C2 215.464 14.536 228 30 228H73" stroke="#23D9AE" stroke-width="3"/>
<circle cx="73" cy="25" r="25" fill="#34B7F2"/>
<path d="M26.6 82.96V91.36C26.6 92.2 26.8067 92.8467 27.22 93.3C27.6333 93.7533 28.24 93.98 29.04 93.98C29.84 93.98 30.4533 93.7533 30.88 93.3C31.3067 92.8467 31.52 92.2 31.52 91.36V82.96H34.94V91.34C34.94 92.5933 34.6733 93.6533 34.14 94.52C33.6067 95.3867 32.8867 96.04 31.98 96.48C31.0867 96.92 30.0867 97.14 28.98 97.14C27.8733 97.14 26.88 96.9267 26 96.5C25.1333 96.06 24.4467 95.4067 23.94 94.54C23.4333 93.66 23.18 92.5933 23.18 91.34V82.96H26.6ZM45.9416 97L43.0816 92.7L40.5616 97H36.6816L41.1816 89.86L36.5816 82.96H40.5616L43.3816 87.2L45.8616 82.96H49.7416L45.2816 90.04L49.9216 97H45.9416ZM59.2584 78L53.8984 100.74H50.5984L55.9584 78H59.2584ZM64.0609 82.96V91.36C64.0609 92.2 64.2676 92.8467 64.6809 93.3C65.0943 93.7533 65.7009 93.98 66.5009 93.98C67.3009 93.98 67.9143 93.7533 68.3409 93.3C68.7676 92.8467 68.9809 92.2 68.9809 91.36V82.96H72.4009V91.34C72.4009 92.5933 72.1343 93.6533 71.6009 94.52C71.0676 95.3867 70.3476 96.04 69.4409 96.48C68.5476 96.92 67.5476 97.14 66.4409 97.14C65.3343 97.14 64.3409 96.9267 63.4609 96.5C62.5943 96.06 61.9076 95.4067 61.4009 94.54C60.8943 93.66 60.6409 92.5933 60.6409 91.34V82.96H64.0609ZM78.2225 82.96V97H74.8025V82.96H78.2225ZM90.1992 82.96C91.6792 82.96 92.9726 83.2533 94.0792 83.84C95.1859 84.4267 96.0392 85.2533 96.6392 86.32C97.2526 87.3733 97.5592 88.5933 97.5592 89.98C97.5592 91.3533 97.2526 92.5733 96.6392 93.64C96.0392 94.7067 95.1792 95.5333 94.0592 96.12C92.9526 96.7067 91.6659 97 90.1992 97H84.9392V82.96H90.1992ZM89.9792 94.04C91.2726 94.04 92.2792 93.6867 92.9992 92.98C93.7192 92.2733 94.0792 91.2733 94.0792 89.98C94.0792 88.6867 93.7192 87.68 92.9992 86.96C92.2792 86.24 91.2726 85.88 89.9792 85.88H88.3592V94.04H89.9792ZM109.99 91.24C109.99 91.56 109.97 91.8933 109.93 92.24H102.19C102.244 92.9333 102.464 93.4667 102.85 93.84C103.25 94.2 103.737 94.38 104.31 94.38C105.164 94.38 105.757 94.02 106.09 93.3H109.73C109.544 94.0333 109.204 94.6933 108.71 95.28C108.23 95.8667 107.624 96.3267 106.89 96.66C106.157 96.9933 105.337 97.16 104.43 97.16C103.337 97.16 102.364 96.9267 101.51 96.46C100.657 95.9933 99.9905 95.3267 99.5105 94.46C99.0305 93.5933 98.7905 92.58 98.7905 91.42C98.7905 90.26 99.0238 89.2467 99.4905 88.38C99.9705 87.5133 100.637 86.8467 101.49 86.38C102.344 85.9133 103.324 85.68 104.43 85.68C105.51 85.68 106.47 85.9067 107.31 86.36C108.15 86.8133 108.804 87.46 109.27 88.3C109.75 89.14 109.99 90.12 109.99 91.24ZM106.49 90.34C106.49 89.7533 106.29 89.2867 105.89 88.94C105.49 88.5933 104.99 88.42 104.39 88.42C103.817 88.42 103.33 88.5867 102.93 88.92C102.544 89.2533 102.304 89.7267 102.21 90.34H106.49ZM116.335 97.16C115.361 97.16 114.495 96.9933 113.735 96.66C112.975 96.3267 112.375 95.8733 111.935 95.3C111.495 94.7133 111.248 94.06 111.195 93.34H114.575C114.615 93.7267 114.795 94.04 115.115 94.28C115.435 94.52 115.828 94.64 116.295 94.64C116.721 94.64 117.048 94.56 117.275 94.4C117.515 94.2267 117.635 94.0067 117.635 93.74C117.635 93.42 117.468 93.1867 117.135 93.04C116.801 92.88 116.261 92.7067 115.515 92.52C114.715 92.3333 114.048 92.14 113.515 91.94C112.981 91.7267 112.521 91.4 112.135 90.96C111.748 90.5067 111.555 89.9 111.555 89.14C111.555 88.5 111.728 87.92 112.075 87.4C112.435 86.8667 112.955 86.4467 113.635 86.14C114.328 85.8333 115.148 85.68 116.095 85.68C117.495 85.68 118.595 86.0267 119.395 86.72C120.208 87.4133 120.675 88.3333 120.795 89.48H117.635C117.581 89.0933 117.408 88.7867 117.115 88.56C116.835 88.3333 116.461 88.22 115.995 88.22C115.595 88.22 115.288 88.3 115.075 88.46C114.861 88.6067 114.755 88.8133 114.755 89.08C114.755 89.4 114.921 89.64 115.255 89.8C115.601 89.96 116.135 90.12 116.855 90.28C117.681 90.4933 118.355 90.7067 118.875 90.92C119.395 91.12 119.848 91.4533 120.235 91.92C120.635 92.3733 120.841 92.9867 120.855 93.76C120.855 94.4133 120.668 95 120.295 95.52C119.935 96.0267 119.408 96.4267 118.715 96.72C118.035 97.0133 117.241 97.16 116.335 97.16ZM124.667 84.68C124.067 84.68 123.574 84.5067 123.187 84.16C122.814 83.8 122.627 83.36 122.627 82.84C122.627 82.3067 122.814 81.8667 123.187 81.52C123.574 81.16 124.067 80.98 124.667 80.98C125.254 80.98 125.734 81.16 126.107 81.52C126.494 81.8667 126.687 82.3067 126.687 82.84C126.687 83.36 126.494 83.8 126.107 84.16C125.734 84.5067 125.254 84.68 124.667 84.68ZM126.367 85.84V97H122.947V85.84H126.367ZM133.085 85.68C133.872 85.68 134.559 85.84 135.145 86.16C135.745 86.48 136.205 86.9 136.525 87.42V85.84H139.945V96.98C139.945 98.0067 139.739 98.9333 139.325 99.76C138.925 100.6 138.305 101.267 137.465 101.76C136.639 102.253 135.605 102.5 134.365 102.5C132.712 102.5 131.372 102.107 130.345 101.32C129.319 100.547 128.732 99.4933 128.585 98.16H131.965C132.072 98.5867 132.325 98.92 132.725 99.16C133.125 99.4133 133.619 99.54 134.205 99.54C134.912 99.54 135.472 99.3333 135.885 98.92C136.312 98.52 136.525 97.8733 136.525 96.98V95.4C136.192 95.92 135.732 96.3467 135.145 96.68C134.559 97 133.872 97.16 133.085 97.16C132.165 97.16 131.332 96.9267 130.585 96.46C129.839 95.98 129.245 95.3067 128.805 94.44C128.379 93.56 128.165 92.5467 128.165 91.4C128.165 90.2533 128.379 89.2467 128.805 88.38C129.245 87.5133 129.839 86.8467 130.585 86.38C131.332 85.9133 132.165 85.68 133.085 85.68ZM136.525 91.42C136.525 90.5667 136.285 89.8933 135.805 89.4C135.339 88.9067 134.765 88.66 134.085 88.66C133.405 88.66 132.825 88.9067 132.345 89.4C131.879 89.88 131.645 90.5467 131.645 91.4C131.645 92.2533 131.879 92.9333 132.345 93.44C132.825 93.9333 133.405 94.18 134.085 94.18C134.765 94.18 135.339 93.9333 135.805 93.44C136.285 92.9467 136.525 92.2733 136.525 91.42ZM149.22 85.72C150.526 85.72 151.566 86.1467 152.34 87C153.126 87.84 153.52 89 153.52 90.48V97H150.12V90.94C150.12 90.1933 149.926 89.6133 149.54 89.2C149.153 88.7867 148.633 88.58 147.98 88.58C147.326 88.58 146.806 88.7867 146.42 89.2C146.033 89.6133 145.84 90.1933 145.84 90.94V97H142.42V85.84H145.84V87.32C146.186 86.8267 146.653 86.44 147.24 86.16C147.826 85.8667 148.486 85.72 149.22 85.72Z" fill="#336082"/>
<path d="M75.9375 32H66.5859V31.7422C69.4531 28.3281 71.1914 26.0312 71.8008 24.8516C72.418 23.6719 72.7266 22.5195 72.7266 21.3945C72.7266 20.5742 72.4727 19.8945 71.9648 19.3555C71.457 18.8086 70.8359 18.5352 70.1016 18.5352C68.8984 18.5352 67.9648 19.1367 67.3008 20.3398L66.8672 20.1875C67.2891 18.6875 67.9297 17.5781 68.7891 16.8594C69.6484 16.1406 70.6406 15.7812 71.7656 15.7812C72.5703 15.7812 73.3047 15.9688 73.9688 16.3438C74.6328 16.7188 75.1523 17.2344 75.5273 17.8906C75.9023 18.5391 76.0898 19.1484 76.0898 19.7188C76.0898 20.7578 75.8008 21.8125 75.2227 22.8828C74.4336 24.3281 72.7109 26.3438 70.0547 28.9297H73.4883C74.332 28.9297 74.8789 28.8945 75.1289 28.8242C75.3867 28.7539 75.5977 28.6367 75.7617 28.4727C75.9258 28.3008 76.1406 27.9453 76.4062 27.4062H76.8281L75.9375 32Z" fill="white"/>
<path d="M29.42 121.34C29.42 122.726 28.286 124.098 26.172 124.098C24.212 124.098 22.826 123.006 22.798 121.396H24.156C24.24 122.208 24.814 123.02 26.172 123.02C27.404 123.02 28.132 122.32 28.132 121.396C28.132 118.764 22.854 120.444 22.854 116.818C22.854 115.208 24.156 114.116 26.088 114.116C27.95 114.116 29.168 115.138 29.322 116.622H27.922C27.838 115.964 27.222 115.222 26.032 115.208C24.982 115.18 24.156 115.726 24.156 116.776C24.156 119.296 29.42 117.728 29.42 121.34ZM38.5748 120.15C38.5748 122.586 36.8248 124.126 34.6408 124.126C32.4708 124.126 30.8188 122.586 30.8188 120.15C30.8188 117.728 32.5268 116.202 34.6968 116.202C36.8808 116.202 38.5748 117.728 38.5748 120.15ZM32.1208 120.15C32.1208 122.096 33.3108 123.006 34.6408 123.006C35.9708 123.006 37.2728 122.096 37.2728 120.15C37.2728 118.218 35.9988 117.308 34.6828 117.308C33.3388 117.308 32.1208 118.218 32.1208 120.15ZM40.4879 124V117.378H39.4939V116.328H40.4879V115.782C40.4879 114.074 41.3279 113.304 43.2879 113.304V114.368C42.1399 114.368 41.7619 114.788 41.7619 115.782V116.328H43.3719V117.378H41.7619V124H40.4879ZM45.1373 121.9V117.378H44.1433V116.328H45.1373V114.396H46.4113V116.328H48.4133V117.378H46.4113V121.9C46.4113 122.656 46.6913 122.922 47.4753 122.922H48.4133V124H47.2653C45.9073 124 45.1373 123.44 45.1373 121.9ZM51.4549 124L49.0469 116.328H50.3489L52.1129 122.768L54.0169 116.328H55.3189L57.1809 122.782L58.9169 116.328H60.1769L57.7829 124H56.4669L54.6189 117.91L52.7709 124H51.4549ZM60.9653 120.136C60.9653 117.742 62.5473 116.202 64.6053 116.202C66.0333 116.202 67.0133 116.93 67.4613 117.728V116.328H68.7493V124H67.4613V122.572C66.9993 123.398 66.0053 124.126 64.5913 124.126C62.5473 124.126 60.9653 122.516 60.9653 120.136ZM67.4613 120.15C67.4613 118.372 66.2573 117.308 64.8573 117.308C63.4573 117.308 62.2673 118.33 62.2673 120.136C62.2673 121.942 63.4573 123.006 64.8573 123.006C66.2573 123.006 67.4613 121.956 67.4613 120.15ZM72.1762 119.828V124H70.9022V116.328H72.1762V117.574C72.6102 116.72 73.4362 116.188 74.6542 116.188V117.504H74.3182C73.1002 117.504 72.1762 118.05 72.1762 119.828ZM79.3869 117.28C78.1409 117.28 77.1049 118.106 76.9649 119.604H81.8089C81.8229 118.106 80.7029 117.28 79.3869 117.28ZM82.9709 121.634C82.5789 123.034 81.3469 124.126 79.4429 124.126C77.2589 124.126 75.6489 122.586 75.6489 120.15C75.6489 117.728 77.2029 116.202 79.4429 116.202C81.6689 116.202 83.1249 117.77 83.1249 119.87C83.1249 120.15 83.1109 120.374 83.0829 120.64H76.9509C77.0489 122.194 78.1409 123.048 79.4429 123.048C80.5909 123.048 81.3189 122.46 81.5989 121.634H82.9709ZM94.0549 121.914C94.0549 123.174 92.9489 124.126 91.2549 124.126C89.4629 124.126 88.2029 123.146 88.1189 121.746H89.4349C89.5049 122.488 90.1629 123.048 91.2409 123.048C92.2489 123.048 92.8089 122.544 92.8089 121.914C92.8089 120.206 88.2729 121.2 88.2729 118.344C88.2729 117.168 89.3789 116.202 91.0869 116.202C92.7809 116.202 93.9009 117.112 93.9849 118.61H92.7109C92.6549 117.84 92.0669 117.28 91.0449 117.28C90.1069 117.28 89.5469 117.728 89.5469 118.344C89.5469 120.164 93.9989 119.17 94.0549 121.914ZM96.1334 121.9V117.378H95.1394V116.328H96.1334V114.396H97.4074V116.328H99.4094V117.378H97.4074V121.9C97.4074 122.656 97.6874 122.922 98.4714 122.922H99.4094V124H98.2614C96.9034 124 96.1334 123.44 96.1334 121.9ZM100.477 120.136C100.477 117.742 102.059 116.202 104.117 116.202C105.545 116.202 106.525 116.93 106.973 117.728V116.328H108.261V124H106.973V122.572C106.511 123.398 105.517 124.126 104.103 124.126C102.059 124.126 100.477 122.516 100.477 120.136ZM106.973 120.15C106.973 118.372 105.769 117.308 104.369 117.308C102.969 117.308 101.779 118.33 101.779 120.136C101.779 121.942 102.969 123.006 104.369 123.006C105.769 123.006 106.973 121.956 106.973 120.15ZM111.688 119.828V124H110.414V116.328H111.688V117.574C112.122 116.72 112.948 116.188 114.166 116.188V117.504H113.83C112.612 117.504 111.688 118.05 111.688 119.828ZM115.917 121.9V117.378H114.923V116.328H115.917V114.396H117.191V116.328H119.193V117.378H117.191V121.9C117.191 122.656 117.471 122.922 118.255 122.922H119.193V124H118.045C116.687 124 115.917 123.44 115.917 121.9ZM126.252 121.914C126.252 123.174 125.146 124.126 123.452 124.126C121.66 124.126 120.4 123.146 120.316 121.746H121.632C121.702 122.488 122.36 123.048 123.438 123.048C124.446 123.048 125.006 122.544 125.006 121.914C125.006 120.206 120.47 121.2 120.47 118.344C120.47 117.168 121.576 116.202 123.284 116.202C124.978 116.202 126.098 117.112 126.182 118.61H124.908C124.852 117.84 124.264 117.28 123.242 117.28C122.304 117.28 121.744 117.728 121.744 118.344C121.744 120.164 126.196 119.17 126.252 121.914ZM132.063 121.9V117.378H131.069V116.328H132.063V114.396H133.337V116.328H135.339V117.378H133.337V121.9C133.337 122.656 133.617 122.922 134.401 122.922H135.339V124H134.191C132.833 124 132.063 123.44 132.063 121.9ZM144.163 120.15C144.163 122.586 142.413 124.126 140.229 124.126C138.059 124.126 136.407 122.586 136.407 120.15C136.407 117.728 138.115 116.202 140.285 116.202C142.469 116.202 144.163 117.728 144.163 120.15ZM137.709 120.15C137.709 122.096 138.899 123.006 140.229 123.006C141.559 123.006 142.861 122.096 142.861 120.15C142.861 118.218 141.587 117.308 140.271 117.308C138.927 117.308 137.709 118.218 137.709 120.15ZM149.094 120.15C149.094 117.742 150.648 116.202 152.832 116.202C154.736 116.202 155.982 117.182 156.374 118.792H155.002C154.736 117.868 153.966 117.28 152.832 117.28C151.432 117.28 150.396 118.274 150.396 120.15C150.396 122.054 151.432 123.048 152.832 123.048C153.966 123.048 154.722 122.502 155.002 121.536H156.374C155.982 123.062 154.736 124.126 152.832 124.126C150.648 124.126 149.094 122.586 149.094 120.15ZM165.354 120.15C165.354 122.586 163.604 124.126 161.42 124.126C159.25 124.126 157.598 122.586 157.598 120.15C157.598 117.728 159.306 116.202 161.476 116.202C163.66 116.202 165.354 117.728 165.354 120.15ZM158.9 120.15C158.9 122.096 160.09 123.006 161.42 123.006C162.75 123.006 164.052 122.096 164.052 120.15C164.052 118.218 162.778 117.308 161.462 117.308C160.118 117.308 158.9 118.218 158.9 120.15ZM178.103 124V119.66C178.103 118.092 177.263 117.294 176.003 117.294C174.715 117.294 173.833 118.12 173.833 119.772V124H172.573V119.66C172.573 118.092 171.733 117.294 170.473 117.294C169.185 117.294 168.303 118.12 168.303 119.772V124H167.029V116.328H168.303V117.434C168.807 116.622 169.717 116.188 170.725 116.188C171.985 116.188 173.035 116.748 173.539 117.896C173.987 116.79 175.079 116.188 176.255 116.188C178.005 116.188 179.363 117.28 179.363 119.478V124H178.103ZM184.715 117.28C183.469 117.28 182.433 118.106 182.293 119.604H187.137C187.151 118.106 186.031 117.28 184.715 117.28ZM188.299 121.634C187.907 123.034 186.675 124.126 184.771 124.126C182.587 124.126 180.977 122.586 180.977 120.15C180.977 117.728 182.531 116.202 184.771 116.202C186.997 116.202 188.453 117.77 188.453 119.87C188.453 120.15 188.439 120.374 188.411 120.64H182.279C182.377 122.194 183.469 123.048 184.771 123.048C185.919 123.048 186.647 122.46 186.927 121.634H188.299ZM194.147 121.9V117.378H193.153V116.328H194.147V114.396H195.421V116.328H197.423V117.378H195.421V121.9C195.421 122.656 195.701 122.922 196.485 122.922H197.423V124H196.275C194.917 124 194.147 123.44 194.147 121.9ZM206.247 120.15C206.247 122.586 204.497 124.126 202.313 124.126C200.143 124.126 198.491 122.586 198.491 120.15C198.491 117.728 200.199 116.202 202.369 116.202C204.553 116.202 206.247 117.728 206.247 120.15ZM199.793 120.15C199.793 122.096 200.983 123.006 202.313 123.006C203.643 123.006 204.945 122.096 204.945 120.15C204.945 118.218 203.671 117.308 202.355 117.308C201.011 117.308 199.793 118.218 199.793 120.15ZM211.654 124V113.64H212.928V124H211.654ZM215.099 124V116.328H216.373V124H215.099ZM215.757 115.082C215.267 115.082 214.889 114.704 214.889 114.214C214.889 113.724 215.267 113.346 215.757 113.346C216.219 113.346 216.597 113.724 216.597 114.214C216.597 114.704 216.219 115.082 215.757 115.082ZM218.783 124V117.378H217.789V116.328H218.783V115.782C218.783 114.074 219.623 113.304 221.583 113.304V114.368C220.435 114.368 220.057 114.788 220.057 115.782V116.328H221.667V117.378H220.057V124H218.783ZM226.414 117.28C225.168 117.28 224.132 118.106 223.992 119.604H228.836C228.85 118.106 227.73 117.28 226.414 117.28ZM229.998 121.634C229.606 123.034 228.374 124.126 226.47 124.126C224.286 124.126 222.676 122.586 222.676 120.15C222.676 117.728 224.23 116.202 226.47 116.202C228.696 116.202 230.152 117.77 230.152 119.87C230.152 120.15 230.138 120.374 230.11 120.64H223.978C224.076 122.194 225.168 123.048 226.47 123.048C227.618 123.048 228.346 122.46 228.626 121.634H229.998ZM28.594 141.914C28.594 143.174 27.488 144.126 25.794 144.126C24.002 144.126 22.742 143.146 22.658 141.746H23.974C24.044 142.488 24.702 143.048 25.78 143.048C26.788 143.048 27.348 142.544 27.348 141.914C27.348 140.206 22.812 141.2 22.812 138.344C22.812 137.168 23.918 136.202 25.626 136.202C27.32 136.202 28.44 137.112 28.524 138.61H27.25C27.194 137.84 26.606 137.28 25.584 137.28C24.646 137.28 24.086 137.728 24.086 138.344C24.086 140.164 28.538 139.17 28.594 141.914ZM30.6725 141.9V137.378H29.6785V136.328H30.6725V134.396H31.9465V136.328H33.9485V137.378H31.9465V141.9C31.9465 142.656 32.2265 142.922 33.0105 142.922H33.9485V144H32.8005C31.4425 144 30.6725 143.44 30.6725 141.9ZM35.0161 140.136C35.0161 137.742 36.5981 136.202 38.6561 136.202C40.0841 136.202 41.0641 136.93 41.5121 137.728V136.328H42.8001V144H41.5121V142.572C41.0501 143.398 40.0561 144.126 38.6421 144.126C36.5981 144.126 35.0161 142.516 35.0161 140.136ZM41.5121 140.15C41.5121 138.372 40.3081 137.308 38.9081 137.308C37.5081 137.308 36.3181 138.33 36.3181 140.136C36.3181 141.942 37.5081 143.006 38.9081 143.006C40.3081 143.006 41.5121 141.956 41.5121 140.15ZM44.477 140.136C44.477 137.742 46.059 136.202 48.117 136.202C49.517 136.202 50.525 136.902 50.973 137.728V136.328H52.261V144.168C52.261 146.282 50.847 147.78 48.593 147.78C46.577 147.78 45.135 146.758 44.883 145.12H46.143C46.423 146.044 47.333 146.674 48.593 146.674C49.951 146.674 50.973 145.806 50.973 144.168V142.558C50.511 143.384 49.517 144.126 48.117 144.126C46.059 144.126 44.477 142.516 44.477 140.136ZM50.973 140.15C50.973 138.372 49.769 137.308 48.369 137.308C46.969 137.308 45.779 138.33 45.779 140.136C45.779 141.942 46.969 143.006 48.369 143.006C49.769 143.006 50.973 141.956 50.973 140.15ZM57.6759 137.28C56.4299 137.28 55.3939 138.106 55.2539 139.604H60.0979C60.1119 138.106 58.9919 137.28 57.6759 137.28ZM61.2599 141.634C60.8679 143.034 59.6359 144.126 57.7319 144.126C55.5479 144.126 53.9379 142.586 53.9379 140.15C53.9379 137.728 55.4919 136.202 57.7319 136.202C59.9579 136.202 61.4139 137.77 61.4139 139.87C61.4139 140.15 61.3999 140.374 61.3719 140.64H55.2399C55.3379 142.194 56.4299 143.048 57.7319 143.048C58.8799 143.048 59.6079 142.46 59.8879 141.634H61.2599ZM63.5296 141.242L63.3756 134.242H64.7476L64.5936 141.242H63.5296ZM64.9576 143.216C64.9576 143.706 64.5796 144.084 64.1176 144.084C63.6276 144.084 63.2496 143.706 63.2496 143.216C63.2496 142.726 63.6276 142.348 64.1176 142.348C64.5796 142.348 64.9576 142.726 64.9576 143.216ZM70.9979 144V134.242H72.2719V144H70.9979ZM74.7232 141.9V137.378H73.7292V136.328H74.7232V134.396H75.9972V136.328H77.9992V137.378H75.9972V141.9C75.9972 142.656 76.2772 142.922 77.0612 142.922H77.9992V144H76.8512C75.4932 144 74.7232 143.44 74.7232 141.9ZM83.2753 144V136.328H84.5493V144H83.2753ZM83.9333 135.082C83.4433 135.082 83.0653 134.704 83.0653 134.214C83.0653 133.724 83.4433 133.346 83.9333 133.346C84.3953 133.346 84.7733 133.724 84.7733 134.214C84.7733 134.704 84.3953 135.082 83.9333 135.082ZM92.3346 144V139.66C92.3346 138.092 91.4806 137.294 90.1926 137.294C88.8906 137.294 87.9946 138.106 87.9946 139.758V144H86.7206V136.328H87.9946V137.42C88.4986 136.622 89.4226 136.188 90.4586 136.188C92.2366 136.188 93.5946 137.28 93.5946 139.478V144H92.3346ZM95.1997 140.15C95.1997 137.742 96.7537 136.202 98.9377 136.202C100.842 136.202 102.088 137.182 102.48 138.792H101.108C100.842 137.868 100.072 137.28 98.9377 137.28C97.5377 137.28 96.5017 138.274 96.5017 140.15C96.5017 142.054 97.5377 143.048 98.9377 143.048C100.072 143.048 100.828 142.502 101.108 141.536H102.48C102.088 143.062 100.842 144.126 98.9377 144.126C96.7537 144.126 95.1997 142.586 95.1997 140.15ZM104.18 144V133.64H105.454V144H104.18ZM114.429 136.328V144H113.155V142.866C112.665 143.664 111.727 144.112 110.705 144.112C108.941 144.112 107.555 143.02 107.555 140.822V136.328H108.815V140.654C108.815 142.208 109.669 143.006 110.957 143.006C112.273 143.006 113.155 142.194 113.155 140.542V136.328H114.429ZM116.104 140.136C116.104 137.742 117.686 136.202 119.758 136.202C120.962 136.202 122.068 136.818 122.6 137.7V133.64H123.888V144H122.6V142.558C122.138 143.412 121.144 144.126 119.744 144.126C117.686 144.126 116.104 142.516 116.104 140.136ZM122.6 140.15C122.6 138.372 121.396 137.308 119.996 137.308C118.596 137.308 117.406 138.33 117.406 140.136C117.406 141.942 118.596 143.006 119.996 143.006C121.396 143.006 122.6 141.956 122.6 140.15ZM129.303 137.28C128.057 137.28 127.021 138.106 126.881 139.604H131.725C131.739 138.106 130.619 137.28 129.303 137.28ZM132.887 141.634C132.495 143.034 131.263 144.126 129.359 144.126C127.175 144.126 125.565 142.586 125.565 140.15C125.565 137.728 127.119 136.202 129.359 136.202C131.585 136.202 133.041 137.77 133.041 139.87C133.041 140.15 133.027 140.374 132.999 140.64H126.867C126.965 142.194 128.057 143.048 129.359 143.048C130.507 143.048 131.235 142.46 131.515 141.634H132.887ZM140.239 141.914C140.239 143.174 139.133 144.126 137.439 144.126C135.647 144.126 134.387 143.146 134.303 141.746H135.619C135.689 142.488 136.347 143.048 137.425 143.048C138.433 143.048 138.993 142.544 138.993 141.914C138.993 140.206 134.457 141.2 134.457 138.344C134.457 137.168 135.563 136.202 137.271 136.202C138.965 136.202 140.085 137.112 140.169 138.61H138.895C138.839 137.84 138.251 137.28 137.229 137.28C136.291 137.28 135.731 137.728 135.731 138.344C135.731 140.164 140.183 139.17 140.239 141.914ZM146.007 144V137.378H145.013V136.328H146.007V135.782C146.007 134.074 146.847 133.304 148.807 133.304V134.368C147.659 134.368 147.281 134.788 147.281 135.782V136.328H148.891V137.378H147.281V144H146.007ZM150.377 144V133.64H151.651V144H150.377ZM161.102 140.15C161.102 142.586 159.352 144.126 157.168 144.126C154.998 144.126 153.346 142.586 153.346 140.15C153.346 137.728 155.054 136.202 157.224 136.202C159.408 136.202 161.102 137.728 161.102 140.15ZM154.648 140.15C154.648 142.096 155.838 143.006 157.168 143.006C158.498 143.006 159.8 142.096 159.8 140.15C159.8 138.218 158.526 137.308 157.21 137.308C155.866 137.308 154.648 138.218 154.648 140.15ZM164.275 144L161.867 136.328H163.169L164.933 142.768L166.837 136.328H168.139L170.001 142.782L171.737 136.328H172.997L170.603 144H169.287L167.439 137.91L165.591 144H164.275ZM173.786 140.15C173.786 137.742 175.34 136.202 177.524 136.202C179.428 136.202 180.674 137.182 181.066 138.792H179.694C179.428 137.868 178.658 137.28 177.524 137.28C176.124 137.28 175.088 138.274 175.088 140.15C175.088 142.054 176.124 143.048 177.524 143.048C178.658 143.048 179.414 142.502 179.694 141.536H181.066C180.674 143.062 179.428 144.126 177.524 144.126C175.34 144.126 173.786 142.586 173.786 140.15ZM182.766 144V133.64H184.04V137.434C184.544 136.622 185.496 136.188 186.574 136.188C188.282 136.188 189.64 137.28 189.64 139.478V144H188.38V139.66C188.38 138.092 187.526 137.294 186.238 137.294C184.936 137.294 184.04 138.106 184.04 139.758V144H182.766ZM191.245 140.136C191.245 137.742 192.827 136.202 194.885 136.202C196.313 136.202 197.293 136.93 197.741 137.728V136.328H199.029V144H197.741V142.572C197.279 143.398 196.285 144.126 194.871 144.126C192.827 144.126 191.245 142.516 191.245 140.136ZM197.741 140.15C197.741 138.372 196.537 137.308 195.137 137.308C193.737 137.308 192.547 138.33 192.547 140.136C192.547 141.942 193.737 143.006 195.137 143.006C196.537 143.006 197.741 141.956 197.741 140.15ZM202.456 139.828V144H201.182V136.328H202.456V137.574C202.89 136.72 203.716 136.188 204.934 136.188V137.504H204.598C203.38 137.504 202.456 138.05 202.456 139.828ZM206.684 141.9V137.378H205.69V136.328H206.684V134.396H207.958V136.328H209.96V137.378H207.958V141.9C207.958 142.656 208.238 142.922 209.022 142.922H209.96V144H208.812C207.454 144 206.684 143.44 206.684 141.9ZM217.02 141.914C217.02 143.174 215.914 144.126 214.22 144.126C212.428 144.126 211.168 143.146 211.084 141.746H212.4C212.47 142.488 213.128 143.048 214.206 143.048C215.214 143.048 215.774 142.544 215.774 141.914C215.774 140.206 211.238 141.2 211.238 138.344C211.238 137.168 212.344 136.202 214.052 136.202C215.746 136.202 216.866 137.112 216.95 138.61H215.676C215.62 137.84 215.032 137.28 214.01 137.28C213.072 137.28 212.512 137.728 212.512 138.344C212.512 140.164 216.964 139.17 217.02 141.914ZM217.712 146.002L218.734 142.236H220.134L218.566 146.002H217.712ZM22.602 160.136C22.602 157.742 24.184 156.202 26.242 156.202C27.67 156.202 28.65 156.93 29.098 157.728V156.328H30.386V164H29.098V162.572C28.636 163.398 27.642 164.126 26.228 164.126C24.184 164.126 22.602 162.516 22.602 160.136ZM29.098 160.15C29.098 158.372 27.894 157.308 26.494 157.308C25.094 157.308 23.904 158.33 23.904 160.136C23.904 161.942 25.094 163.006 26.494 163.006C27.894 163.006 29.098 161.956 29.098 160.15ZM38.1529 164V159.66C38.1529 158.092 37.2989 157.294 36.0109 157.294C34.7089 157.294 33.8129 158.106 33.8129 159.758V164H32.5389V156.328H33.8129V157.42C34.3169 156.622 35.2409 156.188 36.2769 156.188C38.0549 156.188 39.4129 157.28 39.4129 159.478V164H38.1529ZM41.018 160.136C41.018 157.742 42.6 156.202 44.672 156.202C45.876 156.202 46.982 156.818 47.514 157.7V153.64H48.802V164H47.514V162.558C47.052 163.412 46.058 164.126 44.658 164.126C42.6 164.126 41.018 162.516 41.018 160.136ZM47.514 160.15C47.514 158.372 46.31 157.308 44.91 157.308C43.51 157.308 42.32 158.33 42.32 160.136C42.32 161.942 43.51 163.006 44.91 163.006C46.31 163.006 47.514 161.956 47.514 160.15ZM61.4914 156.328V164H60.2174V162.866C59.7274 163.664 58.7894 164.112 57.7674 164.112C56.0034 164.112 54.6174 163.02 54.6174 160.822V156.328H55.8774V160.654C55.8774 162.208 56.7314 163.006 58.0194 163.006C59.3354 163.006 60.2174 162.194 60.2174 160.542V156.328H61.4914ZM69.1585 161.914C69.1585 163.174 68.0525 164.126 66.3585 164.126C64.5665 164.126 63.3065 163.146 63.2225 161.746H64.5385C64.6085 162.488 65.2665 163.048 66.3445 163.048C67.3525 163.048 67.9125 162.544 67.9125 161.914C67.9125 160.206 63.3765 161.2 63.3765 158.344C63.3765 157.168 64.4825 156.202 66.1905 156.202C67.8845 156.202 69.0045 157.112 69.0885 158.61H67.8145C67.7585 157.84 67.1705 157.28 66.1485 157.28C65.2105 157.28 64.6505 157.728 64.6505 158.344C64.6505 160.164 69.1025 159.17 69.1585 161.914ZM74.2189 157.28C72.9729 157.28 71.9369 158.106 71.7969 159.604H76.6409C76.6549 158.106 75.5349 157.28 74.2189 157.28ZM77.8029 161.634C77.4109 163.034 76.1789 164.126 74.2749 164.126C72.0909 164.126 70.4809 162.586 70.4809 160.15C70.4809 157.728 72.0349 156.202 74.2749 156.202C76.5009 156.202 77.9569 157.77 77.9569 159.87C77.9569 160.15 77.9429 160.374 77.9149 160.64H71.7829C71.8809 162.194 72.9729 163.048 74.2749 163.048C75.4229 163.048 76.1509 162.46 76.4309 161.634H77.8029ZM80.9125 159.828V164H79.6385V156.328H80.9125V157.574C81.3465 156.72 82.1725 156.188 83.3905 156.188V157.504H83.0545C81.8365 157.504 80.9125 158.05 80.9125 159.828ZM89.2796 155.082C88.8036 155.082 88.4256 154.704 88.4256 154.214C88.4256 153.724 88.8036 153.346 89.2796 153.346C89.7556 153.346 90.1336 153.724 90.1336 154.214C90.1336 154.704 89.7556 155.082 89.2796 155.082ZM88.6356 156.328H89.9096V165.666C89.9096 167.052 89.1816 167.64 87.8796 167.64H87.1376V166.562H87.6696C88.3696 166.562 88.6356 166.31 88.6356 165.638V156.328ZM99.3463 160.15C99.3463 162.586 97.5963 164.126 95.4123 164.126C93.2423 164.126 91.5903 162.586 91.5903 160.15C91.5903 157.728 93.2983 156.202 95.4683 156.202C97.6523 156.202 99.3463 157.728 99.3463 160.15ZM92.8923 160.15C92.8923 162.096 94.0823 163.006 95.4123 163.006C96.7423 163.006 98.0443 162.096 98.0443 160.15C98.0443 158.218 96.7703 157.308 95.4543 157.308C94.1103 157.308 92.8923 158.218 92.8923 160.15ZM107.825 156.328V164H106.551V162.866C106.061 163.664 105.123 164.112 104.101 164.112C102.337 164.112 100.951 163.02 100.951 160.822V156.328H102.211V160.654C102.211 162.208 103.065 163.006 104.353 163.006C105.669 163.006 106.551 162.194 106.551 160.542V156.328H107.825ZM111.25 159.828V164H109.976V156.328H111.25V157.574C111.684 156.72 112.51 156.188 113.728 156.188V157.504H113.392C112.174 157.504 111.25 158.05 111.25 159.828ZM120.813 164V159.66C120.813 158.092 119.959 157.294 118.671 157.294C117.369 157.294 116.473 158.106 116.473 159.758V164H115.199V156.328H116.473V157.42C116.977 156.622 117.901 156.188 118.937 156.188C120.715 156.188 122.073 157.28 122.073 159.478V164H120.813ZM127.416 157.28C126.17 157.28 125.134 158.106 124.994 159.604H129.838C129.852 158.106 128.732 157.28 127.416 157.28ZM131 161.634C130.608 163.034 129.376 164.126 127.472 164.126C125.288 164.126 123.678 162.586 123.678 160.15C123.678 157.728 125.232 156.202 127.472 156.202C129.698 156.202 131.154 157.77 131.154 159.87C131.154 160.15 131.14 160.374 131.112 160.64H124.98C125.078 162.194 126.17 163.048 127.472 163.048C128.62 163.048 129.348 162.46 129.628 161.634H131ZM135.748 162.544L138.128 156.328H139.444L134.824 167.612H133.508L135.02 163.916L131.926 156.328H133.34L135.748 162.544ZM155.531 164V159.66C155.531 158.092 154.691 157.294 153.431 157.294C152.143 157.294 151.261 158.12 151.261 159.772V164H150.001V159.66C150.001 158.092 149.161 157.294 147.901 157.294C146.613 157.294 145.731 158.12 145.731 159.772V164H144.457V156.328H145.731V157.434C146.235 156.622 147.145 156.188 148.153 156.188C149.413 156.188 150.463 156.748 150.967 157.896C151.415 156.79 152.507 156.188 153.683 156.188C155.433 156.188 156.791 157.28 156.791 159.478V164H155.531ZM158.405 160.136C158.405 157.742 159.987 156.202 162.045 156.202C163.473 156.202 164.453 156.93 164.901 157.728V156.328H166.189V164H164.901V162.572C164.439 163.398 163.445 164.126 162.031 164.126C159.987 164.126 158.405 162.516 158.405 160.136ZM164.901 160.15C164.901 158.372 163.697 157.308 162.297 157.308C160.897 157.308 159.707 158.33 159.707 160.136C159.707 161.942 160.897 163.006 162.297 163.006C163.697 163.006 164.901 161.956 164.901 160.15ZM169.616 157.742C170.078 156.93 171.086 156.202 172.486 156.202C174.544 156.202 176.126 157.742 176.126 160.136C176.126 162.516 174.544 164.126 172.486 164.126C171.086 164.126 170.092 163.37 169.616 162.586V167.64H168.342V156.328H169.616V157.742ZM174.824 160.136C174.824 158.33 173.634 157.308 172.22 157.308C170.834 157.308 169.616 158.372 169.616 160.15C169.616 161.956 170.834 163.006 172.22 163.006C173.634 163.006 174.824 161.942 174.824 160.136ZM179.077 157.742C179.539 156.93 180.547 156.202 181.947 156.202C184.005 156.202 185.587 157.742 185.587 160.136C185.587 162.516 184.005 164.126 181.947 164.126C180.547 164.126 179.553 163.37 179.077 162.586V167.64H177.803V156.328H179.077V157.742ZM184.285 160.136C184.285 158.33 183.095 157.308 181.681 157.308C180.295 157.308 179.077 158.372 179.077 160.15C179.077 161.956 180.295 163.006 181.681 163.006C183.095 163.006 184.285 161.942 184.285 160.136ZM187.264 164V156.328H188.538V164H187.264ZM187.922 155.082C187.432 155.082 187.054 154.704 187.054 154.214C187.054 153.724 187.432 153.346 187.922 153.346C188.384 153.346 188.762 153.724 188.762 154.214C188.762 154.704 188.384 155.082 187.922 155.082ZM196.323 164V159.66C196.323 158.092 195.469 157.294 194.181 157.294C192.879 157.294 191.983 158.106 191.983 159.758V164H190.709V156.328H191.983V157.42C192.487 156.622 193.411 156.188 194.447 156.188C196.225 156.188 197.583 157.28 197.583 159.478V164H196.323ZM199.188 160.136C199.188 157.742 200.77 156.202 202.828 156.202C204.228 156.202 205.236 156.902 205.684 157.728V156.328H206.972V164.168C206.972 166.282 205.558 167.78 203.304 167.78C201.288 167.78 199.846 166.758 199.594 165.12H200.854C201.134 166.044 202.044 166.674 203.304 166.674C204.662 166.674 205.684 165.806 205.684 164.168V162.558C205.222 163.384 204.228 164.126 202.828 164.126C200.77 164.126 199.188 162.516 199.188 160.136ZM205.684 160.15C205.684 158.372 204.48 157.308 203.08 157.308C201.68 157.308 200.49 158.33 200.49 160.136C200.49 161.942 201.68 163.006 203.08 163.006C204.48 163.006 205.684 161.956 205.684 160.15ZM208.019 166.002L209.041 162.236H210.441L208.873 166.002H208.019ZM215.157 160.136C215.157 157.742 216.739 156.202 218.797 156.202C220.225 156.202 221.205 156.93 221.653 157.728V156.328H222.941V164H221.653V162.572C221.191 163.398 220.197 164.126 218.783 164.126C216.739 164.126 215.157 162.516 215.157 160.136ZM221.653 160.15C221.653 158.372 220.449 157.308 219.049 157.308C217.649 157.308 216.459 158.33 216.459 160.136C216.459 161.942 217.649 163.006 219.049 163.006C220.449 163.006 221.653 161.956 221.653 160.15ZM230.708 164V159.66C230.708 158.092 229.854 157.294 228.566 157.294C227.264 157.294 226.368 158.106 226.368 159.758V164H225.094V156.328H226.368V157.42C226.872 156.622 227.796 156.188 228.832 156.188C230.61 156.188 231.968 157.28 231.968 159.478V164H230.708ZM233.573 160.136C233.573 157.742 235.155 156.202 237.227 156.202C238.431 156.202 239.537 156.818 240.069 157.7V153.64H241.357V164H240.069V162.558C239.607 163.412 238.613 164.126 237.213 164.126C235.155 164.126 233.573 162.516 233.573 160.136ZM240.069 160.15C240.069 158.372 238.865 157.308 237.465 157.308C236.065 157.308 234.875 158.33 234.875 160.136C234.875 161.942 236.065 163.006 237.465 163.006C238.865 163.006 240.069 161.956 240.069 160.15ZM23.358 181.9V177.378H22.364V176.328H23.358V174.396H24.632V176.328H26.634V177.378H24.632V181.9C24.632 182.656 24.912 182.922 25.696 182.922H26.634V184H25.486C24.128 184 23.358 183.44 23.358 181.9ZM28.1776 184V173.64H29.4516V177.434C29.9556 176.622 30.9076 176.188 31.9856 176.188C33.6936 176.188 35.0516 177.28 35.0516 179.478V184H33.7916V179.66C33.7916 178.092 32.9376 177.294 31.6496 177.294C30.3476 177.294 29.4516 178.106 29.4516 179.758V184H28.1776ZM40.3947 177.28C39.1487 177.28 38.1127 178.106 37.9727 179.604H42.8167C42.8307 178.106 41.7107 177.28 40.3947 177.28ZM43.9787 181.634C43.5867 183.034 42.3547 184.126 40.4507 184.126C38.2667 184.126 36.6567 182.586 36.6567 180.15C36.6567 177.728 38.2107 176.202 40.4507 176.202C42.6767 176.202 44.1327 177.77 44.1327 179.87C44.1327 180.15 44.1187 180.374 44.0907 180.64H37.9587C38.0567 182.194 39.1487 183.048 40.4507 183.048C41.5987 183.048 42.3267 182.46 42.6067 181.634H43.9787ZM51.4283 184V179.66C51.4283 178.092 50.5743 177.294 49.2863 177.294C47.9843 177.294 47.0883 178.106 47.0883 179.758V184H45.8143V176.328H47.0883V177.42C47.5923 176.622 48.5163 176.188 49.5523 176.188C51.3303 176.188 52.6883 177.28 52.6883 179.478V184H51.4283ZM59.9998 184L57.5918 176.328H58.8938L60.6578 182.768L62.5618 176.328H63.8638L65.7258 182.782L67.4618 176.328H68.7218L66.3278 184H65.0118L63.1638 177.91L61.3158 184H59.9998ZM73.2482 177.28C72.0022 177.28 70.9662 178.106 70.8262 179.604H75.6702C75.6842 178.106 74.5642 177.28 73.2482 177.28ZM76.8322 181.634C76.4402 183.034 75.2082 184.126 73.3042 184.126C71.1202 184.126 69.5102 182.586 69.5102 180.15C69.5102 177.728 71.0642 176.202 73.3042 176.202C75.5302 176.202 76.9862 177.77 76.9862 179.87C76.9862 180.15 76.9722 180.374 76.9442 180.64H70.8122C70.9102 182.194 72.0022 183.048 73.3042 183.048C74.4522 183.048 75.1802 182.46 75.4602 181.634H76.8322ZM83.6743 177.756C84.1643 176.902 85.1863 176.202 86.5443 176.202C88.6163 176.202 90.1843 177.742 90.1843 180.136C90.1843 182.516 88.6023 184.126 86.5443 184.126C85.1443 184.126 84.1503 183.426 83.6743 182.586V184H82.4003V173.64H83.6743V177.756ZM88.8823 180.136C88.8823 178.33 87.6923 177.308 86.2783 177.308C84.8923 177.308 83.6743 178.372 83.6743 180.15C83.6743 181.956 84.8923 183.006 86.2783 183.006C87.6923 183.006 88.8823 181.942 88.8823 180.136ZM95.1232 177.28C93.8772 177.28 92.8412 178.106 92.7012 179.604H97.5452C97.5592 178.106 96.4392 177.28 95.1232 177.28ZM98.7072 181.634C98.3152 183.034 97.0832 184.126 95.1792 184.126C92.9952 184.126 91.3852 182.586 91.3852 180.15C91.3852 177.728 92.9392 176.202 95.1792 176.202C97.4052 176.202 98.8612 177.77 98.8612 179.87C98.8612 180.15 98.8472 180.374 98.8192 180.64H92.6872C92.7852 182.194 93.8772 183.048 95.1792 183.048C96.3272 183.048 97.0552 182.46 97.3352 181.634H98.7072ZM100.067 180.136C100.067 177.742 101.649 176.202 103.707 176.202C105.107 176.202 106.115 176.902 106.563 177.728V176.328H107.851V184.168C107.851 186.282 106.437 187.78 104.183 187.78C102.167 187.78 100.725 186.758 100.473 185.12H101.733C102.013 186.044 102.923 186.674 104.183 186.674C105.541 186.674 106.563 185.806 106.563 184.168V182.558C106.101 183.384 105.107 184.126 103.707 184.126C101.649 184.126 100.067 182.516 100.067 180.136ZM106.563 180.15C106.563 178.372 105.359 177.308 103.959 177.308C102.559 177.308 101.369 178.33 101.369 180.136C101.369 181.942 102.559 183.006 103.959 183.006C105.359 183.006 106.563 181.956 106.563 180.15ZM110.004 184V176.328H111.278V184H110.004ZM110.662 175.082C110.172 175.082 109.794 174.704 109.794 174.214C109.794 173.724 110.172 173.346 110.662 173.346C111.124 173.346 111.502 173.724 111.502 174.214C111.502 174.704 111.124 175.082 110.662 175.082ZM119.063 184V179.66C119.063 178.092 118.209 177.294 116.921 177.294C115.619 177.294 114.723 178.106 114.723 179.758V184H113.449V176.328H114.723V177.42C115.227 176.622 116.151 176.188 117.187 176.188C118.965 176.188 120.323 177.28 120.323 179.478V184H119.063ZM125.661 180.136C125.661 177.742 127.243 176.202 129.315 176.202C130.519 176.202 131.625 176.818 132.157 177.7V173.64H133.445V184H132.157V182.558C131.695 183.412 130.701 184.126 129.301 184.126C127.243 184.126 125.661 182.516 125.661 180.136ZM132.157 180.15C132.157 178.372 130.953 177.308 129.553 177.308C128.153 177.308 126.963 178.33 126.963 180.136C126.963 181.942 128.153 183.006 129.553 183.006C130.953 183.006 132.157 181.956 132.157 180.15ZM138.86 177.28C137.614 177.28 136.578 178.106 136.438 179.604H141.282C141.296 178.106 140.176 177.28 138.86 177.28ZM142.444 181.634C142.052 183.034 140.82 184.126 138.916 184.126C136.732 184.126 135.122 182.586 135.122 180.15C135.122 177.728 136.676 176.202 138.916 176.202C141.142 176.202 142.598 177.77 142.598 179.87C142.598 180.15 142.584 180.374 142.556 180.64H136.424C136.522 182.194 137.614 183.048 138.916 183.048C140.064 183.048 140.792 182.46 141.072 181.634H142.444ZM149.795 181.914C149.795 183.174 148.689 184.126 146.995 184.126C145.203 184.126 143.943 183.146 143.859 181.746H145.175C145.245 182.488 145.903 183.048 146.981 183.048C147.989 183.048 148.549 182.544 148.549 181.914C148.549 180.206 144.013 181.2 144.013 178.344C144.013 177.168 145.119 176.202 146.827 176.202C148.521 176.202 149.641 177.112 149.725 178.61H148.451C148.395 177.84 147.807 177.28 146.785 177.28C145.847 177.28 145.287 177.728 145.287 178.344C145.287 180.164 149.739 179.17 149.795 181.914ZM151.594 184V176.328H152.868V184H151.594ZM152.252 175.082C151.762 175.082 151.384 174.704 151.384 174.214C151.384 173.724 151.762 173.346 152.252 173.346C152.714 173.346 153.092 173.724 153.092 174.214C153.092 174.704 152.714 175.082 152.252 175.082ZM154.563 180.136C154.563 177.742 156.145 176.202 158.203 176.202C159.603 176.202 160.611 176.902 161.059 177.728V176.328H162.347V184.168C162.347 186.282 160.933 187.78 158.679 187.78C156.663 187.78 155.221 186.758 154.969 185.12H156.229C156.509 186.044 157.419 186.674 158.679 186.674C160.037 186.674 161.059 185.806 161.059 184.168V182.558C160.597 183.384 159.603 184.126 158.203 184.126C156.145 184.126 154.563 182.516 154.563 180.136ZM161.059 180.15C161.059 178.372 159.855 177.308 158.455 177.308C157.055 177.308 155.865 178.33 155.865 180.136C155.865 181.942 157.055 183.006 158.455 183.006C159.855 183.006 161.059 181.956 161.059 180.15ZM170.114 184V179.66C170.114 178.092 169.26 177.294 167.972 177.294C166.67 177.294 165.774 178.106 165.774 179.758V184H164.5V176.328H165.774V177.42C166.278 176.622 167.202 176.188 168.238 176.188C170.016 176.188 171.374 177.28 171.374 179.478V184H170.114ZM173.455 184V176.328H174.729V184H173.455ZM174.113 175.082C173.623 175.082 173.245 174.704 173.245 174.214C173.245 173.724 173.623 173.346 174.113 173.346C174.575 173.346 174.953 173.724 174.953 174.214C174.953 174.704 174.575 175.082 174.113 175.082ZM182.514 184V179.66C182.514 178.092 181.66 177.294 180.372 177.294C179.07 177.294 178.174 178.106 178.174 179.758V184H176.9V176.328H178.174V177.42C178.678 176.622 179.602 176.188 180.638 176.188C182.416 176.188 183.774 177.28 183.774 179.478V184H182.514ZM185.379 180.136C185.379 177.742 186.961 176.202 189.019 176.202C190.419 176.202 191.427 176.902 191.875 177.728V176.328H193.163V184.168C193.163 186.282 191.749 187.78 189.495 187.78C187.479 187.78 186.037 186.758 185.785 185.12H187.045C187.325 186.044 188.235 186.674 189.495 186.674C190.853 186.674 191.875 185.806 191.875 184.168V182.558C191.413 183.384 190.419 184.126 189.019 184.126C186.961 184.126 185.379 182.516 185.379 180.136ZM191.875 180.15C191.875 178.372 190.671 177.308 189.271 177.308C187.871 177.308 186.681 178.33 186.681 180.136C186.681 181.942 187.871 183.006 189.271 183.006C190.671 183.006 191.875 181.956 191.875 180.15ZM199.329 181.9V177.378H198.335V176.328H199.329V174.396H200.603V176.328H202.605V177.378H200.603V181.9C200.603 182.656 200.883 182.922 201.667 182.922H202.605V184H201.457C200.099 184 199.329 183.44 199.329 181.9ZM204.148 184V173.64H205.422V177.434C205.926 176.622 206.878 176.188 207.956 176.188C209.664 176.188 211.022 177.28 211.022 179.478V184H209.762V179.66C209.762 178.092 208.908 177.294 207.62 177.294C206.318 177.294 205.422 178.106 205.422 179.758V184H204.148ZM216.365 177.28C215.119 177.28 214.083 178.106 213.943 179.604H218.787C218.801 178.106 217.681 177.28 216.365 177.28ZM219.949 181.634C219.557 183.034 218.325 184.126 216.421 184.126C214.237 184.126 212.627 182.586 212.627 180.15C212.627 177.728 214.181 176.202 216.421 176.202C218.647 176.202 220.103 177.77 220.103 179.87C220.103 180.15 220.089 180.374 220.061 180.64H213.929C214.027 182.194 215.119 183.048 216.421 183.048C217.569 183.048 218.297 182.46 218.577 181.634H219.949ZM28.594 201.914C28.594 203.174 27.488 204.126 25.794 204.126C24.002 204.126 22.742 203.146 22.658 201.746H23.974C24.044 202.488 24.702 203.048 25.78 203.048C26.788 203.048 27.348 202.544 27.348 201.914C27.348 200.206 22.812 201.2 22.812 198.344C22.812 197.168 23.918 196.202 25.626 196.202C27.32 196.202 28.44 197.112 28.524 198.61H27.25C27.194 197.84 26.606 197.28 25.584 197.28C24.646 197.28 24.086 197.728 24.086 198.344C24.086 200.164 28.538 199.17 28.594 201.914ZM37.6725 200.15C37.6725 202.586 35.9225 204.126 33.7385 204.126C31.5685 204.126 29.9165 202.586 29.9165 200.15C29.9165 197.728 31.6245 196.202 33.7945 196.202C35.9785 196.202 37.6725 197.728 37.6725 200.15ZM31.2185 200.15C31.2185 202.096 32.4085 203.006 33.7385 203.006C35.0685 203.006 36.3705 202.096 36.3705 200.15C36.3705 198.218 35.0965 197.308 33.7805 197.308C32.4365 197.308 31.2185 198.218 31.2185 200.15ZM39.5855 204V197.378H38.5915V196.328H39.5855V195.782C39.5855 194.074 40.4255 193.304 42.3855 193.304V194.368C41.2375 194.368 40.8595 194.788 40.8595 195.782V196.328H42.4695V197.378H40.8595V204H39.5855ZM44.235 201.9V197.378H43.241V196.328H44.235V194.396H45.509V196.328H47.511V197.378H45.509V201.9C45.509 202.656 45.789 202.922 46.573 202.922H47.511V204H46.363C45.005 204 44.235 203.44 44.235 201.9ZM50.5526 204L48.1446 196.328H49.4466L51.2106 202.768L53.1146 196.328H54.4166L56.2786 202.782L58.0146 196.328H59.2746L56.8806 204H55.5646L53.7166 197.91L51.8686 204H50.5526ZM60.0629 200.136C60.0629 197.742 61.6449 196.202 63.7029 196.202C65.1309 196.202 66.1109 196.93 66.5589 197.728V196.328H67.8469V204H66.5589V202.572C66.0969 203.398 65.1029 204.126 63.6889 204.126C61.6449 204.126 60.0629 202.516 60.0629 200.136ZM66.5589 200.15C66.5589 198.372 65.3549 197.308 63.9549 197.308C62.5549 197.308 61.3649 198.33 61.3649 200.136C61.3649 201.942 62.5549 203.006 63.9549 203.006C65.3549 203.006 66.5589 201.956 66.5589 200.15ZM71.2739 199.828V204H69.9999V196.328H71.2739V197.574C71.7079 196.72 72.5339 196.188 73.7519 196.188V197.504H73.4159C72.1979 197.504 71.2739 198.05 71.2739 199.828ZM78.4845 197.28C77.2385 197.28 76.2025 198.106 76.0625 199.604H80.9065C80.9205 198.106 79.8005 197.28 78.4845 197.28ZM82.0685 201.634C81.6765 203.034 80.4445 204.126 78.5405 204.126C76.3565 204.126 74.7465 202.586 74.7465 200.15C74.7465 197.728 76.3005 196.202 78.5405 196.202C80.7665 196.202 82.2225 197.77 82.2225 199.87C82.2225 200.15 82.2085 200.374 82.1805 200.64H76.0485C76.1465 202.194 77.2385 203.048 78.5405 203.048C79.6885 203.048 80.4165 202.46 80.6965 201.634H82.0685ZM87.6366 204V196.328H88.9106V204H87.6366ZM88.2946 195.082C87.8046 195.082 87.4266 194.704 87.4266 194.214C87.4266 193.724 87.8046 193.346 88.2946 193.346C88.7566 193.346 89.1346 193.724 89.1346 194.214C89.1346 194.704 88.7566 195.082 88.2946 195.082ZM96.6959 204V199.66C96.6959 198.092 95.8419 197.294 94.5539 197.294C93.2519 197.294 92.3559 198.106 92.3559 199.758V204H91.0819V196.328H92.3559V197.42C92.8599 196.622 93.7839 196.188 94.8199 196.188C96.5979 196.188 97.9559 197.28 97.9559 199.478V204H96.6959ZM100.317 201.9V197.378H99.323V196.328H100.317V194.396H101.591V196.328H103.593V197.378H101.591V201.9C101.591 202.656 101.871 202.922 102.655 202.922H103.593V204H102.445C101.087 204 100.317 203.44 100.317 201.9ZM108.399 197.28C107.153 197.28 106.117 198.106 105.977 199.604H110.821C110.835 198.106 109.715 197.28 108.399 197.28ZM111.983 201.634C111.591 203.034 110.359 204.126 108.455 204.126C106.271 204.126 104.661 202.586 104.661 200.15C104.661 197.728 106.215 196.202 108.455 196.202C110.681 196.202 112.137 197.77 112.137 199.87C112.137 200.15 112.123 200.374 112.095 200.64H105.963C106.061 202.194 107.153 203.048 108.455 203.048C109.603 203.048 110.331 202.46 110.611 201.634H111.983ZM115.092 199.828V204H113.818V196.328H115.092V197.574C115.526 196.72 116.352 196.188 117.57 196.188V197.504H117.234C116.016 197.504 115.092 198.05 115.092 199.828ZM119.279 204V197.378H118.285V196.328H119.279V195.782C119.279 194.074 120.119 193.304 122.079 193.304V194.368C120.931 194.368 120.553 194.788 120.553 195.782V196.328H122.163V197.378H120.553V204H119.279ZM123.172 200.136C123.172 197.742 124.754 196.202 126.812 196.202C128.24 196.202 129.22 196.93 129.668 197.728V196.328H130.956V204H129.668V202.572C129.206 203.398 128.212 204.126 126.798 204.126C124.754 204.126 123.172 202.516 123.172 200.136ZM129.668 200.15C129.668 198.372 128.464 197.308 127.064 197.308C125.664 197.308 124.474 198.33 124.474 200.136C124.474 201.942 125.664 203.006 127.064 203.006C128.464 203.006 129.668 201.956 129.668 200.15ZM132.633 200.15C132.633 197.742 134.187 196.202 136.371 196.202C138.275 196.202 139.521 197.182 139.913 198.792H138.541C138.275 197.868 137.505 197.28 136.371 197.28C134.971 197.28 133.935 198.274 133.935 200.15C133.935 202.054 134.971 203.048 136.371 203.048C137.505 203.048 138.261 202.502 138.541 201.536H139.913C139.521 203.062 138.275 204.126 136.371 204.126C134.187 204.126 132.633 202.586 132.633 200.15ZM144.875 197.28C143.629 197.28 142.593 198.106 142.453 199.604H147.297C147.311 198.106 146.191 197.28 144.875 197.28ZM148.459 201.634C148.067 203.034 146.835 204.126 144.931 204.126C142.747 204.126 141.137 202.586 141.137 200.15C141.137 197.728 142.691 196.202 144.931 196.202C147.157 196.202 148.613 197.77 148.613 199.87C148.613 200.15 148.599 200.374 148.571 200.64H142.439C142.537 202.194 143.629 203.048 144.931 203.048C146.079 203.048 146.807 202.46 147.087 201.634H148.459ZM151.541 203.216C151.541 203.706 151.163 204.084 150.701 204.084C150.211 204.084 149.833 203.706 149.833 203.216C149.833 202.726 150.211 202.348 150.701 202.348C151.163 202.348 151.541 202.726 151.541 203.216Z" fill="#4F668E"/>
</svg>
