<svg width="250" height="308" viewBox="0 0 250 308" fill="none" xmlns="http://www.w3.org/2000/svg">
<path d="M70.9393 307.561C71.5251 308.146 72.4749 308.146 73.0607 307.561L82.6066 298.015C83.1924 297.429 83.1924 296.479 82.6066 295.893C82.0208 295.308 81.0711 295.308 80.4853 295.893L72 304.379L63.5147 295.893C62.9289 295.308 61.9792 295.308 61.3934 295.893C60.8076 296.479 60.8076 297.429 61.3934 298.015L70.9393 307.561ZM70.5 266.5V306.5H73.5V266.5H70.5Z" fill="#23D9AE"/>
<path d="M54.5042 33H30C14.536 33 2 45.536 2 61V240C2 255.464 14.536 268 30 268H73" stroke="#23D9AE" stroke-width="3"/>
<circle cx="73" cy="31" r="31" fill="#34B7F2"/>
<path d="M33.24 106.4L31.44 103.98C30.9067 104.087 30.3867 104.14 29.88 104.14C28.56 104.14 27.3467 103.833 26.24 103.22C25.1467 102.607 24.2733 101.753 23.62 100.66C22.98 99.5533 22.66 98.3133 22.66 96.94C22.66 95.5667 22.98 94.3333 23.62 93.24C24.2733 92.1467 25.1467 91.2933 26.24 90.68C27.3467 90.0667 28.56 89.76 29.88 89.76C31.2 89.76 32.4067 90.0667 33.5 90.68C34.6067 91.2933 35.4733 92.1467 36.1 93.24C36.74 94.3333 37.06 95.5667 37.06 96.94C37.06 98.14 36.8133 99.24 36.32 100.24C35.84 101.227 35.1667 102.047 34.3 102.7L37.38 106.4H33.24ZM26.16 96.94C26.16 98.18 26.4933 99.1733 27.16 99.92C27.84 100.653 28.7467 101.02 29.88 101.02C31 101.02 31.8933 100.647 32.56 99.9C33.24 99.1533 33.58 98.1667 33.58 96.94C33.58 95.7 33.24 94.7133 32.56 93.98C31.8933 93.2333 31 92.86 29.88 92.86C28.7467 92.86 27.84 93.2267 27.16 93.96C26.4933 94.6933 26.16 95.6867 26.16 96.94ZM47.7417 101.52H42.5017L41.6617 104H38.0817L43.1617 89.96H47.1217L52.2017 104H48.5817L47.7417 101.52ZM46.8617 98.88L45.1217 93.74L43.4017 98.88H46.8617ZM68.7261 104L67.4261 102.74C66.1328 103.727 64.5861 104.22 62.7861 104.22C61.7061 104.22 60.7661 104.047 59.9661 103.7C59.1661 103.34 58.5461 102.84 58.1061 102.2C57.6794 101.547 57.4661 100.787 57.4661 99.92C57.4661 99.04 57.6994 98.2467 58.1661 97.54C58.6461 96.82 59.3594 96.2333 60.3061 95.78C59.9594 95.3533 59.7128 94.9467 59.5661 94.56C59.4194 94.16 59.3461 93.7267 59.3461 93.26C59.3461 92.5933 59.5194 91.9867 59.8661 91.44C60.2128 90.8933 60.7128 90.4667 61.3661 90.16C62.0328 89.84 62.8194 89.68 63.7261 89.68C64.6461 89.68 65.4261 89.8467 66.0661 90.18C66.7061 90.5133 67.1861 90.96 67.5061 91.52C67.8261 92.08 67.9728 92.6933 67.9461 93.36H64.7261C64.7394 93 64.6461 92.7267 64.4461 92.54C64.2594 92.34 64.0061 92.24 63.6861 92.24C63.3661 92.24 63.0994 92.3333 62.8861 92.52C62.6728 92.7067 62.5661 92.9467 62.5661 93.24C62.5661 93.52 62.6528 93.8133 62.8261 94.12C63.0128 94.4267 63.2994 94.78 63.6861 95.18L67.1061 98.52C67.1328 98.4533 67.1661 98.3733 67.2061 98.28C67.2594 98.1867 67.3128 98.08 67.3661 97.96L68.1061 96.7H71.5261L70.5661 98.44C70.2061 99.2267 69.7928 99.9733 69.3261 100.68L72.7061 104H68.7261ZM62.9461 101.46C63.8394 101.46 64.6328 101.207 65.3261 100.7L62.2061 97.68C61.2461 98.1733 60.7661 98.84 60.7661 99.68C60.7661 100.187 60.9594 100.613 61.3461 100.96C61.7461 101.293 62.2794 101.46 62.9461 101.46ZM88.2814 89.96V92.7H84.5614V104H81.1414V92.7H77.4214V89.96H88.2814ZM100.518 98.24C100.518 98.56 100.498 98.8933 100.458 99.24H92.7178C92.7711 99.9333 92.9911 100.467 93.3778 100.84C93.7778 101.2 94.2645 101.38 94.8378 101.38C95.6911 101.38 96.2845 101.02 96.6178 100.3H100.258C100.071 101.033 99.7311 101.693 99.2378 102.28C98.7578 102.867 98.1511 103.327 97.4178 103.66C96.6845 103.993 95.8645 104.16 94.9578 104.16C93.8645 104.16 92.8911 103.927 92.0378 103.46C91.1845 102.993 90.5178 102.327 90.0378 101.46C89.5578 100.593 89.3178 99.58 89.3178 98.42C89.3178 97.26 89.5511 96.2467 90.0178 95.38C90.4978 94.5133 91.1645 93.8467 92.0178 93.38C92.8711 92.9133 93.8511 92.68 94.9578 92.68C96.0378 92.68 96.9978 92.9067 97.8378 93.36C98.6778 93.8133 99.3311 94.46 99.7978 95.3C100.278 96.14 100.518 97.12 100.518 98.24ZM97.0178 97.34C97.0178 96.7533 96.8178 96.2867 96.4178 95.94C96.0178 95.5933 95.5178 95.42 94.9178 95.42C94.3445 95.42 93.8578 95.5867 93.4578 95.92C93.0711 96.2533 92.8311 96.7267 92.7378 97.34H97.0178ZM106.862 104.16C105.889 104.16 105.022 103.993 104.262 103.66C103.502 103.327 102.902 102.873 102.462 102.3C102.022 101.713 101.775 101.06 101.722 100.34H105.102C105.142 100.727 105.322 101.04 105.642 101.28C105.962 101.52 106.355 101.64 106.822 101.64C107.249 101.64 107.575 101.56 107.802 101.4C108.042 101.227 108.162 101.007 108.162 100.74C108.162 100.42 107.995 100.187 107.662 100.04C107.329 99.88 106.789 99.7067 106.042 99.52C105.242 99.3333 104.575 99.14 104.042 98.94C103.509 98.7267 103.049 98.4 102.662 97.96C102.275 97.5067 102.082 96.9 102.082 96.14C102.082 95.5 102.255 94.92 102.602 94.4C102.962 93.8667 103.482 93.4467 104.162 93.14C104.855 92.8333 105.675 92.68 106.622 92.68C108.022 92.68 109.122 93.0267 109.922 93.72C110.735 94.4133 111.202 95.3333 111.322 96.48H108.162C108.109 96.0933 107.935 95.7867 107.642 95.56C107.362 95.3333 106.989 95.22 106.522 95.22C106.122 95.22 105.815 95.3 105.602 95.46C105.389 95.6067 105.282 95.8133 105.282 96.08C105.282 96.4 105.449 96.64 105.782 96.8C106.129 96.96 106.662 97.12 107.382 97.28C108.209 97.4933 108.882 97.7067 109.402 97.92C109.922 98.12 110.375 98.4533 110.762 98.92C111.162 99.3733 111.369 99.9867 111.382 100.76C111.382 101.413 111.195 102 110.822 102.52C110.462 103.027 109.935 103.427 109.242 103.72C108.562 104.013 107.769 104.16 106.862 104.16ZM119.694 101.1V104H117.954C116.714 104 115.748 103.7 115.054 103.1C114.361 102.487 114.014 101.493 114.014 100.12V95.68H112.654V92.84H114.014V90.12H117.434V92.84H119.674V95.68H117.434V100.16C117.434 100.493 117.514 100.733 117.674 100.88C117.834 101.027 118.101 101.1 118.474 101.1H119.694ZM123.319 91.68C122.719 91.68 122.226 91.5067 121.839 91.16C121.466 90.8 121.279 90.36 121.279 89.84C121.279 89.3067 121.466 88.8667 121.839 88.52C122.226 88.16 122.719 87.98 123.319 87.98C123.906 87.98 124.386 88.16 124.759 88.52C125.146 88.8667 125.339 89.3067 125.339 89.84C125.339 90.36 125.146 90.8 124.759 91.16C124.386 91.5067 123.906 91.68 123.319 91.68ZM125.019 92.84V104H121.599V92.84H125.019ZM134.298 92.72C135.604 92.72 136.644 93.1467 137.418 94C138.204 94.84 138.598 96 138.598 97.48V104H135.198V97.94C135.198 97.1933 135.004 96.6133 134.618 96.2C134.231 95.7867 133.711 95.58 133.058 95.58C132.404 95.58 131.884 95.7867 131.498 96.2C131.111 96.6133 130.918 97.1933 130.918 97.94V104H127.498V92.84H130.918V94.32C131.264 93.8267 131.731 93.44 132.318 93.16C132.904 92.8667 133.564 92.72 134.298 92.72ZM145.214 92.68C146.001 92.68 146.688 92.84 147.274 93.16C147.874 93.48 148.334 93.9 148.654 94.42V92.84H152.074V103.98C152.074 105.007 151.868 105.933 151.454 106.76C151.054 107.6 150.434 108.267 149.594 108.76C148.768 109.253 147.734 109.5 146.494 109.5C144.841 109.5 143.501 109.107 142.474 108.32C141.448 107.547 140.861 106.493 140.714 105.16H144.094C144.201 105.587 144.454 105.92 144.854 106.16C145.254 106.413 145.748 106.54 146.334 106.54C147.041 106.54 147.601 106.333 148.014 105.92C148.441 105.52 148.654 104.873 148.654 103.98V102.4C148.321 102.92 147.861 103.347 147.274 103.68C146.688 104 146.001 104.16 145.214 104.16C144.294 104.16 143.461 103.927 142.714 103.46C141.968 102.98 141.374 102.307 140.934 101.44C140.508 100.56 140.294 99.5467 140.294 98.4C140.294 97.2533 140.508 96.2467 140.934 95.38C141.374 94.5133 141.968 93.8467 142.714 93.38C143.461 92.9133 144.294 92.68 145.214 92.68ZM148.654 98.42C148.654 97.5667 148.414 96.8933 147.934 96.4C147.468 95.9067 146.894 95.66 146.214 95.66C145.534 95.66 144.954 95.9067 144.474 96.4C144.008 96.88 143.774 97.5467 143.774 98.4C143.774 99.2533 144.008 99.9333 144.474 100.44C144.954 100.933 145.534 101.18 146.214 101.18C146.894 101.18 147.468 100.933 147.934 100.44C148.414 99.9467 148.654 99.2733 148.654 98.42Z" fill="#0051FB"/>
<path d="M69.1797 19.4883H79.7217L78.0449 23.7715H69.1797L68.333 26.0127C72.1514 26.1566 75.0898 27.1084 77.1484 28.8682C78.8418 30.318 79.6885 32.1221 79.6885 34.2803C79.6885 35.6637 79.2956 37.0195 78.5098 38.3477C77.724 39.6647 76.6172 40.6829 75.1895 41.4023C73.7617 42.1107 72.1956 42.4648 70.4912 42.4648C68.654 42.4648 67.2428 42.1217 66.2578 41.4355C65.5716 40.9486 65.2285 40.3952 65.2285 39.7754C65.2285 39.2995 65.4056 38.8789 65.7598 38.5137C66.125 38.1484 66.5456 37.9658 67.0215 37.9658C67.4531 37.9658 67.8903 38.0544 68.333 38.2314C68.7757 38.4085 69.5339 38.8734 70.6074 39.626C71.2826 40.0908 71.8636 40.4118 72.3506 40.5889C72.6937 40.7217 73.0811 40.7881 73.5127 40.7881C74.4202 40.7881 75.1895 40.4561 75.8203 39.792C76.4622 39.1279 76.7832 38.3311 76.7832 37.4014C76.7832 35.4535 75.8092 33.8708 73.8613 32.6533C71.9134 31.4359 69.4564 30.8271 66.4902 30.8271C66.1914 30.8271 65.7432 30.8327 65.1455 30.8438L69.1797 19.4883Z" fill="white"/>
<path d="M29.63 131L28.846 128.83H24.59L23.806 131H22.462L25.99 121.298H27.46L30.974 131H29.63ZM28.482 127.794L26.718 122.866L24.954 127.794H28.482ZM32.7916 128.9V124.378H31.7976V123.328H32.7916V121.396H34.0656V123.328H36.0676V124.378H34.0656V128.9C34.0656 129.656 34.3456 129.922 35.1296 129.922H36.0676V131H34.9196C33.5616 131 32.7916 130.44 32.7916 128.9ZM41.6236 128.9V124.378H40.6296V123.328H41.6236V121.396H42.8976V123.328H44.8996V124.378H42.8976V128.9C42.8976 129.656 43.1776 129.922 43.9616 129.922H44.8996V131H43.7516C42.3936 131 41.6236 130.44 41.6236 128.9ZM46.4432 131V120.64H47.7172V124.434C48.2212 123.622 49.1732 123.188 50.2512 123.188C51.9592 123.188 53.3172 124.28 53.3172 126.478V131H52.0572V126.66C52.0572 125.092 51.2032 124.294 49.9152 124.294C48.6132 124.294 47.7172 125.106 47.7172 126.758V131H46.4432ZM55.3983 131V123.328H56.6723V131H55.3983ZM56.0563 122.082C55.5663 122.082 55.1883 121.704 55.1883 121.214C55.1883 120.724 55.5663 120.346 56.0563 120.346C56.5183 120.346 56.8963 120.724 56.8963 121.214C56.8963 121.704 56.5183 122.082 56.0563 122.082ZM64.3596 128.914C64.3596 130.174 63.2536 131.126 61.5596 131.126C59.7676 131.126 58.5076 130.146 58.4236 128.746H59.7396C59.8096 129.488 60.4676 130.048 61.5456 130.048C62.5536 130.048 63.1136 129.544 63.1136 128.914C63.1136 127.206 58.5776 128.2 58.5776 125.344C58.5776 124.168 59.6836 123.202 61.3916 123.202C63.0856 123.202 64.2056 124.112 64.2896 125.61H63.0156C62.9596 124.84 62.3716 124.28 61.3496 124.28C60.4116 124.28 59.8516 124.728 59.8516 125.344C59.8516 127.164 64.3036 126.17 64.3596 128.914ZM71.1645 124.742C71.6265 123.93 72.6345 123.202 74.0345 123.202C76.0925 123.202 77.6745 124.742 77.6745 127.136C77.6745 129.516 76.0925 131.126 74.0345 131.126C72.6345 131.126 71.6405 130.37 71.1645 129.586V134.64H69.8905V123.328H71.1645V124.742ZM76.3725 127.136C76.3725 125.33 75.1825 124.308 73.7685 124.308C72.3825 124.308 71.1645 125.372 71.1645 127.15C71.1645 128.956 72.3825 130.006 73.7685 130.006C75.1825 130.006 76.3725 128.942 76.3725 127.136ZM86.6314 127.15C86.6314 129.586 84.8814 131.126 82.6974 131.126C80.5274 131.126 78.8754 129.586 78.8754 127.15C78.8754 124.728 80.5834 123.202 82.7534 123.202C84.9374 123.202 86.6314 124.728 86.6314 127.15ZM80.1774 127.15C80.1774 129.096 81.3674 130.006 82.6974 130.006C84.0274 130.006 85.3294 129.096 85.3294 127.15C85.3294 125.218 84.0554 124.308 82.7394 124.308C81.3954 124.308 80.1774 125.218 80.1774 127.15ZM88.3065 131V123.328H89.5805V131H88.3065ZM88.9645 122.082C88.4745 122.082 88.0965 121.704 88.0965 121.214C88.0965 120.724 88.4745 120.346 88.9645 120.346C89.4265 120.346 89.8045 120.724 89.8045 121.214C89.8045 121.704 89.4265 122.082 88.9645 122.082ZM97.3658 131V126.66C97.3658 125.092 96.5118 124.294 95.2238 124.294C93.9218 124.294 93.0258 125.106 93.0258 126.758V131H91.7518V123.328H93.0258V124.42C93.5298 123.622 94.4538 123.188 95.4898 123.188C97.2678 123.188 98.6258 124.28 98.6258 126.478V131H97.3658ZM100.987 128.9V124.378H99.9929V123.328H100.987V121.396H102.261V123.328H104.263V124.378H102.261V128.9C102.261 129.656 102.541 129.922 103.325 129.922H104.263V131H103.115C101.757 131 100.987 130.44 100.987 128.9ZM104.701 133.002L105.723 129.236H107.123L105.555 133.002H104.701ZM112.594 128.9V124.378H111.6V123.328H112.594V121.396H113.868V123.328H115.87V124.378H113.868V128.9C113.868 129.656 114.148 129.922 114.932 129.922H115.87V131H114.722C113.364 131 112.594 130.44 112.594 128.9ZM117.414 131V120.64H118.688V124.434C119.192 123.622 120.144 123.188 121.222 123.188C122.93 123.188 124.288 124.28 124.288 126.478V131H123.028V126.66C123.028 125.092 122.174 124.294 120.886 124.294C119.584 124.294 118.688 125.106 118.688 126.758V131H117.414ZM129.631 124.28C128.385 124.28 127.349 125.106 127.209 126.604H132.053C132.067 125.106 130.947 124.28 129.631 124.28ZM133.215 128.634C132.823 130.034 131.591 131.126 129.687 131.126C127.503 131.126 125.893 129.586 125.893 127.15C125.893 124.728 127.447 123.202 129.687 123.202C131.913 123.202 133.369 124.77 133.369 126.87C133.369 127.15 133.355 127.374 133.327 127.64H127.195C127.293 129.194 128.385 130.048 129.687 130.048C130.835 130.048 131.563 129.46 131.843 128.634H133.215ZM144.299 128.914C144.299 130.174 143.193 131.126 141.499 131.126C139.707 131.126 138.447 130.146 138.363 128.746H139.679C139.749 129.488 140.407 130.048 141.485 130.048C142.493 130.048 143.053 129.544 143.053 128.914C143.053 127.206 138.517 128.2 138.517 125.344C138.517 124.168 139.623 123.202 141.331 123.202C143.025 123.202 144.145 124.112 144.229 125.61H142.955C142.899 124.84 142.311 124.28 141.289 124.28C140.351 124.28 139.791 124.728 139.791 125.344C139.791 127.164 144.243 126.17 144.299 128.914ZM153.378 127.15C153.378 129.586 151.628 131.126 149.444 131.126C147.274 131.126 145.622 129.586 145.622 127.15C145.622 124.728 147.33 123.202 149.5 123.202C151.684 123.202 153.378 124.728 153.378 127.15ZM146.924 127.15C146.924 129.096 148.114 130.006 149.444 130.006C150.774 130.006 152.076 129.096 152.076 127.15C152.076 125.218 150.802 124.308 149.486 124.308C148.142 124.308 146.924 125.218 146.924 127.15ZM155.291 131V124.378H154.297V123.328H155.291V122.782C155.291 121.074 156.131 120.304 158.091 120.304V121.368C156.943 121.368 156.565 121.788 156.565 122.782V123.328H158.175V124.378H156.565V131H155.291ZM159.94 128.9V124.378H158.946V123.328H159.94V121.396H161.214V123.328H163.216V124.378H161.214V128.9C161.214 129.656 161.494 129.922 162.278 129.922H163.216V131H162.068C160.71 131 159.94 130.44 159.94 128.9ZM166.258 131L163.85 123.328H165.152L166.916 129.768L168.82 123.328H170.122L171.984 129.782L173.72 123.328H174.98L172.586 131H171.27L169.422 124.91L167.574 131H166.258ZM175.768 127.136C175.768 124.742 177.35 123.202 179.408 123.202C180.836 123.202 181.816 123.93 182.264 124.728V123.328H183.552V131H182.264V129.572C181.802 130.398 180.808 131.126 179.394 131.126C177.35 131.126 175.768 129.516 175.768 127.136ZM182.264 127.15C182.264 125.372 181.06 124.308 179.66 124.308C178.26 124.308 177.07 125.33 177.07 127.136C177.07 128.942 178.26 130.006 179.66 130.006C181.06 130.006 182.264 128.956 182.264 127.15ZM186.979 126.828V131H185.705V123.328H186.979V124.574C187.413 123.72 188.239 123.188 189.457 123.188V124.504H189.121C187.903 124.504 186.979 125.05 186.979 126.828ZM194.19 124.28C192.944 124.28 191.908 125.106 191.768 126.604H196.612C196.626 125.106 195.506 124.28 194.19 124.28ZM197.774 128.634C197.382 130.034 196.15 131.126 194.246 131.126C192.062 131.126 190.452 129.586 190.452 127.15C190.452 124.728 192.006 123.202 194.246 123.202C196.472 123.202 197.928 124.77 197.928 126.87C197.928 127.15 197.914 127.374 197.886 127.64H191.754C191.852 129.194 192.944 130.048 194.246 130.048C195.394 130.048 196.122 129.46 196.402 128.634H197.774ZM203.342 131V123.328H204.616V131H203.342ZM204 122.082C203.51 122.082 203.132 121.704 203.132 121.214C203.132 120.724 203.51 120.346 204 120.346C204.462 120.346 204.84 120.724 204.84 121.214C204.84 121.704 204.462 122.082 204 122.082ZM212.303 128.914C212.303 130.174 211.197 131.126 209.503 131.126C207.711 131.126 206.451 130.146 206.367 128.746H207.683C207.753 129.488 208.411 130.048 209.489 130.048C210.497 130.048 211.057 129.544 211.057 128.914C211.057 127.206 206.521 128.2 206.521 125.344C206.521 124.168 207.627 123.202 209.335 123.202C211.029 123.202 212.149 124.112 212.233 125.61H210.959C210.903 124.84 210.315 124.28 209.293 124.28C208.355 124.28 207.795 124.728 207.795 125.344C207.795 127.164 212.247 126.17 212.303 128.914ZM24.352 146.828V151H23.078V143.328H24.352V144.574C24.786 143.72 25.612 143.188 26.83 143.188V144.504H26.494C25.276 144.504 24.352 145.05 24.352 146.828ZM31.5627 144.28C30.3167 144.28 29.2807 145.106 29.1407 146.604H33.9847C33.9987 145.106 32.8787 144.28 31.5627 144.28ZM35.1467 148.634C34.7547 150.034 33.5227 151.126 31.6187 151.126C29.4347 151.126 27.8247 149.586 27.8247 147.15C27.8247 144.728 29.3787 143.202 31.6187 143.202C33.8447 143.202 35.3007 144.77 35.3007 146.87C35.3007 147.15 35.2867 147.374 35.2587 147.64H29.1267C29.2247 149.194 30.3167 150.048 31.6187 150.048C32.7667 150.048 33.4947 149.46 33.7747 148.634H35.1467ZM36.5063 147.136C36.5063 144.742 38.0883 143.202 40.1463 143.202C41.5743 143.202 42.5543 143.93 43.0023 144.728V143.328H44.2903V151H43.0023V149.572C42.5403 150.398 41.5463 151.126 40.1323 151.126C38.0883 151.126 36.5063 149.516 36.5063 147.136ZM43.0023 147.15C43.0023 145.372 41.7983 144.308 40.3983 144.308C38.9983 144.308 37.8083 145.33 37.8083 147.136C37.8083 148.942 38.9983 150.006 40.3983 150.006C41.7983 150.006 43.0023 148.956 43.0023 147.15ZM45.9672 147.136C45.9672 144.742 47.5492 143.202 49.6212 143.202C50.8252 143.202 51.9312 143.818 52.4632 144.7V140.64H53.7512V151H52.4632V149.558C52.0012 150.412 51.0072 151.126 49.6072 151.126C47.5492 151.126 45.9672 149.516 45.9672 147.136ZM52.4632 147.15C52.4632 145.372 51.2592 144.308 49.8592 144.308C48.4592 144.308 47.2692 145.33 47.2692 147.136C47.2692 148.942 48.4592 150.006 49.8592 150.006C51.2592 150.006 52.4632 148.956 52.4632 147.15ZM58.8162 149.544L61.1962 143.328H62.5122L57.8922 154.612H56.5762L58.0882 150.916L54.9942 143.328H56.4082L58.8162 149.544ZM67.7633 151V144.378H66.7693V143.328H67.7633V142.782C67.7633 141.074 68.6033 140.304 70.5633 140.304V141.368C69.4153 141.368 69.0373 141.788 69.0373 142.782V143.328H70.6473V144.378H69.0373V151H67.7633ZM79.4127 147.15C79.4127 149.586 77.6627 151.126 75.4787 151.126C73.3087 151.126 71.6567 149.586 71.6567 147.15C71.6567 144.728 73.3647 143.202 75.5347 143.202C77.7187 143.202 79.4127 144.728 79.4127 147.15ZM72.9587 147.15C72.9587 149.096 74.1487 150.006 75.4787 150.006C76.8087 150.006 78.1107 149.096 78.1107 147.15C78.1107 145.218 76.8367 144.308 75.5207 144.308C74.1767 144.308 72.9587 145.218 72.9587 147.15ZM82.3618 146.828V151H81.0878V143.328H82.3618V144.574C82.7958 143.72 83.6218 143.188 84.8398 143.188V144.504H84.5038C83.2858 144.504 82.3618 145.05 82.3618 146.828ZM90.3228 148.9V144.378H89.3288V143.328H90.3228V141.396H91.5968V143.328H93.5988V144.378H91.5968V148.9C91.5968 149.656 91.8768 149.922 92.6608 149.922H93.5988V151H92.4508C91.0928 151 90.3228 150.44 90.3228 148.9ZM98.4045 144.28C97.1585 144.28 96.1225 145.106 95.9825 146.604H100.826C100.84 145.106 99.7205 144.28 98.4045 144.28ZM101.988 148.634C101.596 150.034 100.364 151.126 98.4605 151.126C96.2765 151.126 94.6665 149.586 94.6665 147.15C94.6665 144.728 96.2205 143.202 98.4605 143.202C100.686 143.202 102.142 144.77 102.142 146.87C102.142 147.15 102.128 147.374 102.1 147.64H95.9685C96.0665 149.194 97.1585 150.048 98.4605 150.048C99.6085 150.048 100.336 149.46 100.616 148.634H101.988ZM109.34 148.914C109.34 150.174 108.234 151.126 106.54 151.126C104.748 151.126 103.488 150.146 103.404 148.746H104.72C104.79 149.488 105.448 150.048 106.526 150.048C107.534 150.048 108.094 149.544 108.094 148.914C108.094 147.206 103.558 148.2 103.558 145.344C103.558 144.168 104.664 143.202 106.372 143.202C108.066 143.202 109.186 144.112 109.27 145.61H107.996C107.94 144.84 107.352 144.28 106.33 144.28C105.392 144.28 104.832 144.728 104.832 145.344C104.832 147.164 109.284 146.17 109.34 148.914ZM111.419 148.9V144.378H110.425V143.328H111.419V141.396H112.693V143.328H114.695V144.378H112.693V148.9C112.693 149.656 112.973 149.922 113.757 149.922H114.695V151H113.547C112.189 151 111.419 150.44 111.419 148.9ZM116.238 151V143.328H117.512V151H116.238ZM116.896 142.082C116.406 142.082 116.028 141.704 116.028 141.214C116.028 140.724 116.406 140.346 116.896 140.346C117.358 140.346 117.736 140.724 117.736 141.214C117.736 141.704 117.358 142.082 116.896 142.082ZM125.297 151V146.66C125.297 145.092 124.443 144.294 123.155 144.294C121.853 144.294 120.957 145.106 120.957 146.758V151H119.683V143.328H120.957V144.42C121.461 143.622 122.385 143.188 123.421 143.188C125.199 143.188 126.557 144.28 126.557 146.478V151H125.297ZM128.163 147.136C128.163 144.742 129.745 143.202 131.803 143.202C133.203 143.202 134.211 143.902 134.659 144.728V143.328H135.947V151.168C135.947 153.282 134.533 154.78 132.279 154.78C130.263 154.78 128.821 153.758 128.569 152.12H129.829C130.109 153.044 131.019 153.674 132.279 153.674C133.637 153.674 134.659 152.806 134.659 151.168V149.558C134.197 150.384 133.203 151.126 131.803 151.126C129.745 151.126 128.163 149.516 128.163 147.136ZM134.659 147.15C134.659 145.372 133.455 144.308 132.055 144.308C130.655 144.308 129.465 145.33 129.465 147.136C129.465 148.942 130.655 150.006 132.055 150.006C133.455 150.006 134.659 148.956 134.659 147.15ZM139.345 150.216C139.345 150.706 138.967 151.084 138.505 151.084C138.015 151.084 137.637 150.706 137.637 150.216C137.637 149.726 138.015 149.348 138.505 149.348C138.967 149.348 139.345 149.726 139.345 150.216ZM144.169 142.278V141.242H150.777V142.278H148.117V151H146.843V142.278H144.169ZM152.346 151V140.64H153.62V144.434C154.124 143.622 155.076 143.188 156.154 143.188C157.862 143.188 159.22 144.28 159.22 146.478V151H157.96V146.66C157.96 145.092 157.106 144.294 155.818 144.294C154.516 144.294 153.62 145.106 153.62 146.758V151H152.346ZM164.563 144.28C163.317 144.28 162.281 145.106 162.141 146.604H166.985C166.999 145.106 165.879 144.28 164.563 144.28ZM168.147 148.634C167.755 150.034 166.523 151.126 164.619 151.126C162.435 151.126 160.825 149.586 160.825 147.15C160.825 144.728 162.379 143.202 164.619 143.202C166.845 143.202 168.301 144.77 168.301 146.87C168.301 147.15 168.287 147.374 168.259 147.64H162.127C162.225 149.194 163.317 150.048 164.619 150.048C165.767 150.048 166.495 149.46 166.775 148.634H168.147ZM171.256 146.828V151H169.982V143.328H171.256V144.574C171.69 143.72 172.516 143.188 173.734 143.188V144.504H173.398C172.18 144.504 171.256 145.05 171.256 146.828ZM178.467 144.28C177.221 144.28 176.185 145.106 176.045 146.604H180.889C180.903 145.106 179.783 144.28 178.467 144.28ZM182.051 148.634C181.659 150.034 180.427 151.126 178.523 151.126C176.339 151.126 174.729 149.586 174.729 147.15C174.729 144.728 176.283 143.202 178.523 143.202C180.749 143.202 182.205 144.77 182.205 146.87C182.205 147.15 182.191 147.374 182.163 147.64H176.031C176.129 149.194 177.221 150.048 178.523 150.048C179.671 150.048 180.399 149.46 180.679 148.634H182.051ZM187.143 147.136C187.143 144.742 188.725 143.202 190.783 143.202C192.211 143.202 193.191 143.93 193.639 144.728V143.328H194.927V151H193.639V149.572C193.177 150.398 192.183 151.126 190.769 151.126C188.725 151.126 187.143 149.516 187.143 147.136ZM193.639 147.15C193.639 145.372 192.435 144.308 191.035 144.308C189.635 144.308 188.445 145.33 188.445 147.136C188.445 148.942 189.635 150.006 191.035 150.006C192.435 150.006 193.639 148.956 193.639 147.15ZM198.354 146.828V151H197.08V143.328H198.354V144.574C198.788 143.72 199.614 143.188 200.832 143.188V144.504H200.496C199.278 144.504 198.354 145.05 198.354 146.828ZM205.565 144.28C204.319 144.28 203.283 145.106 203.143 146.604H207.987C208.001 145.106 206.881 144.28 205.565 144.28ZM209.149 148.634C208.757 150.034 207.525 151.126 205.621 151.126C203.437 151.126 201.827 149.586 201.827 147.15C201.827 144.728 203.381 143.202 205.621 143.202C207.847 143.202 209.303 144.77 209.303 146.87C209.303 147.15 209.289 147.374 209.261 147.64H203.129C203.227 149.194 204.319 150.048 205.621 150.048C206.769 150.048 207.497 149.46 207.777 148.634H209.149ZM22.602 167.136C22.602 164.742 24.184 163.202 26.242 163.202C27.67 163.202 28.65 163.93 29.098 164.728V163.328H30.386V171H29.098V169.572C28.636 170.398 27.642 171.126 26.228 171.126C24.184 171.126 22.602 169.516 22.602 167.136ZM29.098 167.15C29.098 165.372 27.894 164.308 26.494 164.308C25.094 164.308 23.904 165.33 23.904 167.136C23.904 168.942 25.094 170.006 26.494 170.006C27.894 170.006 29.098 168.956 29.098 167.15ZM32.5389 171V160.64H33.8129V171H32.5389ZM37.4823 171L35.0743 163.328H36.3763L38.1403 169.768L40.0443 163.328H41.3463L43.2083 169.782L44.9443 163.328H46.2043L43.8103 171H42.4943L40.6463 164.91L38.7983 171H37.4823ZM46.9926 167.136C46.9926 164.742 48.5746 163.202 50.6326 163.202C52.0606 163.202 53.0406 163.93 53.4886 164.728V163.328H54.7766V171H53.4886V169.572C53.0266 170.398 52.0326 171.126 50.6186 171.126C48.5746 171.126 46.9926 169.516 46.9926 167.136ZM53.4886 167.15C53.4886 165.372 52.2846 164.308 50.8846 164.308C49.4846 164.308 48.2946 165.33 48.2946 167.136C48.2946 168.942 49.4846 170.006 50.8846 170.006C52.2846 170.006 53.4886 168.956 53.4886 167.15ZM59.8416 169.544L62.2216 163.328H63.5376L58.9176 174.612H57.6016L59.1136 170.916L56.0196 163.328H57.4336L59.8416 169.544ZM70.3342 168.914C70.3342 170.174 69.2282 171.126 67.5342 171.126C65.7422 171.126 64.4822 170.146 64.3982 168.746H65.7142C65.7842 169.488 66.4422 170.048 67.5202 170.048C68.5282 170.048 69.0882 169.544 69.0882 168.914C69.0882 167.206 64.5522 168.2 64.5522 165.344C64.5522 164.168 65.6582 163.202 67.3662 163.202C69.0602 163.202 70.1802 164.112 70.2642 165.61H68.9902C68.9342 164.84 68.3462 164.28 67.3242 164.28C66.3862 164.28 65.8262 164.728 65.8262 165.344C65.8262 167.164 70.2782 166.17 70.3342 168.914ZM77.1391 164.756C77.6291 163.902 78.6511 163.202 80.0091 163.202C82.0811 163.202 83.6491 164.742 83.6491 167.136C83.6491 169.516 82.0671 171.126 80.0091 171.126C78.6091 171.126 77.6151 170.426 77.1391 169.586V171H75.8651V160.64H77.1391V164.756ZM82.3471 167.136C82.3471 165.33 81.1571 164.308 79.7431 164.308C78.3571 164.308 77.1391 165.372 77.1391 167.15C77.1391 168.956 78.3571 170.006 79.7431 170.006C81.1571 170.006 82.3471 168.942 82.3471 167.136ZM92.13 163.328V171H90.856V169.866C90.366 170.664 89.428 171.112 88.406 171.112C86.642 171.112 85.256 170.02 85.256 167.822V163.328H86.516V167.654C86.516 169.208 87.37 170.006 88.658 170.006C89.974 170.006 90.856 169.194 90.856 167.542V163.328H92.13ZM93.8051 167.136C93.8051 164.742 95.3871 163.202 97.4451 163.202C98.8451 163.202 99.8531 163.902 100.301 164.728V163.328H101.589V171.168C101.589 173.282 100.175 174.78 97.9211 174.78C95.9051 174.78 94.4631 173.758 94.2111 172.12H95.4711C95.7511 173.044 96.6611 173.674 97.9211 173.674C99.2791 173.674 100.301 172.806 100.301 171.168V169.558C99.8391 170.384 98.8451 171.126 97.4451 171.126C95.3871 171.126 93.8051 169.516 93.8051 167.136ZM100.301 167.15C100.301 165.372 99.0971 164.308 97.6971 164.308C96.2971 164.308 95.1071 165.33 95.1071 167.136C95.1071 168.942 96.2971 170.006 97.6971 170.006C99.0971 170.006 100.301 168.956 100.301 167.15ZM109.258 168.914C109.258 170.174 108.152 171.126 106.458 171.126C104.666 171.126 103.406 170.146 103.322 168.746H104.638C104.708 169.488 105.366 170.048 106.444 170.048C107.452 170.048 108.012 169.544 108.012 168.914C108.012 167.206 103.476 168.2 103.476 165.344C103.476 164.168 104.582 163.202 106.29 163.202C107.984 163.202 109.104 164.112 109.188 165.61H107.914C107.858 164.84 107.27 164.28 106.248 164.28C105.31 164.28 104.75 164.728 104.75 165.344C104.75 167.164 109.202 166.17 109.258 168.914ZM115.069 168.9V164.378H114.075V163.328H115.069V161.396H116.343V163.328H118.345V164.378H116.343V168.9C116.343 169.656 116.623 169.922 117.407 169.922H118.345V171H117.197C115.839 171 115.069 170.44 115.069 168.9ZM127.169 167.15C127.169 169.586 125.419 171.126 123.235 171.126C121.065 171.126 119.413 169.586 119.413 167.15C119.413 164.728 121.121 163.202 123.291 163.202C125.475 163.202 127.169 164.728 127.169 167.15ZM120.715 167.15C120.715 169.096 121.905 170.006 123.235 170.006C124.565 170.006 125.867 169.096 125.867 167.15C125.867 165.218 124.593 164.308 123.277 164.308C121.933 164.308 120.715 165.218 120.715 167.15ZM132.1 167.136C132.1 164.742 133.682 163.202 135.754 163.202C136.958 163.202 138.064 163.818 138.596 164.7V160.64H139.884V171H138.596V169.558C138.134 170.412 137.14 171.126 135.74 171.126C133.682 171.126 132.1 169.516 132.1 167.136ZM138.596 167.15C138.596 165.372 137.392 164.308 135.992 164.308C134.592 164.308 133.402 165.33 133.402 167.136C133.402 168.942 134.592 170.006 135.992 170.006C137.392 170.006 138.596 168.956 138.596 167.15ZM145.299 164.28C144.053 164.28 143.017 165.106 142.877 166.604H147.721C147.735 165.106 146.615 164.28 145.299 164.28ZM148.883 168.634C148.491 170.034 147.259 171.126 145.355 171.126C143.171 171.126 141.561 169.586 141.561 167.15C141.561 164.728 143.115 163.202 145.355 163.202C147.581 163.202 149.037 164.77 149.037 166.87C149.037 167.15 149.023 167.374 148.995 167.64H142.863C142.961 169.194 144.053 170.048 145.355 170.048C146.503 170.048 147.231 169.46 147.511 168.634H148.883ZM150.243 167.136C150.243 164.742 151.825 163.202 153.883 163.202C155.311 163.202 156.291 163.93 156.739 164.728V163.328H158.027V171H156.739V169.572C156.277 170.398 155.283 171.126 153.869 171.126C151.825 171.126 150.243 169.516 150.243 167.136ZM156.739 167.15C156.739 165.372 155.535 164.308 154.135 164.308C152.735 164.308 151.545 165.33 151.545 167.136C151.545 168.942 152.735 170.006 154.135 170.006C155.535 170.006 156.739 168.956 156.739 167.15ZM160.18 171V160.64H161.454V171H160.18ZM168.855 171L166.447 163.328H167.749L169.513 169.768L171.417 163.328H172.719L174.581 169.782L176.317 163.328H177.577L175.183 171H173.867L172.019 164.91L170.171 171H168.855ZM178.842 171V163.328H180.116V171H178.842ZM179.5 162.082C179.01 162.082 178.632 161.704 178.632 161.214C178.632 160.724 179.01 160.346 179.5 160.346C179.962 160.346 180.34 160.724 180.34 161.214C180.34 161.704 179.962 162.082 179.5 162.082ZM182.567 168.9V164.378H181.573V163.328H182.567V161.396H183.841V163.328H185.843V164.378H183.841V168.9C183.841 169.656 184.121 169.922 184.905 169.922H185.843V171H184.695C183.337 171 182.567 170.44 182.567 168.9ZM187.387 171V160.64H188.661V164.434C189.165 163.622 190.117 163.188 191.195 163.188C192.903 163.188 194.261 164.28 194.261 166.478V171H193.001V166.66C193.001 165.092 192.147 164.294 190.859 164.294C189.557 164.294 188.661 165.106 188.661 166.758V171H187.387ZM195.236 173.002L196.258 169.236H197.658L196.09 173.002H195.236ZM204.123 164.756C204.613 163.902 205.635 163.202 206.993 163.202C209.065 163.202 210.633 164.742 210.633 167.136C210.633 169.516 209.051 171.126 206.993 171.126C205.593 171.126 204.599 170.426 204.123 169.586V171H202.849V160.64H204.123V164.756ZM209.331 167.136C209.331 165.33 208.141 164.308 206.727 164.308C205.341 164.308 204.123 165.372 204.123 167.15C204.123 168.956 205.341 170.006 206.727 170.006C208.141 170.006 209.331 168.942 209.331 167.136ZM219.114 163.328V171H217.84V169.866C217.35 170.664 216.412 171.112 215.39 171.112C213.626 171.112 212.24 170.02 212.24 167.822V163.328H213.5V167.654C213.5 169.208 214.354 170.006 215.642 170.006C216.958 170.006 217.84 169.194 217.84 167.542V163.328H219.114ZM221.546 168.9V164.378H220.552V163.328H221.546V161.396H222.82V163.328H224.822V164.378H222.82V168.9C222.82 169.656 223.1 169.922 223.883 169.922H224.822V171H223.674C222.316 171 221.546 170.44 221.546 168.9ZM231.596 171L229.188 163.328H230.49L232.254 169.768L234.158 163.328H235.46L237.322 169.782L239.058 163.328H240.318L237.924 171H236.608L234.76 164.91L232.912 171H231.596ZM244.844 164.28C243.598 164.28 242.562 165.106 242.422 166.604H247.266C247.28 165.106 246.16 164.28 244.844 164.28ZM248.428 168.634C248.036 170.034 246.804 171.126 244.9 171.126C242.716 171.126 241.106 169.586 241.106 167.15C241.106 164.728 242.66 163.202 244.9 163.202C247.126 163.202 248.582 164.77 248.582 166.87C248.582 167.15 248.568 167.374 248.54 167.64H242.408C242.506 169.194 243.598 170.048 244.9 170.048C246.048 170.048 246.776 169.46 247.056 168.634H248.428ZM24.352 184.742C24.814 183.93 25.822 183.202 27.222 183.202C29.28 183.202 30.862 184.742 30.862 187.136C30.862 189.516 29.28 191.126 27.222 191.126C25.822 191.126 24.828 190.37 24.352 189.586V194.64H23.078V183.328H24.352V184.742ZM29.56 187.136C29.56 185.33 28.37 184.308 26.956 184.308C25.57 184.308 24.352 185.372 24.352 187.15C24.352 188.956 25.57 190.006 26.956 190.006C28.37 190.006 29.56 188.942 29.56 187.136ZM32.5389 191V180.64H33.8129V191H32.5389ZM35.5083 187.136C35.5083 184.742 37.0903 183.202 39.1483 183.202C40.5763 183.202 41.5563 183.93 42.0043 184.728V183.328H43.2923V191H42.0043V189.572C41.5423 190.398 40.5483 191.126 39.1343 191.126C37.0903 191.126 35.5083 189.516 35.5083 187.136ZM42.0043 187.15C42.0043 185.372 40.8003 184.308 39.4003 184.308C38.0003 184.308 36.8103 185.33 36.8103 187.136C36.8103 188.942 38.0003 190.006 39.4003 190.006C40.8003 190.006 42.0043 188.956 42.0043 187.15ZM51.0592 191V186.66C51.0592 185.092 50.2052 184.294 48.9172 184.294C47.6152 184.294 46.7192 185.106 46.7192 186.758V191H45.4452V183.328H46.7192V184.42C47.2232 183.622 48.1472 183.188 49.1832 183.188C50.9612 183.188 52.3192 184.28 52.3192 186.478V191H51.0592ZM58.3707 191V184.378H57.3767V183.328H58.3707V182.782C58.3707 181.074 59.2107 180.304 61.1707 180.304V181.368C60.0227 181.368 59.6447 181.788 59.6447 182.782V183.328H61.2547V184.378H59.6447V191H58.3707ZM70.0201 187.15C70.0201 189.586 68.2701 191.126 66.0861 191.126C63.9161 191.126 62.2641 189.586 62.2641 187.15C62.2641 184.728 63.9721 183.202 66.1421 183.202C68.3261 183.202 70.0201 184.728 70.0201 187.15ZM63.5661 187.15C63.5661 189.096 64.7561 190.006 66.0861 190.006C67.4161 190.006 68.7181 189.096 68.7181 187.15C68.7181 185.218 67.4441 184.308 66.1281 184.308C64.7841 184.308 63.5661 185.218 63.5661 187.15ZM72.9692 186.828V191H71.6952V183.328H72.9692V184.574C73.4032 183.72 74.2292 183.188 75.4472 183.188V184.504H75.1112C73.8932 184.504 72.9692 185.05 72.9692 186.828ZM80.9303 188.9V184.378H79.9363V183.328H80.9303V181.396H82.2043V183.328H84.2063V184.378H82.2043V188.9C82.2043 189.656 82.4843 189.922 83.2683 189.922H84.2063V191H83.0583C81.7003 191 80.9303 190.44 80.9303 188.9ZM85.7499 191V180.64H87.0239V184.434C87.5279 183.622 88.4799 183.188 89.5579 183.188C91.2659 183.188 92.6239 184.28 92.6239 186.478V191H91.3639V186.66C91.3639 185.092 90.5099 184.294 89.2219 184.294C87.9199 184.294 87.0239 185.106 87.0239 186.758V191H85.7499ZM94.229 187.136C94.229 184.742 95.811 183.202 97.869 183.202C99.297 183.202 100.277 183.93 100.725 184.728V183.328H102.013V191H100.725V189.572C100.263 190.398 99.269 191.126 97.855 191.126C95.811 191.126 94.229 189.516 94.229 187.136ZM100.725 187.15C100.725 185.372 99.521 184.308 98.121 184.308C96.721 184.308 95.531 185.33 95.531 187.136C95.531 188.942 96.721 190.006 98.121 190.006C99.521 190.006 100.725 188.956 100.725 187.15ZM104.446 188.9V184.378H103.452V183.328H104.446V181.396H105.72V183.328H107.722V184.378H105.72V188.9C105.72 189.656 106 189.922 106.784 189.922H107.722V191H106.574C105.216 191 104.446 190.44 104.446 188.9ZM109.7 188.242L109.546 181.242H110.918L110.764 188.242H109.7ZM111.128 190.216C111.128 190.706 110.75 191.084 110.288 191.084C109.798 191.084 109.42 190.706 109.42 190.216C109.42 189.726 109.798 189.348 110.288 189.348C110.75 189.348 111.128 189.726 111.128 190.216ZM119.142 191.014L116.412 181.242H117.77L119.898 189.516L122.25 181.242H123.678L125.918 189.488L128.06 181.242H129.432L126.604 191H125.176L122.908 183.146L120.556 191L119.142 191.014ZM134.088 184.28C132.842 184.28 131.806 185.106 131.666 186.604H136.51C136.524 185.106 135.404 184.28 134.088 184.28ZM137.672 188.634C137.28 190.034 136.048 191.126 134.144 191.126C131.96 191.126 130.35 189.586 130.35 187.15C130.35 184.728 131.904 183.202 134.144 183.202C136.37 183.202 137.826 184.77 137.826 186.87C137.826 187.15 137.812 187.374 137.784 187.64H131.652C131.75 189.194 132.842 190.048 134.144 190.048C135.292 190.048 136.02 189.46 136.3 188.634H137.672ZM144.738 191L142.33 183.328H143.632L145.396 189.768L147.3 183.328H148.602L150.464 189.782L152.2 183.328H153.46L151.066 191H149.75L147.902 184.91L146.054 191H144.738ZM154.724 191V183.328H155.998V191H154.724ZM155.382 182.082C154.892 182.082 154.514 181.704 154.514 181.214C154.514 180.724 154.892 180.346 155.382 180.346C155.844 180.346 156.222 180.724 156.222 181.214C156.222 181.704 155.844 182.082 155.382 182.082ZM158.17 191V180.64H159.444V191H158.17ZM161.615 191V180.64H162.889V191H161.615ZM170.291 191L167.883 183.328H169.185L170.949 189.768L172.853 183.328H174.155L176.017 189.782L177.753 183.328H179.013L176.619 191H175.303L173.455 184.91L171.607 191H170.291ZM187.557 187.15C187.557 189.586 185.807 191.126 183.623 191.126C181.453 191.126 179.801 189.586 179.801 187.15C179.801 184.728 181.509 183.202 183.679 183.202C185.863 183.202 187.557 184.728 187.557 187.15ZM181.103 187.15C181.103 189.096 182.293 190.006 183.623 190.006C184.953 190.006 186.255 189.096 186.255 187.15C186.255 185.218 184.981 184.308 183.665 184.308C182.321 184.308 181.103 185.218 181.103 187.15ZM190.506 186.828V191H189.232V183.328H190.506V184.574C190.94 183.72 191.766 183.188 192.984 183.188V184.504H192.648C191.43 184.504 190.506 185.05 190.506 186.828ZM194.455 191V180.64H195.729V186.73L198.683 183.328H200.461L196.849 187.15L200.475 191H198.739L195.729 187.612V191H194.455ZM23.358 208.9V204.378H22.364V203.328H23.358V201.396H24.632V203.328H26.634V204.378H24.632V208.9C24.632 209.656 24.912 209.922 25.696 209.922H26.634V211H25.486C24.128 211 23.358 210.44 23.358 208.9ZM35.4576 207.15C35.4576 209.586 33.7076 211.126 31.5236 211.126C29.3536 211.126 27.7016 209.586 27.7016 207.15C27.7016 204.728 29.4096 203.202 31.5796 203.202C33.7636 203.202 35.4576 204.728 35.4576 207.15ZM29.0036 207.15C29.0036 209.096 30.1936 210.006 31.5236 210.006C32.8536 210.006 34.1556 209.096 34.1556 207.15C34.1556 205.218 32.8816 204.308 31.5656 204.308C30.2216 204.308 29.0036 205.218 29.0036 207.15ZM36.6567 207.136C36.6567 204.742 38.2387 203.202 40.2967 203.202C41.6967 203.202 42.7047 203.902 43.1527 204.728V203.328H44.4407V211.168C44.4407 213.282 43.0267 214.78 40.7727 214.78C38.7567 214.78 37.3147 213.758 37.0627 212.12H38.3227C38.6027 213.044 39.5127 213.674 40.7727 213.674C42.1307 213.674 43.1527 212.806 43.1527 211.168V209.558C42.6907 210.384 41.6967 211.126 40.2967 211.126C38.2387 211.126 36.6567 209.516 36.6567 207.136ZM43.1527 207.15C43.1527 205.372 41.9487 204.308 40.5487 204.308C39.1487 204.308 37.9587 205.33 37.9587 207.136C37.9587 208.942 39.1487 210.006 40.5487 210.006C41.9487 210.006 43.1527 208.956 43.1527 207.15ZM49.8556 204.28C48.6096 204.28 47.5736 205.106 47.4336 206.604H52.2776C52.2916 205.106 51.1716 204.28 49.8556 204.28ZM53.4396 208.634C53.0476 210.034 51.8156 211.126 49.9116 211.126C47.7276 211.126 46.1176 209.586 46.1176 207.15C46.1176 204.728 47.6716 203.202 49.9116 203.202C52.1376 203.202 53.5936 204.77 53.5936 206.87C53.5936 207.15 53.5796 207.374 53.5516 207.64H47.4196C47.5176 209.194 48.6096 210.048 49.9116 210.048C51.0596 210.048 51.7876 209.46 52.0676 208.634H53.4396ZM55.5553 208.9V204.378H54.5613V203.328H55.5553V201.396H56.8293V203.328H58.8313V204.378H56.8293V208.9C56.8293 209.656 57.1093 209.922 57.8933 209.922H58.8313V211H57.6833C56.3253 211 55.5553 210.44 55.5553 208.9ZM60.3749 211V200.64H61.6489V204.434C62.1529 203.622 63.1049 203.188 64.1829 203.188C65.8909 203.188 67.2489 204.28 67.2489 206.478V211H65.9889V206.66C65.9889 205.092 65.1349 204.294 63.8469 204.294C62.5449 204.294 61.6489 205.106 61.6489 206.758V211H60.3749ZM72.592 204.28C71.346 204.28 70.31 205.106 70.17 206.604H75.014C75.028 205.106 73.908 204.28 72.592 204.28ZM76.176 208.634C75.784 210.034 74.552 211.126 72.648 211.126C70.464 211.126 68.854 209.586 68.854 207.15C68.854 204.728 70.408 203.202 72.648 203.202C74.874 203.202 76.33 204.77 76.33 206.87C76.33 207.15 76.316 207.374 76.288 207.64H70.156C70.254 209.194 71.346 210.048 72.648 210.048C73.796 210.048 74.524 209.46 74.804 208.634H76.176ZM79.2856 206.828V211H78.0116V203.328H79.2856V204.574C79.7196 203.72 80.5456 203.188 81.7636 203.188V204.504H81.4276C80.2096 204.504 79.2856 205.05 79.2856 206.828ZM88.4647 211L86.0567 203.328H87.3587L89.1227 209.768L91.0267 203.328H92.3287L94.1907 209.782L95.9267 203.328H97.1867L94.7927 211H93.4767L91.6287 204.91L89.7807 211H88.4647ZM98.451 211V203.328H99.725V211H98.451ZM99.109 202.082C98.619 202.082 98.241 201.704 98.241 201.214C98.241 200.724 98.619 200.346 99.109 200.346C99.571 200.346 99.949 200.724 99.949 201.214C99.949 201.704 99.571 202.082 99.109 202.082ZM102.176 208.9V204.378H101.182V203.328H102.176V201.396H103.45V203.328H105.452V204.378H103.45V208.9C103.45 209.656 103.73 209.922 104.514 209.922H105.452V211H104.304C102.946 211 102.176 210.44 102.176 208.9ZM106.996 211V200.64H108.27V204.434C108.774 203.622 109.726 203.188 110.804 203.188C112.512 203.188 113.87 204.28 113.87 206.478V211H112.61V206.66C112.61 205.092 111.756 204.294 110.468 204.294C109.166 204.294 108.27 205.106 108.27 206.758V211H106.996ZM122.595 209.544L124.975 203.328H126.291L121.671 214.612H120.355L121.867 210.916L118.773 203.328H120.187L122.595 209.544ZM134.852 207.15C134.852 209.586 133.102 211.126 130.918 211.126C128.748 211.126 127.096 209.586 127.096 207.15C127.096 204.728 128.804 203.202 130.974 203.202C133.158 203.202 134.852 204.728 134.852 207.15ZM128.398 207.15C128.398 209.096 129.588 210.006 130.918 210.006C132.248 210.006 133.55 209.096 133.55 207.15C133.55 205.218 132.276 204.308 130.96 204.308C129.616 204.308 128.398 205.218 128.398 207.15ZM143.331 203.328V211H142.057V209.866C141.567 210.664 140.629 211.112 139.607 211.112C137.843 211.112 136.457 210.02 136.457 207.822V203.328H137.717V207.654C137.717 209.208 138.571 210.006 139.859 210.006C141.175 210.006 142.057 209.194 142.057 207.542V203.328H143.331ZM149.495 208.9V204.378H148.501V203.328H149.495V201.396H150.769V203.328H152.771V204.378H150.769V208.9C150.769 209.656 151.049 209.922 151.833 209.922H152.771V211H151.623C150.265 211 149.495 210.44 149.495 208.9ZM161.594 207.15C161.594 209.586 159.844 211.126 157.66 211.126C155.49 211.126 153.838 209.586 153.838 207.15C153.838 204.728 155.546 203.202 157.716 203.202C159.9 203.202 161.594 204.728 161.594 207.15ZM155.14 207.15C155.14 209.096 156.33 210.006 157.66 210.006C158.99 210.006 160.292 209.096 160.292 207.15C160.292 205.218 159.018 204.308 157.702 204.308C156.358 204.308 155.14 205.218 155.14 207.15ZM170.264 204.28C169.018 204.28 167.982 205.106 167.842 206.604H172.686C172.7 205.106 171.58 204.28 170.264 204.28ZM173.848 208.634C173.456 210.034 172.224 211.126 170.32 211.126C168.136 211.126 166.526 209.586 166.526 207.15C166.526 204.728 168.08 203.202 170.32 203.202C172.546 203.202 174.002 204.77 174.002 206.87C174.002 207.15 173.988 207.374 173.96 207.64H167.828C167.926 209.194 169.018 210.048 170.32 210.048C171.468 210.048 172.196 209.46 172.476 208.634H173.848ZM181.297 211V206.66C181.297 205.092 180.443 204.294 179.155 204.294C177.853 204.294 176.957 205.106 176.957 206.758V211H175.683V203.328H176.957V204.42C177.461 203.622 178.385 203.188 179.421 203.188C181.199 203.188 182.557 204.28 182.557 206.478V211H181.297ZM190.155 208.914C190.155 210.174 189.049 211.126 187.355 211.126C185.563 211.126 184.303 210.146 184.219 208.746H185.535C185.605 209.488 186.263 210.048 187.341 210.048C188.349 210.048 188.909 209.544 188.909 208.914C188.909 207.206 184.373 208.2 184.373 205.344C184.373 204.168 185.479 203.202 187.187 203.202C188.881 203.202 190.001 204.112 190.085 205.61H188.811C188.755 204.84 188.167 204.28 187.145 204.28C186.207 204.28 185.647 204.728 185.647 205.344C185.647 207.164 190.099 206.17 190.155 208.914ZM198.757 203.328V211H197.483V209.866C196.993 210.664 196.055 211.112 195.033 211.112C193.269 211.112 191.883 210.02 191.883 207.822V203.328H193.143V207.654C193.143 209.208 193.997 210.006 195.285 210.006C196.601 210.006 197.483 209.194 197.483 207.542V203.328H198.757ZM202.182 206.828V211H200.908V203.328H202.182V204.574C202.616 203.72 203.442 203.188 204.66 203.188V204.504H204.324C203.106 204.504 202.182 205.05 202.182 206.828ZM209.393 204.28C208.147 204.28 207.111 205.106 206.971 206.604H211.815C211.829 205.106 210.709 204.28 209.393 204.28ZM212.977 208.634C212.585 210.034 211.353 211.126 209.449 211.126C207.265 211.126 205.655 209.586 205.655 207.15C205.655 204.728 207.209 203.202 209.449 203.202C211.675 203.202 213.131 204.77 213.131 206.87C213.131 207.15 213.117 207.374 213.089 207.64H206.957C207.055 209.194 208.147 210.048 209.449 210.048C210.597 210.048 211.325 209.46 211.605 208.634H212.977ZM218.825 208.9V204.378H217.831V203.328H218.825V201.396H220.099V203.328H222.101V204.378H220.099V208.9C220.099 209.656 220.379 209.922 221.163 209.922H222.101V211H220.953C219.595 211 218.825 210.44 218.825 208.9ZM223.644 211V200.64H224.918V204.434C225.422 203.622 226.374 203.188 227.452 203.188C229.16 203.188 230.518 204.28 230.518 206.478V211H229.258V206.66C229.258 205.092 228.404 204.294 227.116 204.294C225.814 204.294 224.918 205.106 224.918 206.758V211H223.644ZM235.861 204.28C234.615 204.28 233.579 205.106 233.439 206.604H238.283C238.297 205.106 237.177 204.28 235.861 204.28ZM239.445 208.634C239.053 210.034 237.821 211.126 235.917 211.126C233.733 211.126 232.123 209.586 232.123 207.15C232.123 204.728 233.677 203.202 235.917 203.202C238.143 203.202 239.599 204.77 239.599 206.87C239.599 207.15 239.585 207.374 239.557 207.64H233.425C233.523 209.194 234.615 210.048 235.917 210.048C237.065 210.048 237.793 209.46 238.073 208.634H239.445ZM24.352 224.742C24.814 223.93 25.822 223.202 27.222 223.202C29.28 223.202 30.862 224.742 30.862 227.136C30.862 229.516 29.28 231.126 27.222 231.126C25.822 231.126 24.828 230.37 24.352 229.586V234.64H23.078V223.328H24.352V224.742ZM29.56 227.136C29.56 225.33 28.37 224.308 26.956 224.308C25.57 224.308 24.352 225.372 24.352 227.15C24.352 228.956 25.57 230.006 26.956 230.006C28.37 230.006 29.56 228.942 29.56 227.136ZM33.8129 226.828V231H32.5389V223.328H33.8129V224.574C34.2469 223.72 35.0729 223.188 36.2909 223.188V224.504H35.9549C34.7369 224.504 33.8129 225.05 33.8129 226.828ZM45.0416 227.15C45.0416 229.586 43.2916 231.126 41.1076 231.126C38.9376 231.126 37.2856 229.586 37.2856 227.15C37.2856 224.728 38.9936 223.202 41.1636 223.202C43.3476 223.202 45.0416 224.728 45.0416 227.15ZM38.5876 227.15C38.5876 229.096 39.7776 230.006 41.1076 230.006C42.4376 230.006 43.7396 229.096 43.7396 227.15C43.7396 225.218 42.4656 224.308 41.1496 224.308C39.8056 224.308 38.5876 225.218 38.5876 227.15ZM46.2407 227.136C46.2407 224.742 47.8227 223.202 49.8947 223.202C51.0987 223.202 52.2047 223.818 52.7367 224.7V220.64H54.0247V231H52.7367V229.558C52.2747 230.412 51.2807 231.126 49.8807 231.126C47.8227 231.126 46.2407 229.516 46.2407 227.136ZM52.7367 227.15C52.7367 225.372 51.5327 224.308 50.1327 224.308C48.7327 224.308 47.5427 225.33 47.5427 227.136C47.5427 228.942 48.7327 230.006 50.1327 230.006C51.5327 230.006 52.7367 228.956 52.7367 227.15ZM62.9816 223.328V231H61.7076V229.866C61.2176 230.664 60.2796 231.112 59.2576 231.112C57.4936 231.112 56.1076 230.02 56.1076 227.822V223.328H57.3676V227.654C57.3676 229.208 58.2216 230.006 59.5096 230.006C60.8256 230.006 61.7076 229.194 61.7076 227.542V223.328H62.9816ZM64.6567 227.15C64.6567 224.742 66.2107 223.202 68.3947 223.202C70.2987 223.202 71.5447 224.182 71.9367 225.792H70.5647C70.2987 224.868 69.5287 224.28 68.3947 224.28C66.9947 224.28 65.9587 225.274 65.9587 227.15C65.9587 229.054 66.9947 230.048 68.3947 230.048C69.5287 230.048 70.2847 229.502 70.5647 228.536H71.9367C71.5447 230.062 70.2987 231.126 68.3947 231.126C66.2107 231.126 64.6567 229.586 64.6567 227.15ZM73.9166 228.9V224.378H72.9226V223.328H73.9166V221.396H75.1906V223.328H77.1926V224.378H75.1906V228.9C75.1906 229.656 75.4706 229.922 76.2546 229.922H77.1926V231H76.0446C74.6866 231 73.9166 230.44 73.9166 228.9ZM82.4686 231V223.328H83.7426V231H82.4686ZM83.1266 222.082C82.6366 222.082 82.2586 221.704 82.2586 221.214C82.2586 220.724 82.6366 220.346 83.1266 220.346C83.5886 220.346 83.9666 220.724 83.9666 221.214C83.9666 221.704 83.5886 222.082 83.1266 222.082ZM91.4299 228.914C91.4299 230.174 90.3239 231.126 88.6299 231.126C86.8379 231.126 85.5779 230.146 85.4939 228.746H86.8099C86.8799 229.488 87.5379 230.048 88.6159 230.048C89.6239 230.048 90.1839 229.544 90.1839 228.914C90.1839 227.206 85.6479 228.2 85.6479 225.344C85.6479 224.168 86.7539 223.202 88.4619 223.202C90.1559 223.202 91.2759 224.112 91.3599 225.61H90.0859C90.0299 224.84 89.4419 224.28 88.4199 224.28C87.4819 224.28 86.9219 224.728 86.9219 225.344C86.9219 227.164 91.3739 226.17 91.4299 228.914ZM97.2408 228.9V224.378H96.2468V223.328H97.2408V221.396H98.5148V223.328H100.517V224.378H98.5148V228.9C98.5148 229.656 98.7948 229.922 99.5788 229.922H100.517V231H99.3688C98.0108 231 97.2408 230.44 97.2408 228.9ZM109.34 227.15C109.34 229.586 107.59 231.126 105.406 231.126C103.236 231.126 101.584 229.586 101.584 227.15C101.584 224.728 103.292 223.202 105.462 223.202C107.646 223.202 109.34 224.728 109.34 227.15ZM102.886 227.15C102.886 229.096 104.076 230.006 105.406 230.006C106.736 230.006 108.038 229.096 108.038 227.15C108.038 225.218 106.764 224.308 105.448 224.308C104.104 224.308 102.886 225.218 102.886 227.15ZM111.296 228.9V224.378H110.302V223.328H111.296V221.396H112.57V223.328H114.572V224.378H112.57V228.9C112.57 229.656 112.85 229.922 113.633 229.922H114.572V231H113.424C112.066 231 111.296 230.44 111.296 228.9ZM115.639 227.136C115.639 224.742 117.221 223.202 119.279 223.202C120.707 223.202 121.687 223.93 122.135 224.728V223.328H123.423V231H122.135V229.572C121.673 230.398 120.679 231.126 119.265 231.126C117.221 231.126 115.639 229.516 115.639 227.136ZM122.135 227.15C122.135 225.372 120.931 224.308 119.531 224.308C118.131 224.308 116.941 225.33 116.941 227.136C116.941 228.942 118.131 230.006 119.531 230.006C120.931 230.006 122.135 228.956 122.135 227.15ZM125.576 231V220.64H126.85V231H125.576ZM129.021 231V220.64H130.295V231H129.021ZM135.379 229.544L137.759 223.328H139.075L134.455 234.612H133.139L134.651 230.916L131.557 223.328H132.971L135.379 229.544ZM150.892 223.328V231H149.618V229.866C149.128 230.664 148.19 231.112 147.168 231.112C145.404 231.112 144.018 230.02 144.018 227.822V223.328H145.278V227.654C145.278 229.208 146.132 230.006 147.42 230.006C148.736 230.006 149.618 229.194 149.618 227.542V223.328H150.892ZM154.317 224.742C154.779 223.93 155.787 223.202 157.187 223.202C159.245 223.202 160.827 224.742 160.827 227.136C160.827 229.516 159.245 231.126 157.187 231.126C155.787 231.126 154.793 230.37 154.317 229.586V234.64H153.043V223.328H154.317V224.742ZM159.525 227.136C159.525 225.33 158.335 224.308 156.921 224.308C155.535 224.308 154.317 225.372 154.317 227.15C154.317 228.956 155.535 230.006 156.921 230.006C158.335 230.006 159.525 228.942 159.525 227.136ZM166.516 228.9V224.378H165.522V223.328H166.516V221.396H167.79V223.328H169.792V224.378H167.79V228.9C167.79 229.656 168.07 229.922 168.854 229.922H169.792V231H168.644C167.286 231 166.516 230.44 166.516 228.9ZM178.616 227.15C178.616 229.586 176.866 231.126 174.682 231.126C172.512 231.126 170.86 229.586 170.86 227.15C170.86 224.728 172.568 223.202 174.738 223.202C176.922 223.202 178.616 224.728 178.616 227.15ZM172.162 227.15C172.162 229.096 173.352 230.006 174.682 230.006C176.012 230.006 177.314 229.096 177.314 227.15C177.314 225.218 176.04 224.308 174.724 224.308C173.38 224.308 172.162 225.218 172.162 227.15ZM185.297 224.742C185.759 223.93 186.767 223.202 188.167 223.202C190.225 223.202 191.807 224.742 191.807 227.136C191.807 229.516 190.225 231.126 188.167 231.126C186.767 231.126 185.773 230.37 185.297 229.586V234.64H184.023V223.328H185.297V224.742ZM190.505 227.136C190.505 225.33 189.315 224.308 187.901 224.308C186.515 224.308 185.297 225.372 185.297 227.15C185.297 228.956 186.515 230.006 187.901 230.006C189.315 230.006 190.505 228.942 190.505 227.136ZM193.008 227.136C193.008 224.742 194.59 223.202 196.648 223.202C198.076 223.202 199.056 223.93 199.504 224.728V223.328H200.792V231H199.504V229.572C199.042 230.398 198.048 231.126 196.634 231.126C194.59 231.126 193.008 229.516 193.008 227.136ZM199.504 227.15C199.504 225.372 198.3 224.308 196.9 224.308C195.5 224.308 194.31 225.33 194.31 227.136C194.31 228.942 195.5 230.006 196.9 230.006C198.3 230.006 199.504 228.956 199.504 227.15ZM204.219 226.828V231H202.945V223.328H204.219V224.574C204.653 223.72 205.479 223.188 206.697 223.188V224.504H206.361C205.143 224.504 204.219 225.05 204.219 226.828ZM211.424 227.136C211.424 224.742 213.006 223.202 215.064 223.202C216.492 223.202 217.472 223.93 217.92 224.728V223.328H219.208V231H217.92V229.572C217.458 230.398 216.464 231.126 215.05 231.126C213.006 231.126 211.424 229.516 211.424 227.136ZM217.92 227.15C217.92 225.372 216.716 224.308 215.316 224.308C213.916 224.308 212.726 225.33 212.726 227.136C212.726 228.942 213.916 230.006 215.316 230.006C216.716 230.006 217.92 228.956 217.92 227.15ZM226.975 231V226.66C226.975 225.092 226.121 224.294 224.833 224.294C223.531 224.294 222.635 225.106 222.635 226.758V231H221.361V223.328H222.635V224.42C223.139 223.622 224.063 223.188 225.099 223.188C226.877 223.188 228.235 224.28 228.235 226.478V231H226.975ZM229.84 227.136C229.84 224.742 231.422 223.202 233.494 223.202C234.698 223.202 235.804 223.818 236.336 224.7V220.64H237.624V231H236.336V229.558C235.874 230.412 234.88 231.126 233.48 231.126C231.422 231.126 229.84 229.516 229.84 227.136ZM236.336 227.15C236.336 225.372 235.132 224.308 233.732 224.308C232.332 224.308 231.142 225.33 231.142 227.136C231.142 228.942 232.332 230.006 233.732 230.006C235.132 230.006 236.336 228.956 236.336 227.15ZM24.352 246.828V251H23.078V243.328H24.352V244.574C24.786 243.72 25.612 243.188 26.83 243.188V244.504H26.494C25.276 244.504 24.352 245.05 24.352 246.828ZM31.5627 244.28C30.3167 244.28 29.2807 245.106 29.1407 246.604H33.9847C33.9987 245.106 32.8787 244.28 31.5627 244.28ZM35.1467 248.634C34.7547 250.034 33.5227 251.126 31.6187 251.126C29.4347 251.126 27.8247 249.586 27.8247 247.15C27.8247 244.728 29.3787 243.202 31.6187 243.202C33.8447 243.202 35.3007 244.77 35.3007 246.87C35.3007 247.15 35.2867 247.374 35.2587 247.64H29.1267C29.2247 249.194 30.3167 250.048 31.6187 250.048C32.7667 250.048 33.4947 249.46 33.7747 248.634H35.1467ZM36.5063 247.136C36.5063 244.742 38.0883 243.202 40.1463 243.202C41.5743 243.202 42.5543 243.93 43.0023 244.728V243.328H44.2903V251H43.0023V249.572C42.5403 250.398 41.5463 251.126 40.1323 251.126C38.0883 251.126 36.5063 249.516 36.5063 247.136ZM43.0023 247.15C43.0023 245.372 41.7983 244.308 40.3983 244.308C38.9983 244.308 37.8083 245.33 37.8083 247.136C37.8083 248.942 38.9983 250.006 40.3983 250.006C41.7983 250.006 43.0023 248.956 43.0023 247.15ZM45.9672 247.136C45.9672 244.742 47.5492 243.202 49.6212 243.202C50.8252 243.202 51.9312 243.818 52.4632 244.7V240.64H53.7512V251H52.4632V249.558C52.0012 250.412 51.0072 251.126 49.6072 251.126C47.5492 251.126 45.9672 249.516 45.9672 247.136ZM52.4632 247.15C52.4632 245.372 51.2592 244.308 49.8592 244.308C48.4592 244.308 47.2692 245.33 47.2692 247.136C47.2692 248.942 48.4592 250.006 49.8592 250.006C51.2592 250.006 52.4632 248.956 52.4632 247.15ZM58.8162 249.544L61.1962 243.328H62.5122L57.8922 254.612H56.5762L58.0882 250.916L54.9942 243.328H56.4082L58.8162 249.544ZM67.7633 251V244.378H66.7693V243.328H67.7633V242.782C67.7633 241.074 68.6033 240.304 70.5633 240.304V241.368C69.4153 241.368 69.0373 241.788 69.0373 242.782V243.328H70.6473V244.378H69.0373V251H67.7633ZM79.4127 247.15C79.4127 249.586 77.6627 251.126 75.4787 251.126C73.3087 251.126 71.6567 249.586 71.6567 247.15C71.6567 244.728 73.3647 243.202 75.5347 243.202C77.7187 243.202 79.4127 244.728 79.4127 247.15ZM72.9587 247.15C72.9587 249.096 74.1487 250.006 75.4787 250.006C76.8087 250.006 78.1107 249.096 78.1107 247.15C78.1107 245.218 76.8367 244.308 75.5207 244.308C74.1767 244.308 72.9587 245.218 72.9587 247.15ZM82.3618 246.828V251H81.0878V243.328H82.3618V244.574C82.7958 243.72 83.6218 243.188 84.8398 243.188V244.504H84.5038C83.2858 244.504 82.3618 245.05 82.3618 246.828ZM89.5668 247.136C89.5668 244.742 91.1488 243.202 93.2068 243.202C94.6348 243.202 95.6148 243.93 96.0628 244.728V243.328H97.3508V251H96.0628V249.572C95.6008 250.398 94.6068 251.126 93.1928 251.126C91.1488 251.126 89.5668 249.516 89.5668 247.136ZM96.0628 247.15C96.0628 245.372 94.8588 244.308 93.4588 244.308C92.0588 244.308 90.8688 245.33 90.8688 247.136C90.8688 248.942 92.0588 250.006 93.4588 250.006C94.8588 250.006 96.0628 248.956 96.0628 247.15ZM104.51 244.742C104.972 243.93 105.98 243.202 107.38 243.202C109.438 243.202 111.02 244.742 111.02 247.136C111.02 249.516 109.438 251.126 107.38 251.126C105.98 251.126 104.986 250.37 104.51 249.586V254.64H103.236V243.328H104.51V244.742ZM109.718 247.136C109.718 245.33 108.528 244.308 107.114 244.308C105.728 244.308 104.51 245.372 104.51 247.15C104.51 248.956 105.728 250.006 107.114 250.006C108.528 250.006 109.718 248.942 109.718 247.136ZM119.501 243.328V251H118.227V249.866C117.737 250.664 116.799 251.112 115.777 251.112C114.013 251.112 112.627 250.02 112.627 247.822V243.328H113.887V247.654C113.887 249.208 114.741 250.006 116.029 250.006C117.345 250.006 118.227 249.194 118.227 247.542V243.328H119.501ZM122.926 244.756C123.416 243.902 124.438 243.202 125.796 243.202C127.868 243.202 129.436 244.742 129.436 247.136C129.436 249.516 127.854 251.126 125.796 251.126C124.396 251.126 123.402 250.426 122.926 249.586V251H121.652V240.64H122.926V244.756ZM128.134 247.136C128.134 245.33 126.944 244.308 125.53 244.308C124.144 244.308 122.926 245.372 122.926 247.15C122.926 248.956 124.144 250.006 125.53 250.006C126.944 250.006 128.134 248.942 128.134 247.136ZM131.113 251V240.64H132.387V251H131.113ZM134.558 251V243.328H135.832V251H134.558ZM135.216 242.082C134.726 242.082 134.348 241.704 134.348 241.214C134.348 240.724 134.726 240.346 135.216 240.346C135.678 240.346 136.056 240.724 136.056 241.214C136.056 241.704 135.678 242.082 135.216 242.082ZM137.528 247.15C137.528 244.742 139.082 243.202 141.266 243.202C143.17 243.202 144.416 244.182 144.808 245.792H143.436C143.17 244.868 142.4 244.28 141.266 244.28C139.866 244.28 138.83 245.274 138.83 247.15C138.83 249.054 139.866 250.048 141.266 250.048C142.4 250.048 143.156 249.502 143.436 248.536H144.808C144.416 250.062 143.17 251.126 141.266 251.126C139.082 251.126 137.528 249.586 137.528 247.15ZM151.514 246.828V251H150.24V243.328H151.514V244.574C151.948 243.72 152.774 243.188 153.992 243.188V244.504H153.656C152.438 244.504 151.514 245.05 151.514 246.828ZM158.725 244.28C157.479 244.28 156.443 245.106 156.303 246.604H161.147C161.161 245.106 160.041 244.28 158.725 244.28ZM162.309 248.634C161.917 250.034 160.685 251.126 158.781 251.126C156.597 251.126 154.987 249.586 154.987 247.15C154.987 244.728 156.541 243.202 158.781 243.202C161.007 243.202 162.463 244.77 162.463 246.87C162.463 247.15 162.449 247.374 162.421 247.64H156.289C156.387 249.194 157.479 250.048 158.781 250.048C159.929 250.048 160.657 249.46 160.937 248.634H162.309ZM164.144 251V240.64H165.418V251H164.144ZM170.852 244.28C169.606 244.28 168.57 245.106 168.43 246.604H173.274C173.288 245.106 172.168 244.28 170.852 244.28ZM174.436 248.634C174.044 250.034 172.812 251.126 170.908 251.126C168.724 251.126 167.114 249.586 167.114 247.15C167.114 244.728 168.668 243.202 170.908 243.202C173.134 243.202 174.59 244.77 174.59 246.87C174.59 247.15 174.576 247.374 174.548 247.64H168.416C168.514 249.194 169.606 250.048 170.908 250.048C172.056 250.048 172.784 249.46 173.064 248.634H174.436ZM175.795 247.136C175.795 244.742 177.377 243.202 179.435 243.202C180.863 243.202 181.843 243.93 182.291 244.728V243.328H183.579V251H182.291V249.572C181.829 250.398 180.835 251.126 179.421 251.126C177.377 251.126 175.795 249.516 175.795 247.136ZM182.291 247.15C182.291 245.372 181.087 244.308 179.687 244.308C178.287 244.308 177.097 245.33 177.097 247.136C177.097 248.942 178.287 250.006 179.687 250.006C181.087 250.006 182.291 248.956 182.291 247.15ZM191.248 248.914C191.248 250.174 190.142 251.126 188.448 251.126C186.656 251.126 185.396 250.146 185.312 248.746H186.628C186.698 249.488 187.356 250.048 188.434 250.048C189.442 250.048 190.002 249.544 190.002 248.914C190.002 247.206 185.466 248.2 185.466 245.344C185.466 244.168 186.572 243.202 188.28 243.202C189.974 243.202 191.094 244.112 191.178 245.61H189.904C189.848 244.84 189.26 244.28 188.238 244.28C187.3 244.28 186.74 244.728 186.74 245.344C186.74 247.164 191.192 246.17 191.248 248.914ZM196.309 244.28C195.063 244.28 194.027 245.106 193.887 246.604H198.731C198.745 245.106 197.625 244.28 196.309 244.28ZM199.893 248.634C199.501 250.034 198.269 251.126 196.365 251.126C194.181 251.126 192.571 249.586 192.571 247.15C192.571 244.728 194.125 243.202 196.365 243.202C198.591 243.202 200.047 244.77 200.047 246.87C200.047 247.15 200.033 247.374 200.005 247.64H193.873C193.971 249.194 195.063 250.048 196.365 250.048C197.513 250.048 198.241 249.46 198.521 248.634H199.893ZM202.974 250.216C202.974 250.706 202.596 251.084 202.134 251.084C201.644 251.084 201.266 250.706 201.266 250.216C201.266 249.726 201.644 249.348 202.134 249.348C202.596 249.348 202.974 249.726 202.974 250.216Z" fill="#4F668E"/>
</svg>
