<svg width="250" height="247" viewBox="0 0 250 247" fill="none" xmlns="http://www.w3.org/2000/svg">
<path d="M70.9393 246.061C71.5251 246.646 72.4749 246.646 73.0607 246.061L82.6066 236.515C83.1924 235.929 83.1924 234.979 82.6066 234.393C82.0208 233.808 81.0711 233.808 80.4853 234.393L72 242.879L63.5147 234.393C62.9289 233.808 61.9792 233.808 61.3934 234.393C60.8076 234.979 60.8076 235.929 61.3934 236.515L70.9393 246.061ZM70.5 204V245H73.5V204H70.5Z" fill="#23D9AE"/>
<path d="M54.5042 26H30C14.536 26 2 38.536 2 54V178C2 193.464 14.536 206 30 206H73" stroke="#23D9AE" stroke-width="3"/>
<circle cx="73" cy="25" r="25" fill="#34B7F2"/>
<path d="M32.38 82.96V85.7H26.66V88.66H30.94V91.32H26.66V97H23.24V82.96H32.38ZM37.5975 87.7C37.9975 87.0867 38.4975 86.6067 39.0975 86.26C39.6975 85.9 40.3642 85.72 41.0975 85.72V89.34H40.1575C39.3042 89.34 38.6642 89.5267 38.2375 89.9C37.8108 90.26 37.5975 90.9 37.5975 91.82V97H34.1775V85.84H37.5975V87.7ZM47.8122 97.16C46.7189 97.16 45.7322 96.9267 44.8522 96.46C43.9855 95.9933 43.2989 95.3267 42.7922 94.46C42.2989 93.5933 42.0522 92.58 42.0522 91.42C42.0522 90.2733 42.3055 89.2667 42.8122 88.4C43.3189 87.52 44.0122 86.8467 44.8922 86.38C45.7722 85.9133 46.7589 85.68 47.8522 85.68C48.9455 85.68 49.9322 85.9133 50.8122 86.38C51.6922 86.8467 52.3855 87.52 52.8922 88.4C53.3989 89.2667 53.6522 90.2733 53.6522 91.42C53.6522 92.5667 53.3922 93.58 52.8722 94.46C52.3655 95.3267 51.6655 95.9933 50.7722 96.46C49.8922 96.9267 48.9055 97.16 47.8122 97.16ZM47.8122 94.2C48.4655 94.2 49.0189 93.96 49.4722 93.48C49.9389 93 50.1722 92.3133 50.1722 91.42C50.1722 90.5267 49.9455 89.84 49.4922 89.36C49.0522 88.88 48.5055 88.64 47.8522 88.64C47.1855 88.64 46.6322 88.88 46.1922 89.36C45.7522 89.8267 45.5322 90.5133 45.5322 91.42C45.5322 92.3133 45.7455 93 46.1722 93.48C46.6122 93.96 47.1589 94.2 47.8122 94.2ZM62.2666 85.72C63.5732 85.72 64.6132 86.1467 65.3866 87C66.1732 87.84 66.5666 89 66.5666 90.48V97H63.1666V90.94C63.1666 90.1933 62.9732 89.6133 62.5866 89.2C62.1999 88.7867 61.6799 88.58 61.0266 88.58C60.3732 88.58 59.8532 88.7867 59.4666 89.2C59.0799 89.6133 58.8866 90.1933 58.8866 90.94V97H55.4666V85.84H58.8866V87.32C59.2332 86.8267 59.6999 86.44 60.2866 86.16C60.8732 85.8667 61.5332 85.72 62.2666 85.72ZM75.1631 94.1V97H73.4231C72.1831 97 71.2165 96.7 70.5231 96.1C69.8298 95.4867 69.4831 94.4933 69.4831 93.12V88.68H68.1231V85.84H69.4831V83.12H72.9031V85.84H75.1431V88.68H72.9031V93.16C72.9031 93.4933 72.9831 93.7333 73.1431 93.88C73.3031 94.0267 73.5698 94.1 73.9431 94.1H75.1631ZM85.6681 88.56V91.4H76.8681V88.56H85.6681ZM99.1897 91.24C99.1897 91.56 99.1697 91.8933 99.1297 92.24H91.3897C91.443 92.9333 91.663 93.4667 92.0497 93.84C92.4497 94.2 92.9364 94.38 93.5097 94.38C94.363 94.38 94.9564 94.02 95.2897 93.3H98.9297C98.743 94.0333 98.403 94.6933 97.9097 95.28C97.4297 95.8667 96.823 96.3267 96.0897 96.66C95.3564 96.9933 94.5364 97.16 93.6297 97.16C92.5364 97.16 91.563 96.9267 90.7097 96.46C89.8564 95.9933 89.1897 95.3267 88.7097 94.46C88.2297 93.5933 87.9897 92.58 87.9897 91.42C87.9897 90.26 88.223 89.2467 88.6897 88.38C89.1697 87.5133 89.8364 86.8467 90.6897 86.38C91.543 85.9133 92.523 85.68 93.6297 85.68C94.7097 85.68 95.6697 85.9067 96.5097 86.36C97.3497 86.8133 98.003 87.46 98.4697 88.3C98.9497 89.14 99.1897 90.12 99.1897 91.24ZM95.6897 90.34C95.6897 89.7533 95.4897 89.2867 95.0897 88.94C94.6897 88.5933 94.1897 88.42 93.5897 88.42C93.0164 88.42 92.5297 88.5867 92.1297 88.92C91.743 89.2533 91.503 89.7267 91.4097 90.34H95.6897ZM107.794 85.72C109.101 85.72 110.141 86.1467 110.914 87C111.701 87.84 112.094 89 112.094 90.48V97H108.694V90.94C108.694 90.1933 108.501 89.6133 108.114 89.2C107.727 88.7867 107.207 88.58 106.554 88.58C105.901 88.58 105.381 88.7867 104.994 89.2C104.607 89.6133 104.414 90.1933 104.414 90.94V97H100.994V85.84H104.414V87.32C104.761 86.8267 105.227 86.44 105.814 86.16C106.401 85.8667 107.061 85.72 107.794 85.72ZM113.79 91.4C113.79 90.2533 114.004 89.2467 114.43 88.38C114.87 87.5133 115.464 86.8467 116.21 86.38C116.957 85.9133 117.79 85.68 118.71 85.68C119.444 85.68 120.11 85.8333 120.71 86.14C121.324 86.4467 121.804 86.86 122.15 87.38V82.2H125.57V97H122.15V95.4C121.83 95.9333 121.37 96.36 120.77 96.68C120.184 97 119.497 97.16 118.71 97.16C117.79 97.16 116.957 96.9267 116.21 96.46C115.464 95.98 114.87 95.3067 114.43 94.44C114.004 93.56 113.79 92.5467 113.79 91.4ZM122.15 91.42C122.15 90.5667 121.91 89.8933 121.43 89.4C120.964 88.9067 120.39 88.66 119.71 88.66C119.03 88.66 118.45 88.9067 117.97 89.4C117.504 89.88 117.27 90.5467 117.27 91.4C117.27 92.2533 117.504 92.9333 117.97 93.44C118.45 93.9333 119.03 94.18 119.71 94.18C120.39 94.18 120.964 93.9333 121.43 93.44C121.91 92.9467 122.15 92.2733 122.15 91.42ZM131.703 89.96C131.703 88.5733 132.003 87.34 132.603 86.26C133.203 85.1667 134.036 84.32 135.103 83.72C136.183 83.1067 137.403 82.8 138.763 82.8C140.43 82.8 141.856 83.24 143.043 84.12C144.23 85 145.023 86.2 145.423 87.72H141.663C141.383 87.1333 140.983 86.6867 140.463 86.38C139.956 86.0733 139.376 85.92 138.723 85.92C137.67 85.92 136.816 86.2867 136.163 87.02C135.51 87.7533 135.183 88.7333 135.183 89.96C135.183 91.1867 135.51 92.1667 136.163 92.9C136.816 93.6333 137.67 94 138.723 94C139.376 94 139.956 93.8467 140.463 93.54C140.983 93.2333 141.383 92.7867 141.663 92.2H145.423C145.023 93.72 144.23 94.92 143.043 95.8C141.856 96.6667 140.43 97.1 138.763 97.1C137.403 97.1 136.183 96.8 135.103 96.2C134.036 95.5867 133.203 94.74 132.603 93.66C132.003 92.58 131.703 91.3467 131.703 89.96ZM152.597 97.16C151.504 97.16 150.517 96.9267 149.637 96.46C148.771 95.9933 148.084 95.3267 147.577 94.46C147.084 93.5933 146.837 92.58 146.837 91.42C146.837 90.2733 147.091 89.2667 147.597 88.4C148.104 87.52 148.797 86.8467 149.677 86.38C150.557 85.9133 151.544 85.68 152.637 85.68C153.731 85.68 154.717 85.9133 155.597 86.38C156.477 86.8467 157.171 87.52 157.677 88.4C158.184 89.2667 158.437 90.2733 158.437 91.42C158.437 92.5667 158.177 93.58 157.657 94.46C157.151 95.3267 156.451 95.9933 155.557 96.46C154.677 96.9267 153.691 97.16 152.597 97.16ZM152.597 94.2C153.251 94.2 153.804 93.96 154.257 93.48C154.724 93 154.957 92.3133 154.957 91.42C154.957 90.5267 154.731 89.84 154.277 89.36C153.837 88.88 153.291 88.64 152.637 88.64C151.971 88.64 151.417 88.88 150.977 89.36C150.537 89.8267 150.317 90.5133 150.317 91.42C150.317 92.3133 150.531 93 150.957 93.48C151.397 93.96 151.944 94.2 152.597 94.2ZM159.572 91.4C159.572 90.2533 159.785 89.2467 160.212 88.38C160.652 87.5133 161.245 86.8467 161.992 86.38C162.738 85.9133 163.572 85.68 164.492 85.68C165.225 85.68 165.892 85.8333 166.492 86.14C167.105 86.4467 167.585 86.86 167.932 87.38V82.2H171.352V97H167.932V95.4C167.612 95.9333 167.152 96.36 166.552 96.68C165.965 97 165.278 97.16 164.492 97.16C163.572 97.16 162.738 96.9267 161.992 96.46C161.245 95.98 160.652 95.3067 160.212 94.44C159.785 93.56 159.572 92.5467 159.572 91.4ZM167.932 91.42C167.932 90.5667 167.692 89.8933 167.212 89.4C166.745 88.9067 166.172 88.66 165.492 88.66C164.812 88.66 164.232 88.9067 163.752 89.4C163.285 89.88 163.052 90.5467 163.052 91.4C163.052 92.2533 163.285 92.9333 163.752 93.44C164.232 93.9333 164.812 94.18 165.492 94.18C166.172 94.18 166.745 93.9333 167.212 93.44C167.692 92.9467 167.932 92.2733 167.932 91.42ZM175.546 84.68C174.946 84.68 174.453 84.5067 174.066 84.16C173.693 83.8 173.506 83.36 173.506 82.84C173.506 82.3067 173.693 81.8667 174.066 81.52C174.453 81.16 174.946 80.98 175.546 80.98C176.133 80.98 176.613 81.16 176.986 81.52C177.373 81.8667 177.566 82.3067 177.566 82.84C177.566 83.36 177.373 83.8 176.986 84.16C176.613 84.5067 176.133 84.68 175.546 84.68ZM177.246 85.84V97H173.826V85.84H177.246ZM186.524 85.72C187.831 85.72 188.871 86.1467 189.644 87C190.431 87.84 190.824 89 190.824 90.48V97H187.424V90.94C187.424 90.1933 187.231 89.6133 186.844 89.2C186.458 88.7867 185.938 88.58 185.284 88.58C184.631 88.58 184.111 88.7867 183.724 89.2C183.338 89.6133 183.144 90.1933 183.144 90.94V97H179.724V85.84H183.144V87.32C183.491 86.8267 183.958 86.44 184.544 86.16C185.131 85.8667 185.791 85.72 186.524 85.72ZM197.441 85.68C198.228 85.68 198.914 85.84 199.501 86.16C200.101 86.48 200.561 86.9 200.881 87.42V85.84H204.301V96.98C204.301 98.0067 204.094 98.9333 203.681 99.76C203.281 100.6 202.661 101.267 201.821 101.76C200.994 102.253 199.961 102.5 198.721 102.5C197.068 102.5 195.728 102.107 194.701 101.32C193.674 100.547 193.088 99.4933 192.941 98.16H196.321C196.428 98.5867 196.681 98.92 197.081 99.16C197.481 99.4133 197.974 99.54 198.561 99.54C199.268 99.54 199.828 99.3333 200.241 98.92C200.668 98.52 200.881 97.8733 200.881 96.98V95.4C200.548 95.92 200.088 96.3467 199.501 96.68C198.914 97 198.228 97.16 197.441 97.16C196.521 97.16 195.688 96.9267 194.941 96.46C194.194 95.98 193.601 95.3067 193.161 94.44C192.734 93.56 192.521 92.5467 192.521 91.4C192.521 90.2533 192.734 89.2467 193.161 88.38C193.601 87.5133 194.194 86.8467 194.941 86.38C195.688 85.9133 196.521 85.68 197.441 85.68ZM200.881 91.42C200.881 90.5667 200.641 89.8933 200.161 89.4C199.694 88.9067 199.121 88.66 198.441 88.66C197.761 88.66 197.181 88.9067 196.701 89.4C196.234 89.88 196.001 90.5467 196.001 91.4C196.001 92.2533 196.234 92.9333 196.701 93.44C197.181 93.9333 197.761 94.18 198.441 94.18C199.121 94.18 199.694 93.9333 200.161 93.44C200.641 92.9467 200.881 92.2733 200.881 91.42Z" fill="#336082"/>
<path d="M69.5508 24.0312V23.6211C70.4414 23.3633 71.0586 23.125 71.4023 22.9062C71.7461 22.6797 72.043 22.3398 72.293 21.8867C72.543 21.4258 72.668 20.9609 72.668 20.4922C72.668 19.8438 72.4297 19.2891 71.9531 18.8281C71.4844 18.3594 70.8984 18.125 70.1953 18.125C69.1016 18.125 68.1719 18.7031 67.4062 19.8594L66.9727 19.707C67.5352 18.4023 68.2539 17.4219 69.1289 16.7656C70.0117 16.1094 70.9922 15.7812 72.0703 15.7812C73.1719 15.7812 74.0781 16.1172 74.7891 16.7891C75.5078 17.4609 75.8672 18.2461 75.8672 19.1445C75.8672 19.7305 75.6992 20.2969 75.3633 20.8438C75.0352 21.3828 74.5156 21.8594 73.8047 22.2734C74.7188 22.7188 75.4141 23.2695 75.8906 23.9258C76.375 24.5742 76.6172 25.3906 76.6172 26.375C76.6172 28.0312 76.0156 29.4414 74.8125 30.6055C73.6172 31.7617 72.0117 32.3398 69.9961 32.3398C68.6523 32.3398 67.6719 32.1172 67.0547 31.6719C66.6094 31.3594 66.3867 30.957 66.3867 30.4648C66.3867 30.1055 66.5156 29.8008 66.7734 29.5508C67.0312 29.293 67.3281 29.1641 67.6641 29.1641C67.9219 29.1641 68.1641 29.2188 68.3906 29.3281C68.5156 29.3906 68.957 29.7344 69.7148 30.3594C70.4805 30.9766 71.1953 31.2852 71.8594 31.2852C72.4375 31.2852 72.9336 31.0586 73.3477 30.6055C73.7617 30.1445 73.9688 29.5625 73.9688 28.8594C73.9688 27.7891 73.5938 26.8047 72.8438 25.9062C72.0938 25 70.9961 24.375 69.5508 24.0312Z" fill="white"/>
<path d="M22.476 115.278V114.242H29.084V115.278H26.424V124H25.15V115.278H22.476ZM30.6522 124V113.64H31.9262V117.434C32.4302 116.622 33.3822 116.188 34.4602 116.188C36.1682 116.188 37.5262 117.28 37.5262 119.478V124H36.2662V119.66C36.2662 118.092 35.4122 117.294 34.1242 117.294C32.8222 117.294 31.9262 118.106 31.9262 119.758V124H30.6522ZM39.6073 124V116.328H40.8813V124H39.6073ZM40.2653 115.082C39.7753 115.082 39.3973 114.704 39.3973 114.214C39.3973 113.724 39.7753 113.346 40.2653 113.346C40.7273 113.346 41.1053 113.724 41.1053 114.214C41.1053 114.704 40.7273 115.082 40.2653 115.082ZM48.5686 121.914C48.5686 123.174 47.4626 124.126 45.7686 124.126C43.9766 124.126 42.7166 123.146 42.6326 121.746H43.9486C44.0186 122.488 44.6766 123.048 45.7546 123.048C46.7626 123.048 47.3226 122.544 47.3226 121.914C47.3226 120.206 42.7866 121.2 42.7866 118.344C42.7866 117.168 43.8926 116.202 45.6006 116.202C47.2946 116.202 48.4146 117.112 48.4986 118.61H47.2246C47.1686 117.84 46.5806 117.28 45.5586 117.28C44.6206 117.28 44.0606 117.728 44.0606 118.344C44.0606 120.164 48.5126 119.17 48.5686 121.914ZM59.6155 121.914C59.6155 123.174 58.5095 124.126 56.8155 124.126C55.0235 124.126 53.7635 123.146 53.6795 121.746H54.9955C55.0655 122.488 55.7235 123.048 56.8015 123.048C57.8095 123.048 58.3695 122.544 58.3695 121.914C58.3695 120.206 53.8335 121.2 53.8335 118.344C53.8335 117.168 54.9395 116.202 56.6475 116.202C58.3415 116.202 59.4615 117.112 59.5455 118.61H58.2715C58.2155 117.84 57.6275 117.28 56.6055 117.28C55.6675 117.28 55.1075 117.728 55.1075 118.344C55.1075 120.164 59.5595 119.17 59.6155 121.914ZM61.6939 121.9V117.378H60.6999V116.328H61.6939V114.396H62.9679V116.328H64.9699V117.378H62.9679V121.9C62.9679 122.656 63.2479 122.922 64.0319 122.922H64.9699V124H63.8219C62.4639 124 61.6939 123.44 61.6939 121.9ZM66.0375 120.136C66.0375 117.742 67.6195 116.202 69.6775 116.202C71.1055 116.202 72.0855 116.93 72.5335 117.728V116.328H73.8215V124H72.5335V122.572C72.0715 123.398 71.0775 124.126 69.6635 124.126C67.6195 124.126 66.0375 122.516 66.0375 120.136ZM72.5335 120.15C72.5335 118.372 71.3295 117.308 69.9295 117.308C68.5295 117.308 67.3395 118.33 67.3395 120.136C67.3395 121.942 68.5295 123.006 69.9295 123.006C71.3295 123.006 72.5335 121.956 72.5335 120.15ZM75.4985 120.136C75.4985 117.742 77.0805 116.202 79.1385 116.202C80.5385 116.202 81.5465 116.902 81.9945 117.728V116.328H83.2825V124.168C83.2825 126.282 81.8685 127.78 79.6145 127.78C77.5985 127.78 76.1565 126.758 75.9045 125.12H77.1645C77.4445 126.044 78.3545 126.674 79.6145 126.674C80.9725 126.674 81.9945 125.806 81.9945 124.168V122.558C81.5325 123.384 80.5385 124.126 79.1385 124.126C77.0805 124.126 75.4985 122.516 75.4985 120.136ZM81.9945 120.15C81.9945 118.372 80.7905 117.308 79.3905 117.308C77.9905 117.308 76.8005 118.33 76.8005 120.136C76.8005 121.942 77.9905 123.006 79.3905 123.006C80.7905 123.006 81.9945 121.956 81.9945 120.15ZM88.6974 117.28C87.4514 117.28 86.4154 118.106 86.2754 119.604H91.1194C91.1334 118.106 90.0134 117.28 88.6974 117.28ZM92.2814 121.634C91.8894 123.034 90.6574 124.126 88.7534 124.126C86.5694 124.126 84.9594 122.586 84.9594 120.15C84.9594 117.728 86.5134 116.202 88.7534 116.202C90.9794 116.202 92.4354 117.77 92.4354 119.87C92.4354 120.15 92.4214 120.374 92.3934 120.64H86.2614C86.3594 122.194 87.4514 123.048 88.7534 123.048C89.9014 123.048 90.6294 122.46 90.9094 121.634H92.2814ZM97.8495 124V116.328H99.1235V124H97.8495ZM98.5075 115.082C98.0175 115.082 97.6395 114.704 97.6395 114.214C97.6395 113.724 98.0175 113.346 98.5075 113.346C98.9695 113.346 99.3475 113.724 99.3475 114.214C99.3475 114.704 98.9695 115.082 98.5075 115.082ZM106.909 124V119.66C106.909 118.092 106.055 117.294 104.767 117.294C103.465 117.294 102.569 118.106 102.569 119.758V124H101.295V116.328H102.569V117.42C103.073 116.622 103.997 116.188 105.033 116.188C106.811 116.188 108.169 117.28 108.169 119.478V124H106.909ZM109.34 116.328H110.712L113.106 122.824L115.486 116.328H116.844L113.834 124H112.35L109.34 116.328ZM125.378 120.15C125.378 122.586 123.628 124.126 121.444 124.126C119.274 124.126 117.622 122.586 117.622 120.15C117.622 117.728 119.33 116.202 121.5 116.202C123.684 116.202 125.378 117.728 125.378 120.15ZM118.924 120.15C118.924 122.096 120.114 123.006 121.444 123.006C122.774 123.006 124.076 122.096 124.076 120.15C124.076 118.218 122.802 117.308 121.486 117.308C120.142 117.308 118.924 118.218 118.924 120.15ZM127.053 124V113.64H128.327V124H127.053ZM129.588 116.328H130.96L133.354 122.824L135.734 116.328H137.092L134.082 124H132.598L129.588 116.328ZM141.608 117.28C140.362 117.28 139.326 118.106 139.186 119.604H144.03C144.044 118.106 142.924 117.28 141.608 117.28ZM145.192 121.634C144.8 123.034 143.568 124.126 141.664 124.126C139.48 124.126 137.87 122.586 137.87 120.15C137.87 117.728 139.424 116.202 141.664 116.202C143.89 116.202 145.346 117.77 145.346 119.87C145.346 120.15 145.332 120.374 145.304 120.64H139.172C139.27 122.194 140.362 123.048 141.664 123.048C142.812 123.048 143.54 122.46 143.82 121.634H145.192ZM152.543 121.914C152.543 123.174 151.437 124.126 149.743 124.126C147.951 124.126 146.691 123.146 146.607 121.746H147.923C147.993 122.488 148.651 123.048 149.729 123.048C150.737 123.048 151.297 122.544 151.297 121.914C151.297 120.206 146.761 121.2 146.761 118.344C146.761 117.168 147.867 116.202 149.575 116.202C151.269 116.202 152.389 117.112 152.473 118.61H151.199C151.143 117.84 150.555 117.28 149.533 117.28C148.595 117.28 148.035 117.728 148.035 118.344C148.035 120.164 152.487 119.17 152.543 121.914ZM158.354 121.9V117.378H157.36V116.328H158.354V114.396H159.628V116.328H161.63V117.378H159.628V121.9C159.628 122.656 159.908 122.922 160.692 122.922H161.63V124H160.482C159.124 124 158.354 123.44 158.354 121.9ZM169.978 116.328V124H168.704V122.866C168.214 123.664 167.276 124.112 166.254 124.112C164.49 124.112 163.104 123.02 163.104 120.822V116.328H164.364V120.654C164.364 122.208 165.218 123.006 166.506 123.006C167.822 123.006 168.704 122.194 168.704 120.542V116.328H169.978ZM173.403 119.828V124H172.129V116.328H173.403V117.574C173.837 116.72 174.663 116.188 175.881 116.188V117.504H175.545C174.327 117.504 173.403 118.05 173.403 119.828ZM182.965 124V119.66C182.965 118.092 182.111 117.294 180.823 117.294C179.521 117.294 178.625 118.106 178.625 119.758V124H177.351V116.328H178.625V117.42C179.129 116.622 180.053 116.188 181.089 116.188C182.867 116.188 184.225 117.28 184.225 119.478V124H182.965ZM186.307 124V116.328H187.581V124H186.307ZM186.965 115.082C186.475 115.082 186.097 114.704 186.097 114.214C186.097 113.724 186.475 113.346 186.965 113.346C187.427 113.346 187.805 113.724 187.805 114.214C187.805 114.704 187.427 115.082 186.965 115.082ZM195.366 124V119.66C195.366 118.092 194.512 117.294 193.224 117.294C191.922 117.294 191.026 118.106 191.026 119.758V124H189.752V116.328H191.026V117.42C191.53 116.622 192.454 116.188 193.49 116.188C195.268 116.188 196.626 117.28 196.626 119.478V124H195.366ZM198.231 120.136C198.231 117.742 199.813 116.202 201.871 116.202C203.271 116.202 204.279 116.902 204.727 117.728V116.328H206.015V124.168C206.015 126.282 204.601 127.78 202.347 127.78C200.331 127.78 198.889 126.758 198.637 125.12H199.897C200.177 126.044 201.087 126.674 202.347 126.674C203.705 126.674 204.727 125.806 204.727 124.168V122.558C204.265 123.384 203.271 124.126 201.871 124.126C199.813 124.126 198.231 122.516 198.231 120.136ZM204.727 120.15C204.727 118.372 203.523 117.308 202.123 117.308C200.723 117.308 199.533 118.33 199.533 120.136C199.533 121.942 200.723 123.006 202.123 123.006C203.523 123.006 204.727 121.956 204.727 120.15ZM214.812 122.544L217.192 116.328H218.508L213.888 127.612H212.572L214.084 123.916L210.99 116.328H212.404L214.812 122.544ZM227.069 120.15C227.069 122.586 225.319 124.126 223.135 124.126C220.965 124.126 219.313 122.586 219.313 120.15C219.313 117.728 221.021 116.202 223.191 116.202C225.375 116.202 227.069 117.728 227.069 120.15ZM220.615 120.15C220.615 122.096 221.805 123.006 223.135 123.006C224.465 123.006 225.767 122.096 225.767 120.15C225.767 118.218 224.493 117.308 223.177 117.308C221.833 117.308 220.615 118.218 220.615 120.15ZM235.548 116.328V124H234.274V122.866C233.784 123.664 232.846 124.112 231.824 124.112C230.06 124.112 228.674 123.02 228.674 120.822V116.328H229.934V120.654C229.934 122.208 230.788 123.006 232.076 123.006C233.392 123.006 234.274 122.194 234.274 120.542V116.328H235.548ZM238.973 119.828V124H237.699V116.328H238.973V117.574C239.407 116.72 240.233 116.188 241.451 116.188V117.504H241.115C239.897 117.504 238.973 118.05 238.973 119.828ZM22.602 140.136C22.602 137.742 24.184 136.202 26.256 136.202C27.46 136.202 28.566 136.818 29.098 137.7V133.64H30.386V144H29.098V142.558C28.636 143.412 27.642 144.126 26.242 144.126C24.184 144.126 22.602 142.516 22.602 140.136ZM29.098 140.15C29.098 138.372 27.894 137.308 26.494 137.308C25.094 137.308 23.904 138.33 23.904 140.136C23.904 141.942 25.094 143.006 26.494 143.006C27.894 143.006 29.098 141.956 29.098 140.15ZM35.8009 137.28C34.5549 137.28 33.5189 138.106 33.3789 139.604H38.2229C38.2369 138.106 37.1169 137.28 35.8009 137.28ZM39.3849 141.634C38.9929 143.034 37.7609 144.126 35.8569 144.126C33.6729 144.126 32.0629 142.586 32.0629 140.15C32.0629 137.728 33.6169 136.202 35.8569 136.202C38.0829 136.202 39.5389 137.77 39.5389 139.87C39.5389 140.15 39.5249 140.374 39.4969 140.64H33.3649C33.4629 142.194 34.5549 143.048 35.8569 143.048C37.0049 143.048 37.7329 142.46 38.0129 141.634H39.3849ZM46.7366 141.914C46.7366 143.174 45.6306 144.126 43.9366 144.126C42.1446 144.126 40.8846 143.146 40.8006 141.746H42.1166C42.1866 142.488 42.8446 143.048 43.9226 143.048C44.9306 143.048 45.4906 142.544 45.4906 141.914C45.4906 140.206 40.9546 141.2 40.9546 138.344C40.9546 137.168 42.0606 136.202 43.7686 136.202C45.4626 136.202 46.5826 137.112 46.6666 138.61H45.3926C45.3366 137.84 44.7486 137.28 43.7266 137.28C42.7886 137.28 42.2286 137.728 42.2286 138.344C42.2286 140.164 46.6806 139.17 46.7366 141.914ZM48.535 144V136.328H49.809V144H48.535ZM49.193 135.082C48.703 135.082 48.325 134.704 48.325 134.214C48.325 133.724 48.703 133.346 49.193 133.346C49.655 133.346 50.033 133.724 50.033 134.214C50.033 134.704 49.655 135.082 49.193 135.082ZM51.5043 140.136C51.5043 137.742 53.0863 136.202 55.1443 136.202C56.5443 136.202 57.5523 136.902 58.0003 137.728V136.328H59.2883V144.168C59.2883 146.282 57.8743 147.78 55.6203 147.78C53.6043 147.78 52.1623 146.758 51.9103 145.12H53.1703C53.4503 146.044 54.3603 146.674 55.6203 146.674C56.9783 146.674 58.0003 145.806 58.0003 144.168V142.558C57.5383 143.384 56.5443 144.126 55.1443 144.126C53.0863 144.126 51.5043 142.516 51.5043 140.136ZM58.0003 140.15C58.0003 138.372 56.7963 137.308 55.3963 137.308C53.9963 137.308 52.8063 138.33 52.8063 140.136C52.8063 141.942 53.9963 143.006 55.3963 143.006C56.7963 143.006 58.0003 141.956 58.0003 140.15ZM67.0553 144V139.66C67.0553 138.092 66.2013 137.294 64.9133 137.294C63.6113 137.294 62.7153 138.106 62.7153 139.758V144H61.4413V136.328H62.7153V137.42C63.2193 136.622 64.1433 136.188 65.1793 136.188C66.9573 136.188 68.3153 137.28 68.3153 139.478V144H67.0553ZM74.1288 144V136.328H75.4028V144H74.1288ZM74.7868 135.082C74.2968 135.082 73.9188 134.704 73.9188 134.214C73.9188 133.724 74.2968 133.346 74.7868 133.346C75.2488 133.346 75.6268 133.724 75.6268 134.214C75.6268 134.704 75.2488 135.082 74.7868 135.082ZM83.1881 144V139.66C83.1881 138.092 82.3341 137.294 81.0461 137.294C79.7441 137.294 78.8481 138.106 78.8481 139.758V144H77.5741V136.328H78.8481V137.42C79.3521 136.622 80.2761 136.188 81.3121 136.188C83.0901 136.188 84.4481 137.28 84.4481 139.478V144H83.1881ZM86.8092 141.9V137.378H85.8152V136.328H86.8092V134.396H88.0832V136.328H90.0852V137.378H88.0832V141.9C88.0832 142.656 88.3632 142.922 89.1472 142.922H90.0852V144H88.9372C87.5792 144 86.8092 143.44 86.8092 141.9ZM98.9088 140.15C98.9088 142.586 97.1588 144.126 94.9748 144.126C92.8048 144.126 91.1528 142.586 91.1528 140.15C91.1528 137.728 92.8608 136.202 95.0308 136.202C97.2148 136.202 98.9088 137.728 98.9088 140.15ZM92.4548 140.15C92.4548 142.096 93.6448 143.006 94.9748 143.006C96.3048 143.006 97.6068 142.096 97.6068 140.15C97.6068 138.218 96.3328 137.308 95.0168 137.308C93.6728 137.308 92.4548 138.218 92.4548 140.15ZM103.84 140.15C103.84 137.742 105.394 136.202 107.578 136.202C109.482 136.202 110.728 137.182 111.12 138.792H109.748C109.482 137.868 108.712 137.28 107.578 137.28C106.178 137.28 105.142 138.274 105.142 140.15C105.142 142.054 106.178 143.048 107.578 143.048C108.712 143.048 109.468 142.502 109.748 141.536H111.12C110.728 143.062 109.482 144.126 107.578 144.126C105.394 144.126 103.84 142.586 103.84 140.15ZM120.1 140.15C120.1 142.586 118.35 144.126 116.166 144.126C113.996 144.126 112.344 142.586 112.344 140.15C112.344 137.728 114.052 136.202 116.222 136.202C118.406 136.202 120.1 137.728 120.1 140.15ZM113.646 140.15C113.646 142.096 114.836 143.006 116.166 143.006C117.496 143.006 118.798 142.096 118.798 140.15C118.798 138.218 117.524 137.308 116.208 137.308C114.864 137.308 113.646 138.218 113.646 140.15ZM121.299 140.136C121.299 137.742 122.881 136.202 124.953 136.202C126.157 136.202 127.263 136.818 127.795 137.7V133.64H129.083V144H127.795V142.558C127.333 143.412 126.339 144.126 124.939 144.126C122.881 144.126 121.299 142.516 121.299 140.136ZM127.795 140.15C127.795 138.372 126.591 137.308 125.191 137.308C123.791 137.308 122.601 138.33 122.601 140.136C122.601 141.942 123.791 143.006 125.191 143.006C126.591 143.006 127.795 141.956 127.795 140.15ZM134.498 137.28C133.252 137.28 132.216 138.106 132.076 139.604H136.92C136.934 138.106 135.814 137.28 134.498 137.28ZM138.082 141.634C137.69 143.034 136.458 144.126 134.554 144.126C132.37 144.126 130.76 142.586 130.76 140.15C130.76 137.728 132.314 136.202 134.554 136.202C136.78 136.202 138.236 137.77 138.236 139.87C138.236 140.15 138.222 140.374 138.194 140.64H132.062C132.16 142.194 133.252 143.048 134.554 143.048C135.702 143.048 136.43 142.46 136.71 141.634H138.082ZM141.164 143.216C141.164 143.706 140.786 144.084 140.324 144.084C139.834 144.084 139.456 143.706 139.456 143.216C139.456 142.726 139.834 142.348 140.324 142.348C140.786 142.348 141.164 142.726 141.164 143.216ZM155.914 139.114C155.914 142.04 153.772 144.098 151.014 144.098C148.27 144.098 146.114 142.04 146.114 139.114C146.114 136.188 148.27 134.13 151.014 134.13C153.772 134.13 155.914 136.188 155.914 139.114ZM147.416 139.114C147.416 141.494 148.956 142.992 151.014 142.992C153.072 142.992 154.612 141.494 154.612 139.114C154.612 136.72 153.072 135.236 151.014 135.236C148.956 135.236 147.416 136.72 147.416 139.114ZM163.21 144V139.66C163.21 138.092 162.356 137.294 161.068 137.294C159.766 137.294 158.87 138.106 158.87 139.758V144H157.596V136.328H158.87V137.42C159.374 136.622 160.298 136.188 161.334 136.188C163.112 136.188 164.47 137.28 164.47 139.478V144H163.21ZM166.075 140.15C166.075 137.742 167.629 136.202 169.813 136.202C171.717 136.202 172.963 137.182 173.355 138.792H171.983C171.717 137.868 170.947 137.28 169.813 137.28C168.413 137.28 167.377 138.274 167.377 140.15C167.377 142.054 168.413 143.048 169.813 143.048C170.947 143.048 171.703 142.502 171.983 141.536H173.355C172.963 143.062 171.717 144.126 169.813 144.126C167.629 144.126 166.075 142.586 166.075 140.15ZM178.317 137.28C177.071 137.28 176.035 138.106 175.895 139.604H180.739C180.753 138.106 179.633 137.28 178.317 137.28ZM181.901 141.634C181.509 143.034 180.277 144.126 178.373 144.126C176.189 144.126 174.579 142.586 174.579 140.15C174.579 137.728 176.133 136.202 178.373 136.202C180.599 136.202 182.055 137.77 182.055 139.87C182.055 140.15 182.041 140.374 182.013 140.64H175.881C175.979 142.194 177.071 143.048 178.373 143.048C179.521 143.048 180.249 142.46 180.529 141.634H181.901ZM188.967 144L186.559 136.328H187.861L189.625 142.768L191.529 136.328H192.831L194.693 142.782L196.429 136.328H197.689L195.295 144H193.979L192.131 137.91L190.283 144H188.967ZM202.215 137.28C200.969 137.28 199.933 138.106 199.793 139.604H204.637C204.651 138.106 203.531 137.28 202.215 137.28ZM205.799 141.634C205.407 143.034 204.175 144.126 202.271 144.126C200.087 144.126 198.477 142.586 198.477 140.15C198.477 137.728 200.031 136.202 202.271 136.202C204.497 136.202 205.953 137.77 205.953 139.87C205.953 140.15 205.939 140.374 205.911 140.64H199.779C199.877 142.194 200.969 143.048 202.271 143.048C203.419 143.048 204.147 142.46 204.427 141.634H205.799ZM207.229 135.642L207.047 132.856H208.279L208.111 135.642H207.229ZM208.953 136.328H210.325L212.719 142.824L215.099 136.328H216.457L213.447 144H211.963L208.953 136.328ZM220.973 137.28C219.727 137.28 218.691 138.106 218.551 139.604H223.395C223.409 138.106 222.289 137.28 220.973 137.28ZM224.557 141.634C224.165 143.034 222.933 144.126 221.029 144.126C218.845 144.126 217.235 142.586 217.235 140.15C217.235 137.728 218.789 136.202 221.029 136.202C223.255 136.202 224.711 137.77 224.711 139.87C224.711 140.15 224.697 140.374 224.669 140.64H218.537C218.635 142.194 219.727 143.048 221.029 143.048C222.177 143.048 222.905 142.46 223.185 141.634H224.557ZM22.602 160.15C22.602 157.742 24.156 156.202 26.34 156.202C28.244 156.202 29.49 157.182 29.882 158.792H28.51C28.244 157.868 27.474 157.28 26.34 157.28C24.94 157.28 23.904 158.274 23.904 160.15C23.904 162.054 24.94 163.048 26.34 163.048C27.474 163.048 28.23 162.502 28.51 161.536H29.882C29.49 163.062 28.244 164.126 26.34 164.126C24.156 164.126 22.602 162.586 22.602 160.15ZM38.8619 160.15C38.8619 162.586 37.1119 164.126 34.9279 164.126C32.7579 164.126 31.1059 162.586 31.1059 160.15C31.1059 157.728 32.8139 156.202 34.9839 156.202C37.1679 156.202 38.8619 157.728 38.8619 160.15ZM32.4079 160.15C32.4079 162.096 33.5979 163.006 34.9279 163.006C36.2579 163.006 37.5599 162.096 37.5599 160.15C37.5599 158.218 36.2859 157.308 34.9699 157.308C33.6259 157.308 32.4079 158.218 32.4079 160.15ZM40.061 160.136C40.061 157.742 41.643 156.202 43.715 156.202C44.919 156.202 46.025 156.818 46.557 157.7V153.64H47.845V164H46.557V162.558C46.095 163.412 45.101 164.126 43.701 164.126C41.643 164.126 40.061 162.516 40.061 160.136ZM46.557 160.15C46.557 158.372 45.353 157.308 43.953 157.308C42.553 157.308 41.363 158.33 41.363 160.136C41.363 161.942 42.553 163.006 43.953 163.006C45.353 163.006 46.557 161.956 46.557 160.15ZM53.2599 157.28C52.0139 157.28 50.9779 158.106 50.8379 159.604H55.6819C55.6959 158.106 54.5759 157.28 53.2599 157.28ZM56.8439 161.634C56.4519 163.034 55.2199 164.126 53.3159 164.126C51.1319 164.126 49.5219 162.586 49.5219 160.15C49.5219 157.728 51.0759 156.202 53.3159 156.202C55.5419 156.202 56.9979 157.77 56.9979 159.87C56.9979 160.15 56.9839 160.374 56.9559 160.64H50.8239C50.9219 162.194 52.0139 163.048 53.3159 163.048C54.4639 163.048 55.1919 162.46 55.4719 161.634H56.8439ZM58.2036 160.136C58.2036 157.742 59.7856 156.202 61.8576 156.202C63.0616 156.202 64.1676 156.818 64.6996 157.7V153.64H65.9876V164H64.6996V162.558C64.2376 163.412 63.2436 164.126 61.8436 164.126C59.7856 164.126 58.2036 162.516 58.2036 160.136ZM64.6996 160.15C64.6996 158.372 63.4956 157.308 62.0956 157.308C60.6956 157.308 59.5056 158.33 59.5056 160.136C59.5056 161.942 60.6956 163.006 62.0956 163.006C63.4956 163.006 64.6996 161.956 64.6996 160.15ZM72.1529 161.9V157.378H71.1589V156.328H72.1529V154.396H73.4269V156.328H75.4289V157.378H73.4269V161.9C73.4269 162.656 73.7069 162.922 74.4909 162.922H75.4289V164H74.2809C72.9229 164 72.1529 163.44 72.1529 161.9ZM76.9725 164V153.64H78.2465V157.434C78.7505 156.622 79.7025 156.188 80.7805 156.188C82.4885 156.188 83.8465 157.28 83.8465 159.478V164H82.5865V159.66C82.5865 158.092 81.7325 157.294 80.4445 157.294C79.1425 157.294 78.2465 158.106 78.2465 159.758V164H76.9725ZM89.1896 157.28C87.9436 157.28 86.9076 158.106 86.7676 159.604H91.6116C91.6256 158.106 90.5056 157.28 89.1896 157.28ZM92.7736 161.634C92.3816 163.034 91.1496 164.126 89.2456 164.126C87.0616 164.126 85.4516 162.586 85.4516 160.15C85.4516 157.728 87.0056 156.202 89.2456 156.202C91.4716 156.202 92.9276 157.77 92.9276 159.87C92.9276 160.15 92.9136 160.374 92.8856 160.64H86.7536C86.8516 162.194 87.9436 163.048 89.2456 163.048C90.3936 163.048 91.1216 162.46 91.4016 161.634H92.7736ZM98.5797 164V157.378H97.5857V156.328H98.5797V155.782C98.5797 154.074 99.4197 153.304 101.38 153.304V154.368C100.232 154.368 99.8537 154.788 99.8537 155.782V156.328H101.464V157.378H99.8537V164H98.5797ZM104.223 159.828V164H102.949V156.328H104.223V157.574C104.657 156.72 105.483 156.188 106.701 156.188V157.504H106.365C105.147 157.504 104.223 158.05 104.223 159.828ZM115.452 160.15C115.452 162.586 113.702 164.126 111.518 164.126C109.348 164.126 107.696 162.586 107.696 160.15C107.696 157.728 109.404 156.202 111.574 156.202C113.758 156.202 115.452 157.728 115.452 160.15ZM108.998 160.15C108.998 162.096 110.188 163.006 111.518 163.006C112.848 163.006 114.15 162.096 114.15 160.15C114.15 158.218 112.876 157.308 111.56 157.308C110.216 157.308 108.998 158.218 108.998 160.15ZM122.741 164V159.66C122.741 158.092 121.887 157.294 120.599 157.294C119.297 157.294 118.401 158.106 118.401 159.758V164H117.127V156.328H118.401V157.42C118.905 156.622 119.829 156.188 120.865 156.188C122.643 156.188 124.001 157.28 124.001 159.478V164H122.741ZM126.362 161.9V157.378H125.368V156.328H126.362V154.396H127.636V156.328H129.638V157.378H127.636V161.9C127.636 162.656 127.916 162.922 128.7 162.922H129.638V164H128.49C127.132 164 126.362 163.44 126.362 161.9ZM138.176 157.28C136.93 157.28 135.894 158.106 135.754 159.604H140.598C140.612 158.106 139.492 157.28 138.176 157.28ZM141.76 161.634C141.368 163.034 140.136 164.126 138.232 164.126C136.048 164.126 134.438 162.586 134.438 160.15C134.438 157.728 135.992 156.202 138.232 156.202C140.458 156.202 141.914 157.77 141.914 159.87C141.914 160.15 141.9 160.374 141.872 160.64H135.74C135.838 162.194 136.93 163.048 138.232 163.048C139.38 163.048 140.108 162.46 140.388 161.634H141.76ZM149.21 164V159.66C149.21 158.092 148.356 157.294 147.068 157.294C145.766 157.294 144.87 158.106 144.87 159.758V164H143.596V156.328H144.87V157.42C145.374 156.622 146.298 156.188 147.334 156.188C149.112 156.188 150.47 157.28 150.47 159.478V164H149.21ZM152.075 160.136C152.075 157.742 153.657 156.202 155.729 156.202C156.933 156.202 158.039 156.818 158.571 157.7V153.64H159.859V164H158.571V162.558C158.109 163.412 157.115 164.126 155.715 164.126C153.657 164.126 152.075 162.516 152.075 160.136ZM158.571 160.15C158.571 158.372 157.367 157.308 155.967 157.308C154.567 157.308 153.377 158.33 153.377 160.136C153.377 161.942 154.567 163.006 155.967 163.006C157.367 163.006 158.571 161.956 158.571 160.15ZM160.906 166.002L161.928 162.236H163.328L161.76 166.002H160.906ZM171.431 162.544L173.811 156.328H175.127L170.507 167.612H169.191L170.703 163.916L167.609 156.328H169.023L171.431 162.544ZM183.688 160.15C183.688 162.586 181.938 164.126 179.754 164.126C177.584 164.126 175.932 162.586 175.932 160.15C175.932 157.728 177.64 156.202 179.81 156.202C181.994 156.202 183.688 157.728 183.688 160.15ZM177.234 160.15C177.234 162.096 178.424 163.006 179.754 163.006C181.084 163.006 182.386 162.096 182.386 160.15C182.386 158.218 181.112 157.308 179.796 157.308C178.452 157.308 177.234 158.218 177.234 160.15ZM192.167 156.328V164H190.893V162.866C190.403 163.664 189.465 164.112 188.443 164.112C186.679 164.112 185.293 163.02 185.293 160.822V156.328H186.553V160.654C186.553 162.208 187.407 163.006 188.695 163.006C190.011 163.006 190.893 162.194 190.893 160.542V156.328H192.167ZM193.912 155.642L193.73 152.856H194.962L194.794 155.642H193.912ZM196.547 164V153.64H197.821V164H196.547ZM199.992 164V153.64H201.266V164H199.992ZM24.352 179.828V184H23.078V176.328H24.352V177.574C24.786 176.72 25.612 176.188 26.83 176.188V177.504H26.494C25.276 177.504 24.352 178.05 24.352 179.828ZM31.5627 177.28C30.3167 177.28 29.2807 178.106 29.1407 179.604H33.9847C33.9987 178.106 32.8787 177.28 31.5627 177.28ZM35.1467 181.634C34.7547 183.034 33.5227 184.126 31.6187 184.126C29.4347 184.126 27.8247 182.586 27.8247 180.15C27.8247 177.728 29.3787 176.202 31.6187 176.202C33.8447 176.202 35.3007 177.77 35.3007 179.87C35.3007 180.15 35.2867 180.374 35.2587 180.64H29.1267C29.2247 182.194 30.3167 183.048 31.6187 183.048C32.7667 183.048 33.4947 182.46 33.7747 181.634H35.1467ZM36.5063 180.15C36.5063 177.742 38.0603 176.202 40.2443 176.202C42.1483 176.202 43.3943 177.182 43.7863 178.792H42.4143C42.1483 177.868 41.3783 177.28 40.2443 177.28C38.8443 177.28 37.8083 178.274 37.8083 180.15C37.8083 182.054 38.8443 183.048 40.2443 183.048C41.3783 183.048 42.1343 182.502 42.4143 181.536H43.7863C43.3943 183.062 42.1483 184.126 40.2443 184.126C38.0603 184.126 36.5063 182.586 36.5063 180.15ZM48.7482 177.28C47.5022 177.28 46.4662 178.106 46.3262 179.604H51.1702C51.1842 178.106 50.0642 177.28 48.7482 177.28ZM52.3322 181.634C51.9402 183.034 50.7082 184.126 48.8042 184.126C46.6202 184.126 45.0102 182.586 45.0102 180.15C45.0102 177.728 46.5642 176.202 48.8042 176.202C51.0302 176.202 52.4862 177.77 52.4862 179.87C52.4862 180.15 52.4722 180.374 52.4442 180.64H46.3122C46.4102 182.194 47.5022 183.048 48.8042 183.048C49.9522 183.048 50.6802 182.46 50.9602 181.634H52.3322ZM54.1678 184V176.328H55.4418V184H54.1678ZM54.8258 175.082C54.3358 175.082 53.9578 174.704 53.9578 174.214C53.9578 173.724 54.3358 173.346 54.8258 173.346C55.2878 173.346 55.6658 173.724 55.6658 174.214C55.6658 174.704 55.2878 175.082 54.8258 175.082ZM56.7032 176.328H58.0752L60.4692 182.824L62.8492 176.328H64.2072L61.1972 184H59.7132L56.7032 176.328ZM68.7228 177.28C67.4768 177.28 66.4408 178.106 66.3008 179.604H71.1448C71.1588 178.106 70.0388 177.28 68.7228 177.28ZM72.3068 181.634C71.9148 183.034 70.6828 184.126 68.7788 184.126C66.5948 184.126 64.9848 182.586 64.9848 180.15C64.9848 177.728 66.5388 176.202 68.7788 176.202C71.0048 176.202 72.4608 177.77 72.4608 179.87C72.4608 180.15 72.4468 180.374 72.4188 180.64H66.2868C66.3848 182.194 67.4768 183.048 68.7788 183.048C69.9268 183.048 70.6548 182.46 70.9348 181.634H72.3068ZM77.3989 180.136C77.3989 177.742 78.9809 176.202 81.0389 176.202C82.4669 176.202 83.4469 176.93 83.8949 177.728V176.328H85.1829V184H83.8949V182.572C83.4329 183.398 82.4389 184.126 81.0249 184.126C78.9809 184.126 77.3989 182.516 77.3989 180.136ZM83.8949 180.15C83.8949 178.372 82.6909 177.308 81.2909 177.308C79.8909 177.308 78.7009 178.33 78.7009 180.136C78.7009 181.942 79.8909 183.006 81.2909 183.006C82.6909 183.006 83.8949 181.956 83.8949 180.15ZM92.9498 184V179.66C92.9498 178.092 92.0958 177.294 90.8078 177.294C89.5058 177.294 88.6098 178.106 88.6098 179.758V184H87.3358V176.328H88.6098V177.42C89.1138 176.622 90.0378 176.188 91.0738 176.188C92.8518 176.188 94.2098 177.28 94.2098 179.478V184H92.9498ZM100.023 184V176.328H101.297V184H100.023ZM100.681 175.082C100.191 175.082 99.8133 174.704 99.8133 174.214C99.8133 173.724 100.191 173.346 100.681 173.346C101.143 173.346 101.521 173.724 101.521 174.214C101.521 174.704 101.143 175.082 100.681 175.082ZM109.083 184V179.66C109.083 178.092 108.229 177.294 106.941 177.294C105.639 177.294 104.743 178.106 104.743 179.758V184H103.469V176.328H104.743V177.42C105.247 176.622 106.171 176.188 107.207 176.188C108.985 176.188 110.343 177.28 110.343 179.478V184H109.083ZM111.514 176.328H112.886L115.28 182.824L117.66 176.328H119.018L116.008 184H114.524L111.514 176.328ZM120.271 184V176.328H121.545V184H120.271ZM120.929 175.082C120.439 175.082 120.061 174.704 120.061 174.214C120.061 173.724 120.439 173.346 120.929 173.346C121.391 173.346 121.769 173.724 121.769 174.214C121.769 174.704 121.391 175.082 120.929 175.082ZM123.997 181.9V177.378H123.003V176.328H123.997V174.396H125.271V176.328H127.273V177.378H125.271V181.9C125.271 182.656 125.551 182.922 126.335 182.922H127.273V184H126.125C124.767 184 123.997 183.44 123.997 181.9ZM132.078 177.28C130.832 177.28 129.796 178.106 129.656 179.604H134.5C134.514 178.106 133.394 177.28 132.078 177.28ZM135.662 181.634C135.27 183.034 134.038 184.126 132.134 184.126C129.95 184.126 128.34 182.586 128.34 180.15C128.34 177.728 129.894 176.202 132.134 176.202C134.36 176.202 135.816 177.77 135.816 179.87C135.816 180.15 135.802 180.374 135.774 180.64H129.642C129.74 182.194 130.832 183.048 132.134 183.048C133.282 183.048 134.01 182.46 134.29 181.634H135.662ZM141.51 181.9V177.378H140.516V176.328H141.51V174.396H142.784V176.328H144.786V177.378H142.784V181.9C142.784 182.656 143.064 182.922 143.848 182.922H144.786V184H143.638C142.28 184 141.51 183.44 141.51 181.9ZM153.61 180.15C153.61 182.586 151.86 184.126 149.676 184.126C147.506 184.126 145.854 182.586 145.854 180.15C145.854 177.728 147.562 176.202 149.732 176.202C151.916 176.202 153.61 177.728 153.61 180.15ZM147.156 180.15C147.156 182.096 148.346 183.006 149.676 183.006C151.006 183.006 152.308 182.096 152.308 180.15C152.308 178.218 151.034 177.308 149.718 177.308C148.374 177.308 147.156 178.218 147.156 180.15ZM160.291 179.828V184H159.017V176.328H160.291V177.574C160.725 176.72 161.551 176.188 162.769 176.188V177.504H162.433C161.215 177.504 160.291 178.05 160.291 179.828ZM167.502 177.28C166.256 177.28 165.22 178.106 165.08 179.604H169.924C169.938 178.106 168.818 177.28 167.502 177.28ZM171.086 181.634C170.694 183.034 169.462 184.126 167.558 184.126C165.374 184.126 163.764 182.586 163.764 180.15C163.764 177.728 165.318 176.202 167.558 176.202C169.784 176.202 171.24 177.77 171.24 179.87C171.24 180.15 171.226 180.374 171.198 180.64H165.066C165.164 182.194 166.256 183.048 167.558 183.048C168.706 183.048 169.434 182.46 169.714 181.634H171.086ZM172.012 176.328H173.384L175.778 182.824L178.158 176.328H179.516L176.506 184H175.022L172.012 176.328ZM180.769 184V176.328H182.043V184H180.769ZM181.427 175.082C180.937 175.082 180.559 174.704 180.559 174.214C180.559 173.724 180.937 173.346 181.427 173.346C181.889 173.346 182.267 173.724 182.267 174.214C182.267 174.704 181.889 175.082 181.427 175.082ZM187.477 177.28C186.231 177.28 185.195 178.106 185.055 179.604H189.899C189.913 178.106 188.793 177.28 187.477 177.28ZM191.061 181.634C190.669 183.034 189.437 184.126 187.533 184.126C185.349 184.126 183.739 182.586 183.739 180.15C183.739 177.728 185.293 176.202 187.533 176.202C189.759 176.202 191.215 177.77 191.215 179.87C191.215 180.15 191.201 180.374 191.173 180.64H185.041C185.139 182.194 186.231 183.048 187.533 183.048C188.681 183.048 189.409 182.46 189.689 181.634H191.061ZM194.394 184L191.986 176.328H193.288L195.052 182.768L196.956 176.328H198.258L200.12 182.782L201.856 176.328H203.116L200.722 184H199.406L197.558 177.91L195.71 184H194.394ZM208.113 184V176.328H209.387V184H208.113ZM208.771 175.082C208.281 175.082 207.903 174.704 207.903 174.214C207.903 173.724 208.281 173.346 208.771 173.346C209.233 173.346 209.611 173.724 209.611 174.214C209.611 174.704 209.233 175.082 208.771 175.082ZM211.838 181.9V177.378H210.844V176.328H211.838V174.396H213.112V176.328H215.114V177.378H213.112V181.9C213.112 182.656 213.392 182.922 214.176 182.922H215.114V184H213.966C212.608 184 211.838 183.44 211.838 181.9ZM217.904 183.216C217.904 183.706 217.526 184.084 217.064 184.084C216.574 184.084 216.196 183.706 216.196 183.216C216.196 182.726 216.574 182.348 217.064 182.348C217.526 182.348 217.904 182.726 217.904 183.216Z" fill="#4F668E"/>
</svg>
