<svg width="250" height="272" viewBox="0 0 250 272" fill="none" xmlns="http://www.w3.org/2000/svg">
<path d="M70.9393 270.891C71.5251 271.477 72.4749 271.477 73.0607 270.891L82.6066 261.345C83.1924 260.759 83.1924 259.809 82.6066 259.223C82.0208 258.638 81.0711 258.638 80.4853 259.223L72 267.709L63.5147 259.223C62.9289 258.638 61.9792 258.638 61.3934 259.223C60.8076 259.809 60.8076 260.759 61.3934 261.345L70.9393 270.891ZM70.5 229.83V269.83H73.5V229.83H70.5Z" fill="#23D9AE"/>
<path d="M54.5042 33H30C14.536 33 2 45.536 2 61V203C2 218.464 14.536 231 30 231H73" stroke="#23D9AE" stroke-width="3"/>
<circle cx="73" cy="31" r="31" fill="#34B7F2"/>
<path d="M32.38 89.96V92.7H26.66V95.66H30.94V98.32H26.66V104H23.24V89.96H32.38ZM45.1975 92.84V104H41.7775V102.48C41.4308 102.973 40.9575 103.373 40.3575 103.68C39.7708 103.973 39.1175 104.12 38.3975 104.12C37.5442 104.12 36.7908 103.933 36.1375 103.56C35.4842 103.173 34.9775 102.62 34.6175 101.9C34.2575 101.18 34.0775 100.333 34.0775 99.36V92.84H37.4775V98.9C37.4775 99.6467 37.6708 100.227 38.0575 100.64C38.4442 101.053 38.9642 101.26 39.6175 101.26C40.2842 101.26 40.8108 101.053 41.1975 100.64C41.5842 100.227 41.7775 99.6467 41.7775 98.9V92.84H45.1975ZM54.4541 92.72C55.7607 92.72 56.8007 93.1467 57.5741 94C58.3607 94.84 58.7541 96 58.7541 97.48V104H55.3541V97.94C55.3541 97.1933 55.1607 96.6133 54.7741 96.2C54.3874 95.7867 53.8674 95.58 53.2141 95.58C52.5607 95.58 52.0407 95.7867 51.6541 96.2C51.2674 96.6133 51.0741 97.1933 51.0741 97.94V104H47.6541V92.84H51.0741V94.32C51.4207 93.8267 51.8874 93.44 52.4741 93.16C53.0607 92.8667 53.7207 92.72 54.4541 92.72ZM60.4506 98.42C60.4506 97.26 60.684 96.2467 61.1506 95.38C61.6306 94.5133 62.2906 93.8467 63.1306 93.38C63.984 92.9133 64.9573 92.68 66.0506 92.68C67.4506 92.68 68.6173 93.0467 69.5506 93.78C70.4973 94.5133 71.1173 95.5467 71.4106 96.88H67.7706C67.464 96.0267 66.8706 95.6 65.9906 95.6C65.364 95.6 64.864 95.8467 64.4906 96.34C64.1173 96.82 63.9306 97.5133 63.9306 98.42C63.9306 99.3267 64.1173 100.027 64.4906 100.52C64.864 101 65.364 101.24 65.9906 101.24C66.8706 101.24 67.464 100.813 67.7706 99.96H71.4106C71.1173 101.267 70.4973 102.293 69.5506 103.04C68.604 103.787 67.4373 104.16 66.0506 104.16C64.9573 104.16 63.984 103.927 63.1306 103.46C62.2906 102.993 61.6306 102.327 61.1506 101.46C60.684 100.593 60.4506 99.58 60.4506 98.42ZM79.46 101.1V104H77.72C76.48 104 75.5133 103.7 74.82 103.1C74.1267 102.487 73.78 101.493 73.78 100.12V95.68H72.42V92.84H73.78V90.12H77.2V92.84H79.44V95.68H77.2V100.16C77.2 100.493 77.28 100.733 77.44 100.88C77.6 101.027 77.8667 101.1 78.24 101.1H79.46ZM83.085 91.68C82.485 91.68 81.9917 91.5067 81.605 91.16C81.2317 90.8 81.045 90.36 81.045 89.84C81.045 89.3067 81.2317 88.8667 81.605 88.52C81.9917 88.16 82.485 87.98 83.085 87.98C83.6717 87.98 84.1517 88.16 84.525 88.52C84.9117 88.8667 85.105 89.3067 85.105 89.84C85.105 90.36 84.9117 90.8 84.525 91.16C84.1517 91.5067 83.6717 91.68 83.085 91.68ZM84.785 92.84V104H81.365V92.84H84.785ZM92.3434 104.16C91.2501 104.16 90.2634 103.927 89.3834 103.46C88.5168 102.993 87.8301 102.327 87.3234 101.46C86.8301 100.593 86.5834 99.58 86.5834 98.42C86.5834 97.2733 86.8368 96.2667 87.3434 95.4C87.8501 94.52 88.5434 93.8467 89.4234 93.38C90.3034 92.9133 91.2901 92.68 92.3834 92.68C93.4768 92.68 94.4634 92.9133 95.3434 93.38C96.2234 93.8467 96.9168 94.52 97.4234 95.4C97.9301 96.2667 98.1834 97.2733 98.1834 98.42C98.1834 99.5667 97.9234 100.58 97.4034 101.46C96.8968 102.327 96.1968 102.993 95.3034 103.46C94.4234 103.927 93.4368 104.16 92.3434 104.16ZM92.3434 101.2C92.9968 101.2 93.5501 100.96 94.0034 100.48C94.4701 100 94.7034 99.3133 94.7034 98.42C94.7034 97.5267 94.4768 96.84 94.0234 96.36C93.5834 95.88 93.0368 95.64 92.3834 95.64C91.7168 95.64 91.1634 95.88 90.7234 96.36C90.2834 96.8267 90.0634 97.5133 90.0634 98.42C90.0634 99.3133 90.2768 100 90.7034 100.48C91.1434 100.96 91.6901 101.2 92.3434 101.2ZM106.798 92.72C108.104 92.72 109.144 93.1467 109.918 94C110.704 94.84 111.098 96 111.098 97.48V104H107.698V97.94C107.698 97.1933 107.504 96.6133 107.118 96.2C106.731 95.7867 106.211 95.58 105.558 95.58C104.904 95.58 104.384 95.7867 103.998 96.2C103.611 96.6133 103.418 97.1933 103.418 97.94V104H99.9978V92.84H103.418V94.32C103.764 93.8267 104.231 93.44 104.818 93.16C105.404 92.8667 106.064 92.72 106.798 92.72ZM112.794 98.4C112.794 97.2533 113.008 96.2467 113.434 95.38C113.874 94.5133 114.468 93.8467 115.214 93.38C115.961 92.9133 116.794 92.68 117.714 92.68C118.501 92.68 119.188 92.84 119.774 93.16C120.374 93.48 120.834 93.9 121.154 94.42V92.84H124.574V104H121.154V102.42C120.821 102.94 120.354 103.36 119.754 103.68C119.168 104 118.481 104.16 117.694 104.16C116.788 104.16 115.961 103.927 115.214 103.46C114.468 102.98 113.874 102.307 113.434 101.44C113.008 100.56 112.794 99.5467 112.794 98.4ZM121.154 98.42C121.154 97.5667 120.914 96.8933 120.434 96.4C119.968 95.9067 119.394 95.66 118.714 95.66C118.034 95.66 117.454 95.9067 116.974 96.4C116.508 96.88 116.274 97.5467 116.274 98.4C116.274 99.2533 116.508 99.9333 116.974 100.44C117.454 100.933 118.034 101.18 118.714 101.18C119.394 101.18 119.968 100.933 120.434 100.44C120.914 99.9467 121.154 99.2733 121.154 98.42ZM130.469 89.2V104H127.049V89.2H130.469ZM134.667 91.68C134.067 91.68 133.574 91.5067 133.187 91.16C132.814 90.8 132.627 90.36 132.627 89.84C132.627 89.3067 132.814 88.8667 133.187 88.52C133.574 88.16 134.067 87.98 134.667 87.98C135.254 87.98 135.734 88.16 136.107 88.52C136.494 88.8667 136.687 89.3067 136.687 89.84C136.687 90.36 136.494 90.8 136.107 91.16C135.734 91.5067 135.254 91.68 134.667 91.68ZM136.367 92.84V104H132.947V92.84H136.367ZM145.065 101.1V104H143.325C142.085 104 141.119 103.7 140.425 103.1C139.732 102.487 139.385 101.493 139.385 100.12V95.68H138.025V92.84H139.385V90.12H142.805V92.84H145.045V95.68H142.805V100.16C142.805 100.493 142.885 100.733 143.045 100.88C143.205 101.027 143.472 101.1 143.845 101.1H145.065ZM158.37 92.84L151.37 109.3H147.69L150.25 103.62L145.71 92.84H149.53L152.11 99.82L154.67 92.84H158.37ZM163.265 96.96C163.265 95.5733 163.565 94.34 164.165 93.26C164.765 92.1667 165.599 91.32 166.665 90.72C167.745 90.1067 168.965 89.8 170.325 89.8C171.992 89.8 173.419 90.24 174.605 91.12C175.792 92 176.585 93.2 176.985 94.72H173.225C172.945 94.1333 172.545 93.6867 172.025 93.38C171.519 93.0733 170.939 92.92 170.285 92.92C169.232 92.92 168.379 93.2867 167.725 94.02C167.072 94.7533 166.745 95.7333 166.745 96.96C166.745 98.1867 167.072 99.1667 167.725 99.9C168.379 100.633 169.232 101 170.285 101C170.939 101 171.519 100.847 172.025 100.54C172.545 100.233 172.945 99.7867 173.225 99.2H176.985C176.585 100.72 175.792 101.92 174.605 102.8C173.419 103.667 171.992 104.1 170.325 104.1C168.965 104.1 167.745 103.8 166.665 103.2C165.599 102.587 164.765 101.74 164.165 100.66C163.565 99.58 163.265 98.3467 163.265 96.96ZM184.16 104.16C183.067 104.16 182.08 103.927 181.2 103.46C180.333 102.993 179.647 102.327 179.14 101.46C178.647 100.593 178.4 99.58 178.4 98.42C178.4 97.2733 178.653 96.2667 179.16 95.4C179.667 94.52 180.36 93.8467 181.24 93.38C182.12 92.9133 183.107 92.68 184.2 92.68C185.293 92.68 186.28 92.9133 187.16 93.38C188.04 93.8467 188.733 94.52 189.24 95.4C189.747 96.2667 190 97.2733 190 98.42C190 99.5667 189.74 100.58 189.22 101.46C188.713 102.327 188.013 102.993 187.12 103.46C186.24 103.927 185.253 104.16 184.16 104.16ZM184.16 101.2C184.813 101.2 185.367 100.96 185.82 100.48C186.287 100 186.52 99.3133 186.52 98.42C186.52 97.5267 186.293 96.84 185.84 96.36C185.4 95.88 184.853 95.64 184.2 95.64C183.533 95.64 182.98 95.88 182.54 96.36C182.1 96.8267 181.88 97.5133 181.88 98.42C181.88 99.3133 182.093 100 182.52 100.48C182.96 100.96 183.507 101.2 184.16 101.2ZM191.134 98.4C191.134 97.2533 191.348 96.2467 191.774 95.38C192.214 94.5133 192.808 93.8467 193.554 93.38C194.301 92.9133 195.134 92.68 196.054 92.68C196.788 92.68 197.454 92.8333 198.054 93.14C198.668 93.4467 199.148 93.86 199.494 94.38V89.2H202.914V104H199.494V102.4C199.174 102.933 198.714 103.36 198.114 103.68C197.528 104 196.841 104.16 196.054 104.16C195.134 104.16 194.301 103.927 193.554 103.46C192.808 102.98 192.214 102.307 191.774 101.44C191.348 100.56 191.134 99.5467 191.134 98.4ZM199.494 98.42C199.494 97.5667 199.254 96.8933 198.774 96.4C198.308 95.9067 197.734 95.66 197.054 95.66C196.374 95.66 195.794 95.9067 195.314 96.4C194.848 96.88 194.614 97.5467 194.614 98.4C194.614 99.2533 194.848 99.9333 195.314 100.44C195.794 100.933 196.374 101.18 197.054 101.18C197.734 101.18 198.308 100.933 198.774 100.44C199.254 99.9467 199.494 99.2733 199.494 98.42ZM215.908 98.24C215.908 98.56 215.888 98.8933 215.848 99.24H208.108C208.162 99.9333 208.382 100.467 208.768 100.84C209.168 101.2 209.655 101.38 210.228 101.38C211.082 101.38 211.675 101.02 212.008 100.3H215.648C215.462 101.033 215.122 101.693 214.628 102.28C214.148 102.867 213.542 103.327 212.808 103.66C212.075 103.993 211.255 104.16 210.348 104.16C209.255 104.16 208.282 103.927 207.428 103.46C206.575 102.993 205.908 102.327 205.428 101.46C204.948 100.593 204.708 99.58 204.708 98.42C204.708 97.26 204.942 96.2467 205.408 95.38C205.888 94.5133 206.555 93.8467 207.408 93.38C208.262 92.9133 209.242 92.68 210.348 92.68C211.428 92.68 212.388 92.9067 213.228 93.36C214.068 93.8133 214.722 94.46 215.188 95.3C215.668 96.14 215.908 97.12 215.908 98.24ZM212.408 97.34C212.408 96.7533 212.208 96.2867 211.808 95.94C211.408 95.5933 210.908 95.42 210.308 95.42C209.735 95.42 209.248 95.5867 208.848 95.92C208.462 96.2533 208.222 96.7267 208.128 97.34H212.408Z" fill="#0051FB"/>
<path d="M64.8467 33.5166L75.5381 19.0234H77.5635V33.5166H79.6221V36.9531H77.5635V42H72.998V36.9531H64.8467V33.5166ZM66.457 33.5166H72.998V24.6348L66.457 33.5166Z" fill="white"/>
<path d="M29.476 121.228H30.75V131H29.476L24.352 123.23V131H23.078V121.228H24.352L29.476 128.984V121.228ZM40.2018 127.15C40.2018 129.586 38.4518 131.126 36.2678 131.126C34.0978 131.126 32.4458 129.586 32.4458 127.15C32.4458 124.728 34.1538 123.202 36.3238 123.202C38.5078 123.202 40.2018 124.728 40.2018 127.15ZM33.7478 127.15C33.7478 129.096 34.9378 130.006 36.2678 130.006C37.5978 130.006 38.8998 129.096 38.8998 127.15C38.8998 125.218 37.6258 124.308 36.3098 124.308C34.9658 124.308 33.7478 125.218 33.7478 127.15ZM43.3748 131L40.9668 123.328H42.2688L44.0328 129.768L45.9368 123.328H47.2388L49.1008 129.782L50.8368 123.328H52.0968L49.7028 131H48.3868L46.5388 124.91L44.6908 131H43.3748ZM57.0936 131V123.328H58.3676V131H57.0936ZM57.7516 122.082C57.2616 122.082 56.8836 121.704 56.8836 121.214C56.8836 120.724 57.2616 120.346 57.7516 120.346C58.2136 120.346 58.5916 120.724 58.5916 121.214C58.5916 121.704 58.2136 122.082 57.7516 122.082ZM60.8189 128.9V124.378H59.8249V123.328H60.8189V121.396H62.0929V123.328H64.0949V124.378H62.0929V128.9C62.0929 129.656 62.3729 129.922 63.1569 129.922H64.0949V131H62.9469C61.5889 131 60.8189 130.44 60.8189 128.9ZM65.2325 122.642L65.0505 119.856H66.2825L66.1145 122.642H65.2325ZM73.3831 128.914C73.3831 130.174 72.2771 131.126 70.5831 131.126C68.7911 131.126 67.5311 130.146 67.4471 128.746H68.7631C68.8331 129.488 69.4911 130.048 70.5691 130.048C71.5771 130.048 72.1371 129.544 72.1371 128.914C72.1371 127.206 67.6011 128.2 67.6011 125.344C67.6011 124.168 68.7071 123.202 70.4151 123.202C72.1091 123.202 73.2291 124.112 73.3131 125.61H72.0391C71.9831 124.84 71.3951 124.28 70.3731 124.28C69.4351 124.28 68.8751 124.728 68.8751 125.344C68.8751 127.164 73.3271 126.17 73.3831 128.914ZM79.1939 128.9V124.378H78.1999V123.328H79.1939V121.396H80.4679V123.328H82.4699V124.378H80.4679V128.9C80.4679 129.656 80.7479 129.922 81.5319 129.922H82.4699V131H81.3219C79.9639 131 79.1939 130.44 79.1939 128.9ZM84.0135 131V123.328H85.2875V131H84.0135ZM84.6715 122.082C84.1815 122.082 83.8035 121.704 83.8035 121.214C83.8035 120.724 84.1815 120.346 84.6715 120.346C85.1335 120.346 85.5115 120.724 85.5115 121.214C85.5115 121.704 85.1335 122.082 84.6715 122.082ZM98.5329 131V126.66C98.5329 125.092 97.6929 124.294 96.4329 124.294C95.1449 124.294 94.2629 125.12 94.2629 126.772V131H93.0029V126.66C93.0029 125.092 92.1629 124.294 90.9029 124.294C89.6149 124.294 88.7329 125.12 88.7329 126.772V131H87.4589V123.328H88.7329V124.434C89.2369 123.622 90.1469 123.188 91.1549 123.188C92.4149 123.188 93.4649 123.748 93.9689 124.896C94.4169 123.79 95.5089 123.188 96.6849 123.188C98.4349 123.188 99.7929 124.28 99.7929 126.478V131H98.5329ZM105.145 124.28C103.899 124.28 102.863 125.106 102.723 126.604H107.567C107.581 125.106 106.461 124.28 105.145 124.28ZM108.729 128.634C108.337 130.034 107.105 131.126 105.201 131.126C103.017 131.126 101.407 129.586 101.407 127.15C101.407 124.728 102.961 123.202 105.201 123.202C107.427 123.202 108.883 124.77 108.883 126.87C108.883 127.15 108.869 127.374 108.841 127.64H102.709C102.807 129.194 103.899 130.048 105.201 130.048C106.349 130.048 107.077 129.46 107.357 128.634H108.729ZM114.577 128.9V124.378H113.583V123.328H114.577V121.396H115.851V123.328H117.853V124.378H115.851V128.9C115.851 129.656 116.131 129.922 116.915 129.922H117.853V131H116.705C115.347 131 114.577 130.44 114.577 128.9ZM126.676 127.15C126.676 129.586 124.926 131.126 122.742 131.126C120.572 131.126 118.92 129.586 118.92 127.15C118.92 124.728 120.628 123.202 122.798 123.202C124.982 123.202 126.676 124.728 126.676 127.15ZM120.222 127.15C120.222 129.096 121.412 130.006 122.742 130.006C124.072 130.006 125.374 129.096 125.374 127.15C125.374 125.218 124.1 124.308 122.784 124.308C121.44 124.308 120.222 125.218 120.222 127.15ZM133.358 124.756C133.848 123.902 134.87 123.202 136.228 123.202C138.3 123.202 139.868 124.742 139.868 127.136C139.868 129.516 138.286 131.126 136.228 131.126C134.828 131.126 133.834 130.426 133.358 129.586V131H132.084V120.64H133.358V124.756ZM138.566 127.136C138.566 125.33 137.376 124.308 135.962 124.308C134.576 124.308 133.358 125.372 133.358 127.15C133.358 128.956 134.576 130.006 135.962 130.006C137.376 130.006 138.566 128.942 138.566 127.136ZM142.819 126.828V131H141.545V123.328H142.819V124.574C143.253 123.72 144.079 123.188 145.297 123.188V124.504H144.961C143.743 124.504 142.819 125.05 142.819 126.828ZM146.767 131V123.328H148.041V131H146.767ZM147.425 122.082C146.935 122.082 146.557 121.704 146.557 121.214C146.557 120.724 146.935 120.346 147.425 120.346C147.887 120.346 148.265 120.724 148.265 121.214C148.265 121.704 147.887 122.082 147.425 122.082ZM155.827 131V126.66C155.827 125.092 154.973 124.294 153.685 124.294C152.383 124.294 151.487 125.106 151.487 126.758V131H150.213V123.328H151.487V124.42C151.991 123.622 152.915 123.188 153.951 123.188C155.729 123.188 157.087 124.28 157.087 126.478V131H155.827ZM158.692 127.136C158.692 124.742 160.274 123.202 162.332 123.202C163.732 123.202 164.74 123.902 165.188 124.728V123.328H166.476V131.168C166.476 133.282 165.062 134.78 162.808 134.78C160.792 134.78 159.35 133.758 159.098 132.12H160.358C160.638 133.044 161.548 133.674 162.808 133.674C164.166 133.674 165.188 132.806 165.188 131.168V129.558C164.726 130.384 163.732 131.126 162.332 131.126C160.274 131.126 158.692 129.516 158.692 127.136ZM165.188 127.15C165.188 125.372 163.984 124.308 162.584 124.308C161.184 124.308 159.994 125.33 159.994 127.136C159.994 128.942 161.184 130.006 162.584 130.006C163.984 130.006 165.188 128.956 165.188 127.15ZM175.623 124.28C174.377 124.28 173.341 125.106 173.201 126.604H178.045C178.059 125.106 176.939 124.28 175.623 124.28ZM179.207 128.634C178.815 130.034 177.583 131.126 175.679 131.126C173.495 131.126 171.885 129.586 171.885 127.15C171.885 124.728 173.439 123.202 175.679 123.202C177.905 123.202 179.361 124.77 179.361 126.87C179.361 127.15 179.347 127.374 179.319 127.64H173.187C173.285 129.194 174.377 130.048 175.679 130.048C176.827 130.048 177.555 129.46 177.835 128.634H179.207ZM180.567 127.136C180.567 124.742 182.149 123.202 184.207 123.202C185.635 123.202 186.615 123.93 187.063 124.728V123.328H188.351V131H187.063V129.572C186.601 130.398 185.607 131.126 184.193 131.126C182.149 131.126 180.567 129.516 180.567 127.136ZM187.063 127.15C187.063 125.372 185.859 124.308 184.459 124.308C183.059 124.308 181.869 125.33 181.869 127.136C181.869 128.942 183.059 130.006 184.459 130.006C185.859 130.006 187.063 128.956 187.063 127.15ZM190.028 127.15C190.028 124.742 191.582 123.202 193.766 123.202C195.67 123.202 196.916 124.182 197.308 125.792H195.936C195.67 124.868 194.9 124.28 193.766 124.28C192.366 124.28 191.33 125.274 191.33 127.15C191.33 129.054 192.366 130.048 193.766 130.048C194.9 130.048 195.656 129.502 195.936 128.536H197.308C196.916 130.062 195.67 131.126 193.766 131.126C191.582 131.126 190.028 129.586 190.028 127.15ZM199.008 131V120.64H200.282V124.434C200.786 123.622 201.738 123.188 202.816 123.188C204.524 123.188 205.882 124.28 205.882 126.478V131H204.622V126.66C204.622 125.092 203.768 124.294 202.48 124.294C201.178 124.294 200.282 125.106 200.282 126.758V131H199.008ZM23.316 151V144.378H22.322V143.328H23.316V142.782C23.316 141.074 24.156 140.304 26.116 140.304V141.368C24.968 141.368 24.59 141.788 24.59 142.782V143.328H26.2V144.378H24.59V151H23.316ZM30.9474 144.28C29.7014 144.28 28.6654 145.106 28.5254 146.604H33.3694C33.3834 145.106 32.2634 144.28 30.9474 144.28ZM34.5314 148.634C34.1394 150.034 32.9074 151.126 31.0034 151.126C28.8194 151.126 27.2094 149.586 27.2094 147.15C27.2094 144.728 28.7634 143.202 31.0034 143.202C33.2294 143.202 34.6854 144.77 34.6854 146.87C34.6854 147.15 34.6714 147.374 34.6434 147.64H28.5114C28.6094 149.194 29.7014 150.048 31.0034 150.048C32.1514 150.048 32.8794 149.46 33.1594 148.634H34.5314ZM35.8911 147.136C35.8911 144.742 37.4731 143.202 39.5311 143.202C40.9591 143.202 41.9391 143.93 42.3871 144.728V143.328H43.6751V151H42.3871V149.572C41.9251 150.398 40.9311 151.126 39.5171 151.126C37.4731 151.126 35.8911 149.516 35.8911 147.136ZM42.3871 147.15C42.3871 145.372 41.1831 144.308 39.7831 144.308C38.3831 144.308 37.1931 145.33 37.1931 147.136C37.1931 148.942 38.3831 150.006 39.7831 150.006C41.1831 150.006 42.3871 148.956 42.3871 147.15ZM46.108 148.9V144.378H45.114V143.328H46.108V141.396H47.382V143.328H49.384V144.378H47.382V148.9C47.382 149.656 47.662 149.922 48.446 149.922H49.384V151H48.236C46.878 151 46.108 150.44 46.108 148.9ZM57.7316 143.328V151H56.4576V149.866C55.9676 150.664 55.0296 151.112 54.0076 151.112C52.2436 151.112 50.8576 150.02 50.8576 147.822V143.328H52.1176V147.654C52.1176 149.208 52.9716 150.006 54.2596 150.006C55.5756 150.006 56.4576 149.194 56.4576 147.542V143.328H57.7316ZM61.1567 146.828V151H59.8827V143.328H61.1567V144.574C61.5907 143.72 62.4167 143.188 63.6347 143.188V144.504H63.2987C62.0807 144.504 61.1567 145.05 61.1567 146.828ZM68.3673 144.28C67.1213 144.28 66.0853 145.106 65.9453 146.604H70.7893C70.8033 145.106 69.6833 144.28 68.3673 144.28ZM71.9513 148.634C71.5593 150.034 70.3273 151.126 68.4233 151.126C66.2393 151.126 64.6293 149.586 64.6293 147.15C64.6293 144.728 66.1833 143.202 68.4233 143.202C70.6493 143.202 72.1053 144.77 72.1053 146.87C72.1053 147.15 72.0913 147.374 72.0633 147.64H65.9313C66.0293 149.194 67.1213 150.048 68.4233 150.048C69.5713 150.048 70.2993 149.46 70.5793 148.634H71.9513ZM77.7994 148.9V144.378H76.8054V143.328H77.7994V141.396H79.0734V143.328H81.0754V144.378H79.0734V148.9C79.0734 149.656 79.3534 149.922 80.1374 149.922H81.0754V151H79.9274C78.5694 151 77.7994 150.44 77.7994 148.9ZM89.899 147.15C89.899 149.586 88.149 151.126 85.965 151.126C83.795 151.126 82.143 149.586 82.143 147.15C82.143 144.728 83.851 143.202 86.021 143.202C88.205 143.202 89.899 144.728 89.899 147.15ZM83.445 147.15C83.445 149.096 84.635 150.006 85.965 150.006C87.295 150.006 88.597 149.096 88.597 147.15C88.597 145.218 87.323 144.308 86.007 144.308C84.663 144.308 83.445 145.218 83.445 147.15ZM95.3065 151V140.64H96.5805V151H95.3065ZM98.7518 151V143.328H100.026V151H98.7518ZM99.4098 142.082C98.9198 142.082 98.5418 141.704 98.5418 141.214C98.5418 140.724 98.9198 140.346 99.4098 140.346C99.8718 140.346 100.25 140.724 100.25 141.214C100.25 141.704 99.8718 142.082 99.4098 142.082ZM102.435 151V144.378H101.441V143.328H102.435V142.782C102.435 141.074 103.275 140.304 105.235 140.304V141.368C104.087 141.368 103.709 141.788 103.709 142.782V143.328H105.319V144.378H103.709V151H102.435ZM110.067 144.28C108.821 144.28 107.785 145.106 107.645 146.604H112.489C112.503 145.106 111.383 144.28 110.067 144.28ZM113.651 148.634C113.259 150.034 112.027 151.126 110.123 151.126C107.939 151.126 106.329 149.586 106.329 147.15C106.329 144.728 107.883 143.202 110.123 143.202C112.349 143.202 113.805 144.77 113.805 146.87C113.805 147.15 113.791 147.374 113.763 147.64H107.631C107.729 149.194 108.821 150.048 110.123 150.048C111.271 150.048 111.999 149.46 112.279 148.634H113.651ZM115.92 148.242L115.766 141.242H117.138L116.984 148.242H115.92ZM117.348 150.216C117.348 150.706 116.97 151.084 116.508 151.084C116.018 151.084 115.64 150.706 115.64 150.216C115.64 149.726 116.018 149.348 116.508 149.348C116.97 149.348 117.348 149.726 117.348 150.216ZM129.941 151L129.157 148.83H124.901L124.117 151H122.773L126.301 141.298H127.771L131.285 151H129.941ZM128.793 147.794L127.029 142.866L125.265 147.794H128.793ZM138.338 148.914C138.338 150.174 137.232 151.126 135.538 151.126C133.746 151.126 132.486 150.146 132.402 148.746H133.718C133.788 149.488 134.446 150.048 135.524 150.048C136.532 150.048 137.092 149.544 137.092 148.914C137.092 147.206 132.556 148.2 132.556 145.344C132.556 144.168 133.662 143.202 135.37 143.202C137.064 143.202 138.184 144.112 138.268 145.61H136.994C136.938 144.84 136.35 144.28 135.328 144.28C134.39 144.28 133.83 144.728 133.83 145.344C133.83 147.164 138.282 146.17 138.338 148.914ZM145.367 151L142.959 143.328H144.261L146.025 149.768L147.929 143.328H149.231L151.093 149.782L152.829 143.328H154.089L151.695 151H150.379L148.531 144.91L146.683 151H145.367ZM158.615 144.28C157.369 144.28 156.333 145.106 156.193 146.604H161.037C161.051 145.106 159.931 144.28 158.615 144.28ZM162.199 148.634C161.807 150.034 160.575 151.126 158.671 151.126C156.487 151.126 154.877 149.586 154.877 147.15C154.877 144.728 156.431 143.202 158.671 143.202C160.897 143.202 162.353 144.77 162.353 146.87C162.353 147.15 162.339 147.374 162.311 147.64H156.179C156.277 149.194 157.369 150.048 158.671 150.048C159.819 150.048 160.547 149.46 160.827 148.634H162.199ZM167.291 147.15C167.291 144.742 168.845 143.202 171.029 143.202C172.933 143.202 174.179 144.182 174.571 145.792H173.199C172.933 144.868 172.163 144.28 171.029 144.28C169.629 144.28 168.593 145.274 168.593 147.15C168.593 149.054 169.629 150.048 171.029 150.048C172.163 150.048 172.919 149.502 173.199 148.536H174.571C174.179 150.062 172.933 151.126 171.029 151.126C168.845 151.126 167.291 149.586 167.291 147.15ZM183.551 147.15C183.551 149.586 181.801 151.126 179.617 151.126C177.447 151.126 175.795 149.586 175.795 147.15C175.795 144.728 177.503 143.202 179.673 143.202C181.857 143.202 183.551 144.728 183.551 147.15ZM177.097 147.15C177.097 149.096 178.287 150.006 179.617 150.006C180.947 150.006 182.249 149.096 182.249 147.15C182.249 145.218 180.975 144.308 179.659 144.308C178.315 144.308 177.097 145.218 177.097 147.15ZM184.75 147.136C184.75 144.742 186.332 143.202 188.404 143.202C189.608 143.202 190.714 143.818 191.246 144.7V140.64H192.534V151H191.246V149.558C190.784 150.412 189.79 151.126 188.39 151.126C186.332 151.126 184.75 149.516 184.75 147.136ZM191.246 147.15C191.246 145.372 190.042 144.308 188.642 144.308C187.242 144.308 186.052 145.33 186.052 147.136C186.052 148.942 187.242 150.006 188.642 150.006C190.042 150.006 191.246 148.956 191.246 147.15ZM197.949 144.28C196.703 144.28 195.667 145.106 195.527 146.604H200.371C200.385 145.106 199.265 144.28 197.949 144.28ZM201.533 148.634C201.141 150.034 199.909 151.126 198.005 151.126C195.821 151.126 194.211 149.586 194.211 147.15C194.211 144.728 195.765 143.202 198.005 143.202C200.231 143.202 201.687 144.77 201.687 146.87C201.687 147.15 201.673 147.374 201.645 147.64H195.513C195.611 149.194 196.703 150.048 198.005 150.048C199.153 150.048 199.881 149.46 200.161 148.634H201.533ZM210.363 144.28C209.117 144.28 208.081 145.106 207.941 146.604H212.785C212.799 145.106 211.679 144.28 210.363 144.28ZM213.947 148.634C213.555 150.034 212.323 151.126 210.419 151.126C208.235 151.126 206.625 149.586 206.625 147.15C206.625 144.728 208.179 143.202 210.419 143.202C212.645 143.202 214.101 144.77 214.101 146.87C214.101 147.15 214.087 147.374 214.059 147.64H207.927C208.025 149.194 209.117 150.048 210.419 150.048C211.567 150.048 212.295 149.46 212.575 148.634H213.947ZM215.307 147.136C215.307 144.742 216.889 143.202 218.947 143.202C220.375 143.202 221.355 143.93 221.803 144.728V143.328H223.091V151H221.803V149.572C221.341 150.398 220.347 151.126 218.933 151.126C216.889 151.126 215.307 149.516 215.307 147.136ZM221.803 147.15C221.803 145.372 220.599 144.308 219.199 144.308C217.799 144.308 216.609 145.33 216.609 147.136C216.609 148.942 217.799 150.006 219.199 150.006C220.599 150.006 221.803 148.956 221.803 147.15ZM224.768 147.15C224.768 144.742 226.322 143.202 228.506 143.202C230.41 143.202 231.656 144.182 232.048 145.792H230.676C230.41 144.868 229.64 144.28 228.506 144.28C227.106 144.28 226.07 145.274 226.07 147.15C226.07 149.054 227.106 150.048 228.506 150.048C229.64 150.048 230.396 149.502 230.676 148.536H232.048C231.656 150.062 230.41 151.126 228.506 151.126C226.322 151.126 224.768 149.586 224.768 147.15ZM233.748 151V140.64H235.022V144.434C235.526 143.622 236.478 143.188 237.556 143.188C239.264 143.188 240.622 144.28 240.622 146.478V151H239.362V146.66C239.362 145.092 238.508 144.294 237.22 144.294C235.918 144.294 235.022 145.106 235.022 146.758V151H233.748ZM23.316 171V164.378H22.322V163.328H23.316V162.782C23.316 161.074 24.156 160.304 26.116 160.304V161.368C24.968 161.368 24.59 161.788 24.59 162.782V163.328H26.2V164.378H24.59V171H23.316ZM34.4894 163.328V171H33.2154V169.866C32.7254 170.664 31.7874 171.112 30.7654 171.112C29.0014 171.112 27.6154 170.02 27.6154 167.822V163.328H28.8754V167.654C28.8754 169.208 29.7294 170.006 31.0174 170.006C32.3334 170.006 33.2154 169.194 33.2154 167.542V163.328H34.4894ZM42.2545 171V166.66C42.2545 165.092 41.4005 164.294 40.1125 164.294C38.8105 164.294 37.9145 165.106 37.9145 166.758V171H36.6405V163.328H37.9145V164.42C38.4185 163.622 39.3425 163.188 40.3785 163.188C42.1565 163.188 43.5145 164.28 43.5145 166.478V171H42.2545ZM45.1196 167.15C45.1196 164.742 46.6736 163.202 48.8576 163.202C50.7616 163.202 52.0076 164.182 52.3996 165.792H51.0276C50.7616 164.868 49.9916 164.28 48.8576 164.28C47.4576 164.28 46.4216 165.274 46.4216 167.15C46.4216 169.054 47.4576 170.048 48.8576 170.048C49.9916 170.048 50.7476 169.502 51.0276 168.536H52.3996C52.0076 170.062 50.7616 171.126 48.8576 171.126C46.6736 171.126 45.1196 169.586 45.1196 167.15ZM54.3795 168.9V164.378H53.3855V163.328H54.3795V161.396H55.6535V163.328H57.6555V164.378H55.6535V168.9C55.6535 169.656 55.9335 169.922 56.7175 169.922H57.6555V171H56.5075C55.1495 171 54.3795 170.44 54.3795 168.9ZM59.1991 171V163.328H60.4731V171H59.1991ZM59.8571 162.082C59.3671 162.082 58.9891 161.704 58.9891 161.214C58.9891 160.724 59.3671 160.346 59.8571 160.346C60.3191 160.346 60.6971 160.724 60.6971 161.214C60.6971 161.704 60.3191 162.082 59.8571 162.082ZM69.9244 167.15C69.9244 169.586 68.1744 171.126 65.9904 171.126C63.8204 171.126 62.1684 169.586 62.1684 167.15C62.1684 164.728 63.8764 163.202 66.0464 163.202C68.2304 163.202 69.9244 164.728 69.9244 167.15ZM63.4704 167.15C63.4704 169.096 64.6604 170.006 65.9904 170.006C67.3204 170.006 68.6224 169.096 68.6224 167.15C68.6224 165.218 67.3484 164.308 66.0324 164.308C64.6884 164.308 63.4704 165.218 63.4704 167.15ZM77.2135 171V166.66C77.2135 165.092 76.3595 164.294 75.0715 164.294C73.7695 164.294 72.8735 165.106 72.8735 166.758V171H71.5995V163.328H72.8735V164.42C73.3775 163.622 74.3015 163.188 75.3375 163.188C77.1155 163.188 78.4735 164.28 78.4735 166.478V171H77.2135ZM80.0786 167.136C80.0786 164.742 81.6606 163.202 83.7186 163.202C85.1466 163.202 86.1266 163.93 86.5746 164.728V163.328H87.8626V171H86.5746V169.572C86.1126 170.398 85.1186 171.126 83.7046 171.126C81.6606 171.126 80.0786 169.516 80.0786 167.136ZM86.5746 167.15C86.5746 165.372 85.3706 164.308 83.9706 164.308C82.5706 164.308 81.3806 165.33 81.3806 167.136C81.3806 168.942 82.5706 170.006 83.9706 170.006C85.3706 170.006 86.5746 168.956 86.5746 167.15ZM90.0155 171V160.64H91.2895V171H90.0155ZM93.4608 171V163.328H94.7348V171H93.4608ZM94.1188 162.082C93.6288 162.082 93.2508 161.704 93.2508 161.214C93.2508 160.724 93.6288 160.346 94.1188 160.346C94.5808 160.346 94.9588 160.724 94.9588 161.214C94.9588 161.704 94.5808 162.082 94.1188 162.082ZM97.1861 168.9V164.378H96.1921V163.328H97.1861V161.396H98.4601V163.328H100.462V164.378H98.4601V168.9C98.4601 169.656 98.7401 169.922 99.5241 169.922H100.462V171H99.3141C97.9561 171 97.1861 170.44 97.1861 168.9ZM104.918 169.544L107.298 163.328H108.614L103.994 174.612H102.678L104.19 170.916L101.096 163.328H102.51L104.918 169.544ZM115.125 171L112.717 163.328H114.019L115.783 169.768L117.687 163.328H118.989L120.851 169.782L122.587 163.328H123.847L121.453 171H120.137L118.289 164.91L116.441 171H115.125ZM128.373 164.28C127.127 164.28 126.091 165.106 125.951 166.604H130.795C130.809 165.106 129.689 164.28 128.373 164.28ZM131.957 168.634C131.565 170.034 130.333 171.126 128.429 171.126C126.245 171.126 124.635 169.586 124.635 167.15C124.635 164.728 126.189 163.202 128.429 163.202C130.655 163.202 132.111 164.77 132.111 166.87C132.111 167.15 132.097 167.374 132.069 167.64H125.937C126.035 169.194 127.127 170.048 128.429 170.048C129.577 170.048 130.305 169.46 130.585 168.634H131.957ZM139.023 171L136.615 163.328H137.917L139.681 169.768L141.585 163.328H142.887L144.749 169.782L146.485 163.328H147.745L145.351 171H144.035L142.187 164.91L140.339 171H139.023ZM149.01 171V163.328H150.284V171H149.01ZM149.668 162.082C149.178 162.082 148.8 161.704 148.8 161.214C148.8 160.724 149.178 160.346 149.668 160.346C150.13 160.346 150.508 160.724 150.508 161.214C150.508 161.704 150.13 162.082 149.668 162.082ZM152.455 171V160.64H153.729V171H152.455ZM155.9 171V160.64H157.174V171H155.9ZM168.594 168.914C168.594 170.174 167.488 171.126 165.794 171.126C164.002 171.126 162.742 170.146 162.658 168.746H163.974C164.044 169.488 164.702 170.048 165.78 170.048C166.788 170.048 167.348 169.544 167.348 168.914C167.348 167.206 162.812 168.2 162.812 165.344C162.812 164.168 163.918 163.202 165.626 163.202C167.32 163.202 168.44 164.112 168.524 165.61H167.25C167.194 164.84 166.606 164.28 165.584 164.28C164.646 164.28 164.086 164.728 164.086 165.344C164.086 167.164 168.538 166.17 168.594 168.914ZM173.654 164.28C172.408 164.28 171.372 165.106 171.232 166.604H176.076C176.09 165.106 174.97 164.28 173.654 164.28ZM177.238 168.634C176.846 170.034 175.614 171.126 173.71 171.126C171.526 171.126 169.916 169.586 169.916 167.15C169.916 164.728 171.47 163.202 173.71 163.202C175.936 163.202 177.392 164.77 177.392 166.87C177.392 167.15 177.378 167.374 177.35 167.64H171.218C171.316 169.194 172.408 170.048 173.71 170.048C174.858 170.048 175.586 169.46 175.866 168.634H177.238ZM184.688 171V166.66C184.688 165.092 183.834 164.294 182.546 164.294C181.244 164.294 180.348 165.106 180.348 166.758V171H179.074V163.328H180.348V164.42C180.852 163.622 181.776 163.188 182.812 163.188C184.59 163.188 185.948 164.28 185.948 166.478V171H184.688ZM187.553 167.136C187.553 164.742 189.135 163.202 191.207 163.202C192.411 163.202 193.517 163.818 194.049 164.7V160.64H195.337V171H194.049V169.558C193.587 170.412 192.593 171.126 191.193 171.126C189.135 171.126 187.553 169.516 187.553 167.136ZM194.049 167.15C194.049 165.372 192.845 164.308 191.445 164.308C190.045 164.308 188.855 165.33 188.855 167.136C188.855 168.942 190.045 170.006 191.445 170.006C192.845 170.006 194.049 168.956 194.049 167.15ZM204.135 169.544L206.515 163.328H207.831L203.211 174.612H201.895L203.407 170.916L200.313 163.328H201.727L204.135 169.544ZM216.391 167.15C216.391 169.586 214.641 171.126 212.457 171.126C210.287 171.126 208.635 169.586 208.635 167.15C208.635 164.728 210.343 163.202 212.513 163.202C214.697 163.202 216.391 164.728 216.391 167.15ZM209.937 167.15C209.937 169.096 211.127 170.006 212.457 170.006C213.787 170.006 215.089 169.096 215.089 167.15C215.089 165.218 213.815 164.308 212.499 164.308C211.155 164.308 209.937 165.218 209.937 167.15ZM224.87 163.328V171H223.596V169.866C223.106 170.664 222.168 171.112 221.146 171.112C219.382 171.112 217.996 170.02 217.996 167.822V163.328H219.256V167.654C219.256 169.208 220.11 170.006 221.398 170.006C222.714 170.006 223.596 169.194 223.596 167.542V163.328H224.87ZM23.358 188.9V184.378H22.364V183.328H23.358V181.396H24.632V183.328H26.634V184.378H24.632V188.9C24.632 189.656 24.912 189.922 25.696 189.922H26.634V191H25.486C24.128 191 23.358 190.44 23.358 188.9ZM28.1776 191V180.64H29.4516V184.434C29.9556 183.622 30.9076 183.188 31.9856 183.188C33.6936 183.188 35.0516 184.28 35.0516 186.478V191H33.7916V186.66C33.7916 185.092 32.9376 184.294 31.6496 184.294C30.3476 184.294 29.4516 185.106 29.4516 186.758V191H28.1776ZM40.3947 184.28C39.1487 184.28 38.1127 185.106 37.9727 186.604H42.8167C42.8307 185.106 41.7107 184.28 40.3947 184.28ZM43.9787 188.634C43.5867 190.034 42.3547 191.126 40.4507 191.126C38.2667 191.126 36.6567 189.586 36.6567 187.15C36.6567 184.728 38.2107 183.202 40.4507 183.202C42.6767 183.202 44.1327 184.77 44.1327 186.87C44.1327 187.15 44.1187 187.374 44.0907 187.64H37.9587C38.0567 189.194 39.1487 190.048 40.4507 190.048C41.5987 190.048 42.3267 189.46 42.6067 188.634H43.9787ZM56.3508 183.328V191H55.0768V189.866C54.5868 190.664 53.6488 191.112 52.6268 191.112C50.8628 191.112 49.4768 190.02 49.4768 187.822V183.328H50.7368V187.654C50.7368 189.208 51.5908 190.006 52.8788 190.006C54.1948 190.006 55.0768 189.194 55.0768 187.542V183.328H56.3508ZM59.7758 184.742C60.2378 183.93 61.2458 183.202 62.6458 183.202C64.7038 183.202 66.2858 184.742 66.2858 187.136C66.2858 189.516 64.7038 191.126 62.6458 191.126C61.2458 191.126 60.2518 190.37 59.7758 189.586V194.64H58.5018V183.328H59.7758V184.742ZM64.9838 187.136C64.9838 185.33 63.7938 184.308 62.3798 184.308C60.9938 184.308 59.7758 185.372 59.7758 187.15C59.7758 188.956 60.9938 190.006 62.3798 190.006C63.7938 190.006 64.9838 188.942 64.9838 187.136ZM67.4868 187.136C67.4868 184.742 69.0688 183.202 71.1408 183.202C72.3448 183.202 73.4508 183.818 73.9828 184.7V180.64H75.2708V191H73.9828V189.558C73.5208 190.412 72.5268 191.126 71.1268 191.126C69.0688 191.126 67.4868 189.516 67.4868 187.136ZM73.9828 187.15C73.9828 185.372 72.7788 184.308 71.3788 184.308C69.9788 184.308 68.7888 185.33 68.7888 187.136C68.7888 188.942 69.9788 190.006 71.3788 190.006C72.7788 190.006 73.9828 188.956 73.9828 187.15ZM76.9477 187.136C76.9477 184.742 78.5297 183.202 80.5877 183.202C82.0157 183.202 82.9957 183.93 83.4437 184.728V183.328H84.7317V191H83.4437V189.572C82.9817 190.398 81.9877 191.126 80.5737 191.126C78.5297 191.126 76.9477 189.516 76.9477 187.136ZM83.4437 187.15C83.4437 185.372 82.2397 184.308 80.8397 184.308C79.4397 184.308 78.2497 185.33 78.2497 187.136C78.2497 188.942 79.4397 190.006 80.8397 190.006C82.2397 190.006 83.4437 188.956 83.4437 187.15ZM87.1646 188.9V184.378H86.1706V183.328H87.1646V181.396H88.4386V183.328H90.4406V184.378H88.4386V188.9C88.4386 189.656 88.7186 189.922 89.5026 189.922H90.4406V191H89.2926C87.9346 191 87.1646 190.44 87.1646 188.9ZM95.2463 184.28C94.0003 184.28 92.9642 185.106 92.8243 186.604H97.6683C97.6823 185.106 96.5623 184.28 95.2463 184.28ZM98.8303 188.634C98.4383 190.034 97.2063 191.126 95.3023 191.126C93.1183 191.126 91.5083 189.586 91.5083 187.15C91.5083 184.728 93.0623 183.202 95.3023 183.202C97.5283 183.202 98.9843 184.77 98.9843 186.87C98.9843 187.15 98.9703 187.374 98.9423 187.64H92.8103C92.9083 189.194 94.0003 190.048 95.3023 190.048C96.4503 190.048 97.1783 189.46 97.4583 188.634H98.8303ZM100.19 187.136C100.19 184.742 101.772 183.202 103.844 183.202C105.048 183.202 106.154 183.818 106.686 184.7V180.64H107.974V191H106.686V189.558C106.224 190.412 105.23 191.126 103.83 191.126C101.772 191.126 100.19 189.516 100.19 187.136ZM106.686 187.15C106.686 185.372 105.482 184.308 104.082 184.308C102.682 184.308 101.492 185.33 101.492 187.136C101.492 188.942 102.682 190.006 104.082 190.006C105.482 190.006 106.686 188.956 106.686 187.15ZM119.375 188.914C119.375 190.174 118.269 191.126 116.575 191.126C114.783 191.126 113.523 190.146 113.439 188.746H114.755C114.825 189.488 115.483 190.048 116.561 190.048C117.569 190.048 118.129 189.544 118.129 188.914C118.129 187.206 113.593 188.2 113.593 185.344C113.593 184.168 114.699 183.202 116.407 183.202C118.101 183.202 119.221 184.112 119.305 185.61H118.031C117.975 184.84 117.387 184.28 116.365 184.28C115.427 184.28 114.867 184.728 114.867 185.344C114.867 187.164 119.319 186.17 119.375 188.914ZM128.454 187.15C128.454 189.586 126.704 191.126 124.52 191.126C122.35 191.126 120.698 189.586 120.698 187.15C120.698 184.728 122.406 183.202 124.576 183.202C126.76 183.202 128.454 184.728 128.454 187.15ZM122 187.15C122 189.096 123.19 190.006 124.52 190.006C125.85 190.006 127.152 189.096 127.152 187.15C127.152 185.218 125.878 184.308 124.562 184.308C123.218 184.308 122 185.218 122 187.15ZM130.367 191V184.378H129.373V183.328H130.367V182.782C130.367 181.074 131.207 180.304 133.167 180.304V181.368C132.019 181.368 131.641 181.788 131.641 182.782V183.328H133.251V184.378H131.641V191H130.367ZM135.016 188.9V184.378H134.022V183.328H135.016V181.396H136.29V183.328H138.292V184.378H136.29V188.9C136.29 189.656 136.57 189.922 137.354 189.922H138.292V191H137.144C135.786 191 135.016 190.44 135.016 188.9ZM141.334 191L138.926 183.328H140.228L141.992 189.768L143.896 183.328H145.198L147.06 189.782L148.796 183.328H150.056L147.662 191H146.346L144.498 184.91L142.65 191H141.334ZM150.844 187.136C150.844 184.742 152.426 183.202 154.484 183.202C155.912 183.202 156.892 183.93 157.34 184.728V183.328H158.628V191H157.34V189.572C156.878 190.398 155.884 191.126 154.47 191.126C152.426 191.126 150.844 189.516 150.844 187.136ZM157.34 187.15C157.34 185.372 156.136 184.308 154.736 184.308C153.336 184.308 152.146 185.33 152.146 187.136C152.146 188.942 153.336 190.006 154.736 190.006C156.136 190.006 157.34 188.956 157.34 187.15ZM162.055 186.828V191H160.781V183.328H162.055V184.574C162.489 183.72 163.315 183.188 164.533 183.188V184.504H164.197C162.979 184.504 162.055 185.05 162.055 186.828ZM169.266 184.28C168.02 184.28 166.984 185.106 166.844 186.604H171.688C171.702 185.106 170.582 184.28 169.266 184.28ZM172.85 188.634C172.458 190.034 171.226 191.126 169.322 191.126C167.138 191.126 165.528 189.586 165.528 187.15C165.528 184.728 167.082 183.202 169.322 183.202C171.548 183.202 173.004 184.77 173.004 186.87C173.004 187.15 172.99 187.374 172.962 187.64H166.83C166.928 189.194 168.02 190.048 169.322 190.048C170.47 190.048 171.198 189.46 171.478 188.634H172.85ZM178.656 191V184.378H177.662V183.328H178.656V182.782C178.656 181.074 179.496 180.304 181.456 180.304V181.368C180.308 181.368 179.93 181.788 179.93 182.782V183.328H181.54V184.378H179.93V191H178.656ZM190.305 187.15C190.305 189.586 188.555 191.126 186.371 191.126C184.201 191.126 182.549 189.586 182.549 187.15C182.549 184.728 184.257 183.202 186.427 183.202C188.611 183.202 190.305 184.728 190.305 187.15ZM183.851 187.15C183.851 189.096 185.041 190.006 186.371 190.006C187.701 190.006 189.003 189.096 189.003 187.15C189.003 185.218 187.729 184.308 186.413 184.308C185.069 184.308 183.851 185.218 183.851 187.15ZM193.254 186.828V191H191.98V183.328H193.254V184.574C193.688 183.72 194.514 183.188 195.732 183.188V184.504H195.396C194.178 184.504 193.254 185.05 193.254 186.828ZM202.209 186.828V191H200.935V183.328H202.209V184.574C202.643 183.72 203.469 183.188 204.687 183.188V184.504H204.351C203.133 184.504 202.209 185.05 202.209 186.828ZM209.42 184.28C208.174 184.28 207.138 185.106 206.998 186.604H211.842C211.856 185.106 210.736 184.28 209.42 184.28ZM213.004 188.634C212.612 190.034 211.38 191.126 209.476 191.126C207.292 191.126 205.682 189.586 205.682 187.15C205.682 184.728 207.236 183.202 209.476 183.202C211.702 183.202 213.158 184.77 213.158 186.87C213.158 187.15 213.144 187.374 213.116 187.64H206.984C207.082 189.194 208.174 190.048 209.476 190.048C210.624 190.048 211.352 189.46 211.632 188.634H213.004ZM213.93 183.328H215.302L217.696 189.824L220.076 183.328H221.434L218.424 191H216.94L213.93 183.328ZM222.687 191V183.328H223.961V191H222.687ZM223.345 182.082C222.855 182.082 222.477 181.704 222.477 181.214C222.477 180.724 222.855 180.346 223.345 180.346C223.807 180.346 224.185 180.724 224.185 181.214C224.185 181.704 223.807 182.082 223.345 182.082ZM229.395 184.28C228.149 184.28 227.113 185.106 226.973 186.604H231.817C231.831 185.106 230.711 184.28 229.395 184.28ZM232.979 188.634C232.587 190.034 231.355 191.126 229.451 191.126C227.267 191.126 225.657 189.586 225.657 187.15C225.657 184.728 227.211 183.202 229.451 183.202C231.677 183.202 233.133 184.77 233.133 186.87C233.133 187.15 233.119 187.374 233.091 187.64H226.959C227.057 189.194 228.149 190.048 229.451 190.048C230.599 190.048 231.327 189.46 231.607 188.634H232.979ZM236.312 191L233.904 183.328H235.206L236.97 189.768L238.874 183.328H240.176L242.038 189.782L243.774 183.328H245.034L242.64 191H241.324L239.476 184.91L237.628 191H236.312ZM247.545 190.216C247.545 190.706 247.167 191.084 246.705 191.084C246.215 191.084 245.837 190.706 245.837 190.216C245.837 189.726 246.215 189.348 246.705 189.348C247.167 189.348 247.545 189.726 247.545 190.216Z" fill="#4F668E"/>
</svg>
