<svg width="250" height="247" viewBox="0 0 250 247" fill="none" xmlns="http://www.w3.org/2000/svg">
<path d="M70.9393 246.061C71.5251 246.646 72.4749 246.646 73.0607 246.061L82.6066 236.515C83.1924 235.929 83.1924 234.979 82.6066 234.393C82.0208 233.808 81.0711 233.808 80.4853 234.393L72 242.879L63.5147 234.393C62.9289 233.808 61.9792 233.808 61.3934 234.393C60.8076 234.979 60.8076 235.929 61.3934 236.515L70.9393 246.061ZM70.5 208V245H73.5V208H70.5Z" fill="#23D9AE"/>
<path d="M54.5042 26H30C14.536 26 2 38.536 2 54V181C2 196.464 14.536 209 30 209H73" stroke="#23D9AE" stroke-width="3"/>
<circle cx="73" cy="25" r="25" fill="#34B7F2"/>
<path d="M32.38 82.96V85.7H26.66V88.66H30.94V91.32H26.66V97H23.24V82.96H32.38ZM45.1975 85.84V97H41.7775V95.48C41.4308 95.9733 40.9575 96.3733 40.3575 96.68C39.7708 96.9733 39.1175 97.12 38.3975 97.12C37.5442 97.12 36.7908 96.9333 36.1375 96.56C35.4842 96.1733 34.9775 95.62 34.6175 94.9C34.2575 94.18 34.0775 93.3333 34.0775 92.36V85.84H37.4775V91.9C37.4775 92.6467 37.6708 93.2267 38.0575 93.64C38.4442 94.0533 38.9642 94.26 39.6175 94.26C40.2842 94.26 40.8108 94.0533 41.1975 93.64C41.5842 93.2267 41.7775 92.6467 41.7775 91.9V85.84H45.1975ZM54.4541 85.72C55.7607 85.72 56.8007 86.1467 57.5741 87C58.3607 87.84 58.7541 89 58.7541 90.48V97H55.3541V90.94C55.3541 90.1933 55.1607 89.6133 54.7741 89.2C54.3874 88.7867 53.8674 88.58 53.2141 88.58C52.5607 88.58 52.0407 88.7867 51.6541 89.2C51.2674 89.6133 51.0741 90.1933 51.0741 90.94V97H47.6541V85.84H51.0741V87.32C51.4207 86.8267 51.8874 86.44 52.4741 86.16C53.0607 85.8667 53.7207 85.72 54.4541 85.72ZM60.4506 91.42C60.4506 90.26 60.684 89.2467 61.1506 88.38C61.6306 87.5133 62.2906 86.8467 63.1306 86.38C63.984 85.9133 64.9573 85.68 66.0506 85.68C67.4506 85.68 68.6173 86.0467 69.5506 86.78C70.4973 87.5133 71.1173 88.5467 71.4106 89.88H67.7706C67.464 89.0267 66.8706 88.6 65.9906 88.6C65.364 88.6 64.864 88.8467 64.4906 89.34C64.1173 89.82 63.9306 90.5133 63.9306 91.42C63.9306 92.3267 64.1173 93.0267 64.4906 93.52C64.864 94 65.364 94.24 65.9906 94.24C66.8706 94.24 67.464 93.8133 67.7706 92.96H71.4106C71.1173 94.2667 70.4973 95.2933 69.5506 96.04C68.604 96.7867 67.4373 97.16 66.0506 97.16C64.9573 97.16 63.984 96.9267 63.1306 96.46C62.2906 95.9933 61.6306 95.3267 61.1506 94.46C60.684 93.5933 60.4506 92.58 60.4506 91.42ZM79.46 94.1V97H77.72C76.48 97 75.5133 96.7 74.82 96.1C74.1267 95.4867 73.78 94.4933 73.78 93.12V88.68H72.42V85.84H73.78V83.12H77.2V85.84H79.44V88.68H77.2V93.16C77.2 93.4933 77.28 93.7333 77.44 93.88C77.6 94.0267 77.8667 94.1 78.24 94.1H79.46ZM83.085 84.68C82.485 84.68 81.9917 84.5067 81.605 84.16C81.2317 83.8 81.045 83.36 81.045 82.84C81.045 82.3067 81.2317 81.8667 81.605 81.52C81.9917 81.16 82.485 80.98 83.085 80.98C83.6717 80.98 84.1517 81.16 84.525 81.52C84.9117 81.8667 85.105 82.3067 85.105 82.84C85.105 83.36 84.9117 83.8 84.525 84.16C84.1517 84.5067 83.6717 84.68 83.085 84.68ZM84.785 85.84V97H81.365V85.84H84.785ZM92.3434 97.16C91.2501 97.16 90.2634 96.9267 89.3834 96.46C88.5168 95.9933 87.8301 95.3267 87.3234 94.46C86.8301 93.5933 86.5834 92.58 86.5834 91.42C86.5834 90.2733 86.8368 89.2667 87.3434 88.4C87.8501 87.52 88.5434 86.8467 89.4234 86.38C90.3034 85.9133 91.2901 85.68 92.3834 85.68C93.4768 85.68 94.4634 85.9133 95.3434 86.38C96.2234 86.8467 96.9168 87.52 97.4234 88.4C97.9301 89.2667 98.1834 90.2733 98.1834 91.42C98.1834 92.5667 97.9234 93.58 97.4034 94.46C96.8968 95.3267 96.1968 95.9933 95.3034 96.46C94.4234 96.9267 93.4368 97.16 92.3434 97.16ZM92.3434 94.2C92.9968 94.2 93.5501 93.96 94.0034 93.48C94.4701 93 94.7034 92.3133 94.7034 91.42C94.7034 90.5267 94.4768 89.84 94.0234 89.36C93.5834 88.88 93.0368 88.64 92.3834 88.64C91.7168 88.64 91.1634 88.88 90.7234 89.36C90.2834 89.8267 90.0634 90.5133 90.0634 91.42C90.0634 92.3133 90.2768 93 90.7034 93.48C91.1434 93.96 91.6901 94.2 92.3434 94.2ZM106.798 85.72C108.104 85.72 109.144 86.1467 109.918 87C110.704 87.84 111.098 89 111.098 90.48V97H107.698V90.94C107.698 90.1933 107.504 89.6133 107.118 89.2C106.731 88.7867 106.211 88.58 105.558 88.58C104.904 88.58 104.384 88.7867 103.998 89.2C103.611 89.6133 103.418 90.1933 103.418 90.94V97H99.9978V85.84H103.418V87.32C103.764 86.8267 104.231 86.44 104.818 86.16C105.404 85.8667 106.064 85.72 106.798 85.72ZM112.794 91.4C112.794 90.2533 113.008 89.2467 113.434 88.38C113.874 87.5133 114.468 86.8467 115.214 86.38C115.961 85.9133 116.794 85.68 117.714 85.68C118.501 85.68 119.188 85.84 119.774 86.16C120.374 86.48 120.834 86.9 121.154 87.42V85.84H124.574V97H121.154V95.42C120.821 95.94 120.354 96.36 119.754 96.68C119.168 97 118.481 97.16 117.694 97.16C116.788 97.16 115.961 96.9267 115.214 96.46C114.468 95.98 113.874 95.3067 113.434 94.44C113.008 93.56 112.794 92.5467 112.794 91.4ZM121.154 91.42C121.154 90.5667 120.914 89.8933 120.434 89.4C119.968 88.9067 119.394 88.66 118.714 88.66C118.034 88.66 117.454 88.9067 116.974 89.4C116.508 89.88 116.274 90.5467 116.274 91.4C116.274 92.2533 116.508 92.9333 116.974 93.44C117.454 93.9333 118.034 94.18 118.714 94.18C119.394 94.18 119.968 93.9333 120.434 93.44C120.914 92.9467 121.154 92.2733 121.154 91.42ZM130.469 82.2V97H127.049V82.2H130.469ZM134.667 84.68C134.067 84.68 133.574 84.5067 133.187 84.16C132.814 83.8 132.627 83.36 132.627 82.84C132.627 82.3067 132.814 81.8667 133.187 81.52C133.574 81.16 134.067 80.98 134.667 80.98C135.254 80.98 135.734 81.16 136.107 81.52C136.494 81.8667 136.687 82.3067 136.687 82.84C136.687 83.36 136.494 83.8 136.107 84.16C135.734 84.5067 135.254 84.68 134.667 84.68ZM136.367 85.84V97H132.947V85.84H136.367ZM145.065 94.1V97H143.325C142.085 97 141.119 96.7 140.425 96.1C139.732 95.4867 139.385 94.4933 139.385 93.12V88.68H138.025V85.84H139.385V83.12H142.805V85.84H145.045V88.68H142.805V93.16C142.805 93.4933 142.885 93.7333 143.045 93.88C143.205 94.0267 143.472 94.1 143.845 94.1H145.065ZM158.37 85.84L151.37 102.3H147.69L150.25 96.62L145.71 85.84H149.53L152.11 92.82L154.67 85.84H158.37ZM163.265 89.96C163.265 88.5733 163.565 87.34 164.165 86.26C164.765 85.1667 165.599 84.32 166.665 83.72C167.745 83.1067 168.965 82.8 170.325 82.8C171.992 82.8 173.419 83.24 174.605 84.12C175.792 85 176.585 86.2 176.985 87.72H173.225C172.945 87.1333 172.545 86.6867 172.025 86.38C171.519 86.0733 170.939 85.92 170.285 85.92C169.232 85.92 168.379 86.2867 167.725 87.02C167.072 87.7533 166.745 88.7333 166.745 89.96C166.745 91.1867 167.072 92.1667 167.725 92.9C168.379 93.6333 169.232 94 170.285 94C170.939 94 171.519 93.8467 172.025 93.54C172.545 93.2333 172.945 92.7867 173.225 92.2H176.985C176.585 93.72 175.792 94.92 174.605 95.8C173.419 96.6667 171.992 97.1 170.325 97.1C168.965 97.1 167.745 96.8 166.665 96.2C165.599 95.5867 164.765 94.74 164.165 93.66C163.565 92.58 163.265 91.3467 163.265 89.96ZM184.16 97.16C183.067 97.16 182.08 96.9267 181.2 96.46C180.333 95.9933 179.647 95.3267 179.14 94.46C178.647 93.5933 178.4 92.58 178.4 91.42C178.4 90.2733 178.653 89.2667 179.16 88.4C179.667 87.52 180.36 86.8467 181.24 86.38C182.12 85.9133 183.107 85.68 184.2 85.68C185.293 85.68 186.28 85.9133 187.16 86.38C188.04 86.8467 188.733 87.52 189.24 88.4C189.747 89.2667 190 90.2733 190 91.42C190 92.5667 189.74 93.58 189.22 94.46C188.713 95.3267 188.013 95.9933 187.12 96.46C186.24 96.9267 185.253 97.16 184.16 97.16ZM184.16 94.2C184.813 94.2 185.367 93.96 185.82 93.48C186.287 93 186.52 92.3133 186.52 91.42C186.52 90.5267 186.293 89.84 185.84 89.36C185.4 88.88 184.853 88.64 184.2 88.64C183.533 88.64 182.98 88.88 182.54 89.36C182.1 89.8267 181.88 90.5133 181.88 91.42C181.88 92.3133 182.093 93 182.52 93.48C182.96 93.96 183.507 94.2 184.16 94.2ZM191.134 91.4C191.134 90.2533 191.348 89.2467 191.774 88.38C192.214 87.5133 192.808 86.8467 193.554 86.38C194.301 85.9133 195.134 85.68 196.054 85.68C196.788 85.68 197.454 85.8333 198.054 86.14C198.668 86.4467 199.148 86.86 199.494 87.38V82.2H202.914V97H199.494V95.4C199.174 95.9333 198.714 96.36 198.114 96.68C197.528 97 196.841 97.16 196.054 97.16C195.134 97.16 194.301 96.9267 193.554 96.46C192.808 95.98 192.214 95.3067 191.774 94.44C191.348 93.56 191.134 92.5467 191.134 91.4ZM199.494 91.42C199.494 90.5667 199.254 89.8933 198.774 89.4C198.308 88.9067 197.734 88.66 197.054 88.66C196.374 88.66 195.794 88.9067 195.314 89.4C194.848 89.88 194.614 90.5467 194.614 91.4C194.614 92.2533 194.848 92.9333 195.314 93.44C195.794 93.9333 196.374 94.18 197.054 94.18C197.734 94.18 198.308 93.9333 198.774 93.44C199.254 92.9467 199.494 92.2733 199.494 91.42ZM215.908 91.24C215.908 91.56 215.888 91.8933 215.848 92.24H208.108C208.162 92.9333 208.382 93.4667 208.768 93.84C209.168 94.2 209.655 94.38 210.228 94.38C211.082 94.38 211.675 94.02 212.008 93.3H215.648C215.462 94.0333 215.122 94.6933 214.628 95.28C214.148 95.8667 213.542 96.3267 212.808 96.66C212.075 96.9933 211.255 97.16 210.348 97.16C209.255 97.16 208.282 96.9267 207.428 96.46C206.575 95.9933 205.908 95.3267 205.428 94.46C204.948 93.5933 204.708 92.58 204.708 91.42C204.708 90.26 204.942 89.2467 205.408 88.38C205.888 87.5133 206.555 86.8467 207.408 86.38C208.262 85.9133 209.242 85.68 210.348 85.68C211.428 85.68 212.388 85.9067 213.228 86.36C214.068 86.8133 214.722 87.46 215.188 88.3C215.668 89.14 215.908 90.12 215.908 91.24ZM212.408 90.34C212.408 89.7533 212.208 89.2867 211.808 88.94C211.408 88.5933 210.908 88.42 210.308 88.42C209.735 88.42 209.248 88.5867 208.848 88.92C208.462 89.2533 208.222 89.7267 208.128 90.34H212.408Z" fill="#336082"/>
<path d="M66.5977 26.0117L74.1445 15.7812H75.5742V26.0117H77.0273V28.4375H75.5742V32H72.3516V28.4375H66.5977V26.0117ZM67.7344 26.0117H72.3516V19.7422L67.7344 26.0117Z" fill="white"/>
<path d="M29.476 114.228H30.75V124H29.476L24.352 116.23V124H23.078V114.228H24.352L29.476 121.984V114.228ZM40.2018 120.15C40.2018 122.586 38.4518 124.126 36.2678 124.126C34.0978 124.126 32.4458 122.586 32.4458 120.15C32.4458 117.728 34.1538 116.202 36.3238 116.202C38.5078 116.202 40.2018 117.728 40.2018 120.15ZM33.7478 120.15C33.7478 122.096 34.9378 123.006 36.2678 123.006C37.5978 123.006 38.8998 122.096 38.8998 120.15C38.8998 118.218 37.6258 117.308 36.3098 117.308C34.9658 117.308 33.7478 118.218 33.7478 120.15ZM43.3748 124L40.9668 116.328H42.2688L44.0328 122.768L45.9368 116.328H47.2388L49.1008 122.782L50.8368 116.328H52.0968L49.7028 124H48.3868L46.5388 117.91L44.6908 124H43.3748ZM57.0936 124V116.328H58.3676V124H57.0936ZM57.7516 115.082C57.2616 115.082 56.8836 114.704 56.8836 114.214C56.8836 113.724 57.2616 113.346 57.7516 113.346C58.2136 113.346 58.5916 113.724 58.5916 114.214C58.5916 114.704 58.2136 115.082 57.7516 115.082ZM60.8189 121.9V117.378H59.8249V116.328H60.8189V114.396H62.0929V116.328H64.0949V117.378H62.0929V121.9C62.0929 122.656 62.3729 122.922 63.1569 122.922H64.0949V124H62.9469C61.5889 124 60.8189 123.44 60.8189 121.9ZM65.2325 115.642L65.0505 112.856H66.2825L66.1145 115.642H65.2325ZM73.3831 121.914C73.3831 123.174 72.2771 124.126 70.5831 124.126C68.7911 124.126 67.5311 123.146 67.4471 121.746H68.7631C68.8331 122.488 69.4911 123.048 70.5691 123.048C71.5771 123.048 72.1371 122.544 72.1371 121.914C72.1371 120.206 67.6011 121.2 67.6011 118.344C67.6011 117.168 68.7071 116.202 70.4151 116.202C72.1091 116.202 73.2291 117.112 73.3131 118.61H72.0391C71.9831 117.84 71.3951 117.28 70.3731 117.28C69.4351 117.28 68.8751 117.728 68.8751 118.344C68.8751 120.164 73.3271 119.17 73.3831 121.914ZM79.1939 121.9V117.378H78.1999V116.328H79.1939V114.396H80.4679V116.328H82.4699V117.378H80.4679V121.9C80.4679 122.656 80.7479 122.922 81.5319 122.922H82.4699V124H81.3219C79.9639 124 79.1939 123.44 79.1939 121.9ZM84.0135 124V116.328H85.2875V124H84.0135ZM84.6715 115.082C84.1815 115.082 83.8035 114.704 83.8035 114.214C83.8035 113.724 84.1815 113.346 84.6715 113.346C85.1335 113.346 85.5115 113.724 85.5115 114.214C85.5115 114.704 85.1335 115.082 84.6715 115.082ZM98.5329 124V119.66C98.5329 118.092 97.6929 117.294 96.4329 117.294C95.1449 117.294 94.2629 118.12 94.2629 119.772V124H93.0029V119.66C93.0029 118.092 92.1629 117.294 90.9029 117.294C89.6149 117.294 88.7329 118.12 88.7329 119.772V124H87.4589V116.328H88.7329V117.434C89.2369 116.622 90.1469 116.188 91.1549 116.188C92.4149 116.188 93.4649 116.748 93.9689 117.896C94.4169 116.79 95.5089 116.188 96.6849 116.188C98.4349 116.188 99.7929 117.28 99.7929 119.478V124H98.5329ZM105.145 117.28C103.899 117.28 102.863 118.106 102.723 119.604H107.567C107.581 118.106 106.461 117.28 105.145 117.28ZM108.729 121.634C108.337 123.034 107.105 124.126 105.201 124.126C103.017 124.126 101.407 122.586 101.407 120.15C101.407 117.728 102.961 116.202 105.201 116.202C107.427 116.202 108.883 117.77 108.883 119.87C108.883 120.15 108.869 120.374 108.841 120.64H102.709C102.807 122.194 103.899 123.048 105.201 123.048C106.349 123.048 107.077 122.46 107.357 121.634H108.729ZM114.577 121.9V117.378H113.583V116.328H114.577V114.396H115.851V116.328H117.853V117.378H115.851V121.9C115.851 122.656 116.131 122.922 116.915 122.922H117.853V124H116.705C115.347 124 114.577 123.44 114.577 121.9ZM126.676 120.15C126.676 122.586 124.926 124.126 122.742 124.126C120.572 124.126 118.92 122.586 118.92 120.15C118.92 117.728 120.628 116.202 122.798 116.202C124.982 116.202 126.676 117.728 126.676 120.15ZM120.222 120.15C120.222 122.096 121.412 123.006 122.742 123.006C124.072 123.006 125.374 122.096 125.374 120.15C125.374 118.218 124.1 117.308 122.784 117.308C121.44 117.308 120.222 118.218 120.222 120.15ZM133.358 117.756C133.848 116.902 134.87 116.202 136.228 116.202C138.3 116.202 139.868 117.742 139.868 120.136C139.868 122.516 138.286 124.126 136.228 124.126C134.828 124.126 133.834 123.426 133.358 122.586V124H132.084V113.64H133.358V117.756ZM138.566 120.136C138.566 118.33 137.376 117.308 135.962 117.308C134.576 117.308 133.358 118.372 133.358 120.15C133.358 121.956 134.576 123.006 135.962 123.006C137.376 123.006 138.566 121.942 138.566 120.136ZM142.819 119.828V124H141.545V116.328H142.819V117.574C143.253 116.72 144.079 116.188 145.297 116.188V117.504H144.961C143.743 117.504 142.819 118.05 142.819 119.828ZM146.767 124V116.328H148.041V124H146.767ZM147.425 115.082C146.935 115.082 146.557 114.704 146.557 114.214C146.557 113.724 146.935 113.346 147.425 113.346C147.887 113.346 148.265 113.724 148.265 114.214C148.265 114.704 147.887 115.082 147.425 115.082ZM155.827 124V119.66C155.827 118.092 154.973 117.294 153.685 117.294C152.383 117.294 151.487 118.106 151.487 119.758V124H150.213V116.328H151.487V117.42C151.991 116.622 152.915 116.188 153.951 116.188C155.729 116.188 157.087 117.28 157.087 119.478V124H155.827ZM158.692 120.136C158.692 117.742 160.274 116.202 162.332 116.202C163.732 116.202 164.74 116.902 165.188 117.728V116.328H166.476V124.168C166.476 126.282 165.062 127.78 162.808 127.78C160.792 127.78 159.35 126.758 159.098 125.12H160.358C160.638 126.044 161.548 126.674 162.808 126.674C164.166 126.674 165.188 125.806 165.188 124.168V122.558C164.726 123.384 163.732 124.126 162.332 124.126C160.274 124.126 158.692 122.516 158.692 120.136ZM165.188 120.15C165.188 118.372 163.984 117.308 162.584 117.308C161.184 117.308 159.994 118.33 159.994 120.136C159.994 121.942 161.184 123.006 162.584 123.006C163.984 123.006 165.188 121.956 165.188 120.15ZM175.623 117.28C174.377 117.28 173.341 118.106 173.201 119.604H178.045C178.059 118.106 176.939 117.28 175.623 117.28ZM179.207 121.634C178.815 123.034 177.583 124.126 175.679 124.126C173.495 124.126 171.885 122.586 171.885 120.15C171.885 117.728 173.439 116.202 175.679 116.202C177.905 116.202 179.361 117.77 179.361 119.87C179.361 120.15 179.347 120.374 179.319 120.64H173.187C173.285 122.194 174.377 123.048 175.679 123.048C176.827 123.048 177.555 122.46 177.835 121.634H179.207ZM180.567 120.136C180.567 117.742 182.149 116.202 184.207 116.202C185.635 116.202 186.615 116.93 187.063 117.728V116.328H188.351V124H187.063V122.572C186.601 123.398 185.607 124.126 184.193 124.126C182.149 124.126 180.567 122.516 180.567 120.136ZM187.063 120.15C187.063 118.372 185.859 117.308 184.459 117.308C183.059 117.308 181.869 118.33 181.869 120.136C181.869 121.942 183.059 123.006 184.459 123.006C185.859 123.006 187.063 121.956 187.063 120.15ZM190.028 120.15C190.028 117.742 191.582 116.202 193.766 116.202C195.67 116.202 196.916 117.182 197.308 118.792H195.936C195.67 117.868 194.9 117.28 193.766 117.28C192.366 117.28 191.33 118.274 191.33 120.15C191.33 122.054 192.366 123.048 193.766 123.048C194.9 123.048 195.656 122.502 195.936 121.536H197.308C196.916 123.062 195.67 124.126 193.766 124.126C191.582 124.126 190.028 122.586 190.028 120.15ZM199.008 124V113.64H200.282V117.434C200.786 116.622 201.738 116.188 202.816 116.188C204.524 116.188 205.882 117.28 205.882 119.478V124H204.622V119.66C204.622 118.092 203.768 117.294 202.48 117.294C201.178 117.294 200.282 118.106 200.282 119.758V124H199.008ZM23.316 144V137.378H22.322V136.328H23.316V135.782C23.316 134.074 24.156 133.304 26.116 133.304V134.368C24.968 134.368 24.59 134.788 24.59 135.782V136.328H26.2V137.378H24.59V144H23.316ZM30.9474 137.28C29.7014 137.28 28.6654 138.106 28.5254 139.604H33.3694C33.3834 138.106 32.2634 137.28 30.9474 137.28ZM34.5314 141.634C34.1394 143.034 32.9074 144.126 31.0034 144.126C28.8194 144.126 27.2094 142.586 27.2094 140.15C27.2094 137.728 28.7634 136.202 31.0034 136.202C33.2294 136.202 34.6854 137.77 34.6854 139.87C34.6854 140.15 34.6714 140.374 34.6434 140.64H28.5114C28.6094 142.194 29.7014 143.048 31.0034 143.048C32.1514 143.048 32.8794 142.46 33.1594 141.634H34.5314ZM35.8911 140.136C35.8911 137.742 37.4731 136.202 39.5311 136.202C40.9591 136.202 41.9391 136.93 42.3871 137.728V136.328H43.6751V144H42.3871V142.572C41.9251 143.398 40.9311 144.126 39.5171 144.126C37.4731 144.126 35.8911 142.516 35.8911 140.136ZM42.3871 140.15C42.3871 138.372 41.1831 137.308 39.7831 137.308C38.3831 137.308 37.1931 138.33 37.1931 140.136C37.1931 141.942 38.3831 143.006 39.7831 143.006C41.1831 143.006 42.3871 141.956 42.3871 140.15ZM46.108 141.9V137.378H45.114V136.328H46.108V134.396H47.382V136.328H49.384V137.378H47.382V141.9C47.382 142.656 47.662 142.922 48.446 142.922H49.384V144H48.236C46.878 144 46.108 143.44 46.108 141.9ZM57.7316 136.328V144H56.4576V142.866C55.9676 143.664 55.0296 144.112 54.0076 144.112C52.2436 144.112 50.8576 143.02 50.8576 140.822V136.328H52.1176V140.654C52.1176 142.208 52.9716 143.006 54.2596 143.006C55.5756 143.006 56.4576 142.194 56.4576 140.542V136.328H57.7316ZM61.1567 139.828V144H59.8827V136.328H61.1567V137.574C61.5907 136.72 62.4167 136.188 63.6347 136.188V137.504H63.2987C62.0807 137.504 61.1567 138.05 61.1567 139.828ZM68.3673 137.28C67.1213 137.28 66.0853 138.106 65.9453 139.604H70.7893C70.8033 138.106 69.6833 137.28 68.3673 137.28ZM71.9513 141.634C71.5593 143.034 70.3273 144.126 68.4233 144.126C66.2393 144.126 64.6293 142.586 64.6293 140.15C64.6293 137.728 66.1833 136.202 68.4233 136.202C70.6493 136.202 72.1053 137.77 72.1053 139.87C72.1053 140.15 72.0913 140.374 72.0633 140.64H65.9313C66.0293 142.194 67.1213 143.048 68.4233 143.048C69.5713 143.048 70.2993 142.46 70.5793 141.634H71.9513ZM77.7994 141.9V137.378H76.8054V136.328H77.7994V134.396H79.0734V136.328H81.0754V137.378H79.0734V141.9C79.0734 142.656 79.3534 142.922 80.1374 142.922H81.0754V144H79.9274C78.5694 144 77.7994 143.44 77.7994 141.9ZM89.899 140.15C89.899 142.586 88.149 144.126 85.965 144.126C83.795 144.126 82.143 142.586 82.143 140.15C82.143 137.728 83.851 136.202 86.021 136.202C88.205 136.202 89.899 137.728 89.899 140.15ZM83.445 140.15C83.445 142.096 84.635 143.006 85.965 143.006C87.295 143.006 88.597 142.096 88.597 140.15C88.597 138.218 87.323 137.308 86.007 137.308C84.663 137.308 83.445 138.218 83.445 140.15ZM95.3065 144V133.64H96.5805V144H95.3065ZM98.7518 144V136.328H100.026V144H98.7518ZM99.4098 135.082C98.9198 135.082 98.5418 134.704 98.5418 134.214C98.5418 133.724 98.9198 133.346 99.4098 133.346C99.8718 133.346 100.25 133.724 100.25 134.214C100.25 134.704 99.8718 135.082 99.4098 135.082ZM102.435 144V137.378H101.441V136.328H102.435V135.782C102.435 134.074 103.275 133.304 105.235 133.304V134.368C104.087 134.368 103.709 134.788 103.709 135.782V136.328H105.319V137.378H103.709V144H102.435ZM110.067 137.28C108.821 137.28 107.785 138.106 107.645 139.604H112.489C112.503 138.106 111.383 137.28 110.067 137.28ZM113.651 141.634C113.259 143.034 112.027 144.126 110.123 144.126C107.939 144.126 106.329 142.586 106.329 140.15C106.329 137.728 107.883 136.202 110.123 136.202C112.349 136.202 113.805 137.77 113.805 139.87C113.805 140.15 113.791 140.374 113.763 140.64H107.631C107.729 142.194 108.821 143.048 110.123 143.048C111.271 143.048 111.999 142.46 112.279 141.634H113.651ZM115.92 141.242L115.766 134.242H117.138L116.984 141.242H115.92ZM117.348 143.216C117.348 143.706 116.97 144.084 116.508 144.084C116.018 144.084 115.64 143.706 115.64 143.216C115.64 142.726 116.018 142.348 116.508 142.348C116.97 142.348 117.348 142.726 117.348 143.216ZM129.941 144L129.157 141.83H124.901L124.117 144H122.773L126.301 134.298H127.771L131.285 144H129.941ZM128.793 140.794L127.029 135.866L125.265 140.794H128.793ZM138.338 141.914C138.338 143.174 137.232 144.126 135.538 144.126C133.746 144.126 132.486 143.146 132.402 141.746H133.718C133.788 142.488 134.446 143.048 135.524 143.048C136.532 143.048 137.092 142.544 137.092 141.914C137.092 140.206 132.556 141.2 132.556 138.344C132.556 137.168 133.662 136.202 135.37 136.202C137.064 136.202 138.184 137.112 138.268 138.61H136.994C136.938 137.84 136.35 137.28 135.328 137.28C134.39 137.28 133.83 137.728 133.83 138.344C133.83 140.164 138.282 139.17 138.338 141.914ZM145.367 144L142.959 136.328H144.261L146.025 142.768L147.929 136.328H149.231L151.093 142.782L152.829 136.328H154.089L151.695 144H150.379L148.531 137.91L146.683 144H145.367ZM158.615 137.28C157.369 137.28 156.333 138.106 156.193 139.604H161.037C161.051 138.106 159.931 137.28 158.615 137.28ZM162.199 141.634C161.807 143.034 160.575 144.126 158.671 144.126C156.487 144.126 154.877 142.586 154.877 140.15C154.877 137.728 156.431 136.202 158.671 136.202C160.897 136.202 162.353 137.77 162.353 139.87C162.353 140.15 162.339 140.374 162.311 140.64H156.179C156.277 142.194 157.369 143.048 158.671 143.048C159.819 143.048 160.547 142.46 160.827 141.634H162.199ZM167.291 140.15C167.291 137.742 168.845 136.202 171.029 136.202C172.933 136.202 174.179 137.182 174.571 138.792H173.199C172.933 137.868 172.163 137.28 171.029 137.28C169.629 137.28 168.593 138.274 168.593 140.15C168.593 142.054 169.629 143.048 171.029 143.048C172.163 143.048 172.919 142.502 173.199 141.536H174.571C174.179 143.062 172.933 144.126 171.029 144.126C168.845 144.126 167.291 142.586 167.291 140.15ZM183.551 140.15C183.551 142.586 181.801 144.126 179.617 144.126C177.447 144.126 175.795 142.586 175.795 140.15C175.795 137.728 177.503 136.202 179.673 136.202C181.857 136.202 183.551 137.728 183.551 140.15ZM177.097 140.15C177.097 142.096 178.287 143.006 179.617 143.006C180.947 143.006 182.249 142.096 182.249 140.15C182.249 138.218 180.975 137.308 179.659 137.308C178.315 137.308 177.097 138.218 177.097 140.15ZM184.75 140.136C184.75 137.742 186.332 136.202 188.404 136.202C189.608 136.202 190.714 136.818 191.246 137.7V133.64H192.534V144H191.246V142.558C190.784 143.412 189.79 144.126 188.39 144.126C186.332 144.126 184.75 142.516 184.75 140.136ZM191.246 140.15C191.246 138.372 190.042 137.308 188.642 137.308C187.242 137.308 186.052 138.33 186.052 140.136C186.052 141.942 187.242 143.006 188.642 143.006C190.042 143.006 191.246 141.956 191.246 140.15ZM197.949 137.28C196.703 137.28 195.667 138.106 195.527 139.604H200.371C200.385 138.106 199.265 137.28 197.949 137.28ZM201.533 141.634C201.141 143.034 199.909 144.126 198.005 144.126C195.821 144.126 194.211 142.586 194.211 140.15C194.211 137.728 195.765 136.202 198.005 136.202C200.231 136.202 201.687 137.77 201.687 139.87C201.687 140.15 201.673 140.374 201.645 140.64H195.513C195.611 142.194 196.703 143.048 198.005 143.048C199.153 143.048 199.881 142.46 200.161 141.634H201.533ZM210.363 137.28C209.117 137.28 208.081 138.106 207.941 139.604H212.785C212.799 138.106 211.679 137.28 210.363 137.28ZM213.947 141.634C213.555 143.034 212.323 144.126 210.419 144.126C208.235 144.126 206.625 142.586 206.625 140.15C206.625 137.728 208.179 136.202 210.419 136.202C212.645 136.202 214.101 137.77 214.101 139.87C214.101 140.15 214.087 140.374 214.059 140.64H207.927C208.025 142.194 209.117 143.048 210.419 143.048C211.567 143.048 212.295 142.46 212.575 141.634H213.947ZM215.307 140.136C215.307 137.742 216.889 136.202 218.947 136.202C220.375 136.202 221.355 136.93 221.803 137.728V136.328H223.091V144H221.803V142.572C221.341 143.398 220.347 144.126 218.933 144.126C216.889 144.126 215.307 142.516 215.307 140.136ZM221.803 140.15C221.803 138.372 220.599 137.308 219.199 137.308C217.799 137.308 216.609 138.33 216.609 140.136C216.609 141.942 217.799 143.006 219.199 143.006C220.599 143.006 221.803 141.956 221.803 140.15ZM224.768 140.15C224.768 137.742 226.322 136.202 228.506 136.202C230.41 136.202 231.656 137.182 232.048 138.792H230.676C230.41 137.868 229.64 137.28 228.506 137.28C227.106 137.28 226.07 138.274 226.07 140.15C226.07 142.054 227.106 143.048 228.506 143.048C229.64 143.048 230.396 142.502 230.676 141.536H232.048C231.656 143.062 230.41 144.126 228.506 144.126C226.322 144.126 224.768 142.586 224.768 140.15ZM233.748 144V133.64H235.022V137.434C235.526 136.622 236.478 136.188 237.556 136.188C239.264 136.188 240.622 137.28 240.622 139.478V144H239.362V139.66C239.362 138.092 238.508 137.294 237.22 137.294C235.918 137.294 235.022 138.106 235.022 139.758V144H233.748ZM23.316 164V157.378H22.322V156.328H23.316V155.782C23.316 154.074 24.156 153.304 26.116 153.304V154.368C24.968 154.368 24.59 154.788 24.59 155.782V156.328H26.2V157.378H24.59V164H23.316ZM34.4894 156.328V164H33.2154V162.866C32.7254 163.664 31.7874 164.112 30.7654 164.112C29.0014 164.112 27.6154 163.02 27.6154 160.822V156.328H28.8754V160.654C28.8754 162.208 29.7294 163.006 31.0174 163.006C32.3334 163.006 33.2154 162.194 33.2154 160.542V156.328H34.4894ZM42.2545 164V159.66C42.2545 158.092 41.4005 157.294 40.1125 157.294C38.8105 157.294 37.9145 158.106 37.9145 159.758V164H36.6405V156.328H37.9145V157.42C38.4185 156.622 39.3425 156.188 40.3785 156.188C42.1565 156.188 43.5145 157.28 43.5145 159.478V164H42.2545ZM45.1196 160.15C45.1196 157.742 46.6736 156.202 48.8576 156.202C50.7616 156.202 52.0076 157.182 52.3996 158.792H51.0276C50.7616 157.868 49.9916 157.28 48.8576 157.28C47.4576 157.28 46.4216 158.274 46.4216 160.15C46.4216 162.054 47.4576 163.048 48.8576 163.048C49.9916 163.048 50.7476 162.502 51.0276 161.536H52.3996C52.0076 163.062 50.7616 164.126 48.8576 164.126C46.6736 164.126 45.1196 162.586 45.1196 160.15ZM54.3795 161.9V157.378H53.3855V156.328H54.3795V154.396H55.6535V156.328H57.6555V157.378H55.6535V161.9C55.6535 162.656 55.9335 162.922 56.7175 162.922H57.6555V164H56.5075C55.1495 164 54.3795 163.44 54.3795 161.9ZM59.1991 164V156.328H60.4731V164H59.1991ZM59.8571 155.082C59.3671 155.082 58.9891 154.704 58.9891 154.214C58.9891 153.724 59.3671 153.346 59.8571 153.346C60.3191 153.346 60.6971 153.724 60.6971 154.214C60.6971 154.704 60.3191 155.082 59.8571 155.082ZM69.9244 160.15C69.9244 162.586 68.1744 164.126 65.9904 164.126C63.8204 164.126 62.1684 162.586 62.1684 160.15C62.1684 157.728 63.8764 156.202 66.0464 156.202C68.2304 156.202 69.9244 157.728 69.9244 160.15ZM63.4704 160.15C63.4704 162.096 64.6604 163.006 65.9904 163.006C67.3204 163.006 68.6224 162.096 68.6224 160.15C68.6224 158.218 67.3484 157.308 66.0324 157.308C64.6884 157.308 63.4704 158.218 63.4704 160.15ZM77.2135 164V159.66C77.2135 158.092 76.3595 157.294 75.0715 157.294C73.7695 157.294 72.8735 158.106 72.8735 159.758V164H71.5995V156.328H72.8735V157.42C73.3775 156.622 74.3015 156.188 75.3375 156.188C77.1155 156.188 78.4735 157.28 78.4735 159.478V164H77.2135ZM80.0786 160.136C80.0786 157.742 81.6606 156.202 83.7186 156.202C85.1466 156.202 86.1266 156.93 86.5746 157.728V156.328H87.8626V164H86.5746V162.572C86.1126 163.398 85.1186 164.126 83.7046 164.126C81.6606 164.126 80.0786 162.516 80.0786 160.136ZM86.5746 160.15C86.5746 158.372 85.3706 157.308 83.9706 157.308C82.5706 157.308 81.3806 158.33 81.3806 160.136C81.3806 161.942 82.5706 163.006 83.9706 163.006C85.3706 163.006 86.5746 161.956 86.5746 160.15ZM90.0155 164V153.64H91.2895V164H90.0155ZM93.4608 164V156.328H94.7348V164H93.4608ZM94.1188 155.082C93.6288 155.082 93.2508 154.704 93.2508 154.214C93.2508 153.724 93.6288 153.346 94.1188 153.346C94.5808 153.346 94.9588 153.724 94.9588 154.214C94.9588 154.704 94.5808 155.082 94.1188 155.082ZM97.1861 161.9V157.378H96.1921V156.328H97.1861V154.396H98.4601V156.328H100.462V157.378H98.4601V161.9C98.4601 162.656 98.7401 162.922 99.5241 162.922H100.462V164H99.3141C97.9561 164 97.1861 163.44 97.1861 161.9ZM104.918 162.544L107.298 156.328H108.614L103.994 167.612H102.678L104.19 163.916L101.096 156.328H102.51L104.918 162.544ZM115.125 164L112.717 156.328H114.019L115.783 162.768L117.687 156.328H118.989L120.851 162.782L122.587 156.328H123.847L121.453 164H120.137L118.289 157.91L116.441 164H115.125ZM128.373 157.28C127.127 157.28 126.091 158.106 125.951 159.604H130.795C130.809 158.106 129.689 157.28 128.373 157.28ZM131.957 161.634C131.565 163.034 130.333 164.126 128.429 164.126C126.245 164.126 124.635 162.586 124.635 160.15C124.635 157.728 126.189 156.202 128.429 156.202C130.655 156.202 132.111 157.77 132.111 159.87C132.111 160.15 132.097 160.374 132.069 160.64H125.937C126.035 162.194 127.127 163.048 128.429 163.048C129.577 163.048 130.305 162.46 130.585 161.634H131.957ZM139.023 164L136.615 156.328H137.917L139.681 162.768L141.585 156.328H142.887L144.749 162.782L146.485 156.328H147.745L145.351 164H144.035L142.187 157.91L140.339 164H139.023ZM149.01 164V156.328H150.284V164H149.01ZM149.668 155.082C149.178 155.082 148.8 154.704 148.8 154.214C148.8 153.724 149.178 153.346 149.668 153.346C150.13 153.346 150.508 153.724 150.508 154.214C150.508 154.704 150.13 155.082 149.668 155.082ZM152.455 164V153.64H153.729V164H152.455ZM155.9 164V153.64H157.174V164H155.9ZM168.594 161.914C168.594 163.174 167.488 164.126 165.794 164.126C164.002 164.126 162.742 163.146 162.658 161.746H163.974C164.044 162.488 164.702 163.048 165.78 163.048C166.788 163.048 167.348 162.544 167.348 161.914C167.348 160.206 162.812 161.2 162.812 158.344C162.812 157.168 163.918 156.202 165.626 156.202C167.32 156.202 168.44 157.112 168.524 158.61H167.25C167.194 157.84 166.606 157.28 165.584 157.28C164.646 157.28 164.086 157.728 164.086 158.344C164.086 160.164 168.538 159.17 168.594 161.914ZM173.654 157.28C172.408 157.28 171.372 158.106 171.232 159.604H176.076C176.09 158.106 174.97 157.28 173.654 157.28ZM177.238 161.634C176.846 163.034 175.614 164.126 173.71 164.126C171.526 164.126 169.916 162.586 169.916 160.15C169.916 157.728 171.47 156.202 173.71 156.202C175.936 156.202 177.392 157.77 177.392 159.87C177.392 160.15 177.378 160.374 177.35 160.64H171.218C171.316 162.194 172.408 163.048 173.71 163.048C174.858 163.048 175.586 162.46 175.866 161.634H177.238ZM184.688 164V159.66C184.688 158.092 183.834 157.294 182.546 157.294C181.244 157.294 180.348 158.106 180.348 159.758V164H179.074V156.328H180.348V157.42C180.852 156.622 181.776 156.188 182.812 156.188C184.59 156.188 185.948 157.28 185.948 159.478V164H184.688ZM187.553 160.136C187.553 157.742 189.135 156.202 191.207 156.202C192.411 156.202 193.517 156.818 194.049 157.7V153.64H195.337V164H194.049V162.558C193.587 163.412 192.593 164.126 191.193 164.126C189.135 164.126 187.553 162.516 187.553 160.136ZM194.049 160.15C194.049 158.372 192.845 157.308 191.445 157.308C190.045 157.308 188.855 158.33 188.855 160.136C188.855 161.942 190.045 163.006 191.445 163.006C192.845 163.006 194.049 161.956 194.049 160.15ZM204.135 162.544L206.515 156.328H207.831L203.211 167.612H201.895L203.407 163.916L200.313 156.328H201.727L204.135 162.544ZM216.391 160.15C216.391 162.586 214.641 164.126 212.457 164.126C210.287 164.126 208.635 162.586 208.635 160.15C208.635 157.728 210.343 156.202 212.513 156.202C214.697 156.202 216.391 157.728 216.391 160.15ZM209.937 160.15C209.937 162.096 211.127 163.006 212.457 163.006C213.787 163.006 215.089 162.096 215.089 160.15C215.089 158.218 213.815 157.308 212.499 157.308C211.155 157.308 209.937 158.218 209.937 160.15ZM224.87 156.328V164H223.596V162.866C223.106 163.664 222.168 164.112 221.146 164.112C219.382 164.112 217.996 163.02 217.996 160.822V156.328H219.256V160.654C219.256 162.208 220.11 163.006 221.398 163.006C222.714 163.006 223.596 162.194 223.596 160.542V156.328H224.87ZM23.358 181.9V177.378H22.364V176.328H23.358V174.396H24.632V176.328H26.634V177.378H24.632V181.9C24.632 182.656 24.912 182.922 25.696 182.922H26.634V184H25.486C24.128 184 23.358 183.44 23.358 181.9ZM28.1776 184V173.64H29.4516V177.434C29.9556 176.622 30.9076 176.188 31.9856 176.188C33.6936 176.188 35.0516 177.28 35.0516 179.478V184H33.7916V179.66C33.7916 178.092 32.9376 177.294 31.6496 177.294C30.3476 177.294 29.4516 178.106 29.4516 179.758V184H28.1776ZM40.3947 177.28C39.1487 177.28 38.1127 178.106 37.9727 179.604H42.8167C42.8307 178.106 41.7107 177.28 40.3947 177.28ZM43.9787 181.634C43.5867 183.034 42.3547 184.126 40.4507 184.126C38.2667 184.126 36.6567 182.586 36.6567 180.15C36.6567 177.728 38.2107 176.202 40.4507 176.202C42.6767 176.202 44.1327 177.77 44.1327 179.87C44.1327 180.15 44.1187 180.374 44.0907 180.64H37.9587C38.0567 182.194 39.1487 183.048 40.4507 183.048C41.5987 183.048 42.3267 182.46 42.6067 181.634H43.9787ZM56.3508 176.328V184H55.0768V182.866C54.5868 183.664 53.6488 184.112 52.6268 184.112C50.8628 184.112 49.4768 183.02 49.4768 180.822V176.328H50.7368V180.654C50.7368 182.208 51.5908 183.006 52.8788 183.006C54.1948 183.006 55.0768 182.194 55.0768 180.542V176.328H56.3508ZM59.7758 177.742C60.2378 176.93 61.2458 176.202 62.6458 176.202C64.7038 176.202 66.2858 177.742 66.2858 180.136C66.2858 182.516 64.7038 184.126 62.6458 184.126C61.2458 184.126 60.2518 183.37 59.7758 182.586V187.64H58.5018V176.328H59.7758V177.742ZM64.9838 180.136C64.9838 178.33 63.7938 177.308 62.3798 177.308C60.9938 177.308 59.7758 178.372 59.7758 180.15C59.7758 181.956 60.9938 183.006 62.3798 183.006C63.7938 183.006 64.9838 181.942 64.9838 180.136ZM67.4868 180.136C67.4868 177.742 69.0688 176.202 71.1408 176.202C72.3448 176.202 73.4508 176.818 73.9828 177.7V173.64H75.2708V184H73.9828V182.558C73.5208 183.412 72.5268 184.126 71.1268 184.126C69.0688 184.126 67.4868 182.516 67.4868 180.136ZM73.9828 180.15C73.9828 178.372 72.7788 177.308 71.3788 177.308C69.9788 177.308 68.7888 178.33 68.7888 180.136C68.7888 181.942 69.9788 183.006 71.3788 183.006C72.7788 183.006 73.9828 181.956 73.9828 180.15ZM76.9477 180.136C76.9477 177.742 78.5297 176.202 80.5877 176.202C82.0157 176.202 82.9957 176.93 83.4437 177.728V176.328H84.7317V184H83.4437V182.572C82.9817 183.398 81.9877 184.126 80.5737 184.126C78.5297 184.126 76.9477 182.516 76.9477 180.136ZM83.4437 180.15C83.4437 178.372 82.2397 177.308 80.8397 177.308C79.4397 177.308 78.2497 178.33 78.2497 180.136C78.2497 181.942 79.4397 183.006 80.8397 183.006C82.2397 183.006 83.4437 181.956 83.4437 180.15ZM87.1646 181.9V177.378H86.1706V176.328H87.1646V174.396H88.4386V176.328H90.4406V177.378H88.4386V181.9C88.4386 182.656 88.7186 182.922 89.5026 182.922H90.4406V184H89.2926C87.9346 184 87.1646 183.44 87.1646 181.9ZM95.2463 177.28C94.0003 177.28 92.9642 178.106 92.8243 179.604H97.6683C97.6823 178.106 96.5623 177.28 95.2463 177.28ZM98.8303 181.634C98.4383 183.034 97.2063 184.126 95.3023 184.126C93.1183 184.126 91.5083 182.586 91.5083 180.15C91.5083 177.728 93.0623 176.202 95.3023 176.202C97.5283 176.202 98.9843 177.77 98.9843 179.87C98.9843 180.15 98.9703 180.374 98.9423 180.64H92.8103C92.9083 182.194 94.0003 183.048 95.3023 183.048C96.4503 183.048 97.1783 182.46 97.4583 181.634H98.8303ZM100.19 180.136C100.19 177.742 101.772 176.202 103.844 176.202C105.048 176.202 106.154 176.818 106.686 177.7V173.64H107.974V184H106.686V182.558C106.224 183.412 105.23 184.126 103.83 184.126C101.772 184.126 100.19 182.516 100.19 180.136ZM106.686 180.15C106.686 178.372 105.482 177.308 104.082 177.308C102.682 177.308 101.492 178.33 101.492 180.136C101.492 181.942 102.682 183.006 104.082 183.006C105.482 183.006 106.686 181.956 106.686 180.15ZM119.375 181.914C119.375 183.174 118.269 184.126 116.575 184.126C114.783 184.126 113.523 183.146 113.439 181.746H114.755C114.825 182.488 115.483 183.048 116.561 183.048C117.569 183.048 118.129 182.544 118.129 181.914C118.129 180.206 113.593 181.2 113.593 178.344C113.593 177.168 114.699 176.202 116.407 176.202C118.101 176.202 119.221 177.112 119.305 178.61H118.031C117.975 177.84 117.387 177.28 116.365 177.28C115.427 177.28 114.867 177.728 114.867 178.344C114.867 180.164 119.319 179.17 119.375 181.914ZM128.454 180.15C128.454 182.586 126.704 184.126 124.52 184.126C122.35 184.126 120.698 182.586 120.698 180.15C120.698 177.728 122.406 176.202 124.576 176.202C126.76 176.202 128.454 177.728 128.454 180.15ZM122 180.15C122 182.096 123.19 183.006 124.52 183.006C125.85 183.006 127.152 182.096 127.152 180.15C127.152 178.218 125.878 177.308 124.562 177.308C123.218 177.308 122 178.218 122 180.15ZM130.367 184V177.378H129.373V176.328H130.367V175.782C130.367 174.074 131.207 173.304 133.167 173.304V174.368C132.019 174.368 131.641 174.788 131.641 175.782V176.328H133.251V177.378H131.641V184H130.367ZM135.016 181.9V177.378H134.022V176.328H135.016V174.396H136.29V176.328H138.292V177.378H136.29V181.9C136.29 182.656 136.57 182.922 137.354 182.922H138.292V184H137.144C135.786 184 135.016 183.44 135.016 181.9ZM141.334 184L138.926 176.328H140.228L141.992 182.768L143.896 176.328H145.198L147.06 182.782L148.796 176.328H150.056L147.662 184H146.346L144.498 177.91L142.65 184H141.334ZM150.844 180.136C150.844 177.742 152.426 176.202 154.484 176.202C155.912 176.202 156.892 176.93 157.34 177.728V176.328H158.628V184H157.34V182.572C156.878 183.398 155.884 184.126 154.47 184.126C152.426 184.126 150.844 182.516 150.844 180.136ZM157.34 180.15C157.34 178.372 156.136 177.308 154.736 177.308C153.336 177.308 152.146 178.33 152.146 180.136C152.146 181.942 153.336 183.006 154.736 183.006C156.136 183.006 157.34 181.956 157.34 180.15ZM162.055 179.828V184H160.781V176.328H162.055V177.574C162.489 176.72 163.315 176.188 164.533 176.188V177.504H164.197C162.979 177.504 162.055 178.05 162.055 179.828ZM169.266 177.28C168.02 177.28 166.984 178.106 166.844 179.604H171.688C171.702 178.106 170.582 177.28 169.266 177.28ZM172.85 181.634C172.458 183.034 171.226 184.126 169.322 184.126C167.138 184.126 165.528 182.586 165.528 180.15C165.528 177.728 167.082 176.202 169.322 176.202C171.548 176.202 173.004 177.77 173.004 179.87C173.004 180.15 172.99 180.374 172.962 180.64H166.83C166.928 182.194 168.02 183.048 169.322 183.048C170.47 183.048 171.198 182.46 171.478 181.634H172.85ZM178.656 184V177.378H177.662V176.328H178.656V175.782C178.656 174.074 179.496 173.304 181.456 173.304V174.368C180.308 174.368 179.93 174.788 179.93 175.782V176.328H181.54V177.378H179.93V184H178.656ZM190.305 180.15C190.305 182.586 188.555 184.126 186.371 184.126C184.201 184.126 182.549 182.586 182.549 180.15C182.549 177.728 184.257 176.202 186.427 176.202C188.611 176.202 190.305 177.728 190.305 180.15ZM183.851 180.15C183.851 182.096 185.041 183.006 186.371 183.006C187.701 183.006 189.003 182.096 189.003 180.15C189.003 178.218 187.729 177.308 186.413 177.308C185.069 177.308 183.851 178.218 183.851 180.15ZM193.254 179.828V184H191.98V176.328H193.254V177.574C193.688 176.72 194.514 176.188 195.732 176.188V177.504H195.396C194.178 177.504 193.254 178.05 193.254 179.828ZM202.209 179.828V184H200.935V176.328H202.209V177.574C202.643 176.72 203.469 176.188 204.687 176.188V177.504H204.351C203.133 177.504 202.209 178.05 202.209 179.828ZM209.42 177.28C208.174 177.28 207.138 178.106 206.998 179.604H211.842C211.856 178.106 210.736 177.28 209.42 177.28ZM213.004 181.634C212.612 183.034 211.38 184.126 209.476 184.126C207.292 184.126 205.682 182.586 205.682 180.15C205.682 177.728 207.236 176.202 209.476 176.202C211.702 176.202 213.158 177.77 213.158 179.87C213.158 180.15 213.144 180.374 213.116 180.64H206.984C207.082 182.194 208.174 183.048 209.476 183.048C210.624 183.048 211.352 182.46 211.632 181.634H213.004ZM213.93 176.328H215.302L217.696 182.824L220.076 176.328H221.434L218.424 184H216.94L213.93 176.328ZM222.687 184V176.328H223.961V184H222.687ZM223.345 175.082C222.855 175.082 222.477 174.704 222.477 174.214C222.477 173.724 222.855 173.346 223.345 173.346C223.807 173.346 224.185 173.724 224.185 174.214C224.185 174.704 223.807 175.082 223.345 175.082ZM229.395 177.28C228.149 177.28 227.113 178.106 226.973 179.604H231.817C231.831 178.106 230.711 177.28 229.395 177.28ZM232.979 181.634C232.587 183.034 231.355 184.126 229.451 184.126C227.267 184.126 225.657 182.586 225.657 180.15C225.657 177.728 227.211 176.202 229.451 176.202C231.677 176.202 233.133 177.77 233.133 179.87C233.133 180.15 233.119 180.374 233.091 180.64H226.959C227.057 182.194 228.149 183.048 229.451 183.048C230.599 183.048 231.327 182.46 231.607 181.634H232.979ZM236.312 184L233.904 176.328H235.206L236.97 182.768L238.874 176.328H240.176L242.038 182.782L243.774 176.328H245.034L242.64 184H241.324L239.476 177.91L237.628 184H236.312ZM247.545 183.216C247.545 183.706 247.167 184.084 246.705 184.084C246.215 184.084 245.837 183.706 245.837 183.216C245.837 182.726 246.215 182.348 246.705 182.348C247.167 182.348 247.545 182.726 247.545 183.216Z" fill="#4F668E"/>
</svg>
