<svg width="250" height="250" viewBox="0 0 250 250" fill="none" xmlns="http://www.w3.org/2000/svg">
<path d="M70.9393 249.515C71.5251 250.101 72.4749 250.101 73.0607 249.515L82.6066 239.969C83.1924 239.384 83.1924 238.434 82.6066 237.848C82.0208 237.262 81.0711 237.262 80.4853 237.848L72 246.333L63.5147 237.848C62.9289 237.262 61.9792 237.262 61.3934 237.848C60.8076 238.434 60.8076 239.384 61.3934 239.969L70.9393 249.515ZM70.5 208.455V248.455H73.5V208.455H70.5Z" fill="#23D9AE"/>
<path d="M54.5042 33H30C14.536 33 2 45.536 2 61V182C2 197.464 14.536 210 30 210H73" stroke="#23D9AE" stroke-width="3"/>
<circle cx="73" cy="31" r="31" fill="#34B7F2"/>
<path d="M32.38 89.96V92.7H26.66V95.66H30.94V98.32H26.66V104H23.24V89.96H32.38ZM37.5975 94.7C37.9975 94.0867 38.4975 93.6067 39.0975 93.26C39.6975 92.9 40.3642 92.72 41.0975 92.72V96.34H40.1575C39.3042 96.34 38.6642 96.5267 38.2375 96.9C37.8108 97.26 37.5975 97.9 37.5975 98.82V104H34.1775V92.84H37.5975V94.7ZM47.8122 104.16C46.7189 104.16 45.7322 103.927 44.8522 103.46C43.9855 102.993 43.2989 102.327 42.7922 101.46C42.2989 100.593 42.0522 99.58 42.0522 98.42C42.0522 97.2733 42.3055 96.2667 42.8122 95.4C43.3189 94.52 44.0122 93.8467 44.8922 93.38C45.7722 92.9133 46.7589 92.68 47.8522 92.68C48.9455 92.68 49.9322 92.9133 50.8122 93.38C51.6922 93.8467 52.3855 94.52 52.8922 95.4C53.3989 96.2667 53.6522 97.2733 53.6522 98.42C53.6522 99.5667 53.3922 100.58 52.8722 101.46C52.3655 102.327 51.6655 102.993 50.7722 103.46C49.8922 103.927 48.9055 104.16 47.8122 104.16ZM47.8122 101.2C48.4655 101.2 49.0189 100.96 49.4722 100.48C49.9389 100 50.1722 99.3133 50.1722 98.42C50.1722 97.5267 49.9455 96.84 49.4922 96.36C49.0522 95.88 48.5055 95.64 47.8522 95.64C47.1855 95.64 46.6322 95.88 46.1922 96.36C45.7522 96.8267 45.5322 97.5133 45.5322 98.42C45.5322 99.3133 45.7455 100 46.1722 100.48C46.6122 100.96 47.1589 101.2 47.8122 101.2ZM62.2666 92.72C63.5732 92.72 64.6132 93.1467 65.3866 94C66.1732 94.84 66.5666 96 66.5666 97.48V104H63.1666V97.94C63.1666 97.1933 62.9732 96.6133 62.5866 96.2C62.1999 95.7867 61.6799 95.58 61.0266 95.58C60.3732 95.58 59.8532 95.7867 59.4666 96.2C59.0799 96.6133 58.8866 97.1933 58.8866 97.94V104H55.4666V92.84H58.8866V94.32C59.2332 93.8267 59.6999 93.44 60.2866 93.16C60.8732 92.8667 61.5332 92.72 62.2666 92.72ZM75.1631 101.1V104H73.4231C72.1831 104 71.2165 103.7 70.5231 103.1C69.8298 102.487 69.4831 101.493 69.4831 100.12V95.68H68.1231V92.84H69.4831V90.12H72.9031V92.84H75.1431V95.68H72.9031V100.16C72.9031 100.493 72.9831 100.733 73.1431 100.88C73.3031 101.027 73.5698 101.1 73.9431 101.1H75.1631ZM85.6681 95.56V98.4H76.8681V95.56H85.6681ZM99.1897 98.24C99.1897 98.56 99.1697 98.8933 99.1297 99.24H91.3897C91.443 99.9333 91.663 100.467 92.0497 100.84C92.4497 101.2 92.9364 101.38 93.5097 101.38C94.363 101.38 94.9564 101.02 95.2897 100.3H98.9297C98.743 101.033 98.403 101.693 97.9097 102.28C97.4297 102.867 96.823 103.327 96.0897 103.66C95.3564 103.993 94.5364 104.16 93.6297 104.16C92.5364 104.16 91.563 103.927 90.7097 103.46C89.8564 102.993 89.1897 102.327 88.7097 101.46C88.2297 100.593 87.9897 99.58 87.9897 98.42C87.9897 97.26 88.223 96.2467 88.6897 95.38C89.1697 94.5133 89.8364 93.8467 90.6897 93.38C91.543 92.9133 92.523 92.68 93.6297 92.68C94.7097 92.68 95.6697 92.9067 96.5097 93.36C97.3497 93.8133 98.003 94.46 98.4697 95.3C98.9497 96.14 99.1897 97.12 99.1897 98.24ZM95.6897 97.34C95.6897 96.7533 95.4897 96.2867 95.0897 95.94C94.6897 95.5933 94.1897 95.42 93.5897 95.42C93.0164 95.42 92.5297 95.5867 92.1297 95.92C91.743 96.2533 91.503 96.7267 91.4097 97.34H95.6897ZM107.794 92.72C109.101 92.72 110.141 93.1467 110.914 94C111.701 94.84 112.094 96 112.094 97.48V104H108.694V97.94C108.694 97.1933 108.501 96.6133 108.114 96.2C107.727 95.7867 107.207 95.58 106.554 95.58C105.901 95.58 105.381 95.7867 104.994 96.2C104.607 96.6133 104.414 97.1933 104.414 97.94V104H100.994V92.84H104.414V94.32C104.761 93.8267 105.227 93.44 105.814 93.16C106.401 92.8667 107.061 92.72 107.794 92.72ZM113.79 98.4C113.79 97.2533 114.004 96.2467 114.43 95.38C114.87 94.5133 115.464 93.8467 116.21 93.38C116.957 92.9133 117.79 92.68 118.71 92.68C119.444 92.68 120.11 92.8333 120.71 93.14C121.324 93.4467 121.804 93.86 122.15 94.38V89.2H125.57V104H122.15V102.4C121.83 102.933 121.37 103.36 120.77 103.68C120.184 104 119.497 104.16 118.71 104.16C117.79 104.16 116.957 103.927 116.21 103.46C115.464 102.98 114.87 102.307 114.43 101.44C114.004 100.56 113.79 99.5467 113.79 98.4ZM122.15 98.42C122.15 97.5667 121.91 96.8933 121.43 96.4C120.964 95.9067 120.39 95.66 119.71 95.66C119.03 95.66 118.45 95.9067 117.97 96.4C117.504 96.88 117.27 97.5467 117.27 98.4C117.27 99.2533 117.504 99.9333 117.97 100.44C118.45 100.933 119.03 101.18 119.71 101.18C120.39 101.18 120.964 100.933 121.43 100.44C121.91 99.9467 122.15 99.2733 122.15 98.42ZM131.703 96.96C131.703 95.5733 132.003 94.34 132.603 93.26C133.203 92.1667 134.036 91.32 135.103 90.72C136.183 90.1067 137.403 89.8 138.763 89.8C140.43 89.8 141.856 90.24 143.043 91.12C144.23 92 145.023 93.2 145.423 94.72H141.663C141.383 94.1333 140.983 93.6867 140.463 93.38C139.956 93.0733 139.376 92.92 138.723 92.92C137.67 92.92 136.816 93.2867 136.163 94.02C135.51 94.7533 135.183 95.7333 135.183 96.96C135.183 98.1867 135.51 99.1667 136.163 99.9C136.816 100.633 137.67 101 138.723 101C139.376 101 139.956 100.847 140.463 100.54C140.983 100.233 141.383 99.7867 141.663 99.2H145.423C145.023 100.72 144.23 101.92 143.043 102.8C141.856 103.667 140.43 104.1 138.763 104.1C137.403 104.1 136.183 103.8 135.103 103.2C134.036 102.587 133.203 101.74 132.603 100.66C132.003 99.58 131.703 98.3467 131.703 96.96ZM152.597 104.16C151.504 104.16 150.517 103.927 149.637 103.46C148.771 102.993 148.084 102.327 147.577 101.46C147.084 100.593 146.837 99.58 146.837 98.42C146.837 97.2733 147.091 96.2667 147.597 95.4C148.104 94.52 148.797 93.8467 149.677 93.38C150.557 92.9133 151.544 92.68 152.637 92.68C153.731 92.68 154.717 92.9133 155.597 93.38C156.477 93.8467 157.171 94.52 157.677 95.4C158.184 96.2667 158.437 97.2733 158.437 98.42C158.437 99.5667 158.177 100.58 157.657 101.46C157.151 102.327 156.451 102.993 155.557 103.46C154.677 103.927 153.691 104.16 152.597 104.16ZM152.597 101.2C153.251 101.2 153.804 100.96 154.257 100.48C154.724 100 154.957 99.3133 154.957 98.42C154.957 97.5267 154.731 96.84 154.277 96.36C153.837 95.88 153.291 95.64 152.637 95.64C151.971 95.64 151.417 95.88 150.977 96.36C150.537 96.8267 150.317 97.5133 150.317 98.42C150.317 99.3133 150.531 100 150.957 100.48C151.397 100.96 151.944 101.2 152.597 101.2ZM159.572 98.4C159.572 97.2533 159.785 96.2467 160.212 95.38C160.652 94.5133 161.245 93.8467 161.992 93.38C162.738 92.9133 163.572 92.68 164.492 92.68C165.225 92.68 165.892 92.8333 166.492 93.14C167.105 93.4467 167.585 93.86 167.932 94.38V89.2H171.352V104H167.932V102.4C167.612 102.933 167.152 103.36 166.552 103.68C165.965 104 165.278 104.16 164.492 104.16C163.572 104.16 162.738 103.927 161.992 103.46C161.245 102.98 160.652 102.307 160.212 101.44C159.785 100.56 159.572 99.5467 159.572 98.4ZM167.932 98.42C167.932 97.5667 167.692 96.8933 167.212 96.4C166.745 95.9067 166.172 95.66 165.492 95.66C164.812 95.66 164.232 95.9067 163.752 96.4C163.285 96.88 163.052 97.5467 163.052 98.4C163.052 99.2533 163.285 99.9333 163.752 100.44C164.232 100.933 164.812 101.18 165.492 101.18C166.172 101.18 166.745 100.933 167.212 100.44C167.692 99.9467 167.932 99.2733 167.932 98.42ZM175.546 91.68C174.946 91.68 174.453 91.5067 174.066 91.16C173.693 90.8 173.506 90.36 173.506 89.84C173.506 89.3067 173.693 88.8667 174.066 88.52C174.453 88.16 174.946 87.98 175.546 87.98C176.133 87.98 176.613 88.16 176.986 88.52C177.373 88.8667 177.566 89.3067 177.566 89.84C177.566 90.36 177.373 90.8 176.986 91.16C176.613 91.5067 176.133 91.68 175.546 91.68ZM177.246 92.84V104H173.826V92.84H177.246ZM186.524 92.72C187.831 92.72 188.871 93.1467 189.644 94C190.431 94.84 190.824 96 190.824 97.48V104H187.424V97.94C187.424 97.1933 187.231 96.6133 186.844 96.2C186.458 95.7867 185.938 95.58 185.284 95.58C184.631 95.58 184.111 95.7867 183.724 96.2C183.338 96.6133 183.144 97.1933 183.144 97.94V104H179.724V92.84H183.144V94.32C183.491 93.8267 183.958 93.44 184.544 93.16C185.131 92.8667 185.791 92.72 186.524 92.72ZM197.441 92.68C198.228 92.68 198.914 92.84 199.501 93.16C200.101 93.48 200.561 93.9 200.881 94.42V92.84H204.301V103.98C204.301 105.007 204.094 105.933 203.681 106.76C203.281 107.6 202.661 108.267 201.821 108.76C200.994 109.253 199.961 109.5 198.721 109.5C197.068 109.5 195.728 109.107 194.701 108.32C193.674 107.547 193.088 106.493 192.941 105.16H196.321C196.428 105.587 196.681 105.92 197.081 106.16C197.481 106.413 197.974 106.54 198.561 106.54C199.268 106.54 199.828 106.333 200.241 105.92C200.668 105.52 200.881 104.873 200.881 103.98V102.4C200.548 102.92 200.088 103.347 199.501 103.68C198.914 104 198.228 104.16 197.441 104.16C196.521 104.16 195.688 103.927 194.941 103.46C194.194 102.98 193.601 102.307 193.161 101.44C192.734 100.56 192.521 99.5467 192.521 98.4C192.521 97.2533 192.734 96.2467 193.161 95.38C193.601 94.5133 194.194 93.8467 194.941 93.38C195.688 92.9133 196.521 92.68 197.441 92.68ZM200.881 98.42C200.881 97.5667 200.641 96.8933 200.161 96.4C199.694 95.9067 199.121 95.66 198.441 95.66C197.761 95.66 197.181 95.9067 196.701 96.4C196.234 96.88 196.001 97.5467 196.001 98.4C196.001 99.2533 196.234 99.9333 196.701 100.44C197.181 100.933 197.761 101.18 198.441 101.18C199.121 101.18 199.694 100.933 200.161 100.44C200.641 99.9467 200.881 99.2733 200.881 98.42Z" fill="#0051FB"/>
<path d="M69.0303 30.7109V30.1299C70.292 29.7646 71.1663 29.4271 71.6533 29.1172C72.1403 28.7962 72.5609 28.3148 72.915 27.6729C73.2692 27.0199 73.4463 26.3613 73.4463 25.6973C73.4463 24.7786 73.1087 23.9928 72.4336 23.3398C71.7695 22.6758 70.9395 22.3438 69.9434 22.3438C68.3939 22.3438 67.0768 23.1628 65.9922 24.8008L65.3779 24.585C66.1748 22.7367 67.193 21.3477 68.4326 20.418C69.6833 19.4883 71.0723 19.0234 72.5996 19.0234C74.1602 19.0234 75.444 19.4993 76.4512 20.4512C77.4694 21.403 77.9785 22.5153 77.9785 23.7881C77.9785 24.6182 77.7406 25.4206 77.2646 26.1953C76.7998 26.959 76.0638 27.6341 75.0566 28.2207C76.3516 28.8516 77.3366 29.6318 78.0117 30.5615C78.6979 31.4801 79.041 32.6367 79.041 34.0312C79.041 36.3776 78.1888 38.3753 76.4844 40.0244C74.791 41.6624 72.5166 42.4814 69.6611 42.4814C67.7575 42.4814 66.3685 42.166 65.4941 41.5352C64.8633 41.0924 64.5479 40.5225 64.5479 39.8252C64.5479 39.3161 64.7305 38.8844 65.0957 38.5303C65.4609 38.165 65.8815 37.9824 66.3574 37.9824C66.7227 37.9824 67.0658 38.0599 67.3867 38.2148C67.5638 38.3034 68.1891 38.7904 69.2627 39.6758C70.3473 40.5501 71.36 40.9873 72.3008 40.9873C73.1198 40.9873 73.8226 40.6663 74.4092 40.0244C74.9958 39.3714 75.2891 38.5469 75.2891 37.5508C75.2891 36.0345 74.7578 34.64 73.6953 33.3672C72.6328 32.0833 71.0778 31.1979 69.0303 30.7109Z" fill="white"/>
<path d="M22.476 122.278V121.242H29.084V122.278H26.424V131H25.15V122.278H22.476ZM30.6522 131V120.64H31.9262V124.434C32.4302 123.622 33.3822 123.188 34.4602 123.188C36.1682 123.188 37.5262 124.28 37.5262 126.478V131H36.2662V126.66C36.2662 125.092 35.4122 124.294 34.1242 124.294C32.8222 124.294 31.9262 125.106 31.9262 126.758V131H30.6522ZM39.6073 131V123.328H40.8813V131H39.6073ZM40.2653 122.082C39.7753 122.082 39.3973 121.704 39.3973 121.214C39.3973 120.724 39.7753 120.346 40.2653 120.346C40.7273 120.346 41.1053 120.724 41.1053 121.214C41.1053 121.704 40.7273 122.082 40.2653 122.082ZM48.5686 128.914C48.5686 130.174 47.4626 131.126 45.7686 131.126C43.9766 131.126 42.7166 130.146 42.6326 128.746H43.9486C44.0186 129.488 44.6766 130.048 45.7546 130.048C46.7626 130.048 47.3226 129.544 47.3226 128.914C47.3226 127.206 42.7866 128.2 42.7866 125.344C42.7866 124.168 43.8926 123.202 45.6006 123.202C47.2946 123.202 48.4146 124.112 48.4986 125.61H47.2246C47.1686 124.84 46.5806 124.28 45.5586 124.28C44.6206 124.28 44.0606 124.728 44.0606 125.344C44.0606 127.164 48.5126 126.17 48.5686 128.914ZM59.6155 128.914C59.6155 130.174 58.5095 131.126 56.8155 131.126C55.0235 131.126 53.7635 130.146 53.6795 128.746H54.9955C55.0655 129.488 55.7235 130.048 56.8015 130.048C57.8095 130.048 58.3695 129.544 58.3695 128.914C58.3695 127.206 53.8335 128.2 53.8335 125.344C53.8335 124.168 54.9395 123.202 56.6475 123.202C58.3415 123.202 59.4615 124.112 59.5455 125.61H58.2715C58.2155 124.84 57.6275 124.28 56.6055 124.28C55.6675 124.28 55.1075 124.728 55.1075 125.344C55.1075 127.164 59.5595 126.17 59.6155 128.914ZM61.6939 128.9V124.378H60.6999V123.328H61.6939V121.396H62.9679V123.328H64.9699V124.378H62.9679V128.9C62.9679 129.656 63.2479 129.922 64.0319 129.922H64.9699V131H63.8219C62.4639 131 61.6939 130.44 61.6939 128.9ZM66.0375 127.136C66.0375 124.742 67.6195 123.202 69.6775 123.202C71.1055 123.202 72.0855 123.93 72.5335 124.728V123.328H73.8215V131H72.5335V129.572C72.0715 130.398 71.0775 131.126 69.6635 131.126C67.6195 131.126 66.0375 129.516 66.0375 127.136ZM72.5335 127.15C72.5335 125.372 71.3295 124.308 69.9295 124.308C68.5295 124.308 67.3395 125.33 67.3395 127.136C67.3395 128.942 68.5295 130.006 69.9295 130.006C71.3295 130.006 72.5335 128.956 72.5335 127.15ZM75.4985 127.136C75.4985 124.742 77.0805 123.202 79.1385 123.202C80.5385 123.202 81.5465 123.902 81.9945 124.728V123.328H83.2825V131.168C83.2825 133.282 81.8685 134.78 79.6145 134.78C77.5985 134.78 76.1565 133.758 75.9045 132.12H77.1645C77.4445 133.044 78.3545 133.674 79.6145 133.674C80.9725 133.674 81.9945 132.806 81.9945 131.168V129.558C81.5325 130.384 80.5385 131.126 79.1385 131.126C77.0805 131.126 75.4985 129.516 75.4985 127.136ZM81.9945 127.15C81.9945 125.372 80.7905 124.308 79.3905 124.308C77.9905 124.308 76.8005 125.33 76.8005 127.136C76.8005 128.942 77.9905 130.006 79.3905 130.006C80.7905 130.006 81.9945 128.956 81.9945 127.15ZM88.6974 124.28C87.4514 124.28 86.4154 125.106 86.2754 126.604H91.1194C91.1334 125.106 90.0134 124.28 88.6974 124.28ZM92.2814 128.634C91.8894 130.034 90.6574 131.126 88.7534 131.126C86.5694 131.126 84.9594 129.586 84.9594 127.15C84.9594 124.728 86.5134 123.202 88.7534 123.202C90.9794 123.202 92.4354 124.77 92.4354 126.87C92.4354 127.15 92.4214 127.374 92.3934 127.64H86.2614C86.3594 129.194 87.4514 130.048 88.7534 130.048C89.9014 130.048 90.6294 129.46 90.9094 128.634H92.2814ZM97.8495 131V123.328H99.1235V131H97.8495ZM98.5075 122.082C98.0175 122.082 97.6395 121.704 97.6395 121.214C97.6395 120.724 98.0175 120.346 98.5075 120.346C98.9695 120.346 99.3475 120.724 99.3475 121.214C99.3475 121.704 98.9695 122.082 98.5075 122.082ZM106.909 131V126.66C106.909 125.092 106.055 124.294 104.767 124.294C103.465 124.294 102.569 125.106 102.569 126.758V131H101.295V123.328H102.569V124.42C103.073 123.622 103.997 123.188 105.033 123.188C106.811 123.188 108.169 124.28 108.169 126.478V131H106.909ZM109.34 123.328H110.712L113.106 129.824L115.486 123.328H116.844L113.834 131H112.35L109.34 123.328ZM125.378 127.15C125.378 129.586 123.628 131.126 121.444 131.126C119.274 131.126 117.622 129.586 117.622 127.15C117.622 124.728 119.33 123.202 121.5 123.202C123.684 123.202 125.378 124.728 125.378 127.15ZM118.924 127.15C118.924 129.096 120.114 130.006 121.444 130.006C122.774 130.006 124.076 129.096 124.076 127.15C124.076 125.218 122.802 124.308 121.486 124.308C120.142 124.308 118.924 125.218 118.924 127.15ZM127.053 131V120.64H128.327V131H127.053ZM129.588 123.328H130.96L133.354 129.824L135.734 123.328H137.092L134.082 131H132.598L129.588 123.328ZM141.608 124.28C140.362 124.28 139.326 125.106 139.186 126.604H144.03C144.044 125.106 142.924 124.28 141.608 124.28ZM145.192 128.634C144.8 130.034 143.568 131.126 141.664 131.126C139.48 131.126 137.87 129.586 137.87 127.15C137.87 124.728 139.424 123.202 141.664 123.202C143.89 123.202 145.346 124.77 145.346 126.87C145.346 127.15 145.332 127.374 145.304 127.64H139.172C139.27 129.194 140.362 130.048 141.664 130.048C142.812 130.048 143.54 129.46 143.82 128.634H145.192ZM152.543 128.914C152.543 130.174 151.437 131.126 149.743 131.126C147.951 131.126 146.691 130.146 146.607 128.746H147.923C147.993 129.488 148.651 130.048 149.729 130.048C150.737 130.048 151.297 129.544 151.297 128.914C151.297 127.206 146.761 128.2 146.761 125.344C146.761 124.168 147.867 123.202 149.575 123.202C151.269 123.202 152.389 124.112 152.473 125.61H151.199C151.143 124.84 150.555 124.28 149.533 124.28C148.595 124.28 148.035 124.728 148.035 125.344C148.035 127.164 152.487 126.17 152.543 128.914ZM158.354 128.9V124.378H157.36V123.328H158.354V121.396H159.628V123.328H161.63V124.378H159.628V128.9C159.628 129.656 159.908 129.922 160.692 129.922H161.63V131H160.482C159.124 131 158.354 130.44 158.354 128.9ZM169.978 123.328V131H168.704V129.866C168.214 130.664 167.276 131.112 166.254 131.112C164.49 131.112 163.104 130.02 163.104 127.822V123.328H164.364V127.654C164.364 129.208 165.218 130.006 166.506 130.006C167.822 130.006 168.704 129.194 168.704 127.542V123.328H169.978ZM173.403 126.828V131H172.129V123.328H173.403V124.574C173.837 123.72 174.663 123.188 175.881 123.188V124.504H175.545C174.327 124.504 173.403 125.05 173.403 126.828ZM182.965 131V126.66C182.965 125.092 182.111 124.294 180.823 124.294C179.521 124.294 178.625 125.106 178.625 126.758V131H177.351V123.328H178.625V124.42C179.129 123.622 180.053 123.188 181.089 123.188C182.867 123.188 184.225 124.28 184.225 126.478V131H182.965ZM186.307 131V123.328H187.581V131H186.307ZM186.965 122.082C186.475 122.082 186.097 121.704 186.097 121.214C186.097 120.724 186.475 120.346 186.965 120.346C187.427 120.346 187.805 120.724 187.805 121.214C187.805 121.704 187.427 122.082 186.965 122.082ZM195.366 131V126.66C195.366 125.092 194.512 124.294 193.224 124.294C191.922 124.294 191.026 125.106 191.026 126.758V131H189.752V123.328H191.026V124.42C191.53 123.622 192.454 123.188 193.49 123.188C195.268 123.188 196.626 124.28 196.626 126.478V131H195.366ZM198.231 127.136C198.231 124.742 199.813 123.202 201.871 123.202C203.271 123.202 204.279 123.902 204.727 124.728V123.328H206.015V131.168C206.015 133.282 204.601 134.78 202.347 134.78C200.331 134.78 198.889 133.758 198.637 132.12H199.897C200.177 133.044 201.087 133.674 202.347 133.674C203.705 133.674 204.727 132.806 204.727 131.168V129.558C204.265 130.384 203.271 131.126 201.871 131.126C199.813 131.126 198.231 129.516 198.231 127.136ZM204.727 127.15C204.727 125.372 203.523 124.308 202.123 124.308C200.723 124.308 199.533 125.33 199.533 127.136C199.533 128.942 200.723 130.006 202.123 130.006C203.523 130.006 204.727 128.956 204.727 127.15ZM214.812 129.544L217.192 123.328H218.508L213.888 134.612H212.572L214.084 130.916L210.99 123.328H212.404L214.812 129.544ZM227.069 127.15C227.069 129.586 225.319 131.126 223.135 131.126C220.965 131.126 219.313 129.586 219.313 127.15C219.313 124.728 221.021 123.202 223.191 123.202C225.375 123.202 227.069 124.728 227.069 127.15ZM220.615 127.15C220.615 129.096 221.805 130.006 223.135 130.006C224.465 130.006 225.767 129.096 225.767 127.15C225.767 125.218 224.493 124.308 223.177 124.308C221.833 124.308 220.615 125.218 220.615 127.15ZM235.548 123.328V131H234.274V129.866C233.784 130.664 232.846 131.112 231.824 131.112C230.06 131.112 228.674 130.02 228.674 127.822V123.328H229.934V127.654C229.934 129.208 230.788 130.006 232.076 130.006C233.392 130.006 234.274 129.194 234.274 127.542V123.328H235.548ZM238.973 126.828V131H237.699V123.328H238.973V124.574C239.407 123.72 240.233 123.188 241.451 123.188V124.504H241.115C239.897 124.504 238.973 125.05 238.973 126.828ZM22.602 147.136C22.602 144.742 24.184 143.202 26.256 143.202C27.46 143.202 28.566 143.818 29.098 144.7V140.64H30.386V151H29.098V149.558C28.636 150.412 27.642 151.126 26.242 151.126C24.184 151.126 22.602 149.516 22.602 147.136ZM29.098 147.15C29.098 145.372 27.894 144.308 26.494 144.308C25.094 144.308 23.904 145.33 23.904 147.136C23.904 148.942 25.094 150.006 26.494 150.006C27.894 150.006 29.098 148.956 29.098 147.15ZM35.8009 144.28C34.5549 144.28 33.5189 145.106 33.3789 146.604H38.2229C38.2369 145.106 37.1169 144.28 35.8009 144.28ZM39.3849 148.634C38.9929 150.034 37.7609 151.126 35.8569 151.126C33.6729 151.126 32.0629 149.586 32.0629 147.15C32.0629 144.728 33.6169 143.202 35.8569 143.202C38.0829 143.202 39.5389 144.77 39.5389 146.87C39.5389 147.15 39.5249 147.374 39.4969 147.64H33.3649C33.4629 149.194 34.5549 150.048 35.8569 150.048C37.0049 150.048 37.7329 149.46 38.0129 148.634H39.3849ZM46.7366 148.914C46.7366 150.174 45.6306 151.126 43.9366 151.126C42.1446 151.126 40.8846 150.146 40.8006 148.746H42.1166C42.1866 149.488 42.8446 150.048 43.9226 150.048C44.9306 150.048 45.4906 149.544 45.4906 148.914C45.4906 147.206 40.9546 148.2 40.9546 145.344C40.9546 144.168 42.0606 143.202 43.7686 143.202C45.4626 143.202 46.5826 144.112 46.6666 145.61H45.3926C45.3366 144.84 44.7486 144.28 43.7266 144.28C42.7886 144.28 42.2286 144.728 42.2286 145.344C42.2286 147.164 46.6806 146.17 46.7366 148.914ZM48.535 151V143.328H49.809V151H48.535ZM49.193 142.082C48.703 142.082 48.325 141.704 48.325 141.214C48.325 140.724 48.703 140.346 49.193 140.346C49.655 140.346 50.033 140.724 50.033 141.214C50.033 141.704 49.655 142.082 49.193 142.082ZM51.5043 147.136C51.5043 144.742 53.0863 143.202 55.1443 143.202C56.5443 143.202 57.5523 143.902 58.0003 144.728V143.328H59.2883V151.168C59.2883 153.282 57.8743 154.78 55.6203 154.78C53.6043 154.78 52.1623 153.758 51.9103 152.12H53.1703C53.4503 153.044 54.3603 153.674 55.6203 153.674C56.9783 153.674 58.0003 152.806 58.0003 151.168V149.558C57.5383 150.384 56.5443 151.126 55.1443 151.126C53.0863 151.126 51.5043 149.516 51.5043 147.136ZM58.0003 147.15C58.0003 145.372 56.7963 144.308 55.3963 144.308C53.9963 144.308 52.8063 145.33 52.8063 147.136C52.8063 148.942 53.9963 150.006 55.3963 150.006C56.7963 150.006 58.0003 148.956 58.0003 147.15ZM67.0553 151V146.66C67.0553 145.092 66.2013 144.294 64.9133 144.294C63.6113 144.294 62.7153 145.106 62.7153 146.758V151H61.4413V143.328H62.7153V144.42C63.2193 143.622 64.1433 143.188 65.1793 143.188C66.9573 143.188 68.3153 144.28 68.3153 146.478V151H67.0553ZM74.1288 151V143.328H75.4028V151H74.1288ZM74.7868 142.082C74.2968 142.082 73.9188 141.704 73.9188 141.214C73.9188 140.724 74.2968 140.346 74.7868 140.346C75.2488 140.346 75.6268 140.724 75.6268 141.214C75.6268 141.704 75.2488 142.082 74.7868 142.082ZM83.1881 151V146.66C83.1881 145.092 82.3341 144.294 81.0461 144.294C79.7441 144.294 78.8481 145.106 78.8481 146.758V151H77.5741V143.328H78.8481V144.42C79.3521 143.622 80.2761 143.188 81.3121 143.188C83.0901 143.188 84.4481 144.28 84.4481 146.478V151H83.1881ZM86.8092 148.9V144.378H85.8152V143.328H86.8092V141.396H88.0832V143.328H90.0852V144.378H88.0832V148.9C88.0832 149.656 88.3632 149.922 89.1472 149.922H90.0852V151H88.9372C87.5792 151 86.8092 150.44 86.8092 148.9ZM98.9088 147.15C98.9088 149.586 97.1588 151.126 94.9748 151.126C92.8048 151.126 91.1528 149.586 91.1528 147.15C91.1528 144.728 92.8608 143.202 95.0308 143.202C97.2148 143.202 98.9088 144.728 98.9088 147.15ZM92.4548 147.15C92.4548 149.096 93.6448 150.006 94.9748 150.006C96.3048 150.006 97.6068 149.096 97.6068 147.15C97.6068 145.218 96.3328 144.308 95.0168 144.308C93.6728 144.308 92.4548 145.218 92.4548 147.15ZM103.84 147.15C103.84 144.742 105.394 143.202 107.578 143.202C109.482 143.202 110.728 144.182 111.12 145.792H109.748C109.482 144.868 108.712 144.28 107.578 144.28C106.178 144.28 105.142 145.274 105.142 147.15C105.142 149.054 106.178 150.048 107.578 150.048C108.712 150.048 109.468 149.502 109.748 148.536H111.12C110.728 150.062 109.482 151.126 107.578 151.126C105.394 151.126 103.84 149.586 103.84 147.15ZM120.1 147.15C120.1 149.586 118.35 151.126 116.166 151.126C113.996 151.126 112.344 149.586 112.344 147.15C112.344 144.728 114.052 143.202 116.222 143.202C118.406 143.202 120.1 144.728 120.1 147.15ZM113.646 147.15C113.646 149.096 114.836 150.006 116.166 150.006C117.496 150.006 118.798 149.096 118.798 147.15C118.798 145.218 117.524 144.308 116.208 144.308C114.864 144.308 113.646 145.218 113.646 147.15ZM121.299 147.136C121.299 144.742 122.881 143.202 124.953 143.202C126.157 143.202 127.263 143.818 127.795 144.7V140.64H129.083V151H127.795V149.558C127.333 150.412 126.339 151.126 124.939 151.126C122.881 151.126 121.299 149.516 121.299 147.136ZM127.795 147.15C127.795 145.372 126.591 144.308 125.191 144.308C123.791 144.308 122.601 145.33 122.601 147.136C122.601 148.942 123.791 150.006 125.191 150.006C126.591 150.006 127.795 148.956 127.795 147.15ZM134.498 144.28C133.252 144.28 132.216 145.106 132.076 146.604H136.92C136.934 145.106 135.814 144.28 134.498 144.28ZM138.082 148.634C137.69 150.034 136.458 151.126 134.554 151.126C132.37 151.126 130.76 149.586 130.76 147.15C130.76 144.728 132.314 143.202 134.554 143.202C136.78 143.202 138.236 144.77 138.236 146.87C138.236 147.15 138.222 147.374 138.194 147.64H132.062C132.16 149.194 133.252 150.048 134.554 150.048C135.702 150.048 136.43 149.46 136.71 148.634H138.082ZM141.164 150.216C141.164 150.706 140.786 151.084 140.324 151.084C139.834 151.084 139.456 150.706 139.456 150.216C139.456 149.726 139.834 149.348 140.324 149.348C140.786 149.348 141.164 149.726 141.164 150.216ZM155.914 146.114C155.914 149.04 153.772 151.098 151.014 151.098C148.27 151.098 146.114 149.04 146.114 146.114C146.114 143.188 148.27 141.13 151.014 141.13C153.772 141.13 155.914 143.188 155.914 146.114ZM147.416 146.114C147.416 148.494 148.956 149.992 151.014 149.992C153.072 149.992 154.612 148.494 154.612 146.114C154.612 143.72 153.072 142.236 151.014 142.236C148.956 142.236 147.416 143.72 147.416 146.114ZM163.21 151V146.66C163.21 145.092 162.356 144.294 161.068 144.294C159.766 144.294 158.87 145.106 158.87 146.758V151H157.596V143.328H158.87V144.42C159.374 143.622 160.298 143.188 161.334 143.188C163.112 143.188 164.47 144.28 164.47 146.478V151H163.21ZM166.075 147.15C166.075 144.742 167.629 143.202 169.813 143.202C171.717 143.202 172.963 144.182 173.355 145.792H171.983C171.717 144.868 170.947 144.28 169.813 144.28C168.413 144.28 167.377 145.274 167.377 147.15C167.377 149.054 168.413 150.048 169.813 150.048C170.947 150.048 171.703 149.502 171.983 148.536H173.355C172.963 150.062 171.717 151.126 169.813 151.126C167.629 151.126 166.075 149.586 166.075 147.15ZM178.317 144.28C177.071 144.28 176.035 145.106 175.895 146.604H180.739C180.753 145.106 179.633 144.28 178.317 144.28ZM181.901 148.634C181.509 150.034 180.277 151.126 178.373 151.126C176.189 151.126 174.579 149.586 174.579 147.15C174.579 144.728 176.133 143.202 178.373 143.202C180.599 143.202 182.055 144.77 182.055 146.87C182.055 147.15 182.041 147.374 182.013 147.64H175.881C175.979 149.194 177.071 150.048 178.373 150.048C179.521 150.048 180.249 149.46 180.529 148.634H181.901ZM188.967 151L186.559 143.328H187.861L189.625 149.768L191.529 143.328H192.831L194.693 149.782L196.429 143.328H197.689L195.295 151H193.979L192.131 144.91L190.283 151H188.967ZM202.215 144.28C200.969 144.28 199.933 145.106 199.793 146.604H204.637C204.651 145.106 203.531 144.28 202.215 144.28ZM205.799 148.634C205.407 150.034 204.175 151.126 202.271 151.126C200.087 151.126 198.477 149.586 198.477 147.15C198.477 144.728 200.031 143.202 202.271 143.202C204.497 143.202 205.953 144.77 205.953 146.87C205.953 147.15 205.939 147.374 205.911 147.64H199.779C199.877 149.194 200.969 150.048 202.271 150.048C203.419 150.048 204.147 149.46 204.427 148.634H205.799ZM207.229 142.642L207.047 139.856H208.279L208.111 142.642H207.229ZM208.953 143.328H210.325L212.719 149.824L215.099 143.328H216.457L213.447 151H211.963L208.953 143.328ZM220.973 144.28C219.727 144.28 218.691 145.106 218.551 146.604H223.395C223.409 145.106 222.289 144.28 220.973 144.28ZM224.557 148.634C224.165 150.034 222.933 151.126 221.029 151.126C218.845 151.126 217.235 149.586 217.235 147.15C217.235 144.728 218.789 143.202 221.029 143.202C223.255 143.202 224.711 144.77 224.711 146.87C224.711 147.15 224.697 147.374 224.669 147.64H218.537C218.635 149.194 219.727 150.048 221.029 150.048C222.177 150.048 222.905 149.46 223.185 148.634H224.557ZM22.602 167.15C22.602 164.742 24.156 163.202 26.34 163.202C28.244 163.202 29.49 164.182 29.882 165.792H28.51C28.244 164.868 27.474 164.28 26.34 164.28C24.94 164.28 23.904 165.274 23.904 167.15C23.904 169.054 24.94 170.048 26.34 170.048C27.474 170.048 28.23 169.502 28.51 168.536H29.882C29.49 170.062 28.244 171.126 26.34 171.126C24.156 171.126 22.602 169.586 22.602 167.15ZM38.8619 167.15C38.8619 169.586 37.1119 171.126 34.9279 171.126C32.7579 171.126 31.1059 169.586 31.1059 167.15C31.1059 164.728 32.8139 163.202 34.9839 163.202C37.1679 163.202 38.8619 164.728 38.8619 167.15ZM32.4079 167.15C32.4079 169.096 33.5979 170.006 34.9279 170.006C36.2579 170.006 37.5599 169.096 37.5599 167.15C37.5599 165.218 36.2859 164.308 34.9699 164.308C33.6259 164.308 32.4079 165.218 32.4079 167.15ZM40.061 167.136C40.061 164.742 41.643 163.202 43.715 163.202C44.919 163.202 46.025 163.818 46.557 164.7V160.64H47.845V171H46.557V169.558C46.095 170.412 45.101 171.126 43.701 171.126C41.643 171.126 40.061 169.516 40.061 167.136ZM46.557 167.15C46.557 165.372 45.353 164.308 43.953 164.308C42.553 164.308 41.363 165.33 41.363 167.136C41.363 168.942 42.553 170.006 43.953 170.006C45.353 170.006 46.557 168.956 46.557 167.15ZM53.2599 164.28C52.0139 164.28 50.9779 165.106 50.8379 166.604H55.6819C55.6959 165.106 54.5759 164.28 53.2599 164.28ZM56.8439 168.634C56.4519 170.034 55.2199 171.126 53.3159 171.126C51.1319 171.126 49.5219 169.586 49.5219 167.15C49.5219 164.728 51.0759 163.202 53.3159 163.202C55.5419 163.202 56.9979 164.77 56.9979 166.87C56.9979 167.15 56.9839 167.374 56.9559 167.64H50.8239C50.9219 169.194 52.0139 170.048 53.3159 170.048C54.4639 170.048 55.1919 169.46 55.4719 168.634H56.8439ZM58.2036 167.136C58.2036 164.742 59.7856 163.202 61.8576 163.202C63.0616 163.202 64.1676 163.818 64.6996 164.7V160.64H65.9876V171H64.6996V169.558C64.2376 170.412 63.2436 171.126 61.8436 171.126C59.7856 171.126 58.2036 169.516 58.2036 167.136ZM64.6996 167.15C64.6996 165.372 63.4956 164.308 62.0956 164.308C60.6956 164.308 59.5056 165.33 59.5056 167.136C59.5056 168.942 60.6956 170.006 62.0956 170.006C63.4956 170.006 64.6996 168.956 64.6996 167.15ZM72.1529 168.9V164.378H71.1589V163.328H72.1529V161.396H73.4269V163.328H75.4289V164.378H73.4269V168.9C73.4269 169.656 73.7069 169.922 74.4909 169.922H75.4289V171H74.2809C72.9229 171 72.1529 170.44 72.1529 168.9ZM76.9725 171V160.64H78.2465V164.434C78.7505 163.622 79.7025 163.188 80.7805 163.188C82.4885 163.188 83.8465 164.28 83.8465 166.478V171H82.5865V166.66C82.5865 165.092 81.7325 164.294 80.4445 164.294C79.1425 164.294 78.2465 165.106 78.2465 166.758V171H76.9725ZM89.1896 164.28C87.9436 164.28 86.9076 165.106 86.7676 166.604H91.6116C91.6256 165.106 90.5056 164.28 89.1896 164.28ZM92.7736 168.634C92.3816 170.034 91.1496 171.126 89.2456 171.126C87.0616 171.126 85.4516 169.586 85.4516 167.15C85.4516 164.728 87.0056 163.202 89.2456 163.202C91.4716 163.202 92.9276 164.77 92.9276 166.87C92.9276 167.15 92.9136 167.374 92.8856 167.64H86.7536C86.8516 169.194 87.9436 170.048 89.2456 170.048C90.3936 170.048 91.1216 169.46 91.4016 168.634H92.7736ZM98.5797 171V164.378H97.5857V163.328H98.5797V162.782C98.5797 161.074 99.4197 160.304 101.38 160.304V161.368C100.232 161.368 99.8537 161.788 99.8537 162.782V163.328H101.464V164.378H99.8537V171H98.5797ZM104.223 166.828V171H102.949V163.328H104.223V164.574C104.657 163.72 105.483 163.188 106.701 163.188V164.504H106.365C105.147 164.504 104.223 165.05 104.223 166.828ZM115.452 167.15C115.452 169.586 113.702 171.126 111.518 171.126C109.348 171.126 107.696 169.586 107.696 167.15C107.696 164.728 109.404 163.202 111.574 163.202C113.758 163.202 115.452 164.728 115.452 167.15ZM108.998 167.15C108.998 169.096 110.188 170.006 111.518 170.006C112.848 170.006 114.15 169.096 114.15 167.15C114.15 165.218 112.876 164.308 111.56 164.308C110.216 164.308 108.998 165.218 108.998 167.15ZM122.741 171V166.66C122.741 165.092 121.887 164.294 120.599 164.294C119.297 164.294 118.401 165.106 118.401 166.758V171H117.127V163.328H118.401V164.42C118.905 163.622 119.829 163.188 120.865 163.188C122.643 163.188 124.001 164.28 124.001 166.478V171H122.741ZM126.362 168.9V164.378H125.368V163.328H126.362V161.396H127.636V163.328H129.638V164.378H127.636V168.9C127.636 169.656 127.916 169.922 128.7 169.922H129.638V171H128.49C127.132 171 126.362 170.44 126.362 168.9ZM138.176 164.28C136.93 164.28 135.894 165.106 135.754 166.604H140.598C140.612 165.106 139.492 164.28 138.176 164.28ZM141.76 168.634C141.368 170.034 140.136 171.126 138.232 171.126C136.048 171.126 134.438 169.586 134.438 167.15C134.438 164.728 135.992 163.202 138.232 163.202C140.458 163.202 141.914 164.77 141.914 166.87C141.914 167.15 141.9 167.374 141.872 167.64H135.74C135.838 169.194 136.93 170.048 138.232 170.048C139.38 170.048 140.108 169.46 140.388 168.634H141.76ZM149.21 171V166.66C149.21 165.092 148.356 164.294 147.068 164.294C145.766 164.294 144.87 165.106 144.87 166.758V171H143.596V163.328H144.87V164.42C145.374 163.622 146.298 163.188 147.334 163.188C149.112 163.188 150.47 164.28 150.47 166.478V171H149.21ZM152.075 167.136C152.075 164.742 153.657 163.202 155.729 163.202C156.933 163.202 158.039 163.818 158.571 164.7V160.64H159.859V171H158.571V169.558C158.109 170.412 157.115 171.126 155.715 171.126C153.657 171.126 152.075 169.516 152.075 167.136ZM158.571 167.15C158.571 165.372 157.367 164.308 155.967 164.308C154.567 164.308 153.377 165.33 153.377 167.136C153.377 168.942 154.567 170.006 155.967 170.006C157.367 170.006 158.571 168.956 158.571 167.15ZM160.906 173.002L161.928 169.236H163.328L161.76 173.002H160.906ZM171.431 169.544L173.811 163.328H175.127L170.507 174.612H169.191L170.703 170.916L167.609 163.328H169.023L171.431 169.544ZM183.688 167.15C183.688 169.586 181.938 171.126 179.754 171.126C177.584 171.126 175.932 169.586 175.932 167.15C175.932 164.728 177.64 163.202 179.81 163.202C181.994 163.202 183.688 164.728 183.688 167.15ZM177.234 167.15C177.234 169.096 178.424 170.006 179.754 170.006C181.084 170.006 182.386 169.096 182.386 167.15C182.386 165.218 181.112 164.308 179.796 164.308C178.452 164.308 177.234 165.218 177.234 167.15ZM192.167 163.328V171H190.893V169.866C190.403 170.664 189.465 171.112 188.443 171.112C186.679 171.112 185.293 170.02 185.293 167.822V163.328H186.553V167.654C186.553 169.208 187.407 170.006 188.695 170.006C190.011 170.006 190.893 169.194 190.893 167.542V163.328H192.167ZM193.912 162.642L193.73 159.856H194.962L194.794 162.642H193.912ZM196.547 171V160.64H197.821V171H196.547ZM199.992 171V160.64H201.266V171H199.992ZM24.352 186.828V191H23.078V183.328H24.352V184.574C24.786 183.72 25.612 183.188 26.83 183.188V184.504H26.494C25.276 184.504 24.352 185.05 24.352 186.828ZM31.5627 184.28C30.3167 184.28 29.2807 185.106 29.1407 186.604H33.9847C33.9987 185.106 32.8787 184.28 31.5627 184.28ZM35.1467 188.634C34.7547 190.034 33.5227 191.126 31.6187 191.126C29.4347 191.126 27.8247 189.586 27.8247 187.15C27.8247 184.728 29.3787 183.202 31.6187 183.202C33.8447 183.202 35.3007 184.77 35.3007 186.87C35.3007 187.15 35.2867 187.374 35.2587 187.64H29.1267C29.2247 189.194 30.3167 190.048 31.6187 190.048C32.7667 190.048 33.4947 189.46 33.7747 188.634H35.1467ZM36.5063 187.15C36.5063 184.742 38.0603 183.202 40.2443 183.202C42.1483 183.202 43.3943 184.182 43.7863 185.792H42.4143C42.1483 184.868 41.3783 184.28 40.2443 184.28C38.8443 184.28 37.8083 185.274 37.8083 187.15C37.8083 189.054 38.8443 190.048 40.2443 190.048C41.3783 190.048 42.1343 189.502 42.4143 188.536H43.7863C43.3943 190.062 42.1483 191.126 40.2443 191.126C38.0603 191.126 36.5063 189.586 36.5063 187.15ZM48.7482 184.28C47.5022 184.28 46.4662 185.106 46.3262 186.604H51.1702C51.1842 185.106 50.0642 184.28 48.7482 184.28ZM52.3322 188.634C51.9402 190.034 50.7082 191.126 48.8042 191.126C46.6202 191.126 45.0102 189.586 45.0102 187.15C45.0102 184.728 46.5642 183.202 48.8042 183.202C51.0302 183.202 52.4862 184.77 52.4862 186.87C52.4862 187.15 52.4722 187.374 52.4442 187.64H46.3122C46.4102 189.194 47.5022 190.048 48.8042 190.048C49.9522 190.048 50.6802 189.46 50.9602 188.634H52.3322ZM54.1678 191V183.328H55.4418V191H54.1678ZM54.8258 182.082C54.3358 182.082 53.9578 181.704 53.9578 181.214C53.9578 180.724 54.3358 180.346 54.8258 180.346C55.2878 180.346 55.6658 180.724 55.6658 181.214C55.6658 181.704 55.2878 182.082 54.8258 182.082ZM56.7032 183.328H58.0752L60.4692 189.824L62.8492 183.328H64.2072L61.1972 191H59.7132L56.7032 183.328ZM68.7228 184.28C67.4768 184.28 66.4408 185.106 66.3008 186.604H71.1448C71.1588 185.106 70.0388 184.28 68.7228 184.28ZM72.3068 188.634C71.9148 190.034 70.6828 191.126 68.7788 191.126C66.5948 191.126 64.9848 189.586 64.9848 187.15C64.9848 184.728 66.5388 183.202 68.7788 183.202C71.0048 183.202 72.4608 184.77 72.4608 186.87C72.4608 187.15 72.4468 187.374 72.4188 187.64H66.2868C66.3848 189.194 67.4768 190.048 68.7788 190.048C69.9268 190.048 70.6548 189.46 70.9348 188.634H72.3068ZM77.3989 187.136C77.3989 184.742 78.9809 183.202 81.0389 183.202C82.4669 183.202 83.4469 183.93 83.8949 184.728V183.328H85.1829V191H83.8949V189.572C83.4329 190.398 82.4389 191.126 81.0249 191.126C78.9809 191.126 77.3989 189.516 77.3989 187.136ZM83.8949 187.15C83.8949 185.372 82.6909 184.308 81.2909 184.308C79.8909 184.308 78.7009 185.33 78.7009 187.136C78.7009 188.942 79.8909 190.006 81.2909 190.006C82.6909 190.006 83.8949 188.956 83.8949 187.15ZM92.9498 191V186.66C92.9498 185.092 92.0958 184.294 90.8078 184.294C89.5058 184.294 88.6098 185.106 88.6098 186.758V191H87.3358V183.328H88.6098V184.42C89.1138 183.622 90.0378 183.188 91.0738 183.188C92.8518 183.188 94.2098 184.28 94.2098 186.478V191H92.9498ZM100.023 191V183.328H101.297V191H100.023ZM100.681 182.082C100.191 182.082 99.8133 181.704 99.8133 181.214C99.8133 180.724 100.191 180.346 100.681 180.346C101.143 180.346 101.521 180.724 101.521 181.214C101.521 181.704 101.143 182.082 100.681 182.082ZM109.083 191V186.66C109.083 185.092 108.229 184.294 106.941 184.294C105.639 184.294 104.743 185.106 104.743 186.758V191H103.469V183.328H104.743V184.42C105.247 183.622 106.171 183.188 107.207 183.188C108.985 183.188 110.343 184.28 110.343 186.478V191H109.083ZM111.514 183.328H112.886L115.28 189.824L117.66 183.328H119.018L116.008 191H114.524L111.514 183.328ZM120.271 191V183.328H121.545V191H120.271ZM120.929 182.082C120.439 182.082 120.061 181.704 120.061 181.214C120.061 180.724 120.439 180.346 120.929 180.346C121.391 180.346 121.769 180.724 121.769 181.214C121.769 181.704 121.391 182.082 120.929 182.082ZM123.997 188.9V184.378H123.003V183.328H123.997V181.396H125.271V183.328H127.273V184.378H125.271V188.9C125.271 189.656 125.551 189.922 126.335 189.922H127.273V191H126.125C124.767 191 123.997 190.44 123.997 188.9ZM132.078 184.28C130.832 184.28 129.796 185.106 129.656 186.604H134.5C134.514 185.106 133.394 184.28 132.078 184.28ZM135.662 188.634C135.27 190.034 134.038 191.126 132.134 191.126C129.95 191.126 128.34 189.586 128.34 187.15C128.34 184.728 129.894 183.202 132.134 183.202C134.36 183.202 135.816 184.77 135.816 186.87C135.816 187.15 135.802 187.374 135.774 187.64H129.642C129.74 189.194 130.832 190.048 132.134 190.048C133.282 190.048 134.01 189.46 134.29 188.634H135.662ZM141.51 188.9V184.378H140.516V183.328H141.51V181.396H142.784V183.328H144.786V184.378H142.784V188.9C142.784 189.656 143.064 189.922 143.848 189.922H144.786V191H143.638C142.28 191 141.51 190.44 141.51 188.9ZM153.61 187.15C153.61 189.586 151.86 191.126 149.676 191.126C147.506 191.126 145.854 189.586 145.854 187.15C145.854 184.728 147.562 183.202 149.732 183.202C151.916 183.202 153.61 184.728 153.61 187.15ZM147.156 187.15C147.156 189.096 148.346 190.006 149.676 190.006C151.006 190.006 152.308 189.096 152.308 187.15C152.308 185.218 151.034 184.308 149.718 184.308C148.374 184.308 147.156 185.218 147.156 187.15ZM160.291 186.828V191H159.017V183.328H160.291V184.574C160.725 183.72 161.551 183.188 162.769 183.188V184.504H162.433C161.215 184.504 160.291 185.05 160.291 186.828ZM167.502 184.28C166.256 184.28 165.22 185.106 165.08 186.604H169.924C169.938 185.106 168.818 184.28 167.502 184.28ZM171.086 188.634C170.694 190.034 169.462 191.126 167.558 191.126C165.374 191.126 163.764 189.586 163.764 187.15C163.764 184.728 165.318 183.202 167.558 183.202C169.784 183.202 171.24 184.77 171.24 186.87C171.24 187.15 171.226 187.374 171.198 187.64H165.066C165.164 189.194 166.256 190.048 167.558 190.048C168.706 190.048 169.434 189.46 169.714 188.634H171.086ZM172.012 183.328H173.384L175.778 189.824L178.158 183.328H179.516L176.506 191H175.022L172.012 183.328ZM180.769 191V183.328H182.043V191H180.769ZM181.427 182.082C180.937 182.082 180.559 181.704 180.559 181.214C180.559 180.724 180.937 180.346 181.427 180.346C181.889 180.346 182.267 180.724 182.267 181.214C182.267 181.704 181.889 182.082 181.427 182.082ZM187.477 184.28C186.231 184.28 185.195 185.106 185.055 186.604H189.899C189.913 185.106 188.793 184.28 187.477 184.28ZM191.061 188.634C190.669 190.034 189.437 191.126 187.533 191.126C185.349 191.126 183.739 189.586 183.739 187.15C183.739 184.728 185.293 183.202 187.533 183.202C189.759 183.202 191.215 184.77 191.215 186.87C191.215 187.15 191.201 187.374 191.173 187.64H185.041C185.139 189.194 186.231 190.048 187.533 190.048C188.681 190.048 189.409 189.46 189.689 188.634H191.061ZM194.394 191L191.986 183.328H193.288L195.052 189.768L196.956 183.328H198.258L200.12 189.782L201.856 183.328H203.116L200.722 191H199.406L197.558 184.91L195.71 191H194.394ZM208.113 191V183.328H209.387V191H208.113ZM208.771 182.082C208.281 182.082 207.903 181.704 207.903 181.214C207.903 180.724 208.281 180.346 208.771 180.346C209.233 180.346 209.611 180.724 209.611 181.214C209.611 181.704 209.233 182.082 208.771 182.082ZM211.838 188.9V184.378H210.844V183.328H211.838V181.396H213.112V183.328H215.114V184.378H213.112V188.9C213.112 189.656 213.392 189.922 214.176 189.922H215.114V191H213.966C212.608 191 211.838 190.44 211.838 188.9ZM217.904 190.216C217.904 190.706 217.526 191.084 217.064 191.084C216.574 191.084 216.196 190.706 216.196 190.216C216.196 189.726 216.574 189.348 217.064 189.348C217.526 189.348 217.904 189.726 217.904 190.216Z" fill="#4F668E"/>
</svg>
