<svg width="250" height="309" viewBox="0 0 250 309" fill="none" xmlns="http://www.w3.org/2000/svg">
<path d="M70.9393 308.061C71.5251 308.646 72.4749 308.646 73.0607 308.061L82.6066 298.515C83.1924 297.929 83.1924 296.979 82.6066 296.393C82.0208 295.808 81.0711 295.808 80.4853 296.393L72 304.879L63.5147 296.393C62.9289 295.808 61.9792 295.808 61.3934 296.393C60.8076 296.979 60.8076 297.929 61.3934 298.515L70.9393 308.061ZM70.5 266V307H73.5V266H70.5Z" fill="#23D9AE"/>
<path d="M54.5042 26H30C14.536 26 2 38.536 2 54V239C2 254.464 14.536 267 30 267H73" stroke="#23D9AE" stroke-width="3"/>
<circle cx="73" cy="25" r="25" fill="#34B7F2"/>
<path d="M33.24 99.4L31.44 96.98C30.9067 97.0867 30.3867 97.14 29.88 97.14C28.56 97.14 27.3467 96.8333 26.24 96.22C25.1467 95.6067 24.2733 94.7533 23.62 93.66C22.98 92.5533 22.66 91.3133 22.66 89.94C22.66 88.5667 22.98 87.3333 23.62 86.24C24.2733 85.1467 25.1467 84.2933 26.24 83.68C27.3467 83.0667 28.56 82.76 29.88 82.76C31.2 82.76 32.4067 83.0667 33.5 83.68C34.6067 84.2933 35.4733 85.1467 36.1 86.24C36.74 87.3333 37.06 88.5667 37.06 89.94C37.06 91.14 36.8133 92.24 36.32 93.24C35.84 94.2267 35.1667 95.0467 34.3 95.7L37.38 99.4H33.24ZM26.16 89.94C26.16 91.18 26.4933 92.1733 27.16 92.92C27.84 93.6533 28.7467 94.02 29.88 94.02C31 94.02 31.8933 93.6467 32.56 92.9C33.24 92.1533 33.58 91.1667 33.58 89.94C33.58 88.7 33.24 87.7133 32.56 86.98C31.8933 86.2333 31 85.86 29.88 85.86C28.7467 85.86 27.84 86.2267 27.16 86.96C26.4933 87.6933 26.16 88.6867 26.16 89.94ZM47.7417 94.52H42.5017L41.6617 97H38.0817L43.1617 82.96H47.1217L52.2017 97H48.5817L47.7417 94.52ZM46.8617 91.88L45.1217 86.74L43.4017 91.88H46.8617ZM68.7261 97L67.4261 95.74C66.1328 96.7267 64.5861 97.22 62.7861 97.22C61.7061 97.22 60.7661 97.0467 59.9661 96.7C59.1661 96.34 58.5461 95.84 58.1061 95.2C57.6794 94.5467 57.4661 93.7867 57.4661 92.92C57.4661 92.04 57.6994 91.2467 58.1661 90.54C58.6461 89.82 59.3594 89.2333 60.3061 88.78C59.9594 88.3533 59.7128 87.9467 59.5661 87.56C59.4194 87.16 59.3461 86.7267 59.3461 86.26C59.3461 85.5933 59.5194 84.9867 59.8661 84.44C60.2128 83.8933 60.7128 83.4667 61.3661 83.16C62.0328 82.84 62.8194 82.68 63.7261 82.68C64.6461 82.68 65.4261 82.8467 66.0661 83.18C66.7061 83.5133 67.1861 83.96 67.5061 84.52C67.8261 85.08 67.9728 85.6933 67.9461 86.36H64.7261C64.7394 86 64.6461 85.7267 64.4461 85.54C64.2594 85.34 64.0061 85.24 63.6861 85.24C63.3661 85.24 63.0994 85.3333 62.8861 85.52C62.6728 85.7067 62.5661 85.9467 62.5661 86.24C62.5661 86.52 62.6528 86.8133 62.8261 87.12C63.0128 87.4267 63.2994 87.78 63.6861 88.18L67.1061 91.52C67.1328 91.4533 67.1661 91.3733 67.2061 91.28C67.2594 91.1867 67.3128 91.08 67.3661 90.96L68.1061 89.7H71.5261L70.5661 91.44C70.2061 92.2267 69.7928 92.9733 69.3261 93.68L72.7061 97H68.7261ZM62.9461 94.46C63.8394 94.46 64.6328 94.2067 65.3261 93.7L62.2061 90.68C61.2461 91.1733 60.7661 91.84 60.7661 92.68C60.7661 93.1867 60.9594 93.6133 61.3461 93.96C61.7461 94.2933 62.2794 94.46 62.9461 94.46ZM88.2814 82.96V85.7H84.5614V97H81.1414V85.7H77.4214V82.96H88.2814ZM100.518 91.24C100.518 91.56 100.498 91.8933 100.458 92.24H92.7178C92.7711 92.9333 92.9911 93.4667 93.3778 93.84C93.7778 94.2 94.2645 94.38 94.8378 94.38C95.6911 94.38 96.2845 94.02 96.6178 93.3H100.258C100.071 94.0333 99.7311 94.6933 99.2378 95.28C98.7578 95.8667 98.1511 96.3267 97.4178 96.66C96.6845 96.9933 95.8645 97.16 94.9578 97.16C93.8645 97.16 92.8911 96.9267 92.0378 96.46C91.1845 95.9933 90.5178 95.3267 90.0378 94.46C89.5578 93.5933 89.3178 92.58 89.3178 91.42C89.3178 90.26 89.5511 89.2467 90.0178 88.38C90.4978 87.5133 91.1645 86.8467 92.0178 86.38C92.8711 85.9133 93.8511 85.68 94.9578 85.68C96.0378 85.68 96.9978 85.9067 97.8378 86.36C98.6778 86.8133 99.3311 87.46 99.7978 88.3C100.278 89.14 100.518 90.12 100.518 91.24ZM97.0178 90.34C97.0178 89.7533 96.8178 89.2867 96.4178 88.94C96.0178 88.5933 95.5178 88.42 94.9178 88.42C94.3445 88.42 93.8578 88.5867 93.4578 88.92C93.0711 89.2533 92.8311 89.7267 92.7378 90.34H97.0178ZM106.862 97.16C105.889 97.16 105.022 96.9933 104.262 96.66C103.502 96.3267 102.902 95.8733 102.462 95.3C102.022 94.7133 101.775 94.06 101.722 93.34H105.102C105.142 93.7267 105.322 94.04 105.642 94.28C105.962 94.52 106.355 94.64 106.822 94.64C107.249 94.64 107.575 94.56 107.802 94.4C108.042 94.2267 108.162 94.0067 108.162 93.74C108.162 93.42 107.995 93.1867 107.662 93.04C107.329 92.88 106.789 92.7067 106.042 92.52C105.242 92.3333 104.575 92.14 104.042 91.94C103.509 91.7267 103.049 91.4 102.662 90.96C102.275 90.5067 102.082 89.9 102.082 89.14C102.082 88.5 102.255 87.92 102.602 87.4C102.962 86.8667 103.482 86.4467 104.162 86.14C104.855 85.8333 105.675 85.68 106.622 85.68C108.022 85.68 109.122 86.0267 109.922 86.72C110.735 87.4133 111.202 88.3333 111.322 89.48H108.162C108.109 89.0933 107.935 88.7867 107.642 88.56C107.362 88.3333 106.989 88.22 106.522 88.22C106.122 88.22 105.815 88.3 105.602 88.46C105.389 88.6067 105.282 88.8133 105.282 89.08C105.282 89.4 105.449 89.64 105.782 89.8C106.129 89.96 106.662 90.12 107.382 90.28C108.209 90.4933 108.882 90.7067 109.402 90.92C109.922 91.12 110.375 91.4533 110.762 91.92C111.162 92.3733 111.369 92.9867 111.382 93.76C111.382 94.4133 111.195 95 110.822 95.52C110.462 96.0267 109.935 96.4267 109.242 96.72C108.562 97.0133 107.769 97.16 106.862 97.16ZM119.694 94.1V97H117.954C116.714 97 115.748 96.7 115.054 96.1C114.361 95.4867 114.014 94.4933 114.014 93.12V88.68H112.654V85.84H114.014V83.12H117.434V85.84H119.674V88.68H117.434V93.16C117.434 93.4933 117.514 93.7333 117.674 93.88C117.834 94.0267 118.101 94.1 118.474 94.1H119.694ZM123.319 84.68C122.719 84.68 122.226 84.5067 121.839 84.16C121.466 83.8 121.279 83.36 121.279 82.84C121.279 82.3067 121.466 81.8667 121.839 81.52C122.226 81.16 122.719 80.98 123.319 80.98C123.906 80.98 124.386 81.16 124.759 81.52C125.146 81.8667 125.339 82.3067 125.339 82.84C125.339 83.36 125.146 83.8 124.759 84.16C124.386 84.5067 123.906 84.68 123.319 84.68ZM125.019 85.84V97H121.599V85.84H125.019ZM134.298 85.72C135.604 85.72 136.644 86.1467 137.418 87C138.204 87.84 138.598 89 138.598 90.48V97H135.198V90.94C135.198 90.1933 135.004 89.6133 134.618 89.2C134.231 88.7867 133.711 88.58 133.058 88.58C132.404 88.58 131.884 88.7867 131.498 89.2C131.111 89.6133 130.918 90.1933 130.918 90.94V97H127.498V85.84H130.918V87.32C131.264 86.8267 131.731 86.44 132.318 86.16C132.904 85.8667 133.564 85.72 134.298 85.72ZM145.214 85.68C146.001 85.68 146.688 85.84 147.274 86.16C147.874 86.48 148.334 86.9 148.654 87.42V85.84H152.074V96.98C152.074 98.0067 151.868 98.9333 151.454 99.76C151.054 100.6 150.434 101.267 149.594 101.76C148.768 102.253 147.734 102.5 146.494 102.5C144.841 102.5 143.501 102.107 142.474 101.32C141.448 100.547 140.861 99.4933 140.714 98.16H144.094C144.201 98.5867 144.454 98.92 144.854 99.16C145.254 99.4133 145.748 99.54 146.334 99.54C147.041 99.54 147.601 99.3333 148.014 98.92C148.441 98.52 148.654 97.8733 148.654 96.98V95.4C148.321 95.92 147.861 96.3467 147.274 96.68C146.688 97 146.001 97.16 145.214 97.16C144.294 97.16 143.461 96.9267 142.714 96.46C141.968 95.98 141.374 95.3067 140.934 94.44C140.508 93.56 140.294 92.5467 140.294 91.4C140.294 90.2533 140.508 89.2467 140.934 88.38C141.374 87.5133 141.968 86.8467 142.714 86.38C143.461 85.9133 144.294 85.68 145.214 85.68ZM148.654 91.42C148.654 90.5667 148.414 89.8933 147.934 89.4C147.468 88.9067 146.894 88.66 146.214 88.66C145.534 88.66 144.954 88.9067 144.474 89.4C144.008 89.88 143.774 90.5467 143.774 91.4C143.774 92.2533 144.008 92.9333 144.474 93.44C144.954 93.9333 145.534 94.18 146.214 94.18C146.894 94.18 147.468 93.9333 147.934 93.44C148.414 92.9467 148.654 92.2733 148.654 91.42Z" fill="#336082"/>
<path d="M69.6562 16.1094H77.0977L75.9141 19.1328H69.6562L69.0586 20.7148C71.7539 20.8164 73.8281 21.4883 75.2812 22.7305C76.4766 23.7539 77.0742 25.0273 77.0742 26.5508C77.0742 27.5273 76.7969 28.4844 76.2422 29.4219C75.6875 30.3516 74.9062 31.0703 73.8984 31.5781C72.8906 32.0781 71.7852 32.3281 70.582 32.3281C69.2852 32.3281 68.2891 32.0859 67.5938 31.6016C67.1094 31.2578 66.8672 30.8672 66.8672 30.4297C66.8672 30.0938 66.9922 29.7969 67.2422 29.5391C67.5 29.2812 67.7969 29.1523 68.1328 29.1523C68.4375 29.1523 68.7461 29.2148 69.0586 29.3398C69.3711 29.4648 69.9062 29.793 70.6641 30.3242C71.1406 30.6523 71.5508 30.8789 71.8945 31.0039C72.1367 31.0977 72.4102 31.1445 72.7148 31.1445C73.3555 31.1445 73.8984 30.9102 74.3438 30.4414C74.7969 29.9727 75.0234 29.4102 75.0234 28.7539C75.0234 27.3789 74.3359 26.2617 72.9609 25.4023C71.5859 24.543 69.8516 24.1133 67.7578 24.1133C67.5469 24.1133 67.2305 24.1172 66.8086 24.125L69.6562 16.1094Z" fill="white"/>
<path d="M29.63 124L28.846 121.83H24.59L23.806 124H22.462L25.99 114.298H27.46L30.974 124H29.63ZM28.482 120.794L26.718 115.866L24.954 120.794H28.482ZM32.7916 121.9V117.378H31.7976V116.328H32.7916V114.396H34.0656V116.328H36.0676V117.378H34.0656V121.9C34.0656 122.656 34.3456 122.922 35.1296 122.922H36.0676V124H34.9196C33.5616 124 32.7916 123.44 32.7916 121.9ZM41.6236 121.9V117.378H40.6296V116.328H41.6236V114.396H42.8976V116.328H44.8996V117.378H42.8976V121.9C42.8976 122.656 43.1776 122.922 43.9616 122.922H44.8996V124H43.7516C42.3936 124 41.6236 123.44 41.6236 121.9ZM46.4432 124V113.64H47.7172V117.434C48.2212 116.622 49.1732 116.188 50.2512 116.188C51.9592 116.188 53.3172 117.28 53.3172 119.478V124H52.0572V119.66C52.0572 118.092 51.2032 117.294 49.9152 117.294C48.6132 117.294 47.7172 118.106 47.7172 119.758V124H46.4432ZM55.3983 124V116.328H56.6723V124H55.3983ZM56.0563 115.082C55.5663 115.082 55.1883 114.704 55.1883 114.214C55.1883 113.724 55.5663 113.346 56.0563 113.346C56.5183 113.346 56.8963 113.724 56.8963 114.214C56.8963 114.704 56.5183 115.082 56.0563 115.082ZM64.3596 121.914C64.3596 123.174 63.2536 124.126 61.5596 124.126C59.7676 124.126 58.5076 123.146 58.4236 121.746H59.7396C59.8096 122.488 60.4676 123.048 61.5456 123.048C62.5536 123.048 63.1136 122.544 63.1136 121.914C63.1136 120.206 58.5776 121.2 58.5776 118.344C58.5776 117.168 59.6836 116.202 61.3916 116.202C63.0856 116.202 64.2056 117.112 64.2896 118.61H63.0156C62.9596 117.84 62.3716 117.28 61.3496 117.28C60.4116 117.28 59.8516 117.728 59.8516 118.344C59.8516 120.164 64.3036 119.17 64.3596 121.914ZM71.1645 117.742C71.6265 116.93 72.6345 116.202 74.0345 116.202C76.0925 116.202 77.6745 117.742 77.6745 120.136C77.6745 122.516 76.0925 124.126 74.0345 124.126C72.6345 124.126 71.6405 123.37 71.1645 122.586V127.64H69.8905V116.328H71.1645V117.742ZM76.3725 120.136C76.3725 118.33 75.1825 117.308 73.7685 117.308C72.3825 117.308 71.1645 118.372 71.1645 120.15C71.1645 121.956 72.3825 123.006 73.7685 123.006C75.1825 123.006 76.3725 121.942 76.3725 120.136ZM86.6314 120.15C86.6314 122.586 84.8814 124.126 82.6974 124.126C80.5274 124.126 78.8754 122.586 78.8754 120.15C78.8754 117.728 80.5834 116.202 82.7534 116.202C84.9374 116.202 86.6314 117.728 86.6314 120.15ZM80.1774 120.15C80.1774 122.096 81.3674 123.006 82.6974 123.006C84.0274 123.006 85.3294 122.096 85.3294 120.15C85.3294 118.218 84.0554 117.308 82.7394 117.308C81.3954 117.308 80.1774 118.218 80.1774 120.15ZM88.3065 124V116.328H89.5805V124H88.3065ZM88.9645 115.082C88.4745 115.082 88.0965 114.704 88.0965 114.214C88.0965 113.724 88.4745 113.346 88.9645 113.346C89.4265 113.346 89.8045 113.724 89.8045 114.214C89.8045 114.704 89.4265 115.082 88.9645 115.082ZM97.3658 124V119.66C97.3658 118.092 96.5118 117.294 95.2238 117.294C93.9218 117.294 93.0258 118.106 93.0258 119.758V124H91.7518V116.328H93.0258V117.42C93.5298 116.622 94.4538 116.188 95.4898 116.188C97.2678 116.188 98.6258 117.28 98.6258 119.478V124H97.3658ZM100.987 121.9V117.378H99.9929V116.328H100.987V114.396H102.261V116.328H104.263V117.378H102.261V121.9C102.261 122.656 102.541 122.922 103.325 122.922H104.263V124H103.115C101.757 124 100.987 123.44 100.987 121.9ZM104.701 126.002L105.723 122.236H107.123L105.555 126.002H104.701ZM112.594 121.9V117.378H111.6V116.328H112.594V114.396H113.868V116.328H115.87V117.378H113.868V121.9C113.868 122.656 114.148 122.922 114.932 122.922H115.87V124H114.722C113.364 124 112.594 123.44 112.594 121.9ZM117.414 124V113.64H118.688V117.434C119.192 116.622 120.144 116.188 121.222 116.188C122.93 116.188 124.288 117.28 124.288 119.478V124H123.028V119.66C123.028 118.092 122.174 117.294 120.886 117.294C119.584 117.294 118.688 118.106 118.688 119.758V124H117.414ZM129.631 117.28C128.385 117.28 127.349 118.106 127.209 119.604H132.053C132.067 118.106 130.947 117.28 129.631 117.28ZM133.215 121.634C132.823 123.034 131.591 124.126 129.687 124.126C127.503 124.126 125.893 122.586 125.893 120.15C125.893 117.728 127.447 116.202 129.687 116.202C131.913 116.202 133.369 117.77 133.369 119.87C133.369 120.15 133.355 120.374 133.327 120.64H127.195C127.293 122.194 128.385 123.048 129.687 123.048C130.835 123.048 131.563 122.46 131.843 121.634H133.215ZM144.299 121.914C144.299 123.174 143.193 124.126 141.499 124.126C139.707 124.126 138.447 123.146 138.363 121.746H139.679C139.749 122.488 140.407 123.048 141.485 123.048C142.493 123.048 143.053 122.544 143.053 121.914C143.053 120.206 138.517 121.2 138.517 118.344C138.517 117.168 139.623 116.202 141.331 116.202C143.025 116.202 144.145 117.112 144.229 118.61H142.955C142.899 117.84 142.311 117.28 141.289 117.28C140.351 117.28 139.791 117.728 139.791 118.344C139.791 120.164 144.243 119.17 144.299 121.914ZM153.378 120.15C153.378 122.586 151.628 124.126 149.444 124.126C147.274 124.126 145.622 122.586 145.622 120.15C145.622 117.728 147.33 116.202 149.5 116.202C151.684 116.202 153.378 117.728 153.378 120.15ZM146.924 120.15C146.924 122.096 148.114 123.006 149.444 123.006C150.774 123.006 152.076 122.096 152.076 120.15C152.076 118.218 150.802 117.308 149.486 117.308C148.142 117.308 146.924 118.218 146.924 120.15ZM155.291 124V117.378H154.297V116.328H155.291V115.782C155.291 114.074 156.131 113.304 158.091 113.304V114.368C156.943 114.368 156.565 114.788 156.565 115.782V116.328H158.175V117.378H156.565V124H155.291ZM159.94 121.9V117.378H158.946V116.328H159.94V114.396H161.214V116.328H163.216V117.378H161.214V121.9C161.214 122.656 161.494 122.922 162.278 122.922H163.216V124H162.068C160.71 124 159.94 123.44 159.94 121.9ZM166.258 124L163.85 116.328H165.152L166.916 122.768L168.82 116.328H170.122L171.984 122.782L173.72 116.328H174.98L172.586 124H171.27L169.422 117.91L167.574 124H166.258ZM175.768 120.136C175.768 117.742 177.35 116.202 179.408 116.202C180.836 116.202 181.816 116.93 182.264 117.728V116.328H183.552V124H182.264V122.572C181.802 123.398 180.808 124.126 179.394 124.126C177.35 124.126 175.768 122.516 175.768 120.136ZM182.264 120.15C182.264 118.372 181.06 117.308 179.66 117.308C178.26 117.308 177.07 118.33 177.07 120.136C177.07 121.942 178.26 123.006 179.66 123.006C181.06 123.006 182.264 121.956 182.264 120.15ZM186.979 119.828V124H185.705V116.328H186.979V117.574C187.413 116.72 188.239 116.188 189.457 116.188V117.504H189.121C187.903 117.504 186.979 118.05 186.979 119.828ZM194.19 117.28C192.944 117.28 191.908 118.106 191.768 119.604H196.612C196.626 118.106 195.506 117.28 194.19 117.28ZM197.774 121.634C197.382 123.034 196.15 124.126 194.246 124.126C192.062 124.126 190.452 122.586 190.452 120.15C190.452 117.728 192.006 116.202 194.246 116.202C196.472 116.202 197.928 117.77 197.928 119.87C197.928 120.15 197.914 120.374 197.886 120.64H191.754C191.852 122.194 192.944 123.048 194.246 123.048C195.394 123.048 196.122 122.46 196.402 121.634H197.774ZM203.342 124V116.328H204.616V124H203.342ZM204 115.082C203.51 115.082 203.132 114.704 203.132 114.214C203.132 113.724 203.51 113.346 204 113.346C204.462 113.346 204.84 113.724 204.84 114.214C204.84 114.704 204.462 115.082 204 115.082ZM212.303 121.914C212.303 123.174 211.197 124.126 209.503 124.126C207.711 124.126 206.451 123.146 206.367 121.746H207.683C207.753 122.488 208.411 123.048 209.489 123.048C210.497 123.048 211.057 122.544 211.057 121.914C211.057 120.206 206.521 121.2 206.521 118.344C206.521 117.168 207.627 116.202 209.335 116.202C211.029 116.202 212.149 117.112 212.233 118.61H210.959C210.903 117.84 210.315 117.28 209.293 117.28C208.355 117.28 207.795 117.728 207.795 118.344C207.795 120.164 212.247 119.17 212.303 121.914ZM24.352 139.828V144H23.078V136.328H24.352V137.574C24.786 136.72 25.612 136.188 26.83 136.188V137.504H26.494C25.276 137.504 24.352 138.05 24.352 139.828ZM31.5627 137.28C30.3167 137.28 29.2807 138.106 29.1407 139.604H33.9847C33.9987 138.106 32.8787 137.28 31.5627 137.28ZM35.1467 141.634C34.7547 143.034 33.5227 144.126 31.6187 144.126C29.4347 144.126 27.8247 142.586 27.8247 140.15C27.8247 137.728 29.3787 136.202 31.6187 136.202C33.8447 136.202 35.3007 137.77 35.3007 139.87C35.3007 140.15 35.2867 140.374 35.2587 140.64H29.1267C29.2247 142.194 30.3167 143.048 31.6187 143.048C32.7667 143.048 33.4947 142.46 33.7747 141.634H35.1467ZM36.5063 140.136C36.5063 137.742 38.0883 136.202 40.1463 136.202C41.5743 136.202 42.5543 136.93 43.0023 137.728V136.328H44.2903V144H43.0023V142.572C42.5403 143.398 41.5463 144.126 40.1323 144.126C38.0883 144.126 36.5063 142.516 36.5063 140.136ZM43.0023 140.15C43.0023 138.372 41.7983 137.308 40.3983 137.308C38.9983 137.308 37.8083 138.33 37.8083 140.136C37.8083 141.942 38.9983 143.006 40.3983 143.006C41.7983 143.006 43.0023 141.956 43.0023 140.15ZM45.9672 140.136C45.9672 137.742 47.5492 136.202 49.6212 136.202C50.8252 136.202 51.9312 136.818 52.4632 137.7V133.64H53.7512V144H52.4632V142.558C52.0012 143.412 51.0072 144.126 49.6072 144.126C47.5492 144.126 45.9672 142.516 45.9672 140.136ZM52.4632 140.15C52.4632 138.372 51.2592 137.308 49.8592 137.308C48.4592 137.308 47.2692 138.33 47.2692 140.136C47.2692 141.942 48.4592 143.006 49.8592 143.006C51.2592 143.006 52.4632 141.956 52.4632 140.15ZM58.8162 142.544L61.1962 136.328H62.5122L57.8922 147.612H56.5762L58.0882 143.916L54.9942 136.328H56.4082L58.8162 142.544ZM67.7633 144V137.378H66.7693V136.328H67.7633V135.782C67.7633 134.074 68.6033 133.304 70.5633 133.304V134.368C69.4153 134.368 69.0373 134.788 69.0373 135.782V136.328H70.6473V137.378H69.0373V144H67.7633ZM79.4127 140.15C79.4127 142.586 77.6627 144.126 75.4787 144.126C73.3087 144.126 71.6567 142.586 71.6567 140.15C71.6567 137.728 73.3647 136.202 75.5347 136.202C77.7187 136.202 79.4127 137.728 79.4127 140.15ZM72.9587 140.15C72.9587 142.096 74.1487 143.006 75.4787 143.006C76.8087 143.006 78.1107 142.096 78.1107 140.15C78.1107 138.218 76.8367 137.308 75.5207 137.308C74.1767 137.308 72.9587 138.218 72.9587 140.15ZM82.3618 139.828V144H81.0878V136.328H82.3618V137.574C82.7958 136.72 83.6218 136.188 84.8398 136.188V137.504H84.5038C83.2858 137.504 82.3618 138.05 82.3618 139.828ZM90.3228 141.9V137.378H89.3288V136.328H90.3228V134.396H91.5968V136.328H93.5988V137.378H91.5968V141.9C91.5968 142.656 91.8768 142.922 92.6608 142.922H93.5988V144H92.4508C91.0928 144 90.3228 143.44 90.3228 141.9ZM98.4045 137.28C97.1585 137.28 96.1225 138.106 95.9825 139.604H100.826C100.84 138.106 99.7205 137.28 98.4045 137.28ZM101.988 141.634C101.596 143.034 100.364 144.126 98.4605 144.126C96.2765 144.126 94.6665 142.586 94.6665 140.15C94.6665 137.728 96.2205 136.202 98.4605 136.202C100.686 136.202 102.142 137.77 102.142 139.87C102.142 140.15 102.128 140.374 102.1 140.64H95.9685C96.0665 142.194 97.1585 143.048 98.4605 143.048C99.6085 143.048 100.336 142.46 100.616 141.634H101.988ZM109.34 141.914C109.34 143.174 108.234 144.126 106.54 144.126C104.748 144.126 103.488 143.146 103.404 141.746H104.72C104.79 142.488 105.448 143.048 106.526 143.048C107.534 143.048 108.094 142.544 108.094 141.914C108.094 140.206 103.558 141.2 103.558 138.344C103.558 137.168 104.664 136.202 106.372 136.202C108.066 136.202 109.186 137.112 109.27 138.61H107.996C107.94 137.84 107.352 137.28 106.33 137.28C105.392 137.28 104.832 137.728 104.832 138.344C104.832 140.164 109.284 139.17 109.34 141.914ZM111.419 141.9V137.378H110.425V136.328H111.419V134.396H112.693V136.328H114.695V137.378H112.693V141.9C112.693 142.656 112.973 142.922 113.757 142.922H114.695V144H113.547C112.189 144 111.419 143.44 111.419 141.9ZM116.238 144V136.328H117.512V144H116.238ZM116.896 135.082C116.406 135.082 116.028 134.704 116.028 134.214C116.028 133.724 116.406 133.346 116.896 133.346C117.358 133.346 117.736 133.724 117.736 134.214C117.736 134.704 117.358 135.082 116.896 135.082ZM125.297 144V139.66C125.297 138.092 124.443 137.294 123.155 137.294C121.853 137.294 120.957 138.106 120.957 139.758V144H119.683V136.328H120.957V137.42C121.461 136.622 122.385 136.188 123.421 136.188C125.199 136.188 126.557 137.28 126.557 139.478V144H125.297ZM128.163 140.136C128.163 137.742 129.745 136.202 131.803 136.202C133.203 136.202 134.211 136.902 134.659 137.728V136.328H135.947V144.168C135.947 146.282 134.533 147.78 132.279 147.78C130.263 147.78 128.821 146.758 128.569 145.12H129.829C130.109 146.044 131.019 146.674 132.279 146.674C133.637 146.674 134.659 145.806 134.659 144.168V142.558C134.197 143.384 133.203 144.126 131.803 144.126C129.745 144.126 128.163 142.516 128.163 140.136ZM134.659 140.15C134.659 138.372 133.455 137.308 132.055 137.308C130.655 137.308 129.465 138.33 129.465 140.136C129.465 141.942 130.655 143.006 132.055 143.006C133.455 143.006 134.659 141.956 134.659 140.15ZM139.345 143.216C139.345 143.706 138.967 144.084 138.505 144.084C138.015 144.084 137.637 143.706 137.637 143.216C137.637 142.726 138.015 142.348 138.505 142.348C138.967 142.348 139.345 142.726 139.345 143.216ZM144.169 135.278V134.242H150.777V135.278H148.117V144H146.843V135.278H144.169ZM152.346 144V133.64H153.62V137.434C154.124 136.622 155.076 136.188 156.154 136.188C157.862 136.188 159.22 137.28 159.22 139.478V144H157.96V139.66C157.96 138.092 157.106 137.294 155.818 137.294C154.516 137.294 153.62 138.106 153.62 139.758V144H152.346ZM164.563 137.28C163.317 137.28 162.281 138.106 162.141 139.604H166.985C166.999 138.106 165.879 137.28 164.563 137.28ZM168.147 141.634C167.755 143.034 166.523 144.126 164.619 144.126C162.435 144.126 160.825 142.586 160.825 140.15C160.825 137.728 162.379 136.202 164.619 136.202C166.845 136.202 168.301 137.77 168.301 139.87C168.301 140.15 168.287 140.374 168.259 140.64H162.127C162.225 142.194 163.317 143.048 164.619 143.048C165.767 143.048 166.495 142.46 166.775 141.634H168.147ZM171.256 139.828V144H169.982V136.328H171.256V137.574C171.69 136.72 172.516 136.188 173.734 136.188V137.504H173.398C172.18 137.504 171.256 138.05 171.256 139.828ZM178.467 137.28C177.221 137.28 176.185 138.106 176.045 139.604H180.889C180.903 138.106 179.783 137.28 178.467 137.28ZM182.051 141.634C181.659 143.034 180.427 144.126 178.523 144.126C176.339 144.126 174.729 142.586 174.729 140.15C174.729 137.728 176.283 136.202 178.523 136.202C180.749 136.202 182.205 137.77 182.205 139.87C182.205 140.15 182.191 140.374 182.163 140.64H176.031C176.129 142.194 177.221 143.048 178.523 143.048C179.671 143.048 180.399 142.46 180.679 141.634H182.051ZM187.143 140.136C187.143 137.742 188.725 136.202 190.783 136.202C192.211 136.202 193.191 136.93 193.639 137.728V136.328H194.927V144H193.639V142.572C193.177 143.398 192.183 144.126 190.769 144.126C188.725 144.126 187.143 142.516 187.143 140.136ZM193.639 140.15C193.639 138.372 192.435 137.308 191.035 137.308C189.635 137.308 188.445 138.33 188.445 140.136C188.445 141.942 189.635 143.006 191.035 143.006C192.435 143.006 193.639 141.956 193.639 140.15ZM198.354 139.828V144H197.08V136.328H198.354V137.574C198.788 136.72 199.614 136.188 200.832 136.188V137.504H200.496C199.278 137.504 198.354 138.05 198.354 139.828ZM205.565 137.28C204.319 137.28 203.283 138.106 203.143 139.604H207.987C208.001 138.106 206.881 137.28 205.565 137.28ZM209.149 141.634C208.757 143.034 207.525 144.126 205.621 144.126C203.437 144.126 201.827 142.586 201.827 140.15C201.827 137.728 203.381 136.202 205.621 136.202C207.847 136.202 209.303 137.77 209.303 139.87C209.303 140.15 209.289 140.374 209.261 140.64H203.129C203.227 142.194 204.319 143.048 205.621 143.048C206.769 143.048 207.497 142.46 207.777 141.634H209.149ZM22.602 160.136C22.602 157.742 24.184 156.202 26.242 156.202C27.67 156.202 28.65 156.93 29.098 157.728V156.328H30.386V164H29.098V162.572C28.636 163.398 27.642 164.126 26.228 164.126C24.184 164.126 22.602 162.516 22.602 160.136ZM29.098 160.15C29.098 158.372 27.894 157.308 26.494 157.308C25.094 157.308 23.904 158.33 23.904 160.136C23.904 161.942 25.094 163.006 26.494 163.006C27.894 163.006 29.098 161.956 29.098 160.15ZM32.5389 164V153.64H33.8129V164H32.5389ZM37.4823 164L35.0743 156.328H36.3763L38.1403 162.768L40.0443 156.328H41.3463L43.2083 162.782L44.9443 156.328H46.2043L43.8103 164H42.4943L40.6463 157.91L38.7983 164H37.4823ZM46.9926 160.136C46.9926 157.742 48.5746 156.202 50.6326 156.202C52.0606 156.202 53.0406 156.93 53.4886 157.728V156.328H54.7766V164H53.4886V162.572C53.0266 163.398 52.0326 164.126 50.6186 164.126C48.5746 164.126 46.9926 162.516 46.9926 160.136ZM53.4886 160.15C53.4886 158.372 52.2846 157.308 50.8846 157.308C49.4846 157.308 48.2946 158.33 48.2946 160.136C48.2946 161.942 49.4846 163.006 50.8846 163.006C52.2846 163.006 53.4886 161.956 53.4886 160.15ZM59.8416 162.544L62.2216 156.328H63.5376L58.9176 167.612H57.6016L59.1136 163.916L56.0196 156.328H57.4336L59.8416 162.544ZM70.3342 161.914C70.3342 163.174 69.2282 164.126 67.5342 164.126C65.7422 164.126 64.4822 163.146 64.3982 161.746H65.7142C65.7842 162.488 66.4422 163.048 67.5202 163.048C68.5282 163.048 69.0882 162.544 69.0882 161.914C69.0882 160.206 64.5522 161.2 64.5522 158.344C64.5522 157.168 65.6582 156.202 67.3662 156.202C69.0602 156.202 70.1802 157.112 70.2642 158.61H68.9902C68.9342 157.84 68.3462 157.28 67.3242 157.28C66.3862 157.28 65.8262 157.728 65.8262 158.344C65.8262 160.164 70.2782 159.17 70.3342 161.914ZM77.1391 157.756C77.6291 156.902 78.6511 156.202 80.0091 156.202C82.0811 156.202 83.6491 157.742 83.6491 160.136C83.6491 162.516 82.0671 164.126 80.0091 164.126C78.6091 164.126 77.6151 163.426 77.1391 162.586V164H75.8651V153.64H77.1391V157.756ZM82.3471 160.136C82.3471 158.33 81.1571 157.308 79.7431 157.308C78.3571 157.308 77.1391 158.372 77.1391 160.15C77.1391 161.956 78.3571 163.006 79.7431 163.006C81.1571 163.006 82.3471 161.942 82.3471 160.136ZM92.13 156.328V164H90.856V162.866C90.366 163.664 89.428 164.112 88.406 164.112C86.642 164.112 85.256 163.02 85.256 160.822V156.328H86.516V160.654C86.516 162.208 87.37 163.006 88.658 163.006C89.974 163.006 90.856 162.194 90.856 160.542V156.328H92.13ZM93.8051 160.136C93.8051 157.742 95.3871 156.202 97.4451 156.202C98.8451 156.202 99.8531 156.902 100.301 157.728V156.328H101.589V164.168C101.589 166.282 100.175 167.78 97.9211 167.78C95.9051 167.78 94.4631 166.758 94.2111 165.12H95.4711C95.7511 166.044 96.6611 166.674 97.9211 166.674C99.2791 166.674 100.301 165.806 100.301 164.168V162.558C99.8391 163.384 98.8451 164.126 97.4451 164.126C95.3871 164.126 93.8051 162.516 93.8051 160.136ZM100.301 160.15C100.301 158.372 99.0971 157.308 97.6971 157.308C96.2971 157.308 95.1071 158.33 95.1071 160.136C95.1071 161.942 96.2971 163.006 97.6971 163.006C99.0971 163.006 100.301 161.956 100.301 160.15ZM109.258 161.914C109.258 163.174 108.152 164.126 106.458 164.126C104.666 164.126 103.406 163.146 103.322 161.746H104.638C104.708 162.488 105.366 163.048 106.444 163.048C107.452 163.048 108.012 162.544 108.012 161.914C108.012 160.206 103.476 161.2 103.476 158.344C103.476 157.168 104.582 156.202 106.29 156.202C107.984 156.202 109.104 157.112 109.188 158.61H107.914C107.858 157.84 107.27 157.28 106.248 157.28C105.31 157.28 104.75 157.728 104.75 158.344C104.75 160.164 109.202 159.17 109.258 161.914ZM115.069 161.9V157.378H114.075V156.328H115.069V154.396H116.343V156.328H118.345V157.378H116.343V161.9C116.343 162.656 116.623 162.922 117.407 162.922H118.345V164H117.197C115.839 164 115.069 163.44 115.069 161.9ZM127.169 160.15C127.169 162.586 125.419 164.126 123.235 164.126C121.065 164.126 119.413 162.586 119.413 160.15C119.413 157.728 121.121 156.202 123.291 156.202C125.475 156.202 127.169 157.728 127.169 160.15ZM120.715 160.15C120.715 162.096 121.905 163.006 123.235 163.006C124.565 163.006 125.867 162.096 125.867 160.15C125.867 158.218 124.593 157.308 123.277 157.308C121.933 157.308 120.715 158.218 120.715 160.15ZM132.1 160.136C132.1 157.742 133.682 156.202 135.754 156.202C136.958 156.202 138.064 156.818 138.596 157.7V153.64H139.884V164H138.596V162.558C138.134 163.412 137.14 164.126 135.74 164.126C133.682 164.126 132.1 162.516 132.1 160.136ZM138.596 160.15C138.596 158.372 137.392 157.308 135.992 157.308C134.592 157.308 133.402 158.33 133.402 160.136C133.402 161.942 134.592 163.006 135.992 163.006C137.392 163.006 138.596 161.956 138.596 160.15ZM145.299 157.28C144.053 157.28 143.017 158.106 142.877 159.604H147.721C147.735 158.106 146.615 157.28 145.299 157.28ZM148.883 161.634C148.491 163.034 147.259 164.126 145.355 164.126C143.171 164.126 141.561 162.586 141.561 160.15C141.561 157.728 143.115 156.202 145.355 156.202C147.581 156.202 149.037 157.77 149.037 159.87C149.037 160.15 149.023 160.374 148.995 160.64H142.863C142.961 162.194 144.053 163.048 145.355 163.048C146.503 163.048 147.231 162.46 147.511 161.634H148.883ZM150.243 160.136C150.243 157.742 151.825 156.202 153.883 156.202C155.311 156.202 156.291 156.93 156.739 157.728V156.328H158.027V164H156.739V162.572C156.277 163.398 155.283 164.126 153.869 164.126C151.825 164.126 150.243 162.516 150.243 160.136ZM156.739 160.15C156.739 158.372 155.535 157.308 154.135 157.308C152.735 157.308 151.545 158.33 151.545 160.136C151.545 161.942 152.735 163.006 154.135 163.006C155.535 163.006 156.739 161.956 156.739 160.15ZM160.18 164V153.64H161.454V164H160.18ZM168.855 164L166.447 156.328H167.749L169.513 162.768L171.417 156.328H172.719L174.581 162.782L176.317 156.328H177.577L175.183 164H173.867L172.019 157.91L170.171 164H168.855ZM178.842 164V156.328H180.116V164H178.842ZM179.5 155.082C179.01 155.082 178.632 154.704 178.632 154.214C178.632 153.724 179.01 153.346 179.5 153.346C179.962 153.346 180.34 153.724 180.34 154.214C180.34 154.704 179.962 155.082 179.5 155.082ZM182.567 161.9V157.378H181.573V156.328H182.567V154.396H183.841V156.328H185.843V157.378H183.841V161.9C183.841 162.656 184.121 162.922 184.905 162.922H185.843V164H184.695C183.337 164 182.567 163.44 182.567 161.9ZM187.387 164V153.64H188.661V157.434C189.165 156.622 190.117 156.188 191.195 156.188C192.903 156.188 194.261 157.28 194.261 159.478V164H193.001V159.66C193.001 158.092 192.147 157.294 190.859 157.294C189.557 157.294 188.661 158.106 188.661 159.758V164H187.387ZM195.236 166.002L196.258 162.236H197.658L196.09 166.002H195.236ZM204.123 157.756C204.613 156.902 205.635 156.202 206.993 156.202C209.065 156.202 210.633 157.742 210.633 160.136C210.633 162.516 209.051 164.126 206.993 164.126C205.593 164.126 204.599 163.426 204.123 162.586V164H202.849V153.64H204.123V157.756ZM209.331 160.136C209.331 158.33 208.141 157.308 206.727 157.308C205.341 157.308 204.123 158.372 204.123 160.15C204.123 161.956 205.341 163.006 206.727 163.006C208.141 163.006 209.331 161.942 209.331 160.136ZM219.114 156.328V164H217.84V162.866C217.35 163.664 216.412 164.112 215.39 164.112C213.626 164.112 212.24 163.02 212.24 160.822V156.328H213.5V160.654C213.5 162.208 214.354 163.006 215.642 163.006C216.958 163.006 217.84 162.194 217.84 160.542V156.328H219.114ZM221.546 161.9V157.378H220.552V156.328H221.546V154.396H222.82V156.328H224.822V157.378H222.82V161.9C222.82 162.656 223.1 162.922 223.883 162.922H224.822V164H223.674C222.316 164 221.546 163.44 221.546 161.9ZM231.596 164L229.188 156.328H230.49L232.254 162.768L234.158 156.328H235.46L237.322 162.782L239.058 156.328H240.318L237.924 164H236.608L234.76 157.91L232.912 164H231.596ZM244.844 157.28C243.598 157.28 242.562 158.106 242.422 159.604H247.266C247.28 158.106 246.16 157.28 244.844 157.28ZM248.428 161.634C248.036 163.034 246.804 164.126 244.9 164.126C242.716 164.126 241.106 162.586 241.106 160.15C241.106 157.728 242.66 156.202 244.9 156.202C247.126 156.202 248.582 157.77 248.582 159.87C248.582 160.15 248.568 160.374 248.54 160.64H242.408C242.506 162.194 243.598 163.048 244.9 163.048C246.048 163.048 246.776 162.46 247.056 161.634H248.428ZM24.352 177.742C24.814 176.93 25.822 176.202 27.222 176.202C29.28 176.202 30.862 177.742 30.862 180.136C30.862 182.516 29.28 184.126 27.222 184.126C25.822 184.126 24.828 183.37 24.352 182.586V187.64H23.078V176.328H24.352V177.742ZM29.56 180.136C29.56 178.33 28.37 177.308 26.956 177.308C25.57 177.308 24.352 178.372 24.352 180.15C24.352 181.956 25.57 183.006 26.956 183.006C28.37 183.006 29.56 181.942 29.56 180.136ZM32.5389 184V173.64H33.8129V184H32.5389ZM35.5083 180.136C35.5083 177.742 37.0903 176.202 39.1483 176.202C40.5763 176.202 41.5563 176.93 42.0043 177.728V176.328H43.2923V184H42.0043V182.572C41.5423 183.398 40.5483 184.126 39.1343 184.126C37.0903 184.126 35.5083 182.516 35.5083 180.136ZM42.0043 180.15C42.0043 178.372 40.8003 177.308 39.4003 177.308C38.0003 177.308 36.8103 178.33 36.8103 180.136C36.8103 181.942 38.0003 183.006 39.4003 183.006C40.8003 183.006 42.0043 181.956 42.0043 180.15ZM51.0592 184V179.66C51.0592 178.092 50.2052 177.294 48.9172 177.294C47.6152 177.294 46.7192 178.106 46.7192 179.758V184H45.4452V176.328H46.7192V177.42C47.2232 176.622 48.1472 176.188 49.1832 176.188C50.9612 176.188 52.3192 177.28 52.3192 179.478V184H51.0592ZM58.3707 184V177.378H57.3767V176.328H58.3707V175.782C58.3707 174.074 59.2107 173.304 61.1707 173.304V174.368C60.0227 174.368 59.6447 174.788 59.6447 175.782V176.328H61.2547V177.378H59.6447V184H58.3707ZM70.0201 180.15C70.0201 182.586 68.2701 184.126 66.0861 184.126C63.9161 184.126 62.2641 182.586 62.2641 180.15C62.2641 177.728 63.9721 176.202 66.1421 176.202C68.3261 176.202 70.0201 177.728 70.0201 180.15ZM63.5661 180.15C63.5661 182.096 64.7561 183.006 66.0861 183.006C67.4161 183.006 68.7181 182.096 68.7181 180.15C68.7181 178.218 67.4441 177.308 66.1281 177.308C64.7841 177.308 63.5661 178.218 63.5661 180.15ZM72.9692 179.828V184H71.6952V176.328H72.9692V177.574C73.4032 176.72 74.2292 176.188 75.4472 176.188V177.504H75.1112C73.8932 177.504 72.9692 178.05 72.9692 179.828ZM80.9303 181.9V177.378H79.9363V176.328H80.9303V174.396H82.2043V176.328H84.2063V177.378H82.2043V181.9C82.2043 182.656 82.4843 182.922 83.2683 182.922H84.2063V184H83.0583C81.7003 184 80.9303 183.44 80.9303 181.9ZM85.7499 184V173.64H87.0239V177.434C87.5279 176.622 88.4799 176.188 89.5579 176.188C91.2659 176.188 92.6239 177.28 92.6239 179.478V184H91.3639V179.66C91.3639 178.092 90.5099 177.294 89.2219 177.294C87.9199 177.294 87.0239 178.106 87.0239 179.758V184H85.7499ZM94.229 180.136C94.229 177.742 95.811 176.202 97.869 176.202C99.297 176.202 100.277 176.93 100.725 177.728V176.328H102.013V184H100.725V182.572C100.263 183.398 99.269 184.126 97.855 184.126C95.811 184.126 94.229 182.516 94.229 180.136ZM100.725 180.15C100.725 178.372 99.521 177.308 98.121 177.308C96.721 177.308 95.531 178.33 95.531 180.136C95.531 181.942 96.721 183.006 98.121 183.006C99.521 183.006 100.725 181.956 100.725 180.15ZM104.446 181.9V177.378H103.452V176.328H104.446V174.396H105.72V176.328H107.722V177.378H105.72V181.9C105.72 182.656 106 182.922 106.784 182.922H107.722V184H106.574C105.216 184 104.446 183.44 104.446 181.9ZM109.7 181.242L109.546 174.242H110.918L110.764 181.242H109.7ZM111.128 183.216C111.128 183.706 110.75 184.084 110.288 184.084C109.798 184.084 109.42 183.706 109.42 183.216C109.42 182.726 109.798 182.348 110.288 182.348C110.75 182.348 111.128 182.726 111.128 183.216ZM119.142 184.014L116.412 174.242H117.77L119.898 182.516L122.25 174.242H123.678L125.918 182.488L128.06 174.242H129.432L126.604 184H125.176L122.908 176.146L120.556 184L119.142 184.014ZM134.088 177.28C132.842 177.28 131.806 178.106 131.666 179.604H136.51C136.524 178.106 135.404 177.28 134.088 177.28ZM137.672 181.634C137.28 183.034 136.048 184.126 134.144 184.126C131.96 184.126 130.35 182.586 130.35 180.15C130.35 177.728 131.904 176.202 134.144 176.202C136.37 176.202 137.826 177.77 137.826 179.87C137.826 180.15 137.812 180.374 137.784 180.64H131.652C131.75 182.194 132.842 183.048 134.144 183.048C135.292 183.048 136.02 182.46 136.3 181.634H137.672ZM144.738 184L142.33 176.328H143.632L145.396 182.768L147.3 176.328H148.602L150.464 182.782L152.2 176.328H153.46L151.066 184H149.75L147.902 177.91L146.054 184H144.738ZM154.724 184V176.328H155.998V184H154.724ZM155.382 175.082C154.892 175.082 154.514 174.704 154.514 174.214C154.514 173.724 154.892 173.346 155.382 173.346C155.844 173.346 156.222 173.724 156.222 174.214C156.222 174.704 155.844 175.082 155.382 175.082ZM158.17 184V173.64H159.444V184H158.17ZM161.615 184V173.64H162.889V184H161.615ZM170.291 184L167.883 176.328H169.185L170.949 182.768L172.853 176.328H174.155L176.017 182.782L177.753 176.328H179.013L176.619 184H175.303L173.455 177.91L171.607 184H170.291ZM187.557 180.15C187.557 182.586 185.807 184.126 183.623 184.126C181.453 184.126 179.801 182.586 179.801 180.15C179.801 177.728 181.509 176.202 183.679 176.202C185.863 176.202 187.557 177.728 187.557 180.15ZM181.103 180.15C181.103 182.096 182.293 183.006 183.623 183.006C184.953 183.006 186.255 182.096 186.255 180.15C186.255 178.218 184.981 177.308 183.665 177.308C182.321 177.308 181.103 178.218 181.103 180.15ZM190.506 179.828V184H189.232V176.328H190.506V177.574C190.94 176.72 191.766 176.188 192.984 176.188V177.504H192.648C191.43 177.504 190.506 178.05 190.506 179.828ZM194.455 184V173.64H195.729V179.73L198.683 176.328H200.461L196.849 180.15L200.475 184H198.739L195.729 180.612V184H194.455ZM23.358 201.9V197.378H22.364V196.328H23.358V194.396H24.632V196.328H26.634V197.378H24.632V201.9C24.632 202.656 24.912 202.922 25.696 202.922H26.634V204H25.486C24.128 204 23.358 203.44 23.358 201.9ZM35.4576 200.15C35.4576 202.586 33.7076 204.126 31.5236 204.126C29.3536 204.126 27.7016 202.586 27.7016 200.15C27.7016 197.728 29.4096 196.202 31.5796 196.202C33.7636 196.202 35.4576 197.728 35.4576 200.15ZM29.0036 200.15C29.0036 202.096 30.1936 203.006 31.5236 203.006C32.8536 203.006 34.1556 202.096 34.1556 200.15C34.1556 198.218 32.8816 197.308 31.5656 197.308C30.2216 197.308 29.0036 198.218 29.0036 200.15ZM36.6567 200.136C36.6567 197.742 38.2387 196.202 40.2967 196.202C41.6967 196.202 42.7047 196.902 43.1527 197.728V196.328H44.4407V204.168C44.4407 206.282 43.0267 207.78 40.7727 207.78C38.7567 207.78 37.3147 206.758 37.0627 205.12H38.3227C38.6027 206.044 39.5127 206.674 40.7727 206.674C42.1307 206.674 43.1527 205.806 43.1527 204.168V202.558C42.6907 203.384 41.6967 204.126 40.2967 204.126C38.2387 204.126 36.6567 202.516 36.6567 200.136ZM43.1527 200.15C43.1527 198.372 41.9487 197.308 40.5487 197.308C39.1487 197.308 37.9587 198.33 37.9587 200.136C37.9587 201.942 39.1487 203.006 40.5487 203.006C41.9487 203.006 43.1527 201.956 43.1527 200.15ZM49.8556 197.28C48.6096 197.28 47.5736 198.106 47.4336 199.604H52.2776C52.2916 198.106 51.1716 197.28 49.8556 197.28ZM53.4396 201.634C53.0476 203.034 51.8156 204.126 49.9116 204.126C47.7276 204.126 46.1176 202.586 46.1176 200.15C46.1176 197.728 47.6716 196.202 49.9116 196.202C52.1376 196.202 53.5936 197.77 53.5936 199.87C53.5936 200.15 53.5796 200.374 53.5516 200.64H47.4196C47.5176 202.194 48.6096 203.048 49.9116 203.048C51.0596 203.048 51.7876 202.46 52.0676 201.634H53.4396ZM55.5553 201.9V197.378H54.5613V196.328H55.5553V194.396H56.8293V196.328H58.8313V197.378H56.8293V201.9C56.8293 202.656 57.1093 202.922 57.8933 202.922H58.8313V204H57.6833C56.3253 204 55.5553 203.44 55.5553 201.9ZM60.3749 204V193.64H61.6489V197.434C62.1529 196.622 63.1049 196.188 64.1829 196.188C65.8909 196.188 67.2489 197.28 67.2489 199.478V204H65.9889V199.66C65.9889 198.092 65.1349 197.294 63.8469 197.294C62.5449 197.294 61.6489 198.106 61.6489 199.758V204H60.3749ZM72.592 197.28C71.346 197.28 70.31 198.106 70.17 199.604H75.014C75.028 198.106 73.908 197.28 72.592 197.28ZM76.176 201.634C75.784 203.034 74.552 204.126 72.648 204.126C70.464 204.126 68.854 202.586 68.854 200.15C68.854 197.728 70.408 196.202 72.648 196.202C74.874 196.202 76.33 197.77 76.33 199.87C76.33 200.15 76.316 200.374 76.288 200.64H70.156C70.254 202.194 71.346 203.048 72.648 203.048C73.796 203.048 74.524 202.46 74.804 201.634H76.176ZM79.2856 199.828V204H78.0116V196.328H79.2856V197.574C79.7196 196.72 80.5456 196.188 81.7636 196.188V197.504H81.4276C80.2096 197.504 79.2856 198.05 79.2856 199.828ZM88.4647 204L86.0567 196.328H87.3587L89.1227 202.768L91.0267 196.328H92.3287L94.1907 202.782L95.9267 196.328H97.1867L94.7927 204H93.4767L91.6287 197.91L89.7807 204H88.4647ZM98.451 204V196.328H99.725V204H98.451ZM99.109 195.082C98.619 195.082 98.241 194.704 98.241 194.214C98.241 193.724 98.619 193.346 99.109 193.346C99.571 193.346 99.949 193.724 99.949 194.214C99.949 194.704 99.571 195.082 99.109 195.082ZM102.176 201.9V197.378H101.182V196.328H102.176V194.396H103.45V196.328H105.452V197.378H103.45V201.9C103.45 202.656 103.73 202.922 104.514 202.922H105.452V204H104.304C102.946 204 102.176 203.44 102.176 201.9ZM106.996 204V193.64H108.27V197.434C108.774 196.622 109.726 196.188 110.804 196.188C112.512 196.188 113.87 197.28 113.87 199.478V204H112.61V199.66C112.61 198.092 111.756 197.294 110.468 197.294C109.166 197.294 108.27 198.106 108.27 199.758V204H106.996ZM122.595 202.544L124.975 196.328H126.291L121.671 207.612H120.355L121.867 203.916L118.773 196.328H120.187L122.595 202.544ZM134.852 200.15C134.852 202.586 133.102 204.126 130.918 204.126C128.748 204.126 127.096 202.586 127.096 200.15C127.096 197.728 128.804 196.202 130.974 196.202C133.158 196.202 134.852 197.728 134.852 200.15ZM128.398 200.15C128.398 202.096 129.588 203.006 130.918 203.006C132.248 203.006 133.55 202.096 133.55 200.15C133.55 198.218 132.276 197.308 130.96 197.308C129.616 197.308 128.398 198.218 128.398 200.15ZM143.331 196.328V204H142.057V202.866C141.567 203.664 140.629 204.112 139.607 204.112C137.843 204.112 136.457 203.02 136.457 200.822V196.328H137.717V200.654C137.717 202.208 138.571 203.006 139.859 203.006C141.175 203.006 142.057 202.194 142.057 200.542V196.328H143.331ZM149.495 201.9V197.378H148.501V196.328H149.495V194.396H150.769V196.328H152.771V197.378H150.769V201.9C150.769 202.656 151.049 202.922 151.833 202.922H152.771V204H151.623C150.265 204 149.495 203.44 149.495 201.9ZM161.594 200.15C161.594 202.586 159.844 204.126 157.66 204.126C155.49 204.126 153.838 202.586 153.838 200.15C153.838 197.728 155.546 196.202 157.716 196.202C159.9 196.202 161.594 197.728 161.594 200.15ZM155.14 200.15C155.14 202.096 156.33 203.006 157.66 203.006C158.99 203.006 160.292 202.096 160.292 200.15C160.292 198.218 159.018 197.308 157.702 197.308C156.358 197.308 155.14 198.218 155.14 200.15ZM170.264 197.28C169.018 197.28 167.982 198.106 167.842 199.604H172.686C172.7 198.106 171.58 197.28 170.264 197.28ZM173.848 201.634C173.456 203.034 172.224 204.126 170.32 204.126C168.136 204.126 166.526 202.586 166.526 200.15C166.526 197.728 168.08 196.202 170.32 196.202C172.546 196.202 174.002 197.77 174.002 199.87C174.002 200.15 173.988 200.374 173.96 200.64H167.828C167.926 202.194 169.018 203.048 170.32 203.048C171.468 203.048 172.196 202.46 172.476 201.634H173.848ZM181.297 204V199.66C181.297 198.092 180.443 197.294 179.155 197.294C177.853 197.294 176.957 198.106 176.957 199.758V204H175.683V196.328H176.957V197.42C177.461 196.622 178.385 196.188 179.421 196.188C181.199 196.188 182.557 197.28 182.557 199.478V204H181.297ZM190.155 201.914C190.155 203.174 189.049 204.126 187.355 204.126C185.563 204.126 184.303 203.146 184.219 201.746H185.535C185.605 202.488 186.263 203.048 187.341 203.048C188.349 203.048 188.909 202.544 188.909 201.914C188.909 200.206 184.373 201.2 184.373 198.344C184.373 197.168 185.479 196.202 187.187 196.202C188.881 196.202 190.001 197.112 190.085 198.61H188.811C188.755 197.84 188.167 197.28 187.145 197.28C186.207 197.28 185.647 197.728 185.647 198.344C185.647 200.164 190.099 199.17 190.155 201.914ZM198.757 196.328V204H197.483V202.866C196.993 203.664 196.055 204.112 195.033 204.112C193.269 204.112 191.883 203.02 191.883 200.822V196.328H193.143V200.654C193.143 202.208 193.997 203.006 195.285 203.006C196.601 203.006 197.483 202.194 197.483 200.542V196.328H198.757ZM202.182 199.828V204H200.908V196.328H202.182V197.574C202.616 196.72 203.442 196.188 204.66 196.188V197.504H204.324C203.106 197.504 202.182 198.05 202.182 199.828ZM209.393 197.28C208.147 197.28 207.111 198.106 206.971 199.604H211.815C211.829 198.106 210.709 197.28 209.393 197.28ZM212.977 201.634C212.585 203.034 211.353 204.126 209.449 204.126C207.265 204.126 205.655 202.586 205.655 200.15C205.655 197.728 207.209 196.202 209.449 196.202C211.675 196.202 213.131 197.77 213.131 199.87C213.131 200.15 213.117 200.374 213.089 200.64H206.957C207.055 202.194 208.147 203.048 209.449 203.048C210.597 203.048 211.325 202.46 211.605 201.634H212.977ZM218.825 201.9V197.378H217.831V196.328H218.825V194.396H220.099V196.328H222.101V197.378H220.099V201.9C220.099 202.656 220.379 202.922 221.163 202.922H222.101V204H220.953C219.595 204 218.825 203.44 218.825 201.9ZM223.644 204V193.64H224.918V197.434C225.422 196.622 226.374 196.188 227.452 196.188C229.16 196.188 230.518 197.28 230.518 199.478V204H229.258V199.66C229.258 198.092 228.404 197.294 227.116 197.294C225.814 197.294 224.918 198.106 224.918 199.758V204H223.644ZM235.861 197.28C234.615 197.28 233.579 198.106 233.439 199.604H238.283C238.297 198.106 237.177 197.28 235.861 197.28ZM239.445 201.634C239.053 203.034 237.821 204.126 235.917 204.126C233.733 204.126 232.123 202.586 232.123 200.15C232.123 197.728 233.677 196.202 235.917 196.202C238.143 196.202 239.599 197.77 239.599 199.87C239.599 200.15 239.585 200.374 239.557 200.64H233.425C233.523 202.194 234.615 203.048 235.917 203.048C237.065 203.048 237.793 202.46 238.073 201.634H239.445ZM24.352 217.742C24.814 216.93 25.822 216.202 27.222 216.202C29.28 216.202 30.862 217.742 30.862 220.136C30.862 222.516 29.28 224.126 27.222 224.126C25.822 224.126 24.828 223.37 24.352 222.586V227.64H23.078V216.328H24.352V217.742ZM29.56 220.136C29.56 218.33 28.37 217.308 26.956 217.308C25.57 217.308 24.352 218.372 24.352 220.15C24.352 221.956 25.57 223.006 26.956 223.006C28.37 223.006 29.56 221.942 29.56 220.136ZM33.8129 219.828V224H32.5389V216.328H33.8129V217.574C34.2469 216.72 35.0729 216.188 36.2909 216.188V217.504H35.9549C34.7369 217.504 33.8129 218.05 33.8129 219.828ZM45.0416 220.15C45.0416 222.586 43.2916 224.126 41.1076 224.126C38.9376 224.126 37.2856 222.586 37.2856 220.15C37.2856 217.728 38.9936 216.202 41.1636 216.202C43.3476 216.202 45.0416 217.728 45.0416 220.15ZM38.5876 220.15C38.5876 222.096 39.7776 223.006 41.1076 223.006C42.4376 223.006 43.7396 222.096 43.7396 220.15C43.7396 218.218 42.4656 217.308 41.1496 217.308C39.8056 217.308 38.5876 218.218 38.5876 220.15ZM46.2407 220.136C46.2407 217.742 47.8227 216.202 49.8947 216.202C51.0987 216.202 52.2047 216.818 52.7367 217.7V213.64H54.0247V224H52.7367V222.558C52.2747 223.412 51.2807 224.126 49.8807 224.126C47.8227 224.126 46.2407 222.516 46.2407 220.136ZM52.7367 220.15C52.7367 218.372 51.5327 217.308 50.1327 217.308C48.7327 217.308 47.5427 218.33 47.5427 220.136C47.5427 221.942 48.7327 223.006 50.1327 223.006C51.5327 223.006 52.7367 221.956 52.7367 220.15ZM62.9816 216.328V224H61.7076V222.866C61.2176 223.664 60.2796 224.112 59.2576 224.112C57.4936 224.112 56.1076 223.02 56.1076 220.822V216.328H57.3676V220.654C57.3676 222.208 58.2216 223.006 59.5096 223.006C60.8256 223.006 61.7076 222.194 61.7076 220.542V216.328H62.9816ZM64.6567 220.15C64.6567 217.742 66.2107 216.202 68.3947 216.202C70.2987 216.202 71.5447 217.182 71.9367 218.792H70.5647C70.2987 217.868 69.5287 217.28 68.3947 217.28C66.9947 217.28 65.9587 218.274 65.9587 220.15C65.9587 222.054 66.9947 223.048 68.3947 223.048C69.5287 223.048 70.2847 222.502 70.5647 221.536H71.9367C71.5447 223.062 70.2987 224.126 68.3947 224.126C66.2107 224.126 64.6567 222.586 64.6567 220.15ZM73.9166 221.9V217.378H72.9226V216.328H73.9166V214.396H75.1906V216.328H77.1926V217.378H75.1906V221.9C75.1906 222.656 75.4706 222.922 76.2546 222.922H77.1926V224H76.0446C74.6866 224 73.9166 223.44 73.9166 221.9ZM82.4686 224V216.328H83.7426V224H82.4686ZM83.1266 215.082C82.6366 215.082 82.2586 214.704 82.2586 214.214C82.2586 213.724 82.6366 213.346 83.1266 213.346C83.5886 213.346 83.9666 213.724 83.9666 214.214C83.9666 214.704 83.5886 215.082 83.1266 215.082ZM91.4299 221.914C91.4299 223.174 90.3239 224.126 88.6299 224.126C86.8379 224.126 85.5779 223.146 85.4939 221.746H86.8099C86.8799 222.488 87.5379 223.048 88.6159 223.048C89.6239 223.048 90.1839 222.544 90.1839 221.914C90.1839 220.206 85.6479 221.2 85.6479 218.344C85.6479 217.168 86.7539 216.202 88.4619 216.202C90.1559 216.202 91.2759 217.112 91.3599 218.61H90.0859C90.0299 217.84 89.4419 217.28 88.4199 217.28C87.4819 217.28 86.9219 217.728 86.9219 218.344C86.9219 220.164 91.3739 219.17 91.4299 221.914ZM97.2408 221.9V217.378H96.2468V216.328H97.2408V214.396H98.5148V216.328H100.517V217.378H98.5148V221.9C98.5148 222.656 98.7948 222.922 99.5788 222.922H100.517V224H99.3688C98.0108 224 97.2408 223.44 97.2408 221.9ZM109.34 220.15C109.34 222.586 107.59 224.126 105.406 224.126C103.236 224.126 101.584 222.586 101.584 220.15C101.584 217.728 103.292 216.202 105.462 216.202C107.646 216.202 109.34 217.728 109.34 220.15ZM102.886 220.15C102.886 222.096 104.076 223.006 105.406 223.006C106.736 223.006 108.038 222.096 108.038 220.15C108.038 218.218 106.764 217.308 105.448 217.308C104.104 217.308 102.886 218.218 102.886 220.15ZM111.296 221.9V217.378H110.302V216.328H111.296V214.396H112.57V216.328H114.572V217.378H112.57V221.9C112.57 222.656 112.85 222.922 113.633 222.922H114.572V224H113.424C112.066 224 111.296 223.44 111.296 221.9ZM115.639 220.136C115.639 217.742 117.221 216.202 119.279 216.202C120.707 216.202 121.687 216.93 122.135 217.728V216.328H123.423V224H122.135V222.572C121.673 223.398 120.679 224.126 119.265 224.126C117.221 224.126 115.639 222.516 115.639 220.136ZM122.135 220.15C122.135 218.372 120.931 217.308 119.531 217.308C118.131 217.308 116.941 218.33 116.941 220.136C116.941 221.942 118.131 223.006 119.531 223.006C120.931 223.006 122.135 221.956 122.135 220.15ZM125.576 224V213.64H126.85V224H125.576ZM129.021 224V213.64H130.295V224H129.021ZM135.379 222.544L137.759 216.328H139.075L134.455 227.612H133.139L134.651 223.916L131.557 216.328H132.971L135.379 222.544ZM150.892 216.328V224H149.618V222.866C149.128 223.664 148.19 224.112 147.168 224.112C145.404 224.112 144.018 223.02 144.018 220.822V216.328H145.278V220.654C145.278 222.208 146.132 223.006 147.42 223.006C148.736 223.006 149.618 222.194 149.618 220.542V216.328H150.892ZM154.317 217.742C154.779 216.93 155.787 216.202 157.187 216.202C159.245 216.202 160.827 217.742 160.827 220.136C160.827 222.516 159.245 224.126 157.187 224.126C155.787 224.126 154.793 223.37 154.317 222.586V227.64H153.043V216.328H154.317V217.742ZM159.525 220.136C159.525 218.33 158.335 217.308 156.921 217.308C155.535 217.308 154.317 218.372 154.317 220.15C154.317 221.956 155.535 223.006 156.921 223.006C158.335 223.006 159.525 221.942 159.525 220.136ZM166.516 221.9V217.378H165.522V216.328H166.516V214.396H167.79V216.328H169.792V217.378H167.79V221.9C167.79 222.656 168.07 222.922 168.854 222.922H169.792V224H168.644C167.286 224 166.516 223.44 166.516 221.9ZM178.616 220.15C178.616 222.586 176.866 224.126 174.682 224.126C172.512 224.126 170.86 222.586 170.86 220.15C170.86 217.728 172.568 216.202 174.738 216.202C176.922 216.202 178.616 217.728 178.616 220.15ZM172.162 220.15C172.162 222.096 173.352 223.006 174.682 223.006C176.012 223.006 177.314 222.096 177.314 220.15C177.314 218.218 176.04 217.308 174.724 217.308C173.38 217.308 172.162 218.218 172.162 220.15ZM185.297 217.742C185.759 216.93 186.767 216.202 188.167 216.202C190.225 216.202 191.807 217.742 191.807 220.136C191.807 222.516 190.225 224.126 188.167 224.126C186.767 224.126 185.773 223.37 185.297 222.586V227.64H184.023V216.328H185.297V217.742ZM190.505 220.136C190.505 218.33 189.315 217.308 187.901 217.308C186.515 217.308 185.297 218.372 185.297 220.15C185.297 221.956 186.515 223.006 187.901 223.006C189.315 223.006 190.505 221.942 190.505 220.136ZM193.008 220.136C193.008 217.742 194.59 216.202 196.648 216.202C198.076 216.202 199.056 216.93 199.504 217.728V216.328H200.792V224H199.504V222.572C199.042 223.398 198.048 224.126 196.634 224.126C194.59 224.126 193.008 222.516 193.008 220.136ZM199.504 220.15C199.504 218.372 198.3 217.308 196.9 217.308C195.5 217.308 194.31 218.33 194.31 220.136C194.31 221.942 195.5 223.006 196.9 223.006C198.3 223.006 199.504 221.956 199.504 220.15ZM204.219 219.828V224H202.945V216.328H204.219V217.574C204.653 216.72 205.479 216.188 206.697 216.188V217.504H206.361C205.143 217.504 204.219 218.05 204.219 219.828ZM211.424 220.136C211.424 217.742 213.006 216.202 215.064 216.202C216.492 216.202 217.472 216.93 217.92 217.728V216.328H219.208V224H217.92V222.572C217.458 223.398 216.464 224.126 215.05 224.126C213.006 224.126 211.424 222.516 211.424 220.136ZM217.92 220.15C217.92 218.372 216.716 217.308 215.316 217.308C213.916 217.308 212.726 218.33 212.726 220.136C212.726 221.942 213.916 223.006 215.316 223.006C216.716 223.006 217.92 221.956 217.92 220.15ZM226.975 224V219.66C226.975 218.092 226.121 217.294 224.833 217.294C223.531 217.294 222.635 218.106 222.635 219.758V224H221.361V216.328H222.635V217.42C223.139 216.622 224.063 216.188 225.099 216.188C226.877 216.188 228.235 217.28 228.235 219.478V224H226.975ZM229.84 220.136C229.84 217.742 231.422 216.202 233.494 216.202C234.698 216.202 235.804 216.818 236.336 217.7V213.64H237.624V224H236.336V222.558C235.874 223.412 234.88 224.126 233.48 224.126C231.422 224.126 229.84 222.516 229.84 220.136ZM236.336 220.15C236.336 218.372 235.132 217.308 233.732 217.308C232.332 217.308 231.142 218.33 231.142 220.136C231.142 221.942 232.332 223.006 233.732 223.006C235.132 223.006 236.336 221.956 236.336 220.15ZM24.352 239.828V244H23.078V236.328H24.352V237.574C24.786 236.72 25.612 236.188 26.83 236.188V237.504H26.494C25.276 237.504 24.352 238.05 24.352 239.828ZM31.5627 237.28C30.3167 237.28 29.2807 238.106 29.1407 239.604H33.9847C33.9987 238.106 32.8787 237.28 31.5627 237.28ZM35.1467 241.634C34.7547 243.034 33.5227 244.126 31.6187 244.126C29.4347 244.126 27.8247 242.586 27.8247 240.15C27.8247 237.728 29.3787 236.202 31.6187 236.202C33.8447 236.202 35.3007 237.77 35.3007 239.87C35.3007 240.15 35.2867 240.374 35.2587 240.64H29.1267C29.2247 242.194 30.3167 243.048 31.6187 243.048C32.7667 243.048 33.4947 242.46 33.7747 241.634H35.1467ZM36.5063 240.136C36.5063 237.742 38.0883 236.202 40.1463 236.202C41.5743 236.202 42.5543 236.93 43.0023 237.728V236.328H44.2903V244H43.0023V242.572C42.5403 243.398 41.5463 244.126 40.1323 244.126C38.0883 244.126 36.5063 242.516 36.5063 240.136ZM43.0023 240.15C43.0023 238.372 41.7983 237.308 40.3983 237.308C38.9983 237.308 37.8083 238.33 37.8083 240.136C37.8083 241.942 38.9983 243.006 40.3983 243.006C41.7983 243.006 43.0023 241.956 43.0023 240.15ZM45.9672 240.136C45.9672 237.742 47.5492 236.202 49.6212 236.202C50.8252 236.202 51.9312 236.818 52.4632 237.7V233.64H53.7512V244H52.4632V242.558C52.0012 243.412 51.0072 244.126 49.6072 244.126C47.5492 244.126 45.9672 242.516 45.9672 240.136ZM52.4632 240.15C52.4632 238.372 51.2592 237.308 49.8592 237.308C48.4592 237.308 47.2692 238.33 47.2692 240.136C47.2692 241.942 48.4592 243.006 49.8592 243.006C51.2592 243.006 52.4632 241.956 52.4632 240.15ZM58.8162 242.544L61.1962 236.328H62.5122L57.8922 247.612H56.5762L58.0882 243.916L54.9942 236.328H56.4082L58.8162 242.544ZM67.7633 244V237.378H66.7693V236.328H67.7633V235.782C67.7633 234.074 68.6033 233.304 70.5633 233.304V234.368C69.4153 234.368 69.0373 234.788 69.0373 235.782V236.328H70.6473V237.378H69.0373V244H67.7633ZM79.4127 240.15C79.4127 242.586 77.6627 244.126 75.4787 244.126C73.3087 244.126 71.6567 242.586 71.6567 240.15C71.6567 237.728 73.3647 236.202 75.5347 236.202C77.7187 236.202 79.4127 237.728 79.4127 240.15ZM72.9587 240.15C72.9587 242.096 74.1487 243.006 75.4787 243.006C76.8087 243.006 78.1107 242.096 78.1107 240.15C78.1107 238.218 76.8367 237.308 75.5207 237.308C74.1767 237.308 72.9587 238.218 72.9587 240.15ZM82.3618 239.828V244H81.0878V236.328H82.3618V237.574C82.7958 236.72 83.6218 236.188 84.8398 236.188V237.504H84.5038C83.2858 237.504 82.3618 238.05 82.3618 239.828ZM89.5668 240.136C89.5668 237.742 91.1488 236.202 93.2068 236.202C94.6348 236.202 95.6148 236.93 96.0628 237.728V236.328H97.3508V244H96.0628V242.572C95.6008 243.398 94.6068 244.126 93.1928 244.126C91.1488 244.126 89.5668 242.516 89.5668 240.136ZM96.0628 240.15C96.0628 238.372 94.8588 237.308 93.4588 237.308C92.0588 237.308 90.8688 238.33 90.8688 240.136C90.8688 241.942 92.0588 243.006 93.4588 243.006C94.8588 243.006 96.0628 241.956 96.0628 240.15ZM104.51 237.742C104.972 236.93 105.98 236.202 107.38 236.202C109.438 236.202 111.02 237.742 111.02 240.136C111.02 242.516 109.438 244.126 107.38 244.126C105.98 244.126 104.986 243.37 104.51 242.586V247.64H103.236V236.328H104.51V237.742ZM109.718 240.136C109.718 238.33 108.528 237.308 107.114 237.308C105.728 237.308 104.51 238.372 104.51 240.15C104.51 241.956 105.728 243.006 107.114 243.006C108.528 243.006 109.718 241.942 109.718 240.136ZM119.501 236.328V244H118.227V242.866C117.737 243.664 116.799 244.112 115.777 244.112C114.013 244.112 112.627 243.02 112.627 240.822V236.328H113.887V240.654C113.887 242.208 114.741 243.006 116.029 243.006C117.345 243.006 118.227 242.194 118.227 240.542V236.328H119.501ZM122.926 237.756C123.416 236.902 124.438 236.202 125.796 236.202C127.868 236.202 129.436 237.742 129.436 240.136C129.436 242.516 127.854 244.126 125.796 244.126C124.396 244.126 123.402 243.426 122.926 242.586V244H121.652V233.64H122.926V237.756ZM128.134 240.136C128.134 238.33 126.944 237.308 125.53 237.308C124.144 237.308 122.926 238.372 122.926 240.15C122.926 241.956 124.144 243.006 125.53 243.006C126.944 243.006 128.134 241.942 128.134 240.136ZM131.113 244V233.64H132.387V244H131.113ZM134.558 244V236.328H135.832V244H134.558ZM135.216 235.082C134.726 235.082 134.348 234.704 134.348 234.214C134.348 233.724 134.726 233.346 135.216 233.346C135.678 233.346 136.056 233.724 136.056 234.214C136.056 234.704 135.678 235.082 135.216 235.082ZM137.528 240.15C137.528 237.742 139.082 236.202 141.266 236.202C143.17 236.202 144.416 237.182 144.808 238.792H143.436C143.17 237.868 142.4 237.28 141.266 237.28C139.866 237.28 138.83 238.274 138.83 240.15C138.83 242.054 139.866 243.048 141.266 243.048C142.4 243.048 143.156 242.502 143.436 241.536H144.808C144.416 243.062 143.17 244.126 141.266 244.126C139.082 244.126 137.528 242.586 137.528 240.15ZM151.514 239.828V244H150.24V236.328H151.514V237.574C151.948 236.72 152.774 236.188 153.992 236.188V237.504H153.656C152.438 237.504 151.514 238.05 151.514 239.828ZM158.725 237.28C157.479 237.28 156.443 238.106 156.303 239.604H161.147C161.161 238.106 160.041 237.28 158.725 237.28ZM162.309 241.634C161.917 243.034 160.685 244.126 158.781 244.126C156.597 244.126 154.987 242.586 154.987 240.15C154.987 237.728 156.541 236.202 158.781 236.202C161.007 236.202 162.463 237.77 162.463 239.87C162.463 240.15 162.449 240.374 162.421 240.64H156.289C156.387 242.194 157.479 243.048 158.781 243.048C159.929 243.048 160.657 242.46 160.937 241.634H162.309ZM164.144 244V233.64H165.418V244H164.144ZM170.852 237.28C169.606 237.28 168.57 238.106 168.43 239.604H173.274C173.288 238.106 172.168 237.28 170.852 237.28ZM174.436 241.634C174.044 243.034 172.812 244.126 170.908 244.126C168.724 244.126 167.114 242.586 167.114 240.15C167.114 237.728 168.668 236.202 170.908 236.202C173.134 236.202 174.59 237.77 174.59 239.87C174.59 240.15 174.576 240.374 174.548 240.64H168.416C168.514 242.194 169.606 243.048 170.908 243.048C172.056 243.048 172.784 242.46 173.064 241.634H174.436ZM175.795 240.136C175.795 237.742 177.377 236.202 179.435 236.202C180.863 236.202 181.843 236.93 182.291 237.728V236.328H183.579V244H182.291V242.572C181.829 243.398 180.835 244.126 179.421 244.126C177.377 244.126 175.795 242.516 175.795 240.136ZM182.291 240.15C182.291 238.372 181.087 237.308 179.687 237.308C178.287 237.308 177.097 238.33 177.097 240.136C177.097 241.942 178.287 243.006 179.687 243.006C181.087 243.006 182.291 241.956 182.291 240.15ZM191.248 241.914C191.248 243.174 190.142 244.126 188.448 244.126C186.656 244.126 185.396 243.146 185.312 241.746H186.628C186.698 242.488 187.356 243.048 188.434 243.048C189.442 243.048 190.002 242.544 190.002 241.914C190.002 240.206 185.466 241.2 185.466 238.344C185.466 237.168 186.572 236.202 188.28 236.202C189.974 236.202 191.094 237.112 191.178 238.61H189.904C189.848 237.84 189.26 237.28 188.238 237.28C187.3 237.28 186.74 237.728 186.74 238.344C186.74 240.164 191.192 239.17 191.248 241.914ZM196.309 237.28C195.063 237.28 194.027 238.106 193.887 239.604H198.731C198.745 238.106 197.625 237.28 196.309 237.28ZM199.893 241.634C199.501 243.034 198.269 244.126 196.365 244.126C194.181 244.126 192.571 242.586 192.571 240.15C192.571 237.728 194.125 236.202 196.365 236.202C198.591 236.202 200.047 237.77 200.047 239.87C200.047 240.15 200.033 240.374 200.005 240.64H193.873C193.971 242.194 195.063 243.048 196.365 243.048C197.513 243.048 198.241 242.46 198.521 241.634H199.893ZM202.974 243.216C202.974 243.706 202.596 244.084 202.134 244.084C201.644 244.084 201.266 243.706 201.266 243.216C201.266 242.726 201.644 242.348 202.134 242.348C202.596 242.348 202.974 242.726 202.974 243.216Z" fill="#4F668E"/>
</svg>
