<svg width="250" height="270" viewBox="0 0 250 270" fill="none" xmlns="http://www.w3.org/2000/svg">
<path d="M70.9393 269.561C71.5251 270.146 72.4749 270.146 73.0607 269.561L82.6066 260.015C83.1924 259.429 83.1924 258.479 82.6066 257.893C82.0208 257.308 81.0711 257.308 80.4853 257.893L72 266.379L63.5147 257.893C62.9289 257.308 61.9792 257.308 61.3934 257.893C60.8076 258.479 60.8076 259.429 61.3934 260.015L70.9393 269.561ZM70.5 228.5V268.5H73.5V228.5H70.5Z" fill="#23D9AE"/>
<path d="M54.5042 32H30C14.536 32 2 44.536 2 60V202C2 217.464 14.536 230 30 230H73" stroke="#23D9AE" stroke-width="3"/>
<circle cx="73" cy="31" r="31" fill="#34B7F2"/>
<path d="M26.6 89.96V98.36C26.6 99.2 26.8067 99.8467 27.22 100.3C27.6333 100.753 28.24 100.98 29.04 100.98C29.84 100.98 30.4533 100.753 30.88 100.3C31.3067 99.8467 31.52 99.2 31.52 98.36V89.96H34.94V98.34C34.94 99.5933 34.6733 100.653 34.14 101.52C33.6067 102.387 32.8867 103.04 31.98 103.48C31.0867 103.92 30.0867 104.14 28.98 104.14C27.8733 104.14 26.88 103.927 26 103.5C25.1333 103.06 24.4467 102.407 23.94 101.54C23.4333 100.66 23.18 99.5933 23.18 98.34V89.96H26.6ZM45.9416 104L43.0816 99.7L40.5616 104H36.6816L41.1816 96.86L36.5816 89.96H40.5616L43.3816 94.2L45.8616 89.96H49.7416L45.2816 97.04L49.9216 104H45.9416ZM59.2584 85L53.8984 107.74H50.5984L55.9584 85H59.2584ZM64.0609 89.96V98.36C64.0609 99.2 64.2676 99.8467 64.6809 100.3C65.0943 100.753 65.7009 100.98 66.5009 100.98C67.3009 100.98 67.9143 100.753 68.3409 100.3C68.7676 99.8467 68.9809 99.2 68.9809 98.36V89.96H72.4009V98.34C72.4009 99.5933 72.1343 100.653 71.6009 101.52C71.0676 102.387 70.3476 103.04 69.4409 103.48C68.5476 103.92 67.5476 104.14 66.4409 104.14C65.3343 104.14 64.3409 103.927 63.4609 103.5C62.5943 103.06 61.9076 102.407 61.4009 101.54C60.8943 100.66 60.6409 99.5933 60.6409 98.34V89.96H64.0609ZM78.2225 89.96V104H74.8025V89.96H78.2225ZM90.1992 89.96C91.6792 89.96 92.9726 90.2533 94.0792 90.84C95.1859 91.4267 96.0392 92.2533 96.6392 93.32C97.2526 94.3733 97.5592 95.5933 97.5592 96.98C97.5592 98.3533 97.2526 99.5733 96.6392 100.64C96.0392 101.707 95.1792 102.533 94.0592 103.12C92.9526 103.707 91.6659 104 90.1992 104H84.9392V89.96H90.1992ZM89.9792 101.04C91.2726 101.04 92.2792 100.687 92.9992 99.98C93.7192 99.2733 94.0792 98.2733 94.0792 96.98C94.0792 95.6867 93.7192 94.68 92.9992 93.96C92.2792 93.24 91.2726 92.88 89.9792 92.88H88.3592V101.04H89.9792ZM109.99 98.24C109.99 98.56 109.97 98.8933 109.93 99.24H102.19C102.244 99.9333 102.464 100.467 102.85 100.84C103.25 101.2 103.737 101.38 104.31 101.38C105.164 101.38 105.757 101.02 106.09 100.3H109.73C109.544 101.033 109.204 101.693 108.71 102.28C108.23 102.867 107.624 103.327 106.89 103.66C106.157 103.993 105.337 104.16 104.43 104.16C103.337 104.16 102.364 103.927 101.51 103.46C100.657 102.993 99.9905 102.327 99.5105 101.46C99.0305 100.593 98.7905 99.58 98.7905 98.42C98.7905 97.26 99.0238 96.2467 99.4905 95.38C99.9705 94.5133 100.637 93.8467 101.49 93.38C102.344 92.9133 103.324 92.68 104.43 92.68C105.51 92.68 106.47 92.9067 107.31 93.36C108.15 93.8133 108.804 94.46 109.27 95.3C109.75 96.14 109.99 97.12 109.99 98.24ZM106.49 97.34C106.49 96.7533 106.29 96.2867 105.89 95.94C105.49 95.5933 104.99 95.42 104.39 95.42C103.817 95.42 103.33 95.5867 102.93 95.92C102.544 96.2533 102.304 96.7267 102.21 97.34H106.49ZM116.335 104.16C115.361 104.16 114.495 103.993 113.735 103.66C112.975 103.327 112.375 102.873 111.935 102.3C111.495 101.713 111.248 101.06 111.195 100.34H114.575C114.615 100.727 114.795 101.04 115.115 101.28C115.435 101.52 115.828 101.64 116.295 101.64C116.721 101.64 117.048 101.56 117.275 101.4C117.515 101.227 117.635 101.007 117.635 100.74C117.635 100.42 117.468 100.187 117.135 100.04C116.801 99.88 116.261 99.7067 115.515 99.52C114.715 99.3333 114.048 99.14 113.515 98.94C112.981 98.7267 112.521 98.4 112.135 97.96C111.748 97.5067 111.555 96.9 111.555 96.14C111.555 95.5 111.728 94.92 112.075 94.4C112.435 93.8667 112.955 93.4467 113.635 93.14C114.328 92.8333 115.148 92.68 116.095 92.68C117.495 92.68 118.595 93.0267 119.395 93.72C120.208 94.4133 120.675 95.3333 120.795 96.48H117.635C117.581 96.0933 117.408 95.7867 117.115 95.56C116.835 95.3333 116.461 95.22 115.995 95.22C115.595 95.22 115.288 95.3 115.075 95.46C114.861 95.6067 114.755 95.8133 114.755 96.08C114.755 96.4 114.921 96.64 115.255 96.8C115.601 96.96 116.135 97.12 116.855 97.28C117.681 97.4933 118.355 97.7067 118.875 97.92C119.395 98.12 119.848 98.4533 120.235 98.92C120.635 99.3733 120.841 99.9867 120.855 100.76C120.855 101.413 120.668 102 120.295 102.52C119.935 103.027 119.408 103.427 118.715 103.72C118.035 104.013 117.241 104.16 116.335 104.16ZM124.667 91.68C124.067 91.68 123.574 91.5067 123.187 91.16C122.814 90.8 122.627 90.36 122.627 89.84C122.627 89.3067 122.814 88.8667 123.187 88.52C123.574 88.16 124.067 87.98 124.667 87.98C125.254 87.98 125.734 88.16 126.107 88.52C126.494 88.8667 126.687 89.3067 126.687 89.84C126.687 90.36 126.494 90.8 126.107 91.16C125.734 91.5067 125.254 91.68 124.667 91.68ZM126.367 92.84V104H122.947V92.84H126.367ZM133.085 92.68C133.872 92.68 134.559 92.84 135.145 93.16C135.745 93.48 136.205 93.9 136.525 94.42V92.84H139.945V103.98C139.945 105.007 139.739 105.933 139.325 106.76C138.925 107.6 138.305 108.267 137.465 108.76C136.639 109.253 135.605 109.5 134.365 109.5C132.712 109.5 131.372 109.107 130.345 108.32C129.319 107.547 128.732 106.493 128.585 105.16H131.965C132.072 105.587 132.325 105.92 132.725 106.16C133.125 106.413 133.619 106.54 134.205 106.54C134.912 106.54 135.472 106.333 135.885 105.92C136.312 105.52 136.525 104.873 136.525 103.98V102.4C136.192 102.92 135.732 103.347 135.145 103.68C134.559 104 133.872 104.16 133.085 104.16C132.165 104.16 131.332 103.927 130.585 103.46C129.839 102.98 129.245 102.307 128.805 101.44C128.379 100.56 128.165 99.5467 128.165 98.4C128.165 97.2533 128.379 96.2467 128.805 95.38C129.245 94.5133 129.839 93.8467 130.585 93.38C131.332 92.9133 132.165 92.68 133.085 92.68ZM136.525 98.42C136.525 97.5667 136.285 96.8933 135.805 96.4C135.339 95.9067 134.765 95.66 134.085 95.66C133.405 95.66 132.825 95.9067 132.345 96.4C131.879 96.88 131.645 97.5467 131.645 98.4C131.645 99.2533 131.879 99.9333 132.345 100.44C132.825 100.933 133.405 101.18 134.085 101.18C134.765 101.18 135.339 100.933 135.805 100.44C136.285 99.9467 136.525 99.2733 136.525 98.42ZM149.22 92.72C150.526 92.72 151.566 93.1467 152.34 94C153.126 94.84 153.52 96 153.52 97.48V104H150.12V97.94C150.12 97.1933 149.926 96.6133 149.54 96.2C149.153 95.7867 148.633 95.58 147.98 95.58C147.326 95.58 146.806 95.7867 146.42 96.2C146.033 96.6133 145.84 97.1933 145.84 97.94V104H142.42V92.84H145.84V94.32C146.186 93.8267 146.653 93.44 147.24 93.16C147.826 92.8667 148.486 92.72 149.22 92.72Z" fill="#0051FB"/>
<path d="M78.0781 42H64.8301V41.6348C68.8919 36.7982 71.3545 33.5443 72.2178 31.873C73.0921 30.2018 73.5293 28.5693 73.5293 26.9756C73.5293 25.8135 73.1696 24.8506 72.4502 24.0869C71.7308 23.3122 70.8509 22.9248 69.8105 22.9248C68.1061 22.9248 66.7835 23.777 65.8428 25.4814L65.2285 25.2656C65.8262 23.1406 66.7337 21.569 67.9512 20.5508C69.1686 19.5326 70.5742 19.0234 72.168 19.0234C73.3079 19.0234 74.3483 19.2891 75.2891 19.8203C76.2298 20.3516 76.9658 21.082 77.4971 22.0117C78.0283 22.9303 78.2939 23.7936 78.2939 24.6016C78.2939 26.0736 77.8844 27.5677 77.0654 29.084C75.9476 31.1315 73.5072 33.987 69.7441 37.6504H74.6084C75.8037 37.6504 76.5785 37.6006 76.9326 37.501C77.2979 37.4014 77.5967 37.2354 77.8291 37.0029C78.0615 36.7594 78.3659 36.2559 78.7422 35.4922H79.3398L78.0781 42Z" fill="white"/>
<path d="M29.42 128.34C29.42 129.726 28.286 131.098 26.172 131.098C24.212 131.098 22.826 130.006 22.798 128.396H24.156C24.24 129.208 24.814 130.02 26.172 130.02C27.404 130.02 28.132 129.32 28.132 128.396C28.132 125.764 22.854 127.444 22.854 123.818C22.854 122.208 24.156 121.116 26.088 121.116C27.95 121.116 29.168 122.138 29.322 123.622H27.922C27.838 122.964 27.222 122.222 26.032 122.208C24.982 122.18 24.156 122.726 24.156 123.776C24.156 126.296 29.42 124.728 29.42 128.34ZM38.5748 127.15C38.5748 129.586 36.8248 131.126 34.6408 131.126C32.4708 131.126 30.8188 129.586 30.8188 127.15C30.8188 124.728 32.5268 123.202 34.6968 123.202C36.8808 123.202 38.5748 124.728 38.5748 127.15ZM32.1208 127.15C32.1208 129.096 33.3108 130.006 34.6408 130.006C35.9708 130.006 37.2728 129.096 37.2728 127.15C37.2728 125.218 35.9988 124.308 34.6828 124.308C33.3388 124.308 32.1208 125.218 32.1208 127.15ZM40.4879 131V124.378H39.4939V123.328H40.4879V122.782C40.4879 121.074 41.3279 120.304 43.2879 120.304V121.368C42.1399 121.368 41.7619 121.788 41.7619 122.782V123.328H43.3719V124.378H41.7619V131H40.4879ZM45.1373 128.9V124.378H44.1433V123.328H45.1373V121.396H46.4113V123.328H48.4133V124.378H46.4113V128.9C46.4113 129.656 46.6913 129.922 47.4753 129.922H48.4133V131H47.2653C45.9073 131 45.1373 130.44 45.1373 128.9ZM51.4549 131L49.0469 123.328H50.3489L52.1129 129.768L54.0169 123.328H55.3189L57.1809 129.782L58.9169 123.328H60.1769L57.7829 131H56.4669L54.6189 124.91L52.7709 131H51.4549ZM60.9653 127.136C60.9653 124.742 62.5473 123.202 64.6053 123.202C66.0333 123.202 67.0133 123.93 67.4613 124.728V123.328H68.7493V131H67.4613V129.572C66.9993 130.398 66.0053 131.126 64.5913 131.126C62.5473 131.126 60.9653 129.516 60.9653 127.136ZM67.4613 127.15C67.4613 125.372 66.2573 124.308 64.8573 124.308C63.4573 124.308 62.2673 125.33 62.2673 127.136C62.2673 128.942 63.4573 130.006 64.8573 130.006C66.2573 130.006 67.4613 128.956 67.4613 127.15ZM72.1762 126.828V131H70.9022V123.328H72.1762V124.574C72.6102 123.72 73.4362 123.188 74.6542 123.188V124.504H74.3182C73.1002 124.504 72.1762 125.05 72.1762 126.828ZM79.3869 124.28C78.1409 124.28 77.1049 125.106 76.9649 126.604H81.8089C81.8229 125.106 80.7029 124.28 79.3869 124.28ZM82.9709 128.634C82.5789 130.034 81.3469 131.126 79.4429 131.126C77.2589 131.126 75.6489 129.586 75.6489 127.15C75.6489 124.728 77.2029 123.202 79.4429 123.202C81.6689 123.202 83.1249 124.77 83.1249 126.87C83.1249 127.15 83.1109 127.374 83.0829 127.64H76.9509C77.0489 129.194 78.1409 130.048 79.4429 130.048C80.5909 130.048 81.3189 129.46 81.5989 128.634H82.9709ZM94.0549 128.914C94.0549 130.174 92.9489 131.126 91.2549 131.126C89.4629 131.126 88.2029 130.146 88.1189 128.746H89.4349C89.5049 129.488 90.1629 130.048 91.2409 130.048C92.2489 130.048 92.8089 129.544 92.8089 128.914C92.8089 127.206 88.2729 128.2 88.2729 125.344C88.2729 124.168 89.3789 123.202 91.0869 123.202C92.7809 123.202 93.9009 124.112 93.9849 125.61H92.7109C92.6549 124.84 92.0669 124.28 91.0449 124.28C90.1069 124.28 89.5469 124.728 89.5469 125.344C89.5469 127.164 93.9989 126.17 94.0549 128.914ZM96.1334 128.9V124.378H95.1394V123.328H96.1334V121.396H97.4074V123.328H99.4094V124.378H97.4074V128.9C97.4074 129.656 97.6874 129.922 98.4714 129.922H99.4094V131H98.2614C96.9034 131 96.1334 130.44 96.1334 128.9ZM100.477 127.136C100.477 124.742 102.059 123.202 104.117 123.202C105.545 123.202 106.525 123.93 106.973 124.728V123.328H108.261V131H106.973V129.572C106.511 130.398 105.517 131.126 104.103 131.126C102.059 131.126 100.477 129.516 100.477 127.136ZM106.973 127.15C106.973 125.372 105.769 124.308 104.369 124.308C102.969 124.308 101.779 125.33 101.779 127.136C101.779 128.942 102.969 130.006 104.369 130.006C105.769 130.006 106.973 128.956 106.973 127.15ZM111.688 126.828V131H110.414V123.328H111.688V124.574C112.122 123.72 112.948 123.188 114.166 123.188V124.504H113.83C112.612 124.504 111.688 125.05 111.688 126.828ZM115.917 128.9V124.378H114.923V123.328H115.917V121.396H117.191V123.328H119.193V124.378H117.191V128.9C117.191 129.656 117.471 129.922 118.255 129.922H119.193V131H118.045C116.687 131 115.917 130.44 115.917 128.9ZM126.252 128.914C126.252 130.174 125.146 131.126 123.452 131.126C121.66 131.126 120.4 130.146 120.316 128.746H121.632C121.702 129.488 122.36 130.048 123.438 130.048C124.446 130.048 125.006 129.544 125.006 128.914C125.006 127.206 120.47 128.2 120.47 125.344C120.47 124.168 121.576 123.202 123.284 123.202C124.978 123.202 126.098 124.112 126.182 125.61H124.908C124.852 124.84 124.264 124.28 123.242 124.28C122.304 124.28 121.744 124.728 121.744 125.344C121.744 127.164 126.196 126.17 126.252 128.914ZM132.063 128.9V124.378H131.069V123.328H132.063V121.396H133.337V123.328H135.339V124.378H133.337V128.9C133.337 129.656 133.617 129.922 134.401 129.922H135.339V131H134.191C132.833 131 132.063 130.44 132.063 128.9ZM144.163 127.15C144.163 129.586 142.413 131.126 140.229 131.126C138.059 131.126 136.407 129.586 136.407 127.15C136.407 124.728 138.115 123.202 140.285 123.202C142.469 123.202 144.163 124.728 144.163 127.15ZM137.709 127.15C137.709 129.096 138.899 130.006 140.229 130.006C141.559 130.006 142.861 129.096 142.861 127.15C142.861 125.218 141.587 124.308 140.271 124.308C138.927 124.308 137.709 125.218 137.709 127.15ZM149.094 127.15C149.094 124.742 150.648 123.202 152.832 123.202C154.736 123.202 155.982 124.182 156.374 125.792H155.002C154.736 124.868 153.966 124.28 152.832 124.28C151.432 124.28 150.396 125.274 150.396 127.15C150.396 129.054 151.432 130.048 152.832 130.048C153.966 130.048 154.722 129.502 155.002 128.536H156.374C155.982 130.062 154.736 131.126 152.832 131.126C150.648 131.126 149.094 129.586 149.094 127.15ZM165.354 127.15C165.354 129.586 163.604 131.126 161.42 131.126C159.25 131.126 157.598 129.586 157.598 127.15C157.598 124.728 159.306 123.202 161.476 123.202C163.66 123.202 165.354 124.728 165.354 127.15ZM158.9 127.15C158.9 129.096 160.09 130.006 161.42 130.006C162.75 130.006 164.052 129.096 164.052 127.15C164.052 125.218 162.778 124.308 161.462 124.308C160.118 124.308 158.9 125.218 158.9 127.15ZM178.103 131V126.66C178.103 125.092 177.263 124.294 176.003 124.294C174.715 124.294 173.833 125.12 173.833 126.772V131H172.573V126.66C172.573 125.092 171.733 124.294 170.473 124.294C169.185 124.294 168.303 125.12 168.303 126.772V131H167.029V123.328H168.303V124.434C168.807 123.622 169.717 123.188 170.725 123.188C171.985 123.188 173.035 123.748 173.539 124.896C173.987 123.79 175.079 123.188 176.255 123.188C178.005 123.188 179.363 124.28 179.363 126.478V131H178.103ZM184.715 124.28C183.469 124.28 182.433 125.106 182.293 126.604H187.137C187.151 125.106 186.031 124.28 184.715 124.28ZM188.299 128.634C187.907 130.034 186.675 131.126 184.771 131.126C182.587 131.126 180.977 129.586 180.977 127.15C180.977 124.728 182.531 123.202 184.771 123.202C186.997 123.202 188.453 124.77 188.453 126.87C188.453 127.15 188.439 127.374 188.411 127.64H182.279C182.377 129.194 183.469 130.048 184.771 130.048C185.919 130.048 186.647 129.46 186.927 128.634H188.299ZM194.147 128.9V124.378H193.153V123.328H194.147V121.396H195.421V123.328H197.423V124.378H195.421V128.9C195.421 129.656 195.701 129.922 196.485 129.922H197.423V131H196.275C194.917 131 194.147 130.44 194.147 128.9ZM206.247 127.15C206.247 129.586 204.497 131.126 202.313 131.126C200.143 131.126 198.491 129.586 198.491 127.15C198.491 124.728 200.199 123.202 202.369 123.202C204.553 123.202 206.247 124.728 206.247 127.15ZM199.793 127.15C199.793 129.096 200.983 130.006 202.313 130.006C203.643 130.006 204.945 129.096 204.945 127.15C204.945 125.218 203.671 124.308 202.355 124.308C201.011 124.308 199.793 125.218 199.793 127.15ZM211.654 131V120.64H212.928V131H211.654ZM215.099 131V123.328H216.373V131H215.099ZM215.757 122.082C215.267 122.082 214.889 121.704 214.889 121.214C214.889 120.724 215.267 120.346 215.757 120.346C216.219 120.346 216.597 120.724 216.597 121.214C216.597 121.704 216.219 122.082 215.757 122.082ZM218.783 131V124.378H217.789V123.328H218.783V122.782C218.783 121.074 219.623 120.304 221.583 120.304V121.368C220.435 121.368 220.057 121.788 220.057 122.782V123.328H221.667V124.378H220.057V131H218.783ZM226.414 124.28C225.168 124.28 224.132 125.106 223.992 126.604H228.836C228.85 125.106 227.73 124.28 226.414 124.28ZM229.998 128.634C229.606 130.034 228.374 131.126 226.47 131.126C224.286 131.126 222.676 129.586 222.676 127.15C222.676 124.728 224.23 123.202 226.47 123.202C228.696 123.202 230.152 124.77 230.152 126.87C230.152 127.15 230.138 127.374 230.11 127.64H223.978C224.076 129.194 225.168 130.048 226.47 130.048C227.618 130.048 228.346 129.46 228.626 128.634H229.998ZM28.594 148.914C28.594 150.174 27.488 151.126 25.794 151.126C24.002 151.126 22.742 150.146 22.658 148.746H23.974C24.044 149.488 24.702 150.048 25.78 150.048C26.788 150.048 27.348 149.544 27.348 148.914C27.348 147.206 22.812 148.2 22.812 145.344C22.812 144.168 23.918 143.202 25.626 143.202C27.32 143.202 28.44 144.112 28.524 145.61H27.25C27.194 144.84 26.606 144.28 25.584 144.28C24.646 144.28 24.086 144.728 24.086 145.344C24.086 147.164 28.538 146.17 28.594 148.914ZM30.6725 148.9V144.378H29.6785V143.328H30.6725V141.396H31.9465V143.328H33.9485V144.378H31.9465V148.9C31.9465 149.656 32.2265 149.922 33.0105 149.922H33.9485V151H32.8005C31.4425 151 30.6725 150.44 30.6725 148.9ZM35.0161 147.136C35.0161 144.742 36.5981 143.202 38.6561 143.202C40.0841 143.202 41.0641 143.93 41.5121 144.728V143.328H42.8001V151H41.5121V149.572C41.0501 150.398 40.0561 151.126 38.6421 151.126C36.5981 151.126 35.0161 149.516 35.0161 147.136ZM41.5121 147.15C41.5121 145.372 40.3081 144.308 38.9081 144.308C37.5081 144.308 36.3181 145.33 36.3181 147.136C36.3181 148.942 37.5081 150.006 38.9081 150.006C40.3081 150.006 41.5121 148.956 41.5121 147.15ZM44.477 147.136C44.477 144.742 46.059 143.202 48.117 143.202C49.517 143.202 50.525 143.902 50.973 144.728V143.328H52.261V151.168C52.261 153.282 50.847 154.78 48.593 154.78C46.577 154.78 45.135 153.758 44.883 152.12H46.143C46.423 153.044 47.333 153.674 48.593 153.674C49.951 153.674 50.973 152.806 50.973 151.168V149.558C50.511 150.384 49.517 151.126 48.117 151.126C46.059 151.126 44.477 149.516 44.477 147.136ZM50.973 147.15C50.973 145.372 49.769 144.308 48.369 144.308C46.969 144.308 45.779 145.33 45.779 147.136C45.779 148.942 46.969 150.006 48.369 150.006C49.769 150.006 50.973 148.956 50.973 147.15ZM57.6759 144.28C56.4299 144.28 55.3939 145.106 55.2539 146.604H60.0979C60.1119 145.106 58.9919 144.28 57.6759 144.28ZM61.2599 148.634C60.8679 150.034 59.6359 151.126 57.7319 151.126C55.5479 151.126 53.9379 149.586 53.9379 147.15C53.9379 144.728 55.4919 143.202 57.7319 143.202C59.9579 143.202 61.4139 144.77 61.4139 146.87C61.4139 147.15 61.3999 147.374 61.3719 147.64H55.2399C55.3379 149.194 56.4299 150.048 57.7319 150.048C58.8799 150.048 59.6079 149.46 59.8879 148.634H61.2599ZM63.5296 148.242L63.3756 141.242H64.7476L64.5936 148.242H63.5296ZM64.9576 150.216C64.9576 150.706 64.5796 151.084 64.1176 151.084C63.6276 151.084 63.2496 150.706 63.2496 150.216C63.2496 149.726 63.6276 149.348 64.1176 149.348C64.5796 149.348 64.9576 149.726 64.9576 150.216ZM70.9979 151V141.242H72.2719V151H70.9979ZM74.7232 148.9V144.378H73.7292V143.328H74.7232V141.396H75.9972V143.328H77.9992V144.378H75.9972V148.9C75.9972 149.656 76.2772 149.922 77.0612 149.922H77.9992V151H76.8512C75.4932 151 74.7232 150.44 74.7232 148.9ZM83.2753 151V143.328H84.5493V151H83.2753ZM83.9333 142.082C83.4433 142.082 83.0653 141.704 83.0653 141.214C83.0653 140.724 83.4433 140.346 83.9333 140.346C84.3953 140.346 84.7733 140.724 84.7733 141.214C84.7733 141.704 84.3953 142.082 83.9333 142.082ZM92.3346 151V146.66C92.3346 145.092 91.4806 144.294 90.1926 144.294C88.8906 144.294 87.9946 145.106 87.9946 146.758V151H86.7206V143.328H87.9946V144.42C88.4986 143.622 89.4226 143.188 90.4586 143.188C92.2366 143.188 93.5946 144.28 93.5946 146.478V151H92.3346ZM95.1997 147.15C95.1997 144.742 96.7537 143.202 98.9377 143.202C100.842 143.202 102.088 144.182 102.48 145.792H101.108C100.842 144.868 100.072 144.28 98.9377 144.28C97.5377 144.28 96.5017 145.274 96.5017 147.15C96.5017 149.054 97.5377 150.048 98.9377 150.048C100.072 150.048 100.828 149.502 101.108 148.536H102.48C102.088 150.062 100.842 151.126 98.9377 151.126C96.7537 151.126 95.1997 149.586 95.1997 147.15ZM104.18 151V140.64H105.454V151H104.18ZM114.429 143.328V151H113.155V149.866C112.665 150.664 111.727 151.112 110.705 151.112C108.941 151.112 107.555 150.02 107.555 147.822V143.328H108.815V147.654C108.815 149.208 109.669 150.006 110.957 150.006C112.273 150.006 113.155 149.194 113.155 147.542V143.328H114.429ZM116.104 147.136C116.104 144.742 117.686 143.202 119.758 143.202C120.962 143.202 122.068 143.818 122.6 144.7V140.64H123.888V151H122.6V149.558C122.138 150.412 121.144 151.126 119.744 151.126C117.686 151.126 116.104 149.516 116.104 147.136ZM122.6 147.15C122.6 145.372 121.396 144.308 119.996 144.308C118.596 144.308 117.406 145.33 117.406 147.136C117.406 148.942 118.596 150.006 119.996 150.006C121.396 150.006 122.6 148.956 122.6 147.15ZM129.303 144.28C128.057 144.28 127.021 145.106 126.881 146.604H131.725C131.739 145.106 130.619 144.28 129.303 144.28ZM132.887 148.634C132.495 150.034 131.263 151.126 129.359 151.126C127.175 151.126 125.565 149.586 125.565 147.15C125.565 144.728 127.119 143.202 129.359 143.202C131.585 143.202 133.041 144.77 133.041 146.87C133.041 147.15 133.027 147.374 132.999 147.64H126.867C126.965 149.194 128.057 150.048 129.359 150.048C130.507 150.048 131.235 149.46 131.515 148.634H132.887ZM140.239 148.914C140.239 150.174 139.133 151.126 137.439 151.126C135.647 151.126 134.387 150.146 134.303 148.746H135.619C135.689 149.488 136.347 150.048 137.425 150.048C138.433 150.048 138.993 149.544 138.993 148.914C138.993 147.206 134.457 148.2 134.457 145.344C134.457 144.168 135.563 143.202 137.271 143.202C138.965 143.202 140.085 144.112 140.169 145.61H138.895C138.839 144.84 138.251 144.28 137.229 144.28C136.291 144.28 135.731 144.728 135.731 145.344C135.731 147.164 140.183 146.17 140.239 148.914ZM146.007 151V144.378H145.013V143.328H146.007V142.782C146.007 141.074 146.847 140.304 148.807 140.304V141.368C147.659 141.368 147.281 141.788 147.281 142.782V143.328H148.891V144.378H147.281V151H146.007ZM150.377 151V140.64H151.651V151H150.377ZM161.102 147.15C161.102 149.586 159.352 151.126 157.168 151.126C154.998 151.126 153.346 149.586 153.346 147.15C153.346 144.728 155.054 143.202 157.224 143.202C159.408 143.202 161.102 144.728 161.102 147.15ZM154.648 147.15C154.648 149.096 155.838 150.006 157.168 150.006C158.498 150.006 159.8 149.096 159.8 147.15C159.8 145.218 158.526 144.308 157.21 144.308C155.866 144.308 154.648 145.218 154.648 147.15ZM164.275 151L161.867 143.328H163.169L164.933 149.768L166.837 143.328H168.139L170.001 149.782L171.737 143.328H172.997L170.603 151H169.287L167.439 144.91L165.591 151H164.275ZM173.786 147.15C173.786 144.742 175.34 143.202 177.524 143.202C179.428 143.202 180.674 144.182 181.066 145.792H179.694C179.428 144.868 178.658 144.28 177.524 144.28C176.124 144.28 175.088 145.274 175.088 147.15C175.088 149.054 176.124 150.048 177.524 150.048C178.658 150.048 179.414 149.502 179.694 148.536H181.066C180.674 150.062 179.428 151.126 177.524 151.126C175.34 151.126 173.786 149.586 173.786 147.15ZM182.766 151V140.64H184.04V144.434C184.544 143.622 185.496 143.188 186.574 143.188C188.282 143.188 189.64 144.28 189.64 146.478V151H188.38V146.66C188.38 145.092 187.526 144.294 186.238 144.294C184.936 144.294 184.04 145.106 184.04 146.758V151H182.766ZM191.245 147.136C191.245 144.742 192.827 143.202 194.885 143.202C196.313 143.202 197.293 143.93 197.741 144.728V143.328H199.029V151H197.741V149.572C197.279 150.398 196.285 151.126 194.871 151.126C192.827 151.126 191.245 149.516 191.245 147.136ZM197.741 147.15C197.741 145.372 196.537 144.308 195.137 144.308C193.737 144.308 192.547 145.33 192.547 147.136C192.547 148.942 193.737 150.006 195.137 150.006C196.537 150.006 197.741 148.956 197.741 147.15ZM202.456 146.828V151H201.182V143.328H202.456V144.574C202.89 143.72 203.716 143.188 204.934 143.188V144.504H204.598C203.38 144.504 202.456 145.05 202.456 146.828ZM206.684 148.9V144.378H205.69V143.328H206.684V141.396H207.958V143.328H209.96V144.378H207.958V148.9C207.958 149.656 208.238 149.922 209.022 149.922H209.96V151H208.812C207.454 151 206.684 150.44 206.684 148.9ZM217.02 148.914C217.02 150.174 215.914 151.126 214.22 151.126C212.428 151.126 211.168 150.146 211.084 148.746H212.4C212.47 149.488 213.128 150.048 214.206 150.048C215.214 150.048 215.774 149.544 215.774 148.914C215.774 147.206 211.238 148.2 211.238 145.344C211.238 144.168 212.344 143.202 214.052 143.202C215.746 143.202 216.866 144.112 216.95 145.61H215.676C215.62 144.84 215.032 144.28 214.01 144.28C213.072 144.28 212.512 144.728 212.512 145.344C212.512 147.164 216.964 146.17 217.02 148.914ZM217.712 153.002L218.734 149.236H220.134L218.566 153.002H217.712ZM22.602 167.136C22.602 164.742 24.184 163.202 26.242 163.202C27.67 163.202 28.65 163.93 29.098 164.728V163.328H30.386V171H29.098V169.572C28.636 170.398 27.642 171.126 26.228 171.126C24.184 171.126 22.602 169.516 22.602 167.136ZM29.098 167.15C29.098 165.372 27.894 164.308 26.494 164.308C25.094 164.308 23.904 165.33 23.904 167.136C23.904 168.942 25.094 170.006 26.494 170.006C27.894 170.006 29.098 168.956 29.098 167.15ZM38.1529 171V166.66C38.1529 165.092 37.2989 164.294 36.0109 164.294C34.7089 164.294 33.8129 165.106 33.8129 166.758V171H32.5389V163.328H33.8129V164.42C34.3169 163.622 35.2409 163.188 36.2769 163.188C38.0549 163.188 39.4129 164.28 39.4129 166.478V171H38.1529ZM41.018 167.136C41.018 164.742 42.6 163.202 44.672 163.202C45.876 163.202 46.982 163.818 47.514 164.7V160.64H48.802V171H47.514V169.558C47.052 170.412 46.058 171.126 44.658 171.126C42.6 171.126 41.018 169.516 41.018 167.136ZM47.514 167.15C47.514 165.372 46.31 164.308 44.91 164.308C43.51 164.308 42.32 165.33 42.32 167.136C42.32 168.942 43.51 170.006 44.91 170.006C46.31 170.006 47.514 168.956 47.514 167.15ZM61.4914 163.328V171H60.2174V169.866C59.7274 170.664 58.7894 171.112 57.7674 171.112C56.0034 171.112 54.6174 170.02 54.6174 167.822V163.328H55.8774V167.654C55.8774 169.208 56.7314 170.006 58.0194 170.006C59.3354 170.006 60.2174 169.194 60.2174 167.542V163.328H61.4914ZM69.1585 168.914C69.1585 170.174 68.0525 171.126 66.3585 171.126C64.5665 171.126 63.3065 170.146 63.2225 168.746H64.5385C64.6085 169.488 65.2665 170.048 66.3445 170.048C67.3525 170.048 67.9125 169.544 67.9125 168.914C67.9125 167.206 63.3765 168.2 63.3765 165.344C63.3765 164.168 64.4825 163.202 66.1905 163.202C67.8845 163.202 69.0045 164.112 69.0885 165.61H67.8145C67.7585 164.84 67.1705 164.28 66.1485 164.28C65.2105 164.28 64.6505 164.728 64.6505 165.344C64.6505 167.164 69.1025 166.17 69.1585 168.914ZM74.2189 164.28C72.9729 164.28 71.9369 165.106 71.7969 166.604H76.6409C76.6549 165.106 75.5349 164.28 74.2189 164.28ZM77.8029 168.634C77.4109 170.034 76.1789 171.126 74.2749 171.126C72.0909 171.126 70.4809 169.586 70.4809 167.15C70.4809 164.728 72.0349 163.202 74.2749 163.202C76.5009 163.202 77.9569 164.77 77.9569 166.87C77.9569 167.15 77.9429 167.374 77.9149 167.64H71.7829C71.8809 169.194 72.9729 170.048 74.2749 170.048C75.4229 170.048 76.1509 169.46 76.4309 168.634H77.8029ZM80.9125 166.828V171H79.6385V163.328H80.9125V164.574C81.3465 163.72 82.1725 163.188 83.3905 163.188V164.504H83.0545C81.8365 164.504 80.9125 165.05 80.9125 166.828ZM89.2796 162.082C88.8036 162.082 88.4256 161.704 88.4256 161.214C88.4256 160.724 88.8036 160.346 89.2796 160.346C89.7556 160.346 90.1336 160.724 90.1336 161.214C90.1336 161.704 89.7556 162.082 89.2796 162.082ZM88.6356 163.328H89.9096V172.666C89.9096 174.052 89.1816 174.64 87.8796 174.64H87.1376V173.562H87.6696C88.3696 173.562 88.6356 173.31 88.6356 172.638V163.328ZM99.3463 167.15C99.3463 169.586 97.5963 171.126 95.4123 171.126C93.2423 171.126 91.5903 169.586 91.5903 167.15C91.5903 164.728 93.2983 163.202 95.4683 163.202C97.6523 163.202 99.3463 164.728 99.3463 167.15ZM92.8923 167.15C92.8923 169.096 94.0823 170.006 95.4123 170.006C96.7423 170.006 98.0443 169.096 98.0443 167.15C98.0443 165.218 96.7703 164.308 95.4543 164.308C94.1103 164.308 92.8923 165.218 92.8923 167.15ZM107.825 163.328V171H106.551V169.866C106.061 170.664 105.123 171.112 104.101 171.112C102.337 171.112 100.951 170.02 100.951 167.822V163.328H102.211V167.654C102.211 169.208 103.065 170.006 104.353 170.006C105.669 170.006 106.551 169.194 106.551 167.542V163.328H107.825ZM111.25 166.828V171H109.976V163.328H111.25V164.574C111.684 163.72 112.51 163.188 113.728 163.188V164.504H113.392C112.174 164.504 111.25 165.05 111.25 166.828ZM120.813 171V166.66C120.813 165.092 119.959 164.294 118.671 164.294C117.369 164.294 116.473 165.106 116.473 166.758V171H115.199V163.328H116.473V164.42C116.977 163.622 117.901 163.188 118.937 163.188C120.715 163.188 122.073 164.28 122.073 166.478V171H120.813ZM127.416 164.28C126.17 164.28 125.134 165.106 124.994 166.604H129.838C129.852 165.106 128.732 164.28 127.416 164.28ZM131 168.634C130.608 170.034 129.376 171.126 127.472 171.126C125.288 171.126 123.678 169.586 123.678 167.15C123.678 164.728 125.232 163.202 127.472 163.202C129.698 163.202 131.154 164.77 131.154 166.87C131.154 167.15 131.14 167.374 131.112 167.64H124.98C125.078 169.194 126.17 170.048 127.472 170.048C128.62 170.048 129.348 169.46 129.628 168.634H131ZM135.748 169.544L138.128 163.328H139.444L134.824 174.612H133.508L135.02 170.916L131.926 163.328H133.34L135.748 169.544ZM155.531 171V166.66C155.531 165.092 154.691 164.294 153.431 164.294C152.143 164.294 151.261 165.12 151.261 166.772V171H150.001V166.66C150.001 165.092 149.161 164.294 147.901 164.294C146.613 164.294 145.731 165.12 145.731 166.772V171H144.457V163.328H145.731V164.434C146.235 163.622 147.145 163.188 148.153 163.188C149.413 163.188 150.463 163.748 150.967 164.896C151.415 163.79 152.507 163.188 153.683 163.188C155.433 163.188 156.791 164.28 156.791 166.478V171H155.531ZM158.405 167.136C158.405 164.742 159.987 163.202 162.045 163.202C163.473 163.202 164.453 163.93 164.901 164.728V163.328H166.189V171H164.901V169.572C164.439 170.398 163.445 171.126 162.031 171.126C159.987 171.126 158.405 169.516 158.405 167.136ZM164.901 167.15C164.901 165.372 163.697 164.308 162.297 164.308C160.897 164.308 159.707 165.33 159.707 167.136C159.707 168.942 160.897 170.006 162.297 170.006C163.697 170.006 164.901 168.956 164.901 167.15ZM169.616 164.742C170.078 163.93 171.086 163.202 172.486 163.202C174.544 163.202 176.126 164.742 176.126 167.136C176.126 169.516 174.544 171.126 172.486 171.126C171.086 171.126 170.092 170.37 169.616 169.586V174.64H168.342V163.328H169.616V164.742ZM174.824 167.136C174.824 165.33 173.634 164.308 172.22 164.308C170.834 164.308 169.616 165.372 169.616 167.15C169.616 168.956 170.834 170.006 172.22 170.006C173.634 170.006 174.824 168.942 174.824 167.136ZM179.077 164.742C179.539 163.93 180.547 163.202 181.947 163.202C184.005 163.202 185.587 164.742 185.587 167.136C185.587 169.516 184.005 171.126 181.947 171.126C180.547 171.126 179.553 170.37 179.077 169.586V174.64H177.803V163.328H179.077V164.742ZM184.285 167.136C184.285 165.33 183.095 164.308 181.681 164.308C180.295 164.308 179.077 165.372 179.077 167.15C179.077 168.956 180.295 170.006 181.681 170.006C183.095 170.006 184.285 168.942 184.285 167.136ZM187.264 171V163.328H188.538V171H187.264ZM187.922 162.082C187.432 162.082 187.054 161.704 187.054 161.214C187.054 160.724 187.432 160.346 187.922 160.346C188.384 160.346 188.762 160.724 188.762 161.214C188.762 161.704 188.384 162.082 187.922 162.082ZM196.323 171V166.66C196.323 165.092 195.469 164.294 194.181 164.294C192.879 164.294 191.983 165.106 191.983 166.758V171H190.709V163.328H191.983V164.42C192.487 163.622 193.411 163.188 194.447 163.188C196.225 163.188 197.583 164.28 197.583 166.478V171H196.323ZM199.188 167.136C199.188 164.742 200.77 163.202 202.828 163.202C204.228 163.202 205.236 163.902 205.684 164.728V163.328H206.972V171.168C206.972 173.282 205.558 174.78 203.304 174.78C201.288 174.78 199.846 173.758 199.594 172.12H200.854C201.134 173.044 202.044 173.674 203.304 173.674C204.662 173.674 205.684 172.806 205.684 171.168V169.558C205.222 170.384 204.228 171.126 202.828 171.126C200.77 171.126 199.188 169.516 199.188 167.136ZM205.684 167.15C205.684 165.372 204.48 164.308 203.08 164.308C201.68 164.308 200.49 165.33 200.49 167.136C200.49 168.942 201.68 170.006 203.08 170.006C204.48 170.006 205.684 168.956 205.684 167.15ZM208.019 173.002L209.041 169.236H210.441L208.873 173.002H208.019ZM215.157 167.136C215.157 164.742 216.739 163.202 218.797 163.202C220.225 163.202 221.205 163.93 221.653 164.728V163.328H222.941V171H221.653V169.572C221.191 170.398 220.197 171.126 218.783 171.126C216.739 171.126 215.157 169.516 215.157 167.136ZM221.653 167.15C221.653 165.372 220.449 164.308 219.049 164.308C217.649 164.308 216.459 165.33 216.459 167.136C216.459 168.942 217.649 170.006 219.049 170.006C220.449 170.006 221.653 168.956 221.653 167.15ZM230.708 171V166.66C230.708 165.092 229.854 164.294 228.566 164.294C227.264 164.294 226.368 165.106 226.368 166.758V171H225.094V163.328H226.368V164.42C226.872 163.622 227.796 163.188 228.832 163.188C230.61 163.188 231.968 164.28 231.968 166.478V171H230.708ZM233.573 167.136C233.573 164.742 235.155 163.202 237.227 163.202C238.431 163.202 239.537 163.818 240.069 164.7V160.64H241.357V171H240.069V169.558C239.607 170.412 238.613 171.126 237.213 171.126C235.155 171.126 233.573 169.516 233.573 167.136ZM240.069 167.15C240.069 165.372 238.865 164.308 237.465 164.308C236.065 164.308 234.875 165.33 234.875 167.136C234.875 168.942 236.065 170.006 237.465 170.006C238.865 170.006 240.069 168.956 240.069 167.15ZM23.358 188.9V184.378H22.364V183.328H23.358V181.396H24.632V183.328H26.634V184.378H24.632V188.9C24.632 189.656 24.912 189.922 25.696 189.922H26.634V191H25.486C24.128 191 23.358 190.44 23.358 188.9ZM28.1776 191V180.64H29.4516V184.434C29.9556 183.622 30.9076 183.188 31.9856 183.188C33.6936 183.188 35.0516 184.28 35.0516 186.478V191H33.7916V186.66C33.7916 185.092 32.9376 184.294 31.6496 184.294C30.3476 184.294 29.4516 185.106 29.4516 186.758V191H28.1776ZM40.3947 184.28C39.1487 184.28 38.1127 185.106 37.9727 186.604H42.8167C42.8307 185.106 41.7107 184.28 40.3947 184.28ZM43.9787 188.634C43.5867 190.034 42.3547 191.126 40.4507 191.126C38.2667 191.126 36.6567 189.586 36.6567 187.15C36.6567 184.728 38.2107 183.202 40.4507 183.202C42.6767 183.202 44.1327 184.77 44.1327 186.87C44.1327 187.15 44.1187 187.374 44.0907 187.64H37.9587C38.0567 189.194 39.1487 190.048 40.4507 190.048C41.5987 190.048 42.3267 189.46 42.6067 188.634H43.9787ZM51.4283 191V186.66C51.4283 185.092 50.5743 184.294 49.2863 184.294C47.9843 184.294 47.0883 185.106 47.0883 186.758V191H45.8143V183.328H47.0883V184.42C47.5923 183.622 48.5163 183.188 49.5523 183.188C51.3303 183.188 52.6883 184.28 52.6883 186.478V191H51.4283ZM59.9998 191L57.5918 183.328H58.8938L60.6578 189.768L62.5618 183.328H63.8638L65.7258 189.782L67.4618 183.328H68.7218L66.3278 191H65.0118L63.1638 184.91L61.3158 191H59.9998ZM73.2482 184.28C72.0022 184.28 70.9662 185.106 70.8262 186.604H75.6702C75.6842 185.106 74.5642 184.28 73.2482 184.28ZM76.8322 188.634C76.4402 190.034 75.2082 191.126 73.3042 191.126C71.1202 191.126 69.5102 189.586 69.5102 187.15C69.5102 184.728 71.0642 183.202 73.3042 183.202C75.5302 183.202 76.9862 184.77 76.9862 186.87C76.9862 187.15 76.9722 187.374 76.9442 187.64H70.8122C70.9102 189.194 72.0022 190.048 73.3042 190.048C74.4522 190.048 75.1802 189.46 75.4602 188.634H76.8322ZM83.6743 184.756C84.1643 183.902 85.1863 183.202 86.5443 183.202C88.6163 183.202 90.1843 184.742 90.1843 187.136C90.1843 189.516 88.6023 191.126 86.5443 191.126C85.1443 191.126 84.1503 190.426 83.6743 189.586V191H82.4003V180.64H83.6743V184.756ZM88.8823 187.136C88.8823 185.33 87.6923 184.308 86.2783 184.308C84.8923 184.308 83.6743 185.372 83.6743 187.15C83.6743 188.956 84.8923 190.006 86.2783 190.006C87.6923 190.006 88.8823 188.942 88.8823 187.136ZM95.1232 184.28C93.8772 184.28 92.8412 185.106 92.7012 186.604H97.5452C97.5592 185.106 96.4392 184.28 95.1232 184.28ZM98.7072 188.634C98.3152 190.034 97.0832 191.126 95.1792 191.126C92.9952 191.126 91.3852 189.586 91.3852 187.15C91.3852 184.728 92.9392 183.202 95.1792 183.202C97.4052 183.202 98.8612 184.77 98.8612 186.87C98.8612 187.15 98.8472 187.374 98.8192 187.64H92.6872C92.7852 189.194 93.8772 190.048 95.1792 190.048C96.3272 190.048 97.0552 189.46 97.3352 188.634H98.7072ZM100.067 187.136C100.067 184.742 101.649 183.202 103.707 183.202C105.107 183.202 106.115 183.902 106.563 184.728V183.328H107.851V191.168C107.851 193.282 106.437 194.78 104.183 194.78C102.167 194.78 100.725 193.758 100.473 192.12H101.733C102.013 193.044 102.923 193.674 104.183 193.674C105.541 193.674 106.563 192.806 106.563 191.168V189.558C106.101 190.384 105.107 191.126 103.707 191.126C101.649 191.126 100.067 189.516 100.067 187.136ZM106.563 187.15C106.563 185.372 105.359 184.308 103.959 184.308C102.559 184.308 101.369 185.33 101.369 187.136C101.369 188.942 102.559 190.006 103.959 190.006C105.359 190.006 106.563 188.956 106.563 187.15ZM110.004 191V183.328H111.278V191H110.004ZM110.662 182.082C110.172 182.082 109.794 181.704 109.794 181.214C109.794 180.724 110.172 180.346 110.662 180.346C111.124 180.346 111.502 180.724 111.502 181.214C111.502 181.704 111.124 182.082 110.662 182.082ZM119.063 191V186.66C119.063 185.092 118.209 184.294 116.921 184.294C115.619 184.294 114.723 185.106 114.723 186.758V191H113.449V183.328H114.723V184.42C115.227 183.622 116.151 183.188 117.187 183.188C118.965 183.188 120.323 184.28 120.323 186.478V191H119.063ZM125.661 187.136C125.661 184.742 127.243 183.202 129.315 183.202C130.519 183.202 131.625 183.818 132.157 184.7V180.64H133.445V191H132.157V189.558C131.695 190.412 130.701 191.126 129.301 191.126C127.243 191.126 125.661 189.516 125.661 187.136ZM132.157 187.15C132.157 185.372 130.953 184.308 129.553 184.308C128.153 184.308 126.963 185.33 126.963 187.136C126.963 188.942 128.153 190.006 129.553 190.006C130.953 190.006 132.157 188.956 132.157 187.15ZM138.86 184.28C137.614 184.28 136.578 185.106 136.438 186.604H141.282C141.296 185.106 140.176 184.28 138.86 184.28ZM142.444 188.634C142.052 190.034 140.82 191.126 138.916 191.126C136.732 191.126 135.122 189.586 135.122 187.15C135.122 184.728 136.676 183.202 138.916 183.202C141.142 183.202 142.598 184.77 142.598 186.87C142.598 187.15 142.584 187.374 142.556 187.64H136.424C136.522 189.194 137.614 190.048 138.916 190.048C140.064 190.048 140.792 189.46 141.072 188.634H142.444ZM149.795 188.914C149.795 190.174 148.689 191.126 146.995 191.126C145.203 191.126 143.943 190.146 143.859 188.746H145.175C145.245 189.488 145.903 190.048 146.981 190.048C147.989 190.048 148.549 189.544 148.549 188.914C148.549 187.206 144.013 188.2 144.013 185.344C144.013 184.168 145.119 183.202 146.827 183.202C148.521 183.202 149.641 184.112 149.725 185.61H148.451C148.395 184.84 147.807 184.28 146.785 184.28C145.847 184.28 145.287 184.728 145.287 185.344C145.287 187.164 149.739 186.17 149.795 188.914ZM151.594 191V183.328H152.868V191H151.594ZM152.252 182.082C151.762 182.082 151.384 181.704 151.384 181.214C151.384 180.724 151.762 180.346 152.252 180.346C152.714 180.346 153.092 180.724 153.092 181.214C153.092 181.704 152.714 182.082 152.252 182.082ZM154.563 187.136C154.563 184.742 156.145 183.202 158.203 183.202C159.603 183.202 160.611 183.902 161.059 184.728V183.328H162.347V191.168C162.347 193.282 160.933 194.78 158.679 194.78C156.663 194.78 155.221 193.758 154.969 192.12H156.229C156.509 193.044 157.419 193.674 158.679 193.674C160.037 193.674 161.059 192.806 161.059 191.168V189.558C160.597 190.384 159.603 191.126 158.203 191.126C156.145 191.126 154.563 189.516 154.563 187.136ZM161.059 187.15C161.059 185.372 159.855 184.308 158.455 184.308C157.055 184.308 155.865 185.33 155.865 187.136C155.865 188.942 157.055 190.006 158.455 190.006C159.855 190.006 161.059 188.956 161.059 187.15ZM170.114 191V186.66C170.114 185.092 169.26 184.294 167.972 184.294C166.67 184.294 165.774 185.106 165.774 186.758V191H164.5V183.328H165.774V184.42C166.278 183.622 167.202 183.188 168.238 183.188C170.016 183.188 171.374 184.28 171.374 186.478V191H170.114ZM173.455 191V183.328H174.729V191H173.455ZM174.113 182.082C173.623 182.082 173.245 181.704 173.245 181.214C173.245 180.724 173.623 180.346 174.113 180.346C174.575 180.346 174.953 180.724 174.953 181.214C174.953 181.704 174.575 182.082 174.113 182.082ZM182.514 191V186.66C182.514 185.092 181.66 184.294 180.372 184.294C179.07 184.294 178.174 185.106 178.174 186.758V191H176.9V183.328H178.174V184.42C178.678 183.622 179.602 183.188 180.638 183.188C182.416 183.188 183.774 184.28 183.774 186.478V191H182.514ZM185.379 187.136C185.379 184.742 186.961 183.202 189.019 183.202C190.419 183.202 191.427 183.902 191.875 184.728V183.328H193.163V191.168C193.163 193.282 191.749 194.78 189.495 194.78C187.479 194.78 186.037 193.758 185.785 192.12H187.045C187.325 193.044 188.235 193.674 189.495 193.674C190.853 193.674 191.875 192.806 191.875 191.168V189.558C191.413 190.384 190.419 191.126 189.019 191.126C186.961 191.126 185.379 189.516 185.379 187.136ZM191.875 187.15C191.875 185.372 190.671 184.308 189.271 184.308C187.871 184.308 186.681 185.33 186.681 187.136C186.681 188.942 187.871 190.006 189.271 190.006C190.671 190.006 191.875 188.956 191.875 187.15ZM199.329 188.9V184.378H198.335V183.328H199.329V181.396H200.603V183.328H202.605V184.378H200.603V188.9C200.603 189.656 200.883 189.922 201.667 189.922H202.605V191H201.457C200.099 191 199.329 190.44 199.329 188.9ZM204.148 191V180.64H205.422V184.434C205.926 183.622 206.878 183.188 207.956 183.188C209.664 183.188 211.022 184.28 211.022 186.478V191H209.762V186.66C209.762 185.092 208.908 184.294 207.62 184.294C206.318 184.294 205.422 185.106 205.422 186.758V191H204.148ZM216.365 184.28C215.119 184.28 214.083 185.106 213.943 186.604H218.787C218.801 185.106 217.681 184.28 216.365 184.28ZM219.949 188.634C219.557 190.034 218.325 191.126 216.421 191.126C214.237 191.126 212.627 189.586 212.627 187.15C212.627 184.728 214.181 183.202 216.421 183.202C218.647 183.202 220.103 184.77 220.103 186.87C220.103 187.15 220.089 187.374 220.061 187.64H213.929C214.027 189.194 215.119 190.048 216.421 190.048C217.569 190.048 218.297 189.46 218.577 188.634H219.949ZM28.594 208.914C28.594 210.174 27.488 211.126 25.794 211.126C24.002 211.126 22.742 210.146 22.658 208.746H23.974C24.044 209.488 24.702 210.048 25.78 210.048C26.788 210.048 27.348 209.544 27.348 208.914C27.348 207.206 22.812 208.2 22.812 205.344C22.812 204.168 23.918 203.202 25.626 203.202C27.32 203.202 28.44 204.112 28.524 205.61H27.25C27.194 204.84 26.606 204.28 25.584 204.28C24.646 204.28 24.086 204.728 24.086 205.344C24.086 207.164 28.538 206.17 28.594 208.914ZM37.6725 207.15C37.6725 209.586 35.9225 211.126 33.7385 211.126C31.5685 211.126 29.9165 209.586 29.9165 207.15C29.9165 204.728 31.6245 203.202 33.7945 203.202C35.9785 203.202 37.6725 204.728 37.6725 207.15ZM31.2185 207.15C31.2185 209.096 32.4085 210.006 33.7385 210.006C35.0685 210.006 36.3705 209.096 36.3705 207.15C36.3705 205.218 35.0965 204.308 33.7805 204.308C32.4365 204.308 31.2185 205.218 31.2185 207.15ZM39.5855 211V204.378H38.5915V203.328H39.5855V202.782C39.5855 201.074 40.4255 200.304 42.3855 200.304V201.368C41.2375 201.368 40.8595 201.788 40.8595 202.782V203.328H42.4695V204.378H40.8595V211H39.5855ZM44.235 208.9V204.378H43.241V203.328H44.235V201.396H45.509V203.328H47.511V204.378H45.509V208.9C45.509 209.656 45.789 209.922 46.573 209.922H47.511V211H46.363C45.005 211 44.235 210.44 44.235 208.9ZM50.5526 211L48.1446 203.328H49.4466L51.2106 209.768L53.1146 203.328H54.4166L56.2786 209.782L58.0146 203.328H59.2746L56.8806 211H55.5646L53.7166 204.91L51.8686 211H50.5526ZM60.0629 207.136C60.0629 204.742 61.6449 203.202 63.7029 203.202C65.1309 203.202 66.1109 203.93 66.5589 204.728V203.328H67.8469V211H66.5589V209.572C66.0969 210.398 65.1029 211.126 63.6889 211.126C61.6449 211.126 60.0629 209.516 60.0629 207.136ZM66.5589 207.15C66.5589 205.372 65.3549 204.308 63.9549 204.308C62.5549 204.308 61.3649 205.33 61.3649 207.136C61.3649 208.942 62.5549 210.006 63.9549 210.006C65.3549 210.006 66.5589 208.956 66.5589 207.15ZM71.2739 206.828V211H69.9999V203.328H71.2739V204.574C71.7079 203.72 72.5339 203.188 73.7519 203.188V204.504H73.4159C72.1979 204.504 71.2739 205.05 71.2739 206.828ZM78.4845 204.28C77.2385 204.28 76.2025 205.106 76.0625 206.604H80.9065C80.9205 205.106 79.8005 204.28 78.4845 204.28ZM82.0685 208.634C81.6765 210.034 80.4445 211.126 78.5405 211.126C76.3565 211.126 74.7465 209.586 74.7465 207.15C74.7465 204.728 76.3005 203.202 78.5405 203.202C80.7665 203.202 82.2225 204.77 82.2225 206.87C82.2225 207.15 82.2085 207.374 82.1805 207.64H76.0485C76.1465 209.194 77.2385 210.048 78.5405 210.048C79.6885 210.048 80.4165 209.46 80.6965 208.634H82.0685ZM87.6366 211V203.328H88.9106V211H87.6366ZM88.2946 202.082C87.8046 202.082 87.4266 201.704 87.4266 201.214C87.4266 200.724 87.8046 200.346 88.2946 200.346C88.7566 200.346 89.1346 200.724 89.1346 201.214C89.1346 201.704 88.7566 202.082 88.2946 202.082ZM96.6959 211V206.66C96.6959 205.092 95.8419 204.294 94.5539 204.294C93.2519 204.294 92.3559 205.106 92.3559 206.758V211H91.0819V203.328H92.3559V204.42C92.8599 203.622 93.7839 203.188 94.8199 203.188C96.5979 203.188 97.9559 204.28 97.9559 206.478V211H96.6959ZM100.317 208.9V204.378H99.323V203.328H100.317V201.396H101.591V203.328H103.593V204.378H101.591V208.9C101.591 209.656 101.871 209.922 102.655 209.922H103.593V211H102.445C101.087 211 100.317 210.44 100.317 208.9ZM108.399 204.28C107.153 204.28 106.117 205.106 105.977 206.604H110.821C110.835 205.106 109.715 204.28 108.399 204.28ZM111.983 208.634C111.591 210.034 110.359 211.126 108.455 211.126C106.271 211.126 104.661 209.586 104.661 207.15C104.661 204.728 106.215 203.202 108.455 203.202C110.681 203.202 112.137 204.77 112.137 206.87C112.137 207.15 112.123 207.374 112.095 207.64H105.963C106.061 209.194 107.153 210.048 108.455 210.048C109.603 210.048 110.331 209.46 110.611 208.634H111.983ZM115.092 206.828V211H113.818V203.328H115.092V204.574C115.526 203.72 116.352 203.188 117.57 203.188V204.504H117.234C116.016 204.504 115.092 205.05 115.092 206.828ZM119.279 211V204.378H118.285V203.328H119.279V202.782C119.279 201.074 120.119 200.304 122.079 200.304V201.368C120.931 201.368 120.553 201.788 120.553 202.782V203.328H122.163V204.378H120.553V211H119.279ZM123.172 207.136C123.172 204.742 124.754 203.202 126.812 203.202C128.24 203.202 129.22 203.93 129.668 204.728V203.328H130.956V211H129.668V209.572C129.206 210.398 128.212 211.126 126.798 211.126C124.754 211.126 123.172 209.516 123.172 207.136ZM129.668 207.15C129.668 205.372 128.464 204.308 127.064 204.308C125.664 204.308 124.474 205.33 124.474 207.136C124.474 208.942 125.664 210.006 127.064 210.006C128.464 210.006 129.668 208.956 129.668 207.15ZM132.633 207.15C132.633 204.742 134.187 203.202 136.371 203.202C138.275 203.202 139.521 204.182 139.913 205.792H138.541C138.275 204.868 137.505 204.28 136.371 204.28C134.971 204.28 133.935 205.274 133.935 207.15C133.935 209.054 134.971 210.048 136.371 210.048C137.505 210.048 138.261 209.502 138.541 208.536H139.913C139.521 210.062 138.275 211.126 136.371 211.126C134.187 211.126 132.633 209.586 132.633 207.15ZM144.875 204.28C143.629 204.28 142.593 205.106 142.453 206.604H147.297C147.311 205.106 146.191 204.28 144.875 204.28ZM148.459 208.634C148.067 210.034 146.835 211.126 144.931 211.126C142.747 211.126 141.137 209.586 141.137 207.15C141.137 204.728 142.691 203.202 144.931 203.202C147.157 203.202 148.613 204.77 148.613 206.87C148.613 207.15 148.599 207.374 148.571 207.64H142.439C142.537 209.194 143.629 210.048 144.931 210.048C146.079 210.048 146.807 209.46 147.087 208.634H148.459ZM151.541 210.216C151.541 210.706 151.163 211.084 150.701 211.084C150.211 211.084 149.833 210.706 149.833 210.216C149.833 209.726 150.211 209.348 150.701 209.348C151.163 209.348 151.541 209.726 151.541 210.216Z" fill="#4F668E"/>
</svg>
