<svg width="258" height="271" viewBox="0 0 258 271" fill="none" xmlns="http://www.w3.org/2000/svg">
<path d="M70.9393 270.061C71.5251 270.646 72.4749 270.646 73.0607 270.061L82.6066 260.515C83.1924 259.929 83.1924 258.979 82.6066 258.393C82.0208 257.808 81.0711 257.808 80.4853 258.393L72 266.879L63.5147 258.393C62.9289 257.808 61.9792 257.808 61.3934 258.393C60.8076 258.979 60.8076 259.929 61.3934 260.515L70.9393 270.061ZM70.5 228V269H73.5V228H70.5Z" fill="#23D9AE"/>
<path d="M54.5042 26H30C14.536 26 2 38.536 2 54V201C2 216.464 14.536 229 30 229H73" stroke="#23D9AE" stroke-width="3"/>
<circle cx="73" cy="25" r="25" fill="#34B7F2"/>
<path d="M31.74 89.8C32.5533 89.9733 33.2067 90.38 33.7 91.02C34.1933 91.6467 34.44 92.3667 34.44 93.18C34.44 94.3533 34.0267 95.2867 33.2 95.98C32.3867 96.66 31.2467 97 29.78 97H23.24V82.96H29.56C30.9867 82.96 32.1 83.2867 32.9 83.94C33.7133 84.5933 34.12 85.48 34.12 86.6C34.12 87.4267 33.9 88.1133 33.46 88.66C33.0333 89.2067 32.46 89.5867 31.74 89.8ZM26.66 88.64H28.9C29.46 88.64 29.8867 88.52 30.18 88.28C30.4867 88.0267 30.64 87.66 30.64 87.18C30.64 86.7 30.4867 86.3333 30.18 86.08C29.8867 85.8267 29.46 85.7 28.9 85.7H26.66V88.64ZM29.18 94.24C29.7533 94.24 30.1933 94.1133 30.5 93.86C30.82 93.5933 30.98 93.2133 30.98 92.72C30.98 92.2267 30.8133 91.84 30.48 91.56C30.16 91.28 29.7133 91.14 29.14 91.14H26.66V94.24H29.18ZM46.9436 91.24C46.9436 91.56 46.9236 91.8933 46.8836 92.24H39.1436C39.1969 92.9333 39.4169 93.4667 39.8036 93.84C40.2036 94.2 40.6903 94.38 41.2636 94.38C42.1169 94.38 42.7103 94.02 43.0436 93.3H46.6836C46.4969 94.0333 46.1569 94.6933 45.6636 95.28C45.1836 95.8667 44.5769 96.3267 43.8436 96.66C43.1103 96.9933 42.2903 97.16 41.3836 97.16C40.2903 97.16 39.3169 96.9267 38.4636 96.46C37.6103 95.9933 36.9436 95.3267 36.4636 94.46C35.9836 93.5933 35.7436 92.58 35.7436 91.42C35.7436 90.26 35.9769 89.2467 36.4436 88.38C36.9236 87.5133 37.5903 86.8467 38.4436 86.38C39.2969 85.9133 40.2769 85.68 41.3836 85.68C42.4636 85.68 43.4236 85.9067 44.2636 86.36C45.1036 86.8133 45.7569 87.46 46.2236 88.3C46.7036 89.14 46.9436 90.12 46.9436 91.24ZM43.4436 90.34C43.4436 89.7533 43.2436 89.2867 42.8436 88.94C42.4436 88.5933 41.9436 88.42 41.3436 88.42C40.7703 88.42 40.2836 88.5867 39.8836 88.92C39.4969 89.2533 39.2569 89.7267 39.1636 90.34H43.4436ZM54.9678 94.1V97H53.2278C51.9878 97 51.0211 96.7 50.3278 96.1C49.6345 95.4867 49.2878 94.4933 49.2878 93.12V88.68H47.9278V85.84H49.2878V83.12H52.7078V85.84H54.9478V88.68H52.7078V93.16C52.7078 93.4933 52.7878 93.7333 52.9478 93.88C53.1078 94.0267 53.3745 94.1 53.7478 94.1H54.9678ZM56.1928 91.4C56.1928 90.2533 56.4061 89.2467 56.8328 88.38C57.2728 87.5133 57.8661 86.8467 58.6128 86.38C59.3595 85.9133 60.1928 85.68 61.1128 85.68C61.8995 85.68 62.5861 85.84 63.1728 86.16C63.7728 86.48 64.2328 86.9 64.5528 87.42V85.84H67.9728V97H64.5528V95.42C64.2195 95.94 63.7528 96.36 63.1528 96.68C62.5661 97 61.8795 97.16 61.0928 97.16C60.1861 97.16 59.3595 96.9267 58.6128 96.46C57.8661 95.98 57.2728 95.3067 56.8328 94.44C56.4061 93.56 56.1928 92.5467 56.1928 91.4ZM64.5528 91.42C64.5528 90.5667 64.3128 89.8933 63.8328 89.4C63.3661 88.9067 62.7928 88.66 62.1128 88.66C61.4328 88.66 60.8528 88.9067 60.3728 89.4C59.9061 89.88 59.6728 90.5467 59.6728 91.4C59.6728 92.2533 59.9061 92.9333 60.3728 93.44C60.8528 93.9333 61.4328 94.18 62.1128 94.18C62.7928 94.18 63.3661 93.9333 63.8328 93.44C64.3128 92.9467 64.5528 92.2733 64.5528 91.42ZM78.1053 94.36H82.5853V97H74.6853V82.96H78.1053V94.36ZM83.5366 91.4C83.5366 90.2533 83.7499 89.2467 84.1766 88.38C84.6166 87.5133 85.2099 86.8467 85.9566 86.38C86.7032 85.9133 87.5366 85.68 88.4566 85.68C89.2432 85.68 89.9299 85.84 90.5166 86.16C91.1166 86.48 91.5766 86.9 91.8966 87.42V85.84H95.3166V97H91.8966V95.42C91.5632 95.94 91.0966 96.36 90.4966 96.68C89.9099 97 89.2232 97.16 88.4366 97.16C87.5299 97.16 86.7032 96.9267 85.9566 96.46C85.2099 95.98 84.6166 95.3067 84.1766 94.44C83.7499 93.56 83.5366 92.5467 83.5366 91.4ZM91.8966 91.42C91.8966 90.5667 91.6566 89.8933 91.1766 89.4C90.7099 88.9067 90.1366 88.66 89.4566 88.66C88.7766 88.66 88.1966 88.9067 87.7166 89.4C87.2499 89.88 87.0166 90.5467 87.0166 91.4C87.0166 92.2533 87.2499 92.9333 87.7166 93.44C88.1966 93.9333 88.7766 94.18 89.4566 94.18C90.1366 94.18 90.7099 93.9333 91.1766 93.44C91.6566 92.9467 91.8966 92.2733 91.8966 91.42ZM108.811 85.84V97H105.391V95.48C105.044 95.9733 104.571 96.3733 103.971 96.68C103.384 96.9733 102.731 97.12 102.011 97.12C101.157 97.12 100.404 96.9333 99.7508 96.56C99.0974 96.1733 98.5908 95.62 98.2308 94.9C97.8708 94.18 97.6908 93.3333 97.6908 92.36V85.84H101.091V91.9C101.091 92.6467 101.284 93.2267 101.671 93.64C102.057 94.0533 102.577 94.26 103.231 94.26C103.897 94.26 104.424 94.0533 104.811 93.64C105.197 93.2267 105.391 92.6467 105.391 91.9V85.84H108.811ZM118.067 85.72C119.374 85.72 120.414 86.1467 121.187 87C121.974 87.84 122.367 89 122.367 90.48V97H118.967V90.94C118.967 90.1933 118.774 89.6133 118.387 89.2C118.001 88.7867 117.481 88.58 116.827 88.58C116.174 88.58 115.654 88.7867 115.267 89.2C114.881 89.6133 114.687 90.1933 114.687 90.94V97H111.267V85.84H114.687V87.32C115.034 86.8267 115.501 86.44 116.087 86.16C116.674 85.8667 117.334 85.72 118.067 85.72ZM124.064 91.42C124.064 90.26 124.297 89.2467 124.764 88.38C125.244 87.5133 125.904 86.8467 126.744 86.38C127.597 85.9133 128.571 85.68 129.664 85.68C131.064 85.68 132.231 86.0467 133.164 86.78C134.111 87.5133 134.731 88.5467 135.024 89.88H131.384C131.077 89.0267 130.484 88.6 129.604 88.6C128.977 88.6 128.477 88.8467 128.104 89.34C127.731 89.82 127.544 90.5133 127.544 91.42C127.544 92.3267 127.731 93.0267 128.104 93.52C128.477 94 128.977 94.24 129.604 94.24C130.484 94.24 131.077 93.8133 131.384 92.96H135.024C134.731 94.2667 134.111 95.2933 133.164 96.04C132.217 96.7867 131.051 97.16 129.664 97.16C128.571 97.16 127.597 96.9267 126.744 96.46C125.904 95.9933 125.244 95.3267 124.764 94.46C124.297 93.5933 124.064 92.58 124.064 91.42ZM143.713 85.72C144.993 85.72 146.02 86.1467 146.793 87C147.567 87.84 147.953 89 147.953 90.48V97H144.553V90.94C144.553 90.1933 144.36 89.6133 143.973 89.2C143.587 88.7867 143.067 88.58 142.413 88.58C141.76 88.58 141.24 88.7867 140.853 89.2C140.467 89.6133 140.273 90.1933 140.273 90.94V97H136.853V82.2H140.273V87.34C140.62 86.8467 141.093 86.4533 141.693 86.16C142.293 85.8667 142.967 85.72 143.713 85.72Z" fill="#336082"/>
<path d="M77.2734 15.7812V16.1094C75.8594 16.4688 74.7227 16.9336 73.8633 17.5039C73.0117 18.0664 72.3359 18.7539 71.8359 19.5664C71.3438 20.3711 70.9609 21.3711 70.6875 22.5664C71.0312 22.332 71.3164 22.1797 71.543 22.1094C72.0508 21.9531 72.5625 21.875 73.0781 21.875C74.2656 21.875 75.2539 22.3086 76.043 23.1758C76.8398 24.0352 77.2383 25.2109 77.2383 26.7031C77.2383 27.75 77.0234 28.7109 76.5938 29.5859C76.1641 30.4609 75.5547 31.1367 74.7656 31.6133C73.9766 32.0898 73.1328 32.3281 72.2344 32.3281C71.2578 32.3281 70.3555 32.0625 69.5273 31.5312C68.6992 30.9922 68.0508 30.207 67.582 29.1758C67.1211 28.1445 66.8906 27.0234 66.8906 25.8125C66.8906 24.0312 67.3164 22.375 68.168 20.8438C69.0273 19.3047 70.2422 18.082 71.8125 17.1758C73.3906 16.2617 75.2109 15.7969 77.2734 15.7812ZM70.5352 23.5156C70.4727 24.5938 70.4414 25.3828 70.4414 25.8828C70.4414 26.9609 70.543 28.0039 70.7461 29.0117C70.957 30.0195 71.2422 30.7266 71.6016 31.1328C71.8594 31.4219 72.1641 31.5664 72.5156 31.5664C72.875 31.5664 73.1953 31.3594 73.4766 30.9453C73.7578 30.5234 73.8984 29.6719 73.8984 28.3906C73.8984 26.2344 73.6367 24.7461 73.1133 23.9258C72.7773 23.3945 72.3242 23.1289 71.7539 23.1289C71.4414 23.1289 71.0352 23.2578 70.5352 23.5156Z" fill="white"/>
<path d="M29.322 124V119.576H24.352V124H23.078V114.242H24.352V118.526H29.322V114.242H30.596V124H29.322ZM36.0197 117.28C34.7737 117.28 33.7377 118.106 33.5977 119.604H38.4417C38.4557 118.106 37.3357 117.28 36.0197 117.28ZM39.6037 121.634C39.2117 123.034 37.9797 124.126 36.0757 124.126C33.8917 124.126 32.2817 122.586 32.2817 120.15C32.2817 117.728 33.8357 116.202 36.0757 116.202C38.3017 116.202 39.7577 117.77 39.7577 119.87C39.7577 120.15 39.7437 120.374 39.7157 120.64H33.5837C33.6817 122.194 34.7737 123.048 36.0757 123.048C37.2237 123.048 37.9517 122.46 38.2317 121.634H39.6037ZM42.7133 119.828V124H41.4393V116.328H42.7133V117.574C43.1473 116.72 43.9733 116.188 45.1913 116.188V117.504H44.8553C43.6373 117.504 42.7133 118.05 42.7133 119.828ZM49.924 117.28C48.678 117.28 47.642 118.106 47.502 119.604H52.346C52.36 118.106 51.24 117.28 49.924 117.28ZM53.508 121.634C53.116 123.034 51.884 124.126 49.98 124.126C47.796 124.126 46.186 122.586 46.186 120.15C46.186 117.728 47.74 116.202 49.98 116.202C52.206 116.202 53.662 117.77 53.662 119.87C53.662 120.15 53.648 120.374 53.62 120.64H47.488C47.586 122.194 48.678 123.048 49.98 123.048C51.128 123.048 51.856 122.46 52.136 121.634H53.508ZM60.574 124L58.166 116.328H59.468L61.232 122.768L63.136 116.328H64.438L66.3 122.782L68.036 116.328H69.296L66.902 124H65.586L63.738 117.91L61.89 124H60.574ZM73.8224 117.28C72.5764 117.28 71.5404 118.106 71.4004 119.604H76.2444C76.2584 118.106 75.1384 117.28 73.8224 117.28ZM77.4064 121.634C77.0144 123.034 75.7824 124.126 73.8784 124.126C71.6944 124.126 70.0844 122.586 70.0844 120.15C70.0844 117.728 71.6384 116.202 73.8784 116.202C76.1044 116.202 77.5604 117.77 77.5604 119.87C77.5604 120.15 77.5464 120.374 77.5184 120.64H71.3864C71.4844 122.194 72.5764 123.048 73.8784 123.048C75.0264 123.048 75.7544 122.46 76.0344 121.634H77.4064ZM82.4985 120.136C82.4985 117.742 84.0805 116.202 86.1385 116.202C87.5385 116.202 88.5465 116.902 88.9945 117.728V116.328H90.2825V124.168C90.2825 126.282 88.8685 127.78 86.6145 127.78C84.5985 127.78 83.1565 126.758 82.9045 125.12H84.1645C84.4445 126.044 85.3545 126.674 86.6145 126.674C87.9725 126.674 88.9945 125.806 88.9945 124.168V122.558C88.5325 123.384 87.5385 124.126 86.1385 124.126C84.0805 124.126 82.4985 122.516 82.4985 120.136ZM88.9945 120.15C88.9945 118.372 87.7905 117.308 86.3905 117.308C84.9905 117.308 83.8005 118.33 83.8005 120.136C83.8005 121.942 84.9905 123.006 86.3905 123.006C87.7905 123.006 88.9945 121.956 88.9945 120.15ZM99.7154 120.15C99.7154 122.586 97.9654 124.126 95.7814 124.126C93.6114 124.126 91.9594 122.586 91.9594 120.15C91.9594 117.728 93.6674 116.202 95.8374 116.202C98.0214 116.202 99.7154 117.728 99.7154 120.15ZM93.2614 120.15C93.2614 122.096 94.4514 123.006 95.7814 123.006C97.1114 123.006 98.4134 122.096 98.4134 120.15C98.4134 118.218 97.1394 117.308 95.8234 117.308C94.4794 117.308 93.2614 118.218 93.2614 120.15ZM101.825 121.242L101.671 114.242H103.043L102.889 121.242H101.825ZM103.253 123.216C103.253 123.706 102.875 124.084 102.413 124.084C101.923 124.084 101.545 123.706 101.545 123.216C101.545 122.726 101.923 122.348 102.413 122.348C102.875 122.348 103.253 122.726 103.253 123.216ZM115.691 114.228H116.965V124H115.691L110.567 116.23V124H109.293V114.228H110.567L115.691 121.984V114.228ZM126.417 120.15C126.417 122.586 124.667 124.126 122.483 124.126C120.313 124.126 118.661 122.586 118.661 120.15C118.661 117.728 120.369 116.202 122.539 116.202C124.723 116.202 126.417 117.728 126.417 120.15ZM119.963 120.15C119.963 122.096 121.153 123.006 122.483 123.006C123.813 123.006 125.115 122.096 125.115 120.15C125.115 118.218 123.841 117.308 122.525 117.308C121.181 117.308 119.963 118.218 119.963 120.15ZM129.59 124L127.182 116.328H128.484L130.248 122.768L132.152 116.328H133.454L135.316 122.782L137.052 116.328H138.312L135.918 124H134.602L132.754 117.91L130.906 124H129.59ZM143.308 124V116.328H144.582V124H143.308ZM143.966 115.082C143.476 115.082 143.098 114.704 143.098 114.214C143.098 113.724 143.476 113.346 143.966 113.346C144.428 113.346 144.806 113.724 144.806 114.214C144.806 114.704 144.428 115.082 143.966 115.082ZM147.034 121.9V117.378H146.04V116.328H147.034V114.396H148.308V116.328H150.31V117.378H148.308V121.9C148.308 122.656 148.588 122.922 149.372 122.922H150.31V124H149.162C147.804 124 147.034 123.44 147.034 121.9ZM151.447 115.642L151.265 112.856H152.497L152.329 115.642H151.447ZM159.598 121.914C159.598 123.174 158.492 124.126 156.798 124.126C155.006 124.126 153.746 123.146 153.662 121.746H154.978C155.048 122.488 155.706 123.048 156.784 123.048C157.792 123.048 158.352 122.544 158.352 121.914C158.352 120.206 153.816 121.2 153.816 118.344C153.816 117.168 154.922 116.202 156.63 116.202C158.324 116.202 159.444 117.112 159.528 118.61H158.254C158.198 117.84 157.61 117.28 156.588 117.28C155.65 117.28 155.09 117.728 155.09 118.344C155.09 120.164 159.542 119.17 159.598 121.914ZM165.409 121.9V117.378H164.415V116.328H165.409V114.396H166.683V116.328H168.685V117.378H166.683V121.9C166.683 122.656 166.963 122.922 167.747 122.922H168.685V124H167.537C166.179 124 165.409 123.44 165.409 121.9ZM170.228 124V116.328H171.502V124H170.228ZM170.886 115.082C170.396 115.082 170.018 114.704 170.018 114.214C170.018 113.724 170.396 113.346 170.886 113.346C171.348 113.346 171.726 113.724 171.726 114.214C171.726 114.704 171.348 115.082 170.886 115.082ZM184.748 124V119.66C184.748 118.092 183.908 117.294 182.648 117.294C181.36 117.294 180.478 118.12 180.478 119.772V124H179.218V119.66C179.218 118.092 178.378 117.294 177.118 117.294C175.83 117.294 174.948 118.12 174.948 119.772V124H173.674V116.328H174.948V117.434C175.452 116.622 176.362 116.188 177.37 116.188C178.63 116.188 179.68 116.748 180.184 117.896C180.632 116.79 181.724 116.188 182.9 116.188C184.65 116.188 186.008 117.28 186.008 119.478V124H184.748ZM191.36 117.28C190.114 117.28 189.078 118.106 188.938 119.604H193.782C193.796 118.106 192.676 117.28 191.36 117.28ZM194.944 121.634C194.552 123.034 193.32 124.126 191.416 124.126C189.232 124.126 187.622 122.586 187.622 120.15C187.622 117.728 189.176 116.202 191.416 116.202C193.642 116.202 195.098 117.77 195.098 119.87C195.098 120.15 195.084 120.374 195.056 120.64H188.924C189.022 122.194 190.114 123.048 191.416 123.048C192.564 123.048 193.292 122.46 193.572 121.634H194.944ZM200.792 121.9V117.378H199.798V116.328H200.792V114.396H202.066V116.328H204.068V117.378H202.066V121.9C202.066 122.656 202.346 122.922 203.13 122.922H204.068V124H202.92C201.562 124 200.792 123.44 200.792 121.9ZM212.891 120.15C212.891 122.586 211.141 124.126 208.957 124.126C206.787 124.126 205.135 122.586 205.135 120.15C205.135 117.728 206.843 116.202 209.013 116.202C211.197 116.202 212.891 117.728 212.891 120.15ZM206.437 120.15C206.437 122.096 207.627 123.006 208.957 123.006C210.287 123.006 211.589 122.096 211.589 120.15C211.589 118.218 210.315 117.308 208.999 117.308C207.655 117.308 206.437 118.218 206.437 120.15ZM24.352 139.828V144H23.078V136.328H24.352V137.574C24.786 136.72 25.612 136.188 26.83 136.188V137.504H26.494C25.276 137.504 24.352 138.05 24.352 139.828ZM31.5627 137.28C30.3167 137.28 29.2807 138.106 29.1407 139.604H33.9847C33.9987 138.106 32.8787 137.28 31.5627 137.28ZM35.1467 141.634C34.7547 143.034 33.5227 144.126 31.6187 144.126C29.4347 144.126 27.8247 142.586 27.8247 140.15C27.8247 137.728 29.3787 136.202 31.6187 136.202C33.8447 136.202 35.3007 137.77 35.3007 139.87C35.3007 140.15 35.2867 140.374 35.2587 140.64H29.1267C29.2247 142.194 30.3167 143.048 31.6187 143.048C32.7667 143.048 33.4947 142.46 33.7747 141.634H35.1467ZM36.9823 144V133.64H38.2563V144H36.9823ZM43.6896 137.28C42.4436 137.28 41.4076 138.106 41.2676 139.604H46.1116C46.1256 138.106 45.0056 137.28 43.6896 137.28ZM47.2736 141.634C46.8816 143.034 45.6496 144.126 43.7456 144.126C41.5616 144.126 39.9516 142.586 39.9516 140.15C39.9516 137.728 41.5056 136.202 43.7456 136.202C45.9716 136.202 47.4276 137.77 47.4276 139.87C47.4276 140.15 47.4136 140.374 47.3856 140.64H41.2536C41.3516 142.194 42.4436 143.048 43.7456 143.048C44.8936 143.048 45.6216 142.46 45.9016 141.634H47.2736ZM48.6333 140.136C48.6333 137.742 50.2153 136.202 52.2733 136.202C53.7013 136.202 54.6813 136.93 55.1293 137.728V136.328H56.4173V144H55.1293V142.572C54.6673 143.398 53.6733 144.126 52.2593 144.126C50.2153 144.126 48.6333 142.516 48.6333 140.136ZM55.1293 140.15C55.1293 138.372 53.9253 137.308 52.5253 137.308C51.1253 137.308 49.9353 138.33 49.9353 140.136C49.9353 141.942 51.1253 143.006 52.5253 143.006C53.9253 143.006 55.1293 141.956 55.1293 140.15ZM64.0862 141.914C64.0862 143.174 62.9802 144.126 61.2862 144.126C59.4942 144.126 58.2342 143.146 58.1502 141.746H59.4662C59.5362 142.488 60.1942 143.048 61.2722 143.048C62.2802 143.048 62.8402 142.544 62.8402 141.914C62.8402 140.206 58.3042 141.2 58.3042 138.344C58.3042 137.168 59.4102 136.202 61.1182 136.202C62.8122 136.202 63.9322 137.112 64.0162 138.61H62.7422C62.6862 137.84 62.0982 137.28 61.0762 137.28C60.1382 137.28 59.5782 137.728 59.5782 138.344C59.5782 140.164 64.0302 139.17 64.0862 141.914ZM69.1466 137.28C67.9006 137.28 66.8646 138.106 66.7246 139.604H71.5686C71.5826 138.106 70.4626 137.28 69.1466 137.28ZM72.7306 141.634C72.3386 143.034 71.1066 144.126 69.2026 144.126C67.0186 144.126 65.4086 142.586 65.4086 140.15C65.4086 137.728 66.9626 136.202 69.2026 136.202C71.4286 136.202 72.8846 137.77 72.8846 139.87C72.8846 140.15 72.8706 140.374 72.8426 140.64H66.7106C66.8086 142.194 67.9006 143.048 69.2026 143.048C70.3506 143.048 71.0786 142.46 71.3586 141.634H72.7306ZM79.0967 144V135.04H77.7527V133.878H80.3847V144H79.0967ZM88.2991 141.914C88.2991 143.174 87.1931 144.126 85.4991 144.126C83.7071 144.126 82.4471 143.146 82.3631 141.746H83.6791C83.7491 142.488 84.4071 143.048 85.4851 143.048C86.4931 143.048 87.0531 142.544 87.0531 141.914C87.0531 140.206 82.5171 141.2 82.5171 138.344C82.5171 137.168 83.6231 136.202 85.3311 136.202C87.0251 136.202 88.1451 137.112 88.2291 138.61H86.9551C86.8991 137.84 86.3111 137.28 85.2891 137.28C84.3511 137.28 83.7911 137.728 83.7911 138.344C83.7911 140.164 88.2431 139.17 88.2991 141.914ZM90.3775 141.9V137.378H89.3835V136.328H90.3775V134.396H91.6515V136.328H93.6535V137.378H91.6515V141.9C91.6515 142.656 91.9315 142.922 92.7155 142.922H93.6535V144H92.5055C91.1475 144 90.3775 143.44 90.3775 141.9ZM102.584 142.656L105.65 134.242H106.994L103.312 144H101.842L98.1596 134.242H99.5176L102.584 142.656ZM111.653 137.28C110.407 137.28 109.37 138.106 109.231 139.604H114.075C114.089 138.106 112.969 137.28 111.653 137.28ZM115.237 141.634C114.845 143.034 113.613 144.126 111.709 144.126C109.525 144.126 107.915 142.586 107.915 140.15C107.915 137.728 109.469 136.202 111.709 136.202C113.935 136.202 115.391 137.77 115.391 139.87C115.391 140.15 115.377 140.374 115.349 140.64H109.217C109.315 142.194 110.407 143.048 111.709 143.048C112.857 143.048 113.585 142.46 113.865 141.634H115.237ZM118.346 139.828V144H117.072V136.328H118.346V137.574C118.78 136.72 119.606 136.188 120.824 136.188V137.504H120.488C119.27 137.504 118.346 138.05 118.346 139.828ZM127.811 141.914C127.811 143.174 126.705 144.126 125.011 144.126C123.219 144.126 121.959 143.146 121.875 141.746H123.191C123.261 142.488 123.919 143.048 124.997 143.048C126.005 143.048 126.565 142.544 126.565 141.914C126.565 140.206 122.029 141.2 122.029 138.344C122.029 137.168 123.135 136.202 124.843 136.202C126.537 136.202 127.657 137.112 127.741 138.61H126.467C126.411 137.84 125.823 137.28 124.801 137.28C123.863 137.28 123.303 137.728 123.303 138.344C123.303 140.164 127.755 139.17 127.811 141.914ZM129.609 144V136.328H130.883V144H129.609ZM130.267 135.082C129.777 135.082 129.399 134.704 129.399 134.214C129.399 133.724 129.777 133.346 130.267 133.346C130.729 133.346 131.107 133.724 131.107 134.214C131.107 134.704 130.729 135.082 130.267 135.082ZM140.335 140.15C140.335 142.586 138.585 144.126 136.401 144.126C134.231 144.126 132.579 142.586 132.579 140.15C132.579 137.728 134.287 136.202 136.457 136.202C138.641 136.202 140.335 137.728 140.335 140.15ZM133.881 140.15C133.881 142.096 135.071 143.006 136.401 143.006C137.731 143.006 139.033 142.096 139.033 140.15C139.033 138.218 137.759 137.308 136.443 137.308C135.099 137.308 133.881 138.218 133.881 140.15ZM147.624 144V139.66C147.624 138.092 146.77 137.294 145.482 137.294C144.18 137.294 143.284 138.106 143.284 139.758V144H142.01V136.328H143.284V137.42C143.788 136.622 144.712 136.188 145.748 136.188C147.526 136.188 148.884 137.28 148.884 139.478V144H147.624ZM161.977 140.15C161.977 142.586 160.227 144.126 158.043 144.126C155.873 144.126 154.221 142.586 154.221 140.15C154.221 137.728 155.929 136.202 158.099 136.202C160.283 136.202 161.977 137.728 161.977 140.15ZM155.523 140.15C155.523 142.096 156.713 143.006 158.043 143.006C159.373 143.006 160.675 142.096 160.675 140.15C160.675 138.218 159.401 137.308 158.085 137.308C156.741 137.308 155.523 138.218 155.523 140.15ZM163.89 144V137.378H162.896V136.328H163.89V135.782C163.89 134.074 164.73 133.304 166.69 133.304V134.368C165.542 134.368 165.164 134.788 165.164 135.782V136.328H166.774V137.378H165.164V144H163.89ZM174.904 142.544L177.284 136.328H178.6L173.98 147.612H172.664L174.176 143.916L171.082 136.328H172.496L174.904 142.544ZM187.161 140.15C187.161 142.586 185.411 144.126 183.227 144.126C181.057 144.126 179.405 142.586 179.405 140.15C179.405 137.728 181.113 136.202 183.283 136.202C185.467 136.202 187.161 137.728 187.161 140.15ZM180.707 140.15C180.707 142.096 181.897 143.006 183.227 143.006C184.557 143.006 185.859 142.096 185.859 140.15C185.859 138.218 184.585 137.308 183.269 137.308C181.925 137.308 180.707 138.218 180.707 140.15ZM195.64 136.328V144H194.366V142.866C193.876 143.664 192.938 144.112 191.916 144.112C190.152 144.112 188.766 143.02 188.766 140.822V136.328H190.026V140.654C190.026 142.208 190.88 143.006 192.168 143.006C193.484 143.006 194.366 142.194 194.366 140.542V136.328H195.64ZM199.065 139.828V144H197.791V136.328H199.065V137.574C199.499 136.72 200.325 136.188 201.543 136.188V137.504H201.207C199.989 137.504 199.065 138.05 199.065 139.828ZM28.594 161.914C28.594 163.174 27.488 164.126 25.794 164.126C24.002 164.126 22.742 163.146 22.658 161.746H23.974C24.044 162.488 24.702 163.048 25.78 163.048C26.788 163.048 27.348 162.544 27.348 161.914C27.348 160.206 22.812 161.2 22.812 158.344C22.812 157.168 23.918 156.202 25.626 156.202C27.32 156.202 28.44 157.112 28.524 158.61H27.25C27.194 157.84 26.606 157.28 25.584 157.28C24.646 157.28 24.086 157.728 24.086 158.344C24.086 160.164 28.538 159.17 28.594 161.914ZM37.6725 160.15C37.6725 162.586 35.9225 164.126 33.7385 164.126C31.5685 164.126 29.9165 162.586 29.9165 160.15C29.9165 157.728 31.6245 156.202 33.7945 156.202C35.9785 156.202 37.6725 157.728 37.6725 160.15ZM31.2185 160.15C31.2185 162.096 32.4085 163.006 33.7385 163.006C35.0685 163.006 36.3705 162.096 36.3705 160.15C36.3705 158.218 35.0965 157.308 33.7805 157.308C32.4365 157.308 31.2185 158.218 31.2185 160.15ZM39.5855 164V157.378H38.5915V156.328H39.5855V155.782C39.5855 154.074 40.4255 153.304 42.3855 153.304V154.368C41.2375 154.368 40.8595 154.788 40.8595 155.782V156.328H42.4695V157.378H40.8595V164H39.5855ZM44.235 161.9V157.378H43.241V156.328H44.235V154.396H45.509V156.328H47.511V157.378H45.509V161.9C45.509 162.656 45.789 162.922 46.573 162.922H47.511V164H46.363C45.005 164 44.235 163.44 44.235 161.9ZM50.5526 164L48.1446 156.328H49.4466L51.2106 162.768L53.1146 156.328H54.4166L56.2786 162.782L58.0146 156.328H59.2746L56.8806 164H55.5646L53.7166 157.91L51.8686 164H50.5526ZM60.0629 160.136C60.0629 157.742 61.6449 156.202 63.7029 156.202C65.1309 156.202 66.1109 156.93 66.5589 157.728V156.328H67.8469V164H66.5589V162.572C66.0969 163.398 65.1029 164.126 63.6889 164.126C61.6449 164.126 60.0629 162.516 60.0629 160.136ZM66.5589 160.15C66.5589 158.372 65.3549 157.308 63.9549 157.308C62.5549 157.308 61.3649 158.33 61.3649 160.136C61.3649 161.942 62.5549 163.006 63.9549 163.006C65.3549 163.006 66.5589 161.956 66.5589 160.15ZM71.2739 159.828V164H69.9999V156.328H71.2739V157.574C71.7079 156.72 72.5339 156.188 73.7519 156.188V157.504H73.4159C72.1979 157.504 71.2739 158.05 71.2739 159.828ZM78.4845 157.28C77.2385 157.28 76.2025 158.106 76.0625 159.604H80.9065C80.9205 158.106 79.8005 157.28 78.4845 157.28ZM82.0685 161.634C81.6765 163.034 80.4445 164.126 78.5405 164.126C76.3565 164.126 74.7465 162.586 74.7465 160.15C74.7465 157.728 76.3005 156.202 78.5405 156.202C80.7665 156.202 82.2225 157.77 82.2225 159.87C82.2225 160.15 82.2085 160.374 82.1805 160.64H76.0485C76.1465 162.194 77.2385 163.048 78.5405 163.048C79.6885 163.048 80.4165 162.46 80.6965 161.634H82.0685ZM87.9166 161.9V157.378H86.9226V156.328H87.9166V154.396H89.1906V156.328H91.1926V157.378H89.1906V161.9C89.1906 162.656 89.4706 162.922 90.2546 162.922H91.1926V164H90.0446C88.6866 164 87.9166 163.44 87.9166 161.9ZM100.016 160.15C100.016 162.586 98.2662 164.126 96.0822 164.126C93.9122 164.126 92.2602 162.586 92.2602 160.15C92.2602 157.728 93.9682 156.202 96.1382 156.202C98.3222 156.202 100.016 157.728 100.016 160.15ZM93.5622 160.15C93.5622 162.096 94.7522 163.006 96.0822 163.006C97.4122 163.006 98.7142 162.096 98.7142 160.15C98.7142 158.218 97.4402 157.308 96.1242 157.308C94.7802 157.308 93.5622 158.218 93.5622 160.15ZM105.704 161.9V157.378H104.71V156.328H105.704V154.396H106.978V156.328H108.98V157.378H106.978V161.9C106.978 162.656 107.258 162.922 108.042 162.922H108.98V164H107.832C106.474 164 105.704 163.44 105.704 161.9ZM110.523 164V153.64H111.797V157.434C112.301 156.622 113.253 156.188 114.331 156.188C116.039 156.188 117.397 157.28 117.397 159.478V164H116.137V159.66C116.137 158.092 115.283 157.294 113.995 157.294C112.693 157.294 111.797 158.106 111.797 159.758V164H110.523ZM122.74 157.28C121.494 157.28 120.458 158.106 120.318 159.604H125.162C125.176 158.106 124.056 157.28 122.74 157.28ZM126.324 161.634C125.932 163.034 124.7 164.126 122.796 164.126C120.612 164.126 119.002 162.586 119.002 160.15C119.002 157.728 120.556 156.202 122.796 156.202C125.022 156.202 126.478 157.77 126.478 159.87C126.478 160.15 126.464 160.374 126.436 160.64H120.304C120.402 162.194 121.494 163.048 122.796 163.048C123.944 163.048 124.672 162.46 124.952 161.634H126.324ZM133.166 157.742C133.628 156.93 134.636 156.202 136.036 156.202C138.094 156.202 139.676 157.742 139.676 160.136C139.676 162.516 138.094 164.126 136.036 164.126C134.636 164.126 133.642 163.37 133.166 162.586V167.64H131.892V156.328H133.166V157.742ZM138.374 160.136C138.374 158.33 137.184 157.308 135.77 157.308C134.384 157.308 133.166 158.372 133.166 160.15C133.166 161.956 134.384 163.006 135.77 163.006C137.184 163.006 138.374 161.942 138.374 160.136ZM148.157 156.328V164H146.883V162.866C146.393 163.664 145.455 164.112 144.433 164.112C142.669 164.112 141.283 163.02 141.283 160.822V156.328H142.543V160.654C142.543 162.208 143.397 163.006 144.685 163.006C146.001 163.006 146.883 162.194 146.883 160.542V156.328H148.157ZM151.582 157.756C152.072 156.902 153.094 156.202 154.452 156.202C156.524 156.202 158.092 157.742 158.092 160.136C158.092 162.516 156.51 164.126 154.452 164.126C153.052 164.126 152.058 163.426 151.582 162.586V164H150.308V153.64H151.582V157.756ZM156.79 160.136C156.79 158.33 155.6 157.308 154.186 157.308C152.8 157.308 151.582 158.372 151.582 160.15C151.582 161.956 152.8 163.006 154.186 163.006C155.6 163.006 156.79 161.942 156.79 160.136ZM159.769 164V153.64H161.043V164H159.769ZM163.215 164V156.328H164.489V164H163.215ZM163.873 155.082C163.383 155.082 163.005 154.704 163.005 154.214C163.005 153.724 163.383 153.346 163.873 153.346C164.335 153.346 164.713 153.724 164.713 154.214C164.713 154.704 164.335 155.082 163.873 155.082ZM166.184 160.15C166.184 157.742 167.738 156.202 169.922 156.202C171.826 156.202 173.072 157.182 173.464 158.792H172.092C171.826 157.868 171.056 157.28 169.922 157.28C168.522 157.28 167.486 158.274 167.486 160.15C167.486 162.054 168.522 163.048 169.922 163.048C171.056 163.048 171.812 162.502 172.092 161.536H173.464C173.072 163.062 171.826 164.126 169.922 164.126C167.738 164.126 166.184 162.586 166.184 160.15ZM176.41 163.216C176.41 163.706 176.032 164.084 175.57 164.084C175.08 164.084 174.702 163.706 174.702 163.216C174.702 162.726 175.08 162.348 175.57 162.348C176.032 162.348 176.41 162.726 176.41 163.216ZM181.836 164V154.242H183.11V164H181.836ZM185.519 164V157.378H184.525V156.328H185.519V155.782C185.519 154.074 186.359 153.304 188.319 153.304V154.368C187.171 154.368 186.793 154.788 186.793 155.782V156.328H188.403V157.378H186.793V164H185.519ZM193.621 164V156.328H194.895V164H193.621ZM194.279 155.082C193.789 155.082 193.411 154.704 193.411 154.214C193.411 153.724 193.789 153.346 194.279 153.346C194.741 153.346 195.119 153.724 195.119 154.214C195.119 154.704 194.741 155.082 194.279 155.082ZM197.346 161.9V157.378H196.352V156.328H197.346V154.396H198.62V156.328H200.622V157.378H198.62V161.9C198.62 162.656 198.9 162.922 199.684 162.922H200.622V164H199.474C198.116 164 197.346 163.44 197.346 161.9ZM201.76 155.642L201.578 152.856H202.81L202.642 155.642H201.76ZM209.91 161.914C209.91 163.174 208.804 164.126 207.11 164.126C205.318 164.126 204.058 163.146 203.974 161.746H205.29C205.36 162.488 206.018 163.048 207.096 163.048C208.104 163.048 208.664 162.544 208.664 161.914C208.664 160.206 204.128 161.2 204.128 158.344C204.128 157.168 205.234 156.202 206.942 156.202C208.636 156.202 209.756 157.112 209.84 158.61H208.566C208.51 157.84 207.922 157.28 206.9 157.28C205.962 157.28 205.402 157.728 205.402 158.344C205.402 160.164 209.854 159.17 209.91 161.914ZM214.965 160.136C214.965 157.742 216.547 156.202 218.605 156.202C220.033 156.202 221.013 156.93 221.461 157.728V156.328H222.749V164H221.461V162.572C220.999 163.398 220.005 164.126 218.591 164.126C216.547 164.126 214.965 162.516 214.965 160.136ZM221.461 160.15C221.461 158.372 220.257 157.308 218.857 157.308C217.457 157.308 216.267 158.33 216.267 160.136C216.267 161.942 217.457 163.006 218.857 163.006C220.257 163.006 221.461 161.956 221.461 160.15ZM34.152 184V179.66C34.152 178.092 33.312 177.294 32.052 177.294C30.764 177.294 29.882 178.12 29.882 179.772V184H28.622V179.66C28.622 178.092 27.782 177.294 26.522 177.294C25.234 177.294 24.352 178.12 24.352 179.772V184H23.078V176.328H24.352V177.434C24.856 176.622 25.766 176.188 26.774 176.188C28.034 176.188 29.084 176.748 29.588 177.896C30.036 176.79 31.128 176.188 32.304 176.188C34.054 176.188 35.412 177.28 35.412 179.478V184H34.152ZM44.7818 180.15C44.7818 182.586 43.0318 184.126 40.8478 184.126C38.6778 184.126 37.0258 182.586 37.0258 180.15C37.0258 177.728 38.7338 176.202 40.9038 176.202C43.0878 176.202 44.7818 177.728 44.7818 180.15ZM38.3278 180.15C38.3278 182.096 39.5178 183.006 40.8478 183.006C42.1778 183.006 43.4798 182.096 43.4798 180.15C43.4798 178.218 42.2058 177.308 40.8898 177.308C39.5458 177.308 38.3278 178.218 38.3278 180.15ZM47.7309 177.756C48.2209 176.902 49.2429 176.202 50.6009 176.202C52.6729 176.202 54.2409 177.742 54.2409 180.136C54.2409 182.516 52.6589 184.126 50.6009 184.126C49.2009 184.126 48.2069 183.426 47.7309 182.586V184H46.4569V173.64H47.7309V177.756ZM52.9389 180.136C52.9389 178.33 51.7489 177.308 50.3349 177.308C48.9489 177.308 47.7309 178.372 47.7309 180.15C47.7309 181.956 48.9489 183.006 50.3349 183.006C51.7489 183.006 52.9389 181.942 52.9389 180.136ZM55.9178 184V176.328H57.1918V184H55.9178ZM56.5758 175.082C56.0858 175.082 55.7078 174.704 55.7078 174.214C55.7078 173.724 56.0858 173.346 56.5758 173.346C57.0378 173.346 57.4158 173.724 57.4158 174.214C57.4158 174.704 57.0378 175.082 56.5758 175.082ZM59.3632 184V173.64H60.6372V184H59.3632ZM66.0705 177.28C64.8245 177.28 63.7885 178.106 63.6485 179.604H68.4925C68.5065 178.106 67.3865 177.28 66.0705 177.28ZM69.6545 181.634C69.2625 183.034 68.0305 184.126 66.1265 184.126C63.9425 184.126 62.3325 182.586 62.3325 180.15C62.3325 177.728 63.8865 176.202 66.1265 176.202C68.3525 176.202 69.8085 177.77 69.8085 179.87C69.8085 180.15 69.7945 180.374 69.7665 180.64H63.6345C63.7325 182.194 64.8245 183.048 66.1265 183.048C67.2745 183.048 68.0025 182.46 68.2825 181.634H69.6545ZM74.7465 180.136C74.7465 177.742 76.3285 176.202 78.3865 176.202C79.8145 176.202 80.7945 176.93 81.2425 177.728V176.328H82.5305V184H81.2425V182.572C80.7805 183.398 79.7865 184.126 78.3725 184.126C76.3285 184.126 74.7465 182.516 74.7465 180.136ZM81.2425 180.15C81.2425 178.372 80.0385 177.308 78.6385 177.308C77.2385 177.308 76.0485 178.33 76.0485 180.136C76.0485 181.942 77.2385 183.006 78.6385 183.006C80.0385 183.006 81.2425 181.956 81.2425 180.15ZM85.9575 177.742C86.4195 176.93 87.4275 176.202 88.8275 176.202C90.8855 176.202 92.4675 177.742 92.4675 180.136C92.4675 182.516 90.8855 184.126 88.8275 184.126C87.4275 184.126 86.4335 183.37 85.9575 182.586V187.64H84.6835V176.328H85.9575V177.742ZM91.1655 180.136C91.1655 178.33 89.9755 177.308 88.5615 177.308C87.1755 177.308 85.9575 178.372 85.9575 180.15C85.9575 181.956 87.1755 183.006 88.5615 183.006C89.9755 183.006 91.1655 181.942 91.1655 180.136ZM95.4184 177.742C95.8804 176.93 96.8884 176.202 98.2884 176.202C100.346 176.202 101.928 177.742 101.928 180.136C101.928 182.516 100.346 184.126 98.2884 184.126C96.8884 184.126 95.8944 183.37 95.4184 182.586V187.64H94.1444V176.328H95.4184V177.742ZM100.626 180.136C100.626 178.33 99.4364 177.308 98.0224 177.308C96.6364 177.308 95.4184 178.372 95.4184 180.15C95.4184 181.956 96.6364 183.006 98.0224 183.006C99.4364 183.006 100.626 181.942 100.626 180.136ZM107.618 181.9V177.378H106.624V176.328H107.618V174.396H108.892V176.328H110.894V177.378H108.892V181.9C108.892 182.656 109.172 182.922 109.956 182.922H110.894V184H109.746C108.388 184 107.618 183.44 107.618 181.9ZM112.437 184V173.64H113.711V177.434C114.215 176.622 115.167 176.188 116.245 176.188C117.953 176.188 119.311 177.28 119.311 179.478V184H118.051V179.66C118.051 178.092 117.197 177.294 115.909 177.294C114.607 177.294 113.711 178.106 113.711 179.758V184H112.437ZM124.654 177.28C123.408 177.28 122.372 178.106 122.232 179.604H127.076C127.09 178.106 125.97 177.28 124.654 177.28ZM128.238 181.634C127.846 183.034 126.614 184.126 124.71 184.126C122.526 184.126 120.916 182.586 120.916 180.15C120.916 177.728 122.47 176.202 124.71 176.202C126.936 176.202 128.392 177.77 128.392 179.87C128.392 180.15 128.378 180.374 128.35 180.64H122.218C122.316 182.194 123.408 183.048 124.71 183.048C125.858 183.048 126.586 182.46 126.866 181.634H128.238ZM135.688 184V179.66C135.688 178.092 134.834 177.294 133.546 177.294C132.244 177.294 131.348 178.106 131.348 179.758V184H130.074V176.328H131.348V177.42C131.852 176.622 132.776 176.188 133.812 176.188C135.59 176.188 136.948 177.28 136.948 179.478V184H135.688ZM144.26 184L141.852 176.328H143.154L144.918 182.768L146.822 176.328H148.124L149.986 182.782L151.722 176.328H152.982L150.588 184H149.272L147.424 177.91L145.576 184H144.26ZM157.508 177.28C156.262 177.28 155.226 178.106 155.086 179.604H159.93C159.944 178.106 158.824 177.28 157.508 177.28ZM161.092 181.634C160.7 183.034 159.468 184.126 157.564 184.126C155.38 184.126 153.77 182.586 153.77 180.15C153.77 177.728 155.324 176.202 157.564 176.202C159.79 176.202 161.246 177.77 161.246 179.87C161.246 180.15 161.232 180.374 161.204 180.64H155.072C155.17 182.194 156.262 183.048 157.564 183.048C158.712 183.048 159.44 182.46 159.72 181.634H161.092ZM168.158 184L165.75 176.328H167.052L168.816 182.768L170.72 176.328H172.022L173.884 182.782L175.62 176.328H176.88L174.486 184H173.17L171.322 177.91L169.474 184H168.158ZM178.144 184V176.328H179.418V184H178.144ZM178.802 175.082C178.312 175.082 177.934 174.704 177.934 174.214C177.934 173.724 178.312 173.346 178.802 173.346C179.264 173.346 179.642 173.724 179.642 174.214C179.642 174.704 179.264 175.082 178.802 175.082ZM181.59 184V173.64H182.864V184H181.59ZM185.035 184V173.64H186.309V184H185.035ZM197.729 181.914C197.729 183.174 196.623 184.126 194.929 184.126C193.137 184.126 191.877 183.146 191.793 181.746H193.109C193.179 182.488 193.837 183.048 194.915 183.048C195.923 183.048 196.483 182.544 196.483 181.914C196.483 180.206 191.947 181.2 191.947 178.344C191.947 177.168 193.053 176.202 194.761 176.202C196.455 176.202 197.575 177.112 197.659 178.61H196.385C196.329 177.84 195.741 177.28 194.719 177.28C193.781 177.28 193.221 177.728 193.221 178.344C193.221 180.164 197.673 179.17 197.729 181.914ZM206.331 176.328V184H205.057V182.866C204.567 183.664 203.629 184.112 202.607 184.112C200.843 184.112 199.457 183.02 199.457 180.822V176.328H200.717V180.654C200.717 182.208 201.571 183.006 202.859 183.006C204.175 183.006 205.057 182.194 205.057 180.542V176.328H206.331ZM209.756 177.756C210.246 176.902 211.268 176.202 212.626 176.202C214.698 176.202 216.266 177.742 216.266 180.136C216.266 182.516 214.684 184.126 212.626 184.126C211.226 184.126 210.232 183.426 209.756 182.586V184H208.482V173.64H209.756V177.756ZM214.964 180.136C214.964 178.33 213.774 177.308 212.36 177.308C210.974 177.308 209.756 178.372 209.756 180.15C209.756 181.956 210.974 183.006 212.36 183.006C213.774 183.006 214.964 181.942 214.964 180.136ZM229.017 184V179.66C229.017 178.092 228.177 177.294 226.917 177.294C225.629 177.294 224.747 178.12 224.747 179.772V184H223.487V179.66C223.487 178.092 222.647 177.294 221.387 177.294C220.099 177.294 219.217 178.12 219.217 179.772V184H217.943V176.328H219.217V177.434C219.721 176.622 220.631 176.188 221.639 176.188C222.899 176.188 223.949 176.748 224.453 177.896C224.901 176.79 225.993 176.188 227.169 176.188C228.919 176.188 230.277 177.28 230.277 179.478V184H229.017ZM232.367 184V176.328H233.641V184H232.367ZM233.025 175.082C232.535 175.082 232.157 174.704 232.157 174.214C232.157 173.724 232.535 173.346 233.025 173.346C233.487 173.346 233.865 173.724 233.865 174.214C233.865 174.704 233.487 175.082 233.025 175.082ZM236.092 181.9V177.378H235.098V176.328H236.092V174.396H237.366V176.328H239.368V177.378H237.366V181.9C237.366 182.656 237.646 182.922 238.43 182.922H239.368V184H238.22C236.862 184 236.092 183.44 236.092 181.9ZM244.644 184V176.328H245.918V184H244.644ZM245.302 175.082C244.812 175.082 244.434 174.704 244.434 174.214C244.434 173.724 244.812 173.346 245.302 173.346C245.764 173.346 246.142 173.724 246.142 174.214C246.142 174.704 245.764 175.082 245.302 175.082ZM248.37 181.9V177.378H247.376V176.328H248.37V174.396H249.644V176.328H251.646V177.378H249.644V181.9C249.644 182.656 249.924 182.922 250.708 182.922H251.646V184H250.498C249.14 184 248.37 183.44 248.37 181.9ZM23.358 201.9V197.378H22.364V196.328H23.358V194.396H24.632V196.328H26.634V197.378H24.632V201.9C24.632 202.656 24.912 202.922 25.696 202.922H26.634V204H25.486C24.128 204 23.358 203.44 23.358 201.9ZM35.4576 200.15C35.4576 202.586 33.7076 204.126 31.5236 204.126C29.3536 204.126 27.7016 202.586 27.7016 200.15C27.7016 197.728 29.4096 196.202 31.5796 196.202C33.7636 196.202 35.4576 197.728 35.4576 200.15ZM29.0036 200.15C29.0036 202.096 30.1936 203.006 31.5236 203.006C32.8536 203.006 34.1556 202.096 34.1556 200.15C34.1556 198.218 32.8816 197.308 31.5656 197.308C30.2216 197.308 29.0036 198.218 29.0036 200.15ZM47.4171 204L46.6331 201.83H42.3771L41.5931 204H40.2491L43.7771 194.298H45.2471L48.7611 204H47.4171ZM46.2691 200.794L44.5051 195.866L42.7411 200.794H46.2691ZM51.5727 197.742C52.0347 196.93 53.0427 196.202 54.4427 196.202C56.5007 196.202 58.0827 197.742 58.0827 200.136C58.0827 202.516 56.5007 204.126 54.4427 204.126C53.0427 204.126 52.0487 203.37 51.5727 202.586V207.64H50.2987V196.328H51.5727V197.742ZM56.7807 200.136C56.7807 198.33 55.5907 197.308 54.1767 197.308C52.7907 197.308 51.5727 198.372 51.5727 200.15C51.5727 201.956 52.7907 203.006 54.1767 203.006C55.5907 203.006 56.7807 201.942 56.7807 200.136ZM61.0336 197.742C61.4956 196.93 62.5036 196.202 63.9036 196.202C65.9616 196.202 67.5436 197.742 67.5436 200.136C67.5436 202.516 65.9616 204.126 63.9036 204.126C62.5036 204.126 61.5096 203.37 61.0336 202.586V207.64H59.7596V196.328H61.0336V197.742ZM66.2416 200.136C66.2416 198.33 65.0516 197.308 63.6376 197.308C62.2516 197.308 61.0336 198.372 61.0336 200.15C61.0336 201.956 62.2516 203.006 63.6376 203.006C65.0516 203.006 66.2416 201.942 66.2416 200.136ZM69.2206 204V193.64H70.4946V204H69.2206ZM75.9279 197.28C74.6819 197.28 73.6459 198.106 73.5059 199.604H78.3499C78.3639 198.106 77.2439 197.28 75.9279 197.28ZM79.5119 201.634C79.1199 203.034 77.8879 204.126 75.9839 204.126C73.7999 204.126 72.1899 202.586 72.1899 200.15C72.1899 197.728 73.7439 196.202 75.9839 196.202C78.2099 196.202 79.6659 197.77 79.6659 199.87C79.6659 200.15 79.6519 200.374 79.6239 200.64H73.4919C73.5899 202.194 74.6819 203.048 75.9839 203.048C77.1319 203.048 77.8599 202.46 78.1399 201.634H79.5119ZM84.604 200.136C84.604 197.742 86.186 196.202 88.244 196.202C89.672 196.202 90.652 196.93 91.1 197.728V196.328H92.388V204H91.1V202.572C90.638 203.398 89.644 204.126 88.23 204.126C86.186 204.126 84.604 202.516 84.604 200.136ZM91.1 200.15C91.1 198.372 89.896 197.308 88.496 197.308C87.096 197.308 85.906 198.33 85.906 200.136C85.906 201.942 87.096 203.006 88.496 203.006C89.896 203.006 91.1 201.956 91.1 200.15ZM100.155 204V199.66C100.155 198.092 99.3009 197.294 98.0129 197.294C96.7109 197.294 95.8149 198.106 95.8149 199.758V204H94.5409V196.328H95.8149V197.42C96.3189 196.622 97.2429 196.188 98.2789 196.188C100.057 196.188 101.415 197.28 101.415 199.478V204H100.155ZM103.02 200.136C103.02 197.742 104.602 196.202 106.674 196.202C107.878 196.202 108.984 196.818 109.516 197.7V193.64H110.804V204H109.516V202.558C109.054 203.412 108.06 204.126 106.66 204.126C104.602 204.126 103.02 202.516 103.02 200.136ZM109.516 200.15C109.516 198.372 108.312 197.308 106.912 197.308C105.512 197.308 104.322 198.33 104.322 200.136C104.322 201.942 105.512 203.006 106.912 203.006C108.312 203.006 109.516 201.956 109.516 200.15ZM121.113 194.13C123.171 194.13 124.879 195.194 125.607 197.07H124.081C123.549 195.936 122.485 195.278 121.113 195.278C119.055 195.278 117.515 196.762 117.515 199.114C117.515 201.452 119.055 202.936 121.113 202.936C123.031 202.936 124.347 201.704 124.543 199.772H120.651V198.736H125.901V199.716C125.677 202.138 123.759 204.084 121.113 204.084C118.369 204.084 116.213 202.04 116.213 199.114C116.213 196.188 118.369 194.13 121.113 194.13ZM134.866 200.15C134.866 202.586 133.116 204.126 130.932 204.126C128.762 204.126 127.11 202.586 127.11 200.15C127.11 197.728 128.818 196.202 130.988 196.202C133.172 196.202 134.866 197.728 134.866 200.15ZM128.412 200.15C128.412 202.096 129.602 203.006 130.932 203.006C132.262 203.006 133.564 202.096 133.564 200.15C133.564 198.218 132.29 197.308 130.974 197.308C129.63 197.308 128.412 198.218 128.412 200.15ZM143.821 200.15C143.821 202.586 142.071 204.126 139.887 204.126C137.717 204.126 136.065 202.586 136.065 200.15C136.065 197.728 137.773 196.202 139.943 196.202C142.127 196.202 143.821 197.728 143.821 200.15ZM137.367 200.15C137.367 202.096 138.557 203.006 139.887 203.006C141.217 203.006 142.519 202.096 142.519 200.15C142.519 198.218 141.245 197.308 139.929 197.308C138.585 197.308 137.367 198.218 137.367 200.15ZM145.02 200.136C145.02 197.742 146.602 196.202 148.66 196.202C150.06 196.202 151.068 196.902 151.516 197.728V196.328H152.804V204.168C152.804 206.282 151.39 207.78 149.136 207.78C147.12 207.78 145.678 206.758 145.426 205.12H146.686C146.966 206.044 147.876 206.674 149.136 206.674C150.494 206.674 151.516 205.806 151.516 204.168V202.558C151.054 203.384 150.06 204.126 148.66 204.126C146.602 204.126 145.02 202.516 145.02 200.136ZM151.516 200.15C151.516 198.372 150.312 197.308 148.912 197.308C147.512 197.308 146.322 198.33 146.322 200.136C146.322 201.942 147.512 203.006 148.912 203.006C150.312 203.006 151.516 201.956 151.516 200.15ZM154.957 204V193.64H156.231V204H154.957ZM161.664 197.28C160.418 197.28 159.382 198.106 159.242 199.604H164.086C164.1 198.106 162.98 197.28 161.664 197.28ZM165.248 201.634C164.856 203.034 163.624 204.126 161.72 204.126C159.536 204.126 157.926 202.586 157.926 200.15C157.926 197.728 159.48 196.202 161.72 196.202C163.946 196.202 165.402 197.77 165.402 199.87C165.402 200.15 165.388 200.374 165.36 200.64H159.228C159.326 202.194 160.418 203.048 161.72 203.048C162.868 203.048 163.596 202.46 163.876 201.634H165.248ZM171.054 204V197.378H170.06V196.328H171.054V195.782C171.054 194.074 171.894 193.304 173.854 193.304V194.368C172.706 194.368 172.328 194.788 172.328 195.782V196.328H173.938V197.378H172.328V204H171.054ZM182.704 200.15C182.704 202.586 180.954 204.126 178.77 204.126C176.6 204.126 174.948 202.586 174.948 200.15C174.948 197.728 176.656 196.202 178.826 196.202C181.01 196.202 182.704 197.728 182.704 200.15ZM176.25 200.15C176.25 202.096 177.44 203.006 178.77 203.006C180.1 203.006 181.402 202.096 181.402 200.15C181.402 198.218 180.128 197.308 178.812 197.308C177.468 197.308 176.25 198.218 176.25 200.15ZM185.653 199.828V204H184.379V196.328H185.653V197.574C186.087 196.72 186.913 196.188 188.131 196.188V197.504H187.795C186.577 197.504 185.653 198.05 185.653 199.828ZM194.608 199.828V204H193.334V196.328H194.608V197.574C195.042 196.72 195.868 196.188 197.086 196.188V197.504H196.75C195.532 197.504 194.608 198.05 194.608 199.828ZM201.819 197.28C200.573 197.28 199.537 198.106 199.397 199.604H204.241C204.255 198.106 203.135 197.28 201.819 197.28ZM205.403 201.634C205.011 203.034 203.779 204.126 201.875 204.126C199.691 204.126 198.081 202.586 198.081 200.15C198.081 197.728 199.635 196.202 201.875 196.202C204.101 196.202 205.557 197.77 205.557 199.87C205.557 200.15 205.543 200.374 205.515 200.64H199.383C199.481 202.194 200.573 203.048 201.875 203.048C203.023 203.048 203.751 202.46 204.031 201.634H205.403ZM206.328 196.328H207.7L210.094 202.824L212.474 196.328H213.832L210.822 204H209.338L206.328 196.328ZM215.086 204V196.328H216.36V204H215.086ZM215.744 195.082C215.254 195.082 214.876 194.704 214.876 194.214C214.876 193.724 215.254 193.346 215.744 193.346C216.206 193.346 216.584 193.724 216.584 194.214C216.584 194.704 216.206 195.082 215.744 195.082ZM221.793 197.28C220.547 197.28 219.511 198.106 219.371 199.604H224.215C224.229 198.106 223.109 197.28 221.793 197.28ZM225.377 201.634C224.985 203.034 223.753 204.126 221.849 204.126C219.665 204.126 218.055 202.586 218.055 200.15C218.055 197.728 219.609 196.202 221.849 196.202C224.075 196.202 225.531 197.77 225.531 199.87C225.531 200.15 225.517 200.374 225.489 200.64H219.357C219.455 202.194 220.547 203.048 221.849 203.048C222.997 203.048 223.725 202.46 224.005 201.634H225.377ZM228.711 204L226.303 196.328H227.605L229.369 202.768L231.273 196.328H232.575L234.437 202.782L236.173 196.328H237.433L235.039 204H233.723L231.875 197.91L230.027 204H228.711ZM239.943 203.216C239.943 203.706 239.565 204.084 239.103 204.084C238.613 204.084 238.235 203.706 238.235 203.216C238.235 202.726 238.613 202.348 239.103 202.348C239.565 202.348 239.943 202.726 239.943 203.216Z" fill="#4F668E"/>
</svg>
