<svg width="246" height="245" viewBox="0 0 246 245" fill="none" xmlns="http://www.w3.org/2000/svg">
<path d="M70.9393 244.435C71.5251 245.021 72.4749 245.021 73.0607 244.435L82.6066 234.889C83.1924 234.303 83.1924 233.354 82.6066 232.768C82.0208 232.182 81.0711 232.182 80.4853 232.768L72 241.253L63.5147 232.768C62.9289 232.182 61.9792 232.182 61.3934 232.768C60.8076 233.354 60.8076 234.303 61.3934 234.889L70.9393 244.435ZM70.5 208.5V243.374H73.5V208.5H70.5Z" fill="#23D9AE"/>
<path d="M54.5042 32H30C14.536 32 2 44.536 2 60V182C2 197.464 14.536 210 30 210H73" stroke="#23D9AE" stroke-width="3"/>
<circle cx="73" cy="31" r="31" fill="#34B7F2"/>
<path d="M75.0732 19.0234V37.4346C75.0732 38.818 75.1341 39.7035 75.2559 40.0908C75.3776 40.4671 75.6322 40.777 76.0195 41.0205C76.4069 41.264 77.0267 41.3857 77.8789 41.3857H78.3936V42H66.54V41.3857H67.1377C68.1006 41.3857 68.7868 41.2751 69.1963 41.0537C69.6058 40.8324 69.8825 40.528 70.0264 40.1406C70.1702 39.7533 70.2422 38.8512 70.2422 37.4346V25.7637C70.2422 24.7233 70.1924 24.0758 70.0928 23.8213C69.9932 23.5557 69.805 23.3343 69.5283 23.1572C69.2627 22.9691 68.9528 22.875 68.5986 22.875C68.0342 22.875 67.348 23.0521 66.54 23.4062L66.2412 22.8086L74.5254 19.0234H75.0732Z" fill="white"/>
<path d="M24.5 89.96C25.98 89.96 27.2733 90.2533 28.38 90.84C29.4867 91.4267 30.34 92.2533 30.94 93.32C31.5533 94.3733 31.86 95.5933 31.86 96.98C31.86 98.3533 31.5533 99.5733 30.94 100.64C30.34 101.707 29.48 102.533 28.36 103.12C27.2533 103.707 25.9667 104 24.5 104H19.24V89.96H24.5ZM24.28 101.04C25.5733 101.04 26.58 100.687 27.3 99.98C28.02 99.2733 28.38 98.2733 28.38 96.98C28.38 95.6867 28.02 94.68 27.3 93.96C26.58 93.24 25.5733 92.88 24.28 92.88H22.66V101.04H24.28ZM35.4913 91.68C34.8913 91.68 34.3979 91.5067 34.0113 91.16C33.6379 90.8 33.4513 90.36 33.4513 89.84C33.4513 89.3067 33.6379 88.8667 34.0113 88.52C34.3979 88.16 34.8913 87.98 35.4913 87.98C36.0779 87.98 36.5579 88.16 36.9313 88.52C37.3179 88.8667 37.5113 89.3067 37.5113 89.84C37.5113 90.36 37.3179 90.8 36.9313 91.16C36.5579 91.5067 36.0779 91.68 35.4913 91.68ZM37.1913 92.84V104H33.7713V92.84H37.1913ZM44.2097 104.16C43.2364 104.16 42.3697 103.993 41.6097 103.66C40.8497 103.327 40.2497 102.873 39.8097 102.3C39.3697 101.713 39.123 101.06 39.0697 100.34H42.4497C42.4897 100.727 42.6697 101.04 42.9897 101.28C43.3097 101.52 43.703 101.64 44.1697 101.64C44.5964 101.64 44.923 101.56 45.1497 101.4C45.3897 101.227 45.5097 101.007 45.5097 100.74C45.5097 100.42 45.343 100.187 45.0097 100.04C44.6764 99.88 44.1364 99.7067 43.3897 99.52C42.5897 99.3333 41.923 99.14 41.3897 98.94C40.8564 98.7267 40.3964 98.4 40.0097 97.96C39.623 97.5067 39.4297 96.9 39.4297 96.14C39.4297 95.5 39.603 94.92 39.9497 94.4C40.3097 93.8667 40.8297 93.4467 41.5097 93.14C42.203 92.8333 43.023 92.68 43.9697 92.68C45.3697 92.68 46.4697 93.0267 47.2697 93.72C48.083 94.4133 48.5497 95.3333 48.6697 96.48H45.5097C45.4564 96.0933 45.283 95.7867 44.9897 95.56C44.7097 95.3333 44.3364 95.22 43.8697 95.22C43.4697 95.22 43.163 95.3 42.9497 95.46C42.7364 95.6067 42.6297 95.8133 42.6297 96.08C42.6297 96.4 42.7964 96.64 43.1297 96.8C43.4764 96.96 44.0097 97.12 44.7297 97.28C45.5564 97.4933 46.2297 97.7067 46.7497 97.92C47.2697 98.12 47.723 98.4533 48.1097 98.92C48.5097 99.3733 48.7164 99.9867 48.7297 100.76C48.7297 101.413 48.543 102 48.1697 102.52C47.8097 103.027 47.283 103.427 46.5897 103.72C45.9097 104.013 45.1164 104.16 44.2097 104.16ZM50.142 98.42C50.142 97.26 50.3754 96.2467 50.842 95.38C51.322 94.5133 51.982 93.8467 52.822 93.38C53.6754 92.9133 54.6487 92.68 55.742 92.68C57.142 92.68 58.3087 93.0467 59.242 93.78C60.1887 94.5133 60.8087 95.5467 61.102 96.88H57.462C57.1554 96.0267 56.562 95.6 55.682 95.6C55.0554 95.6 54.5554 95.8467 54.182 96.34C53.8087 96.82 53.622 97.5133 53.622 98.42C53.622 99.3267 53.8087 100.027 54.182 100.52C54.5554 101 55.0554 101.24 55.682 101.24C56.562 101.24 57.1554 100.813 57.462 99.96H61.102C60.8087 101.267 60.1887 102.293 59.242 103.04C58.2954 103.787 57.1287 104.16 55.742 104.16C54.6487 104.16 53.6754 103.927 52.822 103.46C51.982 102.993 51.322 102.327 50.842 101.46C50.3754 100.593 50.142 99.58 50.142 98.42ZM68.0114 104.16C66.9181 104.16 65.9314 103.927 65.0514 103.46C64.1847 102.993 63.4981 102.327 62.9914 101.46C62.4981 100.593 62.2514 99.58 62.2514 98.42C62.2514 97.2733 62.5047 96.2667 63.0114 95.4C63.5181 94.52 64.2114 93.8467 65.0914 93.38C65.9714 92.9133 66.9581 92.68 68.0514 92.68C69.1447 92.68 70.1314 92.9133 71.0114 93.38C71.8914 93.8467 72.5847 94.52 73.0914 95.4C73.5981 96.2667 73.8514 97.2733 73.8514 98.42C73.8514 99.5667 73.5914 100.58 73.0714 101.46C72.5647 102.327 71.8647 102.993 70.9714 103.46C70.0914 103.927 69.1047 104.16 68.0114 104.16ZM68.0114 101.2C68.6647 101.2 69.2181 100.96 69.6714 100.48C70.1381 100 70.3714 99.3133 70.3714 98.42C70.3714 97.5267 70.1447 96.84 69.6914 96.36C69.2514 95.88 68.7047 95.64 68.0514 95.64C67.3847 95.64 66.8314 95.88 66.3914 96.36C65.9514 96.8267 65.7314 97.5133 65.7314 98.42C65.7314 99.3133 65.9447 100 66.3714 100.48C66.8114 100.96 67.3581 101.2 68.0114 101.2ZM80.6858 100.8L83.1058 92.84H86.7458L82.7858 104H78.5658L74.6058 92.84H78.2658L80.6858 100.8ZM98.7053 98.24C98.7053 98.56 98.6853 98.8933 98.6453 99.24H90.9053C90.9586 99.9333 91.1786 100.467 91.5653 100.84C91.9653 101.2 92.452 101.38 93.0253 101.38C93.8786 101.38 94.472 101.02 94.8053 100.3H98.4453C98.2586 101.033 97.9186 101.693 97.4253 102.28C96.9453 102.867 96.3386 103.327 95.6053 103.66C94.872 103.993 94.052 104.16 93.1453 104.16C92.052 104.16 91.0786 103.927 90.2253 103.46C89.372 102.993 88.7053 102.327 88.2253 101.46C87.7453 100.593 87.5053 99.58 87.5053 98.42C87.5053 97.26 87.7386 96.2467 88.2053 95.38C88.6853 94.5133 89.352 93.8467 90.2053 93.38C91.0586 92.9133 92.0386 92.68 93.1453 92.68C94.2253 92.68 95.1853 92.9067 96.0253 93.36C96.8653 93.8133 97.5186 94.46 97.9853 95.3C98.4653 96.14 98.7053 97.12 98.7053 98.24ZM95.2053 97.34C95.2053 96.7533 95.0053 96.2867 94.6053 95.94C94.2053 95.5933 93.7053 95.42 93.1053 95.42C92.532 95.42 92.0453 95.5867 91.6453 95.92C91.2586 96.2533 91.0186 96.7267 90.9253 97.34H95.2053ZM103.93 94.7C104.33 94.0867 104.83 93.6067 105.43 93.26C106.03 92.9 106.696 92.72 107.43 92.72V96.34H106.49C105.636 96.34 104.996 96.5267 104.57 96.9C104.143 97.26 103.93 97.9 103.93 98.82V104H100.51V92.84H103.93V94.7ZM120.464 92.84L113.464 109.3H109.784L112.344 103.62L107.804 92.84H111.624L114.204 99.82L116.764 92.84H120.464Z" fill="#0051FB"/>
<path d="M19.078 131V121.242H20.352V131H19.078ZM28.1373 131V126.66C28.1373 125.092 27.2833 124.294 25.9953 124.294C24.6933 124.294 23.7973 125.106 23.7973 126.758V131H22.5233V123.328H23.7973V124.42C24.3013 123.622 25.2253 123.188 26.2613 123.188C28.0393 123.188 29.3973 124.28 29.3973 126.478V131H28.1373ZM35.4908 128.9V124.378H34.4968V123.328H35.4908V121.396H36.7648V123.328H38.7668V124.378H36.7648V128.9C36.7648 129.656 37.0448 129.922 37.8288 129.922H38.7668V131H37.6188C36.2608 131 35.4908 130.44 35.4908 128.9ZM40.3104 131V120.64H41.5844V124.434C42.0884 123.622 43.0404 123.188 44.1184 123.188C45.8264 123.188 47.1844 124.28 47.1844 126.478V131H45.9244V126.66C45.9244 125.092 45.0704 124.294 43.7824 124.294C42.4804 124.294 41.5844 125.106 41.5844 126.758V131H40.3104ZM49.2655 131V123.328H50.5395V131H49.2655ZM49.9235 122.082C49.4335 122.082 49.0555 121.704 49.0555 121.214C49.0555 120.724 49.4335 120.346 49.9235 120.346C50.3855 120.346 50.7635 120.724 50.7635 121.214C50.7635 121.704 50.3855 122.082 49.9235 122.082ZM58.2268 128.914C58.2268 130.174 57.1208 131.126 55.4268 131.126C53.6348 131.126 52.3748 130.146 52.2908 128.746H53.6068C53.6768 129.488 54.3348 130.048 55.4128 130.048C56.4208 130.048 56.9808 129.544 56.9808 128.914C56.9808 127.206 52.4448 128.2 52.4448 125.344C52.4448 124.168 53.5508 123.202 55.2588 123.202C56.9528 123.202 58.0728 124.112 58.1568 125.61H56.8828C56.8268 124.84 56.2388 124.28 55.2168 124.28C54.2788 124.28 53.7188 124.728 53.7188 125.344C53.7188 127.164 58.1708 126.17 58.2268 128.914ZM69.2737 128.914C69.2737 130.174 68.1677 131.126 66.4737 131.126C64.6817 131.126 63.4217 130.146 63.3377 128.746H64.6537C64.7237 129.488 65.3817 130.048 66.4597 130.048C67.4677 130.048 68.0277 129.544 68.0277 128.914C68.0277 127.206 63.4917 128.2 63.4917 125.344C63.4917 124.168 64.5977 123.202 66.3057 123.202C67.9997 123.202 69.1197 124.112 69.2037 125.61H67.9297C67.8737 124.84 67.2857 124.28 66.2637 124.28C65.3257 124.28 64.7657 124.728 64.7657 125.344C64.7657 127.164 69.2177 126.17 69.2737 128.914ZM71.3521 128.9V124.378H70.3581V123.328H71.3521V121.396H72.6261V123.328H74.6281V124.378H72.6261V128.9C72.6261 129.656 72.9061 129.922 73.6901 129.922H74.6281V131H73.4801C72.1221 131 71.3521 130.44 71.3521 128.9ZM75.6958 127.136C75.6958 124.742 77.2778 123.202 79.3358 123.202C80.7638 123.202 81.7438 123.93 82.1918 124.728V123.328H83.4798V131H82.1918V129.572C81.7298 130.398 80.7358 131.126 79.3218 131.126C77.2778 131.126 75.6958 129.516 75.6958 127.136ZM82.1918 127.15C82.1918 125.372 80.9878 124.308 79.5878 124.308C78.1878 124.308 76.9978 125.33 76.9978 127.136C76.9978 128.942 78.1878 130.006 79.5878 130.006C80.9878 130.006 82.1918 128.956 82.1918 127.15ZM85.1567 127.136C85.1567 124.742 86.7387 123.202 88.7967 123.202C90.1967 123.202 91.2047 123.902 91.6527 124.728V123.328H92.9407V131.168C92.9407 133.282 91.5267 134.78 89.2727 134.78C87.2567 134.78 85.8147 133.758 85.5627 132.12H86.8227C87.1027 133.044 88.0127 133.674 89.2727 133.674C90.6307 133.674 91.6527 132.806 91.6527 131.168V129.558C91.1907 130.384 90.1967 131.126 88.7967 131.126C86.7387 131.126 85.1567 129.516 85.1567 127.136ZM91.6527 127.15C91.6527 125.372 90.4487 124.308 89.0487 124.308C87.6487 124.308 86.4587 125.33 86.4587 127.136C86.4587 128.942 87.6487 130.006 89.0487 130.006C90.4487 130.006 91.6527 128.956 91.6527 127.15ZM98.3556 124.28C97.1096 124.28 96.0736 125.106 95.9336 126.604H100.778C100.792 125.106 99.6716 124.28 98.3556 124.28ZM101.94 128.634C101.548 130.034 100.316 131.126 98.4116 131.126C96.2276 131.126 94.6176 129.586 94.6176 127.15C94.6176 124.728 96.1716 123.202 98.4116 123.202C100.638 123.202 102.094 124.77 102.094 126.87C102.094 127.15 102.08 127.374 102.052 127.64H95.9196C96.0176 129.194 97.1096 130.048 98.4116 130.048C99.5596 130.048 100.288 129.46 100.568 128.634H101.94ZM109.006 131L106.598 123.328H107.9L109.664 129.768L111.568 123.328H112.87L114.732 129.782L116.468 123.328H117.728L115.334 131H114.018L112.17 124.91L110.322 131H109.006ZM122.254 124.28C121.008 124.28 119.972 125.106 119.832 126.604H124.676C124.69 125.106 123.57 124.28 122.254 124.28ZM125.838 128.634C125.446 130.034 124.214 131.126 122.31 131.126C120.126 131.126 118.516 129.586 118.516 127.15C118.516 124.728 120.07 123.202 122.31 123.202C124.536 123.202 125.992 124.77 125.992 126.87C125.992 127.15 125.978 127.374 125.95 127.64H119.818C119.916 129.194 121.008 130.048 122.31 130.048C123.458 130.048 124.186 129.46 124.466 128.634H125.838ZM142.48 131V126.66C142.48 125.092 141.64 124.294 140.38 124.294C139.092 124.294 138.21 125.12 138.21 126.772V131H136.95V126.66C136.95 125.092 136.11 124.294 134.85 124.294C133.562 124.294 132.68 125.12 132.68 126.772V131H131.406V123.328H132.68V124.434C133.184 123.622 134.094 123.188 135.102 123.188C136.362 123.188 137.412 123.748 137.916 124.896C138.364 123.79 139.456 123.188 140.632 123.188C142.382 123.188 143.74 124.28 143.74 126.478V131H142.48ZM145.354 127.136C145.354 124.742 146.936 123.202 148.994 123.202C150.422 123.202 151.402 123.93 151.85 124.728V123.328H153.138V131H151.85V129.572C151.388 130.398 150.394 131.126 148.98 131.126C146.936 131.126 145.354 129.516 145.354 127.136ZM151.85 127.15C151.85 125.372 150.646 124.308 149.246 124.308C147.846 124.308 146.656 125.33 146.656 127.136C146.656 128.942 147.846 130.006 149.246 130.006C150.646 130.006 151.85 128.956 151.85 127.15ZM156.565 124.742C157.027 123.93 158.035 123.202 159.435 123.202C161.493 123.202 163.075 124.742 163.075 127.136C163.075 129.516 161.493 131.126 159.435 131.126C158.035 131.126 157.041 130.37 156.565 129.586V134.64H155.291V123.328H156.565V124.742ZM161.773 127.136C161.773 125.33 160.583 124.308 159.169 124.308C157.783 124.308 156.565 125.372 156.565 127.15C156.565 128.956 157.783 130.006 159.169 130.006C160.583 130.006 161.773 128.942 161.773 127.136ZM175.764 127.15C175.764 129.586 174.014 131.126 171.83 131.126C169.66 131.126 168.008 129.586 168.008 127.15C168.008 124.728 169.716 123.202 171.886 123.202C174.07 123.202 175.764 124.728 175.764 127.15ZM169.31 127.15C169.31 129.096 170.5 130.006 171.83 130.006C173.16 130.006 174.462 129.096 174.462 127.15C174.462 125.218 173.188 124.308 171.872 124.308C170.528 124.308 169.31 125.218 169.31 127.15ZM184.243 123.328V131H182.969V129.866C182.479 130.664 181.541 131.112 180.519 131.112C178.755 131.112 177.369 130.02 177.369 127.822V123.328H178.629V127.654C178.629 129.208 179.483 130.006 180.771 130.006C182.087 130.006 182.969 129.194 182.969 127.542V123.328H184.243ZM186.674 128.9V124.378H185.68V123.328H186.674V121.396H187.948V123.328H189.95V124.378H187.948V128.9C187.948 129.656 188.228 129.922 189.012 129.922H189.95V131H188.802C187.444 131 186.674 130.44 186.674 128.9ZM198.138 129.544L200.518 123.328H201.834L197.214 134.612H195.898L197.41 130.916L194.316 123.328H195.73L198.138 129.544ZM210.395 127.15C210.395 129.586 208.645 131.126 206.461 131.126C204.291 131.126 202.639 129.586 202.639 127.15C202.639 124.728 204.347 123.202 206.517 123.202C208.701 123.202 210.395 124.728 210.395 127.15ZM203.941 127.15C203.941 129.096 205.131 130.006 206.461 130.006C207.791 130.006 209.093 129.096 209.093 127.15C209.093 125.218 207.819 124.308 206.503 124.308C205.159 124.308 203.941 125.218 203.941 127.15ZM218.874 123.328V131H217.6V129.866C217.11 130.664 216.172 131.112 215.15 131.112C213.386 131.112 212 130.02 212 127.822V123.328H213.26V127.654C213.26 129.208 214.114 130.006 215.402 130.006C216.718 130.006 217.6 129.194 217.6 127.542V123.328H218.874ZM222.299 126.828V131H221.025V123.328H222.299V124.574C222.733 123.72 223.559 123.188 224.777 123.188V124.504H224.441C223.223 124.504 222.299 125.05 222.299 126.828ZM24.594 148.914C24.594 150.174 23.488 151.126 21.794 151.126C20.002 151.126 18.742 150.146 18.658 148.746H19.974C20.044 149.488 20.702 150.048 21.78 150.048C22.788 150.048 23.348 149.544 23.348 148.914C23.348 147.206 18.812 148.2 18.812 145.344C18.812 144.168 19.918 143.202 21.626 143.202C23.32 143.202 24.44 144.112 24.524 145.61H23.25C23.194 144.84 22.606 144.28 21.584 144.28C20.646 144.28 20.086 144.728 20.086 145.344C20.086 147.164 24.538 146.17 24.594 148.914ZM33.6725 147.15C33.6725 149.586 31.9225 151.126 29.7385 151.126C27.5685 151.126 25.9165 149.586 25.9165 147.15C25.9165 144.728 27.6245 143.202 29.7945 143.202C31.9785 143.202 33.6725 144.728 33.6725 147.15ZM27.2185 147.15C27.2185 149.096 28.4085 150.006 29.7385 150.006C31.0685 150.006 32.3705 149.096 32.3705 147.15C32.3705 145.218 31.0965 144.308 29.7805 144.308C28.4365 144.308 27.2185 145.218 27.2185 147.15ZM35.5855 151V144.378H34.5915V143.328H35.5855V142.782C35.5855 141.074 36.4255 140.304 38.3855 140.304V141.368C37.2375 141.368 36.8595 141.788 36.8595 142.782V143.328H38.4695V144.378H36.8595V151H35.5855ZM40.235 148.9V144.378H39.241V143.328H40.235V141.396H41.509V143.328H43.511V144.378H41.509V148.9C41.509 149.656 41.789 149.922 42.573 149.922H43.511V151H42.363C41.005 151 40.235 150.44 40.235 148.9ZM46.5526 151L44.1446 143.328H45.4466L47.2106 149.768L49.1146 143.328H50.4166L52.2786 149.782L54.0146 143.328H55.2746L52.8806 151H51.5646L49.7166 144.91L47.8686 151H46.5526ZM56.0629 147.136C56.0629 144.742 57.6449 143.202 59.7029 143.202C61.1309 143.202 62.1109 143.93 62.5589 144.728V143.328H63.8469V151H62.5589V149.572C62.0969 150.398 61.1029 151.126 59.6889 151.126C57.6449 151.126 56.0629 149.516 56.0629 147.136ZM62.5589 147.15C62.5589 145.372 61.3549 144.308 59.9549 144.308C58.5549 144.308 57.3649 145.33 57.3649 147.136C57.3649 148.942 58.5549 150.006 59.9549 150.006C61.3549 150.006 62.5589 148.956 62.5589 147.15ZM67.2739 146.828V151H65.9999V143.328H67.2739V144.574C67.7079 143.72 68.5339 143.188 69.7519 143.188V144.504H69.4159C68.1979 144.504 67.2739 145.05 67.2739 146.828ZM74.4845 144.28C73.2385 144.28 72.2025 145.106 72.0625 146.604H76.9065C76.9205 145.106 75.8005 144.28 74.4845 144.28ZM78.0685 148.634C77.6765 150.034 76.4445 151.126 74.5405 151.126C72.3565 151.126 70.7465 149.586 70.7465 147.15C70.7465 144.728 72.3005 143.202 74.5405 143.202C76.7665 143.202 78.2225 144.77 78.2225 146.87C78.2225 147.15 78.2085 147.374 78.1805 147.64H72.0485C72.1465 149.194 73.2385 150.048 74.5405 150.048C75.6885 150.048 76.4165 149.46 76.6965 148.634H78.0685ZM83.1606 147.136C83.1606 144.742 84.7426 143.202 86.8006 143.202C88.2286 143.202 89.2086 143.93 89.6566 144.728V143.328H90.9446V151H89.6566V149.572C89.1946 150.398 88.2006 151.126 86.7866 151.126C84.7426 151.126 83.1606 149.516 83.1606 147.136ZM89.6566 147.15C89.6566 145.372 88.4526 144.308 87.0526 144.308C85.6526 144.308 84.4626 145.33 84.4626 147.136C84.4626 148.942 85.6526 150.006 87.0526 150.006C88.4526 150.006 89.6566 148.956 89.6566 147.15ZM98.7115 151V146.66C98.7115 145.092 97.8575 144.294 96.5695 144.294C95.2675 144.294 94.3715 145.106 94.3715 146.758V151H93.0975V143.328H94.3715V144.42C94.8755 143.622 95.7995 143.188 96.8355 143.188C98.6135 143.188 99.9715 144.28 99.9715 146.478V151H98.7115ZM101.577 147.136C101.577 144.742 103.159 143.202 105.231 143.202C106.435 143.202 107.541 143.818 108.073 144.7V140.64H109.361V151H108.073V149.558C107.611 150.412 106.617 151.126 105.217 151.126C103.159 151.126 101.577 149.516 101.577 147.136ZM108.073 147.15C108.073 145.372 106.869 144.308 105.469 144.308C104.069 144.308 102.879 145.33 102.879 147.136C102.879 148.942 104.069 150.006 105.469 150.006C106.869 150.006 108.073 148.956 108.073 147.15ZM114.77 147.136C114.77 144.742 116.352 143.202 118.424 143.202C119.628 143.202 120.734 143.818 121.266 144.7V140.64H122.554V151H121.266V149.558C120.804 150.412 119.81 151.126 118.41 151.126C116.352 151.126 114.77 149.516 114.77 147.136ZM121.266 147.15C121.266 145.372 120.062 144.308 118.662 144.308C117.262 144.308 116.072 145.33 116.072 147.136C116.072 148.942 117.262 150.006 118.662 150.006C120.062 150.006 121.266 148.956 121.266 147.15ZM127.969 144.28C126.723 144.28 125.687 145.106 125.547 146.604H130.391C130.405 145.106 129.285 144.28 127.969 144.28ZM131.553 148.634C131.161 150.034 129.929 151.126 128.025 151.126C125.841 151.126 124.231 149.586 124.231 147.15C124.231 144.728 125.785 143.202 128.025 143.202C130.251 143.202 131.707 144.77 131.707 146.87C131.707 147.15 131.693 147.374 131.665 147.64H125.533C125.631 149.194 126.723 150.048 128.025 150.048C129.173 150.048 129.901 149.46 130.181 148.634H131.553ZM133.669 148.9V144.378H132.675V143.328H133.669V141.396H134.943V143.328H136.945V144.378H134.943V148.9C134.943 149.656 135.223 149.922 136.007 149.922H136.945V151H135.797C134.439 151 133.669 150.44 133.669 148.9ZM141.75 144.28C140.504 144.28 139.468 145.106 139.328 146.604H144.172C144.186 145.106 143.066 144.28 141.75 144.28ZM145.334 148.634C144.942 150.034 143.71 151.126 141.806 151.126C139.622 151.126 138.012 149.586 138.012 147.15C138.012 144.728 139.566 143.202 141.806 143.202C144.032 143.202 145.488 144.77 145.488 146.87C145.488 147.15 145.474 147.374 145.446 147.64H139.314C139.412 149.194 140.504 150.048 141.806 150.048C142.954 150.048 143.682 149.46 143.962 148.634H145.334ZM148.444 146.828V151H147.17V143.328H148.444V144.574C148.878 143.72 149.704 143.188 150.922 143.188V144.504H150.586C149.368 144.504 148.444 145.05 148.444 146.828ZM163.466 151V146.66C163.466 145.092 162.626 144.294 161.366 144.294C160.078 144.294 159.196 145.12 159.196 146.772V151H157.936V146.66C157.936 145.092 157.096 144.294 155.836 144.294C154.548 144.294 153.666 145.12 153.666 146.772V151H152.392V143.328H153.666V144.434C154.17 143.622 155.08 143.188 156.088 143.188C157.348 143.188 158.398 143.748 158.902 144.896C159.35 143.79 160.442 143.188 161.618 143.188C163.368 143.188 164.726 144.28 164.726 146.478V151H163.466ZM166.816 151V143.328H168.09V151H166.816ZM167.474 142.082C166.984 142.082 166.606 141.704 166.606 141.214C166.606 140.724 166.984 140.346 167.474 140.346C167.936 140.346 168.314 140.724 168.314 141.214C168.314 141.704 167.936 142.082 167.474 142.082ZM175.876 151V146.66C175.876 145.092 175.022 144.294 173.734 144.294C172.432 144.294 171.536 145.106 171.536 146.758V151H170.262V143.328H171.536V144.42C172.04 143.622 172.964 143.188 174 143.188C175.778 143.188 177.136 144.28 177.136 146.478V151H175.876ZM182.479 144.28C181.233 144.28 180.197 145.106 180.057 146.604H184.901C184.915 145.106 183.795 144.28 182.479 144.28ZM186.063 148.634C185.671 150.034 184.439 151.126 182.535 151.126C180.351 151.126 178.741 149.586 178.741 147.15C178.741 144.728 180.295 143.202 182.535 143.202C184.761 143.202 186.217 144.77 186.217 146.87C186.217 147.15 186.203 147.374 186.175 147.64H180.043C180.141 149.194 181.233 150.048 182.535 150.048C183.683 150.048 184.411 149.46 184.691 148.634H186.063ZM19.358 168.9V164.378H18.364V163.328H19.358V161.396H20.632V163.328H22.634V164.378H20.632V168.9C20.632 169.656 20.912 169.922 21.696 169.922H22.634V171H21.486C20.128 171 19.358 170.44 19.358 168.9ZM31.4576 167.15C31.4576 169.586 29.7076 171.126 27.5236 171.126C25.3536 171.126 23.7016 169.586 23.7016 167.15C23.7016 164.728 25.4096 163.202 27.5796 163.202C29.7636 163.202 31.4576 164.728 31.4576 167.15ZM25.0036 167.15C25.0036 169.096 26.1936 170.006 27.5236 170.006C28.8536 170.006 30.1556 169.096 30.1556 167.15C30.1556 165.218 28.8816 164.308 27.5656 164.308C26.2216 164.308 25.0036 165.218 25.0036 167.15ZM32.6567 167.136C32.6567 164.742 34.2387 163.202 36.2967 163.202C37.6967 163.202 38.7047 163.902 39.1527 164.728V163.328H40.4407V171.168C40.4407 173.282 39.0267 174.78 36.7727 174.78C34.7567 174.78 33.3147 173.758 33.0627 172.12H34.3227C34.6027 173.044 35.5127 173.674 36.7727 173.674C38.1307 173.674 39.1527 172.806 39.1527 171.168V169.558C38.6907 170.384 37.6967 171.126 36.2967 171.126C34.2387 171.126 32.6567 169.516 32.6567 167.136ZM39.1527 167.15C39.1527 165.372 37.9487 164.308 36.5487 164.308C35.1487 164.308 33.9587 165.33 33.9587 167.136C33.9587 168.942 35.1487 170.006 36.5487 170.006C37.9487 170.006 39.1527 168.956 39.1527 167.15ZM45.8556 164.28C44.6096 164.28 43.5736 165.106 43.4336 166.604H48.2776C48.2916 165.106 47.1716 164.28 45.8556 164.28ZM49.4396 168.634C49.0476 170.034 47.8156 171.126 45.9116 171.126C43.7276 171.126 42.1176 169.586 42.1176 167.15C42.1176 164.728 43.6716 163.202 45.9116 163.202C48.1376 163.202 49.5936 164.77 49.5936 166.87C49.5936 167.15 49.5796 167.374 49.5516 167.64H43.4196C43.5176 169.194 44.6096 170.048 45.9116 170.048C47.0596 170.048 47.7876 169.46 48.0676 168.634H49.4396ZM51.5553 168.9V164.378H50.5613V163.328H51.5553V161.396H52.8293V163.328H54.8313V164.378H52.8293V168.9C52.8293 169.656 53.1093 169.922 53.8933 169.922H54.8313V171H53.6833C52.3253 171 51.5553 170.44 51.5553 168.9ZM56.3749 171V160.64H57.6489V164.434C58.1529 163.622 59.1049 163.188 60.1829 163.188C61.8909 163.188 63.2489 164.28 63.2489 166.478V171H61.9889V166.66C61.9889 165.092 61.1349 164.294 59.8469 164.294C58.5449 164.294 57.6489 165.106 57.6489 166.758V171H56.3749ZM68.592 164.28C67.346 164.28 66.31 165.106 66.17 166.604H71.014C71.028 165.106 69.908 164.28 68.592 164.28ZM72.176 168.634C71.784 170.034 70.552 171.126 68.648 171.126C66.464 171.126 64.854 169.586 64.854 167.15C64.854 164.728 66.408 163.202 68.648 163.202C70.874 163.202 72.33 164.77 72.33 166.87C72.33 167.15 72.316 167.374 72.288 167.64H66.156C66.254 169.194 67.346 170.048 68.648 170.048C69.796 170.048 70.524 169.46 70.804 168.634H72.176ZM75.2856 166.828V171H74.0116V163.328H75.2856V164.574C75.7196 163.72 76.5456 163.188 77.7636 163.188V164.504H77.4276C76.2096 164.504 75.2856 165.05 75.2856 166.828ZM84.4647 171L82.0567 163.328H83.3587L85.1227 169.768L87.0267 163.328H88.3287L90.1907 169.782L91.9267 163.328H93.1867L90.7927 171H89.4767L87.6287 164.91L85.7807 171H84.4647ZM94.451 171V160.64H95.725V164.434C96.229 163.622 97.181 163.188 98.259 163.188C99.967 163.188 101.325 164.28 101.325 166.478V171H100.065V166.66C100.065 165.092 99.211 164.294 97.923 164.294C96.621 164.294 95.725 165.106 95.725 166.758V171H94.451ZM102.93 167.136C102.93 164.742 104.512 163.202 106.57 163.202C107.998 163.202 108.978 163.93 109.426 164.728V163.328H110.714V171H109.426V169.572C108.964 170.398 107.97 171.126 106.556 171.126C104.512 171.126 102.93 169.516 102.93 167.136ZM109.426 167.15C109.426 165.372 108.222 164.308 106.822 164.308C105.422 164.308 104.232 165.33 104.232 167.136C104.232 168.942 105.422 170.006 106.822 170.006C108.222 170.006 109.426 168.956 109.426 167.15ZM113.147 168.9V164.378H112.153V163.328H113.147V161.396H114.421V163.328H116.423V164.378H114.421V168.9C114.421 169.656 114.701 169.922 115.485 169.922H116.423V171H115.275C113.917 171 113.147 170.44 113.147 168.9ZM121.937 171V164.378H120.943V163.328H121.937V162.782C121.937 161.074 122.777 160.304 124.737 160.304V161.368C123.589 161.368 123.211 161.788 123.211 162.782V163.328H124.821V164.378H123.211V171H121.937ZM129.569 164.28C128.323 164.28 127.287 165.106 127.147 166.604H131.991C132.005 165.106 130.885 164.28 129.569 164.28ZM133.153 168.634C132.761 170.034 131.529 171.126 129.625 171.126C127.441 171.126 125.831 169.586 125.831 167.15C125.831 164.728 127.385 163.202 129.625 163.202C131.851 163.202 133.307 164.77 133.307 166.87C133.307 167.15 133.293 167.374 133.265 167.64H127.133C127.231 169.194 128.323 170.048 129.625 170.048C130.773 170.048 131.501 169.46 131.781 168.634H133.153ZM134.512 167.136C134.512 164.742 136.094 163.202 138.152 163.202C139.58 163.202 140.56 163.93 141.008 164.728V163.328H142.296V171H141.008V169.572C140.546 170.398 139.552 171.126 138.138 171.126C136.094 171.126 134.512 169.516 134.512 167.136ZM141.008 167.15C141.008 165.372 139.804 164.308 138.404 164.308C137.004 164.308 135.814 165.33 135.814 167.136C135.814 168.942 137.004 170.006 138.404 170.006C139.804 170.006 141.008 168.956 141.008 167.15ZM144.729 168.9V164.378H143.735V163.328H144.729V161.396H146.003V163.328H148.005V164.378H146.003V168.9C146.003 169.656 146.283 169.922 147.067 169.922H148.005V171H146.857C145.499 171 144.729 170.44 144.729 168.9ZM156.353 163.328V171H155.079V169.866C154.589 170.664 153.651 171.112 152.629 171.112C150.865 171.112 149.479 170.02 149.479 167.822V163.328H150.739V167.654C150.739 169.208 151.593 170.006 152.881 170.006C154.197 170.006 155.079 169.194 155.079 167.542V163.328H156.353ZM159.778 166.828V171H158.504V163.328H159.778V164.574C160.212 163.72 161.038 163.188 162.256 163.188V164.504H161.92C160.702 164.504 159.778 165.05 159.778 166.828ZM166.988 164.28C165.742 164.28 164.706 165.106 164.566 166.604H169.41C169.424 165.106 168.304 164.28 166.988 164.28ZM170.572 168.634C170.18 170.034 168.948 171.126 167.044 171.126C164.86 171.126 163.25 169.586 163.25 167.15C163.25 164.728 164.804 163.202 167.044 163.202C169.27 163.202 170.726 164.77 170.726 166.87C170.726 167.15 170.712 167.374 170.684 167.64H164.552C164.65 169.194 165.742 170.048 167.044 170.048C168.192 170.048 168.92 169.46 169.2 168.634H170.572ZM177.924 168.914C177.924 170.174 176.818 171.126 175.124 171.126C173.332 171.126 172.072 170.146 171.988 168.746H173.304C173.374 169.488 174.032 170.048 175.11 170.048C176.118 170.048 176.678 169.544 176.678 168.914C176.678 167.206 172.142 168.2 172.142 165.344C172.142 164.168 173.248 163.202 174.956 163.202C176.65 163.202 177.77 164.112 177.854 165.61H176.58C176.524 164.84 175.936 164.28 174.914 164.28C173.976 164.28 173.416 164.728 173.416 165.344C173.416 167.164 177.868 166.17 177.924 168.914ZM188.971 168.914C188.971 170.174 187.865 171.126 186.171 171.126C184.379 171.126 183.119 170.146 183.035 168.746H184.351C184.421 169.488 185.079 170.048 186.157 170.048C187.165 170.048 187.725 169.544 187.725 168.914C187.725 167.206 183.189 168.2 183.189 165.344C183.189 164.168 184.295 163.202 186.003 163.202C187.697 163.202 188.817 164.112 188.901 165.61H187.627C187.571 164.84 186.983 164.28 185.961 164.28C185.023 164.28 184.463 164.728 184.463 165.344C184.463 167.164 188.915 166.17 188.971 168.914ZM190.769 171V160.64H192.043V164.434C192.547 163.622 193.499 163.188 194.577 163.188C196.285 163.188 197.643 164.28 197.643 166.478V171H196.383V166.66C196.383 165.092 195.529 164.294 194.241 164.294C192.939 164.294 192.043 165.106 192.043 166.758V171H190.769ZM207.004 167.15C207.004 169.586 205.254 171.126 203.07 171.126C200.9 171.126 199.248 169.586 199.248 167.15C199.248 164.728 200.956 163.202 203.126 163.202C205.31 163.202 207.004 164.728 207.004 167.15ZM200.55 167.15C200.55 169.096 201.74 170.006 203.07 170.006C204.4 170.006 205.702 169.096 205.702 167.15C205.702 165.218 204.428 164.308 203.112 164.308C201.768 164.308 200.55 165.218 200.55 167.15ZM215.484 163.328V171H214.21V169.866C213.72 170.664 212.782 171.112 211.76 171.112C209.996 171.112 208.61 170.02 208.61 167.822V163.328H209.87V167.654C209.87 169.208 210.724 170.006 212.012 170.006C213.328 170.006 214.21 169.194 214.21 167.542V163.328H215.484ZM217.635 171V160.64H218.909V171H217.635ZM220.604 167.136C220.604 164.742 222.186 163.202 224.258 163.202C225.462 163.202 226.568 163.818 227.1 164.7V160.64H228.388V171H227.1V169.558C226.638 170.412 225.644 171.126 224.244 171.126C222.186 171.126 220.604 169.516 220.604 167.136ZM227.1 167.15C227.1 165.372 225.896 164.308 224.496 164.308C223.096 164.308 221.906 165.33 221.906 167.136C221.906 168.942 223.096 170.006 224.496 170.006C225.896 170.006 227.1 168.956 227.1 167.15ZM20.352 184.756C20.842 183.902 21.864 183.202 23.222 183.202C25.294 183.202 26.862 184.742 26.862 187.136C26.862 189.516 25.28 191.126 23.222 191.126C21.822 191.126 20.828 190.426 20.352 189.586V191H19.078V180.64H20.352V184.756ZM25.56 187.136C25.56 185.33 24.37 184.308 22.956 184.308C21.57 184.308 20.352 185.372 20.352 187.15C20.352 188.956 21.57 190.006 22.956 190.006C24.37 190.006 25.56 188.942 25.56 187.136ZM31.8009 184.28C30.5549 184.28 29.5189 185.106 29.3789 186.604H34.2229C34.2369 185.106 33.1169 184.28 31.8009 184.28ZM35.3849 188.634C34.9929 190.034 33.7609 191.126 31.8569 191.126C29.6729 191.126 28.0629 189.586 28.0629 187.15C28.0629 184.728 29.6169 183.202 31.8569 183.202C34.0829 183.202 35.5389 184.77 35.5389 186.87C35.5389 187.15 35.5249 187.374 35.4969 187.64H29.3649C29.4629 189.194 30.5549 190.048 31.8569 190.048C33.0049 190.048 33.7329 189.46 34.0129 188.634H35.3849ZM40.953 191V183.328H42.227V191H40.953ZM41.611 182.082C41.121 182.082 40.743 181.704 40.743 181.214C40.743 180.724 41.121 180.346 41.611 180.346C42.073 180.346 42.451 180.724 42.451 181.214C42.451 181.704 42.073 182.082 41.611 182.082ZM50.0123 191V186.66C50.0123 185.092 49.1583 184.294 47.8703 184.294C46.5683 184.294 45.6723 185.106 45.6723 186.758V191H44.3983V183.328H45.6723V184.42C46.1763 183.622 47.1003 183.188 48.1363 183.188C49.9143 183.188 51.2723 184.28 51.2723 186.478V191H50.0123ZM52.8774 187.15C52.8774 184.742 54.4314 183.202 56.6154 183.202C58.5194 183.202 59.7654 184.182 60.1574 185.792H58.7854C58.5194 184.868 57.7494 184.28 56.6154 184.28C55.2154 184.28 54.1794 185.274 54.1794 187.15C54.1794 189.054 55.2154 190.048 56.6154 190.048C57.7494 190.048 58.5054 189.502 58.7854 188.536H60.1574C59.7654 190.062 58.5194 191.126 56.6154 191.126C54.4314 191.126 52.8774 189.586 52.8774 187.15ZM61.8573 191V180.64H63.1313V191H61.8573ZM72.1066 183.328V191H70.8326V189.866C70.3426 190.664 69.4046 191.112 68.3826 191.112C66.6186 191.112 65.2326 190.02 65.2326 187.822V183.328H66.4926V187.654C66.4926 189.208 67.3466 190.006 68.6346 190.006C69.9506 190.006 70.8326 189.194 70.8326 187.542V183.328H72.1066ZM73.7817 187.136C73.7817 184.742 75.3637 183.202 77.4357 183.202C78.6397 183.202 79.7457 183.818 80.2777 184.7V180.64H81.5657V191H80.2777V189.558C79.8157 190.412 78.8217 191.126 77.4217 191.126C75.3637 191.126 73.7817 189.516 73.7817 187.136ZM80.2777 187.15C80.2777 185.372 79.0737 184.308 77.6737 184.308C76.2737 184.308 75.0837 185.33 75.0837 187.136C75.0837 188.942 76.2737 190.006 77.6737 190.006C79.0737 190.006 80.2777 188.956 80.2777 187.15ZM86.9806 184.28C85.7346 184.28 84.6986 185.106 84.5586 186.604H89.4026C89.4166 185.106 88.2966 184.28 86.9806 184.28ZM90.5646 188.634C90.1726 190.034 88.9406 191.126 87.0366 191.126C84.8526 191.126 83.2426 189.586 83.2426 187.15C83.2426 184.728 84.7966 183.202 87.0366 183.202C89.2626 183.202 90.7186 184.77 90.7186 186.87C90.7186 187.15 90.7046 187.374 90.6766 187.64H84.5446C84.6426 189.194 85.7346 190.048 87.0366 190.048C88.1846 190.048 88.9126 189.46 89.1926 188.634H90.5646ZM91.9243 187.136C91.9243 184.742 93.5063 183.202 95.5783 183.202C96.7823 183.202 97.8883 183.818 98.4203 184.7V180.64H99.7083V191H98.4203V189.558C97.9583 190.412 96.9643 191.126 95.5643 191.126C93.5063 191.126 91.9243 189.516 91.9243 187.136ZM98.4203 187.15C98.4203 185.372 97.2163 184.308 95.8163 184.308C94.4163 184.308 93.2263 185.33 93.2263 187.136C93.2263 188.942 94.4163 190.006 95.8163 190.006C97.2163 190.006 98.4203 188.956 98.4203 187.15ZM105.594 191V183.328H106.868V191H105.594ZM106.252 182.082C105.762 182.082 105.384 181.704 105.384 181.214C105.384 180.724 105.762 180.346 106.252 180.346C106.714 180.346 107.092 180.724 107.092 181.214C107.092 181.704 106.714 182.082 106.252 182.082ZM114.653 191V186.66C114.653 185.092 113.799 184.294 112.511 184.294C111.209 184.294 110.313 185.106 110.313 186.758V191H109.039V183.328H110.313V184.42C110.817 183.622 111.741 183.188 112.777 183.188C114.555 183.188 115.913 184.28 115.913 186.478V191H114.653ZM124.638 189.544L127.018 183.328H128.334L123.714 194.612H122.398L123.91 190.916L120.816 183.328H122.23L124.638 189.544ZM136.895 187.15C136.895 189.586 135.145 191.126 132.961 191.126C130.791 191.126 129.139 189.586 129.139 187.15C129.139 184.728 130.847 183.202 133.017 183.202C135.201 183.202 136.895 184.728 136.895 187.15ZM130.441 187.15C130.441 189.096 131.631 190.006 132.961 190.006C134.291 190.006 135.593 189.096 135.593 187.15C135.593 185.218 134.319 184.308 133.003 184.308C131.659 184.308 130.441 185.218 130.441 187.15ZM145.374 183.328V191H144.1V189.866C143.61 190.664 142.672 191.112 141.65 191.112C139.886 191.112 138.5 190.02 138.5 187.822V183.328H139.76V187.654C139.76 189.208 140.614 190.006 141.902 190.006C143.218 190.006 144.1 189.194 144.1 187.542V183.328H145.374ZM148.799 186.828V191H147.525V183.328H148.799V184.574C149.233 183.72 150.059 183.188 151.277 183.188V184.504H150.941C149.723 184.504 148.799 185.05 148.799 186.828ZM161.996 188.914C161.996 190.174 160.89 191.126 159.196 191.126C157.404 191.126 156.144 190.146 156.06 188.746H157.376C157.446 189.488 158.104 190.048 159.182 190.048C160.19 190.048 160.75 189.544 160.75 188.914C160.75 187.206 156.214 188.2 156.214 185.344C156.214 184.168 157.32 183.202 159.028 183.202C160.722 183.202 161.842 184.112 161.926 185.61H160.652C160.596 184.84 160.008 184.28 158.986 184.28C158.048 184.28 157.488 184.728 157.488 185.344C157.488 187.164 161.94 186.17 161.996 188.914ZM163.319 187.15C163.319 184.742 164.873 183.202 167.057 183.202C168.961 183.202 170.207 184.182 170.599 185.792H169.227C168.961 184.868 168.191 184.28 167.057 184.28C165.657 184.28 164.621 185.274 164.621 187.15C164.621 189.054 165.657 190.048 167.057 190.048C168.191 190.048 168.947 189.502 169.227 188.536H170.599C170.207 190.062 168.961 191.126 167.057 191.126C164.873 191.126 163.319 189.586 163.319 187.15ZM179.579 187.15C179.579 189.586 177.829 191.126 175.645 191.126C173.475 191.126 171.823 189.586 171.823 187.15C171.823 184.728 173.531 183.202 175.701 183.202C177.885 183.202 179.579 184.728 179.579 187.15ZM173.125 187.15C173.125 189.096 174.315 190.006 175.645 190.006C176.975 190.006 178.277 189.096 178.277 187.15C178.277 185.218 177.003 184.308 175.687 184.308C174.343 184.308 173.125 185.218 173.125 187.15ZM182.528 184.742C182.99 183.93 183.998 183.202 185.398 183.202C187.456 183.202 189.038 184.742 189.038 187.136C189.038 189.516 187.456 191.126 185.398 191.126C183.998 191.126 183.004 190.37 182.528 189.586V194.64H181.254V183.328H182.528V184.742ZM187.736 187.136C187.736 185.33 186.546 184.308 185.132 184.308C183.746 184.308 182.528 185.372 182.528 187.15C182.528 188.956 183.746 190.006 185.132 190.006C186.546 190.006 187.736 188.942 187.736 187.136ZM193.977 184.28C192.731 184.28 191.695 185.106 191.555 186.604H196.399C196.413 185.106 195.293 184.28 193.977 184.28ZM197.561 188.634C197.169 190.034 195.937 191.126 194.033 191.126C191.849 191.126 190.239 189.586 190.239 187.15C190.239 184.728 191.793 183.202 194.033 183.202C196.259 183.202 197.715 184.77 197.715 186.87C197.715 187.15 197.701 187.374 197.673 187.64H191.541C191.639 189.194 192.731 190.048 194.033 190.048C195.181 190.048 195.909 189.46 196.189 188.634H197.561ZM200.642 190.216C200.642 190.706 200.264 191.084 199.802 191.084C199.312 191.084 198.934 190.706 198.934 190.216C198.934 189.726 199.312 189.348 199.802 189.348C200.264 189.348 200.642 189.726 200.642 190.216Z" fill="#4F668E"/>
</svg>
