<svg width="250" height="286" viewBox="0 0 250 286" fill="none" xmlns="http://www.w3.org/2000/svg">
<path d="M85.563 26H30C14.536 26 2 38.536 2 54V256C2 271.464 14.536 284 30 284H115" stroke="#23D9AE" stroke-width="3"/>
<circle cx="73" cy="25" r="25" fill="#34B7F2"/>
<path d="M39.14 82.96V97H35.72V88.58L32.58 97H29.82L26.66 88.56V97H23.24V82.96H27.28L31.22 92.68L35.12 82.96H39.14ZM40.9194 91.4C40.9194 90.2533 41.1327 89.2467 41.5594 88.38C41.9994 87.5133 42.5927 86.8467 43.3394 86.38C44.086 85.9133 44.9194 85.68 45.8394 85.68C46.626 85.68 47.3127 85.84 47.8994 86.16C48.4994 86.48 48.9594 86.9 49.2794 87.42V85.84H52.6994V97H49.2794V95.42C48.946 95.94 48.4794 96.36 47.8794 96.68C47.2927 97 46.606 97.16 45.8194 97.16C44.9127 97.16 44.086 96.9267 43.3394 96.46C42.5927 95.98 41.9994 95.3067 41.5594 94.44C41.1327 93.56 40.9194 92.5467 40.9194 91.4ZM49.2794 91.42C49.2794 90.5667 49.0394 89.8933 48.5594 89.4C48.0927 88.9067 47.5194 88.66 46.8394 88.66C46.1594 88.66 45.5794 88.9067 45.0994 89.4C44.6327 89.88 44.3994 90.5467 44.3994 91.4C44.3994 92.2533 44.6327 92.9333 45.0994 93.44C45.5794 93.9333 46.1594 94.18 46.8394 94.18C47.5194 94.18 48.0927 93.9333 48.5594 93.44C49.0394 92.9467 49.2794 92.2733 49.2794 91.42ZM56.8936 84.68C56.2936 84.68 55.8003 84.5067 55.4136 84.16C55.0403 83.8 54.8536 83.36 54.8536 82.84C54.8536 82.3067 55.0403 81.8667 55.4136 81.52C55.8003 81.16 56.2936 80.98 56.8936 80.98C57.4803 80.98 57.9603 81.16 58.3336 81.52C58.7203 81.8667 58.9136 82.3067 58.9136 82.84C58.9136 83.36 58.7203 83.8 58.3336 84.16C57.9603 84.5067 57.4803 84.68 56.8936 84.68ZM58.5936 85.84V97H55.1736V85.84H58.5936ZM67.872 85.72C69.1787 85.72 70.2187 86.1467 70.992 87C71.7787 87.84 72.172 89 72.172 90.48V97H68.772V90.94C68.772 90.1933 68.5787 89.6133 68.192 89.2C67.8054 88.7867 67.2854 88.58 66.632 88.58C65.9787 88.58 65.4587 88.7867 65.072 89.2C64.6854 89.6133 64.492 90.1933 64.492 90.94V97H61.072V85.84H64.492V87.32C64.8387 86.8267 65.3054 86.44 65.892 86.16C66.4787 85.8667 67.1387 85.72 67.872 85.72ZM80.7686 94.1V97H79.0286C77.7886 97 76.8219 96.7 76.1286 96.1C75.4353 95.4867 75.0886 94.4933 75.0886 93.12V88.68H73.7286V85.84H75.0886V83.12H78.5086V85.84H80.7486V88.68H78.5086V93.16C78.5086 93.4933 78.5886 93.7333 78.7486 93.88C78.9086 94.0267 79.1753 94.1 79.5486 94.1H80.7686ZM93.1936 91.24C93.1936 91.56 93.1736 91.8933 93.1336 92.24H85.3936C85.4469 92.9333 85.6669 93.4667 86.0536 93.84C86.4536 94.2 86.9403 94.38 87.5136 94.38C88.3669 94.38 88.9603 94.02 89.2936 93.3H92.9336C92.7469 94.0333 92.4069 94.6933 91.9136 95.28C91.4336 95.8667 90.8269 96.3267 90.0936 96.66C89.3603 96.9933 88.5403 97.16 87.6336 97.16C86.5403 97.16 85.5669 96.9267 84.7136 96.46C83.8603 95.9933 83.1936 95.3267 82.7136 94.46C82.2336 93.5933 81.9936 92.58 81.9936 91.42C81.9936 90.26 82.2269 89.2467 82.6936 88.38C83.1736 87.5133 83.8403 86.8467 84.6936 86.38C85.5469 85.9133 86.5269 85.68 87.6336 85.68C88.7136 85.68 89.6736 85.9067 90.5136 86.36C91.3536 86.8133 92.0069 87.46 92.4736 88.3C92.9536 89.14 93.1936 90.12 93.1936 91.24ZM89.6936 90.34C89.6936 89.7533 89.4936 89.2867 89.0936 88.94C88.6936 88.5933 88.1936 88.42 87.5936 88.42C87.0203 88.42 86.5336 88.5867 86.1336 88.92C85.7469 89.2533 85.5069 89.7267 85.4136 90.34H89.6936ZM101.798 85.72C103.104 85.72 104.144 86.1467 104.918 87C105.704 87.84 106.098 89 106.098 90.48V97H102.698V90.94C102.698 90.1933 102.504 89.6133 102.118 89.2C101.731 88.7867 101.211 88.58 100.558 88.58C99.9045 88.58 99.3845 88.7867 98.9978 89.2C98.6111 89.6133 98.4178 90.1933 98.4178 90.94V97H94.9978V85.84H98.4178V87.32C98.7645 86.8267 99.2311 86.44 99.8178 86.16C100.404 85.8667 101.064 85.72 101.798 85.72ZM107.794 91.4C107.794 90.2533 108.008 89.2467 108.434 88.38C108.874 87.5133 109.468 86.8467 110.214 86.38C110.961 85.9133 111.794 85.68 112.714 85.68C113.501 85.68 114.188 85.84 114.774 86.16C115.374 86.48 115.834 86.9 116.154 87.42V85.84H119.574V97H116.154V95.42C115.821 95.94 115.354 96.36 114.754 96.68C114.168 97 113.481 97.16 112.694 97.16C111.788 97.16 110.961 96.9267 110.214 96.46C109.468 95.98 108.874 95.3067 108.434 94.44C108.008 93.56 107.794 92.5467 107.794 91.4ZM116.154 91.42C116.154 90.5667 115.914 89.8933 115.434 89.4C114.968 88.9067 114.394 88.66 113.714 88.66C113.034 88.66 112.454 88.9067 111.974 89.4C111.508 89.88 111.274 90.5467 111.274 91.4C111.274 92.2533 111.508 92.9333 111.974 93.44C112.454 93.9333 113.034 94.18 113.714 94.18C114.394 94.18 114.968 93.9333 115.434 93.44C115.914 92.9467 116.154 92.2733 116.154 91.42ZM128.849 85.72C130.155 85.72 131.195 86.1467 131.969 87C132.755 87.84 133.149 89 133.149 90.48V97H129.749V90.94C129.749 90.1933 129.555 89.6133 129.169 89.2C128.782 88.7867 128.262 88.58 127.609 88.58C126.955 88.58 126.435 88.7867 126.049 89.2C125.662 89.6133 125.469 90.1933 125.469 90.94V97H122.049V85.84H125.469V87.32C125.815 86.8267 126.282 86.44 126.869 86.16C127.455 85.8667 128.115 85.72 128.849 85.72ZM134.845 91.42C134.845 90.26 135.078 89.2467 135.545 88.38C136.025 87.5133 136.685 86.8467 137.525 86.38C138.378 85.9133 139.352 85.68 140.445 85.68C141.845 85.68 143.012 86.0467 143.945 86.78C144.892 87.5133 145.512 88.5467 145.805 89.88H142.165C141.858 89.0267 141.265 88.6 140.385 88.6C139.758 88.6 139.258 88.8467 138.885 89.34C138.512 89.82 138.325 90.5133 138.325 91.42C138.325 92.3267 138.512 93.0267 138.885 93.52C139.258 94 139.758 94.24 140.385 94.24C141.265 94.24 141.858 93.8133 142.165 92.96H145.805C145.512 94.2667 144.892 95.2933 143.945 96.04C142.998 96.7867 141.832 97.16 140.445 97.16C139.352 97.16 138.378 96.9267 137.525 96.46C136.685 95.9933 136.025 95.3267 135.545 94.46C135.078 93.5933 134.845 92.58 134.845 91.42ZM158.155 91.24C158.155 91.56 158.135 91.8933 158.095 92.24H150.355C150.408 92.9333 150.628 93.4667 151.015 93.84C151.415 94.2 151.901 94.38 152.475 94.38C153.328 94.38 153.921 94.02 154.255 93.3H157.895C157.708 94.0333 157.368 94.6933 156.875 95.28C156.395 95.8667 155.788 96.3267 155.055 96.66C154.321 96.9933 153.501 97.16 152.595 97.16C151.501 97.16 150.528 96.9267 149.675 96.46C148.821 95.9933 148.155 95.3267 147.675 94.46C147.195 93.5933 146.955 92.58 146.955 91.42C146.955 90.26 147.188 89.2467 147.655 88.38C148.135 87.5133 148.801 86.8467 149.655 86.38C150.508 85.9133 151.488 85.68 152.595 85.68C153.675 85.68 154.635 85.9067 155.475 86.36C156.315 86.8133 156.968 87.46 157.435 88.3C157.915 89.14 158.155 90.12 158.155 91.24ZM154.655 90.34C154.655 89.7533 154.455 89.2867 154.055 88.94C153.655 88.5933 153.155 88.42 152.555 88.42C151.981 88.42 151.495 88.5867 151.095 88.92C150.708 89.2533 150.468 89.7267 150.375 90.34H154.655ZM174.937 97L173.637 95.74C172.344 96.7267 170.797 97.22 168.997 97.22C167.917 97.22 166.977 97.0467 166.177 96.7C165.377 96.34 164.757 95.84 164.317 95.2C163.89 94.5467 163.677 93.7867 163.677 92.92C163.677 92.04 163.91 91.2467 164.377 90.54C164.857 89.82 165.57 89.2333 166.517 88.78C166.17 88.3533 165.924 87.9467 165.777 87.56C165.63 87.16 165.557 86.7267 165.557 86.26C165.557 85.5933 165.73 84.9867 166.077 84.44C166.424 83.8933 166.924 83.4667 167.577 83.16C168.244 82.84 169.03 82.68 169.937 82.68C170.857 82.68 171.637 82.8467 172.277 83.18C172.917 83.5133 173.397 83.96 173.717 84.52C174.037 85.08 174.184 85.6933 174.157 86.36H170.937C170.95 86 170.857 85.7267 170.657 85.54C170.47 85.34 170.217 85.24 169.897 85.24C169.577 85.24 169.31 85.3333 169.097 85.52C168.884 85.7067 168.777 85.9467 168.777 86.24C168.777 86.52 168.864 86.8133 169.037 87.12C169.224 87.4267 169.51 87.78 169.897 88.18L173.317 91.52C173.344 91.4533 173.377 91.3733 173.417 91.28C173.47 91.1867 173.524 91.08 173.577 90.96L174.317 89.7H177.737L176.777 91.44C176.417 92.2267 176.004 92.9733 175.537 93.68L178.917 97H174.937ZM169.157 94.46C170.05 94.46 170.844 94.2067 171.537 93.7L168.417 90.68C167.457 91.1733 166.977 91.84 166.977 92.68C166.977 93.1867 167.17 93.6133 167.557 93.96C167.957 94.2933 168.49 94.46 169.157 94.46ZM26.6 112.96V121.36C26.6 122.2 26.8067 122.847 27.22 123.3C27.6333 123.753 28.24 123.98 29.04 123.98C29.84 123.98 30.4533 123.753 30.88 123.3C31.3067 122.847 31.52 122.2 31.52 121.36V112.96H34.94V121.34C34.94 122.593 34.6733 123.653 34.14 124.52C33.6067 125.387 32.8867 126.04 31.98 126.48C31.0867 126.92 30.0867 127.14 28.98 127.14C27.8733 127.14 26.88 126.927 26 126.5C25.1333 126.06 24.4467 125.407 23.94 124.54C23.4333 123.66 23.18 122.593 23.18 121.34V112.96H26.6ZM40.7616 117.42C41.0949 116.9 41.5549 116.48 42.1416 116.16C42.7282 115.84 43.4149 115.68 44.2016 115.68C45.1216 115.68 45.9549 115.913 46.7016 116.38C47.4482 116.847 48.0349 117.513 48.4616 118.38C48.9016 119.247 49.1216 120.253 49.1216 121.4C49.1216 122.547 48.9016 123.56 48.4616 124.44C48.0349 125.307 47.4482 125.98 46.7016 126.46C45.9549 126.927 45.1216 127.16 44.2016 127.16C43.4282 127.16 42.7416 127 42.1416 126.68C41.5549 126.36 41.0949 125.947 40.7616 125.44V132.32H37.3416V115.84H40.7616V117.42ZM45.6416 121.4C45.6416 120.547 45.4016 119.88 44.9216 119.4C44.4549 118.907 43.8749 118.66 43.1816 118.66C42.5016 118.66 41.9216 118.907 41.4416 119.4C40.9749 119.893 40.7416 120.567 40.7416 121.42C40.7416 122.273 40.9749 122.947 41.4416 123.44C41.9216 123.933 42.5016 124.18 43.1816 124.18C43.8616 124.18 44.4416 123.933 44.9216 123.44C45.4016 122.933 45.6416 122.253 45.6416 121.4ZM55.1558 115.68C55.9424 115.68 56.6291 115.84 57.2158 116.16C57.8158 116.48 58.2758 116.9 58.5958 117.42V115.84H62.0158V126.98C62.0158 128.007 61.8091 128.933 61.3958 129.76C60.9958 130.6 60.3758 131.267 59.5358 131.76C58.7091 132.253 57.6758 132.5 56.4358 132.5C54.7824 132.5 53.4424 132.107 52.4158 131.32C51.3891 130.547 50.8024 129.493 50.6558 128.16H54.0358C54.1424 128.587 54.3958 128.92 54.7958 129.16C55.1958 129.413 55.6891 129.54 56.2758 129.54C56.9824 129.54 57.5424 129.333 57.9558 128.92C58.3824 128.52 58.5958 127.873 58.5958 126.98V125.4C58.2624 125.92 57.8024 126.347 57.2158 126.68C56.6291 127 55.9424 127.16 55.1558 127.16C54.2358 127.16 53.4024 126.927 52.6558 126.46C51.9091 125.98 51.3158 125.307 50.8758 124.44C50.4491 123.56 50.2358 122.547 50.2358 121.4C50.2358 120.253 50.4491 119.247 50.8758 118.38C51.3158 117.513 51.9091 116.847 52.6558 116.38C53.4024 115.913 54.2358 115.68 55.1558 115.68ZM58.5958 121.42C58.5958 120.567 58.3558 119.893 57.8758 119.4C57.4091 118.907 56.8358 118.66 56.1558 118.66C55.4758 118.66 54.8958 118.907 54.4158 119.4C53.9491 119.88 53.7158 120.547 53.7158 121.4C53.7158 122.253 53.9491 122.933 54.4158 123.44C54.8958 123.933 55.4758 124.18 56.1558 124.18C56.8358 124.18 57.4091 123.933 57.8758 123.44C58.3558 122.947 58.5958 122.273 58.5958 121.42ZM67.91 117.7C68.31 117.087 68.81 116.607 69.41 116.26C70.01 115.9 70.6767 115.72 71.41 115.72V119.34H70.47C69.6167 119.34 68.9767 119.527 68.55 119.9C68.1233 120.26 67.91 120.9 67.91 121.82V127H64.49V115.84H67.91V117.7ZM72.3647 121.4C72.3647 120.253 72.578 119.247 73.0047 118.38C73.4447 117.513 74.038 116.847 74.7847 116.38C75.5314 115.913 76.3647 115.68 77.2847 115.68C78.0714 115.68 78.758 115.84 79.3447 116.16C79.9447 116.48 80.4047 116.9 80.7247 117.42V115.84H84.1447V127H80.7247V125.42C80.3914 125.94 79.9247 126.36 79.3247 126.68C78.738 127 78.0514 127.16 77.2647 127.16C76.358 127.16 75.5314 126.927 74.7847 126.46C74.038 125.98 73.4447 125.307 73.0047 124.44C72.578 123.56 72.3647 122.547 72.3647 121.4ZM80.7247 121.42C80.7247 120.567 80.4847 119.893 80.0047 119.4C79.538 118.907 78.9647 118.66 78.2847 118.66C77.6047 118.66 77.0247 118.907 76.5447 119.4C76.078 119.88 75.8447 120.547 75.8447 121.4C75.8447 122.253 76.078 122.933 76.5447 123.44C77.0247 123.933 77.6047 124.18 78.2847 124.18C78.9647 124.18 79.538 123.933 80.0047 123.44C80.4847 122.947 80.7247 122.273 80.7247 121.42ZM85.9389 121.4C85.9389 120.253 86.1522 119.247 86.5789 118.38C87.0189 117.513 87.6122 116.847 88.3589 116.38C89.1056 115.913 89.9389 115.68 90.8589 115.68C91.5922 115.68 92.2589 115.833 92.8589 116.14C93.4722 116.447 93.9522 116.86 94.2989 117.38V112.2H97.7189V127H94.2989V125.4C93.9789 125.933 93.5189 126.36 92.9189 126.68C92.3322 127 91.6456 127.16 90.8589 127.16C89.9389 127.16 89.1056 126.927 88.3589 126.46C87.6122 125.98 87.0189 125.307 86.5789 124.44C86.1522 123.56 85.9389 122.547 85.9389 121.4ZM94.2989 121.42C94.2989 120.567 94.0589 119.893 93.5789 119.4C93.1122 118.907 92.5389 118.66 91.8589 118.66C91.1789 118.66 90.5989 118.907 90.1189 119.4C89.6522 119.88 89.4189 120.547 89.4189 121.4C89.4189 122.253 89.6522 122.933 90.1189 123.44C90.5989 123.933 91.1789 124.18 91.8589 124.18C92.5389 124.18 93.1122 123.933 93.5789 123.44C94.0589 122.947 94.2989 122.273 94.2989 121.42ZM110.713 121.24C110.713 121.56 110.693 121.893 110.653 122.24H102.913C102.966 122.933 103.186 123.467 103.573 123.84C103.973 124.2 104.46 124.38 105.033 124.38C105.886 124.38 106.48 124.02 106.813 123.3H110.453C110.266 124.033 109.926 124.693 109.433 125.28C108.953 125.867 108.346 126.327 107.613 126.66C106.88 126.993 106.06 127.16 105.153 127.16C104.06 127.16 103.086 126.927 102.233 126.46C101.38 125.993 100.713 125.327 100.233 124.46C99.7531 123.593 99.5131 122.58 99.5131 121.42C99.5131 120.26 99.7465 119.247 100.213 118.38C100.693 117.513 101.36 116.847 102.213 116.38C103.066 115.913 104.046 115.68 105.153 115.68C106.233 115.68 107.193 115.907 108.033 116.36C108.873 116.813 109.526 117.46 109.993 118.3C110.473 119.14 110.713 120.12 110.713 121.24ZM107.213 120.34C107.213 119.753 107.013 119.287 106.613 118.94C106.213 118.593 105.713 118.42 105.113 118.42C104.54 118.42 104.053 118.587 103.653 118.92C103.266 119.253 103.026 119.727 102.933 120.34H107.213ZM117.057 127.16C116.084 127.16 115.217 126.993 114.457 126.66C113.697 126.327 113.097 125.873 112.657 125.3C112.217 124.713 111.971 124.06 111.917 123.34H115.297C115.337 123.727 115.517 124.04 115.837 124.28C116.157 124.52 116.551 124.64 117.017 124.64C117.444 124.64 117.771 124.56 117.997 124.4C118.237 124.227 118.357 124.007 118.357 123.74C118.357 123.42 118.191 123.187 117.857 123.04C117.524 122.88 116.984 122.707 116.237 122.52C115.437 122.333 114.771 122.14 114.237 121.94C113.704 121.727 113.244 121.4 112.857 120.96C112.471 120.507 112.277 119.9 112.277 119.14C112.277 118.5 112.451 117.92 112.797 117.4C113.157 116.867 113.677 116.447 114.357 116.14C115.051 115.833 115.871 115.68 116.817 115.68C118.217 115.68 119.317 116.027 120.117 116.72C120.931 117.413 121.397 118.333 121.517 119.48H118.357C118.304 119.093 118.131 118.787 117.837 118.56C117.557 118.333 117.184 118.22 116.717 118.22C116.317 118.22 116.011 118.3 115.797 118.46C115.584 118.607 115.477 118.813 115.477 119.08C115.477 119.4 115.644 119.64 115.977 119.8C116.324 119.96 116.857 120.12 117.577 120.28C118.404 120.493 119.077 120.707 119.597 120.92C120.117 121.12 120.571 121.453 120.957 121.92C121.357 122.373 121.564 122.987 121.577 123.76C121.577 124.413 121.391 125 121.017 125.52C120.657 126.027 120.131 126.427 119.437 126.72C118.757 127.013 117.964 127.16 117.057 127.16Z" fill="#336082"/>
<path d="M70.2539 32.3281L74.5781 19.2148H71.2852C69.9961 19.2148 69.0273 19.3828 68.3789 19.7188C67.9258 19.9531 67.5508 20.3945 67.2539 21.043H66.8086L67.957 16.1094H77.4258L72.0938 32.3281H70.2539Z" fill="white"/>
<path d="M29.476 150.228H30.75V160H29.476L24.352 152.23V160H23.078V150.228H24.352L29.476 157.984V150.228ZM40.2018 156.15C40.2018 158.586 38.4518 160.126 36.2678 160.126C34.0978 160.126 32.4458 158.586 32.4458 156.15C32.4458 153.728 34.1538 152.202 36.3238 152.202C38.5078 152.202 40.2018 153.728 40.2018 156.15ZM33.7478 156.15C33.7478 158.096 34.9378 159.006 36.2678 159.006C37.5978 159.006 38.8998 158.096 38.8998 156.15C38.8998 154.218 37.6258 153.308 36.3098 153.308C34.9658 153.308 33.7478 154.218 33.7478 156.15ZM43.3748 160L40.9668 152.328H42.2688L44.0328 158.768L45.9368 152.328H47.2388L49.1008 158.782L50.8368 152.328H52.0968L49.7028 160H48.3868L46.5388 153.91L44.6908 160H43.3748ZM57.3736 157.9V153.378H56.3796V152.328H57.3736V150.396H58.6476V152.328H60.6496V153.378H58.6476V157.9C58.6476 158.656 58.9276 158.922 59.7116 158.922H60.6496V160H59.5016C58.1436 160 57.3736 159.44 57.3736 157.9ZM62.1932 160V149.64H63.4672V153.434C63.9712 152.622 64.9232 152.188 66.0012 152.188C67.7092 152.188 69.0672 153.28 69.0672 155.478V160H67.8072V155.66C67.8072 154.092 66.9532 153.294 65.6652 153.294C64.3632 153.294 63.4672 154.106 63.4672 155.758V160H62.1932ZM70.6723 156.136C70.6723 153.742 72.2543 152.202 74.3123 152.202C75.7403 152.202 76.7203 152.93 77.1683 153.728V152.328H78.4563V160H77.1683V158.572C76.7063 159.398 75.7123 160.126 74.2983 160.126C72.2543 160.126 70.6723 158.516 70.6723 156.136ZM77.1683 156.15C77.1683 154.372 75.9643 153.308 74.5643 153.308C73.1643 153.308 71.9743 154.33 71.9743 156.136C71.9743 157.942 73.1643 159.006 74.5643 159.006C75.9643 159.006 77.1683 157.956 77.1683 156.15ZM80.8893 157.9V153.378H79.8953V152.328H80.8893V150.396H82.1633V152.328H84.1653V153.378H82.1633V157.9C82.1633 158.656 82.4433 158.922 83.2272 158.922H84.1653V160H83.0173C81.6593 160 80.8893 159.44 80.8893 157.9ZM92.3533 158.544L94.7333 152.328H96.0493L91.4293 163.612H90.1133L91.6253 159.916L88.5313 152.328H89.9453L92.3533 158.544ZM104.61 156.15C104.61 158.586 102.86 160.126 100.676 160.126C98.506 160.126 96.854 158.586 96.854 156.15C96.854 153.728 98.562 152.202 100.732 152.202C102.916 152.202 104.61 153.728 104.61 156.15ZM98.156 156.15C98.156 158.096 99.346 159.006 100.676 159.006C102.006 159.006 103.308 158.096 103.308 156.15C103.308 154.218 102.034 153.308 100.718 153.308C99.374 153.308 98.156 154.218 98.156 156.15ZM113.089 152.328V160H111.815V158.866C111.325 159.664 110.387 160.112 109.365 160.112C107.601 160.112 106.215 159.02 106.215 156.822V152.328H107.475V156.654C107.475 158.208 108.329 159.006 109.617 159.006C110.933 159.006 111.815 158.194 111.815 156.542V152.328H113.089ZM116.514 155.828V160H115.24V152.328H116.514V153.574C116.948 152.72 117.774 152.188 118.992 152.188V153.504H118.656C117.438 153.504 116.514 154.05 116.514 155.828ZM129.711 157.914C129.711 159.174 128.605 160.126 126.911 160.126C125.119 160.126 123.859 159.146 123.775 157.746H125.091C125.161 158.488 125.819 159.048 126.897 159.048C127.905 159.048 128.465 158.544 128.465 157.914C128.465 156.206 123.929 157.2 123.929 154.344C123.929 153.168 125.035 152.202 126.743 152.202C128.437 152.202 129.557 153.112 129.641 154.61H128.367C128.311 153.84 127.723 153.28 126.701 153.28C125.763 153.28 125.203 153.728 125.203 154.344C125.203 156.164 129.655 155.17 129.711 157.914ZM138.79 156.15C138.79 158.586 137.04 160.126 134.856 160.126C132.686 160.126 131.034 158.586 131.034 156.15C131.034 153.728 132.742 152.202 134.912 152.202C137.096 152.202 138.79 153.728 138.79 156.15ZM132.336 156.15C132.336 158.096 133.526 159.006 134.856 159.006C136.186 159.006 137.488 158.096 137.488 156.15C137.488 154.218 136.214 153.308 134.898 153.308C133.554 153.308 132.336 154.218 132.336 156.15ZM140.703 160V153.378H139.709V152.328H140.703V151.782C140.703 150.074 141.543 149.304 143.503 149.304V150.368C142.355 150.368 141.977 150.788 141.977 151.782V152.328H143.587V153.378H141.977V160H140.703ZM145.352 157.9V153.378H144.358V152.328H145.352V150.396H146.626V152.328H148.628V153.378H146.626V157.9C146.626 158.656 146.906 158.922 147.69 158.922H148.628V160H147.48C146.122 160 145.352 159.44 145.352 157.9ZM151.67 160L149.262 152.328H150.564L152.328 158.768L154.232 152.328H155.534L157.396 158.782L159.132 152.328H160.392L157.998 160H156.682L154.834 153.91L152.986 160H151.67ZM161.18 156.136C161.18 153.742 162.762 152.202 164.82 152.202C166.248 152.202 167.228 152.93 167.676 153.728V152.328H168.964V160H167.676V158.572C167.214 159.398 166.22 160.126 164.806 160.126C162.762 160.126 161.18 158.516 161.18 156.136ZM167.676 156.15C167.676 154.372 166.472 153.308 165.072 153.308C163.672 153.308 162.482 154.33 162.482 156.136C162.482 157.942 163.672 159.006 165.072 159.006C166.472 159.006 167.676 157.956 167.676 156.15ZM172.391 155.828V160H171.117V152.328H172.391V153.574C172.825 152.72 173.651 152.188 174.869 152.188V153.504H174.533C173.315 153.504 172.391 154.05 172.391 155.828ZM179.602 153.28C178.356 153.28 177.32 154.106 177.18 155.604H182.024C182.038 154.106 180.918 153.28 179.602 153.28ZM183.186 157.634C182.794 159.034 181.562 160.126 179.658 160.126C177.474 160.126 175.864 158.586 175.864 156.15C175.864 153.728 177.418 152.202 179.658 152.202C181.884 152.202 183.34 153.77 183.34 155.87C183.34 156.15 183.326 156.374 183.298 156.64H177.166C177.264 158.194 178.356 159.048 179.658 159.048C180.806 159.048 181.534 158.46 181.814 157.634H183.186ZM188.754 160V152.328H190.028V160H188.754ZM189.412 151.082C188.922 151.082 188.544 150.704 188.544 150.214C188.544 149.724 188.922 149.346 189.412 149.346C189.874 149.346 190.252 149.724 190.252 150.214C190.252 150.704 189.874 151.082 189.412 151.082ZM197.715 157.914C197.715 159.174 196.609 160.126 194.915 160.126C193.123 160.126 191.863 159.146 191.779 157.746H193.095C193.165 158.488 193.823 159.048 194.901 159.048C195.909 159.048 196.469 158.544 196.469 157.914C196.469 156.206 191.933 157.2 191.933 154.344C191.933 153.168 193.039 152.202 194.747 152.202C196.441 152.202 197.561 153.112 197.645 154.61H196.371C196.315 153.84 195.727 153.28 194.705 153.28C193.767 153.28 193.207 153.728 193.207 154.344C193.207 156.164 197.659 155.17 197.715 157.914ZM203.246 160V149.64H204.52V160H203.246ZM206.691 160V152.328H207.965V160H206.691ZM207.349 151.082C206.859 151.082 206.481 150.704 206.481 150.214C206.481 149.724 206.859 149.346 207.349 149.346C207.811 149.346 208.189 149.724 208.189 150.214C208.189 150.704 207.811 151.082 207.349 151.082ZM209.227 152.328H210.599L212.993 158.824L215.373 152.328H216.731L213.721 160H212.237L209.227 152.328ZM221.246 153.28C220 153.28 218.964 154.106 218.824 155.604H223.668C223.682 154.106 222.562 153.28 221.246 153.28ZM224.83 157.634C224.438 159.034 223.206 160.126 221.302 160.126C219.118 160.126 217.508 158.586 217.508 156.15C217.508 153.728 219.062 152.202 221.302 152.202C223.528 152.202 224.984 153.77 224.984 155.87C224.984 156.15 224.97 156.374 224.942 156.64H218.81C218.908 158.194 220 159.048 221.302 159.048C222.45 159.048 223.178 158.46 223.458 157.634H224.83ZM231.896 160L229.488 152.328H230.79L232.554 158.768L234.458 152.328H235.76L237.622 158.782L239.358 152.328H240.618L238.224 160H236.908L235.06 153.91L233.212 160H231.896ZM245.145 153.28C243.899 153.28 242.863 154.106 242.723 155.604H247.567C247.581 154.106 246.461 153.28 245.145 153.28ZM248.729 157.634C248.337 159.034 247.105 160.126 245.201 160.126C243.017 160.126 241.407 158.586 241.407 156.15C241.407 153.728 242.961 152.202 245.201 152.202C247.427 152.202 248.883 153.77 248.883 155.87C248.883 156.15 248.869 156.374 248.841 156.64H242.709C242.807 158.194 243.899 159.048 245.201 159.048C246.349 159.048 247.077 158.46 247.357 157.634H248.729ZM24.576 180L22.168 172.328H23.47L25.234 178.768L27.138 172.328H28.44L30.302 178.782L32.038 172.328H33.298L30.904 180H29.588L27.74 173.91L25.892 180H24.576ZM34.5624 180V172.328H35.8364V180H34.5624ZM35.2204 171.082C34.7304 171.082 34.3524 170.704 34.3524 170.214C34.3524 169.724 34.7304 169.346 35.2204 169.346C35.6824 169.346 36.0604 169.724 36.0604 170.214C36.0604 170.704 35.6824 171.082 35.2204 171.082ZM38.0077 180V169.64H39.2817V180H38.0077ZM41.453 180V169.64H42.727V180H41.453ZM59.7047 180V175.66C59.7047 174.092 58.8647 173.294 57.6047 173.294C56.3167 173.294 55.4347 174.12 55.4347 175.772V180H54.1747V175.66C54.1747 174.092 53.3347 173.294 52.0747 173.294C50.7867 173.294 49.9047 174.12 49.9047 175.772V180H48.6307V172.328H49.9047V173.434C50.4087 172.622 51.3187 172.188 52.3267 172.188C53.5867 172.188 54.6367 172.748 55.1407 173.896C55.5887 172.79 56.6807 172.188 57.8567 172.188C59.6067 172.188 60.9647 173.28 60.9647 175.478V180H59.7047ZM62.5786 176.136C62.5786 173.742 64.1606 172.202 66.2186 172.202C67.6466 172.202 68.6266 172.93 69.0746 173.728V172.328H70.3626V180H69.0746V178.572C68.6126 179.398 67.6186 180.126 66.2046 180.126C64.1606 180.126 62.5786 178.516 62.5786 176.136ZM69.0746 176.15C69.0746 174.372 67.8706 173.308 66.4706 173.308C65.0706 173.308 63.8806 174.33 63.8806 176.136C63.8806 177.942 65.0706 179.006 66.4706 179.006C67.8706 179.006 69.0746 177.956 69.0746 176.15ZM72.5155 180V172.328H73.7895V180H72.5155ZM73.1735 171.082C72.6835 171.082 72.3055 170.704 72.3055 170.214C72.3055 169.724 72.6835 169.346 73.1735 169.346C73.6355 169.346 74.0135 169.724 74.0135 170.214C74.0135 170.704 73.6355 171.082 73.1735 171.082ZM81.5748 180V175.66C81.5748 174.092 80.7208 173.294 79.4328 173.294C78.1308 173.294 77.2348 174.106 77.2348 175.758V180H75.9608V172.328H77.2348V173.42C77.7388 172.622 78.6628 172.188 79.6988 172.188C81.4768 172.188 82.8348 173.28 82.8348 175.478V180H81.5748ZM85.1959 177.9V173.378H84.2019V172.328H85.1959V170.396H86.4699V172.328H88.4719V173.378H86.4699V177.9C86.4699 178.656 86.7499 178.922 87.5339 178.922H88.4719V180H87.3239C85.9659 180 85.1959 179.44 85.1959 177.9ZM89.5395 176.136C89.5395 173.742 91.1215 172.202 93.1795 172.202C94.6075 172.202 95.5875 172.93 96.0355 173.728V172.328H97.3235V180H96.0355V178.572C95.5735 179.398 94.5795 180.126 93.1655 180.126C91.1215 180.126 89.5395 178.516 89.5395 176.136ZM96.0355 176.15C96.0355 174.372 94.8315 173.308 93.4315 173.308C92.0315 173.308 90.8415 174.33 90.8415 176.136C90.8415 177.942 92.0315 179.006 93.4315 179.006C94.8315 179.006 96.0355 177.956 96.0355 176.15ZM99.4764 180V172.328H100.75V180H99.4764ZM100.134 171.082C99.6444 171.082 99.2664 170.704 99.2664 170.214C99.2664 169.724 99.6444 169.346 100.134 169.346C100.596 169.346 100.974 169.724 100.974 170.214C100.974 170.704 100.596 171.082 100.134 171.082ZM108.536 180V175.66C108.536 174.092 107.682 173.294 106.394 173.294C105.092 173.294 104.196 174.106 104.196 175.758V180H102.922V172.328H104.196V173.42C104.7 172.622 105.624 172.188 106.66 172.188C108.438 172.188 109.796 173.28 109.796 175.478V180H108.536ZM115.609 180V172.328H116.883V180H115.609ZM116.267 171.082C115.777 171.082 115.399 170.704 115.399 170.214C115.399 169.724 115.777 169.346 116.267 169.346C116.729 169.346 117.107 169.724 117.107 170.214C117.107 170.704 116.729 171.082 116.267 171.082ZM119.335 177.9V173.378H118.341V172.328H119.335V170.396H120.609V172.328H122.611V173.378H120.609V177.9C120.609 178.656 120.889 178.922 121.673 178.922H122.611V180H121.463C120.105 180 119.335 179.44 119.335 177.9ZM128.167 177.9V173.378H127.173V172.328H128.167V170.396H129.441V172.328H131.443V173.378H129.441V177.9C129.441 178.656 129.721 178.922 130.505 178.922H131.443V180H130.295C128.937 180 128.167 179.44 128.167 177.9ZM140.266 176.15C140.266 178.586 138.516 180.126 136.332 180.126C134.162 180.126 132.51 178.586 132.51 176.15C132.51 173.728 134.218 172.202 136.388 172.202C138.572 172.202 140.266 173.728 140.266 176.15ZM133.812 176.15C133.812 178.096 135.002 179.006 136.332 179.006C137.662 179.006 138.964 178.096 138.964 176.15C138.964 174.218 137.69 173.308 136.374 173.308C135.03 173.308 133.812 174.218 133.812 176.15ZM145.674 180V169.64H146.948V175.73L149.902 172.328H151.68L148.068 176.15L151.694 180H149.958L146.948 176.612V180H145.674ZM156.141 173.28C154.895 173.28 153.859 174.106 153.719 175.604H158.563C158.577 174.106 157.457 173.28 156.141 173.28ZM159.725 177.634C159.333 179.034 158.101 180.126 156.197 180.126C154.013 180.126 152.403 178.586 152.403 176.15C152.403 173.728 153.957 172.202 156.197 172.202C158.423 172.202 159.879 173.77 159.879 175.87C159.879 176.15 159.865 176.374 159.837 176.64H153.705C153.803 178.194 154.895 179.048 156.197 179.048C157.345 179.048 158.073 178.46 158.353 177.634H159.725ZM164.822 173.28C163.576 173.28 162.54 174.106 162.4 175.604H167.244C167.258 174.106 166.138 173.28 164.822 173.28ZM168.406 177.634C168.014 179.034 166.782 180.126 164.878 180.126C162.694 180.126 161.084 178.586 161.084 176.15C161.084 173.728 162.638 172.202 164.878 172.202C167.104 172.202 168.56 173.77 168.56 175.87C168.56 176.15 168.546 176.374 168.518 176.64H162.386C162.484 178.194 163.576 179.048 164.878 179.048C166.026 179.048 166.754 178.46 167.034 177.634H168.406ZM171.516 173.742C171.978 172.93 172.986 172.202 174.386 172.202C176.444 172.202 178.026 173.742 178.026 176.136C178.026 178.516 176.444 180.126 174.386 180.126C172.986 180.126 171.992 179.37 171.516 178.586V183.64H170.242V172.328H171.516V173.742ZM176.724 176.136C176.724 174.33 175.534 173.308 174.12 173.308C172.734 173.308 171.516 174.372 171.516 176.15C171.516 177.956 172.734 179.006 174.12 179.006C175.534 179.006 176.724 177.942 176.724 176.136ZM183.435 180V172.328H184.709V180H183.435ZM184.093 171.082C183.603 171.082 183.225 170.704 183.225 170.214C183.225 169.724 183.603 169.346 184.093 169.346C184.555 169.346 184.933 169.724 184.933 170.214C184.933 170.704 184.555 171.082 184.093 171.082ZM187.161 177.9V173.378H186.167V172.328H187.161V170.396H188.435V172.328H190.437V173.378H188.435V177.9C188.435 178.656 188.715 178.922 189.499 178.922H190.437V180H189.289C187.931 180 187.161 179.44 187.161 177.9ZM202.517 172.328V180H201.243V178.866C200.753 179.664 199.815 180.112 198.793 180.112C197.029 180.112 195.643 179.02 195.643 176.822V172.328H196.903V176.654C196.903 178.208 197.757 179.006 199.045 179.006C200.361 179.006 201.243 178.194 201.243 176.542V172.328H202.517ZM205.942 173.742C206.404 172.93 207.412 172.202 208.812 172.202C210.87 172.202 212.452 173.742 212.452 176.136C212.452 178.516 210.87 180.126 208.812 180.126C207.412 180.126 206.418 179.37 205.942 178.586V183.64H204.668V172.328H205.942V173.742ZM211.15 176.136C211.15 174.33 209.96 173.308 208.546 173.308C207.16 173.308 205.942 174.372 205.942 176.15C205.942 177.956 207.16 179.006 208.546 179.006C209.96 179.006 211.15 177.942 211.15 176.136ZM218.141 177.9V173.378H217.147V172.328H218.141V170.396H219.415V172.328H221.417V173.378H219.415V177.9C219.415 178.656 219.695 178.922 220.479 178.922H221.417V180H220.269C218.911 180 218.141 179.44 218.141 177.9ZM230.241 176.15C230.241 178.586 228.491 180.126 226.307 180.126C224.137 180.126 222.485 178.586 222.485 176.15C222.485 173.728 224.193 172.202 226.363 172.202C228.547 172.202 230.241 173.728 230.241 176.15ZM223.787 176.15C223.787 178.096 224.977 179.006 226.307 179.006C227.637 179.006 228.939 178.096 228.939 176.15C228.939 174.218 227.665 173.308 226.349 173.308C225.005 173.308 223.787 174.218 223.787 176.15ZM22.602 196.136C22.602 193.742 24.184 192.202 26.256 192.202C27.46 192.202 28.566 192.818 29.098 193.7V189.64H30.386V200H29.098V198.558C28.636 199.412 27.642 200.126 26.242 200.126C24.184 200.126 22.602 198.516 22.602 196.136ZM29.098 196.15C29.098 194.372 27.894 193.308 26.494 193.308C25.094 193.308 23.904 194.33 23.904 196.136C23.904 197.942 25.094 199.006 26.494 199.006C27.894 199.006 29.098 197.956 29.098 196.15ZM32.0629 196.136C32.0629 193.742 33.6449 192.202 35.7029 192.202C37.1309 192.202 38.1109 192.93 38.5589 193.728V192.328H39.8469V200H38.5589V198.572C38.0969 199.398 37.1029 200.126 35.6889 200.126C33.6449 200.126 32.0629 198.516 32.0629 196.136ZM38.5589 196.15C38.5589 194.372 37.3549 193.308 35.9549 193.308C34.5549 193.308 33.3649 194.33 33.3649 196.136C33.3649 197.942 34.5549 199.006 35.9549 199.006C37.3549 199.006 38.5589 197.956 38.5589 196.15ZM42.2799 197.9V193.378H41.2859V192.328H42.2799V190.396H43.5539V192.328H45.5559V193.378H43.5539V197.9C43.5539 198.656 43.8339 198.922 44.6179 198.922H45.5559V200H44.4079C43.0499 200 42.2799 199.44 42.2799 197.9ZM50.3615 193.28C49.1155 193.28 48.0795 194.106 47.9395 195.604H52.7835C52.7975 194.106 51.6775 193.28 50.3615 193.28ZM53.9455 197.634C53.5535 199.034 52.3215 200.126 50.4175 200.126C48.2335 200.126 46.6235 198.586 46.6235 196.15C46.6235 193.728 48.1775 192.202 50.4175 192.202C52.6435 192.202 54.0995 193.77 54.0995 195.87C54.0995 196.15 54.0855 196.374 54.0575 196.64H47.9255C48.0235 198.194 49.1155 199.048 50.4175 199.048C51.5655 199.048 52.2935 198.46 52.5735 197.634H53.9455ZM57.0271 199.216C57.0271 199.706 56.6491 200.084 56.1871 200.084C55.6971 200.084 55.3191 199.706 55.3191 199.216C55.3191 198.726 55.6971 198.348 56.1871 198.348C56.6491 198.348 57.0271 198.726 57.0271 199.216ZM64.833 196.318L61.641 190.242H63.055L65.463 195.184L67.871 190.242H69.285L66.107 196.318V200H64.833V196.318ZM77.9088 196.15C77.9088 198.586 76.1588 200.126 73.9748 200.126C71.8048 200.126 70.1528 198.586 70.1528 196.15C70.1528 193.728 71.8608 192.202 74.0308 192.202C76.2148 192.202 77.9088 193.728 77.9088 196.15ZM71.4548 196.15C71.4548 198.096 72.6448 199.006 73.9748 199.006C75.3048 199.006 76.6068 198.096 76.6068 196.15C76.6068 194.218 75.3328 193.308 74.0168 193.308C72.6728 193.308 71.4548 194.218 71.4548 196.15ZM86.3879 192.328V200H85.1139V198.866C84.6239 199.664 83.6859 200.112 82.6639 200.112C80.8999 200.112 79.5139 199.02 79.5139 196.822V192.328H80.7739V196.654C80.7739 198.208 81.6279 199.006 82.9159 199.006C84.2319 199.006 85.1139 198.194 85.1139 196.542V192.328H86.3879ZM91.7954 196.15C91.7954 193.742 93.3494 192.202 95.5334 192.202C97.4374 192.202 98.6834 193.182 99.0754 194.792H97.7034C97.4374 193.868 96.6674 193.28 95.5334 193.28C94.1334 193.28 93.0974 194.274 93.0974 196.15C93.0974 198.054 94.1334 199.048 95.5334 199.048C96.6674 199.048 97.4234 198.502 97.7034 197.536H99.0754C98.6834 199.062 97.4374 200.126 95.5334 200.126C93.3494 200.126 91.7954 198.586 91.7954 196.15ZM100.299 196.136C100.299 193.742 101.881 192.202 103.939 192.202C105.367 192.202 106.347 192.93 106.795 193.728V192.328H108.083V200H106.795V198.572C106.333 199.398 105.339 200.126 103.925 200.126C101.881 200.126 100.299 198.516 100.299 196.136ZM106.795 196.15C106.795 194.372 105.591 193.308 104.191 193.308C102.791 193.308 101.601 194.33 101.601 196.136C101.601 197.942 102.791 199.006 104.191 199.006C105.591 199.006 106.795 197.956 106.795 196.15ZM115.85 200V195.66C115.85 194.092 114.996 193.294 113.708 193.294C112.406 193.294 111.51 194.106 111.51 195.758V200H110.236V192.328H111.51V193.42C112.014 192.622 112.938 192.188 113.974 192.188C115.752 192.188 117.11 193.28 117.11 195.478V200H115.85ZM122.448 196.15C122.448 193.742 124.002 192.202 126.186 192.202C128.09 192.202 129.336 193.182 129.728 194.792H128.356C128.09 193.868 127.32 193.28 126.186 193.28C124.786 193.28 123.75 194.274 123.75 196.15C123.75 198.054 124.786 199.048 126.186 199.048C127.32 199.048 128.076 198.502 128.356 197.536H129.728C129.336 199.062 128.09 200.126 126.186 200.126C124.002 200.126 122.448 198.586 122.448 196.15ZM138.708 196.15C138.708 198.586 136.958 200.126 134.774 200.126C132.604 200.126 130.952 198.586 130.952 196.15C130.952 193.728 132.66 192.202 134.83 192.202C137.014 192.202 138.708 193.728 138.708 196.15ZM132.254 196.15C132.254 198.096 133.444 199.006 134.774 199.006C136.104 199.006 137.406 198.096 137.406 196.15C137.406 194.218 136.132 193.308 134.816 193.308C133.472 193.308 132.254 194.218 132.254 196.15ZM147.187 192.328V200H145.913V198.866C145.423 199.664 144.485 200.112 143.463 200.112C141.699 200.112 140.313 199.02 140.313 196.822V192.328H141.573V196.654C141.573 198.208 142.427 199.006 143.715 199.006C145.031 199.006 145.913 198.194 145.913 196.542V192.328H147.187ZM154.952 200V195.66C154.952 194.092 154.098 193.294 152.81 193.294C151.508 193.294 150.612 194.106 150.612 195.758V200H149.338V192.328H150.612V193.42C151.116 192.622 152.04 192.188 153.076 192.188C154.854 192.188 156.212 193.28 156.212 195.478V200H154.952ZM158.573 197.9V193.378H157.579V192.328H158.573V190.396H159.847V192.328H161.849V193.378H159.847V197.9C159.847 198.656 160.127 198.922 160.911 198.922H161.849V200H160.701C159.343 200 158.573 199.44 158.573 197.9ZM174.405 196.15C174.405 198.586 172.655 200.126 170.471 200.126C168.301 200.126 166.649 198.586 166.649 196.15C166.649 193.728 168.357 192.202 170.527 192.202C172.711 192.202 174.405 193.728 174.405 196.15ZM167.951 196.15C167.951 198.096 169.141 199.006 170.471 199.006C171.801 199.006 173.103 198.096 173.103 196.15C173.103 194.218 171.829 193.308 170.513 193.308C169.169 193.308 167.951 194.218 167.951 196.15ZM181.694 200V195.66C181.694 194.092 180.84 193.294 179.552 193.294C178.25 193.294 177.354 194.106 177.354 195.758V200H176.08V192.328H177.354V193.42C177.858 192.622 178.782 192.188 179.818 192.188C181.596 192.188 182.954 193.28 182.954 195.478V200H181.694ZM195.571 192.328V200H194.297V198.866C193.807 199.664 192.869 200.112 191.847 200.112C190.083 200.112 188.697 199.02 188.697 196.822V192.328H189.957V196.654C189.957 198.208 190.811 199.006 192.099 199.006C193.415 199.006 194.297 198.194 194.297 196.542V192.328H195.571ZM203.239 197.914C203.239 199.174 202.133 200.126 200.439 200.126C198.647 200.126 197.387 199.146 197.303 197.746H198.619C198.689 198.488 199.347 199.048 200.425 199.048C201.433 199.048 201.993 198.544 201.993 197.914C201.993 196.206 197.457 197.2 197.457 194.344C197.457 193.168 198.563 192.202 200.271 192.202C201.965 192.202 203.085 193.112 203.169 194.61H201.895C201.839 193.84 201.251 193.28 200.229 193.28C199.291 193.28 198.731 193.728 198.731 194.344C198.731 196.164 203.183 195.17 203.239 197.914ZM209.049 197.9V193.378H208.055V192.328H209.049V190.396H210.323V192.328H212.325V193.378H210.323V197.9C210.323 198.656 210.603 198.922 211.387 198.922H212.325V200H211.177C209.819 200 209.049 199.44 209.049 197.9ZM221.149 196.15C221.149 198.586 219.399 200.126 217.215 200.126C215.045 200.126 213.393 198.586 213.393 196.15C213.393 193.728 215.101 192.202 217.271 192.202C219.455 192.202 221.149 193.728 221.149 196.15ZM214.695 196.15C214.695 198.096 215.885 199.006 217.215 199.006C218.545 199.006 219.847 198.096 219.847 196.15C219.847 194.218 218.573 193.308 217.257 193.308C215.913 193.308 214.695 194.218 214.695 196.15ZM23.078 220V209.64H24.352V213.434C24.856 212.622 25.808 212.188 26.886 212.188C28.594 212.188 29.952 213.28 29.952 215.478V220H28.692V215.66C28.692 214.092 27.838 213.294 26.55 213.294C25.248 213.294 24.352 214.106 24.352 215.758V220H23.078ZM31.5571 216.136C31.5571 213.742 33.1391 212.202 35.1971 212.202C36.6251 212.202 37.6051 212.93 38.0531 213.728V212.328H39.3411V220H38.0531V218.572C37.5911 219.398 36.5971 220.126 35.1831 220.126C33.1391 220.126 31.5571 218.516 31.5571 216.136ZM38.0531 216.15C38.0531 214.372 36.8491 213.308 35.4491 213.308C34.0491 213.308 32.8591 214.33 32.8591 216.136C32.8591 217.942 34.0491 219.006 35.4491 219.006C36.8491 219.006 38.0531 217.956 38.0531 216.15ZM47.108 220V215.66C47.108 214.092 46.254 213.294 44.966 213.294C43.664 213.294 42.768 214.106 42.768 215.758V220H41.494V212.328H42.768V213.42C43.272 212.622 44.196 212.188 45.232 212.188C47.01 212.188 48.368 213.28 48.368 215.478V220H47.108ZM49.9731 216.136C49.9731 213.742 51.5551 212.202 53.6271 212.202C54.8311 212.202 55.9371 212.818 56.4691 213.7V209.64H57.7571V220H56.4691V218.558C56.0071 219.412 55.0131 220.126 53.6131 220.126C51.5551 220.126 49.9731 218.516 49.9731 216.136ZM56.4691 216.15C56.4691 214.372 55.2651 213.308 53.8651 213.308C52.4651 213.308 51.2751 214.33 51.2751 216.136C51.2751 217.942 52.4651 219.006 53.8651 219.006C55.2651 219.006 56.4691 217.956 56.4691 216.15ZM59.91 220V209.64H61.184V220H59.91ZM66.6173 213.28C65.3713 213.28 64.3353 214.106 64.1953 215.604H69.0393C69.0533 214.106 67.9333 213.28 66.6173 213.28ZM70.2013 217.634C69.8093 219.034 68.5773 220.126 66.6733 220.126C64.4893 220.126 62.8793 218.586 62.8793 216.15C62.8793 213.728 64.4333 212.202 66.6733 212.202C68.8993 212.202 70.3553 213.77 70.3553 215.87C70.3553 216.15 70.3413 216.374 70.3133 216.64H64.1813C64.2793 218.194 65.3713 219.048 66.6733 219.048C67.8213 219.048 68.5493 218.46 68.8293 217.634H70.2013ZM75.2934 216.136C75.2934 213.742 76.8754 212.202 78.9334 212.202C80.3614 212.202 81.3414 212.93 81.7894 213.728V212.328H83.0774V220H81.7894V218.572C81.3274 219.398 80.3334 220.126 78.9194 220.126C76.8754 220.126 75.2934 218.516 75.2934 216.136ZM81.7894 216.15C81.7894 214.372 80.5854 213.308 79.1854 213.308C77.7854 213.308 76.5954 214.33 76.5954 216.136C76.5954 217.942 77.7854 219.006 79.1854 219.006C80.5854 219.006 81.7894 217.956 81.7894 216.15ZM90.8443 220V215.66C90.8443 214.092 89.9903 213.294 88.7023 213.294C87.4003 213.294 86.5043 214.106 86.5043 215.758V220H85.2303V212.328H86.5043V213.42C87.0083 212.622 87.9323 212.188 88.9683 212.188C90.7463 212.188 92.1043 213.28 92.1043 215.478V220H90.8443ZM97.0974 218.544L99.4774 212.328H100.793L96.1734 223.612H94.8574L96.3694 219.916L93.2754 212.328H94.6894L97.0974 218.544ZM107.081 213.756C107.571 212.902 108.593 212.202 109.951 212.202C112.023 212.202 113.591 213.742 113.591 216.136C113.591 218.516 112.009 220.126 109.951 220.126C108.551 220.126 107.557 219.426 107.081 218.586V220H105.807V209.64H107.081V213.756ZM112.289 216.136C112.289 214.33 111.099 213.308 109.685 213.308C108.299 213.308 107.081 214.372 107.081 216.15C107.081 217.956 108.299 219.006 109.685 219.006C111.099 219.006 112.289 217.942 112.289 216.136ZM122.071 212.328V220H120.797V218.866C120.307 219.664 119.369 220.112 118.347 220.112C116.583 220.112 115.197 219.02 115.197 216.822V212.328H116.457V216.654C116.457 218.208 117.311 219.006 118.599 219.006C119.915 219.006 120.797 218.194 120.797 216.542V212.328H122.071ZM123.747 216.136C123.747 213.742 125.329 212.202 127.387 212.202C128.787 212.202 129.795 212.902 130.243 213.728V212.328H131.531V220.168C131.531 222.282 130.117 223.78 127.863 223.78C125.847 223.78 124.405 222.758 124.153 221.12H125.413C125.693 222.044 126.603 222.674 127.863 222.674C129.221 222.674 130.243 221.806 130.243 220.168V218.558C129.781 219.384 128.787 220.126 127.387 220.126C125.329 220.126 123.747 218.516 123.747 216.136ZM130.243 216.15C130.243 214.372 129.039 213.308 127.639 213.308C126.239 213.308 125.049 214.33 125.049 216.136C125.049 217.942 126.239 219.006 127.639 219.006C129.039 219.006 130.243 217.956 130.243 216.15ZM139.199 217.914C139.199 219.174 138.093 220.126 136.399 220.126C134.607 220.126 133.347 219.146 133.263 217.746H134.579C134.649 218.488 135.307 219.048 136.385 219.048C137.393 219.048 137.953 218.544 137.953 217.914C137.953 216.206 133.417 217.2 133.417 214.344C133.417 213.168 134.523 212.202 136.231 212.202C137.925 212.202 139.045 213.112 139.129 214.61H137.855C137.799 213.84 137.211 213.28 136.189 213.28C135.251 213.28 134.691 213.728 134.691 214.344C134.691 216.164 139.143 215.17 139.199 217.914ZM139.892 222.002L140.914 218.236H142.314L140.746 222.002H139.892ZM147.03 216.136C147.03 213.742 148.612 212.202 150.67 212.202C152.098 212.202 153.078 212.93 153.526 213.728V212.328H154.814V220H153.526V218.572C153.064 219.398 152.07 220.126 150.656 220.126C148.612 220.126 147.03 218.516 147.03 216.136ZM153.526 216.15C153.526 214.372 152.322 213.308 150.922 213.308C149.522 213.308 148.332 214.33 148.332 216.136C148.332 217.942 149.522 219.006 150.922 219.006C152.322 219.006 153.526 217.956 153.526 216.15ZM156.491 216.136C156.491 213.742 158.073 212.202 160.145 212.202C161.349 212.202 162.455 212.818 162.987 213.7V209.64H164.275V220H162.987V218.558C162.525 219.412 161.531 220.126 160.131 220.126C158.073 220.126 156.491 218.516 156.491 216.136ZM162.987 216.15C162.987 214.372 161.783 213.308 160.383 213.308C158.983 213.308 157.793 214.33 157.793 216.136C157.793 217.942 158.983 219.006 160.383 219.006C161.783 219.006 162.987 217.956 162.987 216.15ZM165.952 216.136C165.952 213.742 167.534 212.202 169.606 212.202C170.81 212.202 171.916 212.818 172.448 213.7V209.64H173.736V220H172.448V218.558C171.986 219.412 170.992 220.126 169.592 220.126C167.534 220.126 165.952 218.516 165.952 216.136ZM172.448 216.15C172.448 214.372 171.244 213.308 169.844 213.308C168.444 213.308 167.254 214.33 167.254 216.136C167.254 217.942 168.444 219.006 169.844 219.006C171.244 219.006 172.448 217.956 172.448 216.15ZM185.235 220V215.66C185.235 214.092 184.381 213.294 183.093 213.294C181.791 213.294 180.895 214.106 180.895 215.758V220H179.621V212.328H180.895V213.42C181.399 212.622 182.323 212.188 183.359 212.188C185.137 212.188 186.495 213.28 186.495 215.478V220H185.235ZM191.838 213.28C190.592 213.28 189.556 214.106 189.416 215.604H194.26C194.274 214.106 193.154 213.28 191.838 213.28ZM195.422 217.634C195.03 219.034 193.798 220.126 191.894 220.126C189.71 220.126 188.1 218.586 188.1 216.15C188.1 213.728 189.654 212.202 191.894 212.202C194.12 212.202 195.576 213.77 195.576 215.87C195.576 216.15 195.562 216.374 195.534 216.64H189.402C189.5 218.194 190.592 219.048 191.894 219.048C193.042 219.048 193.77 218.46 194.05 217.634H195.422ZM198.756 220L196.348 212.328H197.65L199.414 218.768L201.318 212.328H202.62L204.482 218.782L206.218 212.328H207.478L205.084 220H203.768L201.92 213.91L200.072 220H198.756ZM23.316 240V233.378H22.322V232.328H23.316V231.782C23.316 230.074 24.156 229.304 26.116 229.304V230.368C24.968 230.368 24.59 230.788 24.59 231.782V232.328H26.2V233.378H24.59V240H23.316ZM30.9474 233.28C29.7014 233.28 28.6654 234.106 28.5254 235.604H33.3694C33.3834 234.106 32.2634 233.28 30.9474 233.28ZM34.5314 237.634C34.1394 239.034 32.9074 240.126 31.0034 240.126C28.8194 240.126 27.2094 238.586 27.2094 236.15C27.2094 233.728 28.7634 232.202 31.0034 232.202C33.2294 232.202 34.6854 233.77 34.6854 235.87C34.6854 236.15 34.6714 236.374 34.6434 236.64H28.5114C28.6094 238.194 29.7014 239.048 31.0034 239.048C32.1514 239.048 32.8794 238.46 33.1594 237.634H34.5314ZM35.8911 236.136C35.8911 233.742 37.4731 232.202 39.5311 232.202C40.9591 232.202 41.9391 232.93 42.3871 233.728V232.328H43.6751V240H42.3871V238.572C41.9251 239.398 40.9311 240.126 39.5171 240.126C37.4731 240.126 35.8911 238.516 35.8911 236.136ZM42.3871 236.15C42.3871 234.372 41.1831 233.308 39.7831 233.308C38.3831 233.308 37.1931 234.33 37.1931 236.136C37.1931 237.942 38.3831 239.006 39.7831 239.006C41.1831 239.006 42.3871 237.956 42.3871 236.15ZM46.108 237.9V233.378H45.114V232.328H46.108V230.396H47.382V232.328H49.384V233.378H47.382V237.9C47.382 238.656 47.662 238.922 48.446 238.922H49.384V240H48.236C46.878 240 46.108 239.44 46.108 237.9ZM57.7316 232.328V240H56.4576V238.866C55.9676 239.664 55.0296 240.112 54.0076 240.112C52.2436 240.112 50.8576 239.02 50.8576 236.822V232.328H52.1176V236.654C52.1176 238.208 52.9716 239.006 54.2596 239.006C55.5756 239.006 56.4576 238.194 56.4576 236.542V232.328H57.7316ZM61.1567 235.828V240H59.8827V232.328H61.1567V233.574C61.5907 232.72 62.4167 232.188 63.6347 232.188V233.504H63.2987C62.0807 233.504 61.1567 234.05 61.1567 235.828ZM68.3673 233.28C67.1213 233.28 66.0853 234.106 65.9453 235.604H70.7893C70.8033 234.106 69.6833 233.28 68.3673 233.28ZM71.9513 237.634C71.5593 239.034 70.3273 240.126 68.4233 240.126C66.2393 240.126 64.6293 238.586 64.6293 236.15C64.6293 233.728 66.1833 232.202 68.4233 232.202C70.6493 232.202 72.1053 233.77 72.1053 235.87C72.1053 236.15 72.0913 236.374 72.0633 236.64H65.9313C66.0293 238.194 67.1213 239.048 68.4233 239.048C69.5713 239.048 70.2993 238.46 70.5793 237.634H71.9513ZM79.303 237.914C79.303 239.174 78.197 240.126 76.503 240.126C74.711 240.126 73.451 239.146 73.367 237.746H74.683C74.753 238.488 75.411 239.048 76.489 239.048C77.497 239.048 78.057 238.544 78.057 237.914C78.057 236.206 73.521 237.2 73.521 234.344C73.521 233.168 74.627 232.202 76.335 232.202C78.029 232.202 79.149 233.112 79.233 234.61H77.959C77.903 233.84 77.315 233.28 76.293 233.28C75.355 233.28 74.795 233.728 74.795 234.344C74.795 236.164 79.247 235.17 79.303 237.914ZM79.9954 242.002L81.0174 238.236H82.4174L80.8494 242.002H79.9954ZM87.1333 236.136C87.1333 233.742 88.7153 232.202 90.7733 232.202C92.2013 232.202 93.1813 232.93 93.6293 233.728V232.328H94.9173V240H93.6293V238.572C93.1673 239.398 92.1733 240.126 90.7593 240.126C88.7153 240.126 87.1333 238.516 87.1333 236.136ZM93.6293 236.15C93.6293 234.372 92.4253 233.308 91.0253 233.308C89.6253 233.308 88.4353 234.33 88.4353 236.136C88.4353 237.942 89.6253 239.006 91.0253 239.006C92.4253 239.006 93.6293 237.956 93.6293 236.15ZM102.684 240V235.66C102.684 234.092 101.83 233.294 100.542 233.294C99.2402 233.294 98.3442 234.106 98.3442 235.758V240H97.0702V232.328H98.3442V233.42C98.8482 232.622 99.7722 232.188 100.808 232.188C102.586 232.188 103.944 233.28 103.944 235.478V240H102.684ZM105.549 236.136C105.549 233.742 107.131 232.202 109.203 232.202C110.407 232.202 111.513 232.818 112.045 233.7V229.64H113.333V240H112.045V238.558C111.583 239.412 110.589 240.126 109.189 240.126C107.131 240.126 105.549 238.516 105.549 236.136ZM112.045 236.15C112.045 234.372 110.841 233.308 109.441 233.308C108.041 233.308 106.851 234.33 106.851 236.136C106.851 237.942 108.041 239.006 109.441 239.006C110.841 239.006 112.045 237.956 112.045 236.15ZM122.481 233.28C121.235 233.28 120.199 234.106 120.059 235.604H124.903C124.917 234.106 123.797 233.28 122.481 233.28ZM126.065 237.634C125.673 239.034 124.441 240.126 122.537 240.126C120.353 240.126 118.743 238.586 118.743 236.15C118.743 233.728 120.297 232.202 122.537 232.202C124.763 232.202 126.219 233.77 126.219 235.87C126.219 236.15 126.205 236.374 126.177 236.64H120.045C120.143 238.194 121.235 239.048 122.537 239.048C123.685 239.048 124.413 238.46 124.693 237.634H126.065ZM133.514 240V235.66C133.514 234.092 132.66 233.294 131.372 233.294C130.07 233.294 129.174 234.106 129.174 235.758V240H127.9V232.328H129.174V233.42C129.678 232.622 130.602 232.188 131.638 232.188C133.416 232.188 134.774 233.28 134.774 235.478V240H133.514ZM142.371 237.914C142.371 239.174 141.265 240.126 139.571 240.126C137.779 240.126 136.519 239.146 136.435 237.746H137.751C137.821 238.488 138.479 239.048 139.557 239.048C140.565 239.048 141.125 238.544 141.125 237.914C141.125 236.206 136.589 237.2 136.589 234.344C136.589 233.168 137.695 232.202 139.403 232.202C141.097 232.202 142.217 233.112 142.301 234.61H141.027C140.971 233.84 140.383 233.28 139.361 233.28C138.423 233.28 137.863 233.728 137.863 234.344C137.863 236.164 142.315 235.17 142.371 237.914ZM150.974 232.328V240H149.7V238.866C149.21 239.664 148.272 240.112 147.25 240.112C145.486 240.112 144.1 239.02 144.1 236.822V232.328H145.36V236.654C145.36 238.208 146.214 239.006 147.502 239.006C148.818 239.006 149.7 238.194 149.7 236.542V232.328H150.974ZM154.399 235.828V240H153.125V232.328H154.399V233.574C154.833 232.72 155.659 232.188 156.877 232.188V233.504H156.541C155.323 233.504 154.399 234.05 154.399 235.828ZM161.61 233.28C160.364 233.28 159.328 234.106 159.188 235.604H164.032C164.046 234.106 162.926 233.28 161.61 233.28ZM165.194 237.634C164.802 239.034 163.57 240.126 161.666 240.126C159.482 240.126 157.872 238.586 157.872 236.15C157.872 233.728 159.426 232.202 161.666 232.202C163.892 232.202 165.348 233.77 165.348 235.87C165.348 236.15 165.334 236.374 165.306 236.64H159.174C159.272 238.194 160.364 239.048 161.666 239.048C162.814 239.048 163.542 238.46 163.822 237.634H165.194ZM173.674 238.544L176.054 232.328H177.37L172.75 243.612H171.434L172.946 239.916L169.852 232.328H171.266L173.674 238.544ZM185.93 236.15C185.93 238.586 184.18 240.126 181.996 240.126C179.826 240.126 178.174 238.586 178.174 236.15C178.174 233.728 179.882 232.202 182.052 232.202C184.236 232.202 185.93 233.728 185.93 236.15ZM179.476 236.15C179.476 238.096 180.666 239.006 181.996 239.006C183.326 239.006 184.628 238.096 184.628 236.15C184.628 234.218 183.354 233.308 182.038 233.308C180.694 233.308 179.476 234.218 179.476 236.15ZM194.409 232.328V240H193.135V238.866C192.645 239.664 191.707 240.112 190.685 240.112C188.921 240.112 187.535 239.02 187.535 236.822V232.328H188.795V236.654C188.795 238.208 189.649 239.006 190.937 239.006C192.253 239.006 193.135 238.194 193.135 236.542V232.328H194.409ZM197.834 235.828V240H196.56V232.328H197.834V233.574C198.268 232.72 199.094 232.188 200.312 232.188V233.504H199.976C198.758 233.504 197.834 234.05 197.834 235.828ZM212.32 232.328V240H211.046V238.866C210.556 239.664 209.618 240.112 208.596 240.112C206.832 240.112 205.446 239.02 205.446 236.822V232.328H206.706V236.654C206.706 238.208 207.56 239.006 208.848 239.006C210.164 239.006 211.046 238.194 211.046 236.542V232.328H212.32ZM219.987 237.914C219.987 239.174 218.881 240.126 217.187 240.126C215.395 240.126 214.135 239.146 214.051 237.746H215.367C215.437 238.488 216.095 239.048 217.173 239.048C218.181 239.048 218.741 238.544 218.741 237.914C218.741 236.206 214.205 237.2 214.205 234.344C214.205 233.168 215.311 232.202 217.019 232.202C218.713 232.202 219.833 233.112 219.917 234.61H218.643C218.587 233.84 217.999 233.28 216.977 233.28C216.039 233.28 215.479 233.728 215.479 234.344C215.479 236.164 219.931 235.17 219.987 237.914ZM225.047 233.28C223.801 233.28 222.765 234.106 222.625 235.604H227.469C227.483 234.106 226.363 233.28 225.047 233.28ZM228.631 237.634C228.239 239.034 227.007 240.126 225.103 240.126C222.919 240.126 221.309 238.586 221.309 236.15C221.309 233.728 222.863 232.202 225.103 232.202C227.329 232.202 228.785 233.77 228.785 235.87C228.785 236.15 228.771 236.374 228.743 236.64H222.611C222.709 238.194 223.801 239.048 225.103 239.048C226.251 239.048 226.979 238.46 227.259 237.634H228.631ZM231.741 235.828V240H230.467V232.328H231.741V233.574C232.175 232.72 233.001 232.188 234.219 232.188V233.504H233.883C232.665 233.504 231.741 234.05 231.741 235.828ZM241.205 237.914C241.205 239.174 240.099 240.126 238.405 240.126C236.613 240.126 235.353 239.146 235.269 237.746H236.585C236.655 238.488 237.313 239.048 238.391 239.048C239.399 239.048 239.959 238.544 239.959 237.914C239.959 236.206 235.423 237.2 235.423 234.344C235.423 233.168 236.529 232.202 238.237 232.202C239.931 232.202 241.051 233.112 241.135 234.61H239.861C239.805 233.84 239.217 233.28 238.195 233.28C237.257 233.28 236.697 233.728 236.697 234.344C236.697 236.164 241.149 235.17 241.205 237.914ZM23.078 260V249.64H24.352V253.434C24.856 252.622 25.808 252.188 26.886 252.188C28.594 252.188 29.952 253.28 29.952 255.478V260H28.692V255.66C28.692 254.092 27.838 253.294 26.55 253.294C25.248 253.294 24.352 254.106 24.352 255.758V260H23.078ZM31.5571 256.136C31.5571 253.742 33.1391 252.202 35.1971 252.202C36.6251 252.202 37.6051 252.93 38.0531 253.728V252.328H39.3411V260H38.0531V258.572C37.5911 259.398 36.5971 260.126 35.1831 260.126C33.1391 260.126 31.5571 258.516 31.5571 256.136ZM38.0531 256.15C38.0531 254.372 36.8491 253.308 35.4491 253.308C34.0491 253.308 32.8591 254.33 32.8591 256.136C32.8591 257.942 34.0491 259.006 35.4491 259.006C36.8491 259.006 38.0531 257.956 38.0531 256.15ZM40.584 252.328H41.956L44.35 258.824L46.73 252.328H48.088L45.078 260H43.594L40.584 252.328ZM52.6037 253.28C51.3577 253.28 50.3217 254.106 50.1817 255.604H55.0257C55.0397 254.106 53.9197 253.28 52.6037 253.28ZM56.1877 257.634C55.7957 259.034 54.5637 260.126 52.6597 260.126C50.4757 260.126 48.8657 258.586 48.8657 256.15C48.8657 253.728 50.4197 252.202 52.6597 252.202C54.8857 252.202 56.3417 253.77 56.3417 255.87C56.3417 256.15 56.3277 256.374 56.2997 256.64H50.1677C50.2657 258.194 51.3577 259.048 52.6597 259.048C53.8077 259.048 54.5357 258.46 54.8157 257.634H56.1877ZM63.0297 253.742C63.4917 252.93 64.4997 252.202 65.8997 252.202C67.9577 252.202 69.5397 253.742 69.5397 256.136C69.5397 258.516 67.9577 260.126 65.8997 260.126C64.4997 260.126 63.5057 259.37 63.0297 258.586V263.64H61.7557V252.328H63.0297V253.742ZM68.2377 256.136C68.2377 254.33 67.0477 253.308 65.6337 253.308C64.2477 253.308 63.0297 254.372 63.0297 256.15C63.0297 257.956 64.2477 259.006 65.6337 259.006C67.0477 259.006 68.2377 257.942 68.2377 256.136ZM72.4907 255.828V260H71.2167V252.328H72.4907V253.574C72.9247 252.72 73.7507 252.188 74.9687 252.188V253.504H74.6327C73.4147 253.504 72.4907 254.05 72.4907 255.828ZM79.7013 253.28C78.4553 253.28 77.4193 254.106 77.2793 255.604H82.1233C82.1373 254.106 81.0173 253.28 79.7013 253.28ZM83.2853 257.634C82.8933 259.034 81.6613 260.126 79.7573 260.126C77.5733 260.126 75.9633 258.586 75.9633 256.15C75.9633 253.728 77.5173 252.202 79.7573 252.202C81.9833 252.202 83.4393 253.77 83.4393 255.87C83.4393 256.15 83.4253 256.374 83.3973 256.64H77.2653C77.3633 258.194 78.4553 259.048 79.7573 259.048C80.9053 259.048 81.6333 258.46 81.9133 257.634H83.2853ZM84.645 256.15C84.645 253.742 86.199 252.202 88.383 252.202C90.287 252.202 91.533 253.182 91.925 254.792H90.553C90.287 253.868 89.517 253.28 88.383 253.28C86.983 253.28 85.947 254.274 85.947 256.15C85.947 258.054 86.983 259.048 88.383 259.048C89.517 259.048 90.273 258.502 90.553 257.536H91.925C91.533 259.062 90.287 260.126 88.383 260.126C86.199 260.126 84.645 258.586 84.645 256.15ZM93.6249 260V252.328H94.8989V260H93.6249ZM94.2829 251.082C93.7929 251.082 93.4149 250.704 93.4149 250.214C93.4149 249.724 93.7929 249.346 94.2829 249.346C94.7449 249.346 95.1229 249.724 95.1229 250.214C95.1229 250.704 94.7449 251.082 94.2829 251.082ZM102.586 257.914C102.586 259.174 101.48 260.126 99.7862 260.126C97.9942 260.126 96.7342 259.146 96.6502 257.746H97.9662C98.0362 258.488 98.6942 259.048 99.7722 259.048C100.78 259.048 101.34 258.544 101.34 257.914C101.34 256.206 96.8042 257.2 96.8042 254.344C96.8042 253.168 97.9102 252.202 99.6182 252.202C101.312 252.202 102.432 253.112 102.516 254.61H101.242C101.186 253.84 100.598 253.28 99.5762 253.28C98.6382 253.28 98.0782 253.728 98.0782 254.344C98.0782 256.164 102.53 255.17 102.586 257.914ZM107.647 253.28C106.401 253.28 105.365 254.106 105.225 255.604H110.069C110.083 254.106 108.963 253.28 107.647 253.28ZM111.231 257.634C110.839 259.034 109.607 260.126 107.703 260.126C105.519 260.126 103.909 258.586 103.909 256.15C103.909 253.728 105.463 252.202 107.703 252.202C109.929 252.202 111.385 253.77 111.385 255.87C111.385 256.15 111.371 256.374 111.343 256.64H105.211C105.309 258.194 106.401 259.048 107.703 259.048C108.851 259.048 109.579 258.46 109.859 257.634H111.231ZM113.066 260V249.64H114.34V260H113.066ZM119.424 258.544L121.804 252.328H123.12L118.5 263.612H117.184L118.696 259.916L115.602 252.328H117.016L119.424 258.544ZM129.631 260L127.223 252.328H128.525L130.289 258.768L132.193 252.328H133.495L135.357 258.782L137.093 252.328H138.353L135.959 260H134.643L132.795 253.91L130.947 260H129.631ZM139.617 260V249.64H140.891V253.434C141.395 252.622 142.347 252.188 143.425 252.188C145.133 252.188 146.491 253.28 146.491 255.478V260H145.231V255.66C145.231 254.092 144.377 253.294 143.089 253.294C141.787 253.294 140.891 254.106 140.891 255.758V260H139.617ZM148.096 256.136C148.096 253.742 149.678 252.202 151.736 252.202C153.164 252.202 154.144 252.93 154.592 253.728V252.328H155.88V260H154.592V258.572C154.13 259.398 153.136 260.126 151.722 260.126C149.678 260.126 148.096 258.516 148.096 256.136ZM154.592 256.15C154.592 254.372 153.388 253.308 151.988 253.308C150.588 253.308 149.398 254.33 149.398 256.136C149.398 257.942 150.588 259.006 151.988 259.006C153.388 259.006 154.592 257.956 154.592 256.15ZM158.313 257.9V253.378H157.319V252.328H158.313V250.396H159.587V252.328H161.589V253.378H159.587V257.9C159.587 258.656 159.867 258.922 160.651 258.922H161.589V260H160.441C159.083 260 158.313 259.44 158.313 257.9ZM167.145 257.9V253.378H166.151V252.328H167.145V250.396H168.419V252.328H170.421V253.378H168.419V257.9C168.419 258.656 168.699 258.922 169.483 258.922H170.421V260H169.273C167.915 260 167.145 259.44 167.145 257.9ZM171.965 260V249.64H173.239V253.434C173.743 252.622 174.695 252.188 175.773 252.188C177.481 252.188 178.839 253.28 178.839 255.478V260H177.579V255.66C177.579 254.092 176.725 253.294 175.437 253.294C174.135 253.294 173.239 254.106 173.239 255.758V260H171.965ZM184.182 253.28C182.936 253.28 181.9 254.106 181.76 255.604H186.604C186.618 254.106 185.498 253.28 184.182 253.28ZM187.766 257.634C187.374 259.034 186.142 260.126 184.238 260.126C182.054 260.126 180.444 258.586 180.444 256.15C180.444 253.728 181.998 252.202 184.238 252.202C186.464 252.202 187.92 253.77 187.92 255.87C187.92 256.15 187.906 256.374 187.878 256.64H181.746C181.844 258.194 182.936 259.048 184.238 259.048C185.386 259.048 186.114 258.46 186.394 257.634H187.766ZM192.513 258.544L194.893 252.328H196.209L191.589 263.612H190.273L191.785 259.916L188.691 252.328H190.105L192.513 258.544ZM206.837 260V255.66C206.837 254.092 205.983 253.294 204.695 253.294C203.393 253.294 202.497 254.106 202.497 255.758V260H201.223V252.328H202.497V253.42C203.001 252.622 203.925 252.188 204.961 252.188C206.739 252.188 208.097 253.28 208.097 255.478V260H206.837ZM213.44 253.28C212.194 253.28 211.158 254.106 211.018 255.604H215.862C215.876 254.106 214.756 253.28 213.44 253.28ZM217.024 257.634C216.632 259.034 215.4 260.126 213.496 260.126C211.312 260.126 209.702 258.586 209.702 256.15C209.702 253.728 211.256 252.202 213.496 252.202C215.722 252.202 217.178 253.77 217.178 255.87C217.178 256.15 217.164 256.374 217.136 256.64H211.004C211.102 258.194 212.194 259.048 213.496 259.048C214.644 259.048 215.372 258.46 215.652 257.634H217.024ZM222.121 253.28C220.875 253.28 219.839 254.106 219.699 255.604H224.543C224.557 254.106 223.437 253.28 222.121 253.28ZM225.705 257.634C225.313 259.034 224.081 260.126 222.177 260.126C219.993 260.126 218.383 258.586 218.383 256.15C218.383 253.728 219.937 252.202 222.177 252.202C224.403 252.202 225.859 253.77 225.859 255.87C225.859 256.15 225.845 256.374 225.817 256.64H219.685C219.783 258.194 220.875 259.048 222.177 259.048C223.325 259.048 224.053 258.46 224.333 257.634H225.705ZM227.065 256.136C227.065 253.742 228.647 252.202 230.719 252.202C231.923 252.202 233.029 252.818 233.561 253.7V249.64H234.849V260H233.561V258.558C233.099 259.412 232.105 260.126 230.705 260.126C228.647 260.126 227.065 258.516 227.065 256.136ZM233.561 256.15C233.561 254.372 232.357 253.308 230.957 253.308C229.557 253.308 228.367 254.33 228.367 256.136C228.367 257.942 229.557 259.006 230.957 259.006C232.357 259.006 233.561 257.956 233.561 256.15ZM238.248 259.216C238.248 259.706 237.87 260.084 237.408 260.084C236.918 260.084 236.54 259.706 236.54 259.216C236.54 258.726 236.918 258.348 237.408 258.348C237.87 258.348 238.248 258.726 238.248 259.216Z" fill="#4F668E"/>
</svg>
