<svg width="140" height="112" viewBox="0 0 140 112" fill="none" xmlns="http://www.w3.org/2000/svg">
<g clip-path="url(#clip0_0_472)">
<path d="M126 28H98C90.3 28 84 34.3 84 42V98C84 105.7 90.3 112 98 112H126C133.7 112 140 105.7 140 98V42C140 34.3 133.7 28 126 28ZM133 98C133 101.865 129.865 105 126 105H98C94.1347 105 91 101.865 91 98V42C91 38.1347 94.1347 35 98 35H126C129.865 35 133 38.1347 133 42V98ZM21 14C21 10.1347 24.1347 7 28 7H98C101.865 7 105 10.1347 105 14V17.5C105 19.4338 106.575 21 108.303 21C110.031 21 112 19.4338 112 17.5V14C112 6.3 105.7 0 98 0H28C20.3 0 14 6.3 14 14V63H3.5C1.56691 63 0 64.575 0 66.5V70C0.0273438 77.7109 6.26281 83.9737 13.9738 84H73.4956C75.425 84 77 82.425 77 80.5C77 78.575 75.425 77 73.5 77H13.9738C10.1172 77 7 73.85 7 70H73.5C75.425 70 77 68.425 77 66.5C77 64.575 75.425 63 73.5 63H21V14Z" fill="url(#paint0_linear_0_472)"/>
</g>
<defs>
<linearGradient id="paint0_linear_0_472" x1="70" y1="0" x2="70" y2="112" gradientUnits="userSpaceOnUse">
<stop offset="0.9999" stop-color="#DB5656"/>
<stop offset="1" stop-color="#ED1111" stop-opacity="0"/>
</linearGradient>
<clipPath id="clip0_0_472">
<rect width="140" height="112" fill="white"/>
</clipPath>
</defs>
</svg>
