<svg width="50" height="49" viewBox="0 0 50 49" fill="none" xmlns="http://www.w3.org/2000/svg">
<g filter="url(#filter0_d_0_200)">
<path d="M19.6136 40H9.38636C8.07045 40 7 39.0187 7 37.8125V32.1875C7 30.9812 8.07045 30 9.38636 30H19.6136C20.9295 30 22 30.9812 22 32.1875V37.8125C22 39.0187 20.9295 40 19.6136 40Z" fill="white"/>
<path d="M19.6136 24H9.38636C8.07045 24 7 22.9346 7 21.625V7.375C7 6.06536 8.07045 5 9.38636 5H19.6136C20.9295 5 22 6.06536 22 7.375V21.625C22 22.9346 20.9295 24 19.6136 24Z" fill="white"/>
<path d="M40.6136 15H30.3864C29.0705 15 28 14.0187 28 12.8125V7.1875C28 5.98125 29.0705 5 30.3864 5H40.6136C41.9295 5 43 5.98125 43 7.1875V12.8125C43 14.0187 41.9295 15 40.6136 15Z" fill="white"/>
<path d="M40.6136 40H30.3864C29.0705 40 28 38.9346 28 37.625V23.375C28 22.0654 29.0705 21 30.3864 21H40.6136C41.9295 21 43 22.0654 43 23.375V37.625C43 38.9346 41.9295 40 40.6136 40Z" fill="white"/>
</g>
<defs>
<filter id="filter0_d_0_200" x="0" y="0" width="50" height="49" filterUnits="userSpaceOnUse" color-interpolation-filters="sRGB">
<feFlood flood-opacity="0" result="BackgroundImageFix"/>
<feColorMatrix in="SourceAlpha" type="matrix" values="0 0 0 0 0 0 0 0 0 0 0 0 0 0 0 0 0 0 127 0" result="hardAlpha"/>
<feOffset dy="2"/>
<feGaussianBlur stdDeviation="3.5"/>
<feComposite in2="hardAlpha" operator="out"/>
<feColorMatrix type="matrix" values="0 0 0 0 0 0 0 0 0 0 0 0 0 0 0 0 0 0 0.15 0"/>
<feBlend mode="normal" in2="BackgroundImageFix" result="effect1_dropShadow_0_200"/>
<feBlend mode="normal" in="SourceGraphic" in2="effect1_dropShadow_0_200" result="shape"/>
</filter>
</defs>
</svg>
