<svg width="55" height="55" viewBox="0 0 55 55" fill="none" xmlns="http://www.w3.org/2000/svg">
<g filter="url(#filter0_d_0_173)">
<path d="M30.0625 25.5C30.0625 26.9174 28.9174 28.0625 27.5 28.0625C26.0826 28.0625 24.9375 26.9174 24.9375 25.5C24.9375 24.0826 26.0826 22.9375 27.5 22.9375C28.9174 22.9375 30.0625 24.0826 30.0625 25.5ZM7 25.5C7 14.177 16.177 5 27.5 5C38.823 5 48 14.177 48 25.5C48 36.823 38.823 46 27.5 46C16.177 46 7 36.823 7 25.5ZM33.0334 29.56L37.4777 18.0047C38.0783 16.3791 36.5488 14.9217 34.9953 15.5223L23.44 19.9666C22.7594 20.2229 22.2229 20.7594 21.9666 21.44L17.5223 32.9953C16.9217 34.5488 18.3791 36.0783 20.0047 35.4777L31.56 31.0334C32.2406 30.7771 32.7771 30.2406 33.0334 29.56Z" fill="white"/>
</g>
<defs>
<filter id="filter0_d_0_173" x="0" y="0" width="55" height="55" filterUnits="userSpaceOnUse" color-interpolation-filters="sRGB">
<feFlood flood-opacity="0" result="BackgroundImageFix"/>
<feColorMatrix in="SourceAlpha" type="matrix" values="0 0 0 0 0 0 0 0 0 0 0 0 0 0 0 0 0 0 127 0" result="hardAlpha"/>
<feOffset dy="2"/>
<feGaussianBlur stdDeviation="3.5"/>
<feComposite in2="hardAlpha" operator="out"/>
<feColorMatrix type="matrix" values="0 0 0 0 0 0 0 0 0 0 0 0 0 0 0 0 0 0 0.15 0"/>
<feBlend mode="normal" in2="BackgroundImageFix" result="effect1_dropShadow_0_173"/>
<feBlend mode="normal" in="SourceGraphic" in2="effect1_dropShadow_0_173" result="shape"/>
</filter>
</defs>
</svg>
