<svg width="51" height="53" viewBox="0 0 51 53" fill="none" xmlns="http://www.w3.org/2000/svg">
<g filter="url(#filter0_d_0_189)">
<path fill-rule="evenodd" clip-rule="evenodd" d="M43.9999 13.7125L44 13.6744V13.75L43.9999 13.7125ZM36.0714 5.6875C40.4364 5.6875 43.9801 9.27691 43.9999 13.7125C43.9801 18.221 40.4364 21.7369 36.0714 21.7369C33.9324 21.7369 31.9915 20.9559 30.571 19.5533L22.7993 23.5006C22.8243 23.6987 22.813 23.8722 22.8002 24.0694C22.7918 24.1983 22.7828 24.3373 22.7828 24.5C22.7828 24.6231 22.7906 24.7361 22.7984 24.8496L22.7984 24.8496C22.8119 25.0459 22.8255 25.244 22.7993 25.4994L30.571 29.4467C31.9915 28.0441 33.9324 27.1875 36.0714 27.1875C40.4487 27.1875 44 30.7232 44 35.25C44 39.7012 40.4487 43.3125 36.0714 43.3125C31.6199 43.3125 28.1429 39.7012 28.1429 35.25C28.1429 34.8385 28.1594 34.5781 28.2007 34.2506L20.429 30.3033C19.0085 31.7059 17.0676 32.5625 14.9286 32.5625C10.5497 32.5625 7 28.9512 7 24.5C7 19.9732 10.5497 16.4375 14.9286 16.4375C17.0676 16.4375 19.0085 17.2941 20.429 18.6967L28.2007 14.7494C28.1594 14.3463 28.1429 14.0859 28.1429 13.75C28.1429 9.29715 31.6199 5.6875 36.0714 5.6875Z" fill="white"/>
</g>
<defs>
<filter id="filter0_d_0_189" x="0" y="0.6875" width="51" height="51.625" filterUnits="userSpaceOnUse" color-interpolation-filters="sRGB">
<feFlood flood-opacity="0" result="BackgroundImageFix"/>
<feColorMatrix in="SourceAlpha" type="matrix" values="0 0 0 0 0 0 0 0 0 0 0 0 0 0 0 0 0 0 127 0" result="hardAlpha"/>
<feOffset dy="2"/>
<feGaussianBlur stdDeviation="3.5"/>
<feComposite in2="hardAlpha" operator="out"/>
<feColorMatrix type="matrix" values="0 0 0 0 0 0 0 0 0 0 0 0 0 0 0 0 0 0 0.15 0"/>
<feBlend mode="normal" in2="BackgroundImageFix" result="effect1_dropShadow_0_189"/>
<feBlend mode="normal" in="SourceGraphic" in2="effect1_dropShadow_0_189" result="shape"/>
</filter>
</defs>
</svg>
