<svg width="202" height="40" viewBox="0 0 202 40" fill="none" xmlns="http://www.w3.org/2000/svg">
<path d="M19.0489 2.92705C19.3483 2.00574 20.6517 2.00574 20.9511 2.92705L24.2658 13.1287C24.3996 13.5407 24.7836 13.8197 25.2168 13.8197H35.9434C36.9122 13.8197 37.3149 15.0593 36.5312 15.6287L27.8532 21.9336C27.5027 22.1883 27.3561 22.6396 27.4899 23.0517L30.8046 33.2533C31.104 34.1746 30.0495 34.9407 29.2658 34.3713L20.5878 28.0664C20.2373 27.8117 19.7627 27.8117 19.4122 28.0664L10.7342 34.3713C9.95048 34.9407 8.896 34.1746 9.19535 33.2533L12.5101 23.0517C12.6439 22.6396 12.4973 22.1883 12.1468 21.9336L3.46877 15.6287C2.68505 15.0593 3.08783 13.8197 4.05655 13.8197H14.7832C15.2164 13.8197 15.6004 13.5407 15.7342 13.1287L19.0489 2.92705Z" fill="#F6AD01"/>
<path d="M59.0489 2.92705C59.3483 2.00574 60.6517 2.00574 60.9511 2.92705L64.2658 13.1287C64.3996 13.5407 64.7836 13.8197 65.2168 13.8197H75.9434C76.9122 13.8197 77.3149 15.0593 76.5312 15.6287L67.8532 21.9336C67.5027 22.1883 67.3561 22.6396 67.4899 23.0517L70.8046 33.2533C71.104 34.1746 70.0495 34.9407 69.2658 34.3713L60.5878 28.0664C60.2373 27.8117 59.7627 27.8117 59.4122 28.0664L50.7342 34.3713C49.9505 34.9407 48.896 34.1746 49.1954 33.2533L52.5101 23.0517C52.6439 22.6396 52.4973 22.1883 52.1468 21.9336L43.4688 15.6287C42.6851 15.0593 43.0878 13.8197 44.0566 13.8197H54.7832C55.2164 13.8197 55.6004 13.5407 55.7342 13.1287L59.0489 2.92705Z" fill="#F6AD01"/>
<path d="M140.225 2.92705C140.524 2.00574 141.827 2.00574 142.127 2.92705L145.442 13.1287C145.575 13.5407 145.959 13.8197 146.393 13.8197H157.119C158.088 13.8197 158.491 15.0593 157.707 15.6287L149.029 21.9336C148.679 22.1883 148.532 22.6396 148.666 23.0517L151.98 33.2533C152.28 34.1746 151.225 34.9407 150.442 34.3713L141.764 28.0664C141.413 27.8117 140.938 27.8117 140.588 28.0664L131.91 34.3713C131.126 34.9407 130.072 34.1746 130.371 33.2533L133.686 23.0517C133.82 22.6396 133.673 22.1883 133.323 21.9336L124.645 15.6287C123.861 15.0593 124.264 13.8197 125.232 13.8197H135.959C136.392 13.8197 136.776 13.5407 136.91 13.1287L140.225 2.92705Z" fill="#F6AD01"/>
<path d="M99.6399 2.83535C99.9444 1.92496 101.232 1.92496 101.537 2.83535L104.982 13.1369C105.119 13.5447 105.501 13.8197 105.931 13.8197H117.018C117.993 13.8197 118.392 15.074 117.594 15.6367L108.675 21.9318C108.314 22.1864 108.163 22.6473 108.303 23.066L111.722 33.2867C112.028 34.203 110.986 34.978 110.197 34.4209L101.165 28.0463C100.819 27.8023 100.357 27.8023 100.012 28.0463L90.9796 34.4209C90.1903 34.978 89.1482 34.203 89.4546 33.2867L92.8732 23.066C93.0132 22.6473 92.8622 22.1864 92.5015 21.9318L83.5821 15.6367C82.7849 15.074 83.183 13.8197 84.1587 13.8197H95.2459C95.676 13.8197 96.0579 13.5447 96.1943 13.1369L99.6399 2.83535Z" fill="#F6AD01"/>
<path d="M180.225 2.92705C180.524 2.00574 181.827 2.00574 182.127 2.92705L185.442 13.1287C185.575 13.5407 185.959 13.8197 186.393 13.8197H197.119C198.088 13.8197 198.491 15.0593 197.707 15.6287L189.029 21.9336C188.679 22.1883 188.532 22.6396 188.666 23.0517L191.98 33.2533C192.28 34.1746 191.225 34.9407 190.442 34.3713L181.764 28.0664C181.413 27.8117 180.938 27.8117 180.588 28.0664L171.91 34.3713C171.126 34.9407 170.072 34.1746 170.371 33.2533L173.686 23.0517C173.82 22.6396 173.673 22.1883 173.323 21.9336L164.645 15.6287C163.861 15.0593 164.264 13.8197 165.232 13.8197H175.959C176.392 13.8197 176.776 13.5407 176.91 13.1287L180.225 2.92705Z" fill="#F6AD01"/>
</svg>
